G04*
G04 #@! TF.GenerationSoftware,Altium Limited,Altium Designer,21.4.1 (30)*
G04*
G04 Layer_Color=65535*
%FSLAX44Y44*%
%MOMM*%
G71*
G04*
G04 #@! TF.SameCoordinates,1B399950-D3B7-4EFA-8D0F-ABCAEF693611*
G04*
G04*
G04 #@! TF.FilePolarity,Positive*
G04*
G01*
G75*
%ADD10C,0.2000*%
%ADD11C,0.1500*%
%ADD12C,0.1000*%
%ADD13C,0.2540*%
%ADD14C,0.2500*%
D10*
X294380Y43470D02*
X347720D01*
X294380Y15530D02*
Y43470D01*
Y15530D02*
X347720D01*
Y43470D01*
X35900Y273990D02*
X114640D01*
X35900Y246050D02*
Y273990D01*
Y246050D02*
X114640D01*
Y273990D01*
X68630Y14030D02*
Y41970D01*
X121970D01*
Y14030D02*
Y41970D01*
X68630Y14030D02*
X121970D01*
X293530Y247530D02*
Y275470D01*
X346870D01*
Y247530D02*
Y275470D01*
X293530Y247530D02*
X346870D01*
X14250Y254247D02*
X20914D01*
X17582D01*
Y244250D01*
X24247Y254247D02*
X30911Y244250D01*
Y254247D02*
X24247Y244250D01*
X25750Y45663D02*
Y35666D01*
X30748D01*
X32415Y37332D01*
Y43997D01*
X30748Y45663D01*
X25750D01*
X35747Y34000D02*
X42411D01*
X45744Y45663D02*
X52408D01*
X49076D01*
Y35666D01*
X55740Y45663D02*
X62405Y35666D01*
Y45663D02*
X55740Y35666D01*
X351000Y244750D02*
Y254747D01*
X355998D01*
X357664Y253081D01*
Y249748D01*
X355998Y248082D01*
X351000D01*
X360997Y244750D02*
Y251415D01*
X364329Y254747D01*
X367661Y251415D01*
Y244750D01*
Y249748D01*
X360997D01*
X370994Y253081D02*
X372660Y254747D01*
X375992D01*
X377658Y253081D01*
Y246416D01*
X375992Y244750D01*
X372660D01*
X370994Y246416D01*
Y253081D01*
X280000Y247082D02*
X286665D01*
X283332Y250415D02*
Y243750D01*
X118500Y249832D02*
X125164D01*
X121832Y253165D02*
Y246500D01*
X284000Y42832D02*
X290665D01*
X287332Y46164D02*
Y39500D01*
D11*
X15270Y240020D02*
X365270D01*
X15270Y50020D02*
Y240020D01*
X365270Y50020D02*
Y240020D01*
X15270Y50020D02*
X365270D01*
D12*
X370000Y238750D02*
X388000D01*
Y205750D02*
Y238750D01*
X370000Y205750D02*
Y238750D01*
Y205750D02*
X388000D01*
X370000Y208750D02*
X388000D01*
X371250Y81750D02*
X389250D01*
Y48750D02*
Y81750D01*
X371250Y48750D02*
Y81750D01*
Y48750D02*
X389250D01*
X371250Y51750D02*
X389250D01*
D13*
X353040Y43040D02*
X363197D01*
D14*
X384413Y188669D02*
X386496Y190752D01*
Y194917D01*
X384413Y197000D01*
X376083D01*
X374000Y194917D01*
Y190752D01*
X376083Y188669D01*
X386496Y178256D02*
Y182421D01*
X384413Y184504D01*
X376083D01*
X374000Y182421D01*
Y178256D01*
X376083Y176173D01*
X384413D01*
X386496Y178256D01*
X374000Y172008D02*
X386496D01*
X374000Y163678D01*
X386496D01*
X374000Y159512D02*
X386496D01*
X374000Y151181D01*
X386496D01*
X374000Y124500D02*
X386496D01*
Y118252D01*
X384413Y116169D01*
X380248D01*
X378165Y118252D01*
Y124500D01*
X386496Y112004D02*
X374000D01*
X378165Y107839D01*
X374000Y103673D01*
X386496D01*
X374000Y99508D02*
X386496D01*
Y93260D01*
X384413Y91178D01*
X380248D01*
X378165Y93260D01*
Y99508D01*
Y95343D02*
X374000Y91178D01*
X23250Y272498D02*
X19085D01*
X21167D01*
Y262085D01*
X19085Y260002D01*
X17002D01*
X14919Y262085D01*
X27415Y260002D02*
X31581D01*
X29498D01*
Y272498D01*
X27415Y270415D01*
X331669Y228998D02*
Y218585D01*
X333752Y216502D01*
X337917D01*
X340000Y218585D01*
Y228998D01*
X344165Y216502D02*
X348331D01*
X346248D01*
Y228998D01*
X344165Y226915D01*
X360169Y26415D02*
X358087Y28498D01*
X353921D01*
X351839Y26415D01*
Y18085D01*
X353921Y16002D01*
X358087D01*
X360169Y18085D01*
X364335Y16002D02*
Y28498D01*
X372665Y16002D01*
Y28498D01*
X385161D02*
X376831D01*
Y22250D01*
X380996Y24333D01*
X383079D01*
X385161Y22250D01*
Y18085D01*
X383079Y16002D01*
X378913D01*
X376831Y18085D01*
X360169Y269665D02*
X358087Y271748D01*
X353921D01*
X351839Y269665D01*
Y261335D01*
X353921Y259252D01*
X358087D01*
X360169Y261335D01*
X364335Y259252D02*
Y271748D01*
X372665Y259252D01*
Y271748D01*
X383079Y259252D02*
Y271748D01*
X376831Y265500D01*
X385161D01*
X34669Y26415D02*
X32587Y28498D01*
X28421D01*
X26339Y26415D01*
Y18085D01*
X28421Y16002D01*
X32587D01*
X34669Y18085D01*
X38835Y16002D02*
Y28498D01*
X47165Y16002D01*
Y28498D01*
X51331Y26415D02*
X53413Y28498D01*
X57579D01*
X59661Y26415D01*
Y24333D01*
X57579Y22250D01*
X55496D01*
X57579D01*
X59661Y20167D01*
Y18085D01*
X57579Y16002D01*
X53413D01*
X51331Y18085D01*
M02*
