G04*
G04 #@! TF.GenerationSoftware,Altium Limited,Altium Designer,21.4.1 (30)*
G04*
G04 Layer_Color=8388736*
%FSLAX25Y25*%
%MOIN*%
G70*
G04*
G04 #@! TF.SameCoordinates,91A49538-2058-48ED-BDE1-B27ADC330D34*
G04*
G04*
G04 #@! TF.FilePolarity,Negative*
G04*
G01*
G75*
%ADD32R,0.01981X0.02769*%
%ADD33R,0.06509X0.05918*%
%ADD34R,0.06115X0.04737*%
%ADD35R,0.03950X0.05131*%
%ADD36R,0.03005X0.04540*%
%ADD37R,0.05918X0.06509*%
%ADD38R,0.04737X0.06115*%
%ADD39R,0.02965X0.06706*%
%ADD40R,0.04737X0.03950*%
%ADD41R,0.04540X0.03005*%
%ADD42R,0.10642X0.09855*%
%ADD43R,0.04737X0.08280*%
%ADD44C,0.24422*%
%ADD45R,0.07493X0.07493*%
%ADD46C,0.07493*%
%ADD47C,0.09055*%
%ADD48R,0.09055X0.09055*%
%ADD49R,0.09055X0.09055*%
%ADD50C,0.12992*%
%ADD51C,0.14173*%
%ADD52C,0.14567*%
%ADD53R,0.07493X0.07493*%
%ADD54R,0.06115X0.06115*%
%ADD55C,0.06115*%
%ADD56C,0.07591*%
%ADD57R,0.07591X0.07591*%
D32*
X16535Y118799D02*
D03*
X13386D02*
D03*
Y113287D02*
D03*
X16535D02*
D03*
D33*
X125539Y270342D02*
D03*
Y263043D02*
D03*
X257835Y270468D02*
D03*
Y263169D02*
D03*
X63090Y94996D02*
D03*
Y87697D02*
D03*
X72441Y87787D02*
D03*
Y95087D02*
D03*
X59744Y210441D02*
D03*
Y203142D02*
D03*
X182685Y260350D02*
D03*
Y267650D02*
D03*
D34*
X287835Y270862D02*
D03*
Y262776D02*
D03*
X277835Y262819D02*
D03*
Y270905D02*
D03*
X268335Y262776D02*
D03*
Y270862D02*
D03*
X10728Y136925D02*
D03*
Y128839D02*
D03*
X20374Y128831D02*
D03*
Y136917D02*
D03*
X105539Y262457D02*
D03*
Y270543D02*
D03*
X114539Y262409D02*
D03*
Y270496D02*
D03*
X163185Y268043D02*
D03*
Y259957D02*
D03*
X153185Y259957D02*
D03*
Y268043D02*
D03*
X173185Y259957D02*
D03*
Y268043D02*
D03*
X134539Y270587D02*
D03*
Y262500D02*
D03*
D35*
X297835Y262106D02*
D03*
X305315D02*
D03*
X301575Y270374D02*
D03*
D36*
X92913Y313174D02*
D03*
X85433D02*
D03*
X89173Y320851D02*
D03*
X89164Y294858D02*
D03*
X85424Y302535D02*
D03*
X92904D02*
D03*
X104169Y224539D02*
D03*
X107910Y232217D02*
D03*
X100429D02*
D03*
X104169Y243039D02*
D03*
X107910Y250716D02*
D03*
X100429D02*
D03*
X313992Y261839D02*
D03*
X321472D02*
D03*
X317732Y269516D02*
D03*
D37*
X64657Y38484D02*
D03*
X71957D02*
D03*
X64059Y132087D02*
D03*
X71358D02*
D03*
X11598Y105217D02*
D03*
X18898D02*
D03*
X36130Y76945D02*
D03*
X28831D02*
D03*
X45169Y95669D02*
D03*
X52469D02*
D03*
X28831Y104724D02*
D03*
X36130D02*
D03*
X28929Y86221D02*
D03*
X36228D02*
D03*
X64059Y104626D02*
D03*
X71358D02*
D03*
X159744Y250394D02*
D03*
X152445D02*
D03*
X216154Y250587D02*
D03*
X208854D02*
D03*
X271752Y143012D02*
D03*
X279051D02*
D03*
Y152657D02*
D03*
X271752D02*
D03*
D38*
X63468Y113386D02*
D03*
X71555D02*
D03*
X71555Y122933D02*
D03*
X63468D02*
D03*
X258677Y252685D02*
D03*
X250590D02*
D03*
X44677Y104921D02*
D03*
X52764D02*
D03*
X125154Y219898D02*
D03*
X133240D02*
D03*
X208051Y261240D02*
D03*
X216138D02*
D03*
X216051Y270669D02*
D03*
X207965D02*
D03*
X258677Y243925D02*
D03*
X250590D02*
D03*
X340949Y314862D02*
D03*
X349035D02*
D03*
D39*
X135169Y253008D02*
D03*
X130169D02*
D03*
X125169D02*
D03*
X120169D02*
D03*
X135169Y231748D02*
D03*
X130169D02*
D03*
X125169D02*
D03*
X120169D02*
D03*
D40*
X268224Y247370D02*
D03*
Y255047D02*
D03*
X278067Y251209D02*
D03*
D41*
X249173Y266419D02*
D03*
X241496Y270159D02*
D03*
Y262679D02*
D03*
D42*
X341457Y299862D02*
D03*
X324528D02*
D03*
D43*
X333398Y314862D02*
D03*
X321587D02*
D03*
D44*
X23622Y307087D02*
D03*
Y23622D02*
D03*
X393701D02*
D03*
Y311024D02*
D03*
D45*
X170685Y322874D02*
D03*
X48307Y120354D02*
D03*
X74902Y298957D02*
D03*
X196358Y261634D02*
D03*
D46*
X180685Y322874D02*
D03*
X170685Y312874D02*
D03*
X180685D02*
D03*
X170685Y302874D02*
D03*
X180685D02*
D03*
X170685Y292874D02*
D03*
X180685D02*
D03*
X62106Y26969D02*
D03*
X62047Y14075D02*
D03*
X38307Y210354D02*
D03*
X48307D02*
D03*
X38307Y200354D02*
D03*
X48307D02*
D03*
X38307Y190354D02*
D03*
X48307D02*
D03*
X38307Y180354D02*
D03*
X48307D02*
D03*
X38307Y170354D02*
D03*
X48307D02*
D03*
X38307Y160354D02*
D03*
X48307D02*
D03*
X38307Y150354D02*
D03*
X48307D02*
D03*
X38307Y140354D02*
D03*
X48307D02*
D03*
X38307Y130354D02*
D03*
X48307D02*
D03*
X38307Y120354D02*
D03*
X74902Y308957D02*
D03*
Y318957D02*
D03*
X360844Y10066D02*
D03*
X196358Y271634D02*
D03*
D47*
X266831Y303150D02*
D03*
X27264Y262461D02*
D03*
Y277461D02*
D03*
X138917Y303150D02*
D03*
X123917D02*
D03*
X303760D02*
D03*
D48*
X251831D02*
D03*
X108917D02*
D03*
X288760D02*
D03*
D49*
X27264Y247461D02*
D03*
D50*
X101772Y38462D02*
D03*
Y97478D02*
D03*
D51*
X208780Y38462D02*
D03*
Y97478D02*
D03*
D52*
Y67970D02*
D03*
D53*
X72106Y26969D02*
D03*
X72047Y14075D02*
D03*
X370844Y10066D02*
D03*
D54*
X208661Y141732D02*
D03*
Y236221D02*
D03*
D55*
X200787Y141732D02*
D03*
X192913D02*
D03*
X185039D02*
D03*
X177165D02*
D03*
X169291D02*
D03*
X161417D02*
D03*
X153543D02*
D03*
Y236221D02*
D03*
X161417D02*
D03*
X169291D02*
D03*
X177165D02*
D03*
X185039D02*
D03*
X192913D02*
D03*
X200787D02*
D03*
D56*
X253031Y161417D02*
D03*
Y151417D02*
D03*
Y171417D02*
D03*
X243032Y161417D02*
D03*
Y151417D02*
D03*
Y171417D02*
D03*
X253031Y181417D02*
D03*
X243032Y141417D02*
D03*
Y181417D02*
D03*
D57*
X253071Y141319D02*
D03*
M02*
