G04*
G04 #@! TF.GenerationSoftware,Altium Limited,Altium Designer,21.4.1 (30)*
G04*
G04 Layer_Color=32896*
%FSLAX25Y25*%
%MOIN*%
G70*
G04*
G04 #@! TF.SameCoordinates,91A49538-2058-48ED-BDE1-B27ADC330D34*
G04*
G04*
G04 #@! TF.FilePolarity,Positive*
G04*
G01*
G75*
%ADD10C,0.00787*%
%ADD19C,0.01000*%
D10*
X37008Y307087D02*
G03*
X37008Y307087I-13386J0D01*
G01*
Y23622D02*
G03*
X37008Y23622I-13386J0D01*
G01*
X407087D02*
G03*
X407087Y23622I-13386J0D01*
G01*
Y311024D02*
G03*
X407087Y311024I-13386J0D01*
G01*
X32972Y215256D02*
X32972Y115453D01*
X32972Y215256D02*
X53642D01*
X32972Y115453D02*
X53642D01*
Y215256D01*
X238071Y135945D02*
Y186929D01*
Y135945D02*
X257953D01*
X238071Y186929D02*
X257953D01*
Y135945D02*
Y186929D01*
D19*
X252610Y194618D02*
X253609Y195618D01*
X255609D01*
X256609Y194618D01*
Y190620D01*
X255609Y189620D01*
X253609D01*
X252610Y190620D01*
X250610Y189620D02*
Y195618D01*
X246612Y189620D01*
Y195618D01*
X244612Y194618D02*
X243613Y195618D01*
X241613D01*
X240614Y194618D01*
Y193619D01*
X241613Y192619D01*
X240614Y191619D01*
Y190620D01*
X241613Y189620D01*
X243613D01*
X244612Y190620D01*
Y191619D01*
X243613Y192619D01*
X244612Y193619D01*
Y194618D01*
X243613Y192619D02*
X241613D01*
M02*
