G04*
G04 #@! TF.GenerationSoftware,Altium Limited,Altium Designer,21.4.1 (30)*
G04*
G04 Layer_Physical_Order=2*
G04 Layer_Color=16711680*
%FSLAX25Y25*%
%MOIN*%
G70*
G04*
G04 #@! TF.SameCoordinates,91A49538-2058-48ED-BDE1-B27ADC330D34*
G04*
G04*
G04 #@! TF.FilePolarity,Positive*
G04*
G01*
G75*
%ADD10C,0.00787*%
%ADD19C,0.01000*%
%ADD59C,0.01968*%
%ADD60C,0.03937*%
%ADD63C,0.23622*%
%ADD64R,0.06693X0.06693*%
%ADD65C,0.06693*%
%ADD66C,0.07874*%
%ADD67R,0.07874X0.07874*%
%ADD68R,0.07874X0.07874*%
%ADD69C,0.11811*%
%ADD70C,0.12992*%
%ADD71C,0.13386*%
%ADD72R,0.06693X0.06693*%
%ADD73R,0.05315X0.05315*%
%ADD74C,0.05315*%
%ADD75C,0.06791*%
%ADD76R,0.06791X0.06791*%
%ADD77C,0.03543*%
%ADD78C,0.02362*%
%ADD79C,0.03937*%
G36*
X413386Y3937D02*
X3937D01*
Y326772D01*
X166551D01*
Y319128D01*
X151351D01*
X151264Y319567D01*
X150829Y320218D01*
X150178Y320654D01*
X149409Y320806D01*
X148641Y320654D01*
X147990Y320218D01*
X147555Y319567D01*
X147402Y318799D01*
X147555Y318031D01*
X147990Y317380D01*
X148641Y316945D01*
X149409Y316792D01*
X149780Y316866D01*
X150174Y316602D01*
X150676Y316502D01*
X167330D01*
X167551Y316132D01*
X167654Y315715D01*
X167074Y314959D01*
X166658Y313953D01*
X166516Y312874D01*
X166658Y311795D01*
X167074Y310789D01*
X167737Y309926D01*
X168600Y309263D01*
X169606Y308847D01*
X170685Y308704D01*
X171764Y308847D01*
X172770Y309263D01*
X173633Y309926D01*
X174296Y310789D01*
X174713Y311795D01*
X174855Y312874D01*
X174713Y313953D01*
X174296Y314959D01*
X173716Y315715D01*
X173819Y316132D01*
X174041Y316502D01*
X175826D01*
X177203Y315126D01*
X177074Y314959D01*
X176658Y313953D01*
X176515Y312874D01*
X176658Y311795D01*
X177074Y310789D01*
X177737Y309926D01*
X178600Y309263D01*
X179606Y308847D01*
X180685Y308704D01*
X181764Y308847D01*
X182770Y309263D01*
X183633Y309926D01*
X184296Y310789D01*
X184713Y311795D01*
X184855Y312874D01*
X184713Y313953D01*
X184296Y314959D01*
X183633Y315822D01*
X182770Y316485D01*
X181764Y316901D01*
X180685Y317043D01*
X179606Y316901D01*
X179276Y316765D01*
X177298Y318743D01*
X176872Y319028D01*
X176370Y319128D01*
X174819D01*
Y326772D01*
X177681D01*
X177948Y325984D01*
X177737Y325822D01*
X177074Y324959D01*
X176658Y323953D01*
X176515Y322874D01*
X176658Y321795D01*
X177074Y320789D01*
X177737Y319926D01*
X178600Y319263D01*
X179606Y318847D01*
X180685Y318705D01*
X181764Y318847D01*
X182770Y319263D01*
X183633Y319926D01*
X184296Y320789D01*
X184713Y321795D01*
X184855Y322874D01*
X184713Y323953D01*
X184296Y324959D01*
X183633Y325822D01*
X183422Y325984D01*
X183690Y326772D01*
X413386D01*
Y3937D01*
D02*
G37*
%LPC*%
G36*
X75402Y323275D02*
Y319457D01*
X79220D01*
X79136Y320091D01*
X78698Y321149D01*
X78001Y322057D01*
X77094Y322753D01*
X76036Y323191D01*
X75402Y323275D01*
D02*
G37*
G36*
X74402D02*
X73767Y323191D01*
X72710Y322753D01*
X71802Y322057D01*
X71105Y321149D01*
X70667Y320091D01*
X70583Y319457D01*
X74402D01*
Y323275D01*
D02*
G37*
G36*
Y318457D02*
X70583D01*
X70667Y317822D01*
X71105Y316765D01*
X71802Y315857D01*
X72710Y315160D01*
X73767Y314722D01*
X74402Y314639D01*
Y318457D01*
D02*
G37*
G36*
X79220D02*
X75402D01*
Y314639D01*
X76036Y314722D01*
X77094Y315160D01*
X78001Y315857D01*
X78698Y316765D01*
X79136Y317822D01*
X79220Y318457D01*
D02*
G37*
G36*
X74902Y313126D02*
X73822Y312984D01*
X72817Y312568D01*
X71953Y311905D01*
X71291Y311041D01*
X70874Y310036D01*
X70732Y308957D01*
X70874Y307877D01*
X71291Y306872D01*
X71953Y306008D01*
X72817Y305346D01*
X73822Y304929D01*
X74902Y304787D01*
X75981Y304929D01*
X76986Y305346D01*
X77850Y306008D01*
X78513Y306872D01*
X78929Y307877D01*
X79071Y308957D01*
X78929Y310036D01*
X78513Y311041D01*
X77850Y311905D01*
X76986Y312568D01*
X75981Y312984D01*
X74902Y313126D01*
D02*
G37*
G36*
X293697Y308087D02*
X289260D01*
Y303650D01*
X293697D01*
Y308087D01*
D02*
G37*
G36*
X288260D02*
X283823D01*
Y303650D01*
X288260D01*
Y308087D01*
D02*
G37*
G36*
X256768D02*
X252331D01*
Y303650D01*
X256768D01*
Y308087D01*
D02*
G37*
G36*
X251331D02*
X246894D01*
Y303650D01*
X251331D01*
Y308087D01*
D02*
G37*
G36*
X171185Y307192D02*
Y303374D01*
X175003D01*
X174920Y304009D01*
X174482Y305066D01*
X173785Y305974D01*
X172877Y306671D01*
X171820Y307109D01*
X171185Y307192D01*
D02*
G37*
G36*
X170185D02*
X169550Y307109D01*
X168493Y306671D01*
X167585Y305974D01*
X166888Y305066D01*
X166451Y304009D01*
X166367Y303374D01*
X170185D01*
Y307192D01*
D02*
G37*
G36*
X317035Y302730D02*
Y300500D01*
X319265D01*
X319236Y300724D01*
X318956Y301398D01*
X318512Y301977D01*
X317933Y302421D01*
X317259Y302700D01*
X317035Y302730D01*
D02*
G37*
G36*
X316035D02*
X315812Y302700D01*
X315138Y302421D01*
X314559Y301977D01*
X314114Y301398D01*
X313835Y300724D01*
X313806Y300500D01*
X316035D01*
Y302730D01*
D02*
G37*
G36*
X180685Y307044D02*
X179606Y306902D01*
X178600Y306485D01*
X177737Y305822D01*
X177074Y304959D01*
X176658Y303953D01*
X176515Y302874D01*
X176658Y301795D01*
X177074Y300789D01*
X177737Y299926D01*
X178600Y299263D01*
X179606Y298847D01*
X180685Y298705D01*
X181764Y298847D01*
X182770Y299263D01*
X183633Y299926D01*
X184296Y300789D01*
X184713Y301795D01*
X184855Y302874D01*
X184713Y303953D01*
X184296Y304959D01*
X183633Y305822D01*
X182770Y306485D01*
X181764Y306902D01*
X180685Y307044D01*
D02*
G37*
G36*
X175003Y302374D02*
X171185D01*
Y298556D01*
X171820Y298639D01*
X172877Y299077D01*
X173785Y299774D01*
X174482Y300682D01*
X174920Y301739D01*
X175003Y302374D01*
D02*
G37*
G36*
X170185D02*
X166367D01*
X166451Y301739D01*
X166888Y300682D01*
X167585Y299774D01*
X168493Y299077D01*
X169550Y298639D01*
X170185Y298556D01*
Y302374D01*
D02*
G37*
G36*
X113642Y307874D02*
X104193D01*
Y298425D01*
X113642D01*
Y307874D01*
D02*
G37*
G36*
X393701Y323661D02*
X391724Y323505D01*
X389796Y323042D01*
X387964Y322284D01*
X386273Y321248D01*
X384765Y319960D01*
X383477Y318452D01*
X382441Y316761D01*
X381682Y314929D01*
X381219Y313000D01*
X381063Y311024D01*
X381219Y309047D01*
X381682Y307118D01*
X382441Y305286D01*
X383477Y303596D01*
X384765Y302088D01*
X386273Y300800D01*
X387964Y299764D01*
X389796Y299005D01*
X391724Y298542D01*
X393701Y298386D01*
X395678Y298542D01*
X397606Y299005D01*
X399438Y299764D01*
X401129Y300800D01*
X402637Y302088D01*
X403925Y303596D01*
X404961Y305286D01*
X405720Y307118D01*
X406183Y309047D01*
X406338Y311024D01*
X406183Y313000D01*
X405720Y314929D01*
X404961Y316761D01*
X403925Y318452D01*
X402637Y319960D01*
X401129Y321248D01*
X399438Y322284D01*
X397606Y323042D01*
X395678Y323505D01*
X393701Y323661D01*
D02*
G37*
G36*
X303760Y307915D02*
X302526Y307752D01*
X301377Y307276D01*
X300390Y306519D01*
X299633Y305532D01*
X299157Y304383D01*
X298995Y303150D01*
X299157Y301916D01*
X299633Y300767D01*
X300390Y299780D01*
X301377Y299023D01*
X302526Y298547D01*
X303760Y298384D01*
X304993Y298547D01*
X306142Y299023D01*
X307129Y299780D01*
X307887Y300767D01*
X308363Y301916D01*
X308525Y303150D01*
X308363Y304383D01*
X307887Y305532D01*
X307129Y306519D01*
X306142Y307276D01*
X304993Y307752D01*
X303760Y307915D01*
D02*
G37*
G36*
X266831D02*
X265597Y307752D01*
X264448Y307276D01*
X263461Y306519D01*
X262704Y305532D01*
X262228Y304383D01*
X262066Y303150D01*
X262228Y301916D01*
X262704Y300767D01*
X263461Y299780D01*
X264448Y299023D01*
X265597Y298547D01*
X266831Y298384D01*
X268064Y298547D01*
X269213Y299023D01*
X270200Y299780D01*
X270957Y300767D01*
X271433Y301916D01*
X271596Y303150D01*
X271433Y304383D01*
X270957Y305532D01*
X270200Y306519D01*
X269213Y307276D01*
X268064Y307752D01*
X266831Y307915D01*
D02*
G37*
G36*
X138917D02*
X137684Y307752D01*
X136535Y307276D01*
X135548Y306519D01*
X134791Y305532D01*
X134315Y304383D01*
X134152Y303150D01*
X134315Y301916D01*
X134791Y300767D01*
X135548Y299780D01*
X136535Y299023D01*
X137684Y298547D01*
X138917Y298384D01*
X140151Y298547D01*
X141300Y299023D01*
X142287Y299780D01*
X143044Y300767D01*
X143520Y301916D01*
X143683Y303150D01*
X143520Y304383D01*
X143044Y305532D01*
X142287Y306519D01*
X141300Y307276D01*
X140151Y307752D01*
X138917Y307915D01*
D02*
G37*
G36*
X293697Y302650D02*
X289260D01*
Y298213D01*
X293697D01*
Y302650D01*
D02*
G37*
G36*
X288260D02*
X283823D01*
Y298213D01*
X288260D01*
Y302650D01*
D02*
G37*
G36*
X256768D02*
X252331D01*
Y298213D01*
X256768D01*
Y302650D01*
D02*
G37*
G36*
X251331D02*
X246894D01*
Y298213D01*
X251331D01*
Y302650D01*
D02*
G37*
G36*
X319265Y299500D02*
X317035D01*
Y297270D01*
X317259Y297300D01*
X317933Y297579D01*
X318512Y298023D01*
X318956Y298602D01*
X319236Y299276D01*
X319265Y299500D01*
D02*
G37*
G36*
X316035D02*
X313806D01*
X313835Y299276D01*
X314114Y298602D01*
X314559Y298023D01*
X315138Y297579D01*
X315812Y297300D01*
X316035Y297270D01*
Y299500D01*
D02*
G37*
G36*
X79035Y303091D02*
X70768D01*
Y294823D01*
X79035D01*
Y303091D01*
D02*
G37*
G36*
X23622Y319724D02*
X21645Y319568D01*
X19717Y319106D01*
X17885Y318347D01*
X16194Y317311D01*
X14686Y316023D01*
X13398Y314515D01*
X12362Y312824D01*
X11603Y310992D01*
X11140Y309064D01*
X10985Y307087D01*
X11140Y305110D01*
X11603Y303181D01*
X12362Y301349D01*
X13398Y299658D01*
X14686Y298151D01*
X16194Y296863D01*
X17885Y295827D01*
X19717Y295068D01*
X21645Y294605D01*
X23622Y294449D01*
X25599Y294605D01*
X27527Y295068D01*
X29359Y295827D01*
X31050Y296863D01*
X32558Y298151D01*
X33846Y299658D01*
X34882Y301349D01*
X35641Y303181D01*
X36104Y305110D01*
X36259Y307087D01*
X36104Y309064D01*
X35641Y310992D01*
X34882Y312824D01*
X33846Y314515D01*
X32558Y316023D01*
X31050Y317311D01*
X29359Y318347D01*
X27527Y319106D01*
X25599Y319568D01*
X23622Y319724D01*
D02*
G37*
G36*
X180685Y297043D02*
X179606Y296901D01*
X178600Y296485D01*
X177737Y295822D01*
X177074Y294959D01*
X176658Y293953D01*
X176515Y292874D01*
X176658Y291795D01*
X177074Y290789D01*
X177737Y289926D01*
X178600Y289263D01*
X179606Y288847D01*
X180685Y288704D01*
X181764Y288847D01*
X182770Y289263D01*
X183633Y289926D01*
X184296Y290789D01*
X184713Y291795D01*
X184855Y292874D01*
X184713Y293953D01*
X184296Y294959D01*
X183633Y295822D01*
X182770Y296485D01*
X181764Y296901D01*
X180685Y297043D01*
D02*
G37*
G36*
X123917Y307915D02*
X122684Y307752D01*
X121535Y307276D01*
X120548Y306519D01*
X119791Y305532D01*
X119315Y304383D01*
X119152Y303150D01*
X119315Y301916D01*
X119791Y300767D01*
X120548Y299780D01*
X121535Y299023D01*
X122111Y298784D01*
Y282736D01*
X120081Y280706D01*
X119882Y280732D01*
X119162Y280638D01*
X118492Y280360D01*
X117916Y279918D01*
X117475Y279343D01*
X117197Y278672D01*
X117102Y277953D01*
X117197Y277233D01*
X117475Y276563D01*
X117916Y275987D01*
X118492Y275546D01*
X119162Y275268D01*
X119882Y275173D01*
X120601Y275268D01*
X121272Y275546D01*
X121847Y275987D01*
X122289Y276563D01*
X122567Y277233D01*
X122662Y277953D01*
X122635Y278152D01*
X125195Y280711D01*
X125586Y281297D01*
X125724Y281988D01*
Y298784D01*
X126300Y299023D01*
X127287Y299780D01*
X128044Y300767D01*
X128520Y301916D01*
X128682Y303150D01*
X128520Y304383D01*
X128044Y305532D01*
X127287Y306519D01*
X126300Y307276D01*
X125151Y307752D01*
X123917Y307915D01*
D02*
G37*
G36*
X128032Y278994D02*
Y276764D01*
X130261D01*
X130232Y276987D01*
X129953Y277662D01*
X129508Y278241D01*
X128929Y278685D01*
X128255Y278964D01*
X128032Y278994D01*
D02*
G37*
G36*
X127032D02*
X126808Y278964D01*
X126134Y278685D01*
X125555Y278241D01*
X125110Y277662D01*
X124831Y276987D01*
X124802Y276764D01*
X127032D01*
Y278994D01*
D02*
G37*
G36*
X254102Y277127D02*
Y274898D01*
X256332D01*
X256303Y275121D01*
X256023Y275795D01*
X255579Y276374D01*
X255000Y276819D01*
X254326Y277098D01*
X254102Y277127D01*
D02*
G37*
G36*
X253102D02*
X252879Y277098D01*
X252205Y276819D01*
X251626Y276374D01*
X251181Y275795D01*
X250902Y275121D01*
X250873Y274898D01*
X253102D01*
Y277127D01*
D02*
G37*
G36*
X170685Y297043D02*
X169606Y296901D01*
X168600Y296485D01*
X167737Y295822D01*
X167074Y294959D01*
X166658Y293953D01*
X166516Y292874D01*
X166658Y291795D01*
X167074Y290789D01*
X167737Y289926D01*
X168600Y289263D01*
X169372Y288943D01*
Y275855D01*
X168138Y274620D01*
X168012Y274645D01*
X167244Y274492D01*
X166593Y274057D01*
X166157Y273406D01*
X166005Y272638D01*
X166157Y271870D01*
X166593Y271219D01*
X167244Y270783D01*
X168012Y270631D01*
X168780Y270783D01*
X169431Y271219D01*
X169866Y271870D01*
X170019Y272638D01*
X169994Y272763D01*
X171613Y274383D01*
X171898Y274809D01*
X171998Y275311D01*
Y288943D01*
X172770Y289263D01*
X173633Y289926D01*
X174296Y290789D01*
X174713Y291795D01*
X174855Y292874D01*
X174713Y293953D01*
X174296Y294959D01*
X173633Y295822D01*
X172770Y296485D01*
X171764Y296901D01*
X170685Y297043D01*
D02*
G37*
G36*
X130261Y275764D02*
X128032D01*
Y273534D01*
X128255Y273564D01*
X128929Y273843D01*
X129508Y274287D01*
X129953Y274866D01*
X130232Y275540D01*
X130261Y275764D01*
D02*
G37*
G36*
X127032D02*
X124802D01*
X124831Y275540D01*
X125110Y274866D01*
X125555Y274287D01*
X126134Y273843D01*
X126808Y273564D01*
X127032Y273534D01*
Y275764D01*
D02*
G37*
G36*
X27264Y282226D02*
X26030Y282064D01*
X24881Y281587D01*
X23894Y280830D01*
X23137Y279843D01*
X22661Y278694D01*
X22499Y277461D01*
X22661Y276227D01*
X23137Y275078D01*
X23894Y274091D01*
X24881Y273334D01*
X26030Y272858D01*
X27264Y272695D01*
X28497Y272858D01*
X29646Y273334D01*
X30633Y274091D01*
X31391Y275078D01*
X31867Y276227D01*
X32029Y277461D01*
X31867Y278694D01*
X31391Y279843D01*
X30633Y280830D01*
X29646Y281587D01*
X28497Y282064D01*
X27264Y282226D01*
D02*
G37*
G36*
X256332Y273898D02*
X254102D01*
Y271668D01*
X254326Y271697D01*
X255000Y271977D01*
X255579Y272421D01*
X256023Y273000D01*
X256303Y273674D01*
X256332Y273898D01*
D02*
G37*
G36*
X253102D02*
X250873D01*
X250902Y273674D01*
X251181Y273000D01*
X251626Y272421D01*
X252205Y271977D01*
X252879Y271697D01*
X253102Y271668D01*
Y273898D01*
D02*
G37*
G36*
X236638Y272935D02*
Y270705D01*
X238867D01*
X238838Y270928D01*
X238559Y271603D01*
X238115Y272182D01*
X237536Y272626D01*
X236861Y272905D01*
X236638Y272935D01*
D02*
G37*
G36*
X235638D02*
X235414Y272905D01*
X234740Y272626D01*
X234161Y272182D01*
X233717Y271603D01*
X233437Y270928D01*
X233408Y270705D01*
X235638D01*
Y272935D01*
D02*
G37*
G36*
X188295Y270379D02*
Y268150D01*
X190525D01*
X190496Y268373D01*
X190216Y269047D01*
X189772Y269626D01*
X189193Y270071D01*
X188519Y270350D01*
X188295Y270379D01*
D02*
G37*
G36*
X187295D02*
X187072Y270350D01*
X186398Y270071D01*
X185819Y269626D01*
X185374Y269047D01*
X185095Y268373D01*
X185065Y268150D01*
X187295D01*
Y270379D01*
D02*
G37*
G36*
X238867Y269705D02*
X236638D01*
Y267475D01*
X236861Y267504D01*
X237536Y267784D01*
X238115Y268228D01*
X238559Y268807D01*
X238838Y269481D01*
X238867Y269705D01*
D02*
G37*
G36*
X235638D02*
X233408D01*
X233437Y269481D01*
X233717Y268807D01*
X234161Y268228D01*
X234740Y267784D01*
X235414Y267504D01*
X235638Y267475D01*
Y269705D01*
D02*
G37*
G36*
X196358Y275803D02*
X195279Y275661D01*
X194273Y275245D01*
X193410Y274582D01*
X192747Y273719D01*
X192331Y272713D01*
X192189Y271634D01*
X192331Y270555D01*
X192747Y269549D01*
X193410Y268686D01*
X194273Y268023D01*
X195279Y267606D01*
X196358Y267464D01*
X197437Y267606D01*
X198443Y268023D01*
X199307Y268686D01*
X199969Y269549D01*
X200386Y270555D01*
X200528Y271634D01*
X200386Y272713D01*
X199969Y273719D01*
X199307Y274582D01*
X198443Y275245D01*
X197437Y275661D01*
X196358Y275803D01*
D02*
G37*
G36*
X190525Y267150D02*
X188295D01*
Y264920D01*
X188519Y264949D01*
X189193Y265229D01*
X189772Y265673D01*
X190216Y266252D01*
X190496Y266926D01*
X190525Y267150D01*
D02*
G37*
G36*
X187295D02*
X185065D01*
X185095Y266926D01*
X185374Y266252D01*
X185819Y265673D01*
X186398Y265229D01*
X187072Y264949D01*
X187295Y264920D01*
Y267150D01*
D02*
G37*
G36*
X27264Y267226D02*
X26030Y267063D01*
X24881Y266587D01*
X23894Y265830D01*
X23137Y264843D01*
X22661Y263694D01*
X22499Y262461D01*
X22661Y261227D01*
X23137Y260078D01*
X23894Y259091D01*
X24881Y258334D01*
X26030Y257858D01*
X27264Y257696D01*
X28497Y257858D01*
X29646Y258334D01*
X30633Y259091D01*
X31391Y260078D01*
X31867Y261227D01*
X32029Y262461D01*
X31867Y263694D01*
X31391Y264843D01*
X30633Y265830D01*
X29646Y266587D01*
X28497Y267063D01*
X27264Y267226D01*
D02*
G37*
G36*
X200492Y265768D02*
X192224D01*
Y257500D01*
X200492D01*
Y265768D01*
D02*
G37*
G36*
X305831Y259253D02*
Y257024D01*
X308060D01*
X308031Y257247D01*
X307752Y257921D01*
X307308Y258500D01*
X306729Y258945D01*
X306054Y259224D01*
X305831Y259253D01*
D02*
G37*
G36*
X304831D02*
X304607Y259224D01*
X303933Y258945D01*
X303354Y258500D01*
X302910Y257921D01*
X302630Y257247D01*
X302601Y257024D01*
X304831D01*
Y259253D01*
D02*
G37*
G36*
X96949Y305239D02*
X96281Y305151D01*
X95658Y304893D01*
X95124Y304483D01*
X94713Y303948D01*
X94456Y303326D01*
X94368Y302658D01*
X94456Y301989D01*
X94713Y301367D01*
X95124Y300832D01*
X95327Y300676D01*
Y260145D01*
X95040Y260027D01*
X94506Y259616D01*
X94095Y259082D01*
X93837Y258459D01*
X93750Y257791D01*
X93837Y257123D01*
X94095Y256501D01*
X94506Y255966D01*
X95040Y255556D01*
X95663Y255298D01*
X96331Y255210D01*
X96999Y255298D01*
X97621Y255556D01*
X98156Y255966D01*
X98566Y256501D01*
X98824Y257123D01*
X98912Y257791D01*
X98824Y258459D01*
X98566Y259082D01*
X98156Y259616D01*
X97952Y259773D01*
Y300303D01*
X98239Y300422D01*
X98774Y300832D01*
X99184Y301367D01*
X99442Y301989D01*
X99530Y302658D01*
X99442Y303326D01*
X99184Y303948D01*
X98774Y304483D01*
X98239Y304893D01*
X97617Y305151D01*
X96949Y305239D01*
D02*
G37*
G36*
X308060Y256024D02*
X305831D01*
Y253794D01*
X306054Y253823D01*
X306729Y254103D01*
X307308Y254547D01*
X307752Y255126D01*
X308031Y255800D01*
X308060Y256024D01*
D02*
G37*
G36*
X304831D02*
X302601D01*
X302630Y255800D01*
X302910Y255126D01*
X303354Y254547D01*
X303933Y254103D01*
X304607Y253823D01*
X304831Y253794D01*
Y256024D01*
D02*
G37*
G36*
X244709Y254613D02*
Y252988D01*
X246333D01*
X246263Y253339D01*
X245781Y254061D01*
X245060Y254543D01*
X244709Y254613D01*
D02*
G37*
G36*
X243709D02*
X243358Y254543D01*
X242636Y254061D01*
X242154Y253339D01*
X242084Y252988D01*
X243709D01*
Y254613D01*
D02*
G37*
G36*
X113563Y253434D02*
Y251205D01*
X115793D01*
X115763Y251428D01*
X115484Y252102D01*
X115040Y252681D01*
X114461Y253126D01*
X113787Y253405D01*
X113563Y253434D01*
D02*
G37*
G36*
X112563D02*
X112339Y253405D01*
X111665Y253126D01*
X111086Y252681D01*
X110642Y252102D01*
X110363Y251428D01*
X110333Y251205D01*
X112563D01*
Y253434D01*
D02*
G37*
G36*
X246333Y251988D02*
X244709D01*
Y250364D01*
X245060Y250434D01*
X245781Y250916D01*
X246263Y251637D01*
X246333Y251988D01*
D02*
G37*
G36*
X243709D02*
X242084D01*
X242154Y251637D01*
X242636Y250916D01*
X243358Y250434D01*
X243709Y250364D01*
Y251988D01*
D02*
G37*
G36*
X140819Y273168D02*
X140151Y273080D01*
X139528Y272822D01*
X138994Y272412D01*
X138584Y271877D01*
X138326Y271255D01*
X138238Y270587D01*
X138326Y269919D01*
X138584Y269296D01*
X138994Y268761D01*
X139528Y268351D01*
X139556Y268340D01*
Y248850D01*
X139092Y248494D01*
X138779Y248086D01*
X127439D01*
X127405Y248168D01*
X126994Y248703D01*
X126460Y249113D01*
X125837Y249371D01*
X125169Y249459D01*
X124501Y249371D01*
X123879Y249113D01*
X123344Y248703D01*
X123096Y248380D01*
X122385Y248277D01*
X122146Y248325D01*
X122126Y248351D01*
X121547Y248795D01*
X120873Y249074D01*
X120650Y249104D01*
Y246374D01*
X120150D01*
Y245874D01*
X117420D01*
X117449Y245651D01*
X117729Y244976D01*
X118173Y244397D01*
X118752Y243953D01*
X119121Y243800D01*
X119381Y242946D01*
X112241Y235806D01*
X111957Y235380D01*
X111857Y234878D01*
Y225868D01*
X111750Y225797D01*
X111315Y225146D01*
X111162Y224378D01*
X111315Y223610D01*
X111750Y222959D01*
X112401Y222524D01*
X113169Y222371D01*
X113937Y222524D01*
X114588Y222959D01*
X115024Y223610D01*
X115176Y224378D01*
X115024Y225146D01*
X114588Y225797D01*
X114482Y225868D01*
Y234334D01*
X124529Y244381D01*
X125169Y244297D01*
X125837Y244385D01*
X126460Y244643D01*
X126994Y245053D01*
X127308Y245461D01*
X138648D01*
X138682Y245379D01*
X139092Y244844D01*
X139627Y244434D01*
X140249Y244176D01*
X140917Y244088D01*
X141585Y244176D01*
X142208Y244434D01*
X142743Y244844D01*
X143153Y245379D01*
X143411Y246001D01*
X143499Y246669D01*
X143411Y247337D01*
X143153Y247960D01*
X142743Y248494D01*
X142208Y248905D01*
X142181Y248916D01*
Y268406D01*
X142644Y268761D01*
X143054Y269296D01*
X143312Y269919D01*
X143400Y270587D01*
X143312Y271255D01*
X143054Y271877D01*
X142644Y272412D01*
X142110Y272822D01*
X141487Y273080D01*
X140819Y273168D01*
D02*
G37*
G36*
X115793Y250205D02*
X113563D01*
Y247975D01*
X113787Y248004D01*
X114461Y248284D01*
X115040Y248728D01*
X115484Y249307D01*
X115763Y249981D01*
X115793Y250205D01*
D02*
G37*
G36*
X112563D02*
X110333D01*
X110363Y249981D01*
X110642Y249307D01*
X111086Y248728D01*
X111665Y248284D01*
X112339Y248004D01*
X112563Y247975D01*
Y250205D01*
D02*
G37*
G36*
X32201Y252398D02*
X27764D01*
Y247961D01*
X32201D01*
Y252398D01*
D02*
G37*
G36*
X26764D02*
X22327D01*
Y247961D01*
X26764D01*
Y252398D01*
D02*
G37*
G36*
X119650Y249104D02*
X119426Y249074D01*
X118752Y248795D01*
X118173Y248351D01*
X117729Y247772D01*
X117449Y247098D01*
X117420Y246874D01*
X119650D01*
Y249104D01*
D02*
G37*
G36*
X216653Y247427D02*
Y245197D01*
X218883D01*
X218854Y245420D01*
X218575Y246095D01*
X218130Y246674D01*
X217551Y247118D01*
X216877Y247397D01*
X216653Y247427D01*
D02*
G37*
G36*
X215653D02*
X215430Y247397D01*
X214756Y247118D01*
X214177Y246674D01*
X213733Y246095D01*
X213453Y245420D01*
X213424Y245197D01*
X215653D01*
Y247427D01*
D02*
G37*
G36*
X32201Y246961D02*
X27764D01*
Y242524D01*
X32201D01*
Y246961D01*
D02*
G37*
G36*
X26764D02*
X22327D01*
Y242524D01*
X26764D01*
Y246961D01*
D02*
G37*
G36*
X218883Y244197D02*
X216653D01*
Y241967D01*
X216877Y241997D01*
X217551Y242276D01*
X218130Y242720D01*
X218575Y243299D01*
X218854Y243973D01*
X218883Y244197D01*
D02*
G37*
G36*
X215653D02*
X213424D01*
X213453Y243973D01*
X213733Y243299D01*
X214177Y242720D01*
X214756Y242276D01*
X215430Y241997D01*
X215653Y241967D01*
Y244197D01*
D02*
G37*
G36*
X108445Y240442D02*
Y238213D01*
X110675D01*
X110645Y238436D01*
X110366Y239110D01*
X109922Y239689D01*
X109343Y240134D01*
X108668Y240413D01*
X108445Y240442D01*
D02*
G37*
G36*
X107445D02*
X107221Y240413D01*
X106547Y240134D01*
X105968Y239689D01*
X105524Y239110D01*
X105245Y238436D01*
X105215Y238213D01*
X107445D01*
Y240442D01*
D02*
G37*
G36*
X110675Y237213D02*
X108445D01*
Y234983D01*
X108668Y235012D01*
X109343Y235292D01*
X109922Y235736D01*
X110366Y236315D01*
X110645Y236989D01*
X110675Y237213D01*
D02*
G37*
G36*
X107445D02*
X105215D01*
X105245Y236989D01*
X105524Y236315D01*
X105968Y235736D01*
X106547Y235292D01*
X107221Y235012D01*
X107445Y234983D01*
Y237213D01*
D02*
G37*
G36*
X192913Y239695D02*
X192014Y239577D01*
X191176Y239230D01*
X190456Y238677D01*
X189904Y237958D01*
X189557Y237120D01*
X189439Y236221D01*
X189557Y235321D01*
X189904Y234483D01*
X190456Y233764D01*
X191176Y233211D01*
X192014Y232864D01*
X192913Y232746D01*
X193813Y232864D01*
X194651Y233211D01*
X195370Y233764D01*
X195923Y234483D01*
X196270Y235321D01*
X196388Y236221D01*
X196270Y237120D01*
X195923Y237958D01*
X195370Y238677D01*
X194651Y239230D01*
X193813Y239577D01*
X192913Y239695D01*
D02*
G37*
G36*
X185039D02*
X184140Y239577D01*
X183302Y239230D01*
X182582Y238677D01*
X182030Y237958D01*
X181683Y237120D01*
X181565Y236221D01*
X181683Y235321D01*
X182030Y234483D01*
X182582Y233764D01*
X183302Y233211D01*
X184140Y232864D01*
X185039Y232746D01*
X185939Y232864D01*
X186777Y233211D01*
X187496Y233764D01*
X188049Y234483D01*
X188396Y235321D01*
X188514Y236221D01*
X188396Y237120D01*
X188049Y237958D01*
X187496Y238677D01*
X186777Y239230D01*
X185939Y239577D01*
X185039Y239695D01*
D02*
G37*
G36*
X177165D02*
X176266Y239577D01*
X175428Y239230D01*
X174708Y238677D01*
X174156Y237958D01*
X173809Y237120D01*
X173691Y236221D01*
X173809Y235321D01*
X174156Y234483D01*
X174708Y233764D01*
X175428Y233211D01*
X176266Y232864D01*
X177165Y232746D01*
X178065Y232864D01*
X178903Y233211D01*
X179622Y233764D01*
X180175Y234483D01*
X180522Y235321D01*
X180640Y236221D01*
X180522Y237120D01*
X180175Y237958D01*
X179622Y238677D01*
X178903Y239230D01*
X178065Y239577D01*
X177165Y239695D01*
D02*
G37*
G36*
X169291D02*
X168392Y239577D01*
X167554Y239230D01*
X166834Y238677D01*
X166282Y237958D01*
X165935Y237120D01*
X165817Y236221D01*
X165935Y235321D01*
X166282Y234483D01*
X166834Y233764D01*
X167554Y233211D01*
X168392Y232864D01*
X169291Y232746D01*
X170191Y232864D01*
X171029Y233211D01*
X171748Y233764D01*
X172300Y234483D01*
X172648Y235321D01*
X172766Y236221D01*
X172648Y237120D01*
X172300Y237958D01*
X171748Y238677D01*
X171029Y239230D01*
X170191Y239577D01*
X169291Y239695D01*
D02*
G37*
G36*
X48807Y214672D02*
Y210854D01*
X52625D01*
X52542Y211489D01*
X52104Y212546D01*
X51407Y213454D01*
X50499Y214151D01*
X49442Y214589D01*
X48807Y214672D01*
D02*
G37*
G36*
X47807D02*
X47172Y214589D01*
X46115Y214151D01*
X45207Y213454D01*
X44510Y212546D01*
X44072Y211489D01*
X43989Y210854D01*
X47807D01*
Y214672D01*
D02*
G37*
G36*
X153543Y239695D02*
X152644Y239577D01*
X151806Y239230D01*
X151086Y238677D01*
X150534Y237958D01*
X150187Y237120D01*
X150069Y236221D01*
X150187Y235321D01*
X150534Y234483D01*
X151086Y233764D01*
X151806Y233211D01*
X152339Y232991D01*
Y211720D01*
X152253Y211684D01*
X151718Y211274D01*
X151308Y210739D01*
X151050Y210117D01*
X150962Y209449D01*
X151050Y208781D01*
X151308Y208158D01*
X151718Y207624D01*
X152253Y207213D01*
X152875Y206956D01*
X153543Y206868D01*
X154211Y206956D01*
X154834Y207213D01*
X155368Y207624D01*
X155779Y208158D01*
X156036Y208781D01*
X156124Y209449D01*
X156036Y210117D01*
X155779Y210739D01*
X155368Y211274D01*
X154834Y211684D01*
X154748Y211720D01*
Y232991D01*
X155281Y233211D01*
X156000Y233764D01*
X156552Y234483D01*
X156899Y235321D01*
X157018Y236221D01*
X156899Y237120D01*
X156552Y237958D01*
X156000Y238677D01*
X155281Y239230D01*
X154443Y239577D01*
X153543Y239695D01*
D02*
G37*
G36*
X38307Y214524D02*
X37228Y214382D01*
X36222Y213965D01*
X35359Y213303D01*
X34696Y212439D01*
X34280Y211434D01*
X34138Y210354D01*
X34280Y209275D01*
X34696Y208270D01*
X35359Y207406D01*
X36222Y206743D01*
X37228Y206327D01*
X38307Y206185D01*
X39386Y206327D01*
X40392Y206743D01*
X41255Y207406D01*
X41918Y208270D01*
X42334Y209275D01*
X42477Y210354D01*
X42334Y211434D01*
X41918Y212439D01*
X41255Y213303D01*
X40392Y213965D01*
X39386Y214382D01*
X38307Y214524D01*
D02*
G37*
G36*
X47807Y209854D02*
X43989D01*
X44072Y209220D01*
X44510Y208162D01*
X45207Y207254D01*
X46115Y206558D01*
X47172Y206120D01*
X47807Y206036D01*
Y209854D01*
D02*
G37*
G36*
X52625D02*
X48807D01*
Y206036D01*
X49442Y206120D01*
X50499Y206558D01*
X51407Y207254D01*
X52104Y208162D01*
X52542Y209220D01*
X52625Y209854D01*
D02*
G37*
G36*
X48307Y204524D02*
X47228Y204382D01*
X46222Y203965D01*
X45359Y203303D01*
X44696Y202439D01*
X44280Y201433D01*
X44138Y200354D01*
X44280Y199275D01*
X44696Y198270D01*
X45359Y197406D01*
X46222Y196743D01*
X47228Y196327D01*
X48307Y196185D01*
X49386Y196327D01*
X50392Y196743D01*
X51255Y197406D01*
X51918Y198270D01*
X52334Y199275D01*
X52477Y200354D01*
X52334Y201433D01*
X51918Y202439D01*
X51255Y203303D01*
X50392Y203965D01*
X49386Y204382D01*
X48307Y204524D01*
D02*
G37*
G36*
X38307D02*
X37228Y204382D01*
X36222Y203965D01*
X35359Y203303D01*
X34696Y202439D01*
X34280Y201433D01*
X34138Y200354D01*
X34280Y199275D01*
X34696Y198270D01*
X35359Y197406D01*
X36222Y196743D01*
X37228Y196327D01*
X38307Y196185D01*
X39386Y196327D01*
X40392Y196743D01*
X41255Y197406D01*
X41918Y198270D01*
X42334Y199275D01*
X42477Y200354D01*
X42334Y201433D01*
X41918Y202439D01*
X41255Y203303D01*
X40392Y203965D01*
X39386Y204382D01*
X38307Y204524D01*
D02*
G37*
G36*
X161417Y239695D02*
X160518Y239577D01*
X159680Y239230D01*
X158960Y238677D01*
X158408Y237958D01*
X158061Y237120D01*
X157943Y236221D01*
X158061Y235321D01*
X158408Y234483D01*
X158960Y233764D01*
X159680Y233211D01*
X160213Y232991D01*
Y198334D01*
X160127Y198298D01*
X159592Y197888D01*
X159182Y197354D01*
X158924Y196731D01*
X158836Y196063D01*
X158924Y195395D01*
X159182Y194772D01*
X159592Y194238D01*
X160127Y193828D01*
X160749Y193570D01*
X161417Y193482D01*
X162085Y193570D01*
X162708Y193828D01*
X163242Y194238D01*
X163653Y194772D01*
X163910Y195395D01*
X163998Y196063D01*
X163910Y196731D01*
X163653Y197354D01*
X163242Y197888D01*
X162708Y198298D01*
X162622Y198334D01*
Y232991D01*
X163155Y233211D01*
X163874Y233764D01*
X164426Y234483D01*
X164773Y235321D01*
X164892Y236221D01*
X164773Y237120D01*
X164426Y237958D01*
X163874Y238677D01*
X163155Y239230D01*
X162317Y239577D01*
X161417Y239695D01*
D02*
G37*
G36*
X133071Y216754D02*
X132403Y216666D01*
X131780Y216409D01*
X131246Y215998D01*
X130835Y215464D01*
X130578Y214841D01*
X130490Y214173D01*
X130578Y213505D01*
X130835Y212883D01*
X131246Y212348D01*
X131780Y211938D01*
X131867Y211902D01*
Y192429D01*
X131780Y192393D01*
X131246Y191983D01*
X130835Y191448D01*
X130578Y190825D01*
X130490Y190157D01*
X130578Y189489D01*
X130835Y188867D01*
X131246Y188332D01*
X131780Y187922D01*
X132403Y187664D01*
X133071Y187576D01*
X133739Y187664D01*
X134361Y187922D01*
X134896Y188332D01*
X135306Y188867D01*
X135564Y189489D01*
X135652Y190157D01*
X135564Y190825D01*
X135306Y191448D01*
X134896Y191983D01*
X134361Y192393D01*
X134275Y192429D01*
Y211902D01*
X134361Y211938D01*
X134896Y212348D01*
X135306Y212883D01*
X135564Y213505D01*
X135652Y214173D01*
X135564Y214841D01*
X135306Y215464D01*
X134896Y215998D01*
X134361Y216409D01*
X133739Y216666D01*
X133071Y216754D01*
D02*
G37*
G36*
X48307Y194524D02*
X47228Y194382D01*
X46222Y193965D01*
X45359Y193303D01*
X44696Y192439D01*
X44280Y191434D01*
X44138Y190354D01*
X44280Y189275D01*
X44696Y188270D01*
X45359Y187406D01*
X46222Y186743D01*
X47228Y186327D01*
X48307Y186185D01*
X49386Y186327D01*
X50392Y186743D01*
X51255Y187406D01*
X51918Y188270D01*
X52334Y189275D01*
X52477Y190354D01*
X52334Y191434D01*
X51918Y192439D01*
X51255Y193303D01*
X50392Y193965D01*
X49386Y194382D01*
X48307Y194524D01*
D02*
G37*
G36*
X38307D02*
X37228Y194382D01*
X36222Y193965D01*
X35359Y193303D01*
X34696Y192439D01*
X34280Y191434D01*
X34138Y190354D01*
X34280Y189275D01*
X34696Y188270D01*
X35359Y187406D01*
X36222Y186743D01*
X37228Y186327D01*
X38307Y186185D01*
X39386Y186327D01*
X40392Y186743D01*
X41255Y187406D01*
X41918Y188270D01*
X42334Y189275D01*
X42477Y190354D01*
X42334Y191434D01*
X41918Y192439D01*
X41255Y193303D01*
X40392Y193965D01*
X39386Y194382D01*
X38307Y194524D01*
D02*
G37*
G36*
X200787Y239695D02*
X199888Y239577D01*
X199050Y239230D01*
X198330Y238677D01*
X197778Y237958D01*
X197431Y237120D01*
X197313Y236221D01*
X197431Y235321D01*
X197778Y234483D01*
X198330Y233764D01*
X199050Y233211D01*
X199386Y233072D01*
Y183061D01*
X199103Y182944D01*
X198569Y182534D01*
X198158Y181999D01*
X197900Y181377D01*
X197813Y180709D01*
X197900Y180041D01*
X198158Y179418D01*
X198569Y178884D01*
X199103Y178473D01*
X199726Y178216D01*
X200394Y178128D01*
X201062Y178216D01*
X201684Y178473D01*
X202219Y178884D01*
X202629Y179418D01*
X202887Y180041D01*
X202975Y180709D01*
X202887Y181377D01*
X202629Y181999D01*
X202219Y182534D01*
X201795Y182859D01*
Y232909D01*
X202525Y233211D01*
X203244Y233764D01*
X203797Y234483D01*
X204144Y235321D01*
X204262Y236221D01*
X204144Y237120D01*
X203797Y237958D01*
X203244Y238677D01*
X202525Y239230D01*
X201687Y239577D01*
X200787Y239695D01*
D02*
G37*
G36*
X253031Y185636D02*
X251940Y185493D01*
X250922Y185071D01*
X250048Y184401D01*
X249378Y183527D01*
X248956Y182509D01*
X248812Y181417D01*
X248956Y180325D01*
X249378Y179308D01*
X250048Y178434D01*
X250922Y177763D01*
X251940Y177342D01*
X253031Y177198D01*
X254123Y177342D01*
X255141Y177763D01*
X256015Y178434D01*
X256685Y179308D01*
X257107Y180325D01*
X257251Y181417D01*
X257107Y182509D01*
X256685Y183527D01*
X256015Y184401D01*
X255141Y185071D01*
X254123Y185493D01*
X253031Y185636D01*
D02*
G37*
G36*
X245079Y246093D02*
X244311Y245941D01*
X243659Y245506D01*
X243224Y244854D01*
X243208Y244770D01*
X241754Y243316D01*
X241363Y242730D01*
X241225Y242039D01*
Y185197D01*
X240922Y185071D01*
X240048Y184401D01*
X239378Y183527D01*
X238956Y182509D01*
X238812Y181417D01*
X238956Y180325D01*
X239378Y179308D01*
X240048Y178434D01*
X240922Y177763D01*
X241939Y177342D01*
X243032Y177198D01*
X244124Y177342D01*
X245141Y177763D01*
X246015Y178434D01*
X246685Y179308D01*
X247107Y180325D01*
X247251Y181417D01*
X247107Y182509D01*
X246685Y183527D01*
X246015Y184401D01*
X245141Y185071D01*
X244838Y185197D01*
Y241291D01*
X245762Y242215D01*
X245847Y242232D01*
X246498Y242667D01*
X246933Y243318D01*
X247086Y244086D01*
X246933Y244854D01*
X246498Y245506D01*
X245847Y245941D01*
X245079Y246093D01*
D02*
G37*
G36*
X48307Y184524D02*
X47228Y184382D01*
X46222Y183965D01*
X45359Y183303D01*
X44696Y182439D01*
X44280Y181433D01*
X44138Y180354D01*
X44280Y179275D01*
X44696Y178270D01*
X45359Y177406D01*
X46222Y176743D01*
X47228Y176327D01*
X48307Y176185D01*
X49386Y176327D01*
X50392Y176743D01*
X51255Y177406D01*
X51918Y178270D01*
X52334Y179275D01*
X52477Y180354D01*
X52334Y181433D01*
X51918Y182439D01*
X51255Y183303D01*
X50392Y183965D01*
X49386Y184382D01*
X48307Y184524D01*
D02*
G37*
G36*
X38307D02*
X37228Y184382D01*
X36222Y183965D01*
X35359Y183303D01*
X34696Y182439D01*
X34280Y181433D01*
X34138Y180354D01*
X34280Y179275D01*
X34696Y178270D01*
X35359Y177406D01*
X36222Y176743D01*
X37228Y176327D01*
X38307Y176185D01*
X39386Y176327D01*
X40392Y176743D01*
X41255Y177406D01*
X41918Y178270D01*
X42334Y179275D01*
X42477Y180354D01*
X42334Y181433D01*
X41918Y182439D01*
X41255Y183303D01*
X40392Y183965D01*
X39386Y184382D01*
X38307Y184524D01*
D02*
G37*
G36*
X212106Y239665D02*
X205217D01*
Y232776D01*
X207457D01*
Y172350D01*
X207371Y172314D01*
X206836Y171904D01*
X206426Y171369D01*
X206168Y170747D01*
X206080Y170079D01*
X206168Y169411D01*
X206426Y168788D01*
X206836Y168254D01*
X207371Y167843D01*
X207993Y167586D01*
X208661Y167498D01*
X209330Y167586D01*
X209952Y167843D01*
X210487Y168254D01*
X210897Y168788D01*
X211155Y169411D01*
X211243Y170079D01*
X211155Y170747D01*
X210897Y171369D01*
X210487Y171904D01*
X209952Y172314D01*
X209866Y172350D01*
Y232776D01*
X212106D01*
Y239665D01*
D02*
G37*
G36*
X253031Y175636D02*
X251940Y175493D01*
X250922Y175071D01*
X250048Y174401D01*
X249378Y173527D01*
X248956Y172509D01*
X248812Y171417D01*
X248956Y170325D01*
X249378Y169308D01*
X250048Y168434D01*
X250922Y167763D01*
X251940Y167342D01*
X253031Y167198D01*
X254123Y167342D01*
X255141Y167763D01*
X256015Y168434D01*
X256685Y169308D01*
X257107Y170325D01*
X257251Y171417D01*
X257107Y172509D01*
X256685Y173527D01*
X256015Y174401D01*
X255141Y175071D01*
X254123Y175493D01*
X253031Y175636D01*
D02*
G37*
G36*
X243032D02*
X241939Y175493D01*
X240922Y175071D01*
X240048Y174401D01*
X239378Y173527D01*
X238956Y172509D01*
X238812Y171417D01*
X238956Y170325D01*
X239378Y169308D01*
X240048Y168434D01*
X240922Y167763D01*
X241939Y167342D01*
X243032Y167198D01*
X244124Y167342D01*
X245141Y167763D01*
X246015Y168434D01*
X246685Y169308D01*
X247107Y170325D01*
X247251Y171417D01*
X247107Y172509D01*
X246685Y173527D01*
X246015Y174401D01*
X245141Y175071D01*
X244124Y175493D01*
X243032Y175636D01*
D02*
G37*
G36*
X48307Y174524D02*
X47228Y174382D01*
X46222Y173965D01*
X45359Y173303D01*
X44696Y172439D01*
X44280Y171433D01*
X44138Y170354D01*
X44280Y169275D01*
X44696Y168270D01*
X45359Y167406D01*
X46222Y166743D01*
X47228Y166327D01*
X48307Y166185D01*
X49386Y166327D01*
X50392Y166743D01*
X51255Y167406D01*
X51918Y168270D01*
X52334Y169275D01*
X52477Y170354D01*
X52334Y171433D01*
X51918Y172439D01*
X51255Y173303D01*
X50392Y173965D01*
X49386Y174382D01*
X48307Y174524D01*
D02*
G37*
G36*
X38307D02*
X37228Y174382D01*
X36222Y173965D01*
X35359Y173303D01*
X34696Y172439D01*
X34280Y171433D01*
X34138Y170354D01*
X34280Y169275D01*
X34696Y168270D01*
X35359Y167406D01*
X36222Y166743D01*
X37228Y166327D01*
X38307Y166185D01*
X39386Y166327D01*
X40392Y166743D01*
X41255Y167406D01*
X41918Y168270D01*
X42334Y169275D01*
X42477Y170354D01*
X42334Y171433D01*
X41918Y172439D01*
X41255Y173303D01*
X40392Y173965D01*
X39386Y174382D01*
X38307Y174524D01*
D02*
G37*
G36*
X279551Y161474D02*
Y159244D01*
X281781D01*
X281751Y159468D01*
X281472Y160142D01*
X281028Y160721D01*
X280449Y161165D01*
X279775Y161444D01*
X279551Y161474D01*
D02*
G37*
G36*
X278551D02*
X278328Y161444D01*
X277653Y161165D01*
X277074Y160721D01*
X276630Y160142D01*
X276351Y159468D01*
X276321Y159244D01*
X278551D01*
Y161474D01*
D02*
G37*
G36*
X243032Y165637D02*
X241939Y165493D01*
X240922Y165071D01*
X240048Y164401D01*
X239378Y163527D01*
X238956Y162509D01*
X238812Y161417D01*
X238956Y160325D01*
X239378Y159308D01*
X240048Y158434D01*
X240922Y157763D01*
X241939Y157342D01*
X243032Y157198D01*
X244124Y157342D01*
X245141Y157763D01*
X246015Y158434D01*
X246685Y159308D01*
X247107Y160325D01*
X247251Y161417D01*
X247107Y162509D01*
X246685Y163527D01*
X246015Y164401D01*
X245141Y165071D01*
X244124Y165493D01*
X243032Y165637D01*
D02*
G37*
G36*
X253031Y165637D02*
X251940Y165493D01*
X250922Y165071D01*
X250048Y164401D01*
X249378Y163527D01*
X248956Y162509D01*
X248812Y161417D01*
X248956Y160325D01*
X249378Y159308D01*
X250048Y158434D01*
X250922Y157763D01*
X251940Y157342D01*
X253031Y157198D01*
X254123Y157342D01*
X255141Y157763D01*
X256015Y158434D01*
X256685Y159308D01*
X257107Y160325D01*
X257251Y161417D01*
X257107Y162509D01*
X256685Y163527D01*
X256015Y164401D01*
X255141Y165071D01*
X254123Y165493D01*
X253031Y165637D01*
D02*
G37*
G36*
X48307Y164524D02*
X47228Y164382D01*
X46222Y163965D01*
X45359Y163303D01*
X44696Y162439D01*
X44280Y161433D01*
X44138Y160354D01*
X44280Y159275D01*
X44696Y158270D01*
X45359Y157406D01*
X46222Y156743D01*
X47228Y156327D01*
X48307Y156185D01*
X49386Y156327D01*
X50392Y156743D01*
X51255Y157406D01*
X51918Y158270D01*
X52334Y159275D01*
X52477Y160354D01*
X52334Y161433D01*
X51918Y162439D01*
X51255Y163303D01*
X50392Y163965D01*
X49386Y164382D01*
X48307Y164524D01*
D02*
G37*
G36*
X38307D02*
X37228Y164382D01*
X36222Y163965D01*
X35359Y163303D01*
X34696Y162439D01*
X34280Y161433D01*
X34138Y160354D01*
X34280Y159275D01*
X34696Y158270D01*
X35359Y157406D01*
X36222Y156743D01*
X37228Y156327D01*
X38307Y156185D01*
X39386Y156327D01*
X40392Y156743D01*
X41255Y157406D01*
X41918Y158270D01*
X42334Y159275D01*
X42477Y160354D01*
X42334Y161433D01*
X41918Y162439D01*
X41255Y163303D01*
X40392Y163965D01*
X39386Y164382D01*
X38307Y164524D01*
D02*
G37*
G36*
X281781Y158244D02*
X279551D01*
Y156014D01*
X279775Y156044D01*
X280449Y156323D01*
X281028Y156767D01*
X281472Y157346D01*
X281751Y158020D01*
X281781Y158244D01*
D02*
G37*
G36*
X278551D02*
X276321D01*
X276351Y158020D01*
X276630Y157346D01*
X277074Y156767D01*
X277653Y156323D01*
X278328Y156044D01*
X278551Y156014D01*
Y158244D01*
D02*
G37*
G36*
X253031Y155637D02*
X251940Y155493D01*
X250922Y155071D01*
X250048Y154401D01*
X249378Y153527D01*
X248956Y152509D01*
X248812Y151417D01*
X248956Y150325D01*
X249378Y149308D01*
X250048Y148434D01*
X250922Y147763D01*
X251940Y147342D01*
X253031Y147198D01*
X254123Y147342D01*
X255141Y147763D01*
X256015Y148434D01*
X256685Y149308D01*
X257107Y150325D01*
X257251Y151417D01*
X257107Y152509D01*
X256685Y153527D01*
X256015Y154401D01*
X255141Y155071D01*
X254123Y155493D01*
X253031Y155637D01*
D02*
G37*
G36*
X243032D02*
X241939Y155493D01*
X240922Y155071D01*
X240048Y154401D01*
X239378Y153527D01*
X238956Y152509D01*
X238812Y151417D01*
X238956Y150325D01*
X239378Y149308D01*
X240048Y148434D01*
X240922Y147763D01*
X241939Y147342D01*
X243032Y147198D01*
X244124Y147342D01*
X245141Y147763D01*
X246015Y148434D01*
X246685Y149308D01*
X247107Y150325D01*
X247251Y151417D01*
X247107Y152509D01*
X246685Y153527D01*
X246015Y154401D01*
X245141Y155071D01*
X244124Y155493D01*
X243032Y155637D01*
D02*
G37*
G36*
X48307Y154524D02*
X47228Y154382D01*
X46222Y153965D01*
X45359Y153303D01*
X44696Y152439D01*
X44280Y151434D01*
X44138Y150354D01*
X44280Y149275D01*
X44696Y148270D01*
X45359Y147406D01*
X46222Y146743D01*
X47228Y146327D01*
X48307Y146185D01*
X49386Y146327D01*
X50392Y146743D01*
X51255Y147406D01*
X51918Y148270D01*
X52334Y149275D01*
X52477Y150354D01*
X52334Y151434D01*
X51918Y152439D01*
X51255Y153303D01*
X50392Y153965D01*
X49386Y154382D01*
X48307Y154524D01*
D02*
G37*
G36*
X38307D02*
X37228Y154382D01*
X36222Y153965D01*
X35359Y153303D01*
X34696Y152439D01*
X34280Y151434D01*
X34138Y150354D01*
X34280Y149275D01*
X34696Y148270D01*
X35359Y147406D01*
X36222Y146743D01*
X37228Y146327D01*
X38307Y146185D01*
X39386Y146327D01*
X40392Y146743D01*
X41255Y147406D01*
X41918Y148270D01*
X42334Y149275D01*
X42477Y150354D01*
X42334Y151434D01*
X41918Y152439D01*
X41255Y153303D01*
X40392Y153965D01*
X39386Y154382D01*
X38307Y154524D01*
D02*
G37*
G36*
X153043Y145355D02*
X152588Y145296D01*
X151699Y144927D01*
X150935Y144341D01*
X150348Y143577D01*
X149980Y142687D01*
X149920Y142232D01*
X153043D01*
Y145355D01*
D02*
G37*
G36*
X243531Y145785D02*
Y141917D01*
X247399D01*
X247314Y142565D01*
X246871Y143634D01*
X246166Y144552D01*
X245248Y145257D01*
X244179Y145700D01*
X243531Y145785D01*
D02*
G37*
G36*
X242531D02*
X241884Y145700D01*
X240815Y145257D01*
X239896Y144552D01*
X239192Y143634D01*
X238749Y142565D01*
X238664Y141917D01*
X242531D01*
Y145785D01*
D02*
G37*
G36*
X71858Y141214D02*
Y138984D01*
X74088D01*
X74059Y139208D01*
X73779Y139882D01*
X73335Y140461D01*
X72756Y140905D01*
X72082Y141184D01*
X71858Y141214D01*
D02*
G37*
G36*
X70858D02*
X70635Y141184D01*
X69960Y140905D01*
X69381Y140461D01*
X68937Y139882D01*
X68658Y139208D01*
X68629Y138984D01*
X70858D01*
Y141214D01*
D02*
G37*
G36*
X212106Y145177D02*
X205217D01*
Y138287D01*
X212106D01*
Y145177D01*
D02*
G37*
G36*
X200787Y145207D02*
X199888Y145089D01*
X199050Y144741D01*
X198330Y144189D01*
X197778Y143470D01*
X197431Y142632D01*
X197313Y141732D01*
X197431Y140833D01*
X197778Y139995D01*
X198330Y139275D01*
X199050Y138723D01*
X199888Y138376D01*
X200787Y138258D01*
X201687Y138376D01*
X202525Y138723D01*
X203244Y139275D01*
X203797Y139995D01*
X204144Y140833D01*
X204262Y141732D01*
X204144Y142632D01*
X203797Y143470D01*
X203244Y144189D01*
X202525Y144741D01*
X201687Y145089D01*
X200787Y145207D01*
D02*
G37*
G36*
X192913D02*
X192014Y145089D01*
X191176Y144741D01*
X190456Y144189D01*
X189904Y143470D01*
X189557Y142632D01*
X189439Y141732D01*
X189557Y140833D01*
X189904Y139995D01*
X190456Y139275D01*
X191176Y138723D01*
X192014Y138376D01*
X192913Y138258D01*
X193813Y138376D01*
X194651Y138723D01*
X195370Y139275D01*
X195923Y139995D01*
X196270Y140833D01*
X196388Y141732D01*
X196270Y142632D01*
X195923Y143470D01*
X195370Y144189D01*
X194651Y144741D01*
X193813Y145089D01*
X192913Y145207D01*
D02*
G37*
G36*
X185236Y178270D02*
X184568Y178182D01*
X183946Y177924D01*
X183411Y177514D01*
X183001Y176979D01*
X182743Y176357D01*
X182655Y175689D01*
X182743Y175021D01*
X183001Y174398D01*
X183411Y173864D01*
X183825Y173546D01*
Y144958D01*
X183302Y144741D01*
X182582Y144189D01*
X182030Y143470D01*
X181683Y142632D01*
X181565Y141732D01*
X181683Y140833D01*
X182030Y139995D01*
X182582Y139275D01*
X183302Y138723D01*
X184140Y138376D01*
X185039Y138258D01*
X185939Y138376D01*
X186777Y138723D01*
X187496Y139275D01*
X188049Y139995D01*
X188396Y140833D01*
X188514Y141732D01*
X188396Y142632D01*
X188049Y143470D01*
X187496Y144189D01*
X186777Y144741D01*
X186450Y144877D01*
Y173422D01*
X186527Y173454D01*
X187061Y173864D01*
X187471Y174398D01*
X187729Y175021D01*
X187817Y175689D01*
X187729Y176357D01*
X187471Y176979D01*
X187061Y177514D01*
X186527Y177924D01*
X185904Y178182D01*
X185236Y178270D01*
D02*
G37*
G36*
X176870Y168034D02*
X176202Y167946D01*
X175580Y167688D01*
X175045Y167278D01*
X174635Y166743D01*
X174377Y166121D01*
X174289Y165453D01*
X174377Y164785D01*
X174635Y164162D01*
X175045Y163628D01*
X175557Y163234D01*
Y144795D01*
X175428Y144741D01*
X174708Y144189D01*
X174156Y143470D01*
X173809Y142632D01*
X173691Y141732D01*
X173809Y140833D01*
X174156Y139995D01*
X174708Y139275D01*
X175428Y138723D01*
X176266Y138376D01*
X177165Y138258D01*
X178065Y138376D01*
X178903Y138723D01*
X179622Y139275D01*
X180175Y139995D01*
X180522Y140833D01*
X180640Y141732D01*
X180522Y142632D01*
X180175Y143470D01*
X179622Y144189D01*
X178903Y144741D01*
X178183Y145040D01*
Y163234D01*
X178695Y163628D01*
X179105Y164162D01*
X179363Y164785D01*
X179451Y165453D01*
X179363Y166121D01*
X179105Y166743D01*
X178695Y167278D01*
X178161Y167688D01*
X177538Y167946D01*
X176870Y168034D01*
D02*
G37*
G36*
X168996Y188113D02*
X168328Y188025D01*
X167706Y187767D01*
X167171Y187357D01*
X166761Y186822D01*
X166503Y186199D01*
X166415Y185531D01*
X166503Y184863D01*
X166761Y184241D01*
X167171Y183706D01*
X167706Y183296D01*
X167831Y183244D01*
Y144856D01*
X167554Y144741D01*
X166834Y144189D01*
X166282Y143470D01*
X165935Y142632D01*
X165817Y141732D01*
X165935Y140833D01*
X166282Y139995D01*
X166834Y139275D01*
X167554Y138723D01*
X168392Y138376D01*
X169291Y138258D01*
X170191Y138376D01*
X171029Y138723D01*
X171748Y139275D01*
X172300Y139995D01*
X172648Y140833D01*
X172766Y141732D01*
X172648Y142632D01*
X172300Y143470D01*
X171748Y144189D01*
X171029Y144741D01*
X170456Y144978D01*
Y183426D01*
X170821Y183706D01*
X171231Y184241D01*
X171489Y184863D01*
X171577Y185531D01*
X171489Y186199D01*
X171231Y186822D01*
X170821Y187357D01*
X170287Y187767D01*
X169664Y188025D01*
X168996Y188113D01*
D02*
G37*
G36*
X154043Y145355D02*
Y141732D01*
X153543D01*
D01*
X154043D01*
Y138109D01*
X154498Y138169D01*
X155388Y138538D01*
X156152Y139124D01*
X156738Y139888D01*
X157107Y140778D01*
X157172Y141271D01*
X157190Y141414D01*
X157985D01*
X158003Y141271D01*
X158061Y140833D01*
X158408Y139995D01*
X158960Y139275D01*
X159680Y138723D01*
X160518Y138376D01*
X161417Y138258D01*
X162317Y138376D01*
X163155Y138723D01*
X163874Y139275D01*
X164426Y139995D01*
X164773Y140833D01*
X164892Y141732D01*
X164773Y142632D01*
X164426Y143470D01*
X163874Y144189D01*
X163155Y144741D01*
X162317Y145089D01*
X161417Y145207D01*
X160518Y145089D01*
X159680Y144741D01*
X158960Y144189D01*
X158408Y143470D01*
X158061Y142632D01*
X158003Y142193D01*
X157985Y142051D01*
X157190D01*
X157172Y142193D01*
X157107Y142687D01*
X156738Y143577D01*
X156152Y144341D01*
X155388Y144927D01*
X154498Y145296D01*
X154043Y145355D01*
D02*
G37*
G36*
X153043Y141232D02*
X149920D01*
X149980Y140778D01*
X150348Y139888D01*
X150935Y139124D01*
X151699Y138538D01*
X152588Y138169D01*
X153043Y138109D01*
Y141232D01*
D02*
G37*
G36*
X257254Y145502D02*
X248888D01*
Y137136D01*
X257254D01*
Y145502D01*
D02*
G37*
G36*
X279551Y138966D02*
Y136736D01*
X281781D01*
X281751Y136960D01*
X281472Y137634D01*
X281028Y138213D01*
X280449Y138657D01*
X279775Y138936D01*
X279551Y138966D01*
D02*
G37*
G36*
X278551D02*
X278328Y138936D01*
X277653Y138657D01*
X277074Y138213D01*
X276630Y137634D01*
X276351Y136960D01*
X276321Y136736D01*
X278551D01*
Y138966D01*
D02*
G37*
G36*
X48307Y144524D02*
X47228Y144382D01*
X46222Y143965D01*
X45359Y143303D01*
X44696Y142439D01*
X44280Y141434D01*
X44138Y140354D01*
X44280Y139275D01*
X44696Y138270D01*
X45359Y137406D01*
X46222Y136743D01*
X47228Y136327D01*
X48307Y136185D01*
X49386Y136327D01*
X50392Y136743D01*
X51255Y137406D01*
X51918Y138270D01*
X52334Y139275D01*
X52477Y140354D01*
X52334Y141434D01*
X51918Y142439D01*
X51255Y143303D01*
X50392Y143965D01*
X49386Y144382D01*
X48307Y144524D01*
D02*
G37*
G36*
X38307D02*
X37228Y144382D01*
X36222Y143965D01*
X35359Y143303D01*
X34696Y142439D01*
X34280Y141434D01*
X34138Y140354D01*
X34280Y139275D01*
X34696Y138270D01*
X35359Y137406D01*
X36222Y136743D01*
X37228Y136327D01*
X38307Y136185D01*
X39386Y136327D01*
X40392Y136743D01*
X41255Y137406D01*
X41918Y138270D01*
X42334Y139275D01*
X42477Y140354D01*
X42334Y141434D01*
X41918Y142439D01*
X41255Y143303D01*
X40392Y143965D01*
X39386Y144382D01*
X38307Y144524D01*
D02*
G37*
G36*
X74088Y137984D02*
X71858D01*
Y135755D01*
X72082Y135784D01*
X72756Y136063D01*
X73335Y136507D01*
X73779Y137086D01*
X74059Y137761D01*
X74088Y137984D01*
D02*
G37*
G36*
X70858D02*
X68629D01*
X68658Y137761D01*
X68937Y137086D01*
X69381Y136507D01*
X69960Y136063D01*
X70635Y135784D01*
X70858Y135755D01*
Y137984D01*
D02*
G37*
G36*
X247399Y140917D02*
X243032D01*
X238664D01*
X238749Y140270D01*
X239192Y139200D01*
X239896Y138282D01*
X240787Y137599D01*
X240815Y137575D01*
X240935Y136731D01*
X240910Y136686D01*
X240492Y136142D01*
X240213Y135468D01*
X240184Y135244D01*
X245643D01*
X245614Y135468D01*
X245334Y136142D01*
X244974Y136612D01*
X245001Y137093D01*
X245130Y137529D01*
X245248Y137578D01*
X246166Y138282D01*
X246871Y139200D01*
X247314Y140270D01*
X247399Y140917D01*
D02*
G37*
G36*
X281781Y135736D02*
X279551D01*
Y133507D01*
X279775Y133536D01*
X280449Y133815D01*
X281028Y134259D01*
X281472Y134838D01*
X281751Y135513D01*
X281781Y135736D01*
D02*
G37*
G36*
X278551D02*
X276321D01*
X276351Y135513D01*
X276630Y134838D01*
X277074Y134259D01*
X277653Y133815D01*
X278328Y133536D01*
X278551Y133507D01*
Y135736D01*
D02*
G37*
G36*
X245643Y134244D02*
X243413D01*
Y132014D01*
X243637Y132044D01*
X244311Y132323D01*
X244890Y132767D01*
X245334Y133346D01*
X245614Y134020D01*
X245643Y134244D01*
D02*
G37*
G36*
X242413D02*
X240184D01*
X240213Y134020D01*
X240492Y133346D01*
X240937Y132767D01*
X241516Y132323D01*
X242190Y132044D01*
X242413Y132014D01*
Y134244D01*
D02*
G37*
G36*
X38307Y134524D02*
X37228Y134382D01*
X36222Y133965D01*
X35359Y133303D01*
X34696Y132439D01*
X34280Y131433D01*
X34138Y130354D01*
X34280Y129275D01*
X34696Y128270D01*
X35359Y127406D01*
X36222Y126743D01*
X37228Y126327D01*
X38307Y126185D01*
X39386Y126327D01*
X40392Y126743D01*
X41255Y127406D01*
X41918Y128270D01*
X42334Y129275D01*
X42477Y130354D01*
X42334Y131433D01*
X41918Y132439D01*
X41255Y133303D01*
X40392Y133965D01*
X39386Y134382D01*
X38307Y134524D01*
D02*
G37*
G36*
X38807Y124672D02*
Y120854D01*
X42625D01*
X42542Y121489D01*
X42104Y122546D01*
X41407Y123454D01*
X40499Y124151D01*
X39442Y124589D01*
X38807Y124672D01*
D02*
G37*
G36*
X37807D02*
X37172Y124589D01*
X36115Y124151D01*
X35207Y123454D01*
X34510Y122546D01*
X34073Y121489D01*
X33989Y120854D01*
X37807D01*
Y124672D01*
D02*
G37*
G36*
X52441Y124488D02*
X44173D01*
Y116220D01*
X52441D01*
Y124488D01*
D02*
G37*
G36*
X42625Y119854D02*
X38807D01*
Y116036D01*
X39442Y116120D01*
X40499Y116558D01*
X41407Y117254D01*
X42104Y118162D01*
X42542Y119220D01*
X42625Y119854D01*
D02*
G37*
G36*
X37807D02*
X33989D01*
X34073Y119220D01*
X34510Y118162D01*
X35207Y117254D01*
X36115Y116558D01*
X37172Y116120D01*
X37807Y116036D01*
Y119854D01*
D02*
G37*
G36*
X58965Y116116D02*
Y113886D01*
X61194D01*
X61165Y114109D01*
X60886Y114784D01*
X60441Y115363D01*
X59862Y115807D01*
X59188Y116086D01*
X58965Y116116D01*
D02*
G37*
G36*
X57965D02*
X57741Y116086D01*
X57067Y115807D01*
X56488Y115363D01*
X56043Y114784D01*
X55764Y114109D01*
X55735Y113886D01*
X57965D01*
Y116116D01*
D02*
G37*
G36*
X61194Y112886D02*
X58965D01*
Y110656D01*
X59188Y110686D01*
X59862Y110965D01*
X60441Y111409D01*
X60886Y111988D01*
X61165Y112662D01*
X61194Y112886D01*
D02*
G37*
G36*
X57965D02*
X55735D01*
X55764Y112662D01*
X56043Y111988D01*
X56488Y111409D01*
X57067Y110965D01*
X57741Y110686D01*
X57965Y110656D01*
Y112886D01*
D02*
G37*
G36*
X59161Y107356D02*
Y105126D01*
X61391D01*
X61362Y105350D01*
X61082Y106024D01*
X60638Y106603D01*
X60059Y107047D01*
X59385Y107326D01*
X59161Y107356D01*
D02*
G37*
G36*
X58161D02*
X57938Y107326D01*
X57264Y107047D01*
X56685Y106603D01*
X56240Y106024D01*
X55961Y105350D01*
X55932Y105126D01*
X58161D01*
Y107356D01*
D02*
G37*
G36*
X61391Y104126D02*
X59161D01*
Y101896D01*
X59385Y101926D01*
X60059Y102205D01*
X60638Y102649D01*
X61082Y103228D01*
X61362Y103902D01*
X61391Y104126D01*
D02*
G37*
G36*
X58161D02*
X55932D01*
X55961Y103902D01*
X56240Y103228D01*
X56685Y102649D01*
X57264Y102205D01*
X57938Y101926D01*
X58161Y101896D01*
Y104126D01*
D02*
G37*
G36*
X29142Y101549D02*
Y99319D01*
X31372D01*
X31342Y99542D01*
X31063Y100217D01*
X30619Y100796D01*
X30040Y101240D01*
X29365Y101519D01*
X29142Y101549D01*
D02*
G37*
G36*
X28142D02*
X27918Y101519D01*
X27244Y101240D01*
X26665Y100796D01*
X26221Y100217D01*
X25941Y99542D01*
X25912Y99319D01*
X28142D01*
Y101549D01*
D02*
G37*
G36*
X31372Y98319D02*
X29142D01*
Y96089D01*
X29365Y96119D01*
X30040Y96398D01*
X30619Y96842D01*
X31063Y97421D01*
X31342Y98095D01*
X31372Y98319D01*
D02*
G37*
G36*
X28142D02*
X25912D01*
X25941Y98095D01*
X26221Y97421D01*
X26665Y96842D01*
X27244Y96398D01*
X27918Y96119D01*
X28142Y96089D01*
Y98319D01*
D02*
G37*
G36*
X24713Y93962D02*
Y91732D01*
X26942D01*
X26913Y91956D01*
X26634Y92630D01*
X26189Y93209D01*
X25610Y93653D01*
X24936Y93933D01*
X24713Y93962D01*
D02*
G37*
G36*
X23713D02*
X23489Y93933D01*
X22815Y93653D01*
X22236Y93209D01*
X21792Y92630D01*
X21512Y91956D01*
X21483Y91732D01*
X23713D01*
Y93962D01*
D02*
G37*
G36*
X48307Y134524D02*
X47228Y134382D01*
X46222Y133965D01*
X45359Y133303D01*
X44696Y132439D01*
X44280Y131433D01*
X44138Y130354D01*
X44280Y129275D01*
X44696Y128270D01*
X45359Y127406D01*
X46222Y126743D01*
X47228Y126327D01*
X48307Y126185D01*
X49386Y126327D01*
X50392Y126743D01*
X51255Y127406D01*
X51385Y127575D01*
X98314D01*
X98992Y126897D01*
Y103581D01*
X98036Y103069D01*
X97016Y102233D01*
X96180Y101214D01*
X95559Y100051D01*
X95176Y98790D01*
X95047Y97478D01*
X95176Y96166D01*
X95559Y94904D01*
X96180Y93741D01*
X97016Y92722D01*
X98036Y91886D01*
X99198Y91264D01*
X100460Y90882D01*
X101772Y90752D01*
X103084Y90882D01*
X104346Y91264D01*
X105508Y91886D01*
X106527Y92722D01*
X107364Y93741D01*
X107985Y94904D01*
X108368Y96166D01*
X108497Y97478D01*
X108368Y98790D01*
X107985Y100051D01*
X107364Y101214D01*
X106527Y102233D01*
X105508Y103069D01*
X104551Y103581D01*
Y128048D01*
X104457Y128768D01*
X104179Y129438D01*
X103737Y130014D01*
X101431Y132320D01*
X100855Y132762D01*
X100185Y133039D01*
X99466Y133134D01*
X51385D01*
X51255Y133303D01*
X50392Y133965D01*
X49386Y134382D01*
X48307Y134524D01*
D02*
G37*
G36*
X208780Y104796D02*
X207352Y104656D01*
X205979Y104239D01*
X204714Y103563D01*
X203605Y102653D01*
X202694Y101544D01*
X202018Y100278D01*
X201602Y98905D01*
X201461Y97478D01*
X201602Y96050D01*
X202018Y94677D01*
X202694Y93411D01*
X203605Y92303D01*
X204714Y91392D01*
X205979Y90716D01*
X207352Y90299D01*
X208780Y90159D01*
X210208Y90299D01*
X211580Y90716D01*
X212846Y91392D01*
X213955Y92303D01*
X214865Y93411D01*
X215541Y94677D01*
X215958Y96050D01*
X216098Y97478D01*
X215958Y98905D01*
X215541Y100278D01*
X214865Y101544D01*
X213955Y102653D01*
X212846Y103563D01*
X211580Y104239D01*
X210208Y104656D01*
X208780Y104796D01*
D02*
G37*
G36*
X51961Y92198D02*
X51737Y92169D01*
X51063Y91890D01*
X50484Y91445D01*
X50040Y90866D01*
X49760Y90192D01*
X49731Y89969D01*
X51961D01*
Y92198D01*
D02*
G37*
G36*
X26942Y90732D02*
X24713D01*
Y88503D01*
X24936Y88532D01*
X25610Y88811D01*
X26189Y89255D01*
X26634Y89834D01*
X26913Y90509D01*
X26942Y90732D01*
D02*
G37*
G36*
X23713D02*
X21483D01*
X21512Y90509D01*
X21792Y89834D01*
X22236Y89255D01*
X22815Y88811D01*
X23489Y88532D01*
X23713Y88503D01*
Y90732D01*
D02*
G37*
G36*
X57587Y90525D02*
Y88295D01*
X59816D01*
X59787Y88519D01*
X59508Y89193D01*
X59063Y89772D01*
X58484Y90216D01*
X57810Y90496D01*
X57587Y90525D01*
D02*
G37*
G36*
X79634Y90328D02*
Y88098D01*
X81864D01*
X81834Y88322D01*
X81555Y88996D01*
X81111Y89575D01*
X80532Y90020D01*
X79857Y90299D01*
X79634Y90328D01*
D02*
G37*
G36*
X78634D02*
X78410Y90299D01*
X77736Y90020D01*
X77157Y89575D01*
X76713Y88996D01*
X76434Y88322D01*
X76404Y88098D01*
X78634D01*
Y90328D01*
D02*
G37*
G36*
X51961Y88968D02*
X49731D01*
X49760Y88745D01*
X50040Y88071D01*
X50484Y87492D01*
X51063Y87047D01*
X51737Y86768D01*
X51961Y86739D01*
Y88968D01*
D02*
G37*
G36*
X59816Y87295D02*
X57587D01*
Y85066D01*
X57810Y85095D01*
X58484Y85374D01*
X59063Y85818D01*
X59508Y86397D01*
X59787Y87072D01*
X59816Y87295D01*
D02*
G37*
G36*
X52961Y92198D02*
Y89468D01*
Y86739D01*
X53184Y86768D01*
X53618Y86948D01*
X53937Y86999D01*
X54579Y86608D01*
X54666Y86397D01*
X55110Y85818D01*
X55689Y85374D01*
X56363Y85095D01*
X56587Y85066D01*
Y87795D01*
Y90525D01*
X56363Y90496D01*
X55929Y90316D01*
X55610Y90264D01*
X54969Y90656D01*
X54882Y90866D01*
X54437Y91445D01*
X53858Y91890D01*
X53184Y92169D01*
X52961Y92198D01*
D02*
G37*
G36*
X81864Y87098D02*
X79634D01*
Y84869D01*
X79857Y84898D01*
X80532Y85177D01*
X81111Y85622D01*
X81555Y86201D01*
X81834Y86875D01*
X81864Y87098D01*
D02*
G37*
G36*
X78634D02*
X76404D01*
X76434Y86875D01*
X76713Y86201D01*
X77157Y85622D01*
X77736Y85177D01*
X78410Y84898D01*
X78634Y84869D01*
Y87098D01*
D02*
G37*
G36*
X24024Y79600D02*
Y77370D01*
X26253D01*
X26224Y77594D01*
X25945Y78268D01*
X25500Y78847D01*
X24921Y79291D01*
X24247Y79570D01*
X24024Y79600D01*
D02*
G37*
G36*
X23024D02*
X22800Y79570D01*
X22126Y79291D01*
X21547Y78847D01*
X21103Y78268D01*
X20823Y77594D01*
X20794Y77370D01*
X23024D01*
Y79600D01*
D02*
G37*
G36*
X26253Y76370D02*
X24024D01*
Y74140D01*
X24247Y74170D01*
X24921Y74449D01*
X25500Y74893D01*
X25945Y75472D01*
X26224Y76147D01*
X26253Y76370D01*
D02*
G37*
G36*
X23024D02*
X20794D01*
X20823Y76147D01*
X21103Y75472D01*
X21547Y74893D01*
X22126Y74449D01*
X22800Y74170D01*
X23024Y74140D01*
Y76370D01*
D02*
G37*
G36*
X208780Y75486D02*
X207313Y75342D01*
X205903Y74914D01*
X204604Y74219D01*
X203465Y73285D01*
X202530Y72146D01*
X201835Y70846D01*
X201408Y69436D01*
X201263Y67970D01*
X201408Y66503D01*
X201835Y65093D01*
X202530Y63794D01*
X203465Y62655D01*
X204604Y61720D01*
X205903Y61025D01*
X207313Y60598D01*
X208780Y60453D01*
X210246Y60598D01*
X211656Y61025D01*
X212956Y61720D01*
X214095Y62655D01*
X215030Y63794D01*
X215724Y65093D01*
X216152Y66503D01*
X216296Y67970D01*
X216152Y69436D01*
X215724Y70846D01*
X215030Y72146D01*
X214095Y73285D01*
X212956Y74219D01*
X211656Y74914D01*
X210246Y75342D01*
X208780Y75486D01*
D02*
G37*
G36*
X65264Y47120D02*
Y44890D01*
X67493D01*
X67464Y45113D01*
X67185Y45788D01*
X66741Y46367D01*
X66162Y46811D01*
X65487Y47090D01*
X65264Y47120D01*
D02*
G37*
G36*
X64264D02*
X64040Y47090D01*
X63366Y46811D01*
X62787Y46367D01*
X62343Y45788D01*
X62063Y45113D01*
X62034Y44890D01*
X64264D01*
Y47120D01*
D02*
G37*
G36*
X67493Y43890D02*
X65264D01*
Y41660D01*
X65487Y41689D01*
X66162Y41969D01*
X66741Y42413D01*
X67185Y42992D01*
X67464Y43666D01*
X67493Y43890D01*
D02*
G37*
G36*
X64264D02*
X62034D01*
X62063Y43666D01*
X62343Y42992D01*
X62787Y42413D01*
X63366Y41969D01*
X64040Y41689D01*
X64264Y41660D01*
Y43890D01*
D02*
G37*
G36*
X102272Y45351D02*
Y38962D01*
X108661D01*
X108577Y39816D01*
X108183Y41117D01*
X107541Y42317D01*
X106678Y43368D01*
X105627Y44231D01*
X104427Y44873D01*
X103126Y45267D01*
X102272Y45351D01*
D02*
G37*
G36*
X101272D02*
X100418Y45267D01*
X99116Y44873D01*
X97917Y44231D01*
X96865Y43368D01*
X96002Y42317D01*
X95361Y41117D01*
X94966Y39816D01*
X94882Y38962D01*
X101272D01*
Y45351D01*
D02*
G37*
G36*
X108661Y37962D02*
X102272D01*
Y31572D01*
X103126Y31656D01*
X104427Y32051D01*
X105627Y32692D01*
X106678Y33555D01*
X107541Y34607D01*
X108183Y35806D01*
X108577Y37108D01*
X108661Y37962D01*
D02*
G37*
G36*
X101272D02*
X94882D01*
X94966Y37108D01*
X95361Y35806D01*
X96002Y34607D01*
X96865Y33555D01*
X97917Y32692D01*
X99116Y32051D01*
X100418Y31656D01*
X101272Y31572D01*
Y37962D01*
D02*
G37*
G36*
X208780Y45781D02*
X207352Y45640D01*
X205979Y45223D01*
X204714Y44547D01*
X203605Y43637D01*
X202694Y42528D01*
X202018Y41263D01*
X201602Y39890D01*
X201461Y38462D01*
X201602Y37034D01*
X202018Y35661D01*
X202694Y34396D01*
X203605Y33287D01*
X204714Y32377D01*
X205979Y31700D01*
X207352Y31284D01*
X208780Y31143D01*
X210208Y31284D01*
X211580Y31700D01*
X212846Y32377D01*
X213955Y33287D01*
X214865Y34396D01*
X215541Y35661D01*
X215958Y37034D01*
X216098Y38462D01*
X215958Y39890D01*
X215541Y41263D01*
X214865Y42528D01*
X213955Y43637D01*
X212846Y44547D01*
X211580Y45223D01*
X210208Y45640D01*
X208780Y45781D01*
D02*
G37*
G36*
X62606Y31287D02*
Y27468D01*
X66424D01*
X66341Y28103D01*
X65903Y29160D01*
X65206Y30068D01*
X64298Y30765D01*
X63241Y31203D01*
X62606Y31287D01*
D02*
G37*
G36*
X61606D02*
X60972Y31203D01*
X59914Y30765D01*
X59006Y30068D01*
X58310Y29160D01*
X57872Y28103D01*
X57788Y27468D01*
X61606D01*
Y31287D01*
D02*
G37*
G36*
X76240Y31102D02*
X67972D01*
Y22835D01*
X76240D01*
Y31102D01*
D02*
G37*
G36*
X66424Y26469D02*
X62606D01*
Y22650D01*
X63241Y22734D01*
X64298Y23172D01*
X65206Y23869D01*
X65903Y24777D01*
X66341Y25834D01*
X66424Y26469D01*
D02*
G37*
G36*
X61606D02*
X57788D01*
X57872Y25834D01*
X58310Y24777D01*
X59006Y23869D01*
X59914Y23172D01*
X60972Y22734D01*
X61606Y22650D01*
Y26469D01*
D02*
G37*
G36*
X393701Y36259D02*
X391724Y36104D01*
X389796Y35641D01*
X387964Y34882D01*
X386273Y33846D01*
X384765Y32558D01*
X383477Y31050D01*
X382441Y29359D01*
X381682Y27527D01*
X381219Y25599D01*
X381063Y23622D01*
X381219Y21645D01*
X381682Y19717D01*
X382441Y17885D01*
X383477Y16194D01*
X384765Y14686D01*
X386273Y13398D01*
X387964Y12362D01*
X389796Y11603D01*
X391724Y11140D01*
X393701Y10985D01*
X395678Y11140D01*
X397606Y11603D01*
X399438Y12362D01*
X401129Y13398D01*
X402637Y14686D01*
X403925Y16194D01*
X404961Y17885D01*
X405720Y19717D01*
X406183Y21645D01*
X406338Y23622D01*
X406183Y25599D01*
X405720Y27527D01*
X404961Y29359D01*
X403925Y31050D01*
X402637Y32558D01*
X401129Y33846D01*
X399438Y34882D01*
X397606Y35641D01*
X395678Y36104D01*
X393701Y36259D01*
D02*
G37*
G36*
X23622D02*
X21645Y36104D01*
X19717Y35641D01*
X17885Y34882D01*
X16194Y33846D01*
X14686Y32558D01*
X13398Y31050D01*
X12362Y29359D01*
X11603Y27527D01*
X11140Y25599D01*
X10985Y23622D01*
X11140Y21645D01*
X11603Y19717D01*
X12362Y17885D01*
X13398Y16194D01*
X14686Y14686D01*
X16194Y13398D01*
X17885Y12362D01*
X19717Y11603D01*
X21645Y11140D01*
X23622Y10985D01*
X25599Y11140D01*
X27527Y11603D01*
X29359Y12362D01*
X31050Y13398D01*
X32558Y14686D01*
X33846Y16194D01*
X34882Y17885D01*
X35641Y19717D01*
X36104Y21645D01*
X36259Y23622D01*
X36104Y25599D01*
X35641Y27527D01*
X34882Y29359D01*
X33846Y31050D01*
X32558Y32558D01*
X31050Y33846D01*
X29359Y34882D01*
X27527Y35641D01*
X25599Y36104D01*
X23622Y36259D01*
D02*
G37*
G36*
X361344Y14384D02*
Y10566D01*
X365162D01*
X365078Y11201D01*
X364640Y12258D01*
X363944Y13166D01*
X363036Y13863D01*
X361979Y14301D01*
X361344Y14384D01*
D02*
G37*
G36*
X360344Y14384D02*
X359709Y14301D01*
X358652Y13863D01*
X357744Y13166D01*
X357047Y12258D01*
X356609Y11201D01*
X356526Y10566D01*
X360344D01*
Y14384D01*
D02*
G37*
G36*
X76181Y18209D02*
X67913D01*
Y9941D01*
X76181D01*
Y18209D01*
D02*
G37*
G36*
X62047Y18244D02*
X60968Y18102D01*
X59962Y17686D01*
X59099Y17023D01*
X58436Y16160D01*
X58020Y15154D01*
X57878Y14075D01*
X58020Y12996D01*
X58436Y11990D01*
X59099Y11127D01*
X59962Y10464D01*
X60968Y10047D01*
X62047Y9905D01*
X63126Y10047D01*
X64132Y10464D01*
X64996Y11127D01*
X65658Y11990D01*
X66075Y12996D01*
X66217Y14075D01*
X66075Y15154D01*
X65658Y16160D01*
X64996Y17023D01*
X64132Y17686D01*
X63126Y18102D01*
X62047Y18244D01*
D02*
G37*
G36*
X374978Y14200D02*
X366710D01*
Y5932D01*
X374978D01*
Y14200D01*
D02*
G37*
G36*
X360344Y9566D02*
X356526D01*
X356609Y8931D01*
X357047Y7874D01*
X357744Y6966D01*
X358652Y6269D01*
X359709Y5831D01*
X360344Y5748D01*
Y9566D01*
D02*
G37*
G36*
X365162D02*
X361344D01*
Y5748D01*
X361979Y5831D01*
X363036Y6269D01*
X363944Y6966D01*
X364640Y7874D01*
X365078Y8931D01*
X365162Y9566D01*
D02*
G37*
%LPD*%
D10*
X153543Y209449D02*
Y236221D01*
X153543Y236221D02*
X153543Y236221D01*
X133071Y190157D02*
Y214173D01*
X161417Y196063D02*
Y236221D01*
X200394Y180709D02*
X200591Y180905D01*
Y236024D01*
X200787Y236221D01*
X208661D02*
X208661Y236221D01*
Y170079D02*
Y236221D01*
D19*
X149692Y318799D02*
X150676Y317815D01*
X149409Y318799D02*
X149692D01*
X150676Y317815D02*
X176370D01*
X180685Y313500D01*
X96640Y258100D02*
Y302348D01*
X96331Y257791D02*
X96640Y258100D01*
Y302348D02*
X96949Y302658D01*
X170685Y275311D02*
Y293500D01*
X168012Y272638D02*
X170685Y275311D01*
X140868Y246719D02*
X140917Y246669D01*
X140819Y270587D02*
X140868Y270537D01*
Y246719D02*
Y270537D01*
X125169Y246878D02*
X125274Y246774D01*
X140813D02*
X140917Y246669D01*
X125274Y246774D02*
X140813D01*
X176870Y165453D02*
Y165650D01*
Y142027D02*
Y165453D01*
Y142027D02*
X177165Y141732D01*
X185138Y141831D02*
Y175591D01*
X185236Y175689D01*
X185039Y141732D02*
X185138Y141831D01*
X168996Y185531D02*
X169144Y185384D01*
Y141880D02*
Y185384D01*
Y141880D02*
X169291Y141732D01*
X113169Y224378D02*
Y234878D01*
X125169Y246878D01*
D59*
X243032Y242039D02*
X245079Y244086D01*
X243032Y181417D02*
Y242039D01*
X123917Y281988D02*
Y303150D01*
X119882Y277953D02*
X123917Y281988D01*
D60*
X101772Y97478D02*
Y128048D01*
X99466Y130354D02*
X101772Y128048D01*
X48307Y130354D02*
X99466D01*
D63*
X23622Y307087D02*
D03*
Y23622D02*
D03*
X393701D02*
D03*
Y311024D02*
D03*
D64*
X170685Y322874D02*
D03*
X48307Y120354D02*
D03*
X74902Y298957D02*
D03*
X196358Y261634D02*
D03*
D65*
X180685Y322874D02*
D03*
X170685Y312874D02*
D03*
X180685D02*
D03*
X170685Y302874D02*
D03*
X180685D02*
D03*
X170685Y292874D02*
D03*
X180685D02*
D03*
X62106Y26969D02*
D03*
X62047Y14075D02*
D03*
X38307Y210354D02*
D03*
X48307D02*
D03*
X38307Y200354D02*
D03*
X48307D02*
D03*
X38307Y190354D02*
D03*
X48307D02*
D03*
X38307Y180354D02*
D03*
X48307D02*
D03*
X38307Y170354D02*
D03*
X48307D02*
D03*
X38307Y160354D02*
D03*
X48307D02*
D03*
X38307Y150354D02*
D03*
X48307D02*
D03*
X38307Y140354D02*
D03*
X48307D02*
D03*
X38307Y130354D02*
D03*
X48307D02*
D03*
X38307Y120354D02*
D03*
X74902Y308957D02*
D03*
Y318957D02*
D03*
X360844Y10066D02*
D03*
X196358Y271634D02*
D03*
D66*
X266831Y303150D02*
D03*
X27264Y262461D02*
D03*
Y277461D02*
D03*
X138917Y303150D02*
D03*
X123917D02*
D03*
X303760D02*
D03*
D67*
X251831D02*
D03*
X108917D02*
D03*
X288760D02*
D03*
D68*
X27264Y247461D02*
D03*
D69*
X101772Y38462D02*
D03*
Y97478D02*
D03*
D70*
X208780Y38462D02*
D03*
Y97478D02*
D03*
D71*
Y67970D02*
D03*
D72*
X72106Y26969D02*
D03*
X72047Y14075D02*
D03*
X370844Y10066D02*
D03*
D73*
X208661Y141732D02*
D03*
Y236221D02*
D03*
D74*
X200787Y141732D02*
D03*
X192913D02*
D03*
X185039D02*
D03*
X177165D02*
D03*
X169291D02*
D03*
X161417D02*
D03*
X153543D02*
D03*
Y236221D02*
D03*
X161417D02*
D03*
X169291D02*
D03*
X177165D02*
D03*
X185039D02*
D03*
X192913D02*
D03*
X200787D02*
D03*
D75*
X253031Y161417D02*
D03*
Y151417D02*
D03*
Y171417D02*
D03*
X243032Y161417D02*
D03*
Y151417D02*
D03*
Y171417D02*
D03*
X253031Y181417D02*
D03*
X243032Y141417D02*
D03*
Y181417D02*
D03*
D76*
X253071Y141319D02*
D03*
D77*
X153543Y209449D02*
D03*
X133071Y214173D02*
D03*
Y190157D02*
D03*
X161417Y196063D02*
D03*
X200394Y180709D02*
D03*
X208661Y170079D02*
D03*
X28642Y98819D02*
D03*
X96949Y302658D02*
D03*
X140819Y270587D02*
D03*
X64764Y44390D02*
D03*
X127532Y276264D02*
D03*
X96331Y257791D02*
D03*
X253602Y274398D02*
D03*
X316535Y300000D02*
D03*
X305331Y256524D02*
D03*
X57087Y87795D02*
D03*
X23524Y76870D02*
D03*
X58465Y113386D02*
D03*
X187795Y267650D02*
D03*
X216154Y244697D02*
D03*
X236138Y270205D02*
D03*
X24213Y91232D02*
D03*
X242913Y134744D02*
D03*
X279051Y136236D02*
D03*
Y158744D02*
D03*
X58661Y104626D02*
D03*
X120150Y246374D02*
D03*
X107945Y237713D02*
D03*
X52461Y89468D02*
D03*
X71358Y138484D02*
D03*
X79134Y87598D02*
D03*
X113063Y250705D02*
D03*
X140917Y246669D02*
D03*
X176870Y165453D02*
D03*
X185236Y175689D02*
D03*
X168996Y185531D02*
D03*
X125169Y246878D02*
D03*
D78*
X245079Y244086D02*
D03*
X168012Y272638D02*
D03*
X244209Y252488D02*
D03*
X113169Y224378D02*
D03*
X149409Y318799D02*
D03*
D79*
X119882Y277953D02*
D03*
M02*
