G04*
G04 #@! TF.GenerationSoftware,Altium Limited,Altium Designer,21.4.1 (30)*
G04*
G04 Layer_Color=255*
%FSLAX25Y25*%
%MOIN*%
G70*
G04*
G04 #@! TF.SameCoordinates,91A49538-2058-48ED-BDE1-B27ADC330D34*
G04*
G04*
G04 #@! TF.FilePolarity,Positive*
G04*
G01*
G75*
%ADD63C,0.23622*%
%ADD64R,0.06693X0.06693*%
%ADD65C,0.06693*%
%ADD66C,0.07874*%
%ADD67R,0.07874X0.07874*%
%ADD68R,0.07874X0.07874*%
%ADD69C,0.11811*%
%ADD70C,0.12992*%
%ADD71C,0.13386*%
%ADD72R,0.06693X0.06693*%
%ADD73R,0.05315X0.05315*%
%ADD74C,0.05315*%
%ADD75C,0.06791*%
%ADD76R,0.06791X0.06791*%
D63*
X23622Y307087D02*
D03*
Y23622D02*
D03*
X393701D02*
D03*
Y311024D02*
D03*
D64*
X170685Y322874D02*
D03*
X48307Y120354D02*
D03*
X74902Y298957D02*
D03*
X196358Y261634D02*
D03*
D65*
X180685Y322874D02*
D03*
X170685Y312874D02*
D03*
X180685D02*
D03*
X170685Y302874D02*
D03*
X180685D02*
D03*
X170685Y292874D02*
D03*
X180685D02*
D03*
X62106Y26969D02*
D03*
X62047Y14075D02*
D03*
X38307Y210354D02*
D03*
X48307D02*
D03*
X38307Y200354D02*
D03*
X48307D02*
D03*
X38307Y190354D02*
D03*
X48307D02*
D03*
X38307Y180354D02*
D03*
X48307D02*
D03*
X38307Y170354D02*
D03*
X48307D02*
D03*
X38307Y160354D02*
D03*
X48307D02*
D03*
X38307Y150354D02*
D03*
X48307D02*
D03*
X38307Y140354D02*
D03*
X48307D02*
D03*
X38307Y130354D02*
D03*
X48307D02*
D03*
X38307Y120354D02*
D03*
X74902Y308957D02*
D03*
Y318957D02*
D03*
X360844Y10066D02*
D03*
X196358Y271634D02*
D03*
D66*
X266831Y303150D02*
D03*
X27264Y262461D02*
D03*
Y277461D02*
D03*
X138917Y303150D02*
D03*
X123917D02*
D03*
X303760D02*
D03*
D67*
X251831D02*
D03*
X108917D02*
D03*
X288760D02*
D03*
D68*
X27264Y247461D02*
D03*
D69*
X101772Y38462D02*
D03*
Y97478D02*
D03*
D70*
X208780Y38462D02*
D03*
Y97478D02*
D03*
D71*
Y67970D02*
D03*
D72*
X72106Y26969D02*
D03*
X72047Y14075D02*
D03*
X370844Y10066D02*
D03*
D73*
X208661Y141732D02*
D03*
Y236221D02*
D03*
D74*
X200787Y141732D02*
D03*
X192913D02*
D03*
X185039D02*
D03*
X177165D02*
D03*
X169291D02*
D03*
X161417D02*
D03*
X153543D02*
D03*
Y236221D02*
D03*
X161417D02*
D03*
X169291D02*
D03*
X177165D02*
D03*
X185039D02*
D03*
X192913D02*
D03*
X200787D02*
D03*
D75*
X253031Y161417D02*
D03*
Y151417D02*
D03*
Y171417D02*
D03*
X243032Y161417D02*
D03*
Y151417D02*
D03*
Y171417D02*
D03*
X253031Y181417D02*
D03*
X243032Y141417D02*
D03*
Y181417D02*
D03*
D76*
X253071Y141319D02*
D03*
M02*
