G04*
G04 #@! TF.GenerationSoftware,Altium Limited,Altium Designer,21.4.1 (30)*
G04*
G04 Layer_Color=65535*
%FSLAX25Y25*%
%MOIN*%
G70*
G04*
G04 #@! TF.SameCoordinates,91A49538-2058-48ED-BDE1-B27ADC330D34*
G04*
G04*
G04 #@! TF.FilePolarity,Positive*
G04*
G01*
G75*
%ADD10C,0.00787*%
%ADD11C,0.00394*%
%ADD12C,0.00984*%
%ADD13C,0.01575*%
%ADD14C,0.00197*%
%ADD15C,0.00591*%
%ADD16C,0.00600*%
%ADD17C,0.00500*%
%ADD18C,0.01181*%
%ADD19C,0.01000*%
G36*
X406068Y290156D02*
X406210D01*
Y290014D01*
X406353D01*
Y289872D01*
X406495D01*
Y289729D01*
X406780D01*
Y289587D01*
X406922D01*
Y289444D01*
X407064D01*
Y289302D01*
X407207D01*
Y289160D01*
X407491D01*
Y289017D01*
X407634D01*
Y288875D01*
X407776D01*
Y288733D01*
X407918D01*
Y288590D01*
X408203D01*
Y288448D01*
X408345D01*
Y288306D01*
X408488D01*
Y288163D01*
X408630D01*
Y288021D01*
X408915D01*
Y287879D01*
X409057D01*
Y287736D01*
X409199D01*
Y287594D01*
X409484D01*
Y287452D01*
X409626D01*
Y287309D01*
X409769D01*
Y287167D01*
X409911D01*
Y287025D01*
X410196D01*
Y286882D01*
X410338D01*
Y286740D01*
X410480D01*
Y286598D01*
X410623D01*
Y286455D01*
X410907D01*
Y286313D01*
X411050D01*
Y286171D01*
X411192D01*
Y286028D01*
X411335D01*
Y285886D01*
X411619D01*
Y285744D01*
X411762D01*
Y285601D01*
X411904D01*
Y285459D01*
X412046D01*
Y267809D01*
X402794D01*
Y281473D01*
X402652D01*
Y281758D01*
X402509D01*
Y281900D01*
X402367D01*
Y282043D01*
X402225D01*
Y282185D01*
X399805D01*
Y282043D01*
X399662D01*
Y281900D01*
X399520D01*
Y281758D01*
X399378D01*
Y281616D01*
X399236D01*
Y267666D01*
X399093D01*
Y267809D01*
X389983D01*
Y281473D01*
X389841D01*
Y281616D01*
X389699D01*
Y281900D01*
X389556D01*
Y282043D01*
X389272D01*
Y282185D01*
X386852D01*
Y282043D01*
X386709D01*
Y281900D01*
X386567D01*
Y281758D01*
X386425D01*
Y281616D01*
X386282D01*
Y271794D01*
X380019D01*
Y272079D01*
X379877D01*
Y272364D01*
X379735D01*
Y272791D01*
X379592D01*
Y273075D01*
X379450D01*
Y273360D01*
X379308D01*
Y273787D01*
X379165D01*
Y274072D01*
X379023D01*
Y274356D01*
X378881D01*
Y274783D01*
X378738D01*
Y275068D01*
X378596D01*
Y275495D01*
X378454D01*
Y275780D01*
X378311D01*
Y276064D01*
X378169D01*
Y276491D01*
X378027D01*
Y276776D01*
X377884D01*
Y277061D01*
X377742D01*
Y277488D01*
X377600D01*
Y277772D01*
X377457D01*
Y278057D01*
X377315D01*
Y278484D01*
X377173D01*
Y281331D01*
X377030D01*
Y281473D01*
X376888D01*
Y281616D01*
X376746D01*
Y281758D01*
X376603D01*
Y281900D01*
X376461D01*
Y282043D01*
X376319D01*
Y282185D01*
X367209D01*
Y282043D01*
X367067D01*
Y281900D01*
X366924D01*
Y281616D01*
X366782D01*
Y281473D01*
X366639D01*
Y281331D01*
X366497D01*
Y278626D01*
X373472D01*
Y278484D01*
X373614D01*
Y278057D01*
X373757D01*
Y277630D01*
X373899D01*
Y277345D01*
X374041D01*
Y276918D01*
X374184D01*
Y276491D01*
X374326D01*
Y276207D01*
X374468D01*
Y275780D01*
X374611D01*
Y275495D01*
X374753D01*
Y275068D01*
X374895D01*
Y274641D01*
X375038D01*
Y274356D01*
X375180D01*
Y273929D01*
X375322D01*
Y273645D01*
X375465D01*
Y273218D01*
X375607D01*
Y272933D01*
X375749D01*
Y272506D01*
X375892D01*
Y272079D01*
X376034D01*
Y271794D01*
X376176D01*
Y271367D01*
X376319D01*
Y271082D01*
X376461D01*
Y268236D01*
X376319D01*
Y268093D01*
X366639D01*
Y259695D01*
X355537D01*
Y287167D01*
X355679D01*
Y287309D01*
X355822D01*
Y287452D01*
X355964D01*
Y287594D01*
X356106D01*
Y287736D01*
X356249D01*
Y287879D01*
X356391D01*
Y288163D01*
X356533D01*
Y288306D01*
X356676D01*
Y288448D01*
X356818D01*
Y288590D01*
X356960D01*
Y288733D01*
X357103D01*
Y288875D01*
X357245D01*
Y289160D01*
X357387D01*
Y289302D01*
X357530D01*
Y289444D01*
X357672D01*
Y289587D01*
X357814D01*
Y289729D01*
X357957D01*
Y289872D01*
X358099D01*
Y290156D01*
X358241D01*
Y290299D01*
X393115D01*
Y290156D01*
X393257D01*
Y290014D01*
X393400D01*
Y289872D01*
X393542D01*
Y289729D01*
X393684D01*
Y289587D01*
X393827D01*
Y289444D01*
X393969D01*
Y289302D01*
X394111D01*
Y289160D01*
X394254D01*
Y289017D01*
X394396D01*
Y288875D01*
X394681D01*
Y289017D01*
X394823D01*
Y289160D01*
X394965D01*
Y289302D01*
X395108D01*
Y289444D01*
X395250D01*
Y289587D01*
X395392D01*
Y289729D01*
X395535D01*
Y289872D01*
X395677D01*
Y290014D01*
X395819D01*
Y290156D01*
X395962D01*
Y290299D01*
X406068D01*
Y290156D01*
D02*
G37*
G36*
X89095Y38340D02*
X84303D01*
Y39889D01*
X89095D01*
Y38340D01*
D02*
G37*
G36*
X86338Y94891D02*
X89764D01*
Y93452D01*
X86338D01*
Y90026D01*
X84881D01*
Y93452D01*
X81455D01*
Y94891D01*
X84881D01*
Y98353D01*
X86338D01*
Y94891D01*
D02*
G37*
D10*
X37008Y307087D02*
G03*
X37008Y307087I-13386J0D01*
G01*
Y23622D02*
G03*
X37008Y23622I-13386J0D01*
G01*
X407087D02*
G03*
X407087Y23622I-13386J0D01*
G01*
Y311024D02*
G03*
X407087Y311024I-13386J0D01*
G01*
X18461Y115075D02*
Y117043D01*
X11508Y115059D02*
Y117027D01*
X165185Y287374D02*
X186185D01*
X165185Y328374D02*
X186185D01*
Y287374D02*
Y328374D01*
X165185Y287374D02*
Y328374D01*
X165252Y328346D02*
X165350D01*
X164563Y329035D02*
X165252Y328346D01*
X270348Y317323D02*
Y319291D01*
X263348Y317323D02*
X270348D01*
X263348D02*
Y319291D01*
X255348Y317323D02*
Y319291D01*
X248348Y317323D02*
X255348D01*
X248348D02*
Y319291D01*
X251855D02*
X266845D01*
X242598D02*
X251855D01*
X266845D02*
X276063D01*
X242598Y291732D02*
X276063D01*
Y319291D01*
X242598Y291732D02*
Y319291D01*
X11122Y239980D02*
Y284941D01*
Y243969D02*
X13091D01*
Y250969D01*
X11122D02*
X13091D01*
X11122Y258968D02*
X13091D01*
Y265968D01*
X11122D02*
X13091D01*
X11122Y273969D02*
X13091D01*
Y280968D01*
X11122D02*
X13091D01*
X38681Y239980D02*
Y284941D01*
X11122D02*
X38681D01*
X11370Y239980D02*
X38681D01*
X91575Y2615D02*
Y132773D01*
Y2615D02*
X325866D01*
X91575Y132773D02*
X325866D01*
Y2615D02*
Y132773D01*
X56606Y21468D02*
Y32469D01*
X77606D01*
Y21468D02*
Y32469D01*
X56606Y21468D02*
X77606D01*
X56547Y8575D02*
Y19575D01*
X77547D01*
Y8575D02*
Y19575D01*
X56547Y8575D02*
X77547D01*
X80402Y293457D02*
Y324457D01*
X69402D02*
X80402D01*
X69402Y293457D02*
Y324457D01*
Y293457D02*
X80402D01*
X101437Y291732D02*
Y319043D01*
X146398Y291732D02*
Y319291D01*
X101437Y291732D02*
X146398D01*
X142425Y317323D02*
Y319291D01*
X135425Y317323D02*
X142425D01*
X135425D02*
Y319291D01*
X127425Y317323D02*
Y319291D01*
X120425Y317323D02*
X127425D01*
X120425D02*
Y319291D01*
X112425Y317323D02*
Y319291D01*
X105425Y317323D02*
X112425D01*
X105425D02*
Y319291D01*
X101437D02*
X146398D01*
X149016Y145669D02*
X213189Y145669D01*
X149016Y137795D02*
Y145669D01*
Y137795D02*
X213189D01*
Y145669D01*
Y232283D02*
Y240158D01*
X149016Y232283D02*
X213189D01*
X149016D02*
Y240158D01*
X213189Y240158D01*
X355344Y4566D02*
X376344D01*
Y15566D01*
X355344D02*
X376344D01*
X355344Y4566D02*
Y15566D01*
X190858Y256134D02*
Y277134D01*
Y256134D02*
X201858D01*
Y277134D01*
X190858D02*
X201858D01*
X307278Y317323D02*
Y319291D01*
X300278Y317323D02*
X307278D01*
X300278D02*
Y319291D01*
X292278Y317323D02*
Y319291D01*
X285278Y317323D02*
X292278D01*
X285278D02*
Y319291D01*
X288785D02*
X303775D01*
X279528D02*
X288785D01*
X303775D02*
X312992D01*
X279528Y291732D02*
X312992D01*
Y319291D01*
X279528Y291732D02*
Y319291D01*
X117827Y248677D02*
X137512D01*
X117827Y236079D02*
X137512D01*
Y248677D01*
X117827Y236079D02*
Y248677D01*
X321969Y307736D02*
X344016D01*
X321969Y291988D02*
X344016D01*
X321969Y305768D02*
Y307736D01*
X344016Y305768D02*
Y307736D01*
X321969Y291988D02*
Y293957D01*
X344016Y291988D02*
Y293957D01*
X341260Y305768D02*
Y307736D01*
Y291988D02*
Y293957D01*
X220336Y300738D02*
Y307529D01*
X207541D02*
X220336D01*
X207541Y300738D02*
X220336D01*
X220434Y320915D02*
Y327707D01*
X207639D02*
X220434D01*
X207639Y320915D02*
X220434D01*
X207639D02*
Y327707D01*
X207541Y300738D02*
Y307529D01*
X202559Y290453D02*
Y297244D01*
X189764D02*
X202559D01*
X189764Y290453D02*
Y297244D01*
Y290453D02*
X202559D01*
X195210Y253740D02*
X193898D01*
X194554D01*
Y250460D01*
X193898Y249804D01*
X193242D01*
X192586Y250460D01*
X199146Y253740D02*
X196522D01*
Y251772D01*
X197834Y252428D01*
X198490D01*
X199146Y251772D01*
Y250460D01*
X198490Y249804D01*
X197178D01*
X196522Y250460D01*
X27691Y113517D02*
X27035Y114173D01*
X25723D01*
X25067Y113517D01*
Y110893D01*
X25723Y110237D01*
X27035D01*
X27691Y110893D01*
X31627Y110237D02*
X29003D01*
X31627Y112861D01*
Y113517D01*
X30971Y114173D01*
X29659D01*
X29003Y113517D01*
X32939D02*
X33595Y114173D01*
X34907D01*
X35563Y113517D01*
Y110893D01*
X34907Y110237D01*
X33595D01*
X32939Y110893D01*
Y113517D01*
X255200Y279981D02*
X254544Y280637D01*
X253232D01*
X252576Y279981D01*
Y277357D01*
X253232Y276701D01*
X254544D01*
X255200Y277357D01*
X256512Y276701D02*
X257824D01*
X257168D01*
Y280637D01*
X256512Y279981D01*
X262416Y280637D02*
X261104Y279981D01*
X259792Y278669D01*
Y277357D01*
X260448Y276701D01*
X261760D01*
X262416Y277357D01*
Y278013D01*
X261760Y278669D01*
X259792D01*
X41569Y110237D02*
Y114173D01*
X43537D01*
X44193Y113517D01*
Y112205D01*
X43537Y111549D01*
X41569D01*
X42881D02*
X44193Y110237D01*
X45505D02*
X46817D01*
X46161D01*
Y114173D01*
X45505Y113517D01*
X285777Y245960D02*
Y248584D01*
X285121Y249239D01*
X283809D01*
X283153Y248584D01*
Y245960D01*
X283809Y245304D01*
X285121D01*
X284465Y246616D02*
X285777Y245304D01*
X285121D02*
X285777Y245960D01*
X287089Y248584D02*
X287745Y249239D01*
X289057D01*
X289713Y248584D01*
Y247928D01*
X289057Y247272D01*
X288401D01*
X289057D01*
X289713Y246616D01*
Y245960D01*
X289057Y245304D01*
X287745D01*
X287089Y245960D01*
D11*
X16535Y121555D02*
G03*
X16535Y121949I0J197D01*
G01*
D02*
G03*
X16535Y121555I0J-197D01*
G01*
D12*
X139008Y253106D02*
G03*
X139008Y253106I-492J0D01*
G01*
X299409Y321850D02*
Y326770D01*
X301869D01*
X302689Y325950D01*
Y324310D01*
X301869Y323490D01*
X299409D01*
X304329Y326770D02*
Y321850D01*
X307609D01*
X312529Y325950D02*
X311709Y326770D01*
X310069D01*
X309249Y325950D01*
Y325130D01*
X310069Y324310D01*
X311709D01*
X312529Y323490D01*
Y322670D01*
X311709Y321850D01*
X310069D01*
X309249Y322670D01*
X4266Y243929D02*
X3447Y243109D01*
Y241470D01*
X4266Y240650D01*
X7546D01*
X8366Y241470D01*
Y243109D01*
X7546Y243929D01*
X5906D01*
Y242289D01*
X8366Y245569D02*
X3447D01*
X8366Y248849D01*
X3447D01*
Y250489D02*
X8366D01*
Y252949D01*
X7546Y253769D01*
X4266D01*
X3447Y252949D01*
Y250489D01*
X10433Y235432D02*
Y231332D01*
X11253Y230512D01*
X12893D01*
X13713Y231332D01*
Y235432D01*
X15353Y230512D02*
Y233792D01*
X16993Y235432D01*
X18632Y233792D01*
Y230512D01*
Y232972D01*
X15353D01*
X20272Y230512D02*
Y235432D01*
X22732D01*
X23552Y234612D01*
Y232972D01*
X22732Y232152D01*
X20272D01*
X21912D02*
X23552Y230512D01*
X25192Y235432D02*
X28472D01*
X26832D01*
Y230512D01*
X38311D02*
X35031D01*
X38311Y233792D01*
Y234612D01*
X37491Y235432D01*
X35851D01*
X35031Y234612D01*
X246784Y326770D02*
X243504D01*
Y324310D01*
X245144D01*
X243504D01*
Y321850D01*
X251703Y325950D02*
X250883Y326770D01*
X249243D01*
X248424Y325950D01*
Y325130D01*
X249243Y324310D01*
X250883D01*
X251703Y323490D01*
Y322670D01*
X250883Y321850D01*
X249243D01*
X248424Y322670D01*
X269028Y326770D02*
X265748D01*
Y324310D01*
X267388D01*
X265748D01*
Y321850D01*
X273948Y325950D02*
X273128Y326770D01*
X271488D01*
X270668Y325950D01*
Y325130D01*
X271488Y324310D01*
X273128D01*
X273948Y323490D01*
Y322670D01*
X273128Y321850D01*
X271488D01*
X270668Y322670D01*
X284973Y325950D02*
X284153Y326770D01*
X282513D01*
X281693Y325950D01*
Y322670D01*
X282513Y321850D01*
X284153D01*
X284973Y322670D01*
Y324310D01*
X283333D01*
X286613Y321850D02*
Y326770D01*
X289892Y321850D01*
Y326770D01*
X291532D02*
Y321850D01*
X293992D01*
X294812Y322670D01*
Y325950D01*
X293992Y326770D01*
X291532D01*
X3447Y272539D02*
Y275819D01*
Y274179D01*
X8366D01*
X3447Y277459D02*
X8366Y280739D01*
X3447D02*
X8366Y277459D01*
X153260Y296061D02*
X151621D01*
X152441D01*
Y291962D01*
X151621Y291142D01*
X150801D01*
X149981Y291962D01*
X158180Y291142D02*
X154900D01*
X158180Y294422D01*
Y295241D01*
X157360Y296061D01*
X155720D01*
X154900Y295241D01*
X159820Y296061D02*
Y291142D01*
X162280D01*
X163100Y291962D01*
Y295241D01*
X162280Y296061D01*
X159820D01*
X153260Y306002D02*
X151621D01*
X152441D01*
Y301903D01*
X151621Y301083D01*
X150801D01*
X149981Y301903D01*
X158180Y301083D02*
X154900D01*
X158180Y304362D01*
Y305182D01*
X157360Y306002D01*
X155720D01*
X154900Y305182D01*
X163100D02*
X162280Y306002D01*
X160640D01*
X159820Y305182D01*
Y301903D01*
X160640Y301083D01*
X162280D01*
X163100Y301903D01*
X153260Y316518D02*
X151621D01*
X152441D01*
Y312418D01*
X151621Y311598D01*
X150801D01*
X149981Y312418D01*
X158180Y311598D02*
X154900D01*
X158180Y314878D01*
Y315698D01*
X157360Y316518D01*
X155720D01*
X154900Y315698D01*
X159820Y316518D02*
Y311598D01*
X162280D01*
X163100Y312418D01*
Y313238D01*
X162280Y314058D01*
X159820D01*
X162280D01*
X163100Y314878D01*
Y315698D01*
X162280Y316518D01*
X159820D01*
X153260Y325967D02*
X151621D01*
X152441D01*
Y321867D01*
X151621Y321047D01*
X150801D01*
X149981Y321867D01*
X158180Y321047D02*
X154900D01*
X158180Y324327D01*
Y325147D01*
X157360Y325967D01*
X155720D01*
X154900Y325147D01*
X159820Y321047D02*
Y324327D01*
X161460Y325967D01*
X163100Y324327D01*
Y321047D01*
Y323507D01*
X159820D01*
X66009Y302461D02*
X66829Y301641D01*
Y300001D01*
X66009Y299181D01*
X65189D01*
X64369Y300001D01*
Y300821D01*
Y300001D01*
X63549Y299181D01*
X62729D01*
X61909Y300001D01*
Y301641D01*
X62729Y302461D01*
X66829Y297541D02*
X63549D01*
X61909Y295901D01*
X63549Y294261D01*
X66829D01*
X66206Y321425D02*
X67026Y322245D01*
Y323885D01*
X66206Y324705D01*
X62926D01*
X62106Y323885D01*
Y322245D01*
X62926Y321425D01*
X64566D01*
Y323065D01*
X62106Y319785D02*
X67026D01*
X62106Y316505D01*
X67026D01*
Y314865D02*
X62106D01*
Y312406D01*
X62926Y311586D01*
X66206D01*
X67026Y312406D01*
Y314865D01*
X31823Y117913D02*
X28543D01*
X31823Y121193D01*
Y122013D01*
X31003Y122833D01*
X29363D01*
X28543Y122013D01*
X31003Y127657D02*
Y132577D01*
X28543Y130117D01*
X31823D01*
Y142715D02*
X30183Y141895D01*
X28543Y140255D01*
Y138615D01*
X29363Y137795D01*
X31003D01*
X31823Y138615D01*
Y139435D01*
X31003Y140255D01*
X28543D01*
X24606Y158563D02*
X26246D01*
X25426D01*
Y163483D01*
X24606Y162663D01*
X28706D02*
X29526Y163483D01*
X31166D01*
X31986Y162663D01*
Y159383D01*
X31166Y158563D01*
X29526D01*
X28706Y159383D01*
Y162663D01*
X24606Y168110D02*
X26246D01*
X25426D01*
Y173030D01*
X24606Y172210D01*
X31986Y168110D02*
X28706D01*
X31986Y171390D01*
Y172210D01*
X31166Y173030D01*
X29526D01*
X28706Y172210D01*
X24606Y188189D02*
X26246D01*
X25426D01*
Y193109D01*
X24606Y192289D01*
X31986Y193109D02*
X30346Y192289D01*
X28706Y190649D01*
Y189009D01*
X29526Y188189D01*
X31166D01*
X31986Y189009D01*
Y189829D01*
X31166Y190649D01*
X28706D01*
X24606Y198622D02*
X26246D01*
X25426D01*
Y203542D01*
X24606Y202722D01*
X28706D02*
X29526Y203542D01*
X31166D01*
X31986Y202722D01*
Y201902D01*
X31166Y201082D01*
X31986Y200262D01*
Y199442D01*
X31166Y198622D01*
X29526D01*
X28706Y199442D01*
Y200262D01*
X29526Y201082D01*
X28706Y201902D01*
Y202722D01*
X29526Y201082D02*
X31166D01*
X27099Y208563D02*
X23819D01*
X27099Y211843D01*
Y212663D01*
X26279Y213483D01*
X24639D01*
X23819Y212663D01*
X28739D02*
X29559Y213483D01*
X31198D01*
X32018Y212663D01*
Y209383D01*
X31198Y208563D01*
X29559D01*
X28739Y209383D01*
Y212663D01*
X24606Y178248D02*
X26246D01*
X25426D01*
Y183168D01*
X24606Y182348D01*
X31166Y178248D02*
Y183168D01*
X28706Y180708D01*
X31986D01*
X28543Y153411D02*
X29363Y154231D01*
X31003D01*
X31823Y153411D01*
Y152591D01*
X31003Y151771D01*
X31823Y150951D01*
Y150131D01*
X31003Y149311D01*
X29363D01*
X28543Y150131D01*
Y150951D01*
X29363Y151771D01*
X28543Y152591D01*
Y153411D01*
X29363Y151771D02*
X31003D01*
X8366Y258858D02*
X3447D01*
Y261318D01*
X4266Y262138D01*
X5906D01*
X6726Y261318D01*
Y258858D01*
Y260498D02*
X8366Y262138D01*
X3447Y263778D02*
X8366Y267058D01*
X3447D02*
X8366Y263778D01*
X137402Y325950D02*
X138222Y326770D01*
X139861D01*
X140681Y325950D01*
Y325130D01*
X139861Y324310D01*
X139041D01*
X139861D01*
X140681Y323490D01*
Y322670D01*
X139861Y321850D01*
X138222D01*
X137402Y322670D01*
X125425Y321850D02*
X122146D01*
X125425Y325130D01*
Y325950D01*
X124606Y326770D01*
X122966D01*
X122146Y325950D01*
X107874Y321850D02*
X109514D01*
X108694D01*
Y326770D01*
X107874Y325950D01*
X190748Y281496D02*
Y286416D01*
X193208D01*
X194028Y285596D01*
Y283956D01*
X193208Y283136D01*
X190748D01*
X195668Y286416D02*
Y282316D01*
X196488Y281496D01*
X198127D01*
X198948Y282316D01*
Y286416D01*
X210427Y281496D02*
Y286416D01*
X212887D01*
X213706Y285596D01*
Y283956D01*
X212887Y283136D01*
X210427D01*
X212067D02*
X213706Y281496D01*
X218626Y285596D02*
X217806Y286416D01*
X216166D01*
X215346Y285596D01*
Y284776D01*
X216166Y283956D01*
X217806D01*
X218626Y283136D01*
Y282316D01*
X217806Y281496D01*
X216166D01*
X215346Y282316D01*
X18111Y150261D02*
X23031D01*
Y147801D01*
X22211Y146981D01*
X20571D01*
X19751Y147801D01*
Y150261D01*
Y148621D02*
X18111Y146981D01*
Y142882D02*
X23031D01*
X20571Y145342D01*
Y142062D01*
X8072Y150458D02*
X12991D01*
Y147998D01*
X12171Y147178D01*
X10531D01*
X9712Y147998D01*
Y150458D01*
Y148818D02*
X8072Y147178D01*
X12171Y145538D02*
X12991Y144718D01*
Y143078D01*
X12171Y142259D01*
X11351D01*
X10531Y143078D01*
Y143898D01*
Y143078D01*
X9712Y142259D01*
X8892D01*
X8072Y143078D01*
Y144718D01*
X8892Y145538D01*
X142717Y289730D02*
X147637D01*
Y287270D01*
X146817Y286450D01*
X145177D01*
X144357Y287270D01*
Y289730D01*
X142717Y282350D02*
X147637D01*
X145177Y284810D01*
Y281530D01*
X234221Y250520D02*
Y255440D01*
X236681D01*
X237501Y254620D01*
Y252980D01*
X236681Y252160D01*
X234221D01*
X235861D02*
X237501Y250520D01*
X239141Y254620D02*
X239961Y255440D01*
X241600D01*
X242421Y254620D01*
Y253800D01*
X241600Y252980D01*
X240781D01*
X241600D01*
X242421Y252160D01*
Y251340D01*
X241600Y250520D01*
X239961D01*
X239141Y251340D01*
X244060Y250520D02*
X245700D01*
X244880D01*
Y255440D01*
X244060Y254620D01*
X201674Y229297D02*
X200854Y230117D01*
X199214D01*
X198394Y229297D01*
Y226018D01*
X199214Y225198D01*
X200854D01*
X201674Y226018D01*
X203314Y225198D02*
Y230117D01*
X206594Y225198D01*
Y230117D01*
X208234Y225198D02*
X209874D01*
X209053D01*
Y230117D01*
X208234Y229297D01*
X86030Y232102D02*
Y227182D01*
X88490D01*
X89310Y228002D01*
Y231282D01*
X88490Y232102D01*
X86030D01*
X90950Y231282D02*
X91770Y232102D01*
X93410D01*
X94230Y231282D01*
Y230462D01*
X93410Y229642D01*
X92590D01*
X93410D01*
X94230Y228822D01*
Y228002D01*
X93410Y227182D01*
X91770D01*
X90950Y228002D01*
X109586Y241846D02*
Y237746D01*
X110406Y236926D01*
X112046D01*
X112866Y237746D01*
Y241846D01*
X114506Y236926D02*
X116146D01*
X115326D01*
Y241846D01*
X114506Y241026D01*
X107827Y215694D02*
Y220613D01*
X110287D01*
X111107Y219793D01*
Y218154D01*
X110287Y217334D01*
X107827D01*
X109467D02*
X111107Y215694D01*
X112747D02*
X114386D01*
X113566D01*
Y220613D01*
X112747Y219793D01*
X120126Y215694D02*
X116846D01*
X120126Y218973D01*
Y219793D01*
X119306Y220613D01*
X117666D01*
X116846Y219793D01*
X220999Y258564D02*
Y263484D01*
X223459D01*
X224278Y262664D01*
Y261024D01*
X223459Y260204D01*
X220999D01*
X222639D02*
X224278Y258564D01*
X225918Y262664D02*
X226738Y263484D01*
X228378D01*
X229198Y262664D01*
Y261844D01*
X228378Y261024D01*
X229198Y260204D01*
Y259384D01*
X228378Y258564D01*
X226738D01*
X225918Y259384D01*
Y260204D01*
X226738Y261024D01*
X225918Y261844D01*
Y262664D01*
X226738Y261024D02*
X228378D01*
X221097Y268406D02*
Y273326D01*
X223557D01*
X224377Y272506D01*
Y270866D01*
X223557Y270046D01*
X221097D01*
X222737D02*
X224377Y268406D01*
X226017Y273326D02*
X229297D01*
Y272506D01*
X226017Y269226D01*
Y268406D01*
X86424Y249424D02*
Y244505D01*
X88884D01*
X89704Y245325D01*
Y248604D01*
X88884Y249424D01*
X86424D01*
X93803Y244505D02*
Y249424D01*
X91344Y246965D01*
X94623D01*
X225066Y251640D02*
X224246Y252460D01*
X222606D01*
X221786Y251640D01*
Y248360D01*
X222606Y247540D01*
X224246D01*
X225066Y248360D01*
X229986Y252460D02*
X228346Y251640D01*
X226706Y250000D01*
Y248360D01*
X227526Y247540D01*
X229166D01*
X229986Y248360D01*
Y249180D01*
X229166Y250000D01*
X226706D01*
X168826Y251738D02*
X168006Y252558D01*
X166366D01*
X165546Y251738D01*
Y248459D01*
X166366Y247639D01*
X168006D01*
X168826Y248459D01*
X173745Y252558D02*
X170466D01*
Y250098D01*
X172106Y250918D01*
X172925D01*
X173745Y250098D01*
Y248459D01*
X172925Y247639D01*
X171286D01*
X170466Y248459D01*
X47704Y27460D02*
X46064D01*
X46884D01*
Y23360D01*
X46064Y22540D01*
X45244D01*
X44424Y23360D01*
X52623Y27460D02*
X50984Y26640D01*
X49344Y25000D01*
Y23360D01*
X50164Y22540D01*
X51803D01*
X52623Y23360D01*
Y24180D01*
X51803Y25000D01*
X49344D01*
X47721Y39435D02*
X46901Y40255D01*
X45261D01*
X44441Y39435D01*
Y36155D01*
X45261Y35335D01*
X46901D01*
X47721Y36155D01*
X49361Y35335D02*
X51000D01*
X50181D01*
Y40255D01*
X49361Y39435D01*
X53460D02*
X54280Y40255D01*
X55920D01*
X56740Y39435D01*
Y38615D01*
X55920Y37795D01*
X55100D01*
X55920D01*
X56740Y36975D01*
Y36155D01*
X55920Y35335D01*
X54280D01*
X53460Y36155D01*
X70162Y212270D02*
X69342Y213090D01*
X67702D01*
X66882Y212270D01*
Y208990D01*
X67702Y208170D01*
X69342D01*
X70162Y208990D01*
X71802Y208170D02*
X73441D01*
X72622D01*
Y213090D01*
X71802Y212270D01*
X75901D02*
X76721Y213090D01*
X78361D01*
X79181Y212270D01*
Y211450D01*
X78361Y210630D01*
X79181Y209810D01*
Y208990D01*
X78361Y208170D01*
X76721D01*
X75901Y208990D01*
Y209810D01*
X76721Y210630D01*
X75901Y211450D01*
Y212270D01*
X76721Y210630D02*
X78361D01*
X198886Y152526D02*
X198066Y153346D01*
X196426D01*
X195606Y152526D01*
Y149246D01*
X196426Y148426D01*
X198066D01*
X198886Y149246D01*
X200525Y148426D02*
Y153346D01*
X203805Y148426D01*
Y153346D01*
X208725Y148426D02*
X205445D01*
X208725Y151706D01*
Y152526D01*
X207905Y153346D01*
X206265D01*
X205445Y152526D01*
X288190Y144750D02*
X287370Y145570D01*
X285730D01*
X284910Y144750D01*
Y141470D01*
X285730Y140650D01*
X287370D01*
X288190Y141470D01*
X293109Y140650D02*
X289830D01*
X293109Y143930D01*
Y144750D01*
X292289Y145570D01*
X290650D01*
X289830Y144750D01*
X294749Y140650D02*
X296389D01*
X295569D01*
Y145570D01*
X294749Y144750D01*
X243932Y284548D02*
Y289468D01*
X246392D01*
X247212Y288648D01*
Y287008D01*
X246392Y286188D01*
X243932D01*
X252131Y284548D02*
X248851D01*
X252131Y287828D01*
Y288648D01*
X251311Y289468D01*
X249671D01*
X248851Y288648D01*
X305283Y284647D02*
Y289566D01*
X307743D01*
X308563Y288746D01*
Y287106D01*
X307743Y286286D01*
X305283D01*
X310203Y284647D02*
X311843D01*
X311023D01*
Y289566D01*
X310203Y288746D01*
X80004Y105872D02*
X79184Y106692D01*
X77544D01*
X76724Y105872D01*
Y102592D01*
X77544Y101772D01*
X79184D01*
X80004Y102592D01*
X81644Y101772D02*
X83284D01*
X82464D01*
Y106692D01*
X81644Y105872D01*
X85744Y106692D02*
X89024D01*
Y105872D01*
X85744Y102592D01*
Y101772D01*
X287780Y154593D02*
X286960Y155413D01*
X285320D01*
X284500Y154593D01*
Y151313D01*
X285320Y150493D01*
X286960D01*
X287780Y151313D01*
X289420Y150493D02*
X291060D01*
X290240D01*
Y155413D01*
X289420Y154593D01*
X296799Y155413D02*
X293519D01*
Y152953D01*
X295159Y153773D01*
X295979D01*
X296799Y152953D01*
Y151313D01*
X295979Y150493D01*
X294339D01*
X293519Y151313D01*
X14158Y87073D02*
X13338Y87893D01*
X11698D01*
X10878Y87073D01*
Y83793D01*
X11698Y82973D01*
X13338D01*
X14158Y83793D01*
X15798Y82973D02*
X17437D01*
X16618D01*
Y87893D01*
X15798Y87073D01*
X22357Y82973D02*
Y87893D01*
X19897Y85433D01*
X23177D01*
X150887Y285087D02*
X155806D01*
Y282627D01*
X154986Y281807D01*
X153347D01*
X152526Y282627D01*
Y285087D01*
Y283447D02*
X150887Y281807D01*
Y280167D02*
Y278527D01*
Y279347D01*
X155806D01*
X154986Y280167D01*
Y276067D02*
X155806Y275247D01*
Y273607D01*
X154986Y272787D01*
X154166D01*
X153347Y273607D01*
Y274427D01*
Y273607D01*
X152526Y272787D01*
X151707D01*
X150887Y273607D01*
Y275247D01*
X151707Y276067D01*
X72736Y290452D02*
X71096D01*
X71916D01*
Y286352D01*
X71096Y285532D01*
X70276D01*
X69456Y286352D01*
X74376Y285532D02*
X76016D01*
X75196D01*
Y290452D01*
X74376Y289632D01*
X359197Y22368D02*
X357557D01*
X358377D01*
Y18269D01*
X357557Y17449D01*
X356737D01*
X355917Y18269D01*
X363297Y17449D02*
Y22368D01*
X360837Y19908D01*
X364117D01*
X280117Y275724D02*
X275198D01*
Y278184D01*
X276018Y279004D01*
X277658D01*
X278477Y278184D01*
Y275724D01*
Y277364D02*
X280117Y279004D01*
Y283923D02*
Y280644D01*
X276837Y283923D01*
X276018D01*
X275198Y283103D01*
Y281464D01*
X276018Y280644D01*
Y285563D02*
X275198Y286383D01*
Y288023D01*
X276018Y288843D01*
X276837D01*
X277658Y288023D01*
X278477Y288843D01*
X279297D01*
X280117Y288023D01*
Y286383D01*
X279297Y285563D01*
X278477D01*
X277658Y286383D01*
X276837Y285563D01*
X276018D01*
X277658Y286383D02*
Y288023D01*
X335862Y321261D02*
Y326180D01*
X338321D01*
X339142Y325360D01*
Y323721D01*
X338321Y322901D01*
X335862D01*
X337502D02*
X339142Y321261D01*
X344061D02*
X340781D01*
X344061Y324540D01*
Y325360D01*
X343241Y326180D01*
X341601D01*
X340781Y325360D01*
X348981Y326180D02*
X347341Y325360D01*
X345701Y323721D01*
Y322081D01*
X346521Y321261D01*
X348161D01*
X348981Y322081D01*
Y322901D01*
X348161Y323721D01*
X345701D01*
X271373Y275850D02*
X266454D01*
Y278310D01*
X267273Y279130D01*
X268913D01*
X269733Y278310D01*
Y275850D01*
Y277490D02*
X271373Y279130D01*
Y284049D02*
Y280770D01*
X268093Y284049D01*
X267273D01*
X266454Y283229D01*
Y281590D01*
X267273Y280770D01*
X270553Y285689D02*
X271373Y286509D01*
Y288149D01*
X270553Y288969D01*
X267273D01*
X266454Y288149D01*
Y286509D01*
X267273Y285689D01*
X268093D01*
X268913Y286509D01*
Y288969D01*
X290074Y275850D02*
X285154D01*
Y278310D01*
X285974Y279130D01*
X287614D01*
X288434Y278310D01*
Y275850D01*
Y277490D02*
X290074Y279130D01*
Y284049D02*
Y280770D01*
X286794Y284049D01*
X285974D01*
X285154Y283229D01*
Y281590D01*
X285974Y280770D01*
X285154Y285689D02*
Y288969D01*
X285974D01*
X289254Y285689D01*
X290074D01*
X248066Y233170D02*
Y238090D01*
X250526D01*
X251346Y237270D01*
Y235630D01*
X250526Y234810D01*
X248066D01*
X249706D02*
X251346Y233170D01*
X252986Y237270D02*
X253806Y238090D01*
X255446D01*
X256266Y237270D01*
Y236450D01*
X255446Y235630D01*
X254626D01*
X255446D01*
X256266Y234810D01*
Y233990D01*
X255446Y233170D01*
X253806D01*
X252986Y233990D01*
X257906Y237270D02*
X258726Y238090D01*
X260366D01*
X261186Y237270D01*
Y233990D01*
X260366Y233170D01*
X258726D01*
X257906Y233990D01*
Y237270D01*
X299688Y249175D02*
Y252455D01*
X298868Y253275D01*
X297228D01*
X296408Y252455D01*
Y249175D01*
X297228Y248355D01*
X298868D01*
X298048Y249995D02*
X299688Y248355D01*
X298868D02*
X299688Y249175D01*
X304608Y248355D02*
X301328D01*
X304608Y251635D01*
Y252455D01*
X303788Y253275D01*
X302148D01*
X301328Y252455D01*
X324311Y326672D02*
X321031D01*
Y324213D01*
X322671D01*
X321031D01*
Y321753D01*
X325951D02*
X327591D01*
X326771D01*
Y326672D01*
X325951Y325852D01*
X336648Y289566D02*
Y284647D01*
X339108D01*
X339928Y285466D01*
Y288746D01*
X339108Y289566D01*
X336648D01*
X341568D02*
X344848D01*
Y288746D01*
X341568Y285466D01*
Y284647D01*
X315010Y252881D02*
Y247961D01*
X317470D01*
X318290Y248781D01*
Y252061D01*
X317470Y252881D01*
X315010D01*
X323210D02*
X321570Y252061D01*
X319930Y250421D01*
Y248781D01*
X320750Y247961D01*
X322390D01*
X323210Y248781D01*
Y249601D01*
X322390Y250421D01*
X319930D01*
X239026Y278964D02*
Y274044D01*
X241486D01*
X242306Y274864D01*
Y278144D01*
X241486Y278964D01*
X239026D01*
X247226D02*
X243946D01*
Y276504D01*
X245586Y277324D01*
X246406D01*
X247226Y276504D01*
Y274864D01*
X246406Y274044D01*
X244766D01*
X243946Y274864D01*
X171359Y285087D02*
X176279D01*
Y282627D01*
X175459Y281807D01*
X173819D01*
X172999Y282627D01*
Y285087D01*
Y283447D02*
X171359Y281807D01*
Y280167D02*
Y278527D01*
Y279347D01*
X176279D01*
X175459Y280167D01*
X176279Y272787D02*
Y276067D01*
X173819D01*
X174639Y274427D01*
Y273607D01*
X173819Y272787D01*
X172179D01*
X171359Y273607D01*
Y275247D01*
X172179Y276067D01*
X160729Y285087D02*
X165649D01*
Y282627D01*
X164829Y281807D01*
X163189D01*
X162369Y282627D01*
Y285087D01*
Y283447D02*
X160729Y281807D01*
Y280167D02*
Y278527D01*
Y279347D01*
X165649D01*
X164829Y280167D01*
X160729Y273607D02*
X165649D01*
X163189Y276067D01*
Y272787D01*
X132725Y286113D02*
X137645D01*
Y283653D01*
X136825Y282833D01*
X135185D01*
X134365Y283653D01*
Y286113D01*
Y284473D02*
X132725Y282833D01*
Y281193D02*
Y279554D01*
Y280374D01*
X137645D01*
X136825Y281193D01*
X132725Y277094D02*
Y275454D01*
Y276274D01*
X137645D01*
X136825Y277094D01*
X112080Y287563D02*
X116999D01*
Y285103D01*
X116179Y284283D01*
X114539D01*
X113719Y285103D01*
Y287563D01*
Y285923D02*
X112080Y284283D01*
Y282643D02*
Y281003D01*
Y281823D01*
X116999D01*
X116179Y282643D01*
Y278544D02*
X116999Y277724D01*
Y276084D01*
X116179Y275264D01*
X112899D01*
X112080Y276084D01*
Y277724D01*
X112899Y278544D01*
X116179D01*
X102706Y283997D02*
X107625D01*
Y281538D01*
X106805Y280718D01*
X105165D01*
X104345Y281538D01*
Y283997D01*
Y282358D02*
X102706Y280718D01*
X103525Y279078D02*
X102706Y278258D01*
Y276618D01*
X103525Y275798D01*
X106805D01*
X107625Y276618D01*
Y278258D01*
X106805Y279078D01*
X105985D01*
X105165Y278258D01*
Y275798D01*
X77160Y110835D02*
Y115755D01*
X79620D01*
X80440Y114935D01*
Y113295D01*
X79620Y112475D01*
X77160D01*
X78800D02*
X80440Y110835D01*
X85360Y115755D02*
X83720Y114935D01*
X82080Y113295D01*
Y111655D01*
X82900Y110835D01*
X84540D01*
X85360Y111655D01*
Y112475D01*
X84540Y113295D01*
X82080D01*
X76692Y120572D02*
Y125491D01*
X79151D01*
X79971Y124671D01*
Y123031D01*
X79151Y122212D01*
X76692D01*
X78332D02*
X79971Y120572D01*
X84891Y125491D02*
X81611D01*
Y123031D01*
X83251Y123851D01*
X84071D01*
X84891Y123031D01*
Y121392D01*
X84071Y120572D01*
X82431D01*
X81611Y121392D01*
X84877Y290058D02*
Y285139D01*
X87336D01*
X88156Y285959D01*
Y289238D01*
X87336Y290058D01*
X84877D01*
X93076Y285139D02*
X89796D01*
X93076Y288418D01*
Y289238D01*
X92256Y290058D01*
X90616D01*
X89796Y289238D01*
X92980Y328149D02*
Y323229D01*
X95440D01*
X96260Y324049D01*
Y327329D01*
X95440Y328149D01*
X92980D01*
X97900Y323229D02*
X99540D01*
X98720D01*
Y328149D01*
X97900Y327329D01*
X47605Y14665D02*
X45965D01*
X46785D01*
Y10565D01*
X45965Y9745D01*
X45145D01*
X44326Y10565D01*
X49245Y13845D02*
X50065Y14665D01*
X51705D01*
X52525Y13845D01*
Y13025D01*
X51705Y12205D01*
X50885D01*
X51705D01*
X52525Y11385D01*
Y10565D01*
X51705Y9745D01*
X50065D01*
X49245Y10565D01*
X80004Y131758D02*
X79184Y132578D01*
X77544D01*
X76724Y131758D01*
Y128478D01*
X77544Y127658D01*
X79184D01*
X80004Y128478D01*
X81644Y127658D02*
X83284D01*
X82464D01*
Y132578D01*
X81644Y131758D01*
X89024Y127658D02*
X85744D01*
X89024Y130938D01*
Y131758D01*
X88204Y132578D01*
X86564D01*
X85744Y131758D01*
X184514Y277887D02*
X185334Y278707D01*
Y280347D01*
X184514Y281167D01*
X181234D01*
X180414Y280347D01*
Y278707D01*
X181234Y277887D01*
X184514Y276247D02*
X185334Y275427D01*
Y273787D01*
X184514Y272967D01*
X183694D01*
X182874Y273787D01*
X182054Y272967D01*
X181234D01*
X180414Y273787D01*
Y275427D01*
X181234Y276247D01*
X182054D01*
X182874Y275427D01*
X183694Y276247D01*
X184514D01*
X182874Y275427D02*
Y273787D01*
X125408Y283473D02*
X126228Y284293D01*
Y285933D01*
X125408Y286753D01*
X122128D01*
X121308Y285933D01*
Y284293D01*
X122128Y283473D01*
X126228Y281834D02*
Y278554D01*
X125408D01*
X122128Y281834D01*
X121308D01*
X34515Y97408D02*
X33695Y98228D01*
X32055D01*
X31235Y97408D01*
Y94128D01*
X32055Y93308D01*
X33695D01*
X34515Y94128D01*
X38614Y93308D02*
Y98228D01*
X36155Y95768D01*
X39434D01*
X15125Y77919D02*
X14305Y78739D01*
X12665D01*
X11845Y77919D01*
Y74640D01*
X12665Y73820D01*
X14305D01*
X15125Y74640D01*
X16765Y77919D02*
X17585Y78739D01*
X19225D01*
X20045Y77919D01*
Y77100D01*
X19225Y76279D01*
X18405D01*
X19225D01*
X20045Y75460D01*
Y74640D01*
X19225Y73820D01*
X17585D01*
X16765Y74640D01*
X72212Y80971D02*
X71392Y81791D01*
X69752D01*
X68932Y80971D01*
Y77691D01*
X69752Y76871D01*
X71392D01*
X72212Y77691D01*
X77131Y76871D02*
X73851D01*
X77131Y80151D01*
Y80971D01*
X76311Y81791D01*
X74671D01*
X73851Y80971D01*
X62598D02*
X61778Y81791D01*
X60139D01*
X59319Y80971D01*
Y77691D01*
X60139Y76871D01*
X61778D01*
X62598Y77691D01*
X64238Y76871D02*
X65878D01*
X65058D01*
Y81791D01*
X64238Y80971D01*
D13*
X211713Y293504D02*
G03*
X211713Y293504I-530J0D01*
G01*
X217618D02*
G03*
X217618Y293504I-530J0D01*
G01*
X211811Y314173D02*
G03*
X211811Y314173I-530J0D01*
G01*
X217717D02*
G03*
X217717Y314173I-530J0D01*
G01*
X199743Y313632D02*
G03*
X199743Y313632I-530J0D01*
G01*
Y323967D02*
G03*
X199743Y323967I-530J0D01*
G01*
X193837Y303789D02*
G03*
X193837Y303789I-530J0D01*
G01*
X199743D02*
G03*
X199743Y303789I-530J0D01*
G01*
X193837Y313632D02*
G03*
X193837Y313632I-530J0D01*
G01*
Y323967D02*
G03*
X193837Y323967I-530J0D01*
G01*
D14*
X121307Y274272D02*
X129772D01*
X121307Y259114D02*
Y274272D01*
X129772Y259114D02*
Y274272D01*
X121307Y259114D02*
X129772D01*
X283799Y259437D02*
Y274201D01*
Y259437D02*
X291870D01*
X283799Y274201D02*
X291870D01*
Y259437D02*
Y274201D01*
X281870Y259480D02*
Y274244D01*
X273799D02*
X281870D01*
X273799Y259480D02*
X281870D01*
X273799D02*
Y274244D01*
X272370Y259437D02*
Y274201D01*
X264299D02*
X272370D01*
X264299Y259437D02*
X272370D01*
X264299D02*
Y274201D01*
X253602Y259240D02*
X262067D01*
Y274398D01*
X253602Y259240D02*
Y274398D01*
X262067D01*
X60728Y34252D02*
Y42717D01*
Y34252D02*
X75886D01*
X60728Y42717D02*
X75886D01*
Y34252D02*
Y42717D01*
X60130Y127854D02*
Y136319D01*
Y127854D02*
X75287D01*
X60130Y136319D02*
X75287D01*
Y127854D02*
Y136319D01*
X60130Y109350D02*
X74894D01*
Y117421D01*
X60130Y109350D02*
Y117421D01*
X74894D01*
X60130Y126969D02*
X74894D01*
X60130Y118898D02*
Y126969D01*
X74894Y118898D02*
Y126969D01*
X60130Y118898D02*
X74894D01*
X247252Y248650D02*
X262016D01*
Y256720D01*
X247252Y248650D02*
Y256720D01*
X262016D01*
X7669Y100984D02*
Y109449D01*
Y100984D02*
X22827D01*
X7669Y109449D02*
X22827D01*
Y100984D02*
Y109449D01*
X24902Y72713D02*
Y81177D01*
Y72713D02*
X40059D01*
X24902Y81177D02*
X40059D01*
Y72713D02*
Y81177D01*
X56398Y91437D02*
Y99902D01*
X41240D02*
X56398D01*
X41240Y91437D02*
X56398D01*
X41240D02*
Y99902D01*
X24902Y100492D02*
Y108957D01*
Y100492D02*
X40059D01*
X24902Y108957D02*
X40059D01*
Y100492D02*
Y108957D01*
X40157Y81988D02*
Y90453D01*
X25000D02*
X40157D01*
X25000Y81988D02*
X40157D01*
X25000D02*
Y90453D01*
X14764Y125500D02*
Y140264D01*
X6693D02*
X14764D01*
X6693Y125500D02*
X14764D01*
X6693D02*
Y140264D01*
X16339Y125492D02*
Y140256D01*
Y125492D02*
X24409D01*
X16339Y140256D02*
X24409D01*
Y125492D02*
Y140256D01*
X41339Y100886D02*
X56102D01*
Y108957D01*
X41339Y100886D02*
Y108957D01*
X56102D01*
X58858Y83768D02*
X67323D01*
Y98925D01*
X58858Y83768D02*
Y98925D01*
X67323D01*
X68209Y99016D02*
X76673D01*
X68209Y83858D02*
Y99016D01*
X76673Y83858D02*
Y99016D01*
X68209Y83858D02*
X76673D01*
X60130Y100394D02*
Y108858D01*
Y100394D02*
X75287D01*
X60130Y108858D02*
X75287D01*
Y100394D02*
Y108858D01*
X55512Y214370D02*
X63976D01*
X55512Y199213D02*
Y214370D01*
X63976Y199213D02*
Y214370D01*
X55512Y199213D02*
X63976D01*
X109575Y259118D02*
Y273882D01*
X101504D02*
X109575D01*
X101504Y259118D02*
X109575D01*
X101504D02*
Y273882D01*
X118575Y259071D02*
Y273835D01*
X110504D02*
X118575D01*
X110504Y259071D02*
X118575D01*
X110504D02*
Y273835D01*
X121815Y223933D02*
X136579D01*
X121815Y215862D02*
Y223933D01*
X136579Y215862D02*
Y223933D01*
X121815Y215862D02*
X136579D01*
X148516Y246161D02*
Y254626D01*
Y246161D02*
X163673D01*
X148516Y254626D02*
X163673D01*
Y246161D02*
Y254626D01*
X159150Y256618D02*
Y271382D01*
Y256618D02*
X167220D01*
X159150Y271382D02*
X167220D01*
Y256618D02*
Y271382D01*
X157220Y256618D02*
Y271382D01*
X149150D02*
X157220D01*
X149150Y256618D02*
X157220D01*
X149150D02*
Y271382D01*
X169150Y256618D02*
Y271382D01*
Y256618D02*
X177220D01*
X169150Y271382D02*
X177220D01*
Y256618D02*
Y271382D01*
X220083Y246354D02*
Y254819D01*
X204925D02*
X220083D01*
X204925Y246354D02*
X220083D01*
X204925D02*
Y254819D01*
X204713Y257205D02*
X219476D01*
Y265276D01*
X204713Y257205D02*
Y265276D01*
X219476D01*
X178453Y256421D02*
X186917D01*
Y271579D01*
X178453Y256421D02*
Y271579D01*
X186917D01*
X130504Y259161D02*
Y273925D01*
Y259161D02*
X138575D01*
X130504Y273925D02*
X138575D01*
Y259161D02*
Y273925D01*
X204626Y266634D02*
X219390D01*
Y274705D01*
X204626Y266634D02*
Y274705D01*
X219390D01*
X247252Y247961D02*
X262016D01*
X247252Y239890D02*
Y247961D01*
X262016Y239890D02*
Y247961D01*
X247252Y239890D02*
X262016D01*
X267823Y138779D02*
Y147244D01*
Y138779D02*
X282980D01*
X267823Y147244D02*
X282980D01*
Y138779D02*
Y147244D01*
Y148425D02*
Y156890D01*
X267823D02*
X282980D01*
X267823Y148425D02*
X282980D01*
X267823D02*
Y156890D01*
X337610Y318898D02*
X352374D01*
X337610Y310827D02*
Y318898D01*
X352374Y310827D02*
Y318898D01*
X337610Y310827D02*
X352374D01*
D15*
X295866Y265551D02*
Y268996D01*
X298622D01*
X304528D02*
X307283D01*
X276689Y245500D02*
Y248256D01*
X272358Y256917D02*
X276689D01*
Y254161D02*
Y256917D01*
D16*
X307283Y265551D02*
Y268996D01*
X83273Y319613D02*
X86773D01*
X95073Y316113D02*
Y319613D01*
X91573D02*
X95073D01*
X83273Y318213D02*
Y319613D01*
Y316113D02*
Y318213D01*
X95064Y297497D02*
Y299597D01*
Y296097D02*
Y297497D01*
X83264Y296097D02*
X86764D01*
X83264D02*
Y299597D01*
X91564Y296097D02*
X95064D01*
X110069Y227178D02*
Y229278D01*
Y225778D02*
Y227178D01*
X98269Y225778D02*
X101769D01*
X98269D02*
Y229278D01*
X106569Y225778D02*
X110069D01*
Y245678D02*
Y247778D01*
Y244278D02*
Y245678D01*
X98269Y244278D02*
X101769D01*
X98269D02*
Y247778D01*
X106569Y244278D02*
X110069D01*
X272358Y245500D02*
X276689D01*
X244435Y272319D02*
X246535D01*
X247935D01*
Y260519D02*
Y264019D01*
X244435Y260519D02*
X247935D01*
Y268819D02*
Y272319D01*
X311832Y268277D02*
X315332D01*
X323632Y264777D02*
Y268277D01*
X320132D02*
X323632D01*
X311832Y266877D02*
Y268277D01*
Y264777D02*
Y266877D01*
D17*
X323492Y309862D02*
X331492D01*
X323492Y319862D02*
X331492D01*
D18*
X351573Y256352D02*
X347638D01*
Y253400D01*
X349606D01*
X347638D01*
Y250448D01*
X353541D02*
Y256352D01*
X355509Y254384D01*
X357477Y256352D01*
Y250448D01*
X363381Y255368D02*
X362397Y256352D01*
X360429D01*
X359445Y255368D01*
Y251432D01*
X360429Y250448D01*
X362397D01*
X363381Y251432D01*
X365349Y253400D02*
X369284D01*
X371252Y255368D02*
X372236Y256352D01*
X374204D01*
X375188Y255368D01*
Y254384D01*
X374204Y253400D01*
X373220D01*
X374204D01*
X375188Y252416D01*
Y251432D01*
X374204Y250448D01*
X372236D01*
X371252Y251432D01*
X381091Y250448D02*
X377156D01*
X381091Y254384D01*
Y255368D01*
X380108Y256352D01*
X378140D01*
X377156Y255368D01*
X383059D02*
X384043Y256352D01*
X386011D01*
X386995Y255368D01*
Y251432D01*
X386011Y250448D01*
X384043D01*
X383059Y251432D01*
Y255368D01*
X388963Y256352D02*
Y251432D01*
X389947Y250448D01*
X391915D01*
X392899Y251432D01*
Y256352D01*
X394867Y253400D02*
X398802D01*
X400770Y250448D02*
Y254384D01*
X402738Y256352D01*
X404706Y254384D01*
Y250448D01*
Y253400D01*
X400770D01*
X410609Y250448D02*
X406674D01*
X410609Y254384D01*
Y255368D01*
X409626Y256352D01*
X407658D01*
X406674Y255368D01*
X347638Y246433D02*
Y242497D01*
X349606Y240529D01*
X351573Y242497D01*
Y246433D01*
X353541Y240529D02*
X355509D01*
X354525D01*
Y246433D01*
X353541Y245449D01*
X358461Y240529D02*
Y246433D01*
X361413D01*
X362397Y245449D01*
Y243481D01*
X361413Y242497D01*
X358461D01*
X360429D02*
X362397Y240529D01*
X368300D02*
X364365D01*
X368300Y244465D01*
Y245449D01*
X367317Y246433D01*
X365349D01*
X364365Y245449D01*
X370268Y240529D02*
Y246433D01*
X373220D01*
X374204Y245449D01*
Y243481D01*
X373220Y242497D01*
X370268D01*
X372236D02*
X374204Y240529D01*
X376172D02*
X378140D01*
X377156D01*
Y246433D01*
X376172Y245449D01*
X347638Y236514D02*
Y230610D01*
X351573D01*
X356493Y236514D02*
X354525D01*
X353541Y235530D01*
Y231594D01*
X354525Y230610D01*
X356493D01*
X357477Y231594D01*
Y235530D01*
X356493Y236514D01*
X359445D02*
X363381D01*
X361413D01*
Y230610D01*
X369284Y236514D02*
X365349D01*
Y230610D01*
X369284D01*
X365349Y233562D02*
X367317D01*
X381091Y230610D02*
X377156D01*
X381091Y234546D01*
Y235530D01*
X380108Y236514D01*
X378140D01*
X377156Y235530D01*
X386011Y230610D02*
Y236514D01*
X383059Y233562D01*
X386995D01*
X388963Y230610D02*
X390931D01*
X389947D01*
Y236514D01*
X388963Y235530D01*
X393883D02*
X394867Y236514D01*
X396834D01*
X397818Y235530D01*
Y231594D01*
X396834Y230610D01*
X394867D01*
X393883Y231594D01*
Y235530D01*
X403722Y230610D02*
X399786D01*
X403722Y234546D01*
Y235530D01*
X402738Y236514D01*
X400770D01*
X399786Y235530D01*
X409626Y230610D02*
X405690D01*
X409626Y234546D01*
Y235530D01*
X408642Y236514D01*
X406674D01*
X405690Y235530D01*
D19*
X260350Y153538D02*
X261350Y154537D01*
X263349D01*
X264349Y153538D01*
Y152538D01*
X263349Y151538D01*
X262350D01*
X263349D01*
X264349Y150539D01*
Y149539D01*
X263349Y148539D01*
X261350D01*
X260350Y149539D01*
X261433Y174616D02*
X265432D01*
Y173617D01*
X261433Y169618D01*
Y168618D01*
X261827Y138402D02*
X263826D01*
X262826D01*
Y144400D01*
X261827Y143400D01*
X260744Y179362D02*
X261744Y178362D01*
X263743D01*
X264743Y179362D01*
Y183361D01*
X263743Y184360D01*
X261744D01*
X260744Y183361D01*
Y182361D01*
X261744Y181361D01*
X264743D01*
X264841Y164085D02*
X260842D01*
Y161086D01*
X262842Y162085D01*
X263842D01*
X264841Y161086D01*
Y159086D01*
X263842Y158087D01*
X261842D01*
X260842Y159086D01*
X42246Y278103D02*
Y284101D01*
X45245D01*
X46244Y283102D01*
Y281102D01*
X45245Y280103D01*
X42246D01*
X48244Y283102D02*
X49244Y284101D01*
X51243D01*
X52242Y283102D01*
Y282102D01*
X51243Y281102D01*
X50243D01*
X51243D01*
X52242Y280103D01*
Y279103D01*
X51243Y278103D01*
X49244D01*
X48244Y279103D01*
X13961Y98358D02*
X12961Y99357D01*
X10962D01*
X9962Y98358D01*
Y94359D01*
X10962Y93359D01*
X12961D01*
X13961Y94359D01*
X15960D02*
X16960Y93359D01*
X18959D01*
X19959Y94359D01*
Y98358D01*
X18959Y99357D01*
X16960D01*
X15960Y98358D01*
Y97358D01*
X16960Y96358D01*
X19959D01*
X330305Y18157D02*
Y12158D01*
X333304D01*
X334304Y13158D01*
Y14158D01*
X333304Y15157D01*
X330305D01*
X333304D01*
X334304Y16157D01*
Y17157D01*
X333304Y18157D01*
X330305D01*
X336303D02*
Y12158D01*
Y15157D01*
X340302D01*
Y18157D01*
Y12158D01*
X342302D02*
X344301D01*
X343301D01*
Y18157D01*
X342302Y17157D01*
M02*
