G04*
G04 #@! TF.GenerationSoftware,Altium Limited,Altium Designer,21.4.1 (30)*
G04*
G04 Layer_Color=0*
%FSLAX25Y25*%
%MOIN*%
G70*
G04*
G04 #@! TF.SameCoordinates,91A49538-2058-48ED-BDE1-B27ADC330D34*
G04*
G04*
G04 #@! TF.FilePolarity,Positive*
G04*
G01*
G75*
%ADD10C,0.00787*%
%ADD11C,0.00394*%
D10*
X41339Y165354D02*
X43307D01*
X45276D01*
X43307D02*
Y167323D01*
Y163386D02*
Y165354D01*
X246063Y161417D02*
X248031D01*
X250000D01*
X248031Y159449D02*
Y161417D01*
Y163386D01*
D11*
X53543Y115354D02*
Y215354D01*
X33071Y115354D02*
Y215354D01*
Y115354D02*
X53543D01*
X33071Y215354D02*
X53543D01*
X238091Y135925D02*
Y186909D01*
Y135925D02*
X257972D01*
X238091Y186909D02*
X257972D01*
Y135925D02*
Y186909D01*
X37631Y121688D02*
X37303Y121360D01*
Y120704D01*
X37631Y120376D01*
X38943D01*
X39271Y120704D01*
Y121360D01*
X38943Y121688D01*
X39271Y122344D02*
X37303D01*
X39271Y123655D01*
X37303D01*
Y125623D02*
X37631Y124967D01*
X38287Y124311D01*
X38943D01*
X39271Y124639D01*
Y125295D01*
X38943Y125623D01*
X38615D01*
X38287Y125295D01*
Y124311D01*
X242061Y182152D02*
X241733Y182480D01*
Y183136D01*
X242061Y183464D01*
X243373D01*
X243701Y183136D01*
Y182480D01*
X243373Y182152D01*
X243701Y181497D02*
X241733D01*
X243701Y180185D01*
X241733D01*
X242061Y179529D02*
X241733Y179201D01*
Y178545D01*
X242061Y178217D01*
X242389D01*
X242717Y178545D01*
X243045Y178217D01*
X243373D01*
X243701Y178545D01*
Y179201D01*
X243373Y179529D01*
X243045D01*
X242717Y179201D01*
X242389Y179529D01*
X242061D01*
X242717Y179201D02*
Y178545D01*
M02*
