G04*
G04 #@! TF.GenerationSoftware,Altium Limited,Altium Designer,21.4.1 (30)*
G04*
G04 Layer_Color=16711935*
%FSLAX25Y25*%
%MOIN*%
G70*
G04*
G04 #@! TF.SameCoordinates,64B9E5F6-B95A-4245-B4AC-9C5B3A661B38*
G04*
G04*
G04 #@! TF.FilePolarity,Positive*
G04*
G01*
G75*
%ADD14C,0.00394*%
%ADD15C,0.00197*%
%ADD44C,0.00158*%
D14*
X79669Y-97500D02*
X83606D01*
X81638Y-99468D02*
Y-95531D01*
X-3000Y-96028D02*
Y-92484D01*
X-4772Y-94256D02*
X-1228D01*
X4000Y-95772D02*
Y-92228D01*
X2228Y-94000D02*
X5772D01*
X-12128Y134700D02*
X-8584D01*
X-10356Y132928D02*
Y136472D01*
X15228Y135000D02*
X18772D01*
X17000Y133228D02*
Y136772D01*
X79472Y-90500D02*
X83016D01*
X81244Y-92272D02*
Y-88728D01*
X-77000Y-99106D02*
Y-95169D01*
X-78969Y-97138D02*
X-75032D01*
X81500Y-85272D02*
Y-81728D01*
X79728Y-83500D02*
X83272D01*
X37500Y126631D02*
Y130569D01*
X35531Y128600D02*
X39469D01*
X81638Y-77469D02*
Y-73532D01*
X79669Y-75500D02*
X83606D01*
X-38000Y124031D02*
Y127969D01*
X-39968Y126000D02*
X-36031D01*
D15*
X75831Y-100551D02*
X87347D01*
X75831D02*
Y-94547D01*
X87347D01*
Y-100551D02*
Y-94547D01*
X-244Y-99768D02*
Y-88744D01*
X-5756Y-99768D02*
X-244D01*
X-5756D02*
Y-88744D01*
X-244D01*
X6756Y-99512D02*
Y-88488D01*
X1244Y-99512D02*
X6756D01*
X1244D02*
Y-88488D01*
X6756D01*
X-15868Y137456D02*
X-4844D01*
Y131944D02*
Y137456D01*
X-15868Y131944D02*
X-4844D01*
X-15868D02*
Y137456D01*
X11488Y137756D02*
X22512D01*
Y132244D02*
Y137756D01*
X11488Y132244D02*
X22512D01*
X11488D02*
Y137756D01*
X75732Y-93256D02*
X86756D01*
X75732D02*
Y-87744D01*
X86756D01*
Y-93256D02*
Y-87744D01*
X-80051Y-102847D02*
Y-91331D01*
X-74047D01*
Y-102847D02*
Y-91331D01*
X-80051Y-102847D02*
X-74047D01*
X87012Y-86256D02*
Y-80744D01*
X75988D02*
X87012D01*
X75988Y-86256D02*
Y-80744D01*
Y-86256D02*
X87012D01*
X31791Y125647D02*
Y131651D01*
Y125647D02*
X43307D01*
Y131651D01*
X31791D02*
X43307D01*
X87347Y-78551D02*
Y-72547D01*
X75831D02*
X87347D01*
X75831Y-78551D02*
Y-72547D01*
Y-78551D02*
X87347D01*
X-32291Y122949D02*
Y128953D01*
X-43807D02*
X-32291D01*
X-43807Y122949D02*
Y128953D01*
Y122949D02*
X-32291D01*
D44*
X86172Y-95951D02*
X86303Y-96083D01*
X86566D01*
X86697Y-95951D01*
Y-95426D01*
X86566Y-95295D01*
X86303D01*
X86172Y-95426D01*
X85910Y-96083D02*
X85385D01*
Y-95951D01*
X85910Y-95426D01*
Y-95295D01*
X-5008Y-89394D02*
X-4221D01*
Y-89787D01*
X-4352Y-89919D01*
X-4614D01*
X-4746Y-89787D01*
Y-89394D01*
Y-89656D02*
X-5008Y-89919D01*
Y-90181D02*
Y-90443D01*
Y-90312D01*
X-4221D01*
X-4352Y-90181D01*
X1992Y-89138D02*
X2779D01*
Y-89531D01*
X2648Y-89663D01*
X2386D01*
X2255Y-89531D01*
Y-89138D01*
Y-89400D02*
X1992Y-89663D01*
Y-90450D02*
Y-89925D01*
X2517Y-90450D01*
X2648D01*
X2779Y-90319D01*
Y-90056D01*
X2648Y-89925D01*
X-15218Y132692D02*
Y133479D01*
X-14825D01*
X-14693Y133348D01*
Y133086D01*
X-14825Y132955D01*
X-15218D01*
X-14956D02*
X-14693Y132692D01*
X-14037D02*
Y133479D01*
X-14431Y133086D01*
X-13906D01*
X12138Y132992D02*
Y133779D01*
X12531D01*
X12663Y133648D01*
Y133386D01*
X12531Y133255D01*
X12138D01*
X12400D02*
X12663Y132992D01*
X12925Y133648D02*
X13056Y133779D01*
X13318D01*
X13450Y133648D01*
Y133517D01*
X13318Y133386D01*
X13187D01*
X13318D01*
X13450Y133255D01*
Y133123D01*
X13318Y132992D01*
X13056D01*
X12925Y133123D01*
X86106Y-88492D02*
Y-89279D01*
X85713D01*
X85581Y-89148D01*
Y-88886D01*
X85713Y-88754D01*
X86106D01*
X85844D02*
X85581Y-88492D01*
X84794D02*
X85319D01*
X84794Y-89017D01*
Y-89148D01*
X84926Y-89279D01*
X85188D01*
X85319Y-89148D01*
X84007Y-89279D02*
X84270Y-89148D01*
X84532Y-88886D01*
Y-88623D01*
X84401Y-88492D01*
X84138D01*
X84007Y-88623D01*
Y-88754D01*
X84138Y-88886D01*
X84532D01*
X-75451Y-101672D02*
X-75582Y-101803D01*
Y-102066D01*
X-75451Y-102197D01*
X-74927D01*
X-74795Y-102066D01*
Y-101803D01*
X-74927Y-101672D01*
X-74795Y-100885D02*
Y-101410D01*
X-75320Y-100885D01*
X-75451D01*
X-75582Y-101016D01*
Y-101278D01*
X-75451Y-101410D01*
X86362Y-81492D02*
Y-82279D01*
X85969D01*
X85838Y-82148D01*
Y-81886D01*
X85969Y-81755D01*
X86362D01*
X86100D02*
X85838Y-81492D01*
X85050D02*
X85575D01*
X85050Y-82017D01*
Y-82148D01*
X85181Y-82279D01*
X85444D01*
X85575Y-82148D01*
X84263Y-82279D02*
X84788D01*
Y-81886D01*
X84526Y-82017D01*
X84394D01*
X84263Y-81886D01*
Y-81623D01*
X84394Y-81492D01*
X84657D01*
X84788Y-81623D01*
X32966Y127051D02*
X32835Y127182D01*
X32572D01*
X32441Y127051D01*
Y126526D01*
X32572Y126395D01*
X32835D01*
X32966Y126526D01*
X33228D02*
X33359Y126395D01*
X33622D01*
X33753Y126526D01*
Y127051D01*
X33622Y127182D01*
X33359D01*
X33228Y127051D01*
Y126920D01*
X33359Y126789D01*
X33753D01*
X86172Y-73951D02*
X86303Y-74082D01*
X86566D01*
X86697Y-73951D01*
Y-73427D01*
X86566Y-73295D01*
X86303D01*
X86172Y-73427D01*
X85516Y-73295D02*
Y-74082D01*
X85910Y-73689D01*
X85385D01*
X-33466Y127549D02*
X-33334Y127418D01*
X-33072D01*
X-32941Y127549D01*
Y128074D01*
X-33072Y128205D01*
X-33334D01*
X-33466Y128074D01*
X-33728Y127549D02*
X-33859Y127418D01*
X-34122D01*
X-34253Y127549D01*
Y127680D01*
X-34122Y127811D01*
X-33990D01*
X-34122D01*
X-34253Y127942D01*
Y128074D01*
X-34122Y128205D01*
X-33859D01*
X-33728Y128074D01*
M02*
