G04*
G04 #@! TF.GenerationSoftware,Altium Limited,Altium Designer,21.4.1 (30)*
G04*
G04 Layer_Color=65535*
%FSLAX25Y25*%
%MOIN*%
G70*
G04*
G04 #@! TF.SameCoordinates,64B9E5F6-B95A-4245-B4AC-9C5B3A661B38*
G04*
G04*
G04 #@! TF.FilePolarity,Positive*
G04*
G01*
G75*
%ADD10C,0.01181*%
%ADD11C,0.02362*%
%ADD12C,0.00984*%
%ADD13C,0.00787*%
%ADD14C,0.00394*%
%ADD15C,0.00197*%
%ADD16C,0.01000*%
G36*
X-5257Y-118869D02*
X-3575Y-121150D01*
X-4247D01*
X-5612Y-119213D01*
X-6239Y-119818D01*
Y-121150D01*
X-6750D01*
Y-117309D01*
X-6239D01*
Y-119219D01*
X-4341Y-117309D01*
X-3647D01*
X-5257Y-118869D01*
D02*
G37*
G36*
X21993Y-119219D02*
X23675Y-121500D01*
X23003D01*
X21638Y-119563D01*
X21011Y-120168D01*
Y-121500D01*
X20500D01*
Y-117659D01*
X21011D01*
Y-119569D01*
X22909Y-117659D01*
X23602D01*
X21993Y-119219D01*
D02*
G37*
G36*
X-13759Y94424D02*
X-11235Y91000D01*
X-12243D01*
X-14292Y93907D01*
X-15234Y92999D01*
Y91000D01*
X-16000D01*
Y96764D01*
X-15234D01*
Y93899D01*
X-12385Y96764D01*
X-11344D01*
X-13759Y94424D01*
D02*
G37*
G36*
X14241D02*
X16765Y91000D01*
X15757D01*
X13708Y93907D01*
X12766Y92999D01*
Y91000D01*
X12000D01*
Y96764D01*
X12766D01*
Y93899D01*
X15615Y96764D01*
X16657D01*
X14241Y94424D01*
D02*
G37*
G36*
X18398Y143356D02*
X18470Y143345D01*
X18559Y143329D01*
X18659Y143301D01*
X18759Y143268D01*
X18859Y143223D01*
X18864D01*
X18870Y143218D01*
X18903Y143201D01*
X18953Y143168D01*
X19009Y143129D01*
X19075Y143073D01*
X19142Y143012D01*
X19208Y142940D01*
X19264Y142857D01*
X19270Y142846D01*
X19286Y142818D01*
X19308Y142768D01*
X19336Y142707D01*
X19364Y142635D01*
X19386Y142552D01*
X19403Y142457D01*
X19408Y142363D01*
Y142352D01*
Y142318D01*
X19403Y142274D01*
X19392Y142213D01*
X19375Y142141D01*
X19347Y142063D01*
X19314Y141985D01*
X19270Y141908D01*
X19264Y141897D01*
X19247Y141875D01*
X19214Y141836D01*
X19170Y141791D01*
X19114Y141741D01*
X19048Y141686D01*
X18970Y141636D01*
X18875Y141586D01*
X18881D01*
X18892Y141580D01*
X18909Y141575D01*
X18931Y141569D01*
X18992Y141547D01*
X19070Y141514D01*
X19158Y141469D01*
X19247Y141414D01*
X19331Y141342D01*
X19408Y141259D01*
X19414Y141247D01*
X19436Y141214D01*
X19469Y141159D01*
X19502Y141086D01*
X19536Y140998D01*
X19569Y140892D01*
X19591Y140770D01*
X19597Y140637D01*
Y140631D01*
Y140615D01*
Y140587D01*
X19591Y140554D01*
X19586Y140509D01*
X19575Y140459D01*
X19564Y140404D01*
X19553Y140343D01*
X19508Y140209D01*
X19475Y140137D01*
X19442Y140071D01*
X19397Y139999D01*
X19347Y139927D01*
X19292Y139854D01*
X19225Y139788D01*
X19219Y139782D01*
X19208Y139771D01*
X19186Y139754D01*
X19158Y139732D01*
X19125Y139705D01*
X19081Y139677D01*
X19031Y139643D01*
X18970Y139616D01*
X18909Y139582D01*
X18836Y139549D01*
X18764Y139521D01*
X18681Y139494D01*
X18592Y139471D01*
X18498Y139455D01*
X18404Y139444D01*
X18298Y139438D01*
X18248D01*
X18215Y139444D01*
X18171Y139449D01*
X18121Y139455D01*
X18065Y139466D01*
X18004Y139477D01*
X17871Y139510D01*
X17732Y139566D01*
X17660Y139599D01*
X17593Y139638D01*
X17527Y139688D01*
X17460Y139738D01*
X17455Y139743D01*
X17444Y139754D01*
X17427Y139771D01*
X17410Y139793D01*
X17382Y139821D01*
X17355Y139860D01*
X17321Y139899D01*
X17288Y139949D01*
X17255Y140004D01*
X17221Y140060D01*
X17161Y140193D01*
X17110Y140348D01*
X17094Y140431D01*
X17083Y140520D01*
X17555Y140581D01*
Y140576D01*
X17560Y140565D01*
X17566Y140542D01*
X17571Y140515D01*
X17577Y140481D01*
X17588Y140443D01*
X17616Y140359D01*
X17654Y140260D01*
X17704Y140165D01*
X17760Y140076D01*
X17826Y139999D01*
X17838Y139993D01*
X17860Y139971D01*
X17904Y139943D01*
X17960Y139915D01*
X18026Y139882D01*
X18110Y139854D01*
X18204Y139832D01*
X18304Y139827D01*
X18337D01*
X18359Y139832D01*
X18420Y139838D01*
X18498Y139854D01*
X18587Y139882D01*
X18681Y139921D01*
X18776Y139976D01*
X18864Y140054D01*
X18875Y140065D01*
X18903Y140099D01*
X18936Y140148D01*
X18981Y140215D01*
X19025Y140298D01*
X19059Y140393D01*
X19086Y140504D01*
X19097Y140626D01*
Y140631D01*
Y140642D01*
Y140659D01*
X19092Y140681D01*
X19086Y140742D01*
X19070Y140814D01*
X19048Y140903D01*
X19009Y140992D01*
X18953Y141081D01*
X18881Y141164D01*
X18870Y141175D01*
X18842Y141197D01*
X18798Y141231D01*
X18737Y141270D01*
X18659Y141308D01*
X18565Y141342D01*
X18459Y141364D01*
X18343Y141375D01*
X18293D01*
X18254Y141369D01*
X18204Y141364D01*
X18148Y141353D01*
X18082Y141342D01*
X18010Y141325D01*
X18065Y141741D01*
X18093D01*
X18115Y141736D01*
X18187D01*
X18248Y141747D01*
X18320Y141758D01*
X18404Y141775D01*
X18498Y141802D01*
X18587Y141841D01*
X18681Y141891D01*
X18687D01*
X18692Y141897D01*
X18720Y141919D01*
X18759Y141958D01*
X18803Y142008D01*
X18848Y142080D01*
X18887Y142163D01*
X18914Y142257D01*
X18925Y142313D01*
Y142374D01*
Y142380D01*
Y142385D01*
Y142418D01*
X18914Y142463D01*
X18903Y142524D01*
X18881Y142590D01*
X18853Y142663D01*
X18809Y142735D01*
X18748Y142801D01*
X18742Y142807D01*
X18714Y142829D01*
X18676Y142857D01*
X18626Y142890D01*
X18559Y142918D01*
X18481Y142946D01*
X18393Y142968D01*
X18293Y142973D01*
X18248D01*
X18198Y142962D01*
X18132Y142951D01*
X18059Y142929D01*
X17987Y142901D01*
X17910Y142857D01*
X17838Y142801D01*
X17832Y142796D01*
X17810Y142768D01*
X17776Y142729D01*
X17738Y142674D01*
X17699Y142602D01*
X17660Y142513D01*
X17627Y142407D01*
X17604Y142285D01*
X17133Y142368D01*
Y142374D01*
X17138Y142391D01*
X17144Y142413D01*
X17149Y142446D01*
X17161Y142485D01*
X17177Y142529D01*
X17210Y142635D01*
X17266Y142757D01*
X17333Y142879D01*
X17416Y142996D01*
X17521Y143101D01*
X17527Y143107D01*
X17538Y143112D01*
X17555Y143123D01*
X17577Y143140D01*
X17604Y143162D01*
X17643Y143184D01*
X17682Y143207D01*
X17732Y143234D01*
X17843Y143279D01*
X17971Y143323D01*
X18121Y143351D01*
X18198Y143362D01*
X18337D01*
X18398Y143356D01*
D02*
G37*
G36*
X15229Y143340D02*
X15279D01*
X15396Y143334D01*
X15518Y143317D01*
X15651Y143301D01*
X15773Y143273D01*
X15834Y143256D01*
X15884Y143240D01*
X15890D01*
X15895Y143234D01*
X15928Y143218D01*
X15978Y143195D01*
X16039Y143157D01*
X16106Y143107D01*
X16178Y143040D01*
X16245Y142962D01*
X16311Y142874D01*
Y142868D01*
X16317Y142862D01*
X16339Y142829D01*
X16361Y142774D01*
X16395Y142701D01*
X16422Y142618D01*
X16450Y142518D01*
X16467Y142413D01*
X16472Y142296D01*
Y142291D01*
Y142280D01*
Y142257D01*
X16467Y142230D01*
Y142191D01*
X16461Y142152D01*
X16439Y142058D01*
X16406Y141947D01*
X16361Y141830D01*
X16295Y141714D01*
X16250Y141658D01*
X16206Y141603D01*
X16200Y141597D01*
X16195Y141592D01*
X16178Y141575D01*
X16156Y141558D01*
X16128Y141536D01*
X16095Y141514D01*
X16050Y141486D01*
X16006Y141453D01*
X15951Y141425D01*
X15890Y141397D01*
X15823Y141364D01*
X15751Y141336D01*
X15667Y141314D01*
X15584Y141286D01*
X15490Y141270D01*
X15390Y141253D01*
X15401Y141247D01*
X15423Y141236D01*
X15457Y141214D01*
X15501Y141192D01*
X15601Y141131D01*
X15651Y141092D01*
X15695Y141059D01*
X15706Y141048D01*
X15734Y141020D01*
X15778Y140975D01*
X15834Y140920D01*
X15895Y140842D01*
X15967Y140759D01*
X16039Y140659D01*
X16117Y140548D01*
X16778Y139505D01*
X16145D01*
X15640Y140304D01*
Y140309D01*
X15629Y140321D01*
X15618Y140337D01*
X15601Y140359D01*
X15562Y140420D01*
X15512Y140498D01*
X15451Y140581D01*
X15390Y140670D01*
X15329Y140753D01*
X15273Y140831D01*
X15268Y140837D01*
X15251Y140859D01*
X15224Y140892D01*
X15185Y140931D01*
X15101Y141014D01*
X15057Y141053D01*
X15013Y141086D01*
X15007Y141092D01*
X14996Y141097D01*
X14974Y141109D01*
X14941Y141125D01*
X14907Y141142D01*
X14868Y141159D01*
X14780Y141186D01*
X14774D01*
X14763Y141192D01*
X14741D01*
X14713Y141197D01*
X14674Y141203D01*
X14630D01*
X14569Y141209D01*
X13914D01*
Y139505D01*
X13403D01*
Y143345D01*
X15185D01*
X15229Y143340D01*
D02*
G37*
G36*
X19695Y127956D02*
X19767Y127945D01*
X19856Y127929D01*
X19956Y127901D01*
X20055Y127868D01*
X20155Y127823D01*
X20161D01*
X20167Y127818D01*
X20200Y127801D01*
X20250Y127768D01*
X20305Y127729D01*
X20372Y127673D01*
X20438Y127612D01*
X20505Y127540D01*
X20561Y127457D01*
X20566Y127446D01*
X20583Y127418D01*
X20605Y127368D01*
X20633Y127307D01*
X20661Y127235D01*
X20683Y127152D01*
X20699Y127057D01*
X20705Y126963D01*
Y126952D01*
Y126918D01*
X20699Y126874D01*
X20688Y126813D01*
X20672Y126741D01*
X20644Y126663D01*
X20611Y126585D01*
X20566Y126508D01*
X20561Y126497D01*
X20544Y126474D01*
X20511Y126436D01*
X20466Y126391D01*
X20411Y126341D01*
X20344Y126286D01*
X20267Y126236D01*
X20172Y126186D01*
X20178D01*
X20189Y126180D01*
X20205Y126175D01*
X20228Y126169D01*
X20289Y126147D01*
X20366Y126114D01*
X20455Y126069D01*
X20544Y126014D01*
X20627Y125942D01*
X20705Y125858D01*
X20710Y125847D01*
X20733Y125814D01*
X20766Y125759D01*
X20799Y125686D01*
X20833Y125598D01*
X20866Y125492D01*
X20888Y125370D01*
X20894Y125237D01*
Y125231D01*
Y125215D01*
Y125187D01*
X20888Y125154D01*
X20883Y125109D01*
X20871Y125059D01*
X20860Y125004D01*
X20849Y124943D01*
X20805Y124810D01*
X20772Y124737D01*
X20738Y124671D01*
X20694Y124599D01*
X20644Y124527D01*
X20588Y124454D01*
X20522Y124388D01*
X20516Y124382D01*
X20505Y124371D01*
X20483Y124354D01*
X20455Y124332D01*
X20422Y124304D01*
X20377Y124277D01*
X20327Y124243D01*
X20267Y124216D01*
X20205Y124182D01*
X20133Y124149D01*
X20061Y124121D01*
X19978Y124094D01*
X19889Y124071D01*
X19795Y124055D01*
X19700Y124044D01*
X19595Y124038D01*
X19545D01*
X19512Y124044D01*
X19467Y124049D01*
X19417Y124055D01*
X19362Y124066D01*
X19301Y124077D01*
X19168Y124110D01*
X19029Y124166D01*
X18957Y124199D01*
X18890Y124238D01*
X18823Y124288D01*
X18757Y124338D01*
X18751Y124343D01*
X18740Y124354D01*
X18724Y124371D01*
X18707Y124393D01*
X18679Y124421D01*
X18651Y124460D01*
X18618Y124499D01*
X18585Y124549D01*
X18552Y124604D01*
X18518Y124660D01*
X18457Y124793D01*
X18407Y124948D01*
X18391Y125031D01*
X18379Y125120D01*
X18851Y125181D01*
Y125176D01*
X18857Y125165D01*
X18862Y125143D01*
X18868Y125115D01*
X18873Y125082D01*
X18884Y125043D01*
X18912Y124959D01*
X18951Y124859D01*
X19001Y124765D01*
X19057Y124676D01*
X19123Y124599D01*
X19134Y124593D01*
X19157Y124571D01*
X19201Y124543D01*
X19256Y124515D01*
X19323Y124482D01*
X19406Y124454D01*
X19501Y124432D01*
X19601Y124427D01*
X19634D01*
X19656Y124432D01*
X19717Y124438D01*
X19795Y124454D01*
X19884Y124482D01*
X19978Y124521D01*
X20072Y124576D01*
X20161Y124654D01*
X20172Y124665D01*
X20200Y124698D01*
X20233Y124749D01*
X20278Y124815D01*
X20322Y124898D01*
X20355Y124993D01*
X20383Y125104D01*
X20394Y125226D01*
Y125231D01*
Y125242D01*
Y125259D01*
X20389Y125281D01*
X20383Y125342D01*
X20366Y125415D01*
X20344Y125503D01*
X20305Y125592D01*
X20250Y125681D01*
X20178Y125764D01*
X20167Y125775D01*
X20139Y125797D01*
X20094Y125831D01*
X20033Y125870D01*
X19956Y125908D01*
X19861Y125942D01*
X19756Y125964D01*
X19639Y125975D01*
X19589D01*
X19550Y125970D01*
X19501Y125964D01*
X19445Y125953D01*
X19378Y125942D01*
X19306Y125925D01*
X19362Y126341D01*
X19389D01*
X19412Y126336D01*
X19484D01*
X19545Y126347D01*
X19617Y126358D01*
X19700Y126375D01*
X19795Y126402D01*
X19884Y126441D01*
X19978Y126491D01*
X19983D01*
X19989Y126497D01*
X20017Y126519D01*
X20055Y126558D01*
X20100Y126608D01*
X20144Y126680D01*
X20183Y126763D01*
X20211Y126857D01*
X20222Y126913D01*
Y126974D01*
Y126980D01*
Y126985D01*
Y127018D01*
X20211Y127063D01*
X20200Y127124D01*
X20178Y127190D01*
X20150Y127263D01*
X20106Y127335D01*
X20044Y127401D01*
X20039Y127407D01*
X20011Y127429D01*
X19972Y127457D01*
X19922Y127490D01*
X19856Y127518D01*
X19778Y127546D01*
X19689Y127568D01*
X19589Y127573D01*
X19545D01*
X19495Y127562D01*
X19428Y127551D01*
X19356Y127529D01*
X19284Y127501D01*
X19206Y127457D01*
X19134Y127401D01*
X19129Y127396D01*
X19106Y127368D01*
X19073Y127329D01*
X19034Y127274D01*
X18995Y127202D01*
X18957Y127113D01*
X18923Y127007D01*
X18901Y126885D01*
X18429Y126969D01*
Y126974D01*
X18435Y126991D01*
X18440Y127013D01*
X18446Y127046D01*
X18457Y127085D01*
X18474Y127129D01*
X18507Y127235D01*
X18563Y127357D01*
X18629Y127479D01*
X18712Y127596D01*
X18818Y127701D01*
X18823Y127707D01*
X18835Y127712D01*
X18851Y127723D01*
X18873Y127740D01*
X18901Y127762D01*
X18940Y127784D01*
X18979Y127806D01*
X19029Y127834D01*
X19140Y127879D01*
X19267Y127923D01*
X19417Y127951D01*
X19495Y127962D01*
X19634D01*
X19695Y127956D01*
D02*
G37*
G36*
X16270Y127940D02*
X16382Y127934D01*
X16492Y127923D01*
X16603Y127906D01*
X16698Y127890D01*
X16703D01*
X16714Y127884D01*
X16731D01*
X16753Y127873D01*
X16814Y127857D01*
X16892Y127829D01*
X16981Y127790D01*
X17075Y127740D01*
X17170Y127684D01*
X17258Y127612D01*
X17264Y127607D01*
X17269Y127601D01*
X17286Y127585D01*
X17308Y127568D01*
X17364Y127512D01*
X17430Y127435D01*
X17503Y127340D01*
X17580Y127229D01*
X17652Y127102D01*
X17714Y126957D01*
Y126952D01*
X17719Y126941D01*
X17730Y126918D01*
X17736Y126885D01*
X17752Y126846D01*
X17763Y126802D01*
X17774Y126752D01*
X17791Y126691D01*
X17808Y126630D01*
X17819Y126558D01*
X17847Y126402D01*
X17863Y126230D01*
X17869Y126042D01*
Y126036D01*
Y126025D01*
Y125997D01*
Y125970D01*
X17863Y125931D01*
Y125886D01*
X17858Y125781D01*
X17841Y125659D01*
X17824Y125531D01*
X17797Y125398D01*
X17763Y125265D01*
Y125259D01*
X17758Y125248D01*
X17752Y125231D01*
X17747Y125209D01*
X17725Y125148D01*
X17691Y125070D01*
X17658Y124982D01*
X17614Y124893D01*
X17558Y124798D01*
X17503Y124710D01*
X17497Y124698D01*
X17475Y124671D01*
X17442Y124632D01*
X17397Y124582D01*
X17347Y124527D01*
X17286Y124471D01*
X17225Y124410D01*
X17153Y124360D01*
X17142Y124354D01*
X17120Y124338D01*
X17081Y124316D01*
X17025Y124288D01*
X16959Y124255D01*
X16881Y124227D01*
X16792Y124194D01*
X16692Y124166D01*
X16681D01*
X16665Y124160D01*
X16648Y124155D01*
X16592Y124149D01*
X16515Y124138D01*
X16426Y124127D01*
X16320Y124116D01*
X16204Y124110D01*
X16076Y124105D01*
X14694D01*
Y127945D01*
X16171D01*
X16270Y127940D01*
D02*
G37*
G36*
X13901Y127490D02*
X11631D01*
Y126319D01*
X13756D01*
Y125864D01*
X11631D01*
Y124560D01*
X13989D01*
Y124105D01*
X11120D01*
Y127945D01*
X13901D01*
Y127490D01*
D02*
G37*
G36*
X8617Y124560D02*
X10510D01*
Y124105D01*
X8106D01*
Y127945D01*
X8617D01*
Y124560D01*
D02*
G37*
G36*
X110945Y116981D02*
X110984D01*
X111089Y116970D01*
X111206Y116954D01*
X111328Y116926D01*
X111461Y116893D01*
X111583Y116848D01*
X111589D01*
X111600Y116843D01*
X111616Y116832D01*
X111638Y116820D01*
X111694Y116793D01*
X111766Y116743D01*
X111849Y116687D01*
X111933Y116615D01*
X112010Y116532D01*
X112083Y116437D01*
Y116432D01*
X112088Y116426D01*
X112099Y116410D01*
X112110Y116393D01*
X112138Y116338D01*
X112171Y116265D01*
X112210Y116177D01*
X112238Y116071D01*
X112266Y115960D01*
X112277Y115838D01*
X111788Y115799D01*
Y115805D01*
Y115816D01*
X111783Y115832D01*
X111777Y115860D01*
X111761Y115921D01*
X111738Y116005D01*
X111705Y116093D01*
X111655Y116182D01*
X111594Y116265D01*
X111516Y116343D01*
X111505Y116349D01*
X111477Y116371D01*
X111422Y116404D01*
X111350Y116437D01*
X111256Y116471D01*
X111144Y116504D01*
X111006Y116526D01*
X110850Y116532D01*
X110773D01*
X110739Y116526D01*
X110695Y116521D01*
X110595Y116510D01*
X110484Y116487D01*
X110373Y116460D01*
X110268Y116415D01*
X110223Y116387D01*
X110179Y116360D01*
X110168Y116354D01*
X110145Y116332D01*
X110112Y116293D01*
X110079Y116249D01*
X110040Y116188D01*
X110007Y116121D01*
X109985Y116043D01*
X109974Y115955D01*
Y115944D01*
Y115921D01*
X109979Y115882D01*
X109990Y115838D01*
X110007Y115782D01*
X110035Y115727D01*
X110068Y115672D01*
X110118Y115616D01*
X110123Y115611D01*
X110151Y115594D01*
X110173Y115577D01*
X110196Y115566D01*
X110229Y115550D01*
X110268Y115527D01*
X110318Y115511D01*
X110373Y115488D01*
X110434Y115466D01*
X110506Y115438D01*
X110584Y115416D01*
X110673Y115389D01*
X110773Y115366D01*
X110884Y115339D01*
X110889D01*
X110911Y115333D01*
X110945Y115327D01*
X110984Y115316D01*
X111033Y115305D01*
X111095Y115289D01*
X111156Y115272D01*
X111222Y115255D01*
X111366Y115217D01*
X111505Y115178D01*
X111572Y115155D01*
X111633Y115133D01*
X111688Y115117D01*
X111733Y115094D01*
X111738D01*
X111749Y115089D01*
X111766Y115078D01*
X111788Y115067D01*
X111849Y115033D01*
X111922Y114989D01*
X112005Y114928D01*
X112088Y114861D01*
X112166Y114784D01*
X112232Y114700D01*
X112238Y114689D01*
X112260Y114661D01*
X112282Y114611D01*
X112316Y114545D01*
X112343Y114467D01*
X112371Y114373D01*
X112388Y114267D01*
X112393Y114156D01*
Y114151D01*
Y114145D01*
Y114129D01*
Y114106D01*
X112382Y114045D01*
X112371Y113968D01*
X112349Y113879D01*
X112321Y113785D01*
X112277Y113685D01*
X112216Y113579D01*
Y113574D01*
X112210Y113568D01*
X112182Y113535D01*
X112144Y113485D01*
X112088Y113429D01*
X112016Y113363D01*
X111927Y113291D01*
X111827Y113224D01*
X111711Y113163D01*
X111705D01*
X111694Y113157D01*
X111677Y113152D01*
X111655Y113141D01*
X111622Y113130D01*
X111583Y113113D01*
X111494Y113091D01*
X111389Y113063D01*
X111261Y113035D01*
X111122Y113019D01*
X110972Y113013D01*
X110884D01*
X110839Y113019D01*
X110789D01*
X110734Y113024D01*
X110667Y113030D01*
X110529Y113052D01*
X110384Y113074D01*
X110240Y113113D01*
X110101Y113163D01*
X110096D01*
X110084Y113169D01*
X110068Y113180D01*
X110046Y113191D01*
X109979Y113224D01*
X109901Y113274D01*
X109812Y113341D01*
X109718Y113418D01*
X109629Y113513D01*
X109546Y113618D01*
Y113624D01*
X109535Y113635D01*
X109529Y113651D01*
X109513Y113674D01*
X109502Y113701D01*
X109485Y113735D01*
X109446Y113818D01*
X109407Y113923D01*
X109374Y114040D01*
X109352Y114173D01*
X109341Y114312D01*
X109818Y114356D01*
Y114351D01*
Y114345D01*
X109824Y114328D01*
Y114306D01*
X109835Y114256D01*
X109851Y114184D01*
X109874Y114112D01*
X109896Y114029D01*
X109935Y113951D01*
X109974Y113879D01*
X109979Y113873D01*
X109996Y113851D01*
X110023Y113812D01*
X110068Y113774D01*
X110123Y113724D01*
X110184Y113674D01*
X110268Y113624D01*
X110356Y113579D01*
X110362D01*
X110368Y113574D01*
X110384Y113568D01*
X110401Y113563D01*
X110456Y113546D01*
X110529Y113524D01*
X110617Y113502D01*
X110717Y113485D01*
X110828Y113474D01*
X110950Y113468D01*
X111000D01*
X111056Y113474D01*
X111122Y113479D01*
X111200Y113490D01*
X111289Y113502D01*
X111378Y113524D01*
X111461Y113551D01*
X111472Y113557D01*
X111500Y113568D01*
X111539Y113590D01*
X111589Y113612D01*
X111638Y113651D01*
X111694Y113690D01*
X111749Y113735D01*
X111794Y113790D01*
X111799Y113796D01*
X111811Y113818D01*
X111827Y113846D01*
X111849Y113890D01*
X111872Y113934D01*
X111888Y113990D01*
X111899Y114051D01*
X111905Y114118D01*
Y114123D01*
Y114151D01*
X111899Y114184D01*
X111894Y114228D01*
X111877Y114273D01*
X111861Y114328D01*
X111833Y114384D01*
X111794Y114434D01*
X111788Y114439D01*
X111772Y114456D01*
X111749Y114478D01*
X111711Y114512D01*
X111666Y114545D01*
X111605Y114584D01*
X111533Y114623D01*
X111450Y114656D01*
X111444Y114661D01*
X111416Y114667D01*
X111372Y114684D01*
X111344Y114689D01*
X111305Y114700D01*
X111267Y114717D01*
X111217Y114728D01*
X111161Y114745D01*
X111095Y114761D01*
X111028Y114778D01*
X110950Y114800D01*
X110862Y114822D01*
X110767Y114845D01*
X110762D01*
X110745Y114850D01*
X110717Y114856D01*
X110684Y114867D01*
X110640Y114878D01*
X110590Y114889D01*
X110478Y114922D01*
X110356Y114961D01*
X110229Y115000D01*
X110118Y115039D01*
X110068Y115061D01*
X110023Y115083D01*
X110018D01*
X110012Y115089D01*
X109979Y115111D01*
X109929Y115139D01*
X109874Y115183D01*
X109807Y115233D01*
X109740Y115294D01*
X109674Y115366D01*
X109618Y115444D01*
X109613Y115455D01*
X109596Y115483D01*
X109574Y115527D01*
X109552Y115583D01*
X109529Y115655D01*
X109507Y115738D01*
X109491Y115827D01*
X109485Y115921D01*
Y115927D01*
Y115932D01*
Y115949D01*
Y115971D01*
X109496Y116027D01*
X109507Y116099D01*
X109524Y116182D01*
X109552Y116277D01*
X109590Y116371D01*
X109646Y116465D01*
Y116471D01*
X109652Y116476D01*
X109679Y116510D01*
X109718Y116554D01*
X109768Y116610D01*
X109835Y116671D01*
X109918Y116737D01*
X110018Y116798D01*
X110129Y116854D01*
X110134D01*
X110145Y116859D01*
X110162Y116865D01*
X110184Y116876D01*
X110212Y116887D01*
X110251Y116898D01*
X110334Y116920D01*
X110440Y116943D01*
X110562Y116965D01*
X110689Y116981D01*
X110834Y116987D01*
X110906D01*
X110945Y116981D01*
D02*
G37*
G36*
X117544Y116931D02*
X117588Y116926D01*
X117644Y116920D01*
X117705Y116909D01*
X117766Y116898D01*
X117910Y116859D01*
X118054Y116804D01*
X118126Y116771D01*
X118199Y116732D01*
X118265Y116682D01*
X118326Y116626D01*
X118332Y116621D01*
X118343Y116615D01*
X118354Y116593D01*
X118376Y116571D01*
X118404Y116543D01*
X118432Y116504D01*
X118459Y116465D01*
X118493Y116415D01*
X118548Y116310D01*
X118604Y116177D01*
X118626Y116110D01*
X118637Y116032D01*
X118648Y115955D01*
X118654Y115871D01*
Y115860D01*
Y115832D01*
X118648Y115788D01*
X118643Y115727D01*
X118631Y115660D01*
X118609Y115583D01*
X118587Y115499D01*
X118554Y115416D01*
X118548Y115405D01*
X118537Y115377D01*
X118515Y115333D01*
X118482Y115272D01*
X118437Y115205D01*
X118382Y115122D01*
X118315Y115039D01*
X118237Y114945D01*
X118226Y114933D01*
X118199Y114900D01*
X118171Y114872D01*
X118143Y114845D01*
X118110Y114811D01*
X118065Y114767D01*
X118021Y114723D01*
X117965Y114673D01*
X117910Y114617D01*
X117843Y114556D01*
X117771Y114495D01*
X117693Y114423D01*
X117605Y114351D01*
X117516Y114273D01*
X117510Y114267D01*
X117499Y114256D01*
X117477Y114240D01*
X117449Y114217D01*
X117416Y114184D01*
X117377Y114151D01*
X117288Y114079D01*
X117194Y113996D01*
X117105Y113912D01*
X117027Y113840D01*
X116994Y113812D01*
X116966Y113785D01*
X116961Y113779D01*
X116944Y113762D01*
X116922Y113740D01*
X116894Y113707D01*
X116867Y113668D01*
X116833Y113629D01*
X116767Y113535D01*
X118659D01*
Y113080D01*
X116112D01*
Y113085D01*
Y113107D01*
Y113141D01*
X116117Y113185D01*
X116123Y113235D01*
X116134Y113291D01*
X116145Y113346D01*
X116167Y113407D01*
Y113413D01*
X116173Y113418D01*
X116184Y113452D01*
X116206Y113502D01*
X116239Y113568D01*
X116284Y113646D01*
X116339Y113735D01*
X116400Y113823D01*
X116478Y113918D01*
Y113923D01*
X116489Y113929D01*
X116517Y113962D01*
X116567Y114012D01*
X116639Y114084D01*
X116722Y114167D01*
X116828Y114267D01*
X116955Y114378D01*
X117094Y114495D01*
X117100Y114500D01*
X117122Y114517D01*
X117155Y114545D01*
X117194Y114578D01*
X117244Y114623D01*
X117305Y114673D01*
X117366Y114728D01*
X117438Y114789D01*
X117577Y114922D01*
X117716Y115056D01*
X117782Y115122D01*
X117843Y115189D01*
X117899Y115250D01*
X117943Y115311D01*
Y115316D01*
X117954Y115322D01*
X117965Y115339D01*
X117977Y115361D01*
X118015Y115422D01*
X118060Y115494D01*
X118099Y115583D01*
X118138Y115677D01*
X118160Y115782D01*
X118171Y115882D01*
Y115888D01*
Y115894D01*
X118165Y115927D01*
X118160Y115982D01*
X118143Y116043D01*
X118121Y116121D01*
X118082Y116199D01*
X118032Y116277D01*
X117965Y116354D01*
X117954Y116365D01*
X117927Y116387D01*
X117888Y116415D01*
X117827Y116454D01*
X117749Y116487D01*
X117660Y116521D01*
X117555Y116543D01*
X117438Y116549D01*
X117405D01*
X117383Y116543D01*
X117316Y116537D01*
X117238Y116521D01*
X117155Y116498D01*
X117061Y116460D01*
X116972Y116410D01*
X116889Y116343D01*
X116878Y116332D01*
X116856Y116304D01*
X116822Y116260D01*
X116789Y116193D01*
X116750Y116116D01*
X116717Y116016D01*
X116694Y115905D01*
X116683Y115777D01*
X116201Y115827D01*
Y115832D01*
X116206Y115849D01*
Y115877D01*
X116212Y115916D01*
X116223Y115960D01*
X116234Y116010D01*
X116251Y116071D01*
X116267Y116132D01*
X116312Y116265D01*
X116378Y116399D01*
X116417Y116465D01*
X116467Y116532D01*
X116517Y116593D01*
X116572Y116648D01*
X116578Y116654D01*
X116589Y116659D01*
X116606Y116676D01*
X116633Y116693D01*
X116667Y116715D01*
X116706Y116737D01*
X116750Y116765D01*
X116806Y116793D01*
X116867Y116820D01*
X116933Y116848D01*
X117005Y116870D01*
X117083Y116893D01*
X117166Y116909D01*
X117255Y116926D01*
X117349Y116931D01*
X117449Y116937D01*
X117505D01*
X117544Y116931D01*
D02*
G37*
G36*
X115845Y116465D02*
X114580D01*
Y113080D01*
X114069D01*
Y116465D01*
X112804D01*
Y116920D01*
X115845D01*
Y116465D01*
D02*
G37*
G36*
X111425Y-81019D02*
X111464D01*
X111570Y-81030D01*
X111686Y-81046D01*
X111808Y-81074D01*
X111942Y-81107D01*
X112064Y-81152D01*
X112069D01*
X112080Y-81157D01*
X112097Y-81169D01*
X112119Y-81180D01*
X112174Y-81207D01*
X112247Y-81257D01*
X112330Y-81313D01*
X112413Y-81385D01*
X112491Y-81468D01*
X112563Y-81563D01*
Y-81568D01*
X112569Y-81574D01*
X112580Y-81590D01*
X112591Y-81607D01*
X112619Y-81662D01*
X112652Y-81735D01*
X112691Y-81823D01*
X112718Y-81929D01*
X112746Y-82040D01*
X112757Y-82162D01*
X112269Y-82201D01*
Y-82195D01*
Y-82184D01*
X112263Y-82168D01*
X112258Y-82140D01*
X112241Y-82079D01*
X112219Y-81995D01*
X112186Y-81907D01*
X112136Y-81818D01*
X112075Y-81735D01*
X111997Y-81657D01*
X111986Y-81651D01*
X111958Y-81629D01*
X111903Y-81596D01*
X111830Y-81563D01*
X111736Y-81529D01*
X111625Y-81496D01*
X111486Y-81474D01*
X111331Y-81468D01*
X111253D01*
X111220Y-81474D01*
X111176Y-81479D01*
X111076Y-81490D01*
X110965Y-81513D01*
X110854Y-81540D01*
X110748Y-81585D01*
X110704Y-81612D01*
X110659Y-81640D01*
X110648Y-81646D01*
X110626Y-81668D01*
X110593Y-81707D01*
X110559Y-81751D01*
X110521Y-81812D01*
X110487Y-81879D01*
X110465Y-81957D01*
X110454Y-82045D01*
Y-82056D01*
Y-82079D01*
X110460Y-82118D01*
X110471Y-82162D01*
X110487Y-82217D01*
X110515Y-82273D01*
X110548Y-82328D01*
X110598Y-82384D01*
X110604Y-82389D01*
X110632Y-82406D01*
X110654Y-82423D01*
X110676Y-82434D01*
X110709Y-82450D01*
X110748Y-82473D01*
X110798Y-82489D01*
X110854Y-82512D01*
X110915Y-82534D01*
X110987Y-82561D01*
X111065Y-82584D01*
X111153Y-82612D01*
X111253Y-82634D01*
X111364Y-82661D01*
X111370D01*
X111392Y-82667D01*
X111425Y-82673D01*
X111464Y-82684D01*
X111514Y-82695D01*
X111575Y-82711D01*
X111636Y-82728D01*
X111703Y-82745D01*
X111847Y-82784D01*
X111986Y-82822D01*
X112052Y-82845D01*
X112113Y-82867D01*
X112169Y-82884D01*
X112213Y-82906D01*
X112219D01*
X112230Y-82911D01*
X112247Y-82922D01*
X112269Y-82933D01*
X112330Y-82967D01*
X112402Y-83011D01*
X112485Y-83072D01*
X112569Y-83139D01*
X112646Y-83216D01*
X112713Y-83300D01*
X112718Y-83311D01*
X112741Y-83338D01*
X112763Y-83389D01*
X112796Y-83455D01*
X112824Y-83533D01*
X112852Y-83627D01*
X112868Y-83733D01*
X112874Y-83844D01*
Y-83849D01*
Y-83855D01*
Y-83871D01*
Y-83894D01*
X112863Y-83955D01*
X112852Y-84032D01*
X112829Y-84121D01*
X112802Y-84215D01*
X112757Y-84315D01*
X112696Y-84421D01*
Y-84426D01*
X112691Y-84432D01*
X112663Y-84465D01*
X112624Y-84515D01*
X112569Y-84571D01*
X112496Y-84637D01*
X112408Y-84709D01*
X112308Y-84776D01*
X112191Y-84837D01*
X112186D01*
X112174Y-84843D01*
X112158Y-84848D01*
X112136Y-84859D01*
X112102Y-84870D01*
X112064Y-84887D01*
X111975Y-84909D01*
X111869Y-84937D01*
X111742Y-84965D01*
X111603Y-84981D01*
X111453Y-84987D01*
X111364D01*
X111320Y-84981D01*
X111270D01*
X111214Y-84976D01*
X111148Y-84970D01*
X111009Y-84948D01*
X110865Y-84926D01*
X110721Y-84887D01*
X110582Y-84837D01*
X110576D01*
X110565Y-84832D01*
X110548Y-84820D01*
X110526Y-84809D01*
X110460Y-84776D01*
X110382Y-84726D01*
X110293Y-84659D01*
X110199Y-84582D01*
X110110Y-84487D01*
X110027Y-84382D01*
Y-84376D01*
X110016Y-84365D01*
X110010Y-84349D01*
X109993Y-84326D01*
X109982Y-84299D01*
X109966Y-84265D01*
X109927Y-84182D01*
X109888Y-84077D01*
X109855Y-83960D01*
X109832Y-83827D01*
X109821Y-83688D01*
X110299Y-83644D01*
Y-83649D01*
Y-83655D01*
X110304Y-83672D01*
Y-83694D01*
X110315Y-83744D01*
X110332Y-83816D01*
X110354Y-83888D01*
X110376Y-83971D01*
X110415Y-84049D01*
X110454Y-84121D01*
X110460Y-84127D01*
X110476Y-84149D01*
X110504Y-84188D01*
X110548Y-84227D01*
X110604Y-84276D01*
X110665Y-84326D01*
X110748Y-84376D01*
X110837Y-84421D01*
X110843D01*
X110848Y-84426D01*
X110865Y-84432D01*
X110881Y-84438D01*
X110937Y-84454D01*
X111009Y-84476D01*
X111098Y-84499D01*
X111198Y-84515D01*
X111309Y-84526D01*
X111431Y-84532D01*
X111481D01*
X111536Y-84526D01*
X111603Y-84521D01*
X111681Y-84510D01*
X111769Y-84499D01*
X111858Y-84476D01*
X111942Y-84449D01*
X111952Y-84443D01*
X111980Y-84432D01*
X112019Y-84410D01*
X112069Y-84387D01*
X112119Y-84349D01*
X112174Y-84310D01*
X112230Y-84265D01*
X112275Y-84210D01*
X112280Y-84204D01*
X112291Y-84182D01*
X112308Y-84154D01*
X112330Y-84110D01*
X112352Y-84066D01*
X112369Y-84010D01*
X112380Y-83949D01*
X112385Y-83882D01*
Y-83877D01*
Y-83849D01*
X112380Y-83816D01*
X112374Y-83772D01*
X112358Y-83727D01*
X112341Y-83672D01*
X112313Y-83616D01*
X112275Y-83566D01*
X112269Y-83561D01*
X112252Y-83544D01*
X112230Y-83522D01*
X112191Y-83488D01*
X112147Y-83455D01*
X112086Y-83416D01*
X112014Y-83377D01*
X111930Y-83344D01*
X111925Y-83338D01*
X111897Y-83333D01*
X111853Y-83316D01*
X111825Y-83311D01*
X111786Y-83300D01*
X111747Y-83283D01*
X111697Y-83272D01*
X111642Y-83255D01*
X111575Y-83239D01*
X111509Y-83222D01*
X111431Y-83200D01*
X111342Y-83178D01*
X111248Y-83155D01*
X111242D01*
X111225Y-83150D01*
X111198Y-83144D01*
X111164Y-83133D01*
X111120Y-83122D01*
X111070Y-83111D01*
X110959Y-83078D01*
X110837Y-83039D01*
X110709Y-83000D01*
X110598Y-82961D01*
X110548Y-82939D01*
X110504Y-82917D01*
X110498D01*
X110493Y-82911D01*
X110460Y-82889D01*
X110410Y-82861D01*
X110354Y-82817D01*
X110288Y-82767D01*
X110221Y-82706D01*
X110154Y-82634D01*
X110099Y-82556D01*
X110093Y-82545D01*
X110077Y-82517D01*
X110054Y-82473D01*
X110032Y-82417D01*
X110010Y-82345D01*
X109988Y-82262D01*
X109971Y-82173D01*
X109966Y-82079D01*
Y-82073D01*
Y-82068D01*
Y-82051D01*
Y-82029D01*
X109977Y-81973D01*
X109988Y-81901D01*
X110004Y-81818D01*
X110032Y-81723D01*
X110071Y-81629D01*
X110127Y-81535D01*
Y-81529D01*
X110132Y-81524D01*
X110160Y-81490D01*
X110199Y-81446D01*
X110249Y-81391D01*
X110315Y-81329D01*
X110399Y-81263D01*
X110498Y-81202D01*
X110609Y-81146D01*
X110615D01*
X110626Y-81141D01*
X110643Y-81135D01*
X110665Y-81124D01*
X110693Y-81113D01*
X110731Y-81102D01*
X110815Y-81080D01*
X110920Y-81058D01*
X111042Y-81035D01*
X111170Y-81019D01*
X111314Y-81013D01*
X111386D01*
X111425Y-81019D01*
D02*
G37*
G36*
X117980Y-81069D02*
X118052Y-81080D01*
X118141Y-81096D01*
X118241Y-81124D01*
X118341Y-81157D01*
X118440Y-81202D01*
X118446D01*
X118452Y-81207D01*
X118485Y-81224D01*
X118535Y-81257D01*
X118590Y-81296D01*
X118657Y-81352D01*
X118724Y-81413D01*
X118790Y-81485D01*
X118846Y-81568D01*
X118851Y-81579D01*
X118868Y-81607D01*
X118890Y-81657D01*
X118918Y-81718D01*
X118946Y-81790D01*
X118968Y-81873D01*
X118984Y-81968D01*
X118990Y-82062D01*
Y-82073D01*
Y-82106D01*
X118984Y-82151D01*
X118973Y-82212D01*
X118957Y-82284D01*
X118929Y-82362D01*
X118896Y-82439D01*
X118851Y-82517D01*
X118846Y-82528D01*
X118829Y-82551D01*
X118796Y-82589D01*
X118751Y-82634D01*
X118696Y-82684D01*
X118629Y-82739D01*
X118552Y-82789D01*
X118457Y-82839D01*
X118463D01*
X118474Y-82845D01*
X118491Y-82850D01*
X118513Y-82856D01*
X118574Y-82878D01*
X118651Y-82911D01*
X118740Y-82956D01*
X118829Y-83011D01*
X118912Y-83083D01*
X118990Y-83166D01*
X118995Y-83178D01*
X119018Y-83211D01*
X119051Y-83266D01*
X119084Y-83338D01*
X119118Y-83427D01*
X119151Y-83533D01*
X119173Y-83655D01*
X119179Y-83788D01*
Y-83794D01*
Y-83810D01*
Y-83838D01*
X119173Y-83871D01*
X119168Y-83916D01*
X119156Y-83966D01*
X119145Y-84021D01*
X119134Y-84082D01*
X119090Y-84215D01*
X119056Y-84288D01*
X119023Y-84354D01*
X118979Y-84426D01*
X118929Y-84499D01*
X118873Y-84571D01*
X118807Y-84637D01*
X118801Y-84643D01*
X118790Y-84654D01*
X118768Y-84671D01*
X118740Y-84693D01*
X118707Y-84720D01*
X118663Y-84748D01*
X118613Y-84782D01*
X118552Y-84809D01*
X118491Y-84843D01*
X118418Y-84876D01*
X118346Y-84904D01*
X118263Y-84931D01*
X118174Y-84954D01*
X118080Y-84970D01*
X117985Y-84981D01*
X117880Y-84987D01*
X117830D01*
X117797Y-84981D01*
X117752Y-84976D01*
X117702Y-84970D01*
X117647Y-84959D01*
X117586Y-84948D01*
X117453Y-84915D01*
X117314Y-84859D01*
X117242Y-84826D01*
X117175Y-84787D01*
X117109Y-84737D01*
X117042Y-84687D01*
X117036Y-84682D01*
X117025Y-84671D01*
X117009Y-84654D01*
X116992Y-84632D01*
X116964Y-84604D01*
X116936Y-84565D01*
X116903Y-84526D01*
X116870Y-84476D01*
X116837Y-84421D01*
X116803Y-84365D01*
X116742Y-84232D01*
X116692Y-84077D01*
X116676Y-83993D01*
X116665Y-83905D01*
X117136Y-83844D01*
Y-83849D01*
X117142Y-83860D01*
X117147Y-83882D01*
X117153Y-83910D01*
X117158Y-83943D01*
X117170Y-83982D01*
X117197Y-84066D01*
X117236Y-84166D01*
X117286Y-84260D01*
X117342Y-84349D01*
X117408Y-84426D01*
X117419Y-84432D01*
X117441Y-84454D01*
X117486Y-84482D01*
X117541Y-84510D01*
X117608Y-84543D01*
X117691Y-84571D01*
X117786Y-84593D01*
X117885Y-84598D01*
X117919D01*
X117941Y-84593D01*
X118002Y-84587D01*
X118080Y-84571D01*
X118169Y-84543D01*
X118263Y-84504D01*
X118357Y-84449D01*
X118446Y-84371D01*
X118457Y-84360D01*
X118485Y-84326D01*
X118518Y-84276D01*
X118563Y-84210D01*
X118607Y-84127D01*
X118640Y-84032D01*
X118668Y-83921D01*
X118679Y-83799D01*
Y-83794D01*
Y-83783D01*
Y-83766D01*
X118674Y-83744D01*
X118668Y-83683D01*
X118651Y-83610D01*
X118629Y-83522D01*
X118590Y-83433D01*
X118535Y-83344D01*
X118463Y-83261D01*
X118452Y-83250D01*
X118424Y-83227D01*
X118379Y-83194D01*
X118318Y-83155D01*
X118241Y-83117D01*
X118146Y-83083D01*
X118041Y-83061D01*
X117924Y-83050D01*
X117874D01*
X117835Y-83056D01*
X117786Y-83061D01*
X117730Y-83072D01*
X117664Y-83083D01*
X117591Y-83100D01*
X117647Y-82684D01*
X117675D01*
X117697Y-82689D01*
X117769D01*
X117830Y-82678D01*
X117902Y-82667D01*
X117985Y-82650D01*
X118080Y-82623D01*
X118169Y-82584D01*
X118263Y-82534D01*
X118269D01*
X118274Y-82528D01*
X118302Y-82506D01*
X118341Y-82467D01*
X118385Y-82417D01*
X118429Y-82345D01*
X118468Y-82262D01*
X118496Y-82168D01*
X118507Y-82112D01*
Y-82051D01*
Y-82045D01*
Y-82040D01*
Y-82007D01*
X118496Y-81962D01*
X118485Y-81901D01*
X118463Y-81835D01*
X118435Y-81762D01*
X118391Y-81690D01*
X118330Y-81624D01*
X118324Y-81618D01*
X118296Y-81596D01*
X118257Y-81568D01*
X118207Y-81535D01*
X118141Y-81507D01*
X118063Y-81479D01*
X117974Y-81457D01*
X117874Y-81451D01*
X117830D01*
X117780Y-81463D01*
X117713Y-81474D01*
X117641Y-81496D01*
X117569Y-81524D01*
X117491Y-81568D01*
X117419Y-81624D01*
X117414Y-81629D01*
X117392Y-81657D01*
X117358Y-81696D01*
X117319Y-81751D01*
X117280Y-81823D01*
X117242Y-81912D01*
X117208Y-82018D01*
X117186Y-82140D01*
X116715Y-82056D01*
Y-82051D01*
X116720Y-82034D01*
X116726Y-82012D01*
X116731Y-81979D01*
X116742Y-81940D01*
X116759Y-81896D01*
X116792Y-81790D01*
X116848Y-81668D01*
X116914Y-81546D01*
X116998Y-81429D01*
X117103Y-81324D01*
X117109Y-81318D01*
X117120Y-81313D01*
X117136Y-81302D01*
X117158Y-81285D01*
X117186Y-81263D01*
X117225Y-81241D01*
X117264Y-81218D01*
X117314Y-81191D01*
X117425Y-81146D01*
X117552Y-81102D01*
X117702Y-81074D01*
X117780Y-81063D01*
X117919D01*
X117980Y-81069D01*
D02*
G37*
G36*
X116326Y-81535D02*
X115060D01*
Y-84920D01*
X114550D01*
Y-81535D01*
X113285D01*
Y-81080D01*
X116326D01*
Y-81535D01*
D02*
G37*
G36*
X-117566Y-80519D02*
X-117527D01*
X-117422Y-80530D01*
X-117306Y-80546D01*
X-117183Y-80574D01*
X-117050Y-80607D01*
X-116928Y-80652D01*
X-116923D01*
X-116911Y-80657D01*
X-116895Y-80668D01*
X-116873Y-80680D01*
X-116817Y-80707D01*
X-116745Y-80757D01*
X-116662Y-80813D01*
X-116578Y-80885D01*
X-116501Y-80968D01*
X-116429Y-81063D01*
Y-81068D01*
X-116423Y-81074D01*
X-116412Y-81090D01*
X-116401Y-81107D01*
X-116373Y-81163D01*
X-116340Y-81235D01*
X-116301Y-81323D01*
X-116273Y-81429D01*
X-116245Y-81540D01*
X-116234Y-81662D01*
X-116723Y-81701D01*
Y-81695D01*
Y-81684D01*
X-116728Y-81668D01*
X-116734Y-81640D01*
X-116751Y-81579D01*
X-116773Y-81495D01*
X-116806Y-81407D01*
X-116856Y-81318D01*
X-116917Y-81235D01*
X-116995Y-81157D01*
X-117006Y-81151D01*
X-117034Y-81129D01*
X-117089Y-81096D01*
X-117161Y-81063D01*
X-117256Y-81029D01*
X-117367Y-80996D01*
X-117505Y-80974D01*
X-117661Y-80968D01*
X-117738D01*
X-117772Y-80974D01*
X-117816Y-80979D01*
X-117916Y-80990D01*
X-118027Y-81013D01*
X-118138Y-81040D01*
X-118244Y-81085D01*
X-118288Y-81112D01*
X-118332Y-81140D01*
X-118343Y-81146D01*
X-118366Y-81168D01*
X-118399Y-81207D01*
X-118432Y-81251D01*
X-118471Y-81312D01*
X-118504Y-81379D01*
X-118526Y-81457D01*
X-118538Y-81545D01*
Y-81556D01*
Y-81579D01*
X-118532Y-81618D01*
X-118521Y-81662D01*
X-118504Y-81717D01*
X-118477Y-81773D01*
X-118443Y-81828D01*
X-118393Y-81884D01*
X-118388Y-81889D01*
X-118360Y-81906D01*
X-118338Y-81923D01*
X-118316Y-81934D01*
X-118282Y-81950D01*
X-118244Y-81973D01*
X-118193Y-81989D01*
X-118138Y-82012D01*
X-118077Y-82034D01*
X-118005Y-82061D01*
X-117927Y-82084D01*
X-117838Y-82112D01*
X-117738Y-82134D01*
X-117627Y-82161D01*
X-117622D01*
X-117600Y-82167D01*
X-117566Y-82173D01*
X-117527Y-82184D01*
X-117478Y-82195D01*
X-117417Y-82211D01*
X-117356Y-82228D01*
X-117289Y-82245D01*
X-117145Y-82284D01*
X-117006Y-82322D01*
X-116939Y-82345D01*
X-116878Y-82367D01*
X-116823Y-82384D01*
X-116778Y-82406D01*
X-116773D01*
X-116762Y-82411D01*
X-116745Y-82422D01*
X-116723Y-82433D01*
X-116662Y-82467D01*
X-116590Y-82511D01*
X-116506Y-82572D01*
X-116423Y-82639D01*
X-116345Y-82716D01*
X-116279Y-82800D01*
X-116273Y-82811D01*
X-116251Y-82838D01*
X-116229Y-82889D01*
X-116195Y-82955D01*
X-116168Y-83033D01*
X-116140Y-83127D01*
X-116123Y-83233D01*
X-116118Y-83344D01*
Y-83349D01*
Y-83355D01*
Y-83371D01*
Y-83394D01*
X-116129Y-83455D01*
X-116140Y-83532D01*
X-116162Y-83621D01*
X-116190Y-83715D01*
X-116234Y-83815D01*
X-116295Y-83921D01*
Y-83926D01*
X-116301Y-83932D01*
X-116329Y-83965D01*
X-116368Y-84015D01*
X-116423Y-84071D01*
X-116495Y-84137D01*
X-116584Y-84209D01*
X-116684Y-84276D01*
X-116800Y-84337D01*
X-116806D01*
X-116817Y-84343D01*
X-116834Y-84348D01*
X-116856Y-84359D01*
X-116889Y-84370D01*
X-116928Y-84387D01*
X-117017Y-84409D01*
X-117122Y-84437D01*
X-117250Y-84465D01*
X-117389Y-84481D01*
X-117539Y-84487D01*
X-117627D01*
X-117672Y-84481D01*
X-117722D01*
X-117777Y-84476D01*
X-117844Y-84470D01*
X-117983Y-84448D01*
X-118127Y-84426D01*
X-118271Y-84387D01*
X-118410Y-84337D01*
X-118415D01*
X-118427Y-84332D01*
X-118443Y-84320D01*
X-118465Y-84309D01*
X-118532Y-84276D01*
X-118610Y-84226D01*
X-118699Y-84159D01*
X-118793Y-84082D01*
X-118882Y-83987D01*
X-118965Y-83882D01*
Y-83876D01*
X-118976Y-83865D01*
X-118982Y-83849D01*
X-118998Y-83826D01*
X-119009Y-83799D01*
X-119026Y-83765D01*
X-119065Y-83682D01*
X-119104Y-83577D01*
X-119137Y-83460D01*
X-119159Y-83327D01*
X-119170Y-83188D01*
X-118693Y-83144D01*
Y-83149D01*
Y-83155D01*
X-118687Y-83172D01*
Y-83194D01*
X-118676Y-83244D01*
X-118660Y-83316D01*
X-118638Y-83388D01*
X-118615Y-83471D01*
X-118577Y-83549D01*
X-118538Y-83621D01*
X-118532Y-83627D01*
X-118515Y-83649D01*
X-118488Y-83688D01*
X-118443Y-83727D01*
X-118388Y-83776D01*
X-118327Y-83826D01*
X-118244Y-83876D01*
X-118155Y-83921D01*
X-118149D01*
X-118144Y-83926D01*
X-118127Y-83932D01*
X-118110Y-83938D01*
X-118055Y-83954D01*
X-117983Y-83976D01*
X-117894Y-83999D01*
X-117794Y-84015D01*
X-117683Y-84026D01*
X-117561Y-84032D01*
X-117511D01*
X-117455Y-84026D01*
X-117389Y-84021D01*
X-117311Y-84010D01*
X-117222Y-83999D01*
X-117133Y-83976D01*
X-117050Y-83949D01*
X-117039Y-83943D01*
X-117011Y-83932D01*
X-116972Y-83910D01*
X-116923Y-83887D01*
X-116873Y-83849D01*
X-116817Y-83810D01*
X-116762Y-83765D01*
X-116717Y-83710D01*
X-116712Y-83704D01*
X-116701Y-83682D01*
X-116684Y-83654D01*
X-116662Y-83610D01*
X-116639Y-83566D01*
X-116623Y-83510D01*
X-116612Y-83449D01*
X-116606Y-83382D01*
Y-83377D01*
Y-83349D01*
X-116612Y-83316D01*
X-116617Y-83271D01*
X-116634Y-83227D01*
X-116651Y-83172D01*
X-116678Y-83116D01*
X-116717Y-83066D01*
X-116723Y-83061D01*
X-116739Y-83044D01*
X-116762Y-83022D01*
X-116800Y-82988D01*
X-116845Y-82955D01*
X-116906Y-82916D01*
X-116978Y-82877D01*
X-117061Y-82844D01*
X-117067Y-82838D01*
X-117095Y-82833D01*
X-117139Y-82816D01*
X-117167Y-82811D01*
X-117206Y-82800D01*
X-117245Y-82783D01*
X-117294Y-82772D01*
X-117350Y-82755D01*
X-117417Y-82739D01*
X-117483Y-82722D01*
X-117561Y-82700D01*
X-117650Y-82678D01*
X-117744Y-82655D01*
X-117750D01*
X-117766Y-82650D01*
X-117794Y-82644D01*
X-117827Y-82633D01*
X-117872Y-82622D01*
X-117922Y-82611D01*
X-118033Y-82578D01*
X-118155Y-82539D01*
X-118282Y-82500D01*
X-118393Y-82461D01*
X-118443Y-82439D01*
X-118488Y-82417D01*
X-118493D01*
X-118499Y-82411D01*
X-118532Y-82389D01*
X-118582Y-82361D01*
X-118638Y-82317D01*
X-118704Y-82267D01*
X-118771Y-82206D01*
X-118837Y-82134D01*
X-118893Y-82056D01*
X-118898Y-82045D01*
X-118915Y-82017D01*
X-118937Y-81973D01*
X-118959Y-81917D01*
X-118982Y-81845D01*
X-119004Y-81762D01*
X-119020Y-81673D01*
X-119026Y-81579D01*
Y-81573D01*
Y-81568D01*
Y-81551D01*
Y-81529D01*
X-119015Y-81473D01*
X-119004Y-81401D01*
X-118987Y-81318D01*
X-118959Y-81223D01*
X-118921Y-81129D01*
X-118865Y-81035D01*
Y-81029D01*
X-118860Y-81024D01*
X-118832Y-80990D01*
X-118793Y-80946D01*
X-118743Y-80891D01*
X-118676Y-80829D01*
X-118593Y-80763D01*
X-118493Y-80702D01*
X-118382Y-80646D01*
X-118377D01*
X-118366Y-80641D01*
X-118349Y-80635D01*
X-118327Y-80624D01*
X-118299Y-80613D01*
X-118260Y-80602D01*
X-118177Y-80580D01*
X-118071Y-80558D01*
X-117949Y-80535D01*
X-117822Y-80519D01*
X-117677Y-80513D01*
X-117605D01*
X-117566Y-80519D01*
D02*
G37*
G36*
X-110351Y-83066D02*
X-109830D01*
Y-83499D01*
X-110351D01*
Y-84420D01*
X-110823D01*
Y-83499D01*
X-112494D01*
Y-83066D01*
X-110734Y-80580D01*
X-110351D01*
Y-83066D01*
D02*
G37*
G36*
X-112666Y-81035D02*
X-113931D01*
Y-84420D01*
X-114442D01*
Y-81035D01*
X-115707D01*
Y-80580D01*
X-112666D01*
Y-81035D01*
D02*
G37*
G36*
X-117203Y116481D02*
X-117164D01*
X-117059Y116470D01*
X-116942Y116454D01*
X-116820Y116426D01*
X-116687Y116393D01*
X-116565Y116348D01*
X-116559D01*
X-116548Y116343D01*
X-116531Y116332D01*
X-116509Y116320D01*
X-116454Y116293D01*
X-116381Y116243D01*
X-116298Y116187D01*
X-116215Y116115D01*
X-116137Y116032D01*
X-116065Y115937D01*
Y115932D01*
X-116060Y115926D01*
X-116049Y115910D01*
X-116037Y115893D01*
X-116010Y115838D01*
X-115976Y115765D01*
X-115937Y115677D01*
X-115910Y115571D01*
X-115882Y115460D01*
X-115871Y115338D01*
X-116359Y115299D01*
Y115305D01*
Y115316D01*
X-116365Y115332D01*
X-116370Y115360D01*
X-116387Y115421D01*
X-116409Y115505D01*
X-116443Y115593D01*
X-116492Y115682D01*
X-116553Y115765D01*
X-116631Y115843D01*
X-116642Y115849D01*
X-116670Y115871D01*
X-116726Y115904D01*
X-116798Y115937D01*
X-116892Y115971D01*
X-117003Y116004D01*
X-117142Y116026D01*
X-117297Y116032D01*
X-117375D01*
X-117408Y116026D01*
X-117453Y116021D01*
X-117552Y116010D01*
X-117664Y115987D01*
X-117774Y115960D01*
X-117880Y115915D01*
X-117924Y115887D01*
X-117969Y115860D01*
X-117980Y115854D01*
X-118002Y115832D01*
X-118035Y115793D01*
X-118069Y115749D01*
X-118107Y115688D01*
X-118141Y115621D01*
X-118163Y115543D01*
X-118174Y115455D01*
Y115444D01*
Y115421D01*
X-118169Y115382D01*
X-118157Y115338D01*
X-118141Y115282D01*
X-118113Y115227D01*
X-118080Y115172D01*
X-118030Y115116D01*
X-118024Y115111D01*
X-117997Y115094D01*
X-117974Y115077D01*
X-117952Y115066D01*
X-117919Y115050D01*
X-117880Y115027D01*
X-117830Y115011D01*
X-117774Y114988D01*
X-117713Y114966D01*
X-117641Y114938D01*
X-117564Y114916D01*
X-117475Y114889D01*
X-117375Y114866D01*
X-117264Y114839D01*
X-117258D01*
X-117236Y114833D01*
X-117203Y114827D01*
X-117164Y114816D01*
X-117114Y114805D01*
X-117053Y114789D01*
X-116992Y114772D01*
X-116925Y114755D01*
X-116781Y114716D01*
X-116642Y114678D01*
X-116576Y114655D01*
X-116515Y114633D01*
X-116459Y114617D01*
X-116415Y114594D01*
X-116409D01*
X-116398Y114589D01*
X-116381Y114578D01*
X-116359Y114567D01*
X-116298Y114533D01*
X-116226Y114489D01*
X-116143Y114428D01*
X-116060Y114361D01*
X-115982Y114284D01*
X-115915Y114200D01*
X-115910Y114189D01*
X-115887Y114161D01*
X-115865Y114111D01*
X-115832Y114045D01*
X-115804Y113967D01*
X-115777Y113873D01*
X-115760Y113767D01*
X-115754Y113656D01*
Y113651D01*
Y113645D01*
Y113629D01*
Y113606D01*
X-115765Y113545D01*
X-115777Y113468D01*
X-115799Y113379D01*
X-115826Y113285D01*
X-115871Y113185D01*
X-115932Y113079D01*
Y113074D01*
X-115937Y113068D01*
X-115965Y113035D01*
X-116004Y112985D01*
X-116060Y112929D01*
X-116132Y112863D01*
X-116220Y112791D01*
X-116320Y112724D01*
X-116437Y112663D01*
X-116443D01*
X-116454Y112657D01*
X-116470Y112652D01*
X-116492Y112641D01*
X-116526Y112630D01*
X-116565Y112613D01*
X-116653Y112591D01*
X-116759Y112563D01*
X-116886Y112535D01*
X-117025Y112519D01*
X-117175Y112513D01*
X-117264D01*
X-117308Y112519D01*
X-117358D01*
X-117414Y112524D01*
X-117480Y112530D01*
X-117619Y112552D01*
X-117763Y112574D01*
X-117908Y112613D01*
X-118046Y112663D01*
X-118052D01*
X-118063Y112669D01*
X-118080Y112680D01*
X-118102Y112691D01*
X-118169Y112724D01*
X-118246Y112774D01*
X-118335Y112841D01*
X-118429Y112918D01*
X-118518Y113013D01*
X-118601Y113118D01*
Y113124D01*
X-118613Y113135D01*
X-118618Y113151D01*
X-118635Y113174D01*
X-118646Y113201D01*
X-118663Y113235D01*
X-118701Y113318D01*
X-118740Y113423D01*
X-118773Y113540D01*
X-118796Y113673D01*
X-118807Y113812D01*
X-118330Y113856D01*
Y113851D01*
Y113845D01*
X-118324Y113828D01*
Y113806D01*
X-118313Y113756D01*
X-118296Y113684D01*
X-118274Y113612D01*
X-118252Y113529D01*
X-118213Y113451D01*
X-118174Y113379D01*
X-118169Y113373D01*
X-118152Y113351D01*
X-118124Y113312D01*
X-118080Y113274D01*
X-118024Y113224D01*
X-117963Y113174D01*
X-117880Y113124D01*
X-117791Y113079D01*
X-117786D01*
X-117780Y113074D01*
X-117763Y113068D01*
X-117747Y113063D01*
X-117691Y113046D01*
X-117619Y113024D01*
X-117530Y113002D01*
X-117430Y112985D01*
X-117319Y112974D01*
X-117197Y112968D01*
X-117147D01*
X-117092Y112974D01*
X-117025Y112979D01*
X-116948Y112990D01*
X-116859Y113002D01*
X-116770Y113024D01*
X-116687Y113051D01*
X-116676Y113057D01*
X-116648Y113068D01*
X-116609Y113090D01*
X-116559Y113112D01*
X-116509Y113151D01*
X-116454Y113190D01*
X-116398Y113235D01*
X-116354Y113290D01*
X-116348Y113296D01*
X-116337Y113318D01*
X-116320Y113346D01*
X-116298Y113390D01*
X-116276Y113434D01*
X-116259Y113490D01*
X-116248Y113551D01*
X-116243Y113618D01*
Y113623D01*
Y113651D01*
X-116248Y113684D01*
X-116254Y113728D01*
X-116270Y113773D01*
X-116287Y113828D01*
X-116315Y113884D01*
X-116354Y113934D01*
X-116359Y113939D01*
X-116376Y113956D01*
X-116398Y113978D01*
X-116437Y114012D01*
X-116481Y114045D01*
X-116542Y114084D01*
X-116615Y114123D01*
X-116698Y114156D01*
X-116703Y114161D01*
X-116731Y114167D01*
X-116776Y114184D01*
X-116803Y114189D01*
X-116842Y114200D01*
X-116881Y114217D01*
X-116931Y114228D01*
X-116986Y114245D01*
X-117053Y114261D01*
X-117120Y114278D01*
X-117197Y114300D01*
X-117286Y114322D01*
X-117380Y114345D01*
X-117386D01*
X-117403Y114350D01*
X-117430Y114356D01*
X-117464Y114367D01*
X-117508Y114378D01*
X-117558Y114389D01*
X-117669Y114422D01*
X-117791Y114461D01*
X-117919Y114500D01*
X-118030Y114539D01*
X-118080Y114561D01*
X-118124Y114583D01*
X-118130D01*
X-118135Y114589D01*
X-118169Y114611D01*
X-118219Y114639D01*
X-118274Y114683D01*
X-118341Y114733D01*
X-118407Y114794D01*
X-118474Y114866D01*
X-118529Y114944D01*
X-118535Y114955D01*
X-118552Y114983D01*
X-118574Y115027D01*
X-118596Y115083D01*
X-118618Y115155D01*
X-118640Y115238D01*
X-118657Y115327D01*
X-118663Y115421D01*
Y115427D01*
Y115432D01*
Y115449D01*
Y115471D01*
X-118651Y115527D01*
X-118640Y115599D01*
X-118624Y115682D01*
X-118596Y115777D01*
X-118557Y115871D01*
X-118501Y115965D01*
Y115971D01*
X-118496Y115976D01*
X-118468Y116010D01*
X-118429Y116054D01*
X-118379Y116110D01*
X-118313Y116171D01*
X-118230Y116237D01*
X-118130Y116298D01*
X-118019Y116354D01*
X-118013D01*
X-118002Y116359D01*
X-117985Y116365D01*
X-117963Y116376D01*
X-117935Y116387D01*
X-117897Y116398D01*
X-117813Y116420D01*
X-117708Y116443D01*
X-117586Y116465D01*
X-117458Y116481D01*
X-117314Y116487D01*
X-117242D01*
X-117203Y116481D01*
D02*
G37*
G36*
X-110193Y112580D02*
X-110665D01*
Y115582D01*
X-110670Y115577D01*
X-110698Y115554D01*
X-110731Y115521D01*
X-110787Y115482D01*
X-110848Y115432D01*
X-110926Y115377D01*
X-111015Y115316D01*
X-111115Y115255D01*
X-111120D01*
X-111126Y115249D01*
X-111159Y115227D01*
X-111214Y115199D01*
X-111281Y115166D01*
X-111359Y115127D01*
X-111442Y115088D01*
X-111525Y115050D01*
X-111608Y115016D01*
Y115471D01*
X-111603D01*
X-111592Y115482D01*
X-111570Y115488D01*
X-111542Y115505D01*
X-111509Y115521D01*
X-111470Y115543D01*
X-111375Y115599D01*
X-111264Y115660D01*
X-111153Y115738D01*
X-111037Y115826D01*
X-110920Y115921D01*
X-110915Y115926D01*
X-110909Y115932D01*
X-110892Y115949D01*
X-110870Y115965D01*
X-110820Y116021D01*
X-110754Y116087D01*
X-110687Y116165D01*
X-110615Y116254D01*
X-110554Y116343D01*
X-110498Y116437D01*
X-110193D01*
Y112580D01*
D02*
G37*
G36*
X-112302Y115965D02*
X-113568D01*
Y112580D01*
X-114078D01*
Y115965D01*
X-115344D01*
Y116420D01*
X-112302D01*
Y115965D01*
D02*
G37*
G36*
X-8733Y140334D02*
X-8211D01*
Y139901D01*
X-8733D01*
Y138980D01*
X-9205D01*
Y139901D01*
X-10875D01*
Y140334D01*
X-9116Y142820D01*
X-8733D01*
Y140334D01*
D02*
G37*
G36*
X-12563Y142815D02*
X-12513D01*
X-12396Y142809D01*
X-12274Y142793D01*
X-12141Y142776D01*
X-12019Y142748D01*
X-11958Y142731D01*
X-11908Y142715D01*
X-11902D01*
X-11897Y142709D01*
X-11863Y142693D01*
X-11813Y142671D01*
X-11752Y142632D01*
X-11686Y142582D01*
X-11614Y142515D01*
X-11547Y142437D01*
X-11480Y142349D01*
Y142343D01*
X-11475Y142337D01*
X-11453Y142304D01*
X-11430Y142249D01*
X-11397Y142176D01*
X-11369Y142093D01*
X-11342Y141993D01*
X-11325Y141888D01*
X-11319Y141771D01*
Y141766D01*
Y141755D01*
Y141733D01*
X-11325Y141705D01*
Y141666D01*
X-11331Y141627D01*
X-11353Y141533D01*
X-11386Y141422D01*
X-11430Y141305D01*
X-11497Y141189D01*
X-11541Y141133D01*
X-11586Y141078D01*
X-11591Y141072D01*
X-11597Y141067D01*
X-11614Y141050D01*
X-11636Y141033D01*
X-11664Y141011D01*
X-11697Y140989D01*
X-11741Y140961D01*
X-11786Y140928D01*
X-11841Y140900D01*
X-11902Y140872D01*
X-11969Y140839D01*
X-12041Y140811D01*
X-12124Y140789D01*
X-12207Y140761D01*
X-12302Y140745D01*
X-12402Y140728D01*
X-12391Y140722D01*
X-12368Y140711D01*
X-12335Y140689D01*
X-12291Y140667D01*
X-12191Y140606D01*
X-12141Y140567D01*
X-12096Y140534D01*
X-12085Y140523D01*
X-12058Y140495D01*
X-12013Y140451D01*
X-11958Y140395D01*
X-11897Y140317D01*
X-11824Y140234D01*
X-11752Y140134D01*
X-11675Y140023D01*
X-11014Y138980D01*
X-11647D01*
X-12152Y139779D01*
Y139784D01*
X-12163Y139796D01*
X-12174Y139812D01*
X-12191Y139834D01*
X-12230Y139895D01*
X-12280Y139973D01*
X-12341Y140056D01*
X-12402Y140145D01*
X-12463Y140228D01*
X-12518Y140306D01*
X-12524Y140312D01*
X-12540Y140334D01*
X-12568Y140367D01*
X-12607Y140406D01*
X-12690Y140489D01*
X-12735Y140528D01*
X-12779Y140561D01*
X-12785Y140567D01*
X-12796Y140573D01*
X-12818Y140584D01*
X-12851Y140600D01*
X-12885Y140617D01*
X-12923Y140634D01*
X-13012Y140661D01*
X-13018D01*
X-13029Y140667D01*
X-13051D01*
X-13079Y140673D01*
X-13118Y140678D01*
X-13162D01*
X-13223Y140683D01*
X-13878D01*
Y138980D01*
X-14389D01*
Y142820D01*
X-12607D01*
X-12563Y142815D01*
D02*
G37*
G36*
X8577Y-81474D02*
X8635Y-81481D01*
X8708Y-81489D01*
X8788Y-81503D01*
X8869Y-81518D01*
X9058Y-81569D01*
X9248Y-81642D01*
X9342Y-81685D01*
X9437Y-81736D01*
X9525Y-81802D01*
X9605Y-81875D01*
X9612Y-81882D01*
X9627Y-81889D01*
X9641Y-81919D01*
X9670Y-81948D01*
X9707Y-81984D01*
X9743Y-82035D01*
X9780Y-82086D01*
X9824Y-82152D01*
X9896Y-82291D01*
X9969Y-82465D01*
X9999Y-82553D01*
X10013Y-82655D01*
X10028Y-82757D01*
X10035Y-82866D01*
Y-82881D01*
Y-82917D01*
X10028Y-82976D01*
X10020Y-83056D01*
X10006Y-83143D01*
X9977Y-83245D01*
X9947Y-83355D01*
X9904Y-83464D01*
X9896Y-83479D01*
X9882Y-83515D01*
X9853Y-83574D01*
X9809Y-83654D01*
X9751Y-83741D01*
X9678Y-83851D01*
X9590Y-83960D01*
X9488Y-84084D01*
X9474Y-84098D01*
X9437Y-84142D01*
X9401Y-84179D01*
X9364Y-84215D01*
X9321Y-84259D01*
X9262Y-84317D01*
X9204Y-84375D01*
X9131Y-84441D01*
X9058Y-84514D01*
X8971Y-84594D01*
X8876Y-84674D01*
X8774Y-84769D01*
X8657Y-84864D01*
X8541Y-84966D01*
X8533Y-84973D01*
X8519Y-84988D01*
X8489Y-85010D01*
X8453Y-85039D01*
X8409Y-85083D01*
X8358Y-85126D01*
X8242Y-85221D01*
X8118Y-85330D01*
X8001Y-85440D01*
X7899Y-85535D01*
X7855Y-85571D01*
X7819Y-85607D01*
X7812Y-85615D01*
X7790Y-85637D01*
X7761Y-85666D01*
X7724Y-85710D01*
X7688Y-85760D01*
X7644Y-85812D01*
X7556Y-85935D01*
X10042D01*
Y-86533D01*
X6696D01*
Y-86526D01*
Y-86497D01*
Y-86453D01*
X6703Y-86395D01*
X6711Y-86329D01*
X6725Y-86256D01*
X6740Y-86183D01*
X6769Y-86103D01*
Y-86096D01*
X6776Y-86089D01*
X6791Y-86045D01*
X6820Y-85979D01*
X6864Y-85892D01*
X6922Y-85790D01*
X6995Y-85673D01*
X7075Y-85556D01*
X7177Y-85432D01*
Y-85425D01*
X7192Y-85418D01*
X7228Y-85374D01*
X7294Y-85309D01*
X7389Y-85214D01*
X7498Y-85104D01*
X7637Y-84973D01*
X7804Y-84827D01*
X7987Y-84674D01*
X7994Y-84667D01*
X8023Y-84645D01*
X8067Y-84609D01*
X8118Y-84565D01*
X8183Y-84507D01*
X8264Y-84441D01*
X8344Y-84368D01*
X8439Y-84288D01*
X8621Y-84113D01*
X8803Y-83938D01*
X8890Y-83851D01*
X8971Y-83763D01*
X9044Y-83683D01*
X9102Y-83603D01*
Y-83595D01*
X9116Y-83588D01*
X9131Y-83566D01*
X9146Y-83537D01*
X9197Y-83457D01*
X9255Y-83362D01*
X9306Y-83245D01*
X9357Y-83122D01*
X9386Y-82983D01*
X9401Y-82852D01*
Y-82845D01*
Y-82837D01*
X9393Y-82793D01*
X9386Y-82721D01*
X9364Y-82640D01*
X9335Y-82538D01*
X9284Y-82436D01*
X9218Y-82334D01*
X9131Y-82232D01*
X9116Y-82218D01*
X9080Y-82188D01*
X9029Y-82152D01*
X8949Y-82101D01*
X8847Y-82057D01*
X8730Y-82013D01*
X8592Y-81984D01*
X8439Y-81977D01*
X8395D01*
X8366Y-81984D01*
X8278Y-81992D01*
X8176Y-82013D01*
X8067Y-82043D01*
X7943Y-82094D01*
X7826Y-82159D01*
X7717Y-82247D01*
X7702Y-82261D01*
X7673Y-82298D01*
X7629Y-82356D01*
X7586Y-82444D01*
X7535Y-82546D01*
X7491Y-82677D01*
X7462Y-82823D01*
X7447Y-82990D01*
X6813Y-82925D01*
Y-82917D01*
X6820Y-82896D01*
Y-82859D01*
X6827Y-82808D01*
X6842Y-82750D01*
X6857Y-82684D01*
X6878Y-82604D01*
X6900Y-82524D01*
X6959Y-82349D01*
X7046Y-82174D01*
X7097Y-82086D01*
X7163Y-81999D01*
X7228Y-81919D01*
X7301Y-81846D01*
X7309Y-81839D01*
X7323Y-81831D01*
X7345Y-81809D01*
X7382Y-81788D01*
X7425Y-81758D01*
X7476Y-81729D01*
X7535Y-81693D01*
X7608Y-81656D01*
X7688Y-81620D01*
X7775Y-81583D01*
X7870Y-81554D01*
X7972Y-81525D01*
X8081Y-81503D01*
X8198Y-81481D01*
X8322Y-81474D01*
X8453Y-81467D01*
X8526D01*
X8577Y-81474D01*
D02*
G37*
G36*
X4356Y-81496D02*
X4422D01*
X4575Y-81503D01*
X4735Y-81525D01*
X4910Y-81547D01*
X5071Y-81583D01*
X5151Y-81605D01*
X5216Y-81627D01*
X5224D01*
X5231Y-81634D01*
X5275Y-81656D01*
X5340Y-81685D01*
X5421Y-81736D01*
X5508Y-81802D01*
X5603Y-81889D01*
X5690Y-81992D01*
X5778Y-82108D01*
Y-82116D01*
X5785Y-82123D01*
X5814Y-82167D01*
X5843Y-82240D01*
X5887Y-82334D01*
X5923Y-82444D01*
X5960Y-82575D01*
X5982Y-82713D01*
X5989Y-82866D01*
Y-82874D01*
Y-82888D01*
Y-82917D01*
X5982Y-82954D01*
Y-83005D01*
X5974Y-83056D01*
X5945Y-83180D01*
X5902Y-83326D01*
X5843Y-83479D01*
X5756Y-83632D01*
X5697Y-83705D01*
X5639Y-83778D01*
X5632Y-83785D01*
X5625Y-83792D01*
X5603Y-83814D01*
X5573Y-83836D01*
X5537Y-83865D01*
X5493Y-83894D01*
X5435Y-83931D01*
X5377Y-83974D01*
X5304Y-84011D01*
X5224Y-84047D01*
X5136Y-84091D01*
X5041Y-84128D01*
X4932Y-84157D01*
X4823Y-84193D01*
X4699Y-84215D01*
X4567Y-84237D01*
X4582Y-84244D01*
X4611Y-84259D01*
X4655Y-84288D01*
X4713Y-84317D01*
X4845Y-84397D01*
X4910Y-84448D01*
X4969Y-84492D01*
X4983Y-84507D01*
X5020Y-84543D01*
X5078Y-84601D01*
X5151Y-84674D01*
X5231Y-84776D01*
X5326Y-84886D01*
X5421Y-85017D01*
X5522Y-85163D01*
X6390Y-86533D01*
X5559D01*
X4896Y-85483D01*
Y-85476D01*
X4881Y-85462D01*
X4866Y-85440D01*
X4845Y-85411D01*
X4794Y-85330D01*
X4728Y-85228D01*
X4648Y-85119D01*
X4567Y-85002D01*
X4487Y-84893D01*
X4414Y-84791D01*
X4407Y-84784D01*
X4385Y-84755D01*
X4349Y-84711D01*
X4298Y-84660D01*
X4188Y-84550D01*
X4130Y-84499D01*
X4072Y-84456D01*
X4064Y-84448D01*
X4050Y-84441D01*
X4021Y-84426D01*
X3977Y-84405D01*
X3933Y-84383D01*
X3882Y-84361D01*
X3766Y-84324D01*
X3758D01*
X3744Y-84317D01*
X3715D01*
X3678Y-84310D01*
X3627Y-84303D01*
X3569D01*
X3489Y-84295D01*
X2628D01*
Y-86533D01*
X1958D01*
Y-81489D01*
X4298D01*
X4356Y-81496D01*
D02*
G37*
G36*
X-2421Y-86789D02*
X-3040D01*
Y-82845D01*
X-3048Y-82853D01*
X-3084Y-82882D01*
X-3128Y-82925D01*
X-3201Y-82977D01*
X-3281Y-83042D01*
X-3383Y-83115D01*
X-3500Y-83195D01*
X-3631Y-83275D01*
X-3638D01*
X-3645Y-83283D01*
X-3689Y-83312D01*
X-3762Y-83348D01*
X-3850Y-83392D01*
X-3951Y-83443D01*
X-4061Y-83494D01*
X-4170Y-83545D01*
X-4280Y-83589D01*
Y-82991D01*
X-4272D01*
X-4258Y-82977D01*
X-4228Y-82969D01*
X-4192Y-82947D01*
X-4148Y-82925D01*
X-4097Y-82896D01*
X-3973Y-82823D01*
X-3828Y-82743D01*
X-3682Y-82641D01*
X-3529Y-82525D01*
X-3376Y-82401D01*
X-3368Y-82393D01*
X-3361Y-82386D01*
X-3339Y-82364D01*
X-3310Y-82342D01*
X-3244Y-82269D01*
X-3157Y-82182D01*
X-3069Y-82080D01*
X-2975Y-81963D01*
X-2895Y-81847D01*
X-2822Y-81723D01*
X-2421D01*
Y-86789D01*
D02*
G37*
G36*
X-7181Y-81752D02*
X-7115D01*
X-6962Y-81759D01*
X-6802Y-81781D01*
X-6627Y-81803D01*
X-6467Y-81839D01*
X-6386Y-81861D01*
X-6321Y-81883D01*
X-6313D01*
X-6306Y-81890D01*
X-6262Y-81912D01*
X-6197Y-81941D01*
X-6117Y-81992D01*
X-6029Y-82058D01*
X-5934Y-82146D01*
X-5847Y-82248D01*
X-5759Y-82364D01*
Y-82371D01*
X-5752Y-82379D01*
X-5723Y-82423D01*
X-5694Y-82495D01*
X-5650Y-82590D01*
X-5614Y-82700D01*
X-5577Y-82831D01*
X-5555Y-82969D01*
X-5548Y-83122D01*
Y-83130D01*
Y-83144D01*
Y-83173D01*
X-5555Y-83210D01*
Y-83261D01*
X-5563Y-83312D01*
X-5592Y-83436D01*
X-5635Y-83582D01*
X-5694Y-83735D01*
X-5781Y-83888D01*
X-5840Y-83961D01*
X-5898Y-84034D01*
X-5905Y-84041D01*
X-5912Y-84048D01*
X-5934Y-84070D01*
X-5964Y-84092D01*
X-6000Y-84121D01*
X-6044Y-84150D01*
X-6102Y-84187D01*
X-6160Y-84230D01*
X-6233Y-84267D01*
X-6313Y-84303D01*
X-6401Y-84347D01*
X-6496Y-84383D01*
X-6605Y-84413D01*
X-6714Y-84449D01*
X-6838Y-84471D01*
X-6970Y-84493D01*
X-6955Y-84500D01*
X-6926Y-84515D01*
X-6882Y-84544D01*
X-6824Y-84573D01*
X-6692Y-84653D01*
X-6627Y-84704D01*
X-6569Y-84748D01*
X-6554Y-84763D01*
X-6518Y-84799D01*
X-6459Y-84857D01*
X-6386Y-84930D01*
X-6306Y-85032D01*
X-6211Y-85142D01*
X-6117Y-85273D01*
X-6015Y-85419D01*
X-5147Y-86789D01*
X-5978D01*
X-6641Y-85739D01*
Y-85732D01*
X-6656Y-85718D01*
X-6671Y-85696D01*
X-6692Y-85667D01*
X-6744Y-85586D01*
X-6809Y-85484D01*
X-6889Y-85375D01*
X-6970Y-85258D01*
X-7050Y-85149D01*
X-7123Y-85047D01*
X-7130Y-85040D01*
X-7152Y-85010D01*
X-7188Y-84967D01*
X-7239Y-84916D01*
X-7349Y-84806D01*
X-7407Y-84755D01*
X-7465Y-84711D01*
X-7473Y-84704D01*
X-7487Y-84697D01*
X-7516Y-84682D01*
X-7560Y-84661D01*
X-7604Y-84639D01*
X-7655Y-84617D01*
X-7772Y-84580D01*
X-7779D01*
X-7793Y-84573D01*
X-7823D01*
X-7859Y-84566D01*
X-7910Y-84558D01*
X-7968D01*
X-8049Y-84551D01*
X-8909D01*
Y-86789D01*
X-9579D01*
Y-81744D01*
X-7239D01*
X-7181Y-81752D01*
D02*
G37*
G36*
X39864Y-152819D02*
X39914Y-152824D01*
X39975Y-152830D01*
X40036Y-152835D01*
X40108Y-152852D01*
X40258Y-152885D01*
X40424Y-152935D01*
X40508Y-152969D01*
X40585Y-153007D01*
X40663Y-153057D01*
X40741Y-153107D01*
X40746Y-153113D01*
X40758Y-153118D01*
X40780Y-153135D01*
X40808Y-153163D01*
X40835Y-153191D01*
X40874Y-153229D01*
X40913Y-153274D01*
X40957Y-153318D01*
X41002Y-153374D01*
X41046Y-153440D01*
X41096Y-153507D01*
X41140Y-153579D01*
X41179Y-153662D01*
X41224Y-153745D01*
X41257Y-153834D01*
X41290Y-153934D01*
X40791Y-154051D01*
Y-154045D01*
X40785Y-154034D01*
X40774Y-154012D01*
X40763Y-153984D01*
X40752Y-153951D01*
X40735Y-153906D01*
X40691Y-153818D01*
X40635Y-153718D01*
X40569Y-153618D01*
X40486Y-153524D01*
X40397Y-153440D01*
X40386Y-153429D01*
X40352Y-153407D01*
X40297Y-153379D01*
X40225Y-153340D01*
X40130Y-153307D01*
X40025Y-153274D01*
X39897Y-153252D01*
X39759Y-153246D01*
X39714D01*
X39686Y-153252D01*
X39647D01*
X39603Y-153257D01*
X39498Y-153274D01*
X39381Y-153296D01*
X39259Y-153335D01*
X39131Y-153390D01*
X39015Y-153462D01*
X39009D01*
X39004Y-153474D01*
X38965Y-153501D01*
X38915Y-153546D01*
X38854Y-153612D01*
X38782Y-153696D01*
X38715Y-153790D01*
X38654Y-153906D01*
X38599Y-154034D01*
Y-154040D01*
X38593Y-154051D01*
X38587Y-154067D01*
X38582Y-154095D01*
X38571Y-154128D01*
X38560Y-154167D01*
X38543Y-154262D01*
X38521Y-154373D01*
X38499Y-154495D01*
X38487Y-154628D01*
X38482Y-154772D01*
Y-154778D01*
Y-154795D01*
Y-154822D01*
Y-154856D01*
X38487Y-154894D01*
Y-154944D01*
X38493Y-155000D01*
X38499Y-155061D01*
X38515Y-155194D01*
X38543Y-155338D01*
X38576Y-155483D01*
X38621Y-155627D01*
Y-155632D01*
X38626Y-155644D01*
X38637Y-155660D01*
X38649Y-155688D01*
X38682Y-155755D01*
X38732Y-155832D01*
X38793Y-155921D01*
X38870Y-156016D01*
X38959Y-156099D01*
X39065Y-156176D01*
X39070D01*
X39081Y-156182D01*
X39098Y-156193D01*
X39120Y-156204D01*
X39148Y-156215D01*
X39181Y-156232D01*
X39259Y-156265D01*
X39359Y-156298D01*
X39470Y-156326D01*
X39592Y-156349D01*
X39720Y-156354D01*
X39759D01*
X39792Y-156349D01*
X39831D01*
X39869Y-156343D01*
X39969Y-156321D01*
X40086Y-156293D01*
X40203Y-156249D01*
X40325Y-156187D01*
X40386Y-156154D01*
X40441Y-156110D01*
X40447Y-156104D01*
X40452Y-156099D01*
X40469Y-156082D01*
X40491Y-156065D01*
X40513Y-156038D01*
X40541Y-156004D01*
X40574Y-155971D01*
X40602Y-155927D01*
X40635Y-155877D01*
X40674Y-155821D01*
X40707Y-155766D01*
X40741Y-155699D01*
X40769Y-155627D01*
X40796Y-155549D01*
X40824Y-155466D01*
X40846Y-155377D01*
X41357Y-155505D01*
Y-155510D01*
X41351Y-155533D01*
X41340Y-155566D01*
X41324Y-155610D01*
X41307Y-155660D01*
X41285Y-155721D01*
X41257Y-155788D01*
X41224Y-155860D01*
X41146Y-156016D01*
X41046Y-156171D01*
X40985Y-156249D01*
X40924Y-156326D01*
X40857Y-156393D01*
X40780Y-156459D01*
X40774Y-156465D01*
X40763Y-156476D01*
X40735Y-156487D01*
X40707Y-156509D01*
X40663Y-156537D01*
X40619Y-156565D01*
X40558Y-156593D01*
X40497Y-156620D01*
X40424Y-156654D01*
X40347Y-156681D01*
X40264Y-156709D01*
X40175Y-156737D01*
X40080Y-156759D01*
X39981Y-156770D01*
X39875Y-156781D01*
X39764Y-156787D01*
X39703D01*
X39659Y-156781D01*
X39609D01*
X39548Y-156776D01*
X39481Y-156765D01*
X39403Y-156754D01*
X39242Y-156726D01*
X39076Y-156681D01*
X38909Y-156620D01*
X38832Y-156581D01*
X38754Y-156537D01*
X38748Y-156532D01*
X38737Y-156526D01*
X38715Y-156509D01*
X38693Y-156487D01*
X38660Y-156465D01*
X38621Y-156432D01*
X38576Y-156393D01*
X38532Y-156349D01*
X38487Y-156298D01*
X38438Y-156249D01*
X38338Y-156121D01*
X38243Y-155971D01*
X38160Y-155805D01*
Y-155799D01*
X38149Y-155782D01*
X38144Y-155755D01*
X38127Y-155721D01*
X38116Y-155677D01*
X38099Y-155621D01*
X38077Y-155560D01*
X38060Y-155494D01*
X38043Y-155422D01*
X38021Y-155338D01*
X37994Y-155166D01*
X37971Y-154972D01*
X37960Y-154772D01*
Y-154767D01*
Y-154745D01*
Y-154711D01*
X37966Y-154672D01*
Y-154617D01*
X37971Y-154561D01*
X37977Y-154489D01*
X37988Y-154417D01*
X38016Y-154256D01*
X38055Y-154078D01*
X38110Y-153901D01*
X38188Y-153729D01*
X38193Y-153723D01*
X38199Y-153707D01*
X38210Y-153684D01*
X38232Y-153657D01*
X38254Y-153618D01*
X38282Y-153574D01*
X38354Y-153474D01*
X38449Y-153363D01*
X38560Y-153252D01*
X38687Y-153141D01*
X38837Y-153046D01*
X38843Y-153041D01*
X38859Y-153035D01*
X38882Y-153024D01*
X38909Y-153007D01*
X38954Y-152991D01*
X38998Y-152974D01*
X39054Y-152952D01*
X39115Y-152930D01*
X39181Y-152907D01*
X39253Y-152885D01*
X39409Y-152852D01*
X39586Y-152824D01*
X39770Y-152813D01*
X39825D01*
X39864Y-152819D01*
D02*
G37*
G36*
X45003Y-156720D02*
X44476D01*
X42467Y-153707D01*
Y-156720D01*
X41978D01*
Y-152880D01*
X42500D01*
X44515Y-155899D01*
Y-152880D01*
X45003D01*
Y-156720D01*
D02*
G37*
G36*
X47440D02*
X46968D01*
Y-153718D01*
X46962Y-153723D01*
X46935Y-153745D01*
X46901Y-153779D01*
X46846Y-153818D01*
X46785Y-153868D01*
X46707Y-153923D01*
X46618Y-153984D01*
X46518Y-154045D01*
X46513D01*
X46507Y-154051D01*
X46474Y-154073D01*
X46418Y-154101D01*
X46352Y-154134D01*
X46274Y-154173D01*
X46191Y-154212D01*
X46108Y-154251D01*
X46025Y-154284D01*
Y-153829D01*
X46030D01*
X46041Y-153818D01*
X46063Y-153812D01*
X46091Y-153796D01*
X46124Y-153779D01*
X46163Y-153757D01*
X46257Y-153701D01*
X46369Y-153640D01*
X46480Y-153562D01*
X46596Y-153474D01*
X46713Y-153379D01*
X46718Y-153374D01*
X46724Y-153368D01*
X46740Y-153351D01*
X46763Y-153335D01*
X46812Y-153279D01*
X46879Y-153213D01*
X46946Y-153135D01*
X47018Y-153046D01*
X47079Y-152957D01*
X47134Y-152863D01*
X47440D01*
Y-156720D01*
D02*
G37*
G36*
X-9426Y124934D02*
X-8905D01*
Y124501D01*
X-9426D01*
Y123580D01*
X-9898D01*
Y124501D01*
X-11569D01*
Y124934D01*
X-9809Y127420D01*
X-9426D01*
Y124934D01*
D02*
G37*
G36*
X-13511Y127415D02*
X-13400Y127409D01*
X-13289Y127398D01*
X-13178Y127381D01*
X-13084Y127365D01*
X-13078D01*
X-13067Y127359D01*
X-13050D01*
X-13028Y127348D01*
X-12967Y127331D01*
X-12889Y127304D01*
X-12801Y127265D01*
X-12706Y127215D01*
X-12612Y127159D01*
X-12523Y127087D01*
X-12518Y127082D01*
X-12512Y127076D01*
X-12495Y127059D01*
X-12473Y127043D01*
X-12418Y126987D01*
X-12351Y126910D01*
X-12279Y126815D01*
X-12201Y126704D01*
X-12129Y126577D01*
X-12068Y126432D01*
Y126427D01*
X-12063Y126416D01*
X-12051Y126394D01*
X-12046Y126360D01*
X-12029Y126321D01*
X-12018Y126277D01*
X-12007Y126227D01*
X-11990Y126166D01*
X-11974Y126105D01*
X-11963Y126033D01*
X-11935Y125877D01*
X-11918Y125705D01*
X-11913Y125517D01*
Y125511D01*
Y125500D01*
Y125472D01*
Y125444D01*
X-11918Y125406D01*
Y125361D01*
X-11924Y125256D01*
X-11940Y125134D01*
X-11957Y125006D01*
X-11985Y124873D01*
X-12018Y124740D01*
Y124734D01*
X-12024Y124723D01*
X-12029Y124706D01*
X-12035Y124684D01*
X-12057Y124623D01*
X-12090Y124545D01*
X-12124Y124457D01*
X-12168Y124368D01*
X-12224Y124274D01*
X-12279Y124185D01*
X-12285Y124174D01*
X-12307Y124146D01*
X-12340Y124107D01*
X-12384Y124057D01*
X-12434Y124002D01*
X-12495Y123946D01*
X-12557Y123885D01*
X-12629Y123835D01*
X-12640Y123829D01*
X-12662Y123813D01*
X-12701Y123791D01*
X-12756Y123763D01*
X-12823Y123730D01*
X-12901Y123702D01*
X-12989Y123669D01*
X-13089Y123641D01*
X-13100D01*
X-13117Y123635D01*
X-13134Y123630D01*
X-13189Y123624D01*
X-13267Y123613D01*
X-13356Y123602D01*
X-13461Y123591D01*
X-13578Y123585D01*
X-13705Y123580D01*
X-15087D01*
Y127420D01*
X-13611D01*
X-13511Y127415D01*
D02*
G37*
G36*
X-17585Y124035D02*
X-15692D01*
Y123580D01*
X-18095D01*
Y127420D01*
X-17585D01*
Y124035D01*
D02*
G37*
G36*
X33726Y136981D02*
X33776Y136976D01*
X33837Y136970D01*
X33898Y136965D01*
X33970Y136948D01*
X34120Y136915D01*
X34287Y136865D01*
X34370Y136831D01*
X34448Y136793D01*
X34525Y136743D01*
X34603Y136693D01*
X34609Y136687D01*
X34620Y136682D01*
X34642Y136665D01*
X34670Y136637D01*
X34697Y136609D01*
X34736Y136571D01*
X34775Y136526D01*
X34820Y136482D01*
X34864Y136426D01*
X34908Y136360D01*
X34958Y136293D01*
X35003Y136221D01*
X35042Y136138D01*
X35086Y136055D01*
X35119Y135966D01*
X35153Y135866D01*
X34653Y135749D01*
Y135755D01*
X34648Y135766D01*
X34637Y135788D01*
X34625Y135816D01*
X34614Y135849D01*
X34598Y135894D01*
X34553Y135982D01*
X34498Y136082D01*
X34431Y136182D01*
X34348Y136276D01*
X34259Y136360D01*
X34248Y136371D01*
X34215Y136393D01*
X34159Y136421D01*
X34087Y136460D01*
X33993Y136493D01*
X33887Y136526D01*
X33760Y136548D01*
X33621Y136554D01*
X33576D01*
X33549Y136548D01*
X33510D01*
X33465Y136543D01*
X33360Y136526D01*
X33243Y136504D01*
X33121Y136465D01*
X32994Y136410D01*
X32877Y136338D01*
X32872D01*
X32866Y136326D01*
X32827Y136299D01*
X32777Y136254D01*
X32716Y136188D01*
X32644Y136104D01*
X32577Y136010D01*
X32516Y135894D01*
X32461Y135766D01*
Y135760D01*
X32455Y135749D01*
X32450Y135733D01*
X32444Y135705D01*
X32433Y135672D01*
X32422Y135633D01*
X32405Y135538D01*
X32383Y135427D01*
X32361Y135305D01*
X32350Y135172D01*
X32344Y135028D01*
Y135022D01*
Y135005D01*
Y134978D01*
Y134944D01*
X32350Y134906D01*
Y134856D01*
X32355Y134800D01*
X32361Y134739D01*
X32378Y134606D01*
X32405Y134462D01*
X32439Y134317D01*
X32483Y134173D01*
Y134168D01*
X32489Y134156D01*
X32500Y134140D01*
X32511Y134112D01*
X32544Y134045D01*
X32594Y133968D01*
X32655Y133879D01*
X32733Y133784D01*
X32822Y133701D01*
X32927Y133624D01*
X32933D01*
X32944Y133618D01*
X32960Y133607D01*
X32983Y133596D01*
X33010Y133585D01*
X33044Y133568D01*
X33121Y133535D01*
X33221Y133502D01*
X33332Y133474D01*
X33454Y133451D01*
X33582Y133446D01*
X33621D01*
X33654Y133451D01*
X33693D01*
X33732Y133457D01*
X33832Y133479D01*
X33948Y133507D01*
X34065Y133551D01*
X34187Y133613D01*
X34248Y133646D01*
X34304Y133690D01*
X34309Y133696D01*
X34315Y133701D01*
X34331Y133718D01*
X34353Y133735D01*
X34376Y133762D01*
X34403Y133796D01*
X34437Y133829D01*
X34464Y133873D01*
X34498Y133923D01*
X34537Y133979D01*
X34570Y134034D01*
X34603Y134101D01*
X34631Y134173D01*
X34659Y134251D01*
X34686Y134334D01*
X34709Y134423D01*
X35219Y134295D01*
Y134290D01*
X35214Y134267D01*
X35203Y134234D01*
X35186Y134190D01*
X35169Y134140D01*
X35147Y134079D01*
X35119Y134012D01*
X35086Y133940D01*
X35008Y133784D01*
X34908Y133629D01*
X34847Y133551D01*
X34786Y133474D01*
X34720Y133407D01*
X34642Y133341D01*
X34637Y133335D01*
X34625Y133324D01*
X34598Y133313D01*
X34570Y133291D01*
X34525Y133263D01*
X34481Y133235D01*
X34420Y133207D01*
X34359Y133180D01*
X34287Y133146D01*
X34209Y133119D01*
X34126Y133091D01*
X34037Y133063D01*
X33943Y133041D01*
X33843Y133030D01*
X33737Y133019D01*
X33626Y133013D01*
X33565D01*
X33521Y133019D01*
X33471D01*
X33410Y133024D01*
X33343Y133035D01*
X33266Y133046D01*
X33105Y133074D01*
X32938Y133119D01*
X32772Y133180D01*
X32694Y133219D01*
X32616Y133263D01*
X32611Y133268D01*
X32600Y133274D01*
X32577Y133291D01*
X32555Y133313D01*
X32522Y133335D01*
X32483Y133368D01*
X32439Y133407D01*
X32394Y133451D01*
X32350Y133502D01*
X32300Y133551D01*
X32200Y133679D01*
X32106Y133829D01*
X32022Y133995D01*
Y134001D01*
X32011Y134018D01*
X32006Y134045D01*
X31989Y134079D01*
X31978Y134123D01*
X31961Y134179D01*
X31939Y134240D01*
X31923Y134306D01*
X31906Y134378D01*
X31884Y134462D01*
X31856Y134634D01*
X31834Y134828D01*
X31823Y135028D01*
Y135033D01*
Y135055D01*
Y135089D01*
X31828Y135128D01*
Y135183D01*
X31834Y135239D01*
X31839Y135311D01*
X31850Y135383D01*
X31878Y135544D01*
X31917Y135722D01*
X31973Y135899D01*
X32050Y136071D01*
X32056Y136077D01*
X32061Y136093D01*
X32072Y136116D01*
X32095Y136143D01*
X32117Y136182D01*
X32144Y136226D01*
X32217Y136326D01*
X32311Y136437D01*
X32422Y136548D01*
X32550Y136659D01*
X32699Y136754D01*
X32705Y136759D01*
X32722Y136765D01*
X32744Y136776D01*
X32772Y136793D01*
X32816Y136809D01*
X32860Y136826D01*
X32916Y136848D01*
X32977Y136870D01*
X33044Y136893D01*
X33116Y136915D01*
X33271Y136948D01*
X33449Y136976D01*
X33632Y136987D01*
X33687D01*
X33726Y136981D01*
D02*
G37*
G36*
X36923Y136931D02*
X36951D01*
X36990Y136926D01*
X37084Y136909D01*
X37189Y136887D01*
X37306Y136848D01*
X37423Y136798D01*
X37539Y136732D01*
X37545D01*
X37550Y136721D01*
X37567Y136709D01*
X37589Y136693D01*
X37645Y136648D01*
X37717Y136587D01*
X37789Y136504D01*
X37872Y136404D01*
X37944Y136288D01*
X38011Y136154D01*
Y136149D01*
X38016Y136138D01*
X38028Y136116D01*
X38039Y136088D01*
X38050Y136049D01*
X38066Y135999D01*
X38078Y135943D01*
X38094Y135882D01*
X38111Y135810D01*
X38127Y135727D01*
X38138Y135638D01*
X38150Y135544D01*
X38161Y135438D01*
X38172Y135327D01*
X38177Y135205D01*
Y135078D01*
Y135072D01*
Y135044D01*
Y135005D01*
Y134956D01*
X38172Y134895D01*
Y134822D01*
X38166Y134739D01*
X38155Y134656D01*
X38138Y134467D01*
X38111Y134267D01*
X38072Y134079D01*
X38044Y133984D01*
X38016Y133901D01*
Y133896D01*
X38011Y133884D01*
X38000Y133862D01*
X37989Y133829D01*
X37972Y133796D01*
X37950Y133751D01*
X37894Y133657D01*
X37828Y133551D01*
X37750Y133440D01*
X37650Y133335D01*
X37539Y133241D01*
X37534D01*
X37523Y133229D01*
X37506Y133219D01*
X37484Y133207D01*
X37450Y133191D01*
X37417Y133168D01*
X37373Y133146D01*
X37328Y133130D01*
X37223Y133085D01*
X37095Y133046D01*
X36956Y133024D01*
X36801Y133013D01*
X36757D01*
X36729Y133019D01*
X36690D01*
X36646Y133024D01*
X36540Y133046D01*
X36424Y133074D01*
X36301Y133119D01*
X36179Y133180D01*
X36118Y133219D01*
X36063Y133263D01*
X36057Y133268D01*
X36052Y133274D01*
X36035Y133291D01*
X36018Y133307D01*
X35996Y133335D01*
X35969Y133368D01*
X35913Y133446D01*
X35857Y133546D01*
X35802Y133668D01*
X35758Y133807D01*
X35724Y133968D01*
X36179Y134007D01*
Y134001D01*
X36185Y133990D01*
Y133979D01*
X36191Y133957D01*
X36207Y133896D01*
X36229Y133829D01*
X36257Y133751D01*
X36296Y133674D01*
X36340Y133601D01*
X36396Y133540D01*
X36401Y133535D01*
X36424Y133518D01*
X36462Y133496D01*
X36507Y133474D01*
X36568Y133446D01*
X36640Y133424D01*
X36723Y133407D01*
X36812Y133402D01*
X36851D01*
X36890Y133407D01*
X36940Y133413D01*
X37001Y133424D01*
X37062Y133440D01*
X37128Y133463D01*
X37189Y133496D01*
X37195Y133502D01*
X37217Y133513D01*
X37251Y133535D01*
X37284Y133568D01*
X37328Y133607D01*
X37373Y133651D01*
X37417Y133701D01*
X37461Y133762D01*
X37467Y133768D01*
X37478Y133796D01*
X37500Y133835D01*
X37523Y133884D01*
X37550Y133951D01*
X37578Y134029D01*
X37606Y134118D01*
X37633Y134218D01*
Y134223D01*
X37639Y134229D01*
Y134245D01*
X37645Y134267D01*
X37656Y134323D01*
X37672Y134395D01*
X37683Y134484D01*
X37694Y134578D01*
X37700Y134684D01*
X37706Y134795D01*
Y134800D01*
Y134817D01*
Y134845D01*
Y134889D01*
X37700Y134878D01*
X37678Y134850D01*
X37645Y134811D01*
X37606Y134756D01*
X37550Y134700D01*
X37484Y134639D01*
X37406Y134578D01*
X37317Y134523D01*
X37306Y134517D01*
X37273Y134501D01*
X37223Y134478D01*
X37162Y134456D01*
X37078Y134428D01*
X36990Y134406D01*
X36890Y134389D01*
X36784Y134384D01*
X36740D01*
X36707Y134389D01*
X36662Y134395D01*
X36618Y134401D01*
X36562Y134412D01*
X36507Y134428D01*
X36379Y134467D01*
X36313Y134495D01*
X36246Y134528D01*
X36174Y134567D01*
X36107Y134617D01*
X36041Y134667D01*
X35980Y134728D01*
X35974Y134734D01*
X35963Y134745D01*
X35952Y134761D01*
X35930Y134789D01*
X35902Y134828D01*
X35874Y134867D01*
X35846Y134917D01*
X35819Y134972D01*
X35785Y135033D01*
X35758Y135100D01*
X35730Y135178D01*
X35702Y135255D01*
X35680Y135344D01*
X35669Y135438D01*
X35658Y135533D01*
X35652Y135638D01*
Y135644D01*
Y135666D01*
Y135694D01*
X35658Y135733D01*
X35663Y135783D01*
X35669Y135844D01*
X35680Y135905D01*
X35697Y135977D01*
X35735Y136121D01*
X35763Y136199D01*
X35796Y136282D01*
X35835Y136360D01*
X35885Y136432D01*
X35935Y136510D01*
X35996Y136576D01*
X36002Y136582D01*
X36013Y136593D01*
X36029Y136609D01*
X36057Y136632D01*
X36091Y136659D01*
X36135Y136693D01*
X36179Y136721D01*
X36235Y136759D01*
X36290Y136793D01*
X36357Y136820D01*
X36507Y136881D01*
X36584Y136904D01*
X36673Y136920D01*
X36762Y136931D01*
X36856Y136937D01*
X36895D01*
X36923Y136931D01*
D02*
G37*
G36*
X98645Y-89044D02*
X98684D01*
X98729Y-89049D01*
X98834Y-89071D01*
X98951Y-89099D01*
X99073Y-89144D01*
X99195Y-89210D01*
X99256Y-89249D01*
X99311Y-89293D01*
X99317Y-89299D01*
X99322Y-89305D01*
X99339Y-89321D01*
X99356Y-89338D01*
X99384Y-89366D01*
X99406Y-89399D01*
X99467Y-89477D01*
X99528Y-89576D01*
X99583Y-89698D01*
X99633Y-89837D01*
X99667Y-89993D01*
X99195Y-90031D01*
Y-90026D01*
X99189Y-90020D01*
X99184Y-89987D01*
X99167Y-89937D01*
X99145Y-89876D01*
X99123Y-89810D01*
X99089Y-89743D01*
X99050Y-89682D01*
X99012Y-89632D01*
X99001Y-89621D01*
X98978Y-89599D01*
X98940Y-89565D01*
X98884Y-89526D01*
X98812Y-89493D01*
X98734Y-89460D01*
X98640Y-89438D01*
X98540Y-89427D01*
X98501D01*
X98457Y-89432D01*
X98407Y-89443D01*
X98340Y-89460D01*
X98274Y-89482D01*
X98207Y-89510D01*
X98140Y-89554D01*
X98129Y-89560D01*
X98102Y-89582D01*
X98063Y-89621D01*
X98013Y-89676D01*
X97957Y-89743D01*
X97896Y-89821D01*
X97841Y-89921D01*
X97785Y-90031D01*
Y-90037D01*
X97780Y-90048D01*
X97774Y-90065D01*
X97763Y-90087D01*
X97757Y-90120D01*
X97746Y-90159D01*
X97735Y-90204D01*
X97724Y-90259D01*
X97707Y-90320D01*
X97696Y-90387D01*
X97685Y-90459D01*
X97680Y-90537D01*
X97669Y-90625D01*
X97663Y-90714D01*
X97658Y-90814D01*
Y-90914D01*
X97663Y-90908D01*
X97685Y-90875D01*
X97724Y-90831D01*
X97774Y-90775D01*
X97830Y-90709D01*
X97902Y-90648D01*
X97979Y-90587D01*
X98068Y-90531D01*
X98074D01*
X98079Y-90526D01*
X98113Y-90509D01*
X98163Y-90492D01*
X98229Y-90464D01*
X98307Y-90442D01*
X98396Y-90426D01*
X98490Y-90409D01*
X98590Y-90403D01*
X98634D01*
X98668Y-90409D01*
X98712Y-90415D01*
X98756Y-90420D01*
X98812Y-90431D01*
X98867Y-90448D01*
X98995Y-90487D01*
X99062Y-90514D01*
X99128Y-90553D01*
X99195Y-90592D01*
X99267Y-90636D01*
X99334Y-90692D01*
X99395Y-90753D01*
X99400Y-90759D01*
X99411Y-90770D01*
X99428Y-90786D01*
X99445Y-90814D01*
X99472Y-90853D01*
X99500Y-90892D01*
X99528Y-90942D01*
X99561Y-90997D01*
X99594Y-91058D01*
X99622Y-91125D01*
X99650Y-91203D01*
X99678Y-91280D01*
X99694Y-91364D01*
X99711Y-91458D01*
X99722Y-91552D01*
X99728Y-91652D01*
Y-91658D01*
Y-91669D01*
Y-91685D01*
Y-91713D01*
X99722Y-91746D01*
Y-91780D01*
X99705Y-91869D01*
X99689Y-91974D01*
X99661Y-92085D01*
X99622Y-92207D01*
X99567Y-92324D01*
Y-92329D01*
X99561Y-92335D01*
X99550Y-92351D01*
X99539Y-92374D01*
X99506Y-92429D01*
X99456Y-92501D01*
X99395Y-92579D01*
X99322Y-92657D01*
X99234Y-92734D01*
X99139Y-92801D01*
X99134D01*
X99128Y-92807D01*
X99112Y-92818D01*
X99089Y-92823D01*
X99034Y-92851D01*
X98962Y-92879D01*
X98867Y-92912D01*
X98762Y-92934D01*
X98645Y-92956D01*
X98518Y-92962D01*
X98490D01*
X98462Y-92956D01*
X98418D01*
X98368Y-92951D01*
X98312Y-92940D01*
X98246Y-92923D01*
X98179Y-92906D01*
X98102Y-92884D01*
X98024Y-92857D01*
X97946Y-92823D01*
X97863Y-92779D01*
X97785Y-92729D01*
X97707Y-92673D01*
X97630Y-92607D01*
X97558Y-92529D01*
X97552Y-92523D01*
X97541Y-92507D01*
X97524Y-92485D01*
X97502Y-92446D01*
X97469Y-92396D01*
X97441Y-92340D01*
X97408Y-92268D01*
X97374Y-92190D01*
X97336Y-92096D01*
X97302Y-91991D01*
X97275Y-91874D01*
X97247Y-91746D01*
X97219Y-91602D01*
X97202Y-91447D01*
X97191Y-91280D01*
X97186Y-91103D01*
Y-91097D01*
Y-91092D01*
Y-91075D01*
Y-91053D01*
X97191Y-90997D01*
Y-90920D01*
X97197Y-90831D01*
X97208Y-90725D01*
X97219Y-90609D01*
X97236Y-90481D01*
X97258Y-90353D01*
X97286Y-90215D01*
X97319Y-90082D01*
X97358Y-89948D01*
X97408Y-89821D01*
X97463Y-89698D01*
X97524Y-89582D01*
X97597Y-89482D01*
X97602Y-89477D01*
X97613Y-89465D01*
X97635Y-89443D01*
X97663Y-89410D01*
X97696Y-89377D01*
X97741Y-89343D01*
X97796Y-89299D01*
X97852Y-89260D01*
X97918Y-89221D01*
X97991Y-89177D01*
X98074Y-89144D01*
X98157Y-89105D01*
X98251Y-89077D01*
X98351Y-89055D01*
X98457Y-89044D01*
X98568Y-89038D01*
X98612D01*
X98645Y-89044D01*
D02*
G37*
G36*
X95587D02*
X95632Y-89049D01*
X95687Y-89055D01*
X95748Y-89066D01*
X95809Y-89077D01*
X95954Y-89116D01*
X96098Y-89171D01*
X96170Y-89205D01*
X96242Y-89243D01*
X96309Y-89293D01*
X96370Y-89349D01*
X96376Y-89354D01*
X96386Y-89360D01*
X96398Y-89382D01*
X96420Y-89404D01*
X96448Y-89432D01*
X96475Y-89471D01*
X96503Y-89510D01*
X96536Y-89560D01*
X96592Y-89665D01*
X96647Y-89798D01*
X96670Y-89865D01*
X96681Y-89943D01*
X96692Y-90020D01*
X96697Y-90104D01*
Y-90115D01*
Y-90143D01*
X96692Y-90187D01*
X96686Y-90248D01*
X96675Y-90315D01*
X96653Y-90392D01*
X96631Y-90475D01*
X96597Y-90559D01*
X96592Y-90570D01*
X96581Y-90598D01*
X96559Y-90642D01*
X96525Y-90703D01*
X96481Y-90770D01*
X96425Y-90853D01*
X96359Y-90936D01*
X96281Y-91031D01*
X96270Y-91042D01*
X96242Y-91075D01*
X96214Y-91103D01*
X96187Y-91130D01*
X96153Y-91164D01*
X96109Y-91208D01*
X96065Y-91252D01*
X96009Y-91303D01*
X95954Y-91358D01*
X95887Y-91419D01*
X95815Y-91480D01*
X95737Y-91552D01*
X95648Y-91624D01*
X95560Y-91702D01*
X95554Y-91708D01*
X95543Y-91719D01*
X95521Y-91735D01*
X95493Y-91758D01*
X95460Y-91791D01*
X95421Y-91824D01*
X95332Y-91896D01*
X95238Y-91980D01*
X95149Y-92063D01*
X95071Y-92135D01*
X95038Y-92163D01*
X95010Y-92190D01*
X95005Y-92196D01*
X94988Y-92213D01*
X94966Y-92235D01*
X94938Y-92268D01*
X94910Y-92307D01*
X94877Y-92346D01*
X94810Y-92440D01*
X96703D01*
Y-92895D01*
X94155D01*
Y-92890D01*
Y-92868D01*
Y-92834D01*
X94161Y-92790D01*
X94166Y-92740D01*
X94178Y-92684D01*
X94189Y-92629D01*
X94211Y-92568D01*
Y-92562D01*
X94217Y-92557D01*
X94228Y-92523D01*
X94250Y-92474D01*
X94283Y-92407D01*
X94327Y-92329D01*
X94383Y-92240D01*
X94444Y-92152D01*
X94522Y-92057D01*
Y-92052D01*
X94533Y-92046D01*
X94561Y-92013D01*
X94611Y-91963D01*
X94683Y-91891D01*
X94766Y-91808D01*
X94871Y-91708D01*
X94999Y-91597D01*
X95138Y-91480D01*
X95143Y-91474D01*
X95165Y-91458D01*
X95199Y-91430D01*
X95238Y-91397D01*
X95288Y-91352D01*
X95349Y-91303D01*
X95410Y-91247D01*
X95482Y-91186D01*
X95621Y-91053D01*
X95759Y-90920D01*
X95826Y-90853D01*
X95887Y-90786D01*
X95943Y-90725D01*
X95987Y-90664D01*
Y-90659D01*
X95998Y-90653D01*
X96009Y-90636D01*
X96020Y-90614D01*
X96059Y-90553D01*
X96104Y-90481D01*
X96142Y-90392D01*
X96181Y-90298D01*
X96203Y-90193D01*
X96214Y-90093D01*
Y-90087D01*
Y-90082D01*
X96209Y-90048D01*
X96203Y-89993D01*
X96187Y-89932D01*
X96165Y-89854D01*
X96126Y-89776D01*
X96076Y-89698D01*
X96009Y-89621D01*
X95998Y-89610D01*
X95970Y-89587D01*
X95931Y-89560D01*
X95870Y-89521D01*
X95793Y-89488D01*
X95704Y-89454D01*
X95599Y-89432D01*
X95482Y-89427D01*
X95449D01*
X95426Y-89432D01*
X95360Y-89438D01*
X95282Y-89454D01*
X95199Y-89477D01*
X95104Y-89515D01*
X95016Y-89565D01*
X94932Y-89632D01*
X94921Y-89643D01*
X94899Y-89671D01*
X94866Y-89715D01*
X94833Y-89782D01*
X94794Y-89859D01*
X94760Y-89959D01*
X94738Y-90070D01*
X94727Y-90198D01*
X94244Y-90148D01*
Y-90143D01*
X94250Y-90126D01*
Y-90098D01*
X94255Y-90059D01*
X94266Y-90015D01*
X94278Y-89965D01*
X94294Y-89904D01*
X94311Y-89843D01*
X94355Y-89710D01*
X94422Y-89576D01*
X94461Y-89510D01*
X94511Y-89443D01*
X94561Y-89382D01*
X94616Y-89327D01*
X94622Y-89321D01*
X94633Y-89316D01*
X94649Y-89299D01*
X94677Y-89282D01*
X94710Y-89260D01*
X94749Y-89238D01*
X94794Y-89210D01*
X94849Y-89182D01*
X94910Y-89155D01*
X94977Y-89127D01*
X95049Y-89105D01*
X95127Y-89082D01*
X95210Y-89066D01*
X95299Y-89049D01*
X95393Y-89044D01*
X95493Y-89038D01*
X95548D01*
X95587Y-89044D01*
D02*
G37*
G36*
X92374Y-89060D02*
X92424D01*
X92540Y-89066D01*
X92663Y-89082D01*
X92796Y-89099D01*
X92918Y-89127D01*
X92979Y-89144D01*
X93029Y-89160D01*
X93034D01*
X93040Y-89166D01*
X93073Y-89182D01*
X93123Y-89205D01*
X93184Y-89243D01*
X93251Y-89293D01*
X93323Y-89360D01*
X93389Y-89438D01*
X93456Y-89526D01*
Y-89532D01*
X93462Y-89538D01*
X93484Y-89571D01*
X93506Y-89626D01*
X93539Y-89698D01*
X93567Y-89782D01*
X93595Y-89882D01*
X93612Y-89987D01*
X93617Y-90104D01*
Y-90109D01*
Y-90120D01*
Y-90143D01*
X93612Y-90170D01*
Y-90209D01*
X93606Y-90248D01*
X93584Y-90342D01*
X93550Y-90453D01*
X93506Y-90570D01*
X93440Y-90686D01*
X93395Y-90742D01*
X93351Y-90797D01*
X93345Y-90803D01*
X93340Y-90808D01*
X93323Y-90825D01*
X93301Y-90842D01*
X93273Y-90864D01*
X93240Y-90886D01*
X93195Y-90914D01*
X93151Y-90947D01*
X93095Y-90975D01*
X93034Y-91003D01*
X92968Y-91036D01*
X92896Y-91064D01*
X92812Y-91086D01*
X92729Y-91114D01*
X92635Y-91130D01*
X92535Y-91147D01*
X92546Y-91153D01*
X92568Y-91164D01*
X92601Y-91186D01*
X92646Y-91208D01*
X92746Y-91269D01*
X92796Y-91308D01*
X92840Y-91341D01*
X92851Y-91352D01*
X92879Y-91380D01*
X92923Y-91425D01*
X92979Y-91480D01*
X93040Y-91558D01*
X93112Y-91641D01*
X93184Y-91741D01*
X93262Y-91852D01*
X93922Y-92895D01*
X93290D01*
X92785Y-92096D01*
Y-92091D01*
X92773Y-92080D01*
X92762Y-92063D01*
X92746Y-92041D01*
X92707Y-91980D01*
X92657Y-91902D01*
X92596Y-91819D01*
X92535Y-91730D01*
X92474Y-91647D01*
X92418Y-91569D01*
X92413Y-91563D01*
X92396Y-91541D01*
X92368Y-91508D01*
X92330Y-91469D01*
X92246Y-91386D01*
X92202Y-91347D01*
X92157Y-91314D01*
X92152Y-91308D01*
X92141Y-91303D01*
X92119Y-91291D01*
X92085Y-91275D01*
X92052Y-91258D01*
X92013Y-91241D01*
X91924Y-91214D01*
X91919D01*
X91908Y-91208D01*
X91886D01*
X91858Y-91203D01*
X91819Y-91197D01*
X91774D01*
X91714Y-91192D01*
X91059D01*
Y-92895D01*
X90548D01*
Y-89055D01*
X92330D01*
X92374Y-89060D01*
D02*
G37*
G36*
X99314Y-82554D02*
X97777D01*
X97572Y-83592D01*
X97577Y-83587D01*
X97588Y-83581D01*
X97605Y-83570D01*
X97633Y-83553D01*
X97666Y-83537D01*
X97705Y-83514D01*
X97794Y-83470D01*
X97905Y-83426D01*
X98027Y-83387D01*
X98160Y-83359D01*
X98226Y-83348D01*
X98349D01*
X98382Y-83353D01*
X98426Y-83359D01*
X98476Y-83364D01*
X98532Y-83376D01*
X98593Y-83392D01*
X98726Y-83431D01*
X98798Y-83459D01*
X98870Y-83498D01*
X98942Y-83537D01*
X99015Y-83581D01*
X99081Y-83636D01*
X99148Y-83697D01*
X99153Y-83703D01*
X99164Y-83714D01*
X99181Y-83731D01*
X99203Y-83759D01*
X99231Y-83797D01*
X99259Y-83836D01*
X99292Y-83886D01*
X99325Y-83942D01*
X99353Y-84003D01*
X99386Y-84069D01*
X99414Y-84147D01*
X99442Y-84225D01*
X99464Y-84308D01*
X99481Y-84402D01*
X99492Y-84497D01*
X99497Y-84597D01*
Y-84602D01*
Y-84619D01*
Y-84647D01*
X99492Y-84685D01*
X99486Y-84730D01*
X99481Y-84780D01*
X99470Y-84841D01*
X99459Y-84902D01*
X99425Y-85046D01*
X99370Y-85196D01*
X99336Y-85274D01*
X99292Y-85346D01*
X99248Y-85424D01*
X99192Y-85496D01*
X99187Y-85501D01*
X99176Y-85518D01*
X99153Y-85540D01*
X99126Y-85568D01*
X99087Y-85601D01*
X99042Y-85646D01*
X98987Y-85684D01*
X98926Y-85729D01*
X98859Y-85773D01*
X98782Y-85812D01*
X98698Y-85851D01*
X98609Y-85890D01*
X98515Y-85918D01*
X98410Y-85940D01*
X98299Y-85956D01*
X98182Y-85962D01*
X98132D01*
X98093Y-85956D01*
X98049Y-85951D01*
X97999Y-85945D01*
X97938Y-85940D01*
X97877Y-85923D01*
X97738Y-85890D01*
X97599Y-85840D01*
X97527Y-85807D01*
X97455Y-85768D01*
X97388Y-85723D01*
X97322Y-85673D01*
X97316Y-85668D01*
X97305Y-85662D01*
X97294Y-85640D01*
X97272Y-85618D01*
X97244Y-85590D01*
X97216Y-85557D01*
X97183Y-85512D01*
X97155Y-85462D01*
X97122Y-85413D01*
X97089Y-85351D01*
X97028Y-85218D01*
X96978Y-85063D01*
X96961Y-84980D01*
X96950Y-84891D01*
X97444Y-84852D01*
Y-84857D01*
Y-84869D01*
X97449Y-84885D01*
X97455Y-84913D01*
X97472Y-84974D01*
X97494Y-85057D01*
X97527Y-85141D01*
X97572Y-85235D01*
X97627Y-85318D01*
X97694Y-85396D01*
X97705Y-85401D01*
X97727Y-85424D01*
X97771Y-85451D01*
X97832Y-85485D01*
X97899Y-85518D01*
X97982Y-85546D01*
X98077Y-85568D01*
X98182Y-85573D01*
X98215D01*
X98238Y-85568D01*
X98304Y-85562D01*
X98382Y-85540D01*
X98476Y-85512D01*
X98571Y-85468D01*
X98671Y-85401D01*
X98715Y-85362D01*
X98759Y-85318D01*
X98765Y-85313D01*
X98770Y-85307D01*
X98782Y-85290D01*
X98798Y-85274D01*
X98837Y-85213D01*
X98881Y-85135D01*
X98920Y-85041D01*
X98959Y-84924D01*
X98987Y-84785D01*
X98998Y-84713D01*
Y-84636D01*
Y-84630D01*
Y-84619D01*
Y-84597D01*
X98992Y-84569D01*
Y-84536D01*
X98987Y-84497D01*
X98970Y-84408D01*
X98942Y-84303D01*
X98904Y-84197D01*
X98848Y-84097D01*
X98770Y-84003D01*
Y-83997D01*
X98759Y-83992D01*
X98731Y-83964D01*
X98682Y-83925D01*
X98615Y-83881D01*
X98526Y-83842D01*
X98426Y-83803D01*
X98310Y-83775D01*
X98243Y-83764D01*
X98138D01*
X98093Y-83770D01*
X98038Y-83775D01*
X97971Y-83792D01*
X97905Y-83808D01*
X97832Y-83836D01*
X97760Y-83870D01*
X97755Y-83875D01*
X97733Y-83886D01*
X97699Y-83914D01*
X97655Y-83942D01*
X97610Y-83981D01*
X97566Y-84030D01*
X97516Y-84080D01*
X97477Y-84141D01*
X97033Y-84080D01*
X97405Y-82105D01*
X99314D01*
Y-82554D01*
D02*
G37*
G36*
X95329Y-82044D02*
X95374Y-82049D01*
X95429Y-82055D01*
X95490Y-82066D01*
X95551Y-82077D01*
X95696Y-82116D01*
X95840Y-82171D01*
X95912Y-82205D01*
X95984Y-82243D01*
X96051Y-82293D01*
X96112Y-82349D01*
X96118Y-82354D01*
X96129Y-82360D01*
X96140Y-82382D01*
X96162Y-82404D01*
X96190Y-82432D01*
X96217Y-82471D01*
X96245Y-82510D01*
X96278Y-82560D01*
X96334Y-82665D01*
X96389Y-82798D01*
X96412Y-82865D01*
X96423Y-82943D01*
X96434Y-83020D01*
X96439Y-83104D01*
Y-83115D01*
Y-83143D01*
X96434Y-83187D01*
X96428Y-83248D01*
X96417Y-83315D01*
X96395Y-83392D01*
X96373Y-83476D01*
X96339Y-83559D01*
X96334Y-83570D01*
X96323Y-83598D01*
X96301Y-83642D01*
X96267Y-83703D01*
X96223Y-83770D01*
X96167Y-83853D01*
X96101Y-83936D01*
X96023Y-84030D01*
X96012Y-84042D01*
X95984Y-84075D01*
X95956Y-84103D01*
X95929Y-84130D01*
X95895Y-84164D01*
X95851Y-84208D01*
X95807Y-84253D01*
X95751Y-84303D01*
X95696Y-84358D01*
X95629Y-84419D01*
X95557Y-84480D01*
X95479Y-84552D01*
X95390Y-84624D01*
X95302Y-84702D01*
X95296Y-84708D01*
X95285Y-84719D01*
X95263Y-84735D01*
X95235Y-84758D01*
X95202Y-84791D01*
X95163Y-84824D01*
X95074Y-84896D01*
X94980Y-84980D01*
X94891Y-85063D01*
X94813Y-85135D01*
X94780Y-85163D01*
X94752Y-85190D01*
X94747Y-85196D01*
X94730Y-85213D01*
X94708Y-85235D01*
X94680Y-85268D01*
X94652Y-85307D01*
X94619Y-85346D01*
X94552Y-85440D01*
X96445D01*
Y-85895D01*
X93897D01*
Y-85890D01*
Y-85868D01*
Y-85834D01*
X93903Y-85790D01*
X93909Y-85740D01*
X93920Y-85684D01*
X93931Y-85629D01*
X93953Y-85568D01*
Y-85562D01*
X93958Y-85557D01*
X93970Y-85523D01*
X93992Y-85474D01*
X94025Y-85407D01*
X94069Y-85329D01*
X94125Y-85240D01*
X94186Y-85152D01*
X94264Y-85057D01*
Y-85052D01*
X94275Y-85046D01*
X94303Y-85013D01*
X94353Y-84963D01*
X94425Y-84891D01*
X94508Y-84807D01*
X94613Y-84708D01*
X94741Y-84597D01*
X94880Y-84480D01*
X94885Y-84474D01*
X94908Y-84458D01*
X94941Y-84430D01*
X94980Y-84397D01*
X95030Y-84352D01*
X95091Y-84303D01*
X95152Y-84247D01*
X95224Y-84186D01*
X95363Y-84053D01*
X95501Y-83920D01*
X95568Y-83853D01*
X95629Y-83786D01*
X95685Y-83725D01*
X95729Y-83664D01*
Y-83659D01*
X95740Y-83653D01*
X95751Y-83636D01*
X95762Y-83614D01*
X95801Y-83553D01*
X95846Y-83481D01*
X95884Y-83392D01*
X95923Y-83298D01*
X95945Y-83192D01*
X95956Y-83093D01*
Y-83087D01*
Y-83082D01*
X95951Y-83048D01*
X95945Y-82993D01*
X95929Y-82932D01*
X95907Y-82854D01*
X95868Y-82776D01*
X95818Y-82699D01*
X95751Y-82621D01*
X95740Y-82610D01*
X95712Y-82587D01*
X95674Y-82560D01*
X95612Y-82521D01*
X95535Y-82488D01*
X95446Y-82454D01*
X95341Y-82432D01*
X95224Y-82427D01*
X95191D01*
X95168Y-82432D01*
X95102Y-82438D01*
X95024Y-82454D01*
X94941Y-82477D01*
X94846Y-82515D01*
X94758Y-82565D01*
X94674Y-82632D01*
X94663Y-82643D01*
X94641Y-82671D01*
X94608Y-82715D01*
X94575Y-82782D01*
X94536Y-82859D01*
X94502Y-82959D01*
X94480Y-83070D01*
X94469Y-83198D01*
X93986Y-83148D01*
Y-83143D01*
X93992Y-83126D01*
Y-83098D01*
X93997Y-83059D01*
X94008Y-83015D01*
X94020Y-82965D01*
X94036Y-82904D01*
X94053Y-82843D01*
X94097Y-82710D01*
X94164Y-82576D01*
X94203Y-82510D01*
X94253Y-82443D01*
X94303Y-82382D01*
X94358Y-82327D01*
X94364Y-82321D01*
X94375Y-82316D01*
X94391Y-82299D01*
X94419Y-82282D01*
X94453Y-82260D01*
X94491Y-82238D01*
X94536Y-82210D01*
X94591Y-82182D01*
X94652Y-82155D01*
X94719Y-82127D01*
X94791Y-82105D01*
X94869Y-82082D01*
X94952Y-82066D01*
X95041Y-82049D01*
X95135Y-82044D01*
X95235Y-82038D01*
X95290D01*
X95329Y-82044D01*
D02*
G37*
G36*
X92116Y-82060D02*
X92166D01*
X92282Y-82066D01*
X92405Y-82082D01*
X92538Y-82099D01*
X92660Y-82127D01*
X92721Y-82143D01*
X92771Y-82160D01*
X92776D01*
X92782Y-82166D01*
X92815Y-82182D01*
X92865Y-82205D01*
X92926Y-82243D01*
X92993Y-82293D01*
X93065Y-82360D01*
X93132Y-82438D01*
X93198Y-82526D01*
Y-82532D01*
X93204Y-82538D01*
X93226Y-82571D01*
X93248Y-82626D01*
X93281Y-82699D01*
X93309Y-82782D01*
X93337Y-82882D01*
X93354Y-82987D01*
X93359Y-83104D01*
Y-83109D01*
Y-83120D01*
Y-83143D01*
X93354Y-83170D01*
Y-83209D01*
X93348Y-83248D01*
X93326Y-83342D01*
X93292Y-83453D01*
X93248Y-83570D01*
X93182Y-83686D01*
X93137Y-83742D01*
X93093Y-83797D01*
X93087Y-83803D01*
X93082Y-83808D01*
X93065Y-83825D01*
X93043Y-83842D01*
X93015Y-83864D01*
X92982Y-83886D01*
X92937Y-83914D01*
X92893Y-83947D01*
X92837Y-83975D01*
X92776Y-84003D01*
X92710Y-84036D01*
X92638Y-84064D01*
X92554Y-84086D01*
X92471Y-84114D01*
X92377Y-84130D01*
X92277Y-84147D01*
X92288Y-84153D01*
X92310Y-84164D01*
X92343Y-84186D01*
X92388Y-84208D01*
X92488Y-84269D01*
X92538Y-84308D01*
X92582Y-84341D01*
X92593Y-84352D01*
X92621Y-84380D01*
X92665Y-84425D01*
X92721Y-84480D01*
X92782Y-84558D01*
X92854Y-84641D01*
X92926Y-84741D01*
X93004Y-84852D01*
X93664Y-85895D01*
X93032D01*
X92527Y-85096D01*
Y-85091D01*
X92515Y-85079D01*
X92504Y-85063D01*
X92488Y-85041D01*
X92449Y-84980D01*
X92399Y-84902D01*
X92338Y-84819D01*
X92277Y-84730D01*
X92216Y-84647D01*
X92160Y-84569D01*
X92155Y-84563D01*
X92138Y-84541D01*
X92110Y-84508D01*
X92071Y-84469D01*
X91988Y-84386D01*
X91944Y-84347D01*
X91900Y-84314D01*
X91894Y-84308D01*
X91883Y-84303D01*
X91861Y-84291D01*
X91827Y-84275D01*
X91794Y-84258D01*
X91755Y-84241D01*
X91666Y-84214D01*
X91661D01*
X91650Y-84208D01*
X91628D01*
X91600Y-84203D01*
X91561Y-84197D01*
X91517D01*
X91456Y-84192D01*
X90801D01*
Y-85895D01*
X90290D01*
Y-82055D01*
X92071D01*
X92116Y-82060D01*
D02*
G37*
G36*
X91867Y-96019D02*
X91917Y-96024D01*
X91978Y-96030D01*
X92039Y-96035D01*
X92111Y-96052D01*
X92261Y-96085D01*
X92427Y-96135D01*
X92511Y-96169D01*
X92588Y-96207D01*
X92666Y-96257D01*
X92744Y-96307D01*
X92749Y-96313D01*
X92760Y-96318D01*
X92783Y-96335D01*
X92810Y-96363D01*
X92838Y-96390D01*
X92877Y-96429D01*
X92916Y-96474D01*
X92960Y-96518D01*
X93005Y-96574D01*
X93049Y-96640D01*
X93099Y-96707D01*
X93143Y-96779D01*
X93182Y-96862D01*
X93227Y-96946D01*
X93260Y-97034D01*
X93293Y-97134D01*
X92794Y-97251D01*
Y-97245D01*
X92788Y-97234D01*
X92777Y-97212D01*
X92766Y-97184D01*
X92755Y-97151D01*
X92738Y-97106D01*
X92694Y-97018D01*
X92638Y-96918D01*
X92572Y-96818D01*
X92488Y-96724D01*
X92400Y-96640D01*
X92388Y-96629D01*
X92355Y-96607D01*
X92300Y-96579D01*
X92228Y-96540D01*
X92133Y-96507D01*
X92028Y-96474D01*
X91900Y-96451D01*
X91761Y-96446D01*
X91717D01*
X91689Y-96451D01*
X91650D01*
X91606Y-96457D01*
X91501Y-96474D01*
X91384Y-96496D01*
X91262Y-96535D01*
X91134Y-96590D01*
X91018Y-96662D01*
X91012D01*
X91007Y-96674D01*
X90968Y-96701D01*
X90918Y-96746D01*
X90857Y-96812D01*
X90785Y-96896D01*
X90718Y-96990D01*
X90657Y-97106D01*
X90601Y-97234D01*
Y-97240D01*
X90596Y-97251D01*
X90590Y-97267D01*
X90585Y-97295D01*
X90574Y-97328D01*
X90563Y-97367D01*
X90546Y-97462D01*
X90524Y-97573D01*
X90501Y-97695D01*
X90490Y-97828D01*
X90485Y-97972D01*
Y-97978D01*
Y-97994D01*
Y-98022D01*
Y-98055D01*
X90490Y-98094D01*
Y-98144D01*
X90496Y-98200D01*
X90501Y-98261D01*
X90518Y-98394D01*
X90546Y-98538D01*
X90579Y-98683D01*
X90624Y-98827D01*
Y-98832D01*
X90629Y-98844D01*
X90640Y-98860D01*
X90651Y-98888D01*
X90685Y-98955D01*
X90735Y-99032D01*
X90796Y-99121D01*
X90873Y-99215D01*
X90962Y-99299D01*
X91068Y-99376D01*
X91073D01*
X91084Y-99382D01*
X91101Y-99393D01*
X91123Y-99404D01*
X91151Y-99415D01*
X91184Y-99432D01*
X91262Y-99465D01*
X91362Y-99498D01*
X91473Y-99526D01*
X91595Y-99549D01*
X91723Y-99554D01*
X91761D01*
X91795Y-99549D01*
X91834D01*
X91872Y-99543D01*
X91972Y-99521D01*
X92089Y-99493D01*
X92205Y-99449D01*
X92327Y-99388D01*
X92388Y-99354D01*
X92444Y-99310D01*
X92450Y-99304D01*
X92455Y-99299D01*
X92472Y-99282D01*
X92494Y-99265D01*
X92516Y-99238D01*
X92544Y-99204D01*
X92577Y-99171D01*
X92605Y-99127D01*
X92638Y-99077D01*
X92677Y-99021D01*
X92711Y-98966D01*
X92744Y-98899D01*
X92772Y-98827D01*
X92799Y-98749D01*
X92827Y-98666D01*
X92849Y-98577D01*
X93360Y-98705D01*
Y-98710D01*
X93354Y-98733D01*
X93343Y-98766D01*
X93326Y-98810D01*
X93310Y-98860D01*
X93288Y-98921D01*
X93260Y-98988D01*
X93227Y-99060D01*
X93149Y-99215D01*
X93049Y-99371D01*
X92988Y-99449D01*
X92927Y-99526D01*
X92860Y-99593D01*
X92783Y-99660D01*
X92777Y-99665D01*
X92766Y-99676D01*
X92738Y-99687D01*
X92711Y-99709D01*
X92666Y-99737D01*
X92622Y-99765D01*
X92561Y-99793D01*
X92500Y-99820D01*
X92427Y-99854D01*
X92350Y-99881D01*
X92266Y-99909D01*
X92178Y-99937D01*
X92083Y-99959D01*
X91983Y-99970D01*
X91878Y-99981D01*
X91767Y-99987D01*
X91706D01*
X91662Y-99981D01*
X91611D01*
X91550Y-99976D01*
X91484Y-99965D01*
X91406Y-99954D01*
X91245Y-99926D01*
X91079Y-99881D01*
X90912Y-99820D01*
X90835Y-99782D01*
X90757Y-99737D01*
X90751Y-99732D01*
X90740Y-99726D01*
X90718Y-99709D01*
X90696Y-99687D01*
X90662Y-99665D01*
X90624Y-99632D01*
X90579Y-99593D01*
X90535Y-99549D01*
X90490Y-99498D01*
X90440Y-99449D01*
X90341Y-99321D01*
X90246Y-99171D01*
X90163Y-99005D01*
Y-98999D01*
X90152Y-98982D01*
X90146Y-98955D01*
X90130Y-98921D01*
X90119Y-98877D01*
X90102Y-98821D01*
X90080Y-98760D01*
X90063Y-98694D01*
X90047Y-98622D01*
X90024Y-98538D01*
X89996Y-98366D01*
X89974Y-98172D01*
X89963Y-97972D01*
Y-97967D01*
Y-97944D01*
Y-97911D01*
X89969Y-97872D01*
Y-97817D01*
X89974Y-97761D01*
X89980Y-97689D01*
X89991Y-97617D01*
X90019Y-97456D01*
X90058Y-97278D01*
X90113Y-97101D01*
X90191Y-96929D01*
X90196Y-96923D01*
X90202Y-96907D01*
X90213Y-96885D01*
X90235Y-96857D01*
X90257Y-96818D01*
X90285Y-96773D01*
X90357Y-96674D01*
X90452Y-96562D01*
X90563Y-96451D01*
X90690Y-96341D01*
X90840Y-96246D01*
X90846Y-96241D01*
X90862Y-96235D01*
X90885Y-96224D01*
X90912Y-96207D01*
X90957Y-96191D01*
X91001Y-96174D01*
X91057Y-96152D01*
X91118Y-96130D01*
X91184Y-96107D01*
X91256Y-96085D01*
X91412Y-96052D01*
X91589Y-96024D01*
X91773Y-96013D01*
X91828D01*
X91867Y-96019D01*
D02*
G37*
G36*
X96312Y-96501D02*
X96307Y-96507D01*
X96296Y-96518D01*
X96274Y-96540D01*
X96251Y-96574D01*
X96218Y-96613D01*
X96174Y-96657D01*
X96129Y-96712D01*
X96079Y-96779D01*
X96029Y-96846D01*
X95968Y-96923D01*
X95907Y-97012D01*
X95846Y-97101D01*
X95780Y-97201D01*
X95713Y-97306D01*
X95646Y-97423D01*
X95580Y-97539D01*
X95574Y-97545D01*
X95563Y-97567D01*
X95547Y-97600D01*
X95519Y-97650D01*
X95491Y-97711D01*
X95458Y-97778D01*
X95419Y-97856D01*
X95380Y-97944D01*
X95336Y-98044D01*
X95286Y-98144D01*
X95241Y-98255D01*
X95197Y-98372D01*
X95108Y-98611D01*
X95025Y-98866D01*
Y-98871D01*
X95019Y-98888D01*
X95014Y-98916D01*
X95003Y-98949D01*
X94991Y-98993D01*
X94980Y-99049D01*
X94964Y-99110D01*
X94953Y-99177D01*
X94936Y-99254D01*
X94919Y-99338D01*
X94892Y-99515D01*
X94864Y-99709D01*
X94847Y-99920D01*
X94364D01*
Y-99915D01*
Y-99898D01*
Y-99876D01*
X94370Y-99843D01*
Y-99798D01*
X94375Y-99743D01*
X94381Y-99682D01*
X94387Y-99615D01*
X94398Y-99537D01*
X94409Y-99460D01*
X94425Y-99365D01*
X94442Y-99271D01*
X94459Y-99171D01*
X94481Y-99060D01*
X94536Y-98832D01*
Y-98827D01*
X94542Y-98805D01*
X94553Y-98772D01*
X94570Y-98721D01*
X94586Y-98666D01*
X94609Y-98599D01*
X94631Y-98522D01*
X94664Y-98439D01*
X94697Y-98344D01*
X94731Y-98250D01*
X94814Y-98039D01*
X94914Y-97817D01*
X95025Y-97595D01*
X95030Y-97589D01*
X95041Y-97567D01*
X95058Y-97539D01*
X95080Y-97495D01*
X95108Y-97445D01*
X95147Y-97384D01*
X95186Y-97317D01*
X95230Y-97245D01*
X95336Y-97084D01*
X95447Y-96918D01*
X95574Y-96746D01*
X95707Y-96585D01*
X93826D01*
Y-96130D01*
X96312D01*
Y-96501D01*
D02*
G37*
G36*
X92375Y-74019D02*
X92425Y-74024D01*
X92486Y-74030D01*
X92547Y-74035D01*
X92619Y-74052D01*
X92769Y-74085D01*
X92936Y-74135D01*
X93019Y-74168D01*
X93097Y-74207D01*
X93174Y-74257D01*
X93252Y-74307D01*
X93258Y-74313D01*
X93269Y-74318D01*
X93291Y-74335D01*
X93319Y-74363D01*
X93346Y-74391D01*
X93385Y-74429D01*
X93424Y-74474D01*
X93468Y-74518D01*
X93513Y-74574D01*
X93557Y-74640D01*
X93607Y-74707D01*
X93652Y-74779D01*
X93691Y-74862D01*
X93735Y-74945D01*
X93768Y-75034D01*
X93801Y-75134D01*
X93302Y-75251D01*
Y-75245D01*
X93296Y-75234D01*
X93285Y-75212D01*
X93274Y-75184D01*
X93263Y-75151D01*
X93247Y-75106D01*
X93202Y-75018D01*
X93147Y-74918D01*
X93080Y-74818D01*
X92997Y-74724D01*
X92908Y-74640D01*
X92897Y-74629D01*
X92864Y-74607D01*
X92808Y-74579D01*
X92736Y-74540D01*
X92642Y-74507D01*
X92536Y-74474D01*
X92409Y-74452D01*
X92270Y-74446D01*
X92225D01*
X92198Y-74452D01*
X92159D01*
X92114Y-74457D01*
X92009Y-74474D01*
X91892Y-74496D01*
X91770Y-74535D01*
X91643Y-74590D01*
X91526Y-74663D01*
X91521D01*
X91515Y-74674D01*
X91476Y-74701D01*
X91426Y-74746D01*
X91365Y-74812D01*
X91293Y-74896D01*
X91226Y-74990D01*
X91165Y-75106D01*
X91110Y-75234D01*
Y-75240D01*
X91104Y-75251D01*
X91099Y-75267D01*
X91093Y-75295D01*
X91082Y-75328D01*
X91071Y-75367D01*
X91054Y-75462D01*
X91032Y-75573D01*
X91010Y-75695D01*
X90999Y-75828D01*
X90993Y-75972D01*
Y-75978D01*
Y-75994D01*
Y-76022D01*
Y-76056D01*
X90999Y-76094D01*
Y-76144D01*
X91004Y-76200D01*
X91010Y-76261D01*
X91027Y-76394D01*
X91054Y-76538D01*
X91088Y-76683D01*
X91132Y-76827D01*
Y-76832D01*
X91137Y-76844D01*
X91149Y-76860D01*
X91160Y-76888D01*
X91193Y-76955D01*
X91243Y-77032D01*
X91304Y-77121D01*
X91382Y-77215D01*
X91470Y-77299D01*
X91576Y-77376D01*
X91581D01*
X91593Y-77382D01*
X91609Y-77393D01*
X91632Y-77404D01*
X91659Y-77415D01*
X91693Y-77432D01*
X91770Y-77465D01*
X91870Y-77499D01*
X91981Y-77526D01*
X92103Y-77548D01*
X92231Y-77554D01*
X92270D01*
X92303Y-77548D01*
X92342D01*
X92381Y-77543D01*
X92481Y-77521D01*
X92597Y-77493D01*
X92714Y-77449D01*
X92836Y-77387D01*
X92897Y-77354D01*
X92952Y-77310D01*
X92958Y-77304D01*
X92963Y-77299D01*
X92980Y-77282D01*
X93002Y-77265D01*
X93024Y-77238D01*
X93052Y-77204D01*
X93086Y-77171D01*
X93113Y-77127D01*
X93147Y-77077D01*
X93186Y-77021D01*
X93219Y-76966D01*
X93252Y-76899D01*
X93280Y-76827D01*
X93308Y-76749D01*
X93335Y-76666D01*
X93357Y-76577D01*
X93868Y-76705D01*
Y-76710D01*
X93863Y-76733D01*
X93852Y-76766D01*
X93835Y-76810D01*
X93818Y-76860D01*
X93796Y-76921D01*
X93768Y-76988D01*
X93735Y-77060D01*
X93657Y-77215D01*
X93557Y-77371D01*
X93496Y-77449D01*
X93435Y-77526D01*
X93369Y-77593D01*
X93291Y-77659D01*
X93285Y-77665D01*
X93274Y-77676D01*
X93247Y-77687D01*
X93219Y-77709D01*
X93174Y-77737D01*
X93130Y-77765D01*
X93069Y-77793D01*
X93008Y-77820D01*
X92936Y-77854D01*
X92858Y-77881D01*
X92775Y-77909D01*
X92686Y-77937D01*
X92592Y-77959D01*
X92492Y-77970D01*
X92386Y-77981D01*
X92275Y-77987D01*
X92214D01*
X92170Y-77981D01*
X92120D01*
X92059Y-77976D01*
X91992Y-77965D01*
X91914Y-77954D01*
X91754Y-77926D01*
X91587Y-77881D01*
X91421Y-77820D01*
X91343Y-77782D01*
X91265Y-77737D01*
X91260Y-77732D01*
X91249Y-77726D01*
X91226Y-77709D01*
X91204Y-77687D01*
X91171Y-77665D01*
X91132Y-77632D01*
X91088Y-77593D01*
X91043Y-77548D01*
X90999Y-77499D01*
X90949Y-77449D01*
X90849Y-77321D01*
X90755Y-77171D01*
X90671Y-77004D01*
Y-76999D01*
X90660Y-76982D01*
X90655Y-76955D01*
X90638Y-76921D01*
X90627Y-76877D01*
X90610Y-76821D01*
X90588Y-76760D01*
X90571Y-76694D01*
X90555Y-76622D01*
X90533Y-76538D01*
X90505Y-76366D01*
X90483Y-76172D01*
X90472Y-75972D01*
Y-75967D01*
Y-75945D01*
Y-75911D01*
X90477Y-75872D01*
Y-75817D01*
X90483Y-75761D01*
X90488Y-75689D01*
X90499Y-75617D01*
X90527Y-75456D01*
X90566Y-75279D01*
X90621Y-75101D01*
X90699Y-74929D01*
X90705Y-74923D01*
X90710Y-74907D01*
X90721Y-74884D01*
X90743Y-74857D01*
X90766Y-74818D01*
X90793Y-74774D01*
X90866Y-74674D01*
X90960Y-74563D01*
X91071Y-74452D01*
X91199Y-74340D01*
X91348Y-74246D01*
X91354Y-74241D01*
X91371Y-74235D01*
X91393Y-74224D01*
X91421Y-74207D01*
X91465Y-74191D01*
X91509Y-74174D01*
X91565Y-74152D01*
X91626Y-74130D01*
X91693Y-74107D01*
X91765Y-74085D01*
X91920Y-74052D01*
X92098Y-74024D01*
X92281Y-74013D01*
X92336D01*
X92375Y-74019D01*
D02*
G37*
G36*
X96282Y-76566D02*
X96804D01*
Y-76999D01*
X96282D01*
Y-77920D01*
X95811D01*
Y-76999D01*
X94140D01*
Y-76566D01*
X95899Y-74080D01*
X96282D01*
Y-76566D01*
D02*
G37*
G36*
X-42371Y134581D02*
X-42321Y134576D01*
X-42260Y134570D01*
X-42199Y134565D01*
X-42127Y134548D01*
X-41977Y134515D01*
X-41810Y134465D01*
X-41727Y134432D01*
X-41649Y134393D01*
X-41572Y134343D01*
X-41494Y134293D01*
X-41489Y134287D01*
X-41477Y134282D01*
X-41455Y134265D01*
X-41427Y134237D01*
X-41400Y134210D01*
X-41361Y134171D01*
X-41322Y134126D01*
X-41278Y134082D01*
X-41233Y134026D01*
X-41189Y133960D01*
X-41139Y133893D01*
X-41094Y133821D01*
X-41056Y133738D01*
X-41011Y133654D01*
X-40978Y133566D01*
X-40945Y133466D01*
X-41444Y133349D01*
Y133355D01*
X-41450Y133366D01*
X-41461Y133388D01*
X-41472Y133416D01*
X-41483Y133449D01*
X-41500Y133494D01*
X-41544Y133582D01*
X-41600Y133682D01*
X-41666Y133782D01*
X-41749Y133877D01*
X-41838Y133960D01*
X-41849Y133971D01*
X-41883Y133993D01*
X-41938Y134021D01*
X-42010Y134060D01*
X-42105Y134093D01*
X-42210Y134126D01*
X-42338Y134149D01*
X-42476Y134154D01*
X-42521D01*
X-42549Y134149D01*
X-42587D01*
X-42632Y134143D01*
X-42737Y134126D01*
X-42854Y134104D01*
X-42976Y134065D01*
X-43104Y134010D01*
X-43220Y133938D01*
X-43226D01*
X-43231Y133926D01*
X-43270Y133899D01*
X-43320Y133854D01*
X-43381Y133788D01*
X-43453Y133704D01*
X-43520Y133610D01*
X-43581Y133494D01*
X-43636Y133366D01*
Y133360D01*
X-43642Y133349D01*
X-43647Y133333D01*
X-43653Y133305D01*
X-43664Y133272D01*
X-43675Y133233D01*
X-43692Y133138D01*
X-43714Y133027D01*
X-43736Y132905D01*
X-43747Y132772D01*
X-43753Y132628D01*
Y132622D01*
Y132606D01*
Y132578D01*
Y132545D01*
X-43747Y132506D01*
Y132456D01*
X-43742Y132400D01*
X-43736Y132339D01*
X-43720Y132206D01*
X-43692Y132062D01*
X-43659Y131917D01*
X-43614Y131773D01*
Y131767D01*
X-43609Y131756D01*
X-43597Y131740D01*
X-43586Y131712D01*
X-43553Y131645D01*
X-43503Y131568D01*
X-43442Y131479D01*
X-43364Y131385D01*
X-43276Y131301D01*
X-43170Y131224D01*
X-43165D01*
X-43154Y131218D01*
X-43137Y131207D01*
X-43115Y131196D01*
X-43087Y131185D01*
X-43054Y131168D01*
X-42976Y131135D01*
X-42876Y131102D01*
X-42765Y131074D01*
X-42643Y131052D01*
X-42515Y131046D01*
X-42476D01*
X-42443Y131052D01*
X-42404D01*
X-42365Y131057D01*
X-42265Y131079D01*
X-42149Y131107D01*
X-42032Y131151D01*
X-41910Y131212D01*
X-41849Y131246D01*
X-41794Y131290D01*
X-41788Y131296D01*
X-41783Y131301D01*
X-41766Y131318D01*
X-41744Y131335D01*
X-41722Y131362D01*
X-41694Y131396D01*
X-41661Y131429D01*
X-41633Y131473D01*
X-41600Y131523D01*
X-41561Y131579D01*
X-41527Y131634D01*
X-41494Y131701D01*
X-41466Y131773D01*
X-41438Y131851D01*
X-41411Y131934D01*
X-41389Y132023D01*
X-40878Y131895D01*
Y131890D01*
X-40884Y131867D01*
X-40895Y131834D01*
X-40911Y131790D01*
X-40928Y131740D01*
X-40950Y131679D01*
X-40978Y131612D01*
X-41011Y131540D01*
X-41089Y131385D01*
X-41189Y131229D01*
X-41250Y131151D01*
X-41311Y131074D01*
X-41377Y131007D01*
X-41455Y130941D01*
X-41461Y130935D01*
X-41472Y130924D01*
X-41500Y130913D01*
X-41527Y130891D01*
X-41572Y130863D01*
X-41616Y130835D01*
X-41677Y130807D01*
X-41738Y130780D01*
X-41810Y130746D01*
X-41888Y130719D01*
X-41971Y130691D01*
X-42060Y130663D01*
X-42154Y130641D01*
X-42254Y130630D01*
X-42360Y130619D01*
X-42471Y130613D01*
X-42532D01*
X-42576Y130619D01*
X-42626D01*
X-42687Y130624D01*
X-42754Y130635D01*
X-42832Y130646D01*
X-42992Y130674D01*
X-43159Y130719D01*
X-43325Y130780D01*
X-43403Y130818D01*
X-43481Y130863D01*
X-43486Y130868D01*
X-43498Y130874D01*
X-43520Y130891D01*
X-43542Y130913D01*
X-43575Y130935D01*
X-43614Y130968D01*
X-43659Y131007D01*
X-43703Y131052D01*
X-43747Y131102D01*
X-43797Y131151D01*
X-43897Y131279D01*
X-43992Y131429D01*
X-44075Y131596D01*
Y131601D01*
X-44086Y131618D01*
X-44091Y131645D01*
X-44108Y131679D01*
X-44119Y131723D01*
X-44136Y131779D01*
X-44158Y131840D01*
X-44175Y131906D01*
X-44191Y131978D01*
X-44214Y132062D01*
X-44241Y132234D01*
X-44263Y132428D01*
X-44275Y132628D01*
Y132633D01*
Y132656D01*
Y132689D01*
X-44269Y132728D01*
Y132783D01*
X-44263Y132839D01*
X-44258Y132911D01*
X-44247Y132983D01*
X-44219Y133144D01*
X-44180Y133321D01*
X-44125Y133499D01*
X-44047Y133671D01*
X-44041Y133677D01*
X-44036Y133693D01*
X-44025Y133716D01*
X-44003Y133743D01*
X-43981Y133782D01*
X-43953Y133826D01*
X-43881Y133926D01*
X-43786Y134037D01*
X-43675Y134149D01*
X-43548Y134259D01*
X-43398Y134354D01*
X-43392Y134359D01*
X-43376Y134365D01*
X-43353Y134376D01*
X-43325Y134393D01*
X-43281Y134409D01*
X-43237Y134426D01*
X-43181Y134448D01*
X-43120Y134470D01*
X-43054Y134493D01*
X-42981Y134515D01*
X-42826Y134548D01*
X-42649Y134576D01*
X-42465Y134587D01*
X-42410D01*
X-42371Y134581D01*
D02*
G37*
G36*
X-39124Y134531D02*
X-39052Y134520D01*
X-38963Y134504D01*
X-38863Y134476D01*
X-38763Y134443D01*
X-38664Y134398D01*
X-38658D01*
X-38652Y134393D01*
X-38619Y134376D01*
X-38569Y134343D01*
X-38514Y134304D01*
X-38447Y134248D01*
X-38381Y134187D01*
X-38314Y134115D01*
X-38258Y134032D01*
X-38253Y134021D01*
X-38236Y133993D01*
X-38214Y133943D01*
X-38186Y133882D01*
X-38159Y133810D01*
X-38136Y133727D01*
X-38120Y133632D01*
X-38114Y133538D01*
Y133527D01*
Y133494D01*
X-38120Y133449D01*
X-38131Y133388D01*
X-38147Y133316D01*
X-38175Y133238D01*
X-38208Y133160D01*
X-38253Y133083D01*
X-38258Y133072D01*
X-38275Y133049D01*
X-38308Y133011D01*
X-38353Y132966D01*
X-38408Y132916D01*
X-38475Y132861D01*
X-38553Y132811D01*
X-38647Y132761D01*
X-38641D01*
X-38630Y132755D01*
X-38614Y132750D01*
X-38591Y132744D01*
X-38530Y132722D01*
X-38453Y132689D01*
X-38364Y132644D01*
X-38275Y132589D01*
X-38192Y132517D01*
X-38114Y132433D01*
X-38109Y132422D01*
X-38086Y132389D01*
X-38053Y132334D01*
X-38020Y132261D01*
X-37986Y132173D01*
X-37953Y132067D01*
X-37931Y131945D01*
X-37925Y131812D01*
Y131806D01*
Y131790D01*
Y131762D01*
X-37931Y131729D01*
X-37936Y131684D01*
X-37948Y131634D01*
X-37959Y131579D01*
X-37970Y131518D01*
X-38014Y131385D01*
X-38048Y131312D01*
X-38081Y131246D01*
X-38125Y131174D01*
X-38175Y131102D01*
X-38231Y131029D01*
X-38297Y130963D01*
X-38303Y130957D01*
X-38314Y130946D01*
X-38336Y130929D01*
X-38364Y130907D01*
X-38397Y130879D01*
X-38442Y130852D01*
X-38491Y130818D01*
X-38553Y130791D01*
X-38614Y130757D01*
X-38686Y130724D01*
X-38758Y130696D01*
X-38841Y130669D01*
X-38930Y130646D01*
X-39024Y130630D01*
X-39119Y130619D01*
X-39224Y130613D01*
X-39274D01*
X-39307Y130619D01*
X-39352Y130624D01*
X-39402Y130630D01*
X-39457Y130641D01*
X-39518Y130652D01*
X-39651Y130685D01*
X-39790Y130741D01*
X-39862Y130774D01*
X-39929Y130813D01*
X-39996Y130863D01*
X-40062Y130913D01*
X-40068Y130918D01*
X-40079Y130929D01*
X-40095Y130946D01*
X-40112Y130968D01*
X-40140Y130996D01*
X-40168Y131035D01*
X-40201Y131074D01*
X-40234Y131124D01*
X-40268Y131179D01*
X-40301Y131235D01*
X-40362Y131368D01*
X-40412Y131523D01*
X-40428Y131606D01*
X-40440Y131695D01*
X-39968Y131756D01*
Y131751D01*
X-39962Y131740D01*
X-39957Y131718D01*
X-39951Y131690D01*
X-39946Y131657D01*
X-39935Y131618D01*
X-39907Y131534D01*
X-39868Y131435D01*
X-39818Y131340D01*
X-39762Y131251D01*
X-39696Y131174D01*
X-39685Y131168D01*
X-39663Y131146D01*
X-39618Y131118D01*
X-39563Y131090D01*
X-39496Y131057D01*
X-39413Y131029D01*
X-39318Y131007D01*
X-39219Y131002D01*
X-39185D01*
X-39163Y131007D01*
X-39102Y131013D01*
X-39024Y131029D01*
X-38936Y131057D01*
X-38841Y131096D01*
X-38747Y131151D01*
X-38658Y131229D01*
X-38647Y131240D01*
X-38619Y131274D01*
X-38586Y131324D01*
X-38541Y131390D01*
X-38497Y131473D01*
X-38464Y131568D01*
X-38436Y131679D01*
X-38425Y131801D01*
Y131806D01*
Y131817D01*
Y131834D01*
X-38431Y131856D01*
X-38436Y131917D01*
X-38453Y131990D01*
X-38475Y132078D01*
X-38514Y132167D01*
X-38569Y132256D01*
X-38641Y132339D01*
X-38652Y132350D01*
X-38680Y132372D01*
X-38725Y132406D01*
X-38786Y132445D01*
X-38863Y132483D01*
X-38958Y132517D01*
X-39063Y132539D01*
X-39180Y132550D01*
X-39230D01*
X-39268Y132545D01*
X-39318Y132539D01*
X-39374Y132528D01*
X-39441Y132517D01*
X-39513Y132500D01*
X-39457Y132916D01*
X-39430D01*
X-39407Y132911D01*
X-39335D01*
X-39274Y132922D01*
X-39202Y132933D01*
X-39119Y132950D01*
X-39024Y132977D01*
X-38936Y133016D01*
X-38841Y133066D01*
X-38836D01*
X-38830Y133072D01*
X-38802Y133094D01*
X-38763Y133133D01*
X-38719Y133183D01*
X-38675Y133255D01*
X-38636Y133338D01*
X-38608Y133432D01*
X-38597Y133488D01*
Y133549D01*
Y133555D01*
Y133560D01*
Y133593D01*
X-38608Y133638D01*
X-38619Y133699D01*
X-38641Y133765D01*
X-38669Y133838D01*
X-38713Y133910D01*
X-38774Y133976D01*
X-38780Y133982D01*
X-38808Y134004D01*
X-38847Y134032D01*
X-38897Y134065D01*
X-38963Y134093D01*
X-39041Y134121D01*
X-39130Y134143D01*
X-39230Y134149D01*
X-39274D01*
X-39324Y134137D01*
X-39391Y134126D01*
X-39463Y134104D01*
X-39535Y134076D01*
X-39613Y134032D01*
X-39685Y133976D01*
X-39690Y133971D01*
X-39713Y133943D01*
X-39746Y133904D01*
X-39785Y133849D01*
X-39823Y133777D01*
X-39862Y133688D01*
X-39896Y133582D01*
X-39918Y133460D01*
X-40390Y133544D01*
Y133549D01*
X-40384Y133566D01*
X-40378Y133588D01*
X-40373Y133621D01*
X-40362Y133660D01*
X-40345Y133704D01*
X-40312Y133810D01*
X-40256Y133932D01*
X-40190Y134054D01*
X-40106Y134171D01*
X-40001Y134276D01*
X-39996Y134282D01*
X-39984Y134287D01*
X-39968Y134298D01*
X-39946Y134315D01*
X-39918Y134337D01*
X-39879Y134359D01*
X-39840Y134381D01*
X-39790Y134409D01*
X-39679Y134454D01*
X-39551Y134498D01*
X-39402Y134526D01*
X-39324Y134537D01*
X-39185D01*
X-39124Y134531D01*
D02*
G37*
G36*
X-79144Y-83398D02*
X-79078Y-83405D01*
X-78998Y-83412D01*
X-78918Y-83419D01*
X-78823Y-83441D01*
X-78626Y-83485D01*
X-78408Y-83551D01*
X-78298Y-83594D01*
X-78196Y-83645D01*
X-78094Y-83711D01*
X-77992Y-83776D01*
X-77985Y-83784D01*
X-77970Y-83791D01*
X-77941Y-83813D01*
X-77905Y-83850D01*
X-77868Y-83886D01*
X-77817Y-83937D01*
X-77766Y-83995D01*
X-77708Y-84054D01*
X-77649Y-84127D01*
X-77591Y-84214D01*
X-77526Y-84301D01*
X-77467Y-84396D01*
X-77416Y-84506D01*
X-77358Y-84615D01*
X-77314Y-84732D01*
X-77270Y-84863D01*
X-77926Y-85016D01*
Y-85009D01*
X-77934Y-84994D01*
X-77948Y-84965D01*
X-77963Y-84928D01*
X-77978Y-84885D01*
X-77999Y-84826D01*
X-78058Y-84710D01*
X-78131Y-84578D01*
X-78218Y-84447D01*
X-78327Y-84323D01*
X-78444Y-84214D01*
X-78459Y-84199D01*
X-78502Y-84170D01*
X-78575Y-84134D01*
X-78670Y-84083D01*
X-78794Y-84039D01*
X-78932Y-83995D01*
X-79100Y-83966D01*
X-79282Y-83959D01*
X-79341D01*
X-79377Y-83966D01*
X-79428D01*
X-79487Y-83973D01*
X-79625Y-83995D01*
X-79778Y-84024D01*
X-79939Y-84075D01*
X-80106Y-84148D01*
X-80259Y-84243D01*
X-80266D01*
X-80274Y-84258D01*
X-80325Y-84294D01*
X-80391Y-84352D01*
X-80471Y-84440D01*
X-80565Y-84549D01*
X-80653Y-84673D01*
X-80733Y-84826D01*
X-80806Y-84994D01*
Y-85001D01*
X-80813Y-85016D01*
X-80821Y-85038D01*
X-80828Y-85074D01*
X-80843Y-85118D01*
X-80857Y-85169D01*
X-80879Y-85293D01*
X-80908Y-85439D01*
X-80937Y-85599D01*
X-80952Y-85774D01*
X-80959Y-85963D01*
Y-85971D01*
Y-85993D01*
Y-86029D01*
Y-86073D01*
X-80952Y-86124D01*
Y-86190D01*
X-80945Y-86262D01*
X-80937Y-86343D01*
X-80915Y-86518D01*
X-80879Y-86707D01*
X-80835Y-86897D01*
X-80777Y-87086D01*
Y-87094D01*
X-80770Y-87108D01*
X-80755Y-87130D01*
X-80740Y-87166D01*
X-80697Y-87254D01*
X-80631Y-87356D01*
X-80551Y-87473D01*
X-80449Y-87596D01*
X-80332Y-87706D01*
X-80194Y-87808D01*
X-80186D01*
X-80172Y-87815D01*
X-80150Y-87830D01*
X-80121Y-87844D01*
X-80084Y-87859D01*
X-80041Y-87881D01*
X-79939Y-87925D01*
X-79807Y-87968D01*
X-79662Y-88005D01*
X-79501Y-88034D01*
X-79333Y-88041D01*
X-79282D01*
X-79239Y-88034D01*
X-79188D01*
X-79137Y-88027D01*
X-79005Y-87998D01*
X-78852Y-87961D01*
X-78699Y-87903D01*
X-78539Y-87823D01*
X-78459Y-87779D01*
X-78386Y-87720D01*
X-78378Y-87713D01*
X-78371Y-87706D01*
X-78349Y-87684D01*
X-78320Y-87662D01*
X-78291Y-87626D01*
X-78254Y-87582D01*
X-78211Y-87538D01*
X-78174Y-87480D01*
X-78131Y-87414D01*
X-78079Y-87341D01*
X-78036Y-87269D01*
X-77992Y-87181D01*
X-77956Y-87086D01*
X-77919Y-86984D01*
X-77883Y-86875D01*
X-77854Y-86758D01*
X-77183Y-86926D01*
Y-86933D01*
X-77190Y-86962D01*
X-77205Y-87006D01*
X-77227Y-87064D01*
X-77249Y-87130D01*
X-77278Y-87210D01*
X-77314Y-87298D01*
X-77358Y-87392D01*
X-77460Y-87596D01*
X-77591Y-87801D01*
X-77671Y-87903D01*
X-77751Y-88005D01*
X-77839Y-88092D01*
X-77941Y-88180D01*
X-77948Y-88187D01*
X-77963Y-88202D01*
X-77999Y-88216D01*
X-78036Y-88245D01*
X-78094Y-88282D01*
X-78152Y-88318D01*
X-78233Y-88355D01*
X-78313Y-88391D01*
X-78408Y-88435D01*
X-78510Y-88471D01*
X-78619Y-88508D01*
X-78736Y-88544D01*
X-78860Y-88573D01*
X-78991Y-88588D01*
X-79129Y-88603D01*
X-79275Y-88610D01*
X-79355D01*
X-79414Y-88603D01*
X-79479D01*
X-79559Y-88595D01*
X-79647Y-88581D01*
X-79749Y-88566D01*
X-79960Y-88530D01*
X-80179Y-88471D01*
X-80398Y-88391D01*
X-80500Y-88340D01*
X-80602Y-88282D01*
X-80609Y-88275D01*
X-80624Y-88267D01*
X-80653Y-88245D01*
X-80682Y-88216D01*
X-80726Y-88187D01*
X-80777Y-88143D01*
X-80835Y-88092D01*
X-80893Y-88034D01*
X-80952Y-87968D01*
X-81017Y-87903D01*
X-81149Y-87735D01*
X-81273Y-87538D01*
X-81382Y-87319D01*
Y-87312D01*
X-81397Y-87290D01*
X-81404Y-87254D01*
X-81426Y-87210D01*
X-81440Y-87152D01*
X-81462Y-87079D01*
X-81491Y-86999D01*
X-81513Y-86911D01*
X-81535Y-86817D01*
X-81564Y-86707D01*
X-81601Y-86481D01*
X-81630Y-86226D01*
X-81644Y-85963D01*
Y-85956D01*
Y-85927D01*
Y-85883D01*
X-81637Y-85832D01*
Y-85759D01*
X-81630Y-85686D01*
X-81622Y-85592D01*
X-81608Y-85497D01*
X-81572Y-85286D01*
X-81520Y-85052D01*
X-81447Y-84819D01*
X-81345Y-84593D01*
X-81338Y-84586D01*
X-81331Y-84564D01*
X-81316Y-84535D01*
X-81287Y-84498D01*
X-81258Y-84447D01*
X-81221Y-84389D01*
X-81127Y-84258D01*
X-81003Y-84112D01*
X-80857Y-83966D01*
X-80689Y-83820D01*
X-80493Y-83696D01*
X-80485Y-83689D01*
X-80463Y-83682D01*
X-80434Y-83667D01*
X-80398Y-83645D01*
X-80339Y-83623D01*
X-80281Y-83602D01*
X-80208Y-83572D01*
X-80128Y-83543D01*
X-80041Y-83514D01*
X-79946Y-83485D01*
X-79742Y-83441D01*
X-79508Y-83405D01*
X-79268Y-83390D01*
X-79195D01*
X-79144Y-83398D01*
D02*
G37*
G36*
X-74821Y-83463D02*
X-74763Y-83470D01*
X-74690Y-83478D01*
X-74610Y-83492D01*
X-74529Y-83507D01*
X-74340Y-83558D01*
X-74150Y-83631D01*
X-74055Y-83675D01*
X-73961Y-83726D01*
X-73873Y-83791D01*
X-73793Y-83864D01*
X-73786Y-83871D01*
X-73771Y-83879D01*
X-73757Y-83908D01*
X-73727Y-83937D01*
X-73691Y-83973D01*
X-73655Y-84024D01*
X-73618Y-84075D01*
X-73574Y-84141D01*
X-73501Y-84280D01*
X-73428Y-84455D01*
X-73399Y-84542D01*
X-73385Y-84644D01*
X-73370Y-84746D01*
X-73363Y-84856D01*
Y-84870D01*
Y-84907D01*
X-73370Y-84965D01*
X-73378Y-85045D01*
X-73392Y-85132D01*
X-73421Y-85235D01*
X-73450Y-85344D01*
X-73494Y-85453D01*
X-73501Y-85468D01*
X-73516Y-85504D01*
X-73545Y-85563D01*
X-73589Y-85643D01*
X-73647Y-85730D01*
X-73720Y-85840D01*
X-73808Y-85949D01*
X-73910Y-86073D01*
X-73924Y-86088D01*
X-73961Y-86131D01*
X-73997Y-86168D01*
X-74034Y-86204D01*
X-74077Y-86248D01*
X-74136Y-86306D01*
X-74194Y-86365D01*
X-74267Y-86430D01*
X-74340Y-86503D01*
X-74427Y-86583D01*
X-74522Y-86663D01*
X-74624Y-86758D01*
X-74741Y-86853D01*
X-74857Y-86955D01*
X-74865Y-86962D01*
X-74879Y-86977D01*
X-74908Y-86999D01*
X-74945Y-87028D01*
X-74989Y-87072D01*
X-75040Y-87115D01*
X-75156Y-87210D01*
X-75280Y-87319D01*
X-75397Y-87429D01*
X-75499Y-87524D01*
X-75543Y-87560D01*
X-75579Y-87596D01*
X-75586Y-87604D01*
X-75608Y-87626D01*
X-75637Y-87655D01*
X-75674Y-87699D01*
X-75710Y-87750D01*
X-75754Y-87801D01*
X-75841Y-87925D01*
X-73356D01*
Y-88522D01*
X-76702D01*
Y-88515D01*
Y-88486D01*
Y-88442D01*
X-76694Y-88384D01*
X-76687Y-88318D01*
X-76673Y-88245D01*
X-76658Y-88172D01*
X-76629Y-88092D01*
Y-88085D01*
X-76622Y-88078D01*
X-76607Y-88034D01*
X-76578Y-87968D01*
X-76534Y-87881D01*
X-76476Y-87779D01*
X-76403Y-87662D01*
X-76323Y-87546D01*
X-76221Y-87422D01*
Y-87414D01*
X-76206Y-87407D01*
X-76170Y-87363D01*
X-76104Y-87298D01*
X-76009Y-87203D01*
X-75900Y-87094D01*
X-75761Y-86962D01*
X-75594Y-86817D01*
X-75411Y-86663D01*
X-75404Y-86656D01*
X-75375Y-86634D01*
X-75331Y-86598D01*
X-75280Y-86554D01*
X-75215Y-86496D01*
X-75134Y-86430D01*
X-75054Y-86357D01*
X-74959Y-86277D01*
X-74777Y-86102D01*
X-74595Y-85927D01*
X-74507Y-85840D01*
X-74427Y-85752D01*
X-74354Y-85672D01*
X-74296Y-85592D01*
Y-85584D01*
X-74282Y-85577D01*
X-74267Y-85555D01*
X-74252Y-85526D01*
X-74201Y-85446D01*
X-74143Y-85351D01*
X-74092Y-85235D01*
X-74041Y-85111D01*
X-74012Y-84972D01*
X-73997Y-84841D01*
Y-84834D01*
Y-84826D01*
X-74004Y-84783D01*
X-74012Y-84710D01*
X-74034Y-84629D01*
X-74063Y-84527D01*
X-74114Y-84425D01*
X-74179Y-84323D01*
X-74267Y-84221D01*
X-74282Y-84207D01*
X-74318Y-84178D01*
X-74369Y-84141D01*
X-74449Y-84090D01*
X-74551Y-84046D01*
X-74668Y-84003D01*
X-74806Y-83973D01*
X-74959Y-83966D01*
X-75003D01*
X-75032Y-83973D01*
X-75120Y-83981D01*
X-75222Y-84003D01*
X-75331Y-84032D01*
X-75455Y-84083D01*
X-75572Y-84148D01*
X-75681Y-84236D01*
X-75696Y-84250D01*
X-75725Y-84287D01*
X-75769Y-84345D01*
X-75812Y-84433D01*
X-75863Y-84535D01*
X-75907Y-84666D01*
X-75936Y-84812D01*
X-75951Y-84979D01*
X-76585Y-84914D01*
Y-84907D01*
X-76578Y-84885D01*
Y-84848D01*
X-76570Y-84797D01*
X-76556Y-84739D01*
X-76541Y-84673D01*
X-76520Y-84593D01*
X-76498Y-84513D01*
X-76439Y-84338D01*
X-76352Y-84163D01*
X-76301Y-84075D01*
X-76235Y-83988D01*
X-76170Y-83908D01*
X-76097Y-83835D01*
X-76089Y-83828D01*
X-76075Y-83820D01*
X-76053Y-83798D01*
X-76016Y-83776D01*
X-75973Y-83747D01*
X-75922Y-83718D01*
X-75863Y-83682D01*
X-75791Y-83645D01*
X-75710Y-83609D01*
X-75623Y-83572D01*
X-75528Y-83543D01*
X-75426Y-83514D01*
X-75317Y-83492D01*
X-75200Y-83470D01*
X-75076Y-83463D01*
X-74945Y-83456D01*
X-74872D01*
X-74821Y-83463D01*
D02*
G37*
G36*
X-988Y-101468D02*
X-4374D01*
Y-103360D01*
X-4829D01*
Y-100957D01*
X-988D01*
Y-101468D01*
D02*
G37*
G36*
Y-106751D02*
X-1443D01*
Y-104481D01*
X-2614D01*
Y-106607D01*
X-3069D01*
Y-104481D01*
X-4374D01*
Y-106840D01*
X-4829D01*
Y-103971D01*
X-988D01*
Y-106751D01*
D02*
G37*
G36*
Y-109021D02*
X-994Y-109121D01*
X-999Y-109232D01*
X-1010Y-109343D01*
X-1027Y-109454D01*
X-1044Y-109548D01*
Y-109554D01*
X-1049Y-109565D01*
Y-109582D01*
X-1060Y-109604D01*
X-1077Y-109665D01*
X-1105Y-109743D01*
X-1143Y-109832D01*
X-1193Y-109926D01*
X-1249Y-110020D01*
X-1321Y-110109D01*
X-1327Y-110115D01*
X-1332Y-110120D01*
X-1349Y-110137D01*
X-1365Y-110159D01*
X-1421Y-110214D01*
X-1499Y-110281D01*
X-1593Y-110353D01*
X-1704Y-110431D01*
X-1832Y-110503D01*
X-1976Y-110564D01*
X-1981D01*
X-1993Y-110570D01*
X-2015Y-110581D01*
X-2048Y-110586D01*
X-2087Y-110603D01*
X-2131Y-110614D01*
X-2181Y-110625D01*
X-2242Y-110642D01*
X-2303Y-110658D01*
X-2376Y-110670D01*
X-2531Y-110697D01*
X-2703Y-110714D01*
X-2892Y-110720D01*
X-2897D01*
X-2908D01*
X-2936D01*
X-2964D01*
X-3003Y-110714D01*
X-3047D01*
X-3153Y-110708D01*
X-3275Y-110692D01*
X-3402Y-110675D01*
X-3536Y-110647D01*
X-3669Y-110614D01*
X-3674D01*
X-3685Y-110608D01*
X-3702Y-110603D01*
X-3724Y-110597D01*
X-3785Y-110575D01*
X-3863Y-110542D01*
X-3952Y-110509D01*
X-4041Y-110464D01*
X-4135Y-110409D01*
X-4224Y-110353D01*
X-4235Y-110348D01*
X-4262Y-110325D01*
X-4301Y-110292D01*
X-4351Y-110248D01*
X-4407Y-110198D01*
X-4462Y-110137D01*
X-4523Y-110076D01*
X-4573Y-110003D01*
X-4579Y-109992D01*
X-4595Y-109970D01*
X-4618Y-109931D01*
X-4645Y-109876D01*
X-4679Y-109809D01*
X-4707Y-109732D01*
X-4740Y-109643D01*
X-4768Y-109543D01*
Y-109532D01*
X-4773Y-109515D01*
X-4779Y-109499D01*
X-4784Y-109443D01*
X-4795Y-109365D01*
X-4806Y-109276D01*
X-4817Y-109171D01*
X-4823Y-109055D01*
X-4829Y-108927D01*
Y-107545D01*
X-988D01*
Y-109021D01*
D02*
G37*
G36*
X-4723Y-111163D02*
X-4673Y-111169D01*
X-4618Y-111180D01*
X-4562Y-111191D01*
X-4501Y-111213D01*
X-4496D01*
X-4490Y-111219D01*
X-4457Y-111230D01*
X-4407Y-111252D01*
X-4340Y-111286D01*
X-4262Y-111330D01*
X-4174Y-111386D01*
X-4085Y-111446D01*
X-3991Y-111524D01*
X-3985D01*
X-3980Y-111535D01*
X-3946Y-111563D01*
X-3896Y-111613D01*
X-3824Y-111685D01*
X-3741Y-111768D01*
X-3641Y-111874D01*
X-3530Y-112002D01*
X-3413Y-112140D01*
X-3408Y-112146D01*
X-3391Y-112168D01*
X-3363Y-112201D01*
X-3330Y-112240D01*
X-3286Y-112290D01*
X-3236Y-112351D01*
X-3180Y-112412D01*
X-3119Y-112484D01*
X-2986Y-112623D01*
X-2853Y-112762D01*
X-2786Y-112829D01*
X-2720Y-112890D01*
X-2659Y-112945D01*
X-2598Y-112989D01*
X-2592D01*
X-2586Y-113001D01*
X-2570Y-113012D01*
X-2548Y-113023D01*
X-2486Y-113062D01*
X-2414Y-113106D01*
X-2326Y-113145D01*
X-2231Y-113184D01*
X-2126Y-113206D01*
X-2026Y-113217D01*
X-2020D01*
X-2015D01*
X-1981Y-113211D01*
X-1926Y-113206D01*
X-1865Y-113189D01*
X-1787Y-113167D01*
X-1709Y-113128D01*
X-1632Y-113078D01*
X-1554Y-113012D01*
X-1543Y-113001D01*
X-1521Y-112973D01*
X-1493Y-112934D01*
X-1454Y-112873D01*
X-1421Y-112795D01*
X-1388Y-112706D01*
X-1365Y-112601D01*
X-1360Y-112484D01*
Y-112451D01*
X-1365Y-112429D01*
X-1371Y-112362D01*
X-1388Y-112285D01*
X-1410Y-112201D01*
X-1449Y-112107D01*
X-1499Y-112018D01*
X-1565Y-111935D01*
X-1576Y-111924D01*
X-1604Y-111902D01*
X-1649Y-111868D01*
X-1715Y-111835D01*
X-1793Y-111796D01*
X-1893Y-111763D01*
X-2004Y-111741D01*
X-2131Y-111730D01*
X-2081Y-111247D01*
X-2076D01*
X-2059Y-111252D01*
X-2031D01*
X-1993Y-111258D01*
X-1948Y-111269D01*
X-1898Y-111280D01*
X-1837Y-111297D01*
X-1776Y-111313D01*
X-1643Y-111358D01*
X-1510Y-111424D01*
X-1443Y-111463D01*
X-1376Y-111513D01*
X-1316Y-111563D01*
X-1260Y-111619D01*
X-1254Y-111624D01*
X-1249Y-111635D01*
X-1232Y-111652D01*
X-1216Y-111680D01*
X-1193Y-111713D01*
X-1171Y-111752D01*
X-1143Y-111796D01*
X-1116Y-111852D01*
X-1088Y-111913D01*
X-1060Y-111979D01*
X-1038Y-112051D01*
X-1016Y-112129D01*
X-999Y-112212D01*
X-982Y-112301D01*
X-977Y-112396D01*
X-971Y-112496D01*
Y-112551D01*
X-977Y-112590D01*
X-982Y-112634D01*
X-988Y-112690D01*
X-999Y-112751D01*
X-1010Y-112812D01*
X-1049Y-112956D01*
X-1105Y-113100D01*
X-1138Y-113173D01*
X-1177Y-113245D01*
X-1227Y-113311D01*
X-1282Y-113372D01*
X-1288Y-113378D01*
X-1293Y-113389D01*
X-1316Y-113400D01*
X-1338Y-113422D01*
X-1365Y-113450D01*
X-1404Y-113478D01*
X-1443Y-113506D01*
X-1493Y-113539D01*
X-1599Y-113594D01*
X-1732Y-113650D01*
X-1798Y-113672D01*
X-1876Y-113683D01*
X-1954Y-113694D01*
X-2037Y-113700D01*
X-2048D01*
X-2076D01*
X-2120Y-113694D01*
X-2181Y-113689D01*
X-2248Y-113678D01*
X-2326Y-113655D01*
X-2409Y-113633D01*
X-2492Y-113600D01*
X-2503Y-113594D01*
X-2531Y-113583D01*
X-2575Y-113561D01*
X-2636Y-113528D01*
X-2703Y-113483D01*
X-2786Y-113428D01*
X-2870Y-113361D01*
X-2964Y-113284D01*
X-2975Y-113273D01*
X-3008Y-113245D01*
X-3036Y-113217D01*
X-3064Y-113189D01*
X-3097Y-113156D01*
X-3141Y-113111D01*
X-3186Y-113067D01*
X-3236Y-113012D01*
X-3291Y-112956D01*
X-3352Y-112890D01*
X-3413Y-112817D01*
X-3486Y-112740D01*
X-3558Y-112651D01*
X-3635Y-112562D01*
X-3641Y-112557D01*
X-3652Y-112545D01*
X-3669Y-112523D01*
X-3691Y-112496D01*
X-3724Y-112462D01*
X-3757Y-112423D01*
X-3830Y-112335D01*
X-3913Y-112240D01*
X-3996Y-112151D01*
X-4068Y-112074D01*
X-4096Y-112040D01*
X-4124Y-112013D01*
X-4129Y-112007D01*
X-4146Y-111990D01*
X-4168Y-111968D01*
X-4202Y-111941D01*
X-4240Y-111913D01*
X-4279Y-111879D01*
X-4374Y-111813D01*
Y-113705D01*
X-4829D01*
Y-111158D01*
X-4823D01*
X-4801D01*
X-4768D01*
X-4723Y-111163D01*
D02*
G37*
G36*
X6812Y-101589D02*
X3427D01*
Y-103481D01*
X2971D01*
Y-101078D01*
X6812D01*
Y-101589D01*
D02*
G37*
G36*
Y-106872D02*
X6357D01*
Y-104603D01*
X5186D01*
Y-106728D01*
X4731D01*
Y-104603D01*
X3427D01*
Y-106961D01*
X2971D01*
Y-104092D01*
X6812D01*
Y-106872D01*
D02*
G37*
G36*
Y-109142D02*
X6806Y-109242D01*
X6801Y-109353D01*
X6790Y-109464D01*
X6773Y-109575D01*
X6757Y-109670D01*
Y-109675D01*
X6751Y-109686D01*
Y-109703D01*
X6740Y-109725D01*
X6723Y-109786D01*
X6695Y-109864D01*
X6657Y-109953D01*
X6607Y-110047D01*
X6551Y-110141D01*
X6479Y-110230D01*
X6473Y-110236D01*
X6468Y-110241D01*
X6451Y-110258D01*
X6435Y-110280D01*
X6379Y-110336D01*
X6301Y-110402D01*
X6207Y-110474D01*
X6096Y-110552D01*
X5968Y-110624D01*
X5824Y-110685D01*
X5818D01*
X5807Y-110691D01*
X5785Y-110702D01*
X5752Y-110707D01*
X5713Y-110724D01*
X5669Y-110735D01*
X5619Y-110746D01*
X5558Y-110763D01*
X5497Y-110780D01*
X5424Y-110791D01*
X5269Y-110819D01*
X5097Y-110835D01*
X4908Y-110841D01*
X4903D01*
X4892D01*
X4864D01*
X4836D01*
X4797Y-110835D01*
X4753D01*
X4648Y-110830D01*
X4525Y-110813D01*
X4398Y-110796D01*
X4264Y-110769D01*
X4131Y-110735D01*
X4126D01*
X4115Y-110730D01*
X4098Y-110724D01*
X4076Y-110719D01*
X4015Y-110696D01*
X3937Y-110663D01*
X3848Y-110630D01*
X3760Y-110585D01*
X3665Y-110530D01*
X3576Y-110474D01*
X3565Y-110469D01*
X3537Y-110447D01*
X3499Y-110413D01*
X3449Y-110369D01*
X3393Y-110319D01*
X3338Y-110258D01*
X3277Y-110197D01*
X3227Y-110125D01*
X3221Y-110114D01*
X3204Y-110091D01*
X3182Y-110053D01*
X3154Y-109997D01*
X3121Y-109931D01*
X3094Y-109853D01*
X3060Y-109764D01*
X3032Y-109664D01*
Y-109653D01*
X3027Y-109636D01*
X3021Y-109620D01*
X3016Y-109564D01*
X3005Y-109486D01*
X2994Y-109398D01*
X2983Y-109292D01*
X2977Y-109176D01*
X2971Y-109048D01*
Y-107666D01*
X6812D01*
Y-109142D01*
D02*
G37*
G36*
X5863Y-111712D02*
X5874Y-111723D01*
X5880Y-111745D01*
X5896Y-111773D01*
X5913Y-111806D01*
X5935Y-111845D01*
X5991Y-111940D01*
X6052Y-112051D01*
X6129Y-112162D01*
X6218Y-112278D01*
X6312Y-112395D01*
X6318Y-112400D01*
X6324Y-112406D01*
X6340Y-112423D01*
X6357Y-112445D01*
X6412Y-112495D01*
X6479Y-112561D01*
X6557Y-112628D01*
X6645Y-112700D01*
X6734Y-112761D01*
X6829Y-112817D01*
Y-113122D01*
X2971D01*
Y-112650D01*
X5974D01*
X5968Y-112645D01*
X5946Y-112617D01*
X5913Y-112583D01*
X5874Y-112528D01*
X5824Y-112467D01*
X5769Y-112389D01*
X5708Y-112300D01*
X5646Y-112200D01*
Y-112195D01*
X5641Y-112189D01*
X5619Y-112156D01*
X5591Y-112101D01*
X5558Y-112034D01*
X5519Y-111956D01*
X5480Y-111873D01*
X5441Y-111790D01*
X5408Y-111706D01*
X5863D01*
Y-111712D01*
D02*
G37*
G36*
X83942Y-108275D02*
Y-108280D01*
Y-108302D01*
Y-108330D01*
Y-108369D01*
X83936Y-108419D01*
Y-108475D01*
X83931Y-108541D01*
X83925Y-108608D01*
X83908Y-108758D01*
X83886Y-108913D01*
X83853Y-109063D01*
X83831Y-109135D01*
X83808Y-109202D01*
Y-109207D01*
X83803Y-109218D01*
X83792Y-109235D01*
X83781Y-109257D01*
X83748Y-109318D01*
X83697Y-109396D01*
X83631Y-109485D01*
X83553Y-109573D01*
X83453Y-109668D01*
X83331Y-109751D01*
X83326D01*
X83315Y-109762D01*
X83298Y-109768D01*
X83270Y-109784D01*
X83237Y-109801D01*
X83192Y-109818D01*
X83148Y-109834D01*
X83093Y-109856D01*
X83031Y-109879D01*
X82965Y-109895D01*
X82893Y-109912D01*
X82810Y-109929D01*
X82726Y-109940D01*
X82638Y-109951D01*
X82438Y-109962D01*
X82388D01*
X82349Y-109956D01*
X82305D01*
X82249Y-109951D01*
X82188Y-109945D01*
X82127Y-109940D01*
X81988Y-109917D01*
X81838Y-109884D01*
X81694Y-109840D01*
X81555Y-109779D01*
X81550D01*
X81539Y-109768D01*
X81522Y-109757D01*
X81500Y-109746D01*
X81439Y-109701D01*
X81366Y-109640D01*
X81283Y-109562D01*
X81206Y-109474D01*
X81128Y-109362D01*
X81067Y-109240D01*
Y-109235D01*
X81061Y-109224D01*
X81056Y-109202D01*
X81045Y-109174D01*
X81033Y-109141D01*
X81022Y-109096D01*
X81006Y-109046D01*
X80995Y-108985D01*
X80984Y-108918D01*
X80967Y-108846D01*
X80956Y-108769D01*
X80945Y-108685D01*
X80934Y-108591D01*
X80928Y-108491D01*
X80923Y-108386D01*
Y-108275D01*
Y-106055D01*
X81433D01*
Y-108275D01*
Y-108280D01*
Y-108297D01*
Y-108325D01*
Y-108358D01*
X81439Y-108397D01*
Y-108447D01*
X81444Y-108552D01*
X81455Y-108674D01*
X81472Y-108796D01*
X81494Y-108913D01*
X81505Y-108963D01*
X81522Y-109013D01*
X81528Y-109024D01*
X81539Y-109052D01*
X81566Y-109091D01*
X81600Y-109146D01*
X81638Y-109202D01*
X81694Y-109263D01*
X81761Y-109324D01*
X81838Y-109374D01*
X81849Y-109379D01*
X81877Y-109396D01*
X81927Y-109413D01*
X81994Y-109435D01*
X82071Y-109462D01*
X82171Y-109479D01*
X82277Y-109496D01*
X82393Y-109501D01*
X82449D01*
X82482Y-109496D01*
X82532D01*
X82582Y-109490D01*
X82704Y-109468D01*
X82837Y-109440D01*
X82965Y-109396D01*
X83087Y-109335D01*
X83143Y-109296D01*
X83192Y-109251D01*
X83198Y-109246D01*
X83204Y-109240D01*
X83215Y-109224D01*
X83231Y-109202D01*
X83248Y-109168D01*
X83270Y-109135D01*
X83292Y-109085D01*
X83315Y-109035D01*
X83337Y-108974D01*
X83353Y-108902D01*
X83376Y-108819D01*
X83392Y-108730D01*
X83409Y-108630D01*
X83420Y-108525D01*
X83431Y-108402D01*
Y-108275D01*
Y-106055D01*
X83942D01*
Y-108275D01*
D02*
G37*
G36*
X85962Y-106044D02*
X86006Y-106049D01*
X86062Y-106055D01*
X86123Y-106066D01*
X86184Y-106077D01*
X86328Y-106116D01*
X86472Y-106171D01*
X86545Y-106205D01*
X86617Y-106243D01*
X86683Y-106293D01*
X86744Y-106349D01*
X86750Y-106354D01*
X86761Y-106360D01*
X86772Y-106382D01*
X86794Y-106404D01*
X86822Y-106432D01*
X86850Y-106471D01*
X86878Y-106510D01*
X86911Y-106560D01*
X86967Y-106665D01*
X87022Y-106798D01*
X87044Y-106865D01*
X87055Y-106943D01*
X87066Y-107020D01*
X87072Y-107104D01*
Y-107115D01*
Y-107142D01*
X87066Y-107187D01*
X87061Y-107248D01*
X87050Y-107315D01*
X87028Y-107392D01*
X87005Y-107475D01*
X86972Y-107559D01*
X86967Y-107570D01*
X86955Y-107598D01*
X86933Y-107642D01*
X86900Y-107703D01*
X86856Y-107770D01*
X86800Y-107853D01*
X86733Y-107936D01*
X86656Y-108030D01*
X86645Y-108042D01*
X86617Y-108075D01*
X86589Y-108103D01*
X86561Y-108130D01*
X86528Y-108164D01*
X86484Y-108208D01*
X86439Y-108253D01*
X86384Y-108302D01*
X86328Y-108358D01*
X86262Y-108419D01*
X86190Y-108480D01*
X86112Y-108552D01*
X86023Y-108624D01*
X85934Y-108702D01*
X85929Y-108708D01*
X85918Y-108719D01*
X85895Y-108735D01*
X85868Y-108758D01*
X85834Y-108791D01*
X85795Y-108824D01*
X85707Y-108896D01*
X85612Y-108980D01*
X85523Y-109063D01*
X85446Y-109135D01*
X85413Y-109163D01*
X85385Y-109190D01*
X85379Y-109196D01*
X85362Y-109213D01*
X85340Y-109235D01*
X85313Y-109268D01*
X85285Y-109307D01*
X85251Y-109346D01*
X85185Y-109440D01*
X87077D01*
Y-109895D01*
X84530D01*
Y-109890D01*
Y-109868D01*
Y-109834D01*
X84536Y-109790D01*
X84541Y-109740D01*
X84552Y-109684D01*
X84563Y-109629D01*
X84585Y-109568D01*
Y-109562D01*
X84591Y-109557D01*
X84602Y-109523D01*
X84624Y-109474D01*
X84658Y-109407D01*
X84702Y-109329D01*
X84758Y-109240D01*
X84819Y-109152D01*
X84896Y-109057D01*
Y-109052D01*
X84907Y-109046D01*
X84935Y-109013D01*
X84985Y-108963D01*
X85057Y-108891D01*
X85141Y-108808D01*
X85246Y-108708D01*
X85374Y-108597D01*
X85512Y-108480D01*
X85518Y-108475D01*
X85540Y-108458D01*
X85573Y-108430D01*
X85612Y-108397D01*
X85662Y-108352D01*
X85723Y-108302D01*
X85784Y-108247D01*
X85856Y-108186D01*
X85995Y-108053D01*
X86134Y-107920D01*
X86201Y-107853D01*
X86262Y-107786D01*
X86317Y-107725D01*
X86361Y-107664D01*
Y-107659D01*
X86373Y-107653D01*
X86384Y-107636D01*
X86395Y-107614D01*
X86434Y-107553D01*
X86478Y-107481D01*
X86517Y-107392D01*
X86556Y-107298D01*
X86578Y-107193D01*
X86589Y-107093D01*
Y-107087D01*
Y-107081D01*
X86584Y-107048D01*
X86578Y-106993D01*
X86561Y-106932D01*
X86539Y-106854D01*
X86500Y-106776D01*
X86450Y-106699D01*
X86384Y-106621D01*
X86373Y-106610D01*
X86345Y-106588D01*
X86306Y-106560D01*
X86245Y-106521D01*
X86167Y-106488D01*
X86079Y-106454D01*
X85973Y-106432D01*
X85856Y-106427D01*
X85823D01*
X85801Y-106432D01*
X85734Y-106438D01*
X85657Y-106454D01*
X85573Y-106476D01*
X85479Y-106515D01*
X85390Y-106565D01*
X85307Y-106632D01*
X85296Y-106643D01*
X85274Y-106671D01*
X85240Y-106715D01*
X85207Y-106782D01*
X85168Y-106860D01*
X85135Y-106959D01*
X85113Y-107070D01*
X85102Y-107198D01*
X84619Y-107148D01*
Y-107142D01*
X84624Y-107126D01*
Y-107098D01*
X84630Y-107059D01*
X84641Y-107015D01*
X84652Y-106965D01*
X84669Y-106904D01*
X84685Y-106843D01*
X84730Y-106710D01*
X84796Y-106576D01*
X84835Y-106510D01*
X84885Y-106443D01*
X84935Y-106382D01*
X84991Y-106327D01*
X84996Y-106321D01*
X85007Y-106316D01*
X85024Y-106299D01*
X85052Y-106282D01*
X85085Y-106260D01*
X85124Y-106238D01*
X85168Y-106210D01*
X85224Y-106182D01*
X85285Y-106155D01*
X85351Y-106127D01*
X85424Y-106105D01*
X85501Y-106082D01*
X85584Y-106066D01*
X85673Y-106049D01*
X85768Y-106044D01*
X85868Y-106038D01*
X85923D01*
X85962Y-106044D01*
D02*
G37*
%LPC*%
G36*
X15124Y142918D02*
X13914D01*
Y141647D01*
X15057D01*
X15124Y141653D01*
X15201Y141658D01*
X15290Y141664D01*
X15379Y141675D01*
X15468Y141691D01*
X15545Y141714D01*
X15556Y141719D01*
X15579Y141730D01*
X15612Y141747D01*
X15656Y141769D01*
X15706Y141802D01*
X15756Y141841D01*
X15806Y141891D01*
X15845Y141947D01*
X15851Y141952D01*
X15862Y141974D01*
X15878Y142008D01*
X15901Y142052D01*
X15917Y142102D01*
X15934Y142158D01*
X15945Y142224D01*
X15951Y142291D01*
Y142296D01*
Y142302D01*
X15945Y142335D01*
X15939Y142385D01*
X15928Y142452D01*
X15901Y142518D01*
X15867Y142596D01*
X15817Y142668D01*
X15751Y142740D01*
X15740Y142746D01*
X15712Y142768D01*
X15667Y142796D01*
X15595Y142829D01*
X15512Y142862D01*
X15401Y142890D01*
X15273Y142912D01*
X15124Y142918D01*
D02*
G37*
G36*
X16093Y127490D02*
X15205D01*
Y124560D01*
X16115D01*
X16154Y124565D01*
X16237Y124571D01*
X16331Y124576D01*
X16431Y124588D01*
X16531Y124604D01*
X16614Y124626D01*
X16626Y124632D01*
X16653Y124637D01*
X16692Y124654D01*
X16742Y124676D01*
X16798Y124710D01*
X16853Y124743D01*
X16909Y124782D01*
X16964Y124826D01*
X16970Y124837D01*
X16992Y124859D01*
X17025Y124898D01*
X17064Y124954D01*
X17109Y125026D01*
X17158Y125109D01*
X17203Y125204D01*
X17242Y125309D01*
Y125315D01*
X17247Y125326D01*
X17253Y125342D01*
X17258Y125364D01*
X17264Y125392D01*
X17275Y125431D01*
X17286Y125470D01*
X17297Y125514D01*
X17314Y125625D01*
X17331Y125753D01*
X17342Y125897D01*
X17347Y126053D01*
Y126058D01*
Y126081D01*
Y126108D01*
X17342Y126153D01*
Y126203D01*
X17336Y126258D01*
X17331Y126325D01*
X17325Y126391D01*
X17297Y126541D01*
X17264Y126697D01*
X17214Y126841D01*
X17181Y126913D01*
X17147Y126974D01*
Y126980D01*
X17136Y126991D01*
X17125Y127007D01*
X17114Y127030D01*
X17070Y127085D01*
X17014Y127152D01*
X16942Y127224D01*
X16859Y127296D01*
X16764Y127357D01*
X16665Y127407D01*
X16653Y127412D01*
X16626Y127418D01*
X16576Y127435D01*
X16504Y127451D01*
X16415Y127462D01*
X16304Y127479D01*
X16237Y127485D01*
X16165D01*
X16093Y127490D01*
D02*
G37*
G36*
X-110823Y-81346D02*
X-112033Y-83066D01*
X-110823D01*
Y-81346D01*
D02*
G37*
G36*
X-9205Y142054D02*
X-10415Y140334D01*
X-9205D01*
Y142054D01*
D02*
G37*
G36*
X-12668Y142393D02*
X-13878D01*
Y141122D01*
X-12735D01*
X-12668Y141128D01*
X-12590Y141133D01*
X-12502Y141139D01*
X-12413Y141150D01*
X-12324Y141166D01*
X-12246Y141189D01*
X-12235Y141194D01*
X-12213Y141205D01*
X-12180Y141222D01*
X-12135Y141244D01*
X-12085Y141277D01*
X-12035Y141316D01*
X-11985Y141366D01*
X-11947Y141422D01*
X-11941Y141427D01*
X-11930Y141449D01*
X-11913Y141483D01*
X-11891Y141527D01*
X-11874Y141577D01*
X-11858Y141633D01*
X-11847Y141699D01*
X-11841Y141766D01*
Y141771D01*
Y141777D01*
X-11847Y141810D01*
X-11852Y141860D01*
X-11863Y141927D01*
X-11891Y141993D01*
X-11924Y142071D01*
X-11974Y142143D01*
X-12041Y142215D01*
X-12052Y142221D01*
X-12080Y142243D01*
X-12124Y142271D01*
X-12196Y142304D01*
X-12280Y142337D01*
X-12391Y142365D01*
X-12518Y142387D01*
X-12668Y142393D01*
D02*
G37*
G36*
X4218Y-82050D02*
X2628D01*
Y-83719D01*
X4130D01*
X4218Y-83712D01*
X4320Y-83705D01*
X4436Y-83697D01*
X4553Y-83683D01*
X4670Y-83661D01*
X4772Y-83632D01*
X4786Y-83625D01*
X4815Y-83610D01*
X4859Y-83588D01*
X4917Y-83559D01*
X4983Y-83515D01*
X5049Y-83464D01*
X5114Y-83399D01*
X5165Y-83326D01*
X5173Y-83318D01*
X5187Y-83289D01*
X5209Y-83245D01*
X5238Y-83187D01*
X5260Y-83122D01*
X5282Y-83049D01*
X5297Y-82961D01*
X5304Y-82874D01*
Y-82866D01*
Y-82859D01*
X5297Y-82815D01*
X5289Y-82750D01*
X5275Y-82662D01*
X5238Y-82575D01*
X5195Y-82473D01*
X5129Y-82378D01*
X5041Y-82283D01*
X5027Y-82276D01*
X4990Y-82247D01*
X4932Y-82210D01*
X4837Y-82167D01*
X4728Y-82123D01*
X4582Y-82086D01*
X4414Y-82057D01*
X4218Y-82050D01*
D02*
G37*
G36*
X-7320Y-82306D02*
X-8909D01*
Y-83975D01*
X-7407D01*
X-7320Y-83968D01*
X-7217Y-83961D01*
X-7101Y-83953D01*
X-6984Y-83939D01*
X-6867Y-83917D01*
X-6765Y-83888D01*
X-6751Y-83881D01*
X-6722Y-83866D01*
X-6678Y-83844D01*
X-6620Y-83815D01*
X-6554Y-83771D01*
X-6488Y-83720D01*
X-6423Y-83654D01*
X-6372Y-83582D01*
X-6364Y-83574D01*
X-6350Y-83545D01*
X-6328Y-83501D01*
X-6299Y-83443D01*
X-6277Y-83377D01*
X-6255Y-83305D01*
X-6241Y-83217D01*
X-6233Y-83130D01*
Y-83122D01*
Y-83115D01*
X-6241Y-83071D01*
X-6248Y-83006D01*
X-6262Y-82918D01*
X-6299Y-82831D01*
X-6343Y-82729D01*
X-6408Y-82634D01*
X-6496Y-82539D01*
X-6510Y-82532D01*
X-6547Y-82503D01*
X-6605Y-82466D01*
X-6700Y-82423D01*
X-6809Y-82379D01*
X-6955Y-82342D01*
X-7123Y-82313D01*
X-7320Y-82306D01*
D02*
G37*
G36*
X-9898Y126654D02*
X-11108Y124934D01*
X-9898D01*
Y126654D01*
D02*
G37*
G36*
X-13689Y126965D02*
X-14577D01*
Y124035D01*
X-13667D01*
X-13628Y124040D01*
X-13544Y124046D01*
X-13450Y124051D01*
X-13350Y124063D01*
X-13250Y124079D01*
X-13167Y124101D01*
X-13156Y124107D01*
X-13128Y124112D01*
X-13089Y124129D01*
X-13039Y124151D01*
X-12984Y124185D01*
X-12928Y124218D01*
X-12873Y124257D01*
X-12817Y124301D01*
X-12812Y124312D01*
X-12790Y124335D01*
X-12756Y124373D01*
X-12717Y124429D01*
X-12673Y124501D01*
X-12623Y124584D01*
X-12579Y124679D01*
X-12540Y124784D01*
Y124790D01*
X-12534Y124801D01*
X-12529Y124817D01*
X-12523Y124840D01*
X-12518Y124867D01*
X-12507Y124906D01*
X-12495Y124945D01*
X-12484Y124989D01*
X-12468Y125100D01*
X-12451Y125228D01*
X-12440Y125372D01*
X-12434Y125528D01*
Y125533D01*
Y125556D01*
Y125583D01*
X-12440Y125628D01*
Y125678D01*
X-12445Y125733D01*
X-12451Y125800D01*
X-12457Y125866D01*
X-12484Y126016D01*
X-12518Y126172D01*
X-12568Y126316D01*
X-12601Y126388D01*
X-12634Y126449D01*
Y126455D01*
X-12645Y126466D01*
X-12656Y126482D01*
X-12667Y126505D01*
X-12712Y126560D01*
X-12767Y126627D01*
X-12840Y126699D01*
X-12923Y126771D01*
X-13017Y126832D01*
X-13117Y126882D01*
X-13128Y126888D01*
X-13156Y126893D01*
X-13206Y126910D01*
X-13278Y126926D01*
X-13367Y126937D01*
X-13478Y126954D01*
X-13544Y126960D01*
X-13617D01*
X-13689Y126965D01*
D02*
G37*
G36*
X36973Y136548D02*
X36884D01*
X36862Y136543D01*
X36801Y136537D01*
X36729Y136515D01*
X36640Y136487D01*
X36546Y136437D01*
X36451Y136376D01*
X36407Y136332D01*
X36362Y136288D01*
Y136282D01*
X36351Y136276D01*
X36340Y136260D01*
X36329Y136243D01*
X36290Y136188D01*
X36252Y136110D01*
X36207Y136016D01*
X36168Y135899D01*
X36146Y135766D01*
X36135Y135622D01*
Y135616D01*
Y135605D01*
Y135588D01*
X36140Y135561D01*
Y135527D01*
X36146Y135494D01*
X36163Y135411D01*
X36191Y135316D01*
X36224Y135216D01*
X36279Y135117D01*
X36351Y135028D01*
X36362Y135017D01*
X36390Y134994D01*
X36440Y134956D01*
X36501Y134917D01*
X36584Y134872D01*
X36679Y134834D01*
X36784Y134811D01*
X36901Y134800D01*
X36934D01*
X36956Y134806D01*
X37017Y134811D01*
X37090Y134828D01*
X37178Y134856D01*
X37267Y134895D01*
X37356Y134950D01*
X37439Y135028D01*
X37450Y135039D01*
X37473Y135072D01*
X37506Y135122D01*
X37550Y135194D01*
X37589Y135283D01*
X37622Y135389D01*
X37645Y135516D01*
X37656Y135660D01*
Y135666D01*
Y135677D01*
Y135699D01*
X37650Y135727D01*
Y135766D01*
X37645Y135805D01*
X37628Y135894D01*
X37606Y135999D01*
X37567Y136110D01*
X37511Y136215D01*
X37439Y136310D01*
Y136315D01*
X37428Y136321D01*
X37400Y136349D01*
X37356Y136388D01*
X37295Y136432D01*
X37217Y136471D01*
X37128Y136510D01*
X37029Y136537D01*
X36973Y136548D01*
D02*
G37*
G36*
X98496Y-90820D02*
X98462D01*
X98440Y-90825D01*
X98385Y-90831D01*
X98307Y-90847D01*
X98224Y-90875D01*
X98129Y-90920D01*
X98040Y-90975D01*
X97952Y-91053D01*
X97940Y-91064D01*
X97918Y-91092D01*
X97879Y-91141D01*
X97841Y-91214D01*
X97802Y-91297D01*
X97763Y-91402D01*
X97741Y-91519D01*
X97730Y-91652D01*
Y-91663D01*
Y-91691D01*
X97735Y-91741D01*
X97741Y-91802D01*
X97752Y-91874D01*
X97774Y-91952D01*
X97796Y-92035D01*
X97830Y-92118D01*
X97835Y-92129D01*
X97852Y-92157D01*
X97874Y-92196D01*
X97907Y-92246D01*
X97946Y-92296D01*
X97996Y-92357D01*
X98052Y-92407D01*
X98118Y-92457D01*
X98129Y-92462D01*
X98151Y-92474D01*
X98190Y-92496D01*
X98240Y-92512D01*
X98296Y-92535D01*
X98362Y-92557D01*
X98435Y-92568D01*
X98512Y-92573D01*
X98540D01*
X98562Y-92568D01*
X98618Y-92562D01*
X98690Y-92546D01*
X98768Y-92512D01*
X98856Y-92474D01*
X98945Y-92413D01*
X98989Y-92379D01*
X99028Y-92335D01*
Y-92329D01*
X99039Y-92324D01*
X99062Y-92290D01*
X99095Y-92235D01*
X99139Y-92163D01*
X99178Y-92068D01*
X99212Y-91957D01*
X99234Y-91830D01*
X99245Y-91680D01*
Y-91674D01*
Y-91663D01*
Y-91641D01*
X99239Y-91613D01*
Y-91580D01*
X99234Y-91541D01*
X99217Y-91452D01*
X99195Y-91352D01*
X99156Y-91247D01*
X99101Y-91147D01*
X99028Y-91053D01*
X99017Y-91042D01*
X98989Y-91014D01*
X98945Y-90981D01*
X98884Y-90936D01*
X98806Y-90892D01*
X98718Y-90859D01*
X98612Y-90831D01*
X98496Y-90820D01*
D02*
G37*
G36*
X92268Y-89482D02*
X91059D01*
Y-90753D01*
X92202D01*
X92268Y-90747D01*
X92346Y-90742D01*
X92435Y-90736D01*
X92524Y-90725D01*
X92612Y-90709D01*
X92690Y-90686D01*
X92701Y-90681D01*
X92724Y-90670D01*
X92757Y-90653D01*
X92801Y-90631D01*
X92851Y-90598D01*
X92901Y-90559D01*
X92951Y-90509D01*
X92990Y-90453D01*
X92996Y-90448D01*
X93007Y-90426D01*
X93023Y-90392D01*
X93046Y-90348D01*
X93062Y-90298D01*
X93079Y-90242D01*
X93090Y-90176D01*
X93095Y-90109D01*
Y-90104D01*
Y-90098D01*
X93090Y-90065D01*
X93084Y-90015D01*
X93073Y-89948D01*
X93046Y-89882D01*
X93012Y-89804D01*
X92962Y-89732D01*
X92896Y-89660D01*
X92884Y-89654D01*
X92857Y-89632D01*
X92812Y-89604D01*
X92740Y-89571D01*
X92657Y-89538D01*
X92546Y-89510D01*
X92418Y-89488D01*
X92268Y-89482D01*
D02*
G37*
G36*
X92010Y-82482D02*
X90801D01*
Y-83753D01*
X91944D01*
X92010Y-83748D01*
X92088Y-83742D01*
X92177Y-83736D01*
X92266Y-83725D01*
X92355Y-83709D01*
X92432Y-83686D01*
X92443Y-83681D01*
X92466Y-83670D01*
X92499Y-83653D01*
X92543Y-83631D01*
X92593Y-83598D01*
X92643Y-83559D01*
X92693Y-83509D01*
X92732Y-83453D01*
X92738Y-83448D01*
X92749Y-83426D01*
X92765Y-83392D01*
X92787Y-83348D01*
X92804Y-83298D01*
X92821Y-83242D01*
X92832Y-83176D01*
X92837Y-83109D01*
Y-83104D01*
Y-83098D01*
X92832Y-83065D01*
X92826Y-83015D01*
X92815Y-82948D01*
X92787Y-82882D01*
X92754Y-82804D01*
X92704Y-82732D01*
X92638Y-82660D01*
X92627Y-82654D01*
X92599Y-82632D01*
X92554Y-82604D01*
X92482Y-82571D01*
X92399Y-82538D01*
X92288Y-82510D01*
X92160Y-82488D01*
X92010Y-82482D01*
D02*
G37*
G36*
X95811Y-74846D02*
X94601Y-76566D01*
X95811D01*
Y-74846D01*
D02*
G37*
G36*
X-1443Y-108055D02*
X-4374D01*
Y-108966D01*
X-4368Y-109004D01*
X-4362Y-109088D01*
X-4357Y-109182D01*
X-4346Y-109282D01*
X-4329Y-109382D01*
X-4307Y-109465D01*
X-4301Y-109476D01*
X-4296Y-109504D01*
X-4279Y-109543D01*
X-4257Y-109593D01*
X-4224Y-109648D01*
X-4190Y-109704D01*
X-4152Y-109759D01*
X-4107Y-109815D01*
X-4096Y-109820D01*
X-4074Y-109843D01*
X-4035Y-109876D01*
X-3980Y-109915D01*
X-3907Y-109959D01*
X-3824Y-110009D01*
X-3730Y-110054D01*
X-3624Y-110092D01*
X-3619D01*
X-3608Y-110098D01*
X-3591Y-110103D01*
X-3569Y-110109D01*
X-3541Y-110115D01*
X-3502Y-110126D01*
X-3463Y-110137D01*
X-3419Y-110148D01*
X-3308Y-110164D01*
X-3180Y-110181D01*
X-3036Y-110192D01*
X-2881Y-110198D01*
X-2875D01*
X-2853D01*
X-2825D01*
X-2781Y-110192D01*
X-2731D01*
X-2675Y-110187D01*
X-2609Y-110181D01*
X-2542Y-110176D01*
X-2392Y-110148D01*
X-2237Y-110115D01*
X-2093Y-110065D01*
X-2020Y-110031D01*
X-1959Y-109998D01*
X-1954D01*
X-1943Y-109987D01*
X-1926Y-109976D01*
X-1904Y-109965D01*
X-1848Y-109920D01*
X-1782Y-109865D01*
X-1709Y-109793D01*
X-1637Y-109709D01*
X-1576Y-109615D01*
X-1526Y-109515D01*
X-1521Y-109504D01*
X-1515Y-109476D01*
X-1499Y-109426D01*
X-1482Y-109354D01*
X-1471Y-109265D01*
X-1454Y-109154D01*
X-1449Y-109088D01*
Y-109016D01*
X-1443Y-108943D01*
Y-108055D01*
D02*
G37*
G36*
X6357Y-108177D02*
X3427D01*
Y-109087D01*
X3432Y-109126D01*
X3438Y-109209D01*
X3443Y-109303D01*
X3454Y-109403D01*
X3471Y-109503D01*
X3493Y-109586D01*
X3499Y-109598D01*
X3504Y-109625D01*
X3521Y-109664D01*
X3543Y-109714D01*
X3576Y-109770D01*
X3610Y-109825D01*
X3649Y-109880D01*
X3693Y-109936D01*
X3704Y-109942D01*
X3726Y-109964D01*
X3765Y-109997D01*
X3821Y-110036D01*
X3893Y-110080D01*
X3976Y-110130D01*
X4070Y-110175D01*
X4176Y-110214D01*
X4181D01*
X4192Y-110219D01*
X4209Y-110225D01*
X4231Y-110230D01*
X4259Y-110236D01*
X4298Y-110247D01*
X4337Y-110258D01*
X4381Y-110269D01*
X4492Y-110286D01*
X4620Y-110302D01*
X4764Y-110313D01*
X4919Y-110319D01*
X4925D01*
X4947D01*
X4975D01*
X5019Y-110313D01*
X5069D01*
X5125Y-110308D01*
X5191Y-110302D01*
X5258Y-110297D01*
X5408Y-110269D01*
X5563Y-110236D01*
X5708Y-110186D01*
X5780Y-110152D01*
X5841Y-110119D01*
X5846D01*
X5857Y-110108D01*
X5874Y-110097D01*
X5896Y-110086D01*
X5952Y-110041D01*
X6018Y-109986D01*
X6090Y-109914D01*
X6163Y-109831D01*
X6224Y-109736D01*
X6274Y-109636D01*
X6279Y-109625D01*
X6285Y-109598D01*
X6301Y-109548D01*
X6318Y-109475D01*
X6329Y-109387D01*
X6346Y-109276D01*
X6351Y-109209D01*
Y-109137D01*
X6357Y-109065D01*
Y-108177D01*
D02*
G37*
%LPD*%
D10*
X-22835Y-94488D02*
G03*
X-22835Y-94488I-24409J0D01*
G01*
X71653D02*
G03*
X71653Y-94488I-24409J0D01*
G01*
Y94488D02*
G03*
X71653Y94488I-24409J0D01*
G01*
X-22835D02*
G03*
X-22835Y94488I-24409J0D01*
G01*
D11*
X87172Y-128056D02*
G03*
X87172Y-128056I-1181J0D01*
G01*
D12*
X94849Y-133951D02*
G03*
X94849Y-133951I-492J0D01*
G01*
D13*
X77329Y-112308D02*
X89928D01*
X77329Y-131992D02*
X89928D01*
X77329D02*
Y-112308D01*
X89928Y-131992D02*
Y-112308D01*
D14*
X-30890Y-158173D02*
Y-153449D01*
Y-158173D02*
X31787D01*
Y-153449D01*
D15*
X75831Y-100551D02*
X87347D01*
X75831D02*
Y-94547D01*
X87347Y-100551D02*
Y-94547D01*
X75831D02*
X87347D01*
X-244Y-99768D02*
Y-88744D01*
X-5756Y-99768D02*
X-244D01*
X-5756D02*
Y-88744D01*
X-244D01*
X6756Y-99512D02*
Y-88488D01*
X1244Y-99512D02*
X6756D01*
X1244D02*
Y-88488D01*
X6756D01*
X-15868Y137456D02*
X-4844D01*
Y131944D02*
Y137456D01*
X-15868Y131944D02*
X-4844D01*
X-15868D02*
Y137456D01*
X11488Y137756D02*
X22512D01*
Y132244D02*
Y137756D01*
X11488Y132244D02*
X22512D01*
X11488D02*
Y137756D01*
X75732Y-93256D02*
X86756D01*
X75732D02*
Y-87744D01*
X86756D01*
Y-93256D02*
Y-87744D01*
X-80051Y-102847D02*
Y-91331D01*
X-74047D01*
X-80051Y-102847D02*
X-74047D01*
Y-91331D01*
X87012Y-86256D02*
Y-80744D01*
X75988D02*
X87012D01*
X75988Y-86256D02*
Y-80744D01*
Y-86256D02*
X87012D01*
X31791Y125647D02*
X43307D01*
X31791D02*
Y131651D01*
X43307Y125647D02*
Y131651D01*
X31791D02*
X43307D01*
X75831Y-72547D02*
X87347D01*
Y-78551D02*
Y-72547D01*
X75831Y-78551D02*
Y-72547D01*
Y-78551D02*
X87347D01*
X-43807Y128953D02*
X-32291D01*
Y122949D02*
Y128953D01*
X-43807Y122949D02*
Y128953D01*
Y122949D02*
X-32291D01*
D16*
X13000Y-125900D02*
X16999D01*
X-15300Y-125501D02*
X-11301D01*
X-13301Y-123501D02*
Y-127500D01*
M02*
