G04*
G04 #@! TF.GenerationSoftware,Altium Limited,Altium Designer,20.2.4 (192)*
G04*
G04 Layer_Color=16711935*
%FSLAX44Y44*%
%MOMM*%
G71*
G04*
G04 #@! TF.SameCoordinates,03AB348B-DD29-4870-A44B-8DF697E34D15*
G04*
G04*
G04 #@! TF.FilePolarity,Negative*
G04*
G01*
G75*
%ADD51R,1.9032X1.9032*%
%ADD52C,1.9032*%
%ADD53R,1.9032X1.9032*%
%ADD54C,2.3000*%
%ADD55R,2.3000X2.3000*%
%ADD56R,2.3000X2.3000*%
%ADD57P,2.6915X4X180.0*%
%ADD58C,1.9282*%
%ADD59R,1.9282X1.9282*%
%ADD60P,2.6915X4X90.0*%
%ADD61C,3.3000*%
%ADD62C,6.2032*%
%ADD63C,3.7500*%
%ADD86R,3.2000X6.1000*%
%ADD87R,4.2000X3.9000*%
D51*
X156750Y577700D02*
D03*
X383540Y821690D02*
D03*
X72700Y305700D02*
D03*
X416750Y607550D02*
D03*
D52*
X156750Y552300D02*
D03*
X451500Y548750D02*
D03*
X408940Y821690D02*
D03*
X383540Y796290D02*
D03*
X408940D02*
D03*
X383540Y770890D02*
D03*
X408940D02*
D03*
X383540Y745490D02*
D03*
X408940D02*
D03*
X319600Y318500D02*
D03*
X74250Y82750D02*
D03*
X47300Y305700D02*
D03*
X72700Y331100D02*
D03*
X47300D02*
D03*
X72700Y356500D02*
D03*
X47300D02*
D03*
X72700Y381900D02*
D03*
X47300D02*
D03*
X72700Y407300D02*
D03*
X47300D02*
D03*
X72700Y432700D02*
D03*
X47300D02*
D03*
X72700Y458100D02*
D03*
X47300D02*
D03*
X72700Y483500D02*
D03*
X47300D02*
D03*
X72700Y508900D02*
D03*
X47300D02*
D03*
X72700Y534300D02*
D03*
X47300D02*
D03*
X174750Y39250D02*
D03*
X96700Y778690D02*
D03*
X416750Y632950D02*
D03*
X78740Y760730D02*
D03*
D53*
X426100Y548750D02*
D03*
X345000Y318500D02*
D03*
X149350Y39250D02*
D03*
D54*
X848360Y221900D02*
D03*
Y260000D02*
D03*
X265000Y759460D02*
D03*
X303100D02*
D03*
X75000Y614000D02*
D03*
Y652100D02*
D03*
X633730Y759460D02*
D03*
X740410D02*
D03*
D55*
X848360Y298100D02*
D03*
X75000Y575900D02*
D03*
D56*
X226900Y759460D02*
D03*
X702310D02*
D03*
X595630D02*
D03*
D57*
X92211Y64790D02*
D03*
D58*
X567300Y460800D02*
D03*
Y359200D02*
D03*
X592700Y460800D02*
D03*
X567300Y435400D02*
D03*
Y384600D02*
D03*
Y410000D02*
D03*
X592700Y435400D02*
D03*
Y384600D02*
D03*
Y410000D02*
D03*
D59*
X592800Y358950D02*
D03*
D60*
X60780Y742769D02*
D03*
D61*
X251440Y83190D02*
D03*
Y210190D02*
D03*
D62*
X150000Y150000D02*
D03*
X810000Y690000D02*
D03*
Y150000D02*
D03*
X150000Y690000D02*
D03*
D63*
X337840Y170190D02*
D03*
X637540Y123190D02*
D03*
D86*
X483750Y40750D02*
D03*
D87*
Y265750D02*
D03*
M02*
