G04*
G04 #@! TF.GenerationSoftware,Altium Limited,Altium Designer,20.2.4 (192)*
G04*
G04 Layer_Color=65535*
%FSLAX44Y44*%
%MOMM*%
G71*
G04*
G04 #@! TF.SameCoordinates,03AB348B-DD29-4870-A44B-8DF697E34D15*
G04*
G04*
G04 #@! TF.FilePolarity,Positive*
G04*
G01*
G75*
%ADD10C,0.2000*%
%ADD11C,0.2500*%
%ADD12C,0.4000*%
%ADD13C,0.1500*%
%ADD14C,0.0500*%
%ADD15C,0.1524*%
%ADD16C,0.1270*%
%ADD17C,0.5000*%
%ADD18C,0.2540*%
G36*
X932553Y601764D02*
X932885D01*
Y601432D01*
X933217D01*
Y601099D01*
X933550D01*
Y600767D01*
X934214D01*
Y600435D01*
X934546D01*
Y600103D01*
X934878D01*
Y599771D01*
X935210D01*
Y599439D01*
X935874D01*
Y599106D01*
X936207D01*
Y598774D01*
X936539D01*
Y598442D01*
X936871D01*
Y598110D01*
X937535D01*
Y597778D01*
X937867D01*
Y597446D01*
X938199D01*
Y597114D01*
X938532D01*
Y596782D01*
X939196D01*
Y596450D01*
X939528D01*
Y596117D01*
X939860D01*
Y595785D01*
X940524D01*
Y595453D01*
X940856D01*
Y595121D01*
X941189D01*
Y594789D01*
X941521D01*
Y594457D01*
X942185D01*
Y594125D01*
X942517D01*
Y593792D01*
X942849D01*
Y593460D01*
X943181D01*
Y593128D01*
X943846D01*
Y592796D01*
X944178D01*
Y592464D01*
X944510D01*
Y592132D01*
X944842D01*
Y591800D01*
X945506D01*
Y591468D01*
X945838D01*
Y591135D01*
X946171D01*
Y590803D01*
X946503D01*
Y549619D01*
X924914D01*
Y581504D01*
X924582D01*
Y582168D01*
X924250D01*
Y582500D01*
X923918D01*
Y582832D01*
X923586D01*
Y583164D01*
X917939D01*
Y582832D01*
X917607D01*
Y582500D01*
X917275D01*
Y582168D01*
X916943D01*
Y581836D01*
X916611D01*
Y549287D01*
X916279D01*
Y549619D01*
X895022D01*
Y581504D01*
X894690D01*
Y581836D01*
X894358D01*
Y582500D01*
X894026D01*
Y582832D01*
X893362D01*
Y583164D01*
X887716D01*
Y582832D01*
X887383D01*
Y582500D01*
X887051D01*
Y582168D01*
X886719D01*
Y581836D01*
X886387D01*
Y558919D01*
X871773D01*
Y559583D01*
X871441D01*
Y560247D01*
X871109D01*
Y561244D01*
X870777D01*
Y561908D01*
X870445D01*
Y562572D01*
X870113D01*
Y563568D01*
X869781D01*
Y564233D01*
X869448D01*
Y564897D01*
X869116D01*
Y565893D01*
X868784D01*
Y566558D01*
X868452D01*
Y567554D01*
X868120D01*
Y568218D01*
X867788D01*
Y568883D01*
X867456D01*
Y569879D01*
X867123D01*
Y570543D01*
X866791D01*
Y571208D01*
X866459D01*
Y572204D01*
X866127D01*
Y572868D01*
X865795D01*
Y573532D01*
X865463D01*
Y574529D01*
X865131D01*
Y581171D01*
X864799D01*
Y581504D01*
X864466D01*
Y581836D01*
X864134D01*
Y582168D01*
X863802D01*
Y582500D01*
X863470D01*
Y582832D01*
X863138D01*
Y583164D01*
X841881D01*
Y582832D01*
X841549D01*
Y582500D01*
X841217D01*
Y581836D01*
X840885D01*
Y581504D01*
X840553D01*
Y581171D01*
X840221D01*
Y574861D01*
X856495D01*
Y574529D01*
X856827D01*
Y573532D01*
X857160D01*
Y572536D01*
X857492D01*
Y571872D01*
X857824D01*
Y570875D01*
X858156D01*
Y569879D01*
X858488D01*
Y569215D01*
X858820D01*
Y568218D01*
X859152D01*
Y567554D01*
X859484D01*
Y566558D01*
X859817D01*
Y565561D01*
X860149D01*
Y564897D01*
X860481D01*
Y563901D01*
X860813D01*
Y563236D01*
X861145D01*
Y562240D01*
X861477D01*
Y561576D01*
X861809D01*
Y560579D01*
X862141D01*
Y559583D01*
X862474D01*
Y558919D01*
X862806D01*
Y557922D01*
X863138D01*
Y557258D01*
X863470D01*
Y550615D01*
X863138D01*
Y550283D01*
X840553D01*
Y530687D01*
X814647D01*
Y594789D01*
X814979D01*
Y595121D01*
X815311D01*
Y595453D01*
X815643D01*
Y595785D01*
X815975D01*
Y596117D01*
X816307D01*
Y596450D01*
X816639D01*
Y597114D01*
X816972D01*
Y597446D01*
X817304D01*
Y597778D01*
X817636D01*
Y598110D01*
X817968D01*
Y598442D01*
X818300D01*
Y598774D01*
X818632D01*
Y599439D01*
X818964D01*
Y599771D01*
X819296D01*
Y600103D01*
X819629D01*
Y600435D01*
X819961D01*
Y600767D01*
X820293D01*
Y601099D01*
X820625D01*
Y601764D01*
X820957D01*
Y602096D01*
X902329D01*
Y601764D01*
X902662D01*
Y601432D01*
X902993D01*
Y601099D01*
X903326D01*
Y600767D01*
X903658D01*
Y600435D01*
X903990D01*
Y600103D01*
X904322D01*
Y599771D01*
X904654D01*
Y599439D01*
X904986D01*
Y599106D01*
X905319D01*
Y598774D01*
X905983D01*
Y599106D01*
X906315D01*
Y599439D01*
X906647D01*
Y599771D01*
X906979D01*
Y600103D01*
X907311D01*
Y600435D01*
X907643D01*
Y600767D01*
X907976D01*
Y601099D01*
X908308D01*
Y601432D01*
X908640D01*
Y601764D01*
X908972D01*
Y602096D01*
X932553D01*
Y601764D01*
D02*
G37*
G36*
X911629Y530687D02*
X908640D01*
Y536998D01*
X907976D01*
Y536334D01*
X907643D01*
Y535670D01*
X907311D01*
Y535005D01*
X906979D01*
Y534673D01*
X906647D01*
Y534009D01*
X904322D01*
Y534341D01*
X903990D01*
Y535005D01*
X903658D01*
Y535337D01*
X903326D01*
Y536002D01*
X902993D01*
Y536666D01*
X902662D01*
Y536998D01*
X902329D01*
Y530687D01*
X899340D01*
Y543973D01*
X902329D01*
Y543641D01*
X902662D01*
Y542976D01*
X902993D01*
Y542312D01*
X903326D01*
Y541648D01*
X903658D01*
Y540984D01*
X903990D01*
Y540319D01*
X904322D01*
Y539655D01*
X904654D01*
Y538991D01*
X904986D01*
Y538327D01*
X905319D01*
Y537994D01*
X905651D01*
Y538659D01*
X905983D01*
Y539323D01*
X906315D01*
Y539987D01*
X906647D01*
Y540652D01*
X906979D01*
Y541316D01*
X907311D01*
Y541980D01*
X907643D01*
Y542644D01*
X907976D01*
Y543308D01*
X908308D01*
Y543973D01*
X911629D01*
Y530687D01*
D02*
G37*
G36*
X897680Y543641D02*
X897347D01*
Y542312D01*
X897015D01*
Y541316D01*
X896683D01*
Y539987D01*
X896351D01*
Y538659D01*
X896019D01*
Y537662D01*
X895687D01*
Y536334D01*
X895355D01*
Y535337D01*
X895022D01*
Y534009D01*
X894690D01*
Y532680D01*
X894358D01*
Y531684D01*
X894026D01*
Y530687D01*
X891369D01*
Y531352D01*
X891037D01*
Y532348D01*
X890705D01*
Y533344D01*
X890373D01*
Y534673D01*
X890041D01*
Y535670D01*
X889708D01*
Y536666D01*
X889376D01*
Y537330D01*
X889044D01*
Y536666D01*
X888712D01*
Y535670D01*
X888380D01*
Y534673D01*
X888048D01*
Y533677D01*
X887716D01*
Y532680D01*
X887383D01*
Y531684D01*
X887051D01*
Y530687D01*
X884394D01*
Y531352D01*
X884062D01*
Y532348D01*
X883730D01*
Y533677D01*
X883398D01*
Y535005D01*
X883066D01*
Y536002D01*
X882734D01*
Y537330D01*
X882402D01*
Y538659D01*
X882069D01*
Y539655D01*
X881737D01*
Y540984D01*
X881405D01*
Y542312D01*
X881073D01*
Y543308D01*
X880741D01*
Y543973D01*
X884062D01*
Y542976D01*
X884394D01*
Y541648D01*
X884726D01*
Y540319D01*
X885059D01*
Y538659D01*
X885391D01*
Y537662D01*
X885723D01*
Y536998D01*
X886055D01*
Y537994D01*
X886387D01*
Y538991D01*
X886719D01*
Y539987D01*
X887051D01*
Y541316D01*
X887383D01*
Y542312D01*
X887716D01*
Y543308D01*
X888048D01*
Y543973D01*
X890373D01*
Y542976D01*
X890705D01*
Y541980D01*
X891037D01*
Y540984D01*
X891369D01*
Y539655D01*
X891701D01*
Y538659D01*
X892033D01*
Y537662D01*
X892365D01*
Y536998D01*
X892698D01*
Y537994D01*
X893030D01*
Y539323D01*
X893362D01*
Y540652D01*
X893694D01*
Y541980D01*
X894026D01*
Y543308D01*
X894358D01*
Y543973D01*
X897680D01*
Y543641D01*
D02*
G37*
G36*
X946503Y541316D02*
X943181D01*
Y530687D01*
X940192D01*
Y541316D01*
X936871D01*
Y543973D01*
X946503D01*
Y541316D01*
D02*
G37*
G36*
X934878D02*
X929232D01*
Y538659D01*
X934214D01*
Y536002D01*
X929232D01*
Y533344D01*
X934878D01*
Y530687D01*
X926243D01*
Y543973D01*
X934878D01*
Y541316D01*
D02*
G37*
G36*
X923586D02*
X917607D01*
Y538659D01*
X922589D01*
Y536002D01*
X917607D01*
Y533344D01*
X923586D01*
Y530687D01*
X914618D01*
Y543973D01*
X923586D01*
Y541316D01*
D02*
G37*
G36*
X876091Y543641D02*
X877087D01*
Y543308D01*
X877420D01*
Y542976D01*
X878084D01*
Y542644D01*
X878416D01*
Y542312D01*
X878748D01*
Y541648D01*
X879080D01*
Y540652D01*
X879412D01*
Y534009D01*
X879080D01*
Y533012D01*
X878748D01*
Y532680D01*
X878416D01*
Y532016D01*
X877752D01*
Y531684D01*
X877420D01*
Y531352D01*
X876755D01*
Y531020D01*
X876091D01*
Y530687D01*
X872770D01*
Y531020D01*
X872105D01*
Y531352D01*
X871441D01*
Y531684D01*
X871109D01*
Y532016D01*
X870777D01*
Y532348D01*
X870445D01*
Y532680D01*
X870113D01*
Y533344D01*
X869781D01*
Y535005D01*
X869448D01*
Y539987D01*
X869781D01*
Y541316D01*
X870113D01*
Y541980D01*
X870445D01*
Y542312D01*
X870777D01*
Y542644D01*
X871109D01*
Y542976D01*
X871441D01*
Y543308D01*
X872105D01*
Y543641D01*
X872770D01*
Y543973D01*
X876091D01*
Y543641D01*
D02*
G37*
G36*
X862141Y533344D02*
X867788D01*
Y530687D01*
X859152D01*
Y543973D01*
X862141D01*
Y533344D01*
D02*
G37*
G36*
X856495Y541316D02*
X850849D01*
Y538659D01*
X855831D01*
Y536002D01*
X850849D01*
Y530687D01*
X847860D01*
Y543973D01*
X856495D01*
Y541316D01*
D02*
G37*
G36*
X780851Y627239D02*
X780981D01*
X781333Y627202D01*
X781722Y627147D01*
X782129Y627054D01*
X782573Y626943D01*
X782981Y626795D01*
X782999D01*
X783036Y626777D01*
X783092Y626739D01*
X783166Y626702D01*
X783351Y626610D01*
X783592Y626443D01*
X783869Y626258D01*
X784147Y626017D01*
X784407Y625740D01*
X784647Y625425D01*
Y625406D01*
X784666Y625388D01*
X784703Y625332D01*
X784740Y625277D01*
X784832Y625092D01*
X784943Y624851D01*
X785073Y624554D01*
X785166Y624203D01*
X785258Y623832D01*
X785295Y623425D01*
X783666Y623295D01*
Y623314D01*
Y623351D01*
X783647Y623406D01*
X783629Y623499D01*
X783573Y623703D01*
X783499Y623980D01*
X783388Y624277D01*
X783221Y624573D01*
X783018Y624851D01*
X782758Y625110D01*
X782721Y625129D01*
X782629Y625203D01*
X782444Y625314D01*
X782203Y625425D01*
X781888Y625536D01*
X781518Y625647D01*
X781055Y625721D01*
X780536Y625740D01*
X780277D01*
X780166Y625721D01*
X780018Y625703D01*
X779685Y625666D01*
X779314Y625591D01*
X778944Y625499D01*
X778592Y625351D01*
X778444Y625258D01*
X778296Y625165D01*
X778259Y625147D01*
X778185Y625073D01*
X778074Y624943D01*
X777963Y624795D01*
X777833Y624591D01*
X777722Y624369D01*
X777648Y624110D01*
X777611Y623814D01*
Y623777D01*
Y623703D01*
X777629Y623573D01*
X777666Y623425D01*
X777722Y623240D01*
X777814Y623055D01*
X777926Y622869D01*
X778092Y622684D01*
X778111Y622666D01*
X778203Y622610D01*
X778278Y622555D01*
X778352Y622518D01*
X778463Y622462D01*
X778592Y622388D01*
X778759Y622332D01*
X778944Y622258D01*
X779148Y622184D01*
X779389Y622092D01*
X779648Y622018D01*
X779944Y621925D01*
X780277Y621851D01*
X780648Y621758D01*
X780666D01*
X780740Y621740D01*
X780851Y621721D01*
X780981Y621684D01*
X781148Y621647D01*
X781351Y621592D01*
X781555Y621536D01*
X781777Y621481D01*
X782259Y621351D01*
X782721Y621222D01*
X782944Y621147D01*
X783147Y621073D01*
X783333Y621018D01*
X783481Y620944D01*
X783499D01*
X783536Y620925D01*
X783592Y620888D01*
X783666Y620851D01*
X783869Y620740D01*
X784110Y620592D01*
X784388Y620388D01*
X784666Y620166D01*
X784925Y619907D01*
X785147Y619629D01*
X785166Y619592D01*
X785240Y619499D01*
X785314Y619333D01*
X785425Y619111D01*
X785518Y618851D01*
X785610Y618537D01*
X785666Y618185D01*
X785684Y617814D01*
Y617796D01*
Y617777D01*
Y617722D01*
Y617648D01*
X785647Y617444D01*
X785610Y617185D01*
X785536Y616889D01*
X785443Y616574D01*
X785295Y616241D01*
X785092Y615889D01*
Y615870D01*
X785073Y615852D01*
X784980Y615741D01*
X784851Y615574D01*
X784666Y615389D01*
X784425Y615167D01*
X784129Y614926D01*
X783795Y614704D01*
X783407Y614500D01*
X783388D01*
X783351Y614481D01*
X783296Y614463D01*
X783221Y614426D01*
X783110Y614389D01*
X782981Y614333D01*
X782684Y614259D01*
X782333Y614167D01*
X781907Y614074D01*
X781444Y614019D01*
X780944Y614000D01*
X780648D01*
X780499Y614019D01*
X780333D01*
X780148Y614037D01*
X779925Y614056D01*
X779463Y614130D01*
X778981Y614204D01*
X778500Y614333D01*
X778037Y614500D01*
X778018D01*
X777981Y614519D01*
X777926Y614556D01*
X777852Y614593D01*
X777629Y614704D01*
X777370Y614870D01*
X777074Y615093D01*
X776759Y615352D01*
X776463Y615667D01*
X776185Y616018D01*
Y616037D01*
X776148Y616074D01*
X776130Y616129D01*
X776074Y616203D01*
X776037Y616296D01*
X775981Y616407D01*
X775852Y616685D01*
X775722Y617037D01*
X775611Y617426D01*
X775537Y617870D01*
X775500Y618333D01*
X777092Y618481D01*
Y618462D01*
Y618444D01*
X777111Y618388D01*
Y618314D01*
X777148Y618148D01*
X777204Y617907D01*
X777278Y617666D01*
X777352Y617389D01*
X777481Y617129D01*
X777611Y616889D01*
X777629Y616870D01*
X777685Y616796D01*
X777777Y616666D01*
X777926Y616537D01*
X778111Y616370D01*
X778315Y616203D01*
X778592Y616037D01*
X778888Y615889D01*
X778907D01*
X778925Y615870D01*
X778981Y615852D01*
X779037Y615833D01*
X779222Y615778D01*
X779463Y615704D01*
X779759Y615630D01*
X780092Y615574D01*
X780462Y615537D01*
X780870Y615518D01*
X781036D01*
X781222Y615537D01*
X781444Y615555D01*
X781703Y615592D01*
X781999Y615630D01*
X782296Y615704D01*
X782573Y615796D01*
X782610Y615815D01*
X782703Y615852D01*
X782832Y615926D01*
X782999Y616000D01*
X783166Y616129D01*
X783351Y616259D01*
X783536Y616407D01*
X783684Y616592D01*
X783703Y616611D01*
X783740Y616685D01*
X783795Y616777D01*
X783869Y616926D01*
X783943Y617074D01*
X783999Y617259D01*
X784036Y617463D01*
X784055Y617685D01*
Y617703D01*
Y617796D01*
X784036Y617907D01*
X784018Y618055D01*
X783962Y618203D01*
X783906Y618388D01*
X783814Y618574D01*
X783684Y618740D01*
X783666Y618759D01*
X783610Y618814D01*
X783536Y618888D01*
X783407Y618999D01*
X783258Y619111D01*
X783055Y619240D01*
X782814Y619370D01*
X782536Y619481D01*
X782518Y619499D01*
X782425Y619518D01*
X782277Y619574D01*
X782185Y619592D01*
X782055Y619629D01*
X781925Y619685D01*
X781759Y619722D01*
X781573Y619777D01*
X781351Y619833D01*
X781129Y619888D01*
X780870Y619962D01*
X780574Y620036D01*
X780259Y620111D01*
X780240D01*
X780185Y620129D01*
X780092Y620148D01*
X779981Y620185D01*
X779833Y620222D01*
X779666Y620259D01*
X779296Y620370D01*
X778888Y620499D01*
X778463Y620629D01*
X778092Y620759D01*
X777926Y620833D01*
X777777Y620907D01*
X777759D01*
X777740Y620925D01*
X777629Y620999D01*
X777463Y621092D01*
X777278Y621240D01*
X777055Y621407D01*
X776833Y621610D01*
X776611Y621851D01*
X776426Y622110D01*
X776407Y622147D01*
X776352Y622240D01*
X776278Y622388D01*
X776204Y622573D01*
X776130Y622814D01*
X776056Y623092D01*
X776000Y623388D01*
X775981Y623703D01*
Y623721D01*
Y623740D01*
Y623795D01*
Y623869D01*
X776018Y624054D01*
X776056Y624295D01*
X776111Y624573D01*
X776204Y624888D01*
X776333Y625203D01*
X776518Y625517D01*
Y625536D01*
X776537Y625554D01*
X776629Y625666D01*
X776759Y625814D01*
X776926Y625999D01*
X777148Y626203D01*
X777426Y626425D01*
X777759Y626628D01*
X778129Y626814D01*
X778148D01*
X778185Y626832D01*
X778240Y626851D01*
X778315Y626888D01*
X778407Y626925D01*
X778537Y626962D01*
X778814Y627036D01*
X779166Y627110D01*
X779574Y627184D01*
X779999Y627239D01*
X780481Y627258D01*
X780722D01*
X780851Y627239D01*
D02*
G37*
G36*
X803071Y614222D02*
X801312D01*
X794609Y624277D01*
Y614222D01*
X792980D01*
Y627036D01*
X794720D01*
X801442Y616963D01*
Y627036D01*
X803071D01*
Y614222D01*
D02*
G37*
G36*
X787888Y614000D02*
X786628D01*
X790350Y627258D01*
X791609D01*
X787888Y614000D01*
D02*
G37*
G36*
X803145Y652489D02*
X803311Y652471D01*
X803515Y652452D01*
X803719Y652434D01*
X803960Y652378D01*
X804460Y652267D01*
X805015Y652101D01*
X805293Y651989D01*
X805552Y651860D01*
X805811Y651693D01*
X806070Y651526D01*
X806089Y651508D01*
X806126Y651489D01*
X806200Y651434D01*
X806293Y651341D01*
X806385Y651249D01*
X806515Y651119D01*
X806645Y650971D01*
X806793Y650823D01*
X806941Y650638D01*
X807089Y650415D01*
X807256Y650193D01*
X807404Y649953D01*
X807533Y649675D01*
X807681Y649397D01*
X807793Y649101D01*
X807904Y648767D01*
X806237Y648379D01*
Y648397D01*
X806219Y648434D01*
X806182Y648508D01*
X806145Y648601D01*
X806107Y648712D01*
X806052Y648860D01*
X805904Y649156D01*
X805719Y649490D01*
X805497Y649823D01*
X805219Y650138D01*
X804922Y650415D01*
X804885Y650452D01*
X804774Y650527D01*
X804589Y650619D01*
X804349Y650749D01*
X804034Y650860D01*
X803682Y650971D01*
X803256Y651045D01*
X802793Y651064D01*
X802645D01*
X802552Y651045D01*
X802423D01*
X802275Y651027D01*
X801923Y650971D01*
X801534Y650897D01*
X801127Y650767D01*
X800701Y650582D01*
X800312Y650341D01*
X800293D01*
X800275Y650304D01*
X800145Y650212D01*
X799978Y650064D01*
X799775Y649842D01*
X799534Y649564D01*
X799312Y649249D01*
X799108Y648860D01*
X798923Y648434D01*
Y648416D01*
X798905Y648379D01*
X798886Y648323D01*
X798867Y648231D01*
X798830Y648120D01*
X798793Y647990D01*
X798738Y647675D01*
X798664Y647305D01*
X798590Y646897D01*
X798553Y646453D01*
X798534Y645972D01*
Y645953D01*
Y645898D01*
Y645805D01*
Y645694D01*
X798553Y645564D01*
Y645397D01*
X798571Y645212D01*
X798590Y645009D01*
X798645Y644564D01*
X798738Y644083D01*
X798849Y643601D01*
X798997Y643120D01*
Y643102D01*
X799016Y643064D01*
X799053Y643009D01*
X799090Y642916D01*
X799201Y642694D01*
X799368Y642435D01*
X799571Y642139D01*
X799830Y641824D01*
X800127Y641546D01*
X800479Y641287D01*
X800497D01*
X800534Y641268D01*
X800590Y641231D01*
X800664Y641194D01*
X800756Y641157D01*
X800867Y641102D01*
X801127Y640991D01*
X801460Y640880D01*
X801830Y640787D01*
X802238Y640713D01*
X802663Y640694D01*
X802793D01*
X802904Y640713D01*
X803034D01*
X803163Y640731D01*
X803497Y640805D01*
X803885Y640898D01*
X804274Y641046D01*
X804682Y641250D01*
X804885Y641361D01*
X805071Y641509D01*
X805089Y641527D01*
X805108Y641546D01*
X805163Y641602D01*
X805237Y641657D01*
X805311Y641750D01*
X805404Y641861D01*
X805515Y641972D01*
X805608Y642120D01*
X805719Y642287D01*
X805848Y642472D01*
X805959Y642657D01*
X806070Y642879D01*
X806163Y643120D01*
X806256Y643379D01*
X806348Y643657D01*
X806422Y643953D01*
X808126Y643527D01*
Y643509D01*
X808107Y643435D01*
X808070Y643324D01*
X808015Y643176D01*
X807959Y643009D01*
X807885Y642805D01*
X807793Y642583D01*
X807681Y642342D01*
X807422Y641824D01*
X807089Y641305D01*
X806885Y641046D01*
X806682Y640787D01*
X806459Y640565D01*
X806200Y640342D01*
X806182Y640324D01*
X806145Y640287D01*
X806052Y640250D01*
X805959Y640176D01*
X805811Y640083D01*
X805663Y639991D01*
X805460Y639898D01*
X805256Y639805D01*
X805015Y639694D01*
X804756Y639602D01*
X804478Y639509D01*
X804182Y639417D01*
X803867Y639343D01*
X803534Y639306D01*
X803182Y639268D01*
X802812Y639250D01*
X802608D01*
X802460Y639268D01*
X802293D01*
X802089Y639287D01*
X801867Y639324D01*
X801608Y639361D01*
X801071Y639454D01*
X800516Y639602D01*
X799960Y639805D01*
X799701Y639935D01*
X799442Y640083D01*
X799423Y640102D01*
X799386Y640120D01*
X799312Y640176D01*
X799238Y640250D01*
X799127Y640324D01*
X798997Y640435D01*
X798849Y640565D01*
X798701Y640713D01*
X798553Y640880D01*
X798386Y641046D01*
X798053Y641472D01*
X797738Y641972D01*
X797460Y642527D01*
Y642546D01*
X797423Y642601D01*
X797405Y642694D01*
X797349Y642805D01*
X797312Y642953D01*
X797257Y643139D01*
X797182Y643342D01*
X797127Y643564D01*
X797071Y643805D01*
X796997Y644083D01*
X796905Y644657D01*
X796831Y645305D01*
X796794Y645972D01*
Y645990D01*
Y646064D01*
Y646175D01*
X796812Y646305D01*
Y646490D01*
X796831Y646675D01*
X796849Y646916D01*
X796886Y647157D01*
X796979Y647694D01*
X797109Y648286D01*
X797294Y648879D01*
X797553Y649453D01*
X797571Y649471D01*
X797590Y649527D01*
X797627Y649601D01*
X797701Y649693D01*
X797775Y649823D01*
X797868Y649971D01*
X798108Y650304D01*
X798423Y650675D01*
X798793Y651045D01*
X799219Y651415D01*
X799719Y651730D01*
X799738Y651749D01*
X799793Y651767D01*
X799867Y651804D01*
X799960Y651860D01*
X800108Y651915D01*
X800256Y651971D01*
X800442Y652045D01*
X800645Y652119D01*
X800867Y652193D01*
X801108Y652267D01*
X801627Y652378D01*
X802219Y652471D01*
X802830Y652508D01*
X803015D01*
X803145Y652489D01*
D02*
G37*
G36*
X819939Y652323D02*
X820180Y652286D01*
X820476Y652230D01*
X820810Y652138D01*
X821143Y652027D01*
X821476Y651878D01*
X821495D01*
X821513Y651860D01*
X821624Y651804D01*
X821791Y651693D01*
X821976Y651563D01*
X822198Y651378D01*
X822421Y651175D01*
X822643Y650934D01*
X822828Y650656D01*
X822847Y650619D01*
X822902Y650527D01*
X822976Y650360D01*
X823069Y650156D01*
X823161Y649916D01*
X823235Y649638D01*
X823291Y649323D01*
X823309Y649008D01*
Y648971D01*
Y648860D01*
X823291Y648712D01*
X823254Y648508D01*
X823198Y648268D01*
X823106Y648008D01*
X822995Y647749D01*
X822847Y647490D01*
X822828Y647453D01*
X822773Y647379D01*
X822661Y647249D01*
X822513Y647101D01*
X822328Y646934D01*
X822106Y646749D01*
X821847Y646583D01*
X821532Y646416D01*
X821550D01*
X821587Y646397D01*
X821643Y646379D01*
X821717Y646360D01*
X821921Y646286D01*
X822180Y646175D01*
X822476Y646027D01*
X822773Y645842D01*
X823050Y645601D01*
X823309Y645323D01*
X823328Y645286D01*
X823402Y645175D01*
X823513Y644990D01*
X823624Y644749D01*
X823735Y644453D01*
X823846Y644101D01*
X823921Y643694D01*
X823939Y643250D01*
Y643231D01*
Y643176D01*
Y643083D01*
X823921Y642972D01*
X823902Y642824D01*
X823865Y642657D01*
X823828Y642472D01*
X823791Y642268D01*
X823643Y641824D01*
X823532Y641583D01*
X823421Y641361D01*
X823272Y641120D01*
X823106Y640880D01*
X822921Y640639D01*
X822698Y640416D01*
X822680Y640398D01*
X822643Y640361D01*
X822569Y640305D01*
X822476Y640231D01*
X822365Y640139D01*
X822217Y640046D01*
X822050Y639935D01*
X821847Y639842D01*
X821643Y639731D01*
X821402Y639620D01*
X821161Y639528D01*
X820884Y639435D01*
X820587Y639361D01*
X820273Y639306D01*
X819958Y639268D01*
X819606Y639250D01*
X819439D01*
X819328Y639268D01*
X819180Y639287D01*
X819014Y639306D01*
X818828Y639343D01*
X818625Y639380D01*
X818180Y639491D01*
X817717Y639676D01*
X817477Y639787D01*
X817254Y639917D01*
X817032Y640083D01*
X816810Y640250D01*
X816792Y640268D01*
X816755Y640305D01*
X816699Y640361D01*
X816644Y640435D01*
X816551Y640528D01*
X816458Y640657D01*
X816347Y640787D01*
X816236Y640954D01*
X816125Y641139D01*
X816014Y641324D01*
X815810Y641768D01*
X815644Y642287D01*
X815588Y642564D01*
X815551Y642861D01*
X817125Y643064D01*
Y643046D01*
X817143Y643009D01*
X817162Y642935D01*
X817180Y642842D01*
X817199Y642731D01*
X817236Y642601D01*
X817329Y642324D01*
X817458Y641991D01*
X817625Y641676D01*
X817810Y641379D01*
X818032Y641120D01*
X818069Y641102D01*
X818143Y641028D01*
X818291Y640935D01*
X818477Y640842D01*
X818699Y640731D01*
X818977Y640639D01*
X819291Y640565D01*
X819625Y640546D01*
X819736D01*
X819810Y640565D01*
X820014Y640583D01*
X820273Y640639D01*
X820569Y640731D01*
X820884Y640861D01*
X821199Y641046D01*
X821495Y641305D01*
X821532Y641342D01*
X821624Y641453D01*
X821736Y641620D01*
X821884Y641842D01*
X822032Y642120D01*
X822143Y642435D01*
X822235Y642805D01*
X822272Y643213D01*
Y643231D01*
Y643268D01*
Y643324D01*
X822254Y643398D01*
X822235Y643601D01*
X822180Y643842D01*
X822106Y644138D01*
X821976Y644435D01*
X821791Y644731D01*
X821550Y645009D01*
X821513Y645046D01*
X821421Y645120D01*
X821273Y645231D01*
X821069Y645360D01*
X820810Y645490D01*
X820495Y645601D01*
X820143Y645675D01*
X819754Y645712D01*
X819588D01*
X819458Y645694D01*
X819291Y645675D01*
X819106Y645638D01*
X818884Y645601D01*
X818643Y645546D01*
X818828Y646934D01*
X818921D01*
X818995Y646916D01*
X819236D01*
X819439Y646953D01*
X819680Y646990D01*
X819958Y647046D01*
X820273Y647138D01*
X820569Y647268D01*
X820884Y647434D01*
X820902D01*
X820921Y647453D01*
X821013Y647527D01*
X821143Y647656D01*
X821291Y647823D01*
X821439Y648064D01*
X821569Y648342D01*
X821662Y648656D01*
X821699Y648842D01*
Y649045D01*
Y649064D01*
Y649082D01*
Y649193D01*
X821662Y649342D01*
X821624Y649545D01*
X821550Y649767D01*
X821458Y650008D01*
X821310Y650249D01*
X821106Y650471D01*
X821087Y650490D01*
X820995Y650564D01*
X820865Y650656D01*
X820699Y650767D01*
X820476Y650860D01*
X820217Y650953D01*
X819921Y651027D01*
X819588Y651045D01*
X819439D01*
X819273Y651008D01*
X819051Y650971D01*
X818810Y650897D01*
X818569Y650804D01*
X818310Y650656D01*
X818069Y650471D01*
X818051Y650452D01*
X817977Y650360D01*
X817866Y650230D01*
X817736Y650045D01*
X817606Y649805D01*
X817477Y649508D01*
X817366Y649156D01*
X817292Y648749D01*
X815718Y649027D01*
Y649045D01*
X815736Y649101D01*
X815755Y649175D01*
X815773Y649286D01*
X815810Y649416D01*
X815866Y649564D01*
X815977Y649916D01*
X816162Y650323D01*
X816384Y650730D01*
X816662Y651119D01*
X817014Y651471D01*
X817032Y651489D01*
X817069Y651508D01*
X817125Y651545D01*
X817199Y651601D01*
X817292Y651675D01*
X817421Y651749D01*
X817551Y651823D01*
X817717Y651915D01*
X818088Y652064D01*
X818514Y652212D01*
X819014Y652304D01*
X819273Y652341D01*
X819736D01*
X819939Y652323D01*
D02*
G37*
G36*
X863028Y643324D02*
X858158D01*
Y644898D01*
X863028D01*
Y643324D01*
D02*
G37*
G36*
X814255Y643324D02*
X809385D01*
Y644898D01*
X814255D01*
Y643324D01*
D02*
G37*
G36*
X794535Y639472D02*
X792905D01*
Y650193D01*
X789165Y639472D01*
X787646D01*
X783943Y650378D01*
Y639472D01*
X782314D01*
Y652286D01*
X784850D01*
X787887Y643194D01*
Y643176D01*
X787906Y643139D01*
X787924Y643083D01*
X787961Y642990D01*
X788035Y642768D01*
X788128Y642490D01*
X788221Y642176D01*
X788332Y641861D01*
X788424Y641565D01*
X788498Y641305D01*
X788517Y641342D01*
X788535Y641435D01*
X788591Y641602D01*
X788665Y641824D01*
X788757Y642120D01*
X788887Y642472D01*
X789017Y642879D01*
X789183Y643361D01*
X792257Y652286D01*
X794535D01*
Y639472D01*
D02*
G37*
G36*
X897246Y639472D02*
X895469D01*
X890506Y652286D01*
X892358D01*
X895691Y642972D01*
Y642953D01*
X895709Y642916D01*
X895728Y642861D01*
X895765Y642787D01*
X895783Y642676D01*
X895820Y642564D01*
X895913Y642287D01*
X896024Y641972D01*
X896135Y641620D01*
X896357Y640880D01*
Y640898D01*
X896376Y640935D01*
X896395Y640991D01*
X896413Y641065D01*
X896469Y641268D01*
X896561Y641546D01*
X896654Y641861D01*
X896765Y642213D01*
X896894Y642583D01*
X897043Y642972D01*
X900524Y652286D01*
X902246D01*
X897246Y639472D01*
D02*
G37*
G36*
X856158Y644879D02*
Y644861D01*
Y644787D01*
Y644694D01*
Y644564D01*
X856139Y644398D01*
Y644212D01*
X856121Y643990D01*
X856102Y643768D01*
X856047Y643268D01*
X855973Y642750D01*
X855862Y642250D01*
X855788Y642009D01*
X855714Y641787D01*
Y641768D01*
X855695Y641731D01*
X855658Y641676D01*
X855621Y641602D01*
X855510Y641398D01*
X855343Y641139D01*
X855121Y640843D01*
X854862Y640546D01*
X854528Y640231D01*
X854121Y639954D01*
X854103D01*
X854065Y639917D01*
X854010Y639898D01*
X853917Y639843D01*
X853806Y639787D01*
X853658Y639731D01*
X853510Y639676D01*
X853325Y639602D01*
X853121Y639528D01*
X852899Y639472D01*
X852658Y639417D01*
X852381Y639361D01*
X852103Y639324D01*
X851806Y639287D01*
X851140Y639250D01*
X850973D01*
X850844Y639268D01*
X850695D01*
X850510Y639287D01*
X850307Y639306D01*
X850103Y639324D01*
X849640Y639398D01*
X849140Y639509D01*
X848659Y639657D01*
X848196Y639861D01*
X848177D01*
X848140Y639898D01*
X848085Y639935D01*
X848011Y639972D01*
X847807Y640120D01*
X847566Y640324D01*
X847289Y640583D01*
X847029Y640880D01*
X846770Y641250D01*
X846566Y641657D01*
Y641676D01*
X846548Y641713D01*
X846529Y641787D01*
X846492Y641879D01*
X846455Y641991D01*
X846418Y642139D01*
X846363Y642305D01*
X846326Y642509D01*
X846289Y642731D01*
X846233Y642972D01*
X846196Y643231D01*
X846159Y643509D01*
X846122Y643824D01*
X846103Y644157D01*
X846085Y644509D01*
Y644879D01*
Y652286D01*
X847788D01*
Y644879D01*
Y644861D01*
Y644805D01*
Y644712D01*
Y644601D01*
X847807Y644472D01*
Y644305D01*
X847825Y643953D01*
X847862Y643546D01*
X847918Y643139D01*
X847992Y642750D01*
X848029Y642583D01*
X848085Y642416D01*
X848103Y642379D01*
X848140Y642287D01*
X848233Y642157D01*
X848344Y641972D01*
X848474Y641787D01*
X848659Y641583D01*
X848881Y641379D01*
X849140Y641213D01*
X849177Y641194D01*
X849270Y641139D01*
X849436Y641083D01*
X849659Y641009D01*
X849918Y640917D01*
X850251Y640861D01*
X850603Y640805D01*
X850992Y640787D01*
X851177D01*
X851288Y640805D01*
X851455D01*
X851621Y640824D01*
X852029Y640898D01*
X852473Y640991D01*
X852899Y641139D01*
X853306Y641342D01*
X853492Y641472D01*
X853658Y641620D01*
X853677Y641639D01*
X853695Y641657D01*
X853732Y641713D01*
X853788Y641787D01*
X853843Y641898D01*
X853917Y642009D01*
X853991Y642176D01*
X854065Y642342D01*
X854140Y642546D01*
X854195Y642787D01*
X854269Y643064D01*
X854325Y643361D01*
X854380Y643694D01*
X854417Y644046D01*
X854454Y644453D01*
Y644879D01*
Y652286D01*
X856158D01*
Y644879D01*
D02*
G37*
G36*
X954833Y639472D02*
X953259D01*
Y649490D01*
X953240Y649471D01*
X953148Y649397D01*
X953037Y649286D01*
X952852Y649156D01*
X952648Y648990D01*
X952389Y648805D01*
X952092Y648601D01*
X951759Y648397D01*
X951741D01*
X951722Y648379D01*
X951611Y648305D01*
X951426Y648212D01*
X951204Y648101D01*
X950944Y647971D01*
X950667Y647842D01*
X950389Y647712D01*
X950111Y647601D01*
Y649119D01*
X950130D01*
X950167Y649156D01*
X950241Y649175D01*
X950333Y649230D01*
X950444Y649286D01*
X950574Y649360D01*
X950889Y649545D01*
X951259Y649749D01*
X951629Y650008D01*
X952018Y650304D01*
X952407Y650619D01*
X952426Y650638D01*
X952444Y650656D01*
X952500Y650712D01*
X952574Y650767D01*
X952740Y650953D01*
X952963Y651175D01*
X953185Y651434D01*
X953426Y651730D01*
X953629Y652027D01*
X953814Y652341D01*
X954833D01*
Y639472D01*
D02*
G37*
G36*
X942741Y652267D02*
X942908D01*
X943297Y652249D01*
X943704Y652193D01*
X944149Y652138D01*
X944556Y652045D01*
X944760Y651990D01*
X944927Y651934D01*
X944945D01*
X944964Y651915D01*
X945075Y651860D01*
X945241Y651786D01*
X945445Y651656D01*
X945667Y651489D01*
X945908Y651267D01*
X946130Y651008D01*
X946352Y650712D01*
Y650693D01*
X946371Y650675D01*
X946445Y650564D01*
X946519Y650378D01*
X946630Y650138D01*
X946723Y649860D01*
X946815Y649527D01*
X946871Y649175D01*
X946889Y648786D01*
Y648768D01*
Y648730D01*
Y648656D01*
X946871Y648564D01*
Y648434D01*
X946852Y648305D01*
X946778Y647990D01*
X946667Y647619D01*
X946519Y647231D01*
X946297Y646842D01*
X946149Y646657D01*
X946000Y646471D01*
X945982Y646453D01*
X945963Y646434D01*
X945908Y646379D01*
X945834Y646323D01*
X945741Y646249D01*
X945630Y646175D01*
X945482Y646083D01*
X945334Y645972D01*
X945149Y645879D01*
X944945Y645786D01*
X944723Y645675D01*
X944482Y645583D01*
X944204Y645509D01*
X943927Y645416D01*
X943612Y645360D01*
X943279Y645305D01*
X943316Y645286D01*
X943390Y645249D01*
X943501Y645175D01*
X943649Y645101D01*
X943982Y644898D01*
X944149Y644768D01*
X944297Y644657D01*
X944334Y644620D01*
X944426Y644527D01*
X944575Y644379D01*
X944760Y644194D01*
X944964Y643935D01*
X945204Y643657D01*
X945445Y643324D01*
X945704Y642953D01*
X947908Y639472D01*
X945797D01*
X944112Y642139D01*
Y642157D01*
X944075Y642194D01*
X944038Y642250D01*
X943982Y642324D01*
X943852Y642527D01*
X943686Y642787D01*
X943482Y643064D01*
X943279Y643361D01*
X943075Y643639D01*
X942890Y643898D01*
X942871Y643916D01*
X942816Y643990D01*
X942723Y644101D01*
X942593Y644231D01*
X942316Y644509D01*
X942168Y644638D01*
X942019Y644750D01*
X942001Y644768D01*
X941964Y644787D01*
X941890Y644824D01*
X941779Y644879D01*
X941668Y644935D01*
X941538Y644990D01*
X941242Y645083D01*
X941223D01*
X941186Y645101D01*
X941112D01*
X941020Y645120D01*
X940890Y645138D01*
X940742D01*
X940538Y645157D01*
X938353D01*
Y639472D01*
X936650D01*
Y652286D01*
X942593D01*
X942741Y652267D01*
D02*
G37*
G36*
X931946Y639472D02*
X930372D01*
Y649490D01*
X930354Y649471D01*
X930261Y649397D01*
X930150Y649286D01*
X929965Y649156D01*
X929761Y648990D01*
X929502Y648805D01*
X929206Y648601D01*
X928873Y648397D01*
X928854D01*
X928836Y648379D01*
X928725Y648305D01*
X928539Y648212D01*
X928317Y648101D01*
X928058Y647971D01*
X927780Y647842D01*
X927502Y647712D01*
X927225Y647601D01*
Y649119D01*
X927243D01*
X927280Y649156D01*
X927354Y649175D01*
X927447Y649230D01*
X927558Y649286D01*
X927688Y649360D01*
X928002Y649545D01*
X928373Y649749D01*
X928743Y650008D01*
X929132Y650304D01*
X929521Y650619D01*
X929539Y650638D01*
X929558Y650656D01*
X929613Y650712D01*
X929687Y650767D01*
X929854Y650953D01*
X930076Y651175D01*
X930298Y651434D01*
X930539Y651730D01*
X930743Y652027D01*
X930928Y652341D01*
X931946D01*
Y639472D01*
D02*
G37*
G36*
X919855Y652267D02*
X920022D01*
X920411Y652249D01*
X920818Y652193D01*
X921262Y652138D01*
X921670Y652045D01*
X921873Y651990D01*
X922040Y651934D01*
X922058D01*
X922077Y651915D01*
X922188Y651860D01*
X922355Y651786D01*
X922558Y651656D01*
X922781Y651489D01*
X923021Y651267D01*
X923243Y651008D01*
X923466Y650712D01*
Y650693D01*
X923484Y650675D01*
X923558Y650564D01*
X923632Y650378D01*
X923744Y650138D01*
X923836Y649860D01*
X923929Y649527D01*
X923984Y649175D01*
X924003Y648786D01*
Y648768D01*
Y648730D01*
Y648656D01*
X923984Y648564D01*
Y648434D01*
X923966Y648305D01*
X923892Y647990D01*
X923781Y647619D01*
X923632Y647231D01*
X923410Y646842D01*
X923262Y646657D01*
X923114Y646471D01*
X923095Y646453D01*
X923077Y646434D01*
X923021Y646379D01*
X922947Y646323D01*
X922855Y646249D01*
X922744Y646175D01*
X922596Y646083D01*
X922447Y645972D01*
X922262Y645879D01*
X922058Y645786D01*
X921836Y645675D01*
X921596Y645583D01*
X921318Y645509D01*
X921040Y645416D01*
X920725Y645360D01*
X920392Y645305D01*
X920429Y645286D01*
X920503Y645249D01*
X920614Y645175D01*
X920762Y645101D01*
X921096Y644898D01*
X921262Y644768D01*
X921410Y644657D01*
X921447Y644620D01*
X921540Y644527D01*
X921688Y644379D01*
X921873Y644194D01*
X922077Y643935D01*
X922318Y643657D01*
X922558Y643324D01*
X922818Y642953D01*
X925021Y639472D01*
X922910D01*
X921225Y642139D01*
Y642157D01*
X921188Y642194D01*
X921151Y642250D01*
X921096Y642324D01*
X920966Y642527D01*
X920799Y642787D01*
X920596Y643064D01*
X920392Y643361D01*
X920188Y643639D01*
X920003Y643898D01*
X919985Y643916D01*
X919929Y643990D01*
X919837Y644101D01*
X919707Y644231D01*
X919429Y644509D01*
X919281Y644638D01*
X919133Y644750D01*
X919114Y644768D01*
X919077Y644787D01*
X919003Y644824D01*
X918892Y644879D01*
X918781Y644935D01*
X918651Y644990D01*
X918355Y645083D01*
X918337D01*
X918300Y645101D01*
X918225D01*
X918133Y645120D01*
X918003Y645138D01*
X917855D01*
X917652Y645157D01*
X915467D01*
Y639472D01*
X913763D01*
Y652286D01*
X919707D01*
X919855Y652267D01*
D02*
G37*
G36*
X909060Y639472D02*
X907486D01*
Y649490D01*
X907467Y649471D01*
X907375Y649397D01*
X907264Y649286D01*
X907079Y649156D01*
X906875Y648990D01*
X906616Y648805D01*
X906319Y648601D01*
X905986Y648397D01*
X905968D01*
X905949Y648379D01*
X905838Y648305D01*
X905653Y648212D01*
X905431Y648101D01*
X905171Y647971D01*
X904894Y647842D01*
X904616Y647712D01*
X904338Y647601D01*
Y649119D01*
X904357D01*
X904394Y649156D01*
X904468Y649175D01*
X904560Y649230D01*
X904671Y649286D01*
X904801Y649360D01*
X905116Y649545D01*
X905486Y649749D01*
X905856Y650008D01*
X906245Y650304D01*
X906634Y650619D01*
X906653Y650638D01*
X906671Y650656D01*
X906727Y650712D01*
X906801Y650767D01*
X906967Y650953D01*
X907190Y651175D01*
X907412Y651434D01*
X907653Y651730D01*
X907856Y652027D01*
X908041Y652341D01*
X909060D01*
Y639472D01*
D02*
G37*
G36*
X880804Y652323D02*
X880952Y652304D01*
X881137Y652286D01*
X881340Y652249D01*
X881544Y652212D01*
X882026Y652082D01*
X882507Y651897D01*
X882748Y651786D01*
X882989Y651656D01*
X883211Y651489D01*
X883414Y651304D01*
X883433Y651286D01*
X883470Y651267D01*
X883507Y651193D01*
X883581Y651119D01*
X883674Y651027D01*
X883766Y650897D01*
X883859Y650767D01*
X883970Y650601D01*
X884155Y650249D01*
X884340Y649805D01*
X884414Y649582D01*
X884451Y649323D01*
X884488Y649064D01*
X884507Y648786D01*
Y648749D01*
Y648656D01*
X884488Y648508D01*
X884470Y648305D01*
X884433Y648082D01*
X884359Y647823D01*
X884285Y647545D01*
X884174Y647268D01*
X884155Y647231D01*
X884118Y647138D01*
X884044Y646990D01*
X883933Y646786D01*
X883785Y646564D01*
X883599Y646286D01*
X883377Y646009D01*
X883118Y645694D01*
X883081Y645657D01*
X882989Y645546D01*
X882896Y645453D01*
X882803Y645360D01*
X882692Y645249D01*
X882544Y645101D01*
X882396Y644953D01*
X882211Y644787D01*
X882026Y644601D01*
X881803Y644398D01*
X881563Y644194D01*
X881303Y643953D01*
X881007Y643712D01*
X880711Y643453D01*
X880692Y643435D01*
X880655Y643398D01*
X880581Y643342D01*
X880489Y643268D01*
X880378Y643157D01*
X880248Y643046D01*
X879952Y642805D01*
X879637Y642527D01*
X879341Y642250D01*
X879081Y642009D01*
X878970Y641916D01*
X878878Y641824D01*
X878859Y641805D01*
X878804Y641750D01*
X878730Y641676D01*
X878637Y641565D01*
X878544Y641435D01*
X878433Y641305D01*
X878211Y640991D01*
X884525D01*
Y639472D01*
X876026D01*
Y639491D01*
Y639565D01*
Y639676D01*
X876045Y639824D01*
X876063Y639991D01*
X876100Y640176D01*
X876137Y640361D01*
X876211Y640565D01*
Y640583D01*
X876230Y640602D01*
X876267Y640713D01*
X876341Y640880D01*
X876452Y641102D01*
X876600Y641361D01*
X876785Y641657D01*
X876989Y641954D01*
X877248Y642268D01*
Y642287D01*
X877285Y642305D01*
X877378Y642416D01*
X877545Y642583D01*
X877785Y642824D01*
X878063Y643102D01*
X878415Y643435D01*
X878841Y643805D01*
X879304Y644194D01*
X879322Y644212D01*
X879396Y644268D01*
X879507Y644361D01*
X879637Y644472D01*
X879804Y644620D01*
X880007Y644787D01*
X880211Y644972D01*
X880452Y645175D01*
X880915Y645620D01*
X881377Y646064D01*
X881600Y646286D01*
X881803Y646508D01*
X881989Y646712D01*
X882137Y646916D01*
Y646934D01*
X882174Y646953D01*
X882211Y647009D01*
X882248Y647083D01*
X882377Y647286D01*
X882525Y647527D01*
X882655Y647823D01*
X882785Y648138D01*
X882859Y648490D01*
X882896Y648823D01*
Y648842D01*
Y648860D01*
X882877Y648971D01*
X882859Y649156D01*
X882803Y649360D01*
X882729Y649619D01*
X882600Y649879D01*
X882433Y650138D01*
X882211Y650397D01*
X882174Y650434D01*
X882081Y650508D01*
X881952Y650601D01*
X881748Y650730D01*
X881489Y650841D01*
X881192Y650953D01*
X880841Y651027D01*
X880452Y651045D01*
X880341D01*
X880266Y651027D01*
X880044Y651008D01*
X879785Y650953D01*
X879507Y650879D01*
X879193Y650749D01*
X878896Y650582D01*
X878618Y650360D01*
X878581Y650323D01*
X878507Y650230D01*
X878396Y650082D01*
X878285Y649860D01*
X878156Y649601D01*
X878045Y649268D01*
X877971Y648897D01*
X877933Y648471D01*
X876322Y648638D01*
Y648656D01*
X876341Y648712D01*
Y648805D01*
X876359Y648934D01*
X876396Y649082D01*
X876434Y649249D01*
X876489Y649453D01*
X876545Y649656D01*
X876693Y650101D01*
X876915Y650545D01*
X877045Y650767D01*
X877211Y650990D01*
X877378Y651193D01*
X877563Y651378D01*
X877582Y651397D01*
X877619Y651415D01*
X877674Y651471D01*
X877767Y651526D01*
X877878Y651601D01*
X878008Y651675D01*
X878156Y651767D01*
X878341Y651860D01*
X878544Y651952D01*
X878767Y652045D01*
X879007Y652119D01*
X879267Y652193D01*
X879544Y652249D01*
X879841Y652304D01*
X880155Y652323D01*
X880489Y652341D01*
X880674D01*
X880804Y652323D01*
D02*
G37*
G36*
X875526Y639472D02*
X873600D01*
X872101Y643361D01*
X866731D01*
X865342Y639472D01*
X863546D01*
X868434Y652286D01*
X870286D01*
X875526Y639472D01*
D02*
G37*
G36*
X830050Y652323D02*
X830198Y652304D01*
X830383Y652286D01*
X830586Y652249D01*
X830790Y652212D01*
X831272Y652082D01*
X831753Y651897D01*
X831994Y651786D01*
X832234Y651656D01*
X832457Y651489D01*
X832660Y651304D01*
X832679Y651286D01*
X832716Y651267D01*
X832753Y651193D01*
X832827Y651119D01*
X832920Y651027D01*
X833012Y650897D01*
X833105Y650767D01*
X833216Y650601D01*
X833401Y650249D01*
X833586Y649805D01*
X833660Y649582D01*
X833697Y649323D01*
X833734Y649064D01*
X833753Y648786D01*
Y648749D01*
Y648656D01*
X833734Y648508D01*
X833716Y648305D01*
X833679Y648082D01*
X833605Y647823D01*
X833531Y647545D01*
X833419Y647268D01*
X833401Y647231D01*
X833364Y647138D01*
X833290Y646990D01*
X833179Y646786D01*
X833031Y646564D01*
X832846Y646286D01*
X832623Y646009D01*
X832364Y645694D01*
X832327Y645657D01*
X832234Y645546D01*
X832142Y645453D01*
X832049Y645360D01*
X831938Y645249D01*
X831790Y645101D01*
X831642Y644953D01*
X831457Y644787D01*
X831272Y644601D01*
X831049Y644398D01*
X830809Y644194D01*
X830549Y643953D01*
X830253Y643712D01*
X829957Y643453D01*
X829938Y643435D01*
X829901Y643398D01*
X829827Y643342D01*
X829735Y643268D01*
X829624Y643157D01*
X829494Y643046D01*
X829198Y642805D01*
X828883Y642527D01*
X828587Y642250D01*
X828327Y642009D01*
X828216Y641916D01*
X828124Y641824D01*
X828105Y641805D01*
X828050Y641750D01*
X827976Y641676D01*
X827883Y641565D01*
X827791Y641435D01*
X827679Y641305D01*
X827457Y640991D01*
X833771D01*
Y639472D01*
X825272D01*
Y639491D01*
Y639565D01*
Y639676D01*
X825291Y639824D01*
X825309Y639991D01*
X825346Y640176D01*
X825383Y640361D01*
X825457Y640565D01*
Y640583D01*
X825476Y640602D01*
X825513Y640713D01*
X825587Y640880D01*
X825698Y641102D01*
X825846Y641361D01*
X826031Y641657D01*
X826235Y641953D01*
X826494Y642268D01*
Y642287D01*
X826531Y642305D01*
X826624Y642416D01*
X826791Y642583D01*
X827031Y642824D01*
X827309Y643102D01*
X827661Y643435D01*
X828087Y643805D01*
X828550Y644194D01*
X828568Y644212D01*
X828642Y644268D01*
X828753Y644361D01*
X828883Y644472D01*
X829050Y644620D01*
X829253Y644787D01*
X829457Y644972D01*
X829698Y645175D01*
X830161Y645620D01*
X830623Y646064D01*
X830846Y646286D01*
X831049Y646508D01*
X831235Y646712D01*
X831383Y646916D01*
Y646934D01*
X831420Y646953D01*
X831457Y647009D01*
X831494Y647083D01*
X831623Y647286D01*
X831771Y647527D01*
X831901Y647823D01*
X832031Y648138D01*
X832105Y648490D01*
X832142Y648823D01*
Y648842D01*
Y648860D01*
X832123Y648971D01*
X832105Y649156D01*
X832049Y649360D01*
X831975Y649619D01*
X831846Y649878D01*
X831679Y650138D01*
X831457Y650397D01*
X831420Y650434D01*
X831327Y650508D01*
X831198Y650601D01*
X830994Y650730D01*
X830735Y650841D01*
X830438Y650953D01*
X830087Y651027D01*
X829698Y651045D01*
X829587D01*
X829512Y651027D01*
X829290Y651008D01*
X829031Y650953D01*
X828753Y650878D01*
X828439Y650749D01*
X828142Y650582D01*
X827865Y650360D01*
X827828Y650323D01*
X827753Y650230D01*
X827642Y650082D01*
X827531Y649860D01*
X827402Y649601D01*
X827290Y649268D01*
X827216Y648897D01*
X827179Y648471D01*
X825568Y648638D01*
Y648656D01*
X825587Y648712D01*
Y648805D01*
X825605Y648934D01*
X825642Y649082D01*
X825680Y649249D01*
X825735Y649453D01*
X825791Y649656D01*
X825939Y650101D01*
X826161Y650545D01*
X826291Y650767D01*
X826457Y650990D01*
X826624Y651193D01*
X826809Y651378D01*
X826828Y651397D01*
X826865Y651415D01*
X826920Y651471D01*
X827013Y651526D01*
X827124Y651601D01*
X827253Y651675D01*
X827402Y651767D01*
X827587Y651860D01*
X827791Y651952D01*
X828013Y652045D01*
X828253Y652119D01*
X828513Y652193D01*
X828790Y652249D01*
X829087Y652304D01*
X829401Y652323D01*
X829735Y652341D01*
X829920D01*
X830050Y652323D01*
D02*
G37*
G36*
X780166Y650767D02*
X773204D01*
Y646805D01*
X779221D01*
Y645286D01*
X773204D01*
Y639472D01*
X771500D01*
Y652286D01*
X780166D01*
Y650767D01*
D02*
G37*
G36*
X840011Y652323D02*
X840252Y652286D01*
X840530Y652230D01*
X840826Y652156D01*
X841141Y652064D01*
X841437Y651915D01*
X841456D01*
X841474Y651897D01*
X841567Y651841D01*
X841715Y651749D01*
X841900Y651619D01*
X842104Y651434D01*
X842326Y651230D01*
X842530Y650990D01*
X842733Y650712D01*
X842752Y650675D01*
X842826Y650582D01*
X842900Y650415D01*
X843030Y650175D01*
X843141Y649897D01*
X843289Y649582D01*
X843419Y649212D01*
X843530Y648805D01*
Y648786D01*
X843548Y648749D01*
X843567Y648693D01*
X843585Y648601D01*
X843604Y648490D01*
X843622Y648360D01*
X843659Y648194D01*
X843678Y648008D01*
X843715Y647805D01*
X843733Y647582D01*
X843752Y647323D01*
X843789Y647064D01*
X843807Y646768D01*
Y646471D01*
X843826Y646138D01*
Y645786D01*
Y645768D01*
Y645694D01*
Y645564D01*
Y645416D01*
X843807Y645212D01*
Y644990D01*
X843789Y644749D01*
X843770Y644490D01*
X843715Y643898D01*
X843622Y643287D01*
X843511Y642694D01*
X843437Y642416D01*
X843344Y642139D01*
Y642120D01*
X843326Y642083D01*
X843289Y642009D01*
X843252Y641916D01*
X843215Y641787D01*
X843141Y641657D01*
X842993Y641342D01*
X842807Y641009D01*
X842567Y640639D01*
X842289Y640305D01*
X841956Y639991D01*
X841937D01*
X841919Y639954D01*
X841863Y639917D01*
X841789Y639880D01*
X841696Y639824D01*
X841604Y639750D01*
X841326Y639620D01*
X840993Y639491D01*
X840604Y639361D01*
X840141Y639287D01*
X839641Y639250D01*
X839456D01*
X839326Y639268D01*
X839178Y639287D01*
X838993Y639324D01*
X838789Y639361D01*
X838567Y639417D01*
X838345Y639491D01*
X838104Y639565D01*
X837863Y639676D01*
X837623Y639805D01*
X837382Y639954D01*
X837141Y640139D01*
X836919Y640342D01*
X836715Y640565D01*
X836697Y640583D01*
X836660Y640639D01*
X836604Y640731D01*
X836512Y640880D01*
X836419Y641046D01*
X836327Y641268D01*
X836197Y641527D01*
X836086Y641824D01*
X835975Y642157D01*
X835864Y642546D01*
X835753Y642972D01*
X835660Y643453D01*
X835567Y643972D01*
X835512Y644527D01*
X835475Y645138D01*
X835456Y645786D01*
Y645805D01*
Y645879D01*
Y646009D01*
Y646157D01*
X835475Y646360D01*
Y646583D01*
X835493Y646823D01*
X835512Y647101D01*
X835567Y647675D01*
X835660Y648286D01*
X835771Y648897D01*
X835845Y649175D01*
X835919Y649453D01*
Y649471D01*
X835938Y649508D01*
X835975Y649582D01*
X836012Y649675D01*
X836049Y649805D01*
X836123Y649934D01*
X836271Y650249D01*
X836456Y650582D01*
X836697Y650934D01*
X836975Y651286D01*
X837308Y651582D01*
X837327D01*
X837345Y651619D01*
X837401Y651656D01*
X837475Y651693D01*
X837567Y651767D01*
X837678Y651823D01*
X837956Y651971D01*
X838289Y652101D01*
X838678Y652230D01*
X839141Y652304D01*
X839641Y652341D01*
X839808D01*
X840011Y652323D01*
D02*
G37*
G36*
X912299Y679323D02*
X912540Y679286D01*
X912836Y679230D01*
X913169Y679138D01*
X913502Y679026D01*
X913836Y678878D01*
X913854D01*
X913873Y678860D01*
X913984Y678804D01*
X914150Y678693D01*
X914336Y678564D01*
X914558Y678378D01*
X914780Y678175D01*
X915002Y677934D01*
X915187Y677656D01*
X915206Y677619D01*
X915261Y677527D01*
X915335Y677360D01*
X915428Y677156D01*
X915521Y676916D01*
X915595Y676638D01*
X915650Y676323D01*
X915669Y676008D01*
Y675971D01*
Y675860D01*
X915650Y675712D01*
X915613Y675508D01*
X915558Y675268D01*
X915465Y675008D01*
X915354Y674749D01*
X915206Y674490D01*
X915187Y674453D01*
X915132Y674379D01*
X915021Y674249D01*
X914873Y674101D01*
X914687Y673934D01*
X914465Y673749D01*
X914206Y673583D01*
X913891Y673416D01*
X913910D01*
X913947Y673397D01*
X914002Y673379D01*
X914076Y673360D01*
X914280Y673286D01*
X914539Y673175D01*
X914836Y673027D01*
X915132Y672842D01*
X915409Y672601D01*
X915669Y672323D01*
X915687Y672286D01*
X915761Y672175D01*
X915872Y671990D01*
X915984Y671749D01*
X916095Y671453D01*
X916206Y671101D01*
X916280Y670694D01*
X916298Y670250D01*
Y670231D01*
Y670175D01*
Y670083D01*
X916280Y669972D01*
X916261Y669824D01*
X916224Y669657D01*
X916187Y669472D01*
X916150Y669268D01*
X916002Y668824D01*
X915891Y668583D01*
X915780Y668361D01*
X915632Y668120D01*
X915465Y667879D01*
X915280Y667639D01*
X915058Y667417D01*
X915039Y667398D01*
X915002Y667361D01*
X914928Y667305D01*
X914836Y667231D01*
X914724Y667139D01*
X914576Y667046D01*
X914410Y666935D01*
X914206Y666842D01*
X914002Y666731D01*
X913762Y666620D01*
X913521Y666528D01*
X913243Y666435D01*
X912947Y666361D01*
X912632Y666306D01*
X912317Y666268D01*
X911965Y666250D01*
X911799D01*
X911688Y666268D01*
X911540Y666287D01*
X911373Y666306D01*
X911188Y666343D01*
X910984Y666380D01*
X910540Y666491D01*
X910077Y666676D01*
X909836Y666787D01*
X909614Y666917D01*
X909392Y667083D01*
X909169Y667250D01*
X909151Y667268D01*
X909114Y667305D01*
X909058Y667361D01*
X909003Y667435D01*
X908910Y667528D01*
X908818Y667657D01*
X908707Y667787D01*
X908595Y667953D01*
X908484Y668139D01*
X908373Y668324D01*
X908170Y668768D01*
X908003Y669287D01*
X907947Y669565D01*
X907910Y669861D01*
X909484Y670064D01*
Y670046D01*
X909503Y670009D01*
X909521Y669935D01*
X909540Y669842D01*
X909558Y669731D01*
X909595Y669602D01*
X909688Y669324D01*
X909818Y668990D01*
X909984Y668676D01*
X910169Y668379D01*
X910391Y668120D01*
X910429Y668102D01*
X910503Y668028D01*
X910651Y667935D01*
X910836Y667842D01*
X911058Y667731D01*
X911336Y667639D01*
X911651Y667565D01*
X911984Y667546D01*
X912095D01*
X912169Y667565D01*
X912373Y667583D01*
X912632Y667639D01*
X912928Y667731D01*
X913243Y667861D01*
X913558Y668046D01*
X913854Y668305D01*
X913891Y668342D01*
X913984Y668454D01*
X914095Y668620D01*
X914243Y668842D01*
X914391Y669120D01*
X914502Y669435D01*
X914595Y669805D01*
X914632Y670213D01*
Y670231D01*
Y670268D01*
Y670324D01*
X914613Y670398D01*
X914595Y670601D01*
X914539Y670842D01*
X914465Y671138D01*
X914336Y671435D01*
X914150Y671731D01*
X913910Y672009D01*
X913873Y672046D01*
X913780Y672120D01*
X913632Y672231D01*
X913428Y672361D01*
X913169Y672490D01*
X912854Y672601D01*
X912502Y672675D01*
X912114Y672712D01*
X911947D01*
X911817Y672694D01*
X911651Y672675D01*
X911466Y672638D01*
X911243Y672601D01*
X911003Y672546D01*
X911188Y673934D01*
X911280D01*
X911354Y673916D01*
X911595D01*
X911799Y673953D01*
X912039Y673990D01*
X912317Y674045D01*
X912632Y674138D01*
X912928Y674268D01*
X913243Y674434D01*
X913262D01*
X913280Y674453D01*
X913373Y674527D01*
X913502Y674657D01*
X913651Y674823D01*
X913799Y675064D01*
X913928Y675342D01*
X914021Y675656D01*
X914058Y675842D01*
Y676045D01*
Y676064D01*
Y676082D01*
Y676193D01*
X914021Y676341D01*
X913984Y676545D01*
X913910Y676767D01*
X913817Y677008D01*
X913669Y677249D01*
X913465Y677471D01*
X913447Y677490D01*
X913354Y677564D01*
X913225Y677656D01*
X913058Y677767D01*
X912836Y677860D01*
X912577Y677952D01*
X912280Y678027D01*
X911947Y678045D01*
X911799D01*
X911632Y678008D01*
X911410Y677971D01*
X911169Y677897D01*
X910928Y677804D01*
X910669Y677656D01*
X910429Y677471D01*
X910410Y677452D01*
X910336Y677360D01*
X910225Y677230D01*
X910095Y677045D01*
X909966Y676805D01*
X909836Y676508D01*
X909725Y676156D01*
X909651Y675749D01*
X908077Y676027D01*
Y676045D01*
X908095Y676101D01*
X908114Y676175D01*
X908132Y676286D01*
X908170Y676416D01*
X908225Y676564D01*
X908336Y676916D01*
X908521Y677323D01*
X908744Y677730D01*
X909021Y678119D01*
X909373Y678471D01*
X909392Y678490D01*
X909429Y678508D01*
X909484Y678545D01*
X909558Y678601D01*
X909651Y678675D01*
X909781Y678749D01*
X909910Y678823D01*
X910077Y678915D01*
X910447Y679063D01*
X910873Y679212D01*
X911373Y679304D01*
X911632Y679341D01*
X912095D01*
X912299Y679323D01*
D02*
G37*
G36*
X954350Y670990D02*
X956090D01*
Y669546D01*
X954350D01*
Y666472D01*
X952776D01*
Y669546D01*
X947203D01*
Y670990D01*
X953072Y679286D01*
X954350D01*
Y670990D01*
D02*
G37*
G36*
X933741Y666472D02*
X932167D01*
Y676490D01*
X932149Y676471D01*
X932056Y676397D01*
X931945Y676286D01*
X931760Y676156D01*
X931556Y675990D01*
X931297Y675805D01*
X931001Y675601D01*
X930667Y675397D01*
X930649D01*
X930630Y675379D01*
X930519Y675305D01*
X930334Y675212D01*
X930112Y675101D01*
X929853Y674971D01*
X929575Y674842D01*
X929297Y674712D01*
X929019Y674601D01*
Y676119D01*
X929038D01*
X929075Y676156D01*
X929149Y676175D01*
X929241Y676230D01*
X929352Y676286D01*
X929482Y676360D01*
X929797Y676545D01*
X930167Y676749D01*
X930538Y677008D01*
X930927Y677304D01*
X931315Y677619D01*
X931334Y677638D01*
X931352Y677656D01*
X931408Y677712D01*
X931482Y677767D01*
X931649Y677952D01*
X931871Y678175D01*
X932093Y678434D01*
X932334Y678730D01*
X932537Y679026D01*
X932723Y679341D01*
X933741D01*
Y666472D01*
D02*
G37*
G36*
X923779D02*
X922205D01*
Y676490D01*
X922187Y676471D01*
X922094Y676397D01*
X921983Y676286D01*
X921798Y676156D01*
X921594Y675990D01*
X921335Y675805D01*
X921039Y675601D01*
X920705Y675397D01*
X920687D01*
X920668Y675379D01*
X920557Y675305D01*
X920372Y675212D01*
X920150Y675101D01*
X919891Y674971D01*
X919613Y674842D01*
X919335Y674712D01*
X919057Y674601D01*
Y676119D01*
X919076D01*
X919113Y676156D01*
X919187Y676175D01*
X919279Y676230D01*
X919391Y676286D01*
X919520Y676360D01*
X919835Y676545D01*
X920205Y676749D01*
X920576Y677008D01*
X920965Y677304D01*
X921353Y677619D01*
X921372Y677638D01*
X921390Y677656D01*
X921446Y677712D01*
X921520Y677767D01*
X921687Y677952D01*
X921909Y678175D01*
X922131Y678434D01*
X922372Y678730D01*
X922576Y679026D01*
X922761Y679341D01*
X923779D01*
Y666472D01*
D02*
G37*
G36*
X902485Y679323D02*
X902633Y679304D01*
X902818Y679286D01*
X903022Y679249D01*
X903226Y679212D01*
X903707Y679082D01*
X904189Y678897D01*
X904429Y678786D01*
X904670Y678656D01*
X904892Y678490D01*
X905096Y678304D01*
X905114Y678286D01*
X905151Y678267D01*
X905188Y678193D01*
X905263Y678119D01*
X905355Y678027D01*
X905448Y677897D01*
X905540Y677767D01*
X905651Y677601D01*
X905836Y677249D01*
X906022Y676805D01*
X906096Y676582D01*
X906133Y676323D01*
X906170Y676064D01*
X906188Y675786D01*
Y675749D01*
Y675656D01*
X906170Y675508D01*
X906151Y675305D01*
X906114Y675082D01*
X906040Y674823D01*
X905966Y674545D01*
X905855Y674268D01*
X905836Y674231D01*
X905799Y674138D01*
X905725Y673990D01*
X905614Y673786D01*
X905466Y673564D01*
X905281Y673286D01*
X905059Y673009D01*
X904799Y672694D01*
X904762Y672657D01*
X904670Y672546D01*
X904577Y672453D01*
X904485Y672361D01*
X904374Y672249D01*
X904225Y672101D01*
X904077Y671953D01*
X903892Y671786D01*
X903707Y671601D01*
X903485Y671398D01*
X903244Y671194D01*
X902985Y670953D01*
X902689Y670713D01*
X902392Y670453D01*
X902374Y670435D01*
X902337Y670398D01*
X902263Y670342D01*
X902170Y670268D01*
X902059Y670157D01*
X901929Y670046D01*
X901633Y669805D01*
X901318Y669527D01*
X901022Y669250D01*
X900763Y669009D01*
X900652Y668916D01*
X900559Y668824D01*
X900541Y668805D01*
X900485Y668750D01*
X900411Y668676D01*
X900319Y668565D01*
X900226Y668435D01*
X900115Y668305D01*
X899893Y667991D01*
X906207D01*
Y666472D01*
X897708D01*
Y666491D01*
Y666565D01*
Y666676D01*
X897726Y666824D01*
X897745Y666991D01*
X897782Y667176D01*
X897819Y667361D01*
X897893Y667565D01*
Y667583D01*
X897911Y667602D01*
X897948Y667713D01*
X898023Y667879D01*
X898134Y668102D01*
X898282Y668361D01*
X898467Y668657D01*
X898671Y668953D01*
X898930Y669268D01*
Y669287D01*
X898967Y669305D01*
X899059Y669416D01*
X899226Y669583D01*
X899467Y669824D01*
X899744Y670101D01*
X900096Y670435D01*
X900522Y670805D01*
X900985Y671194D01*
X901004Y671212D01*
X901078Y671268D01*
X901189Y671361D01*
X901318Y671472D01*
X901485Y671620D01*
X901689Y671786D01*
X901892Y671972D01*
X902133Y672175D01*
X902596Y672620D01*
X903059Y673064D01*
X903281Y673286D01*
X903485Y673509D01*
X903670Y673712D01*
X903818Y673916D01*
Y673934D01*
X903855Y673953D01*
X903892Y674008D01*
X903929Y674082D01*
X904059Y674286D01*
X904207Y674527D01*
X904337Y674823D01*
X904466Y675138D01*
X904540Y675490D01*
X904577Y675823D01*
Y675842D01*
Y675860D01*
X904559Y675971D01*
X904540Y676156D01*
X904485Y676360D01*
X904411Y676619D01*
X904281Y676879D01*
X904114Y677138D01*
X903892Y677397D01*
X903855Y677434D01*
X903763Y677508D01*
X903633Y677601D01*
X903429Y677730D01*
X903170Y677841D01*
X902874Y677952D01*
X902522Y678027D01*
X902133Y678045D01*
X902022D01*
X901948Y678027D01*
X901726Y678008D01*
X901467Y677952D01*
X901189Y677878D01*
X900874Y677749D01*
X900578Y677582D01*
X900300Y677360D01*
X900263Y677323D01*
X900189Y677230D01*
X900078Y677082D01*
X899967Y676860D01*
X899837Y676601D01*
X899726Y676267D01*
X899652Y675897D01*
X899615Y675471D01*
X898004Y675638D01*
Y675656D01*
X898023Y675712D01*
Y675805D01*
X898041Y675934D01*
X898078Y676082D01*
X898115Y676249D01*
X898171Y676453D01*
X898226Y676656D01*
X898374Y677101D01*
X898596Y677545D01*
X898726Y677767D01*
X898893Y677990D01*
X899059Y678193D01*
X899245Y678378D01*
X899263Y678397D01*
X899300Y678415D01*
X899356Y678471D01*
X899448Y678527D01*
X899559Y678601D01*
X899689Y678675D01*
X899837Y678767D01*
X900022Y678860D01*
X900226Y678952D01*
X900448Y679045D01*
X900689Y679119D01*
X900948Y679193D01*
X901226Y679249D01*
X901522Y679304D01*
X901837Y679323D01*
X902170Y679341D01*
X902355D01*
X902485Y679323D01*
D02*
G37*
G36*
X890949Y677767D02*
X883376D01*
Y673860D01*
X890468D01*
Y672342D01*
X883376D01*
Y667991D01*
X891245D01*
Y666472D01*
X881672D01*
Y679286D01*
X890949D01*
Y677767D01*
D02*
G37*
G36*
X879895D02*
X875673D01*
Y666472D01*
X873969D01*
Y677767D01*
X869748D01*
Y679286D01*
X879895D01*
Y677767D01*
D02*
G37*
G36*
X848454Y667991D02*
X854768D01*
Y666472D01*
X846750D01*
Y679286D01*
X848454D01*
Y667991D01*
D02*
G37*
G36*
X942333Y679323D02*
X942573Y679286D01*
X942851Y679230D01*
X943147Y679156D01*
X943462Y679063D01*
X943758Y678915D01*
X943777D01*
X943795Y678897D01*
X943888Y678841D01*
X944036Y678749D01*
X944221Y678619D01*
X944425Y678434D01*
X944647Y678230D01*
X944851Y677990D01*
X945055Y677712D01*
X945073Y677675D01*
X945147Y677582D01*
X945221Y677415D01*
X945351Y677175D01*
X945462Y676897D01*
X945610Y676582D01*
X945740Y676212D01*
X945851Y675805D01*
Y675786D01*
X945869Y675749D01*
X945888Y675694D01*
X945906Y675601D01*
X945925Y675490D01*
X945943Y675360D01*
X945981Y675193D01*
X945999Y675008D01*
X946036Y674805D01*
X946055Y674583D01*
X946073Y674323D01*
X946110Y674064D01*
X946129Y673768D01*
Y673472D01*
X946147Y673138D01*
Y672786D01*
Y672768D01*
Y672694D01*
Y672564D01*
Y672416D01*
X946129Y672212D01*
Y671990D01*
X946110Y671749D01*
X946092Y671490D01*
X946036Y670898D01*
X945943Y670287D01*
X945832Y669694D01*
X945758Y669416D01*
X945666Y669139D01*
Y669120D01*
X945647Y669083D01*
X945610Y669009D01*
X945573Y668916D01*
X945536Y668787D01*
X945462Y668657D01*
X945314Y668342D01*
X945129Y668009D01*
X944888Y667639D01*
X944610Y667305D01*
X944277Y666991D01*
X944258D01*
X944240Y666954D01*
X944184Y666917D01*
X944110Y666880D01*
X944018Y666824D01*
X943925Y666750D01*
X943647Y666620D01*
X943314Y666491D01*
X942925Y666361D01*
X942462Y666287D01*
X941962Y666250D01*
X941777D01*
X941648Y666268D01*
X941499Y666287D01*
X941314Y666324D01*
X941111Y666361D01*
X940888Y666417D01*
X940666Y666491D01*
X940425Y666565D01*
X940185Y666676D01*
X939944Y666805D01*
X939703Y666954D01*
X939463Y667139D01*
X939240Y667343D01*
X939037Y667565D01*
X939018Y667583D01*
X938981Y667639D01*
X938926Y667731D01*
X938833Y667879D01*
X938740Y668046D01*
X938648Y668268D01*
X938518Y668528D01*
X938407Y668824D01*
X938296Y669157D01*
X938185Y669546D01*
X938074Y669972D01*
X937981Y670453D01*
X937889Y670972D01*
X937833Y671527D01*
X937796Y672138D01*
X937778Y672786D01*
Y672805D01*
Y672879D01*
Y673009D01*
Y673157D01*
X937796Y673360D01*
Y673583D01*
X937815Y673823D01*
X937833Y674101D01*
X937889Y674675D01*
X937981Y675286D01*
X938092Y675897D01*
X938166Y676175D01*
X938241Y676453D01*
Y676471D01*
X938259Y676508D01*
X938296Y676582D01*
X938333Y676675D01*
X938370Y676805D01*
X938444Y676934D01*
X938592Y677249D01*
X938777Y677582D01*
X939018Y677934D01*
X939296Y678286D01*
X939629Y678582D01*
X939648D01*
X939666Y678619D01*
X939722Y678656D01*
X939796Y678693D01*
X939889Y678767D01*
X940000Y678823D01*
X940277Y678971D01*
X940611Y679100D01*
X941000Y679230D01*
X941462Y679304D01*
X941962Y679341D01*
X942129D01*
X942333Y679323D01*
D02*
G37*
G36*
X862693Y679489D02*
X862859D01*
X863026Y679471D01*
X863248Y679434D01*
X863471Y679397D01*
X863952Y679304D01*
X864507Y679156D01*
X865044Y678934D01*
X865322Y678804D01*
X865600Y678656D01*
X865618Y678638D01*
X865655Y678619D01*
X865730Y678564D01*
X865841Y678508D01*
X865952Y678415D01*
X866100Y678304D01*
X866415Y678045D01*
X866748Y677712D01*
X867118Y677304D01*
X867470Y676823D01*
X867766Y676286D01*
Y676267D01*
X867803Y676212D01*
X867840Y676138D01*
X867877Y676027D01*
X867952Y675879D01*
X868007Y675712D01*
X868081Y675508D01*
X868155Y675286D01*
X868211Y675045D01*
X868285Y674786D01*
X868359Y674490D01*
X868414Y674194D01*
X868488Y673546D01*
X868525Y672842D01*
Y672823D01*
Y672749D01*
Y672657D01*
X868507Y672509D01*
Y672342D01*
X868488Y672138D01*
X868452Y671916D01*
X868433Y671675D01*
X868340Y671138D01*
X868192Y670546D01*
X867989Y669953D01*
X867877Y669657D01*
X867729Y669361D01*
Y669342D01*
X867692Y669287D01*
X867655Y669213D01*
X867581Y669102D01*
X867507Y668972D01*
X867414Y668842D01*
X867155Y668491D01*
X866841Y668120D01*
X866470Y667731D01*
X866026Y667361D01*
X865507Y667028D01*
X865489D01*
X865452Y666991D01*
X865359Y666954D01*
X865248Y666898D01*
X865118Y666842D01*
X864970Y666787D01*
X864785Y666713D01*
X864582Y666639D01*
X864359Y666565D01*
X864119Y666491D01*
X863582Y666380D01*
X863008Y666287D01*
X862396Y666250D01*
X862211D01*
X862100Y666268D01*
X861934D01*
X861748Y666306D01*
X861545Y666324D01*
X861304Y666361D01*
X860804Y666472D01*
X860267Y666620D01*
X859712Y666842D01*
X859434Y666972D01*
X859156Y667120D01*
X859138Y667139D01*
X859101Y667157D01*
X859026Y667213D01*
X858915Y667287D01*
X858804Y667361D01*
X858675Y667472D01*
X858360Y667750D01*
X858008Y668083D01*
X857638Y668491D01*
X857305Y668953D01*
X856990Y669490D01*
Y669509D01*
X856953Y669565D01*
X856916Y669639D01*
X856879Y669750D01*
X856823Y669898D01*
X856768Y670064D01*
X856693Y670250D01*
X856638Y670453D01*
X856564Y670694D01*
X856490Y670935D01*
X856379Y671490D01*
X856305Y672064D01*
X856267Y672694D01*
Y672712D01*
Y672731D01*
Y672842D01*
X856286Y673009D01*
Y673231D01*
X856323Y673490D01*
X856360Y673805D01*
X856416Y674157D01*
X856490Y674527D01*
X856564Y674916D01*
X856675Y675323D01*
X856823Y675731D01*
X856990Y676156D01*
X857175Y676564D01*
X857416Y676971D01*
X857675Y677341D01*
X857971Y677693D01*
X857990Y677712D01*
X858045Y677767D01*
X858156Y677860D01*
X858286Y677971D01*
X858453Y678119D01*
X858656Y678267D01*
X858897Y678434D01*
X859175Y678601D01*
X859471Y678767D01*
X859804Y678934D01*
X860174Y679082D01*
X860563Y679230D01*
X860989Y679341D01*
X861434Y679434D01*
X861897Y679489D01*
X862396Y679508D01*
X862563D01*
X862693Y679489D01*
D02*
G37*
G36*
X880887Y740517D02*
X881053Y740499D01*
X881257Y740480D01*
X881461Y740462D01*
X881702Y740406D01*
X882202Y740295D01*
X882757Y740128D01*
X883035Y740017D01*
X883294Y739887D01*
X883553Y739721D01*
X883812Y739554D01*
X883831Y739536D01*
X883868Y739517D01*
X883942Y739462D01*
X884035Y739369D01*
X884127Y739276D01*
X884257Y739147D01*
X884386Y738999D01*
X884535Y738851D01*
X884683Y738665D01*
X884831Y738443D01*
X884997Y738221D01*
X885146Y737980D01*
X885275Y737702D01*
X885423Y737425D01*
X885534Y737129D01*
X885646Y736795D01*
X883979Y736406D01*
Y736425D01*
X883960Y736462D01*
X883923Y736536D01*
X883886Y736629D01*
X883849Y736740D01*
X883794Y736888D01*
X883646Y737184D01*
X883461Y737517D01*
X883238Y737851D01*
X882961Y738166D01*
X882664Y738443D01*
X882627Y738480D01*
X882516Y738554D01*
X882331Y738647D01*
X882090Y738776D01*
X881776Y738888D01*
X881424Y738999D01*
X880998Y739073D01*
X880535Y739091D01*
X880387D01*
X880294Y739073D01*
X880165D01*
X880016Y739054D01*
X879665Y738999D01*
X879276Y738925D01*
X878868Y738795D01*
X878443Y738610D01*
X878054Y738369D01*
X878035D01*
X878017Y738332D01*
X877887Y738240D01*
X877720Y738091D01*
X877517Y737869D01*
X877276Y737591D01*
X877054Y737277D01*
X876850Y736888D01*
X876665Y736462D01*
Y736443D01*
X876646Y736406D01*
X876628Y736351D01*
X876609Y736258D01*
X876572Y736147D01*
X876535Y736018D01*
X876480Y735703D01*
X876406Y735332D01*
X876332Y734925D01*
X876295Y734481D01*
X876276Y733999D01*
Y733981D01*
Y733925D01*
Y733833D01*
Y733721D01*
X876295Y733592D01*
Y733425D01*
X876313Y733240D01*
X876332Y733036D01*
X876387Y732592D01*
X876480Y732111D01*
X876591Y731629D01*
X876739Y731148D01*
Y731129D01*
X876758Y731092D01*
X876795Y731037D01*
X876832Y730944D01*
X876943Y730722D01*
X877109Y730462D01*
X877313Y730166D01*
X877572Y729852D01*
X877869Y729574D01*
X878220Y729314D01*
X878239D01*
X878276Y729296D01*
X878332Y729259D01*
X878406Y729222D01*
X878498Y729185D01*
X878609Y729129D01*
X878868Y729018D01*
X879202Y728907D01*
X879572Y728815D01*
X879979Y728740D01*
X880405Y728722D01*
X880535D01*
X880646Y728740D01*
X880776D01*
X880905Y728759D01*
X881239Y728833D01*
X881627Y728926D01*
X882016Y729074D01*
X882424Y729277D01*
X882627Y729389D01*
X882812Y729537D01*
X882831Y729555D01*
X882850Y729574D01*
X882905Y729629D01*
X882979Y729685D01*
X883053Y729777D01*
X883146Y729889D01*
X883257Y730000D01*
X883350Y730148D01*
X883461Y730314D01*
X883590Y730500D01*
X883701Y730685D01*
X883812Y730907D01*
X883905Y731148D01*
X883998Y731407D01*
X884090Y731685D01*
X884164Y731981D01*
X885868Y731555D01*
Y731536D01*
X885849Y731462D01*
X885812Y731351D01*
X885757Y731203D01*
X885701Y731037D01*
X885627Y730833D01*
X885534Y730611D01*
X885423Y730370D01*
X885164Y729852D01*
X884831Y729333D01*
X884627Y729074D01*
X884424Y728815D01*
X884201Y728592D01*
X883942Y728370D01*
X883923Y728352D01*
X883886Y728315D01*
X883794Y728278D01*
X883701Y728204D01*
X883553Y728111D01*
X883405Y728018D01*
X883201Y727926D01*
X882998Y727833D01*
X882757Y727722D01*
X882498Y727629D01*
X882220Y727537D01*
X881924Y727444D01*
X881609Y727370D01*
X881276Y727333D01*
X880924Y727296D01*
X880554Y727278D01*
X880350D01*
X880202Y727296D01*
X880035D01*
X879831Y727315D01*
X879609Y727352D01*
X879350Y727389D01*
X878813Y727481D01*
X878257Y727629D01*
X877702Y727833D01*
X877443Y727963D01*
X877184Y728111D01*
X877165Y728130D01*
X877128Y728148D01*
X877054Y728204D01*
X876980Y728278D01*
X876869Y728352D01*
X876739Y728463D01*
X876591Y728592D01*
X876443Y728740D01*
X876295Y728907D01*
X876128Y729074D01*
X875795Y729500D01*
X875480Y730000D01*
X875202Y730555D01*
Y730574D01*
X875165Y730629D01*
X875147Y730722D01*
X875091Y730833D01*
X875054Y730981D01*
X874998Y731166D01*
X874924Y731370D01*
X874869Y731592D01*
X874813Y731833D01*
X874739Y732111D01*
X874647Y732684D01*
X874573Y733333D01*
X874536Y733999D01*
Y734018D01*
Y734092D01*
Y734203D01*
X874554Y734333D01*
Y734518D01*
X874573Y734703D01*
X874591Y734944D01*
X874628Y735184D01*
X874721Y735721D01*
X874850Y736314D01*
X875035Y736906D01*
X875295Y737480D01*
X875313Y737499D01*
X875332Y737554D01*
X875369Y737628D01*
X875443Y737721D01*
X875517Y737851D01*
X875610Y737999D01*
X875850Y738332D01*
X876165Y738702D01*
X876535Y739073D01*
X876961Y739443D01*
X877461Y739758D01*
X877480Y739776D01*
X877535Y739795D01*
X877609Y739832D01*
X877702Y739887D01*
X877850Y739943D01*
X877998Y739999D01*
X878183Y740073D01*
X878387Y740147D01*
X878609Y740221D01*
X878850Y740295D01*
X879368Y740406D01*
X879961Y740499D01*
X880572Y740536D01*
X880757D01*
X880887Y740517D01*
D02*
G37*
G36*
X866925D02*
X867092D01*
X867259Y740499D01*
X867481Y740462D01*
X867703Y740424D01*
X868184Y740332D01*
X868740Y740184D01*
X869277Y739962D01*
X869555Y739832D01*
X869832Y739684D01*
X869851Y739665D01*
X869888Y739647D01*
X869962Y739591D01*
X870073Y739536D01*
X870184Y739443D01*
X870332Y739332D01*
X870647Y739073D01*
X870980Y738739D01*
X871351Y738332D01*
X871702Y737851D01*
X871999Y737314D01*
Y737295D01*
X872036Y737240D01*
X872073Y737166D01*
X872110Y737055D01*
X872184Y736906D01*
X872240Y736740D01*
X872314Y736536D01*
X872388Y736314D01*
X872443Y736073D01*
X872517Y735814D01*
X872591Y735536D01*
X872647Y735240D01*
X872721Y734592D01*
X872758Y733907D01*
Y733888D01*
Y733833D01*
Y733758D01*
Y733647D01*
X872739Y733499D01*
Y733333D01*
X872721Y733148D01*
X872702Y732962D01*
X872647Y732518D01*
X872554Y732037D01*
X872443Y731536D01*
X872277Y731055D01*
Y731037D01*
X872258Y731000D01*
X872221Y730926D01*
X872184Y730851D01*
X872128Y730740D01*
X872073Y730611D01*
X871925Y730314D01*
X871721Y729963D01*
X871462Y729592D01*
X871166Y729222D01*
X870832Y728852D01*
X870851D01*
X870888Y728815D01*
X870943Y728777D01*
X871036Y728722D01*
X871128Y728648D01*
X871258Y728574D01*
X871536Y728407D01*
X871869Y728204D01*
X872240Y728000D01*
X872628Y727833D01*
X872999Y727666D01*
X872499Y726500D01*
X872480D01*
X872443Y726518D01*
X872369Y726555D01*
X872258Y726593D01*
X872128Y726648D01*
X871980Y726722D01*
X871814Y726796D01*
X871628Y726889D01*
X871221Y727111D01*
X870758Y727370D01*
X870258Y727704D01*
X869740Y728074D01*
X869721D01*
X869684Y728037D01*
X869592Y728000D01*
X869499Y727944D01*
X869351Y727889D01*
X869203Y727815D01*
X869018Y727759D01*
X868814Y727685D01*
X868592Y727611D01*
X868351Y727537D01*
X867814Y727407D01*
X867222Y727315D01*
X866907Y727296D01*
X866592Y727278D01*
X866425D01*
X866296Y727296D01*
X866148D01*
X865962Y727315D01*
X865759Y727352D01*
X865536Y727389D01*
X865055Y727481D01*
X864518Y727629D01*
X863963Y727833D01*
X863703Y727963D01*
X863426Y728111D01*
X863407Y728130D01*
X863370Y728148D01*
X863296Y728204D01*
X863203Y728259D01*
X863074Y728352D01*
X862944Y728463D01*
X862629Y728722D01*
X862278Y729055D01*
X861926Y729463D01*
X861574Y729926D01*
X861259Y730462D01*
Y730481D01*
X861222Y730537D01*
X861185Y730611D01*
X861148Y730722D01*
X861093Y730870D01*
X861019Y731037D01*
X860944Y731240D01*
X860889Y731462D01*
X860815Y731703D01*
X860741Y731962D01*
X860685Y732240D01*
X860611Y732555D01*
X860537Y733203D01*
X860500Y733888D01*
Y733907D01*
Y733981D01*
Y734073D01*
X860518Y734203D01*
Y734370D01*
X860537Y734573D01*
X860556Y734795D01*
X860593Y735036D01*
X860685Y735573D01*
X860815Y736147D01*
X861000Y736758D01*
X861259Y737351D01*
X861278Y737369D01*
X861296Y737425D01*
X861333Y737499D01*
X861407Y737610D01*
X861481Y737740D01*
X861574Y737888D01*
X861833Y738240D01*
X862130Y738610D01*
X862518Y738999D01*
X862944Y739388D01*
X863444Y739721D01*
X863463Y739739D01*
X863518Y739758D01*
X863592Y739795D01*
X863703Y739850D01*
X863833Y739906D01*
X863981Y739980D01*
X864166Y740054D01*
X864370Y740128D01*
X864611Y740202D01*
X864851Y740276D01*
X865388Y740406D01*
X865981Y740499D01*
X866296Y740536D01*
X866796D01*
X866925Y740517D01*
D02*
G37*
G36*
X879201Y694500D02*
X877535D01*
X874850Y704258D01*
Y704277D01*
X874831Y704314D01*
X874813Y704369D01*
X874794Y704462D01*
X874739Y704666D01*
X874683Y704906D01*
X874609Y705166D01*
X874535Y705406D01*
X874479Y705610D01*
X874461Y705703D01*
X874442Y705758D01*
Y705740D01*
X874424Y705721D01*
X874405Y705610D01*
X874368Y705443D01*
X874313Y705240D01*
X874257Y705017D01*
X874183Y704758D01*
X874128Y704499D01*
X874053Y704258D01*
X871350Y694500D01*
X869573D01*
X866221Y707314D01*
X867980D01*
X869887Y698907D01*
Y698888D01*
X869906Y698851D01*
X869924Y698777D01*
X869943Y698685D01*
X869961Y698555D01*
X869998Y698426D01*
X870035Y698259D01*
X870072Y698074D01*
X870165Y697685D01*
X870258Y697241D01*
X870350Y696759D01*
X870443Y696278D01*
Y696296D01*
X870461Y696370D01*
X870498Y696463D01*
X870517Y696611D01*
X870554Y696759D01*
X870610Y696944D01*
X870702Y697352D01*
X870813Y697759D01*
X870850Y697963D01*
X870906Y698148D01*
X870943Y698314D01*
X870980Y698463D01*
X871017Y698574D01*
X871035Y698648D01*
X873461Y707314D01*
X875516D01*
X877331Y700814D01*
Y700796D01*
X877368Y700703D01*
X877405Y700574D01*
X877442Y700407D01*
X877498Y700185D01*
X877572Y699944D01*
X877646Y699666D01*
X877720Y699351D01*
X877812Y698999D01*
X877887Y698648D01*
X878053Y697888D01*
X878220Y697092D01*
X878349Y696278D01*
Y696296D01*
X878368Y696333D01*
Y696407D01*
X878405Y696500D01*
X878423Y696611D01*
X878460Y696740D01*
X878479Y696907D01*
X878535Y697092D01*
X878627Y697500D01*
X878738Y697981D01*
X878849Y698500D01*
X878997Y699074D01*
X880997Y707314D01*
X882719D01*
X879201Y694500D01*
D02*
G37*
G36*
X860592Y707295D02*
X860759D01*
X861148Y707277D01*
X861555Y707221D01*
X861999Y707165D01*
X862407Y707073D01*
X862610Y707017D01*
X862777Y706962D01*
X862795D01*
X862814Y706943D01*
X862925Y706888D01*
X863092Y706814D01*
X863295Y706684D01*
X863518Y706517D01*
X863758Y706295D01*
X863980Y706036D01*
X864203Y705740D01*
Y705721D01*
X864221Y705703D01*
X864295Y705592D01*
X864369Y705406D01*
X864481Y705166D01*
X864573Y704888D01*
X864666Y704555D01*
X864721Y704203D01*
X864740Y703814D01*
Y703795D01*
Y703758D01*
Y703684D01*
X864721Y703592D01*
Y703462D01*
X864703Y703332D01*
X864629Y703018D01*
X864518Y702647D01*
X864369Y702259D01*
X864147Y701870D01*
X863999Y701684D01*
X863851Y701499D01*
X863832Y701481D01*
X863814Y701462D01*
X863758Y701407D01*
X863684Y701351D01*
X863592Y701277D01*
X863481Y701203D01*
X863332Y701110D01*
X863184Y700999D01*
X862999Y700907D01*
X862795Y700814D01*
X862573Y700703D01*
X862333Y700611D01*
X862055Y700536D01*
X861777Y700444D01*
X861462Y700388D01*
X861129Y700333D01*
X861166Y700314D01*
X861240Y700277D01*
X861351Y700203D01*
X861499Y700129D01*
X861833Y699925D01*
X861999Y699796D01*
X862147Y699685D01*
X862184Y699648D01*
X862277Y699555D01*
X862425Y699407D01*
X862610Y699222D01*
X862814Y698962D01*
X863055Y698685D01*
X863295Y698352D01*
X863555Y697981D01*
X865758Y694500D01*
X863647D01*
X861962Y697166D01*
Y697185D01*
X861925Y697222D01*
X861888Y697278D01*
X861833Y697352D01*
X861703Y697555D01*
X861536Y697814D01*
X861333Y698092D01*
X861129Y698389D01*
X860925Y698666D01*
X860740Y698925D01*
X860722Y698944D01*
X860666Y699018D01*
X860574Y699129D01*
X860444Y699259D01*
X860166Y699537D01*
X860018Y699666D01*
X859870Y699777D01*
X859851Y699796D01*
X859814Y699814D01*
X859740Y699851D01*
X859629Y699907D01*
X859518Y699962D01*
X859388Y700018D01*
X859092Y700110D01*
X859074D01*
X859037Y700129D01*
X858962D01*
X858870Y700148D01*
X858740Y700166D01*
X858592D01*
X858389Y700185D01*
X856204D01*
Y694500D01*
X854500D01*
Y707314D01*
X860444D01*
X860592Y707295D01*
D02*
G37*
%LPC*%
G36*
X875427Y541316D02*
X873766D01*
Y540984D01*
X873102D01*
Y540652D01*
Y540319D01*
X872770D01*
Y539987D01*
Y539655D01*
Y539323D01*
Y538991D01*
Y538659D01*
Y538327D01*
X872438D01*
Y537994D01*
Y537662D01*
Y537330D01*
Y536998D01*
Y536666D01*
Y536334D01*
Y536002D01*
X872770D01*
Y535670D01*
Y535337D01*
Y535005D01*
Y534673D01*
Y534341D01*
X873102D01*
Y534009D01*
Y533677D01*
X873766D01*
Y533344D01*
X875427D01*
Y533677D01*
X875759D01*
Y534009D01*
X876091D01*
Y534341D01*
Y534673D01*
X876423D01*
Y535005D01*
Y535337D01*
Y535670D01*
Y536002D01*
Y536334D01*
Y536666D01*
Y536998D01*
Y537330D01*
Y537662D01*
Y537994D01*
Y538327D01*
Y538659D01*
Y538991D01*
Y539323D01*
Y539655D01*
Y539987D01*
X876091D01*
Y540319D01*
Y540652D01*
X875759D01*
Y540984D01*
X875427D01*
Y541316D01*
D02*
G37*
G36*
X942390Y650860D02*
X938353D01*
Y646620D01*
X942168D01*
X942390Y646638D01*
X942649Y646657D01*
X942945Y646675D01*
X943242Y646712D01*
X943538Y646768D01*
X943797Y646842D01*
X943834Y646860D01*
X943908Y646897D01*
X944019Y646953D01*
X944167Y647027D01*
X944334Y647138D01*
X944501Y647268D01*
X944667Y647434D01*
X944797Y647619D01*
X944815Y647638D01*
X944852Y647712D01*
X944908Y647823D01*
X944982Y647971D01*
X945038Y648138D01*
X945093Y648323D01*
X945130Y648545D01*
X945149Y648768D01*
Y648786D01*
Y648805D01*
X945130Y648916D01*
X945112Y649082D01*
X945075Y649305D01*
X944982Y649527D01*
X944871Y649786D01*
X944704Y650027D01*
X944482Y650267D01*
X944445Y650286D01*
X944352Y650360D01*
X944204Y650453D01*
X943964Y650564D01*
X943686Y650675D01*
X943316Y650767D01*
X942890Y650841D01*
X942390Y650860D01*
D02*
G37*
G36*
X919503D02*
X915467D01*
Y646620D01*
X919281D01*
X919503Y646638D01*
X919762Y646657D01*
X920059Y646675D01*
X920355Y646712D01*
X920651Y646768D01*
X920910Y646842D01*
X920947Y646860D01*
X921022Y646897D01*
X921133Y646953D01*
X921281Y647027D01*
X921447Y647138D01*
X921614Y647268D01*
X921781Y647434D01*
X921910Y647619D01*
X921929Y647638D01*
X921966Y647712D01*
X922021Y647823D01*
X922095Y647971D01*
X922151Y648138D01*
X922207Y648323D01*
X922244Y648545D01*
X922262Y648768D01*
Y648786D01*
Y648805D01*
X922244Y648916D01*
X922225Y649082D01*
X922188Y649305D01*
X922095Y649527D01*
X921984Y649786D01*
X921818Y650027D01*
X921596Y650267D01*
X921559Y650286D01*
X921466Y650360D01*
X921318Y650453D01*
X921077Y650564D01*
X920799Y650675D01*
X920429Y650767D01*
X920003Y650841D01*
X919503Y650860D01*
D02*
G37*
G36*
X869323Y650953D02*
Y650934D01*
X869305Y650897D01*
Y650823D01*
X869268Y650749D01*
X869249Y650619D01*
X869212Y650490D01*
X869138Y650175D01*
X869045Y649805D01*
X868916Y649397D01*
X868786Y648953D01*
X868620Y648490D01*
X867231Y644750D01*
X871564D01*
X870230Y648268D01*
Y648286D01*
X870212Y648342D01*
X870175Y648434D01*
X870138Y648545D01*
X870082Y648675D01*
X870027Y648842D01*
X869971Y649027D01*
X869897Y649212D01*
X869749Y649638D01*
X869601Y650082D01*
X869453Y650527D01*
X869323Y650953D01*
D02*
G37*
G36*
X839623Y651045D02*
X839511D01*
X839437Y651027D01*
X839234Y650990D01*
X838993Y650934D01*
X838715Y650823D01*
X838419Y650656D01*
X838271Y650545D01*
X838123Y650434D01*
X837993Y650286D01*
X837863Y650119D01*
Y650101D01*
X837827Y650064D01*
X837789Y649990D01*
X837734Y649897D01*
X837678Y649749D01*
X837604Y649582D01*
X837549Y649379D01*
X837475Y649138D01*
X837401Y648860D01*
X837327Y648545D01*
X837253Y648194D01*
X837197Y647805D01*
X837141Y647360D01*
X837104Y646879D01*
X837086Y646360D01*
X837067Y645786D01*
Y645749D01*
Y645657D01*
Y645490D01*
X837086Y645268D01*
Y645027D01*
X837104Y644731D01*
X837123Y644416D01*
X837160Y644083D01*
X837253Y643361D01*
X837308Y643009D01*
X837382Y642676D01*
X837456Y642361D01*
X837567Y642065D01*
X837678Y641805D01*
X837808Y641583D01*
Y641565D01*
X837845Y641546D01*
X837938Y641416D01*
X838104Y641250D01*
X838308Y641065D01*
X838586Y640880D01*
X838900Y640713D01*
X839252Y640583D01*
X839437Y640565D01*
X839641Y640546D01*
X839752D01*
X839826Y640565D01*
X840011Y640602D01*
X840271Y640676D01*
X840548Y640805D01*
X840863Y640991D01*
X841011Y641102D01*
X841160Y641250D01*
X841308Y641398D01*
X841456Y641583D01*
Y641602D01*
X841493Y641639D01*
X841530Y641694D01*
X841567Y641787D01*
X841641Y641916D01*
X841696Y642083D01*
X841770Y642268D01*
X841845Y642490D01*
X841900Y642768D01*
X841974Y643064D01*
X842048Y643416D01*
X842104Y643787D01*
X842141Y644231D01*
X842178Y644694D01*
X842215Y645212D01*
Y645786D01*
Y645805D01*
Y645823D01*
Y645916D01*
Y646083D01*
X842196Y646305D01*
Y646545D01*
X842178Y646842D01*
X842159Y647157D01*
X842122Y647508D01*
X842030Y648212D01*
X841974Y648564D01*
X841900Y648897D01*
X841826Y649212D01*
X841715Y649508D01*
X841604Y649767D01*
X841474Y649990D01*
Y650008D01*
X841437Y650027D01*
X841400Y650082D01*
X841345Y650156D01*
X841178Y650323D01*
X840974Y650527D01*
X840696Y650712D01*
X840382Y650878D01*
X840215Y650953D01*
X840030Y651008D01*
X839826Y651027D01*
X839623Y651045D01*
D02*
G37*
G36*
X952776Y676730D02*
X948739Y670990D01*
X952776D01*
Y676730D01*
D02*
G37*
G36*
X941944Y678045D02*
X941833D01*
X941759Y678027D01*
X941555Y677990D01*
X941314Y677934D01*
X941037Y677823D01*
X940740Y677656D01*
X940592Y677545D01*
X940444Y677434D01*
X940314Y677286D01*
X940185Y677119D01*
Y677101D01*
X940148Y677064D01*
X940111Y676990D01*
X940055Y676897D01*
X940000Y676749D01*
X939926Y676582D01*
X939870Y676379D01*
X939796Y676138D01*
X939722Y675860D01*
X939648Y675545D01*
X939574Y675193D01*
X939518Y674805D01*
X939463Y674360D01*
X939426Y673879D01*
X939407Y673360D01*
X939389Y672786D01*
Y672749D01*
Y672657D01*
Y672490D01*
X939407Y672268D01*
Y672027D01*
X939426Y671731D01*
X939444Y671416D01*
X939481Y671083D01*
X939574Y670361D01*
X939629Y670009D01*
X939703Y669676D01*
X939777Y669361D01*
X939889Y669064D01*
X940000Y668805D01*
X940129Y668583D01*
Y668565D01*
X940166Y668546D01*
X940259Y668416D01*
X940425Y668250D01*
X940629Y668065D01*
X940907Y667879D01*
X941222Y667713D01*
X941573Y667583D01*
X941759Y667565D01*
X941962Y667546D01*
X942074D01*
X942148Y667565D01*
X942333Y667602D01*
X942592Y667676D01*
X942870Y667805D01*
X943184Y667991D01*
X943333Y668102D01*
X943481Y668250D01*
X943629Y668398D01*
X943777Y668583D01*
Y668602D01*
X943814Y668639D01*
X943851Y668694D01*
X943888Y668787D01*
X943962Y668916D01*
X944018Y669083D01*
X944092Y669268D01*
X944166Y669490D01*
X944221Y669768D01*
X944295Y670064D01*
X944370Y670416D01*
X944425Y670787D01*
X944462Y671231D01*
X944499Y671694D01*
X944536Y672212D01*
Y672786D01*
Y672805D01*
Y672823D01*
Y672916D01*
Y673083D01*
X944518Y673305D01*
Y673546D01*
X944499Y673842D01*
X944481Y674157D01*
X944444Y674508D01*
X944351Y675212D01*
X944295Y675564D01*
X944221Y675897D01*
X944147Y676212D01*
X944036Y676508D01*
X943925Y676767D01*
X943795Y676990D01*
Y677008D01*
X943758Y677027D01*
X943721Y677082D01*
X943666Y677156D01*
X943499Y677323D01*
X943296Y677527D01*
X943018Y677712D01*
X942703Y677878D01*
X942536Y677952D01*
X942351Y678008D01*
X942148Y678027D01*
X941944Y678045D01*
D02*
G37*
G36*
X862396D02*
X862230D01*
X862100Y678027D01*
X861934Y678008D01*
X861767Y677971D01*
X861563Y677934D01*
X861341Y677897D01*
X860860Y677749D01*
X860600Y677638D01*
X860341Y677527D01*
X860063Y677378D01*
X859804Y677212D01*
X859545Y677027D01*
X859304Y676805D01*
X859286Y676786D01*
X859249Y676749D01*
X859193Y676675D01*
X859101Y676564D01*
X859008Y676434D01*
X858897Y676267D01*
X858786Y676064D01*
X858656Y675823D01*
X858545Y675564D01*
X858416Y675249D01*
X858304Y674916D01*
X858212Y674545D01*
X858119Y674138D01*
X858064Y673675D01*
X858027Y673194D01*
X858008Y672675D01*
Y672657D01*
Y672583D01*
Y672453D01*
X858027Y672286D01*
X858045Y672101D01*
X858082Y671879D01*
X858119Y671620D01*
X858156Y671361D01*
X858304Y670768D01*
X858416Y670472D01*
X858527Y670157D01*
X858675Y669861D01*
X858841Y669565D01*
X859026Y669287D01*
X859249Y669027D01*
X859267Y669009D01*
X859304Y668972D01*
X859378Y668898D01*
X859471Y668824D01*
X859601Y668713D01*
X859749Y668602D01*
X859915Y668491D01*
X860100Y668361D01*
X860323Y668231D01*
X860563Y668120D01*
X860823Y668009D01*
X861100Y667898D01*
X861397Y667824D01*
X861693Y667750D01*
X862026Y667713D01*
X862378Y667694D01*
X862471D01*
X862563Y667713D01*
X862693D01*
X862859Y667731D01*
X863045Y667768D01*
X863267Y667805D01*
X863489Y667861D01*
X863748Y667935D01*
X863989Y668028D01*
X864267Y668120D01*
X864526Y668250D01*
X864785Y668416D01*
X865044Y668583D01*
X865304Y668787D01*
X865544Y669027D01*
X865563Y669046D01*
X865600Y669083D01*
X865655Y669176D01*
X865748Y669287D01*
X865841Y669416D01*
X865933Y669583D01*
X866044Y669787D01*
X866174Y670009D01*
X866285Y670268D01*
X866396Y670564D01*
X866489Y670879D01*
X866600Y671212D01*
X866674Y671583D01*
X866729Y671990D01*
X866766Y672416D01*
X866785Y672860D01*
Y672879D01*
Y672934D01*
Y673009D01*
Y673120D01*
X866766Y673249D01*
Y673416D01*
X866748Y673583D01*
X866711Y673786D01*
X866655Y674212D01*
X866563Y674657D01*
X866433Y675138D01*
X866248Y675582D01*
Y675601D01*
X866229Y675638D01*
X866192Y675694D01*
X866155Y675768D01*
X866026Y675990D01*
X865859Y676249D01*
X865637Y676545D01*
X865359Y676842D01*
X865044Y677138D01*
X864693Y677397D01*
X864674D01*
X864656Y677434D01*
X864600Y677452D01*
X864507Y677508D01*
X864415Y677545D01*
X864304Y677601D01*
X864026Y677730D01*
X863693Y677841D01*
X863304Y677952D01*
X862859Y678027D01*
X862396Y678045D01*
D02*
G37*
G36*
X866629Y739073D02*
X866444D01*
X866314Y739054D01*
X866148Y739036D01*
X865962Y738999D01*
X865759Y738962D01*
X865536Y738906D01*
X865277Y738832D01*
X865037Y738758D01*
X864777Y738647D01*
X864500Y738517D01*
X864240Y738369D01*
X863981Y738184D01*
X863722Y737999D01*
X863481Y737758D01*
X863463Y737740D01*
X863426Y737702D01*
X863370Y737628D01*
X863296Y737517D01*
X863185Y737388D01*
X863092Y737221D01*
X862981Y737017D01*
X862870Y736795D01*
X862740Y736536D01*
X862629Y736240D01*
X862537Y735925D01*
X862444Y735573D01*
X862352Y735203D01*
X862296Y734795D01*
X862259Y734351D01*
X862241Y733888D01*
Y733851D01*
Y733777D01*
Y733647D01*
X862259Y733481D01*
X862278Y733277D01*
X862315Y733036D01*
X862352Y732759D01*
X862389Y732481D01*
X862537Y731851D01*
X862629Y731536D01*
X862759Y731222D01*
X862889Y730907D01*
X863055Y730611D01*
X863241Y730314D01*
X863463Y730055D01*
X863481Y730037D01*
X863518Y730000D01*
X863592Y729926D01*
X863685Y729852D01*
X863814Y729740D01*
X863963Y729629D01*
X864129Y729518D01*
X864333Y729389D01*
X864537Y729259D01*
X864777Y729148D01*
X865037Y729037D01*
X865314Y728926D01*
X865629Y728852D01*
X865944Y728777D01*
X866277Y728740D01*
X866629Y728722D01*
X866796D01*
X866962Y728740D01*
X867185Y728759D01*
X867462Y728796D01*
X867740Y728870D01*
X868055Y728944D01*
X868351Y729055D01*
X868314Y729074D01*
X868221Y729148D01*
X868055Y729240D01*
X867851Y729352D01*
X867592Y729463D01*
X867314Y729592D01*
X866999Y729703D01*
X866666Y729796D01*
X867092Y731018D01*
X867110D01*
X867166Y731000D01*
X867240Y730981D01*
X867333Y730944D01*
X867462Y730907D01*
X867610Y730851D01*
X867944Y730722D01*
X868333Y730537D01*
X868740Y730333D01*
X869129Y730092D01*
X869518Y729796D01*
X869536Y729815D01*
X869592Y729852D01*
X869666Y729944D01*
X869758Y730055D01*
X869869Y730203D01*
X869999Y730370D01*
X870129Y730574D01*
X870277Y730814D01*
X870406Y731092D01*
X870536Y731407D01*
X870666Y731740D01*
X870777Y732092D01*
X870888Y732499D01*
X870962Y732925D01*
X870999Y733388D01*
X871017Y733888D01*
Y733907D01*
Y733962D01*
Y734036D01*
Y734147D01*
X870999Y734296D01*
Y734444D01*
X870980Y734629D01*
X870943Y734814D01*
X870888Y735240D01*
X870795Y735703D01*
X870666Y736166D01*
X870480Y736610D01*
Y736629D01*
X870462Y736666D01*
X870425Y736721D01*
X870388Y736795D01*
X870258Y737017D01*
X870092Y737277D01*
X869869Y737573D01*
X869592Y737869D01*
X869277Y738166D01*
X868925Y738425D01*
X868906D01*
X868888Y738462D01*
X868832Y738480D01*
X868740Y738536D01*
X868647Y738573D01*
X868536Y738628D01*
X868259Y738758D01*
X867925Y738869D01*
X867536Y738980D01*
X867092Y739054D01*
X866629Y739073D01*
D02*
G37*
G36*
X860240Y705888D02*
X856204D01*
Y701647D01*
X860018D01*
X860240Y701666D01*
X860499Y701684D01*
X860796Y701703D01*
X861092Y701740D01*
X861388Y701796D01*
X861647Y701870D01*
X861684Y701888D01*
X861758Y701925D01*
X861870Y701981D01*
X862018Y702055D01*
X862184Y702166D01*
X862351Y702296D01*
X862518Y702462D01*
X862647Y702647D01*
X862666Y702666D01*
X862703Y702740D01*
X862758Y702851D01*
X862832Y702999D01*
X862888Y703166D01*
X862944Y703351D01*
X862981Y703573D01*
X862999Y703795D01*
Y703814D01*
Y703832D01*
X862981Y703943D01*
X862962Y704110D01*
X862925Y704332D01*
X862832Y704555D01*
X862721Y704814D01*
X862555Y705054D01*
X862333Y705295D01*
X862296Y705314D01*
X862203Y705388D01*
X862055Y705480D01*
X861814Y705592D01*
X861536Y705703D01*
X861166Y705795D01*
X860740Y705869D01*
X860240Y705888D01*
D02*
G37*
%LPD*%
D10*
X844000Y690000D02*
G03*
X844000Y690000I-34000J0D01*
G01*
Y150000D02*
G03*
X844000Y150000I-34000J0D01*
G01*
X184000D02*
G03*
X184000Y150000I-34000J0D01*
G01*
Y690000D02*
G03*
X184000Y690000I-34000J0D01*
G01*
X142780Y538330D02*
X170720D01*
X142780D02*
Y591670D01*
X170720D01*
Y538330D02*
Y591670D01*
X465470Y534780D02*
Y562720D01*
X412130Y534780D02*
X465470D01*
X412130D02*
Y562720D01*
X465470D01*
X889360Y202900D02*
Y317100D01*
X884360Y306970D02*
X889360D01*
X884360Y289190D02*
Y306970D01*
Y289190D02*
X889360D01*
X884360Y268870D02*
X889360D01*
X884360Y251090D02*
Y268870D01*
Y251090D02*
X889360D01*
X884360Y230770D02*
X889360D01*
X884360Y212990D02*
Y230770D01*
Y212990D02*
X889360D01*
X819360Y202900D02*
Y317100D01*
Y202900D02*
X889360D01*
X819360Y317100D02*
X888730D01*
X956000Y607500D02*
Y635500D01*
X768500Y607500D02*
X956000D01*
X768500Y635500D02*
X956000D01*
X768500Y607500D02*
Y635500D01*
X956000Y684875D02*
Y704125D01*
X849750Y684750D02*
X956000D01*
Y704125D02*
Y715750D01*
X849750D02*
X956000D01*
X849750Y684750D02*
Y715750D01*
X207900Y800460D02*
X322100D01*
X218030Y795460D02*
Y800460D01*
Y795460D02*
X235810D01*
Y800460D01*
X256130Y795460D02*
Y800460D01*
Y795460D02*
X273910D01*
Y800460D01*
X294230Y795460D02*
Y800460D01*
Y795460D02*
X312010D01*
Y800460D01*
X207900Y730460D02*
X322100D01*
Y800460D01*
X207900Y730460D02*
Y799830D01*
X369570Y731520D02*
X422910D01*
X369570Y835660D02*
X422910D01*
Y731520D02*
Y835660D01*
X369570Y731520D02*
Y835660D01*
X369740Y835590D02*
X369990D01*
X367990Y837340D02*
X369740Y835590D01*
X805900Y376430D02*
Y408430D01*
X895900Y376430D02*
Y408430D01*
X305630Y304530D02*
Y332470D01*
X358970D01*
Y304530D02*
Y332470D01*
X305630Y304530D02*
X358970D01*
X54493Y82750D02*
X92211Y45033D01*
X111967Y64790D01*
X74250Y102507D02*
X111967Y64790D01*
X54493Y82750D02*
X74250Y102507D01*
X464500Y737750D02*
Y755000D01*
X432000D02*
X464500D01*
X521500Y763750D02*
Y781000D01*
X554000Y763750D02*
Y781000D01*
X521500D02*
X554000D01*
X521500Y763750D02*
X554000D01*
X521500Y815250D02*
Y832500D01*
X554000Y815250D02*
Y832500D01*
X521500D02*
X554000D01*
X521500Y815250D02*
X554000D01*
X477154Y763875D02*
Y781125D01*
X509654Y763875D02*
Y781125D01*
X477154D02*
X509654D01*
X477154Y763875D02*
X509654D01*
X477404Y815125D02*
Y832375D01*
X509904Y815125D02*
Y832375D01*
X477404D02*
X509904D01*
X477404Y815125D02*
X509904D01*
X432000Y737750D02*
Y755000D01*
Y737750D02*
X464500D01*
X34630Y556900D02*
X104000D01*
X34000Y671100D02*
X104000D01*
Y556900D02*
Y671100D01*
X34000Y661010D02*
X39000D01*
Y643230D02*
Y661010D01*
X34000Y643230D02*
X39000D01*
X34000Y622910D02*
X39000D01*
Y605130D02*
Y622910D01*
X34000Y605130D02*
X39000D01*
X34000Y584810D02*
X39000D01*
Y567030D02*
Y584810D01*
X34000Y567030D02*
X39000D01*
X34000Y556900D02*
Y671100D01*
X267100Y593600D02*
Y625600D01*
X317100Y593600D02*
Y625600D01*
X267100Y593600D02*
X317100D01*
X267100Y625600D02*
X317100D01*
X833800Y735650D02*
Y740650D01*
Y770650D02*
Y775650D01*
X840800Y735650D02*
Y740650D01*
X784800Y735650D02*
Y740650D01*
X840800Y770650D02*
Y775650D01*
X784800Y770650D02*
Y775650D01*
Y735650D02*
X840800D01*
X784800Y775650D02*
X840800D01*
X188720Y25280D02*
Y53220D01*
X135380Y25280D02*
X188720D01*
X135380D02*
Y53220D01*
X188720D01*
X402780Y646920D02*
X430720D01*
Y593580D02*
Y646920D01*
X402780Y593580D02*
X430720D01*
X402780D02*
Y646920D01*
X41023Y742769D02*
X60780Y723013D01*
X41023Y742769D02*
X96700Y798447D01*
X116457Y778690D01*
X60780Y723013D02*
X116457Y778690D01*
X222790Y23740D02*
X752590D01*
X222790D02*
Y269640D01*
X752590D01*
Y23740D02*
Y269640D01*
X572180Y730460D02*
Y800460D01*
X657180Y730460D02*
Y800460D01*
X572180Y730460D02*
X657180D01*
X633768Y800460D02*
X657180D01*
X572180D02*
X595692D01*
X633768D01*
X586785Y795460D02*
Y800460D01*
Y795460D02*
X604565D01*
Y800460D01*
X624885Y795460D02*
Y800460D01*
Y795460D02*
X642665D01*
Y800460D01*
X678860Y730460D02*
Y800460D01*
X763860Y730460D02*
Y800460D01*
X678860Y730460D02*
X763860D01*
X740447Y800460D02*
X763860D01*
X678860D02*
X702373D01*
X740447D01*
X693465Y795460D02*
Y800460D01*
Y795460D02*
X711245D01*
Y800460D01*
X731565Y795460D02*
Y800460D01*
Y795460D02*
X749345D01*
Y800460D01*
X590168Y691332D02*
X588502Y692998D01*
X585170D01*
X583504Y691332D01*
Y684668D01*
X585170Y683002D01*
X588502D01*
X590168Y684668D01*
X593501Y683002D02*
X596833D01*
X595167D01*
Y692998D01*
X593501Y691332D01*
X608496Y692998D02*
X605164Y691332D01*
X601832Y688000D01*
Y684668D01*
X603498Y683002D01*
X606830D01*
X608496Y684668D01*
Y686334D01*
X606830Y688000D01*
X601832D01*
X560834Y579918D02*
Y586582D01*
X559168Y588248D01*
X555835D01*
X554169Y586582D01*
Y579918D01*
X555835Y578252D01*
X559168D01*
X557502Y581584D02*
X560834Y578252D01*
X559168D02*
X560834Y579918D01*
X564166Y586582D02*
X565832Y588248D01*
X569165D01*
X570831Y586582D01*
Y584916D01*
X569165Y583250D01*
X567498D01*
X569165D01*
X570831Y581584D01*
Y579918D01*
X569165Y578252D01*
X565832D01*
X564166Y579918D01*
X782169Y424248D02*
Y415918D01*
X783836Y414252D01*
X787168D01*
X788834Y415918D01*
Y424248D01*
X798831Y414252D02*
X792166D01*
X798831Y420916D01*
Y422582D01*
X797165Y424248D01*
X793832D01*
X792166Y422582D01*
X447334Y645748D02*
X444002D01*
X445668D01*
Y637418D01*
X444002Y635752D01*
X442336D01*
X440669Y637418D01*
X457331Y645748D02*
X450666D01*
Y640750D01*
X453998Y642416D01*
X455664D01*
X457331Y640750D01*
Y637418D01*
X455664Y635752D01*
X452332D01*
X450666Y637418D01*
X110106Y45212D02*
X107750Y47569D01*
X108928Y46391D01*
X103038Y40500D01*
X100681D01*
X99503Y41678D01*
Y44034D01*
X111284Y41678D02*
X113641D01*
X115997Y39322D01*
X115997Y36966D01*
X114819Y35787D01*
X112463D01*
X111284Y36966D01*
X112463Y35787D01*
X112463Y33431D01*
X111284Y32253D01*
X108928D01*
X106572Y34609D01*
Y36966D01*
X19584Y179582D02*
X17918Y181248D01*
X14585D01*
X12919Y179582D01*
Y172918D01*
X14585Y171252D01*
X17918D01*
X19584Y172918D01*
X22916Y179582D02*
X24582Y181248D01*
X27915D01*
X29581Y179582D01*
Y177916D01*
X27915Y176250D01*
X26248D01*
X27915D01*
X29581Y174584D01*
Y172918D01*
X27915Y171252D01*
X24582D01*
X22916Y172918D01*
D11*
X805050Y365180D02*
G03*
X805050Y365180I-1250J0D01*
G01*
X320900Y636850D02*
G03*
X320900Y636850I-1250J0D01*
G01*
X267250Y324246D02*
Y311750D01*
X273498D01*
X275581Y313833D01*
Y322163D01*
X273498Y324246D01*
X267250D01*
X279746D02*
X288077D01*
X283911D01*
Y311750D01*
X292242Y324246D02*
X300572Y311750D01*
Y324246D02*
X292242Y311750D01*
X364500Y324746D02*
Y312250D01*
X370748D01*
X372831Y314333D01*
Y322663D01*
X370748Y324746D01*
X364500D01*
X376996Y312250D02*
Y324746D01*
X383244D01*
X385327Y322663D01*
Y318498D01*
X383244Y316415D01*
X376996D01*
X381161D02*
X385327Y312250D01*
X389492Y324746D02*
X397822Y312250D01*
Y324746D02*
X389492Y312250D01*
X339282Y751996D02*
X335116D01*
X337199D01*
Y741583D01*
X335116Y739500D01*
X333033D01*
X330951Y741583D01*
X351777Y739500D02*
X343447D01*
X351777Y747831D01*
Y749913D01*
X349695Y751996D01*
X345530D01*
X343447Y749913D01*
X355943Y751996D02*
Y739500D01*
X362191D01*
X364273Y741583D01*
Y749913D01*
X362191Y751996D01*
X355943D01*
X339282Y777246D02*
X335116D01*
X337199D01*
Y766833D01*
X335116Y764750D01*
X333033D01*
X330951Y766833D01*
X351777Y764750D02*
X343447D01*
X351777Y773081D01*
Y775163D01*
X349695Y777246D01*
X345530D01*
X343447Y775163D01*
X364273D02*
X362191Y777246D01*
X358025D01*
X355943Y775163D01*
Y766833D01*
X358025Y764750D01*
X362191D01*
X364273Y766833D01*
X339282Y803956D02*
X335116D01*
X337199D01*
Y793542D01*
X335116Y791460D01*
X333033D01*
X330951Y793542D01*
X351777Y791460D02*
X343447D01*
X351777Y799790D01*
Y801873D01*
X349695Y803956D01*
X345530D01*
X343447Y801873D01*
X355943Y803956D02*
Y791460D01*
X362191D01*
X364273Y793542D01*
Y795625D01*
X362191Y797708D01*
X355943D01*
X362191D01*
X364273Y799790D01*
Y801873D01*
X362191Y803956D01*
X355943D01*
X339282Y827956D02*
X335116D01*
X337199D01*
Y817542D01*
X335116Y815460D01*
X333033D01*
X330951Y817542D01*
X351777Y815460D02*
X343447D01*
X351777Y823791D01*
Y825873D01*
X349695Y827956D01*
X345530D01*
X343447Y825873D01*
X355943Y815460D02*
Y823791D01*
X360108Y827956D01*
X364273Y823791D01*
Y815460D01*
Y821708D01*
X355943D01*
X27637Y716399D02*
X27637Y719344D01*
X30582Y722290D01*
X33527D01*
X35000Y720817D01*
Y717871D01*
X33527Y716399D01*
X35000Y717871D01*
X37945Y717871D01*
X39418Y716399D01*
X39418Y713454D01*
X36473Y710508D01*
X33527D01*
X35000Y726708D02*
X40891Y720817D01*
X46781D01*
Y726708D01*
X40891Y732598D01*
X112277Y802539D02*
X109332D01*
X106387Y799594D01*
X106387Y796649D01*
X112277Y790758D01*
X115223D01*
X118168Y793704D01*
X118168Y796649D01*
X115223Y799594D01*
X112277Y796649D01*
X122586Y798121D02*
X113750Y806957D01*
X128477Y804012D01*
X119641Y812848D01*
X122586Y815793D02*
X131422Y806957D01*
X135840Y811375D01*
Y814321D01*
X129949Y820211D01*
X127004D01*
X122586Y815793D01*
X92500Y386746D02*
X100831D01*
Y384663D01*
X92500Y376333D01*
Y374250D01*
X89500Y452750D02*
X93665D01*
X91583D01*
Y465246D01*
X89500Y463163D01*
X99913D02*
X101996Y465246D01*
X106161D01*
X108244Y463163D01*
Y461081D01*
X106161Y458998D01*
X104079D01*
X106161D01*
X108244Y456915D01*
Y454833D01*
X106161Y452750D01*
X101996D01*
X99913Y454833D01*
X90500Y529750D02*
X94665D01*
X92583D01*
Y542246D01*
X90500Y540163D01*
X100913Y531833D02*
X102996Y529750D01*
X107161D01*
X109244Y531833D01*
Y540163D01*
X107161Y542246D01*
X102996D01*
X100913Y540163D01*
Y538081D01*
X102996Y535998D01*
X109244D01*
X89500Y504500D02*
X93665D01*
X91583D01*
Y516996D01*
X89500Y514913D01*
X99913Y516996D02*
X108244D01*
Y514913D01*
X99913Y506583D01*
Y504500D01*
X89500Y478000D02*
X93665D01*
X91583D01*
Y490496D01*
X89500Y488413D01*
X108244Y490496D02*
X99913D01*
Y484248D01*
X104079Y486331D01*
X106161D01*
X108244Y484248D01*
Y480083D01*
X106161Y478000D01*
X101996D01*
X99913Y480083D01*
X89500Y427000D02*
X93665D01*
X91583D01*
Y439496D01*
X89500Y437413D01*
X99913Y427000D02*
X104079D01*
X101996D01*
Y439496D01*
X99913Y437413D01*
X91250Y404833D02*
X93333Y402750D01*
X97498D01*
X99581Y404833D01*
Y413163D01*
X97498Y415246D01*
X93333D01*
X91250Y413163D01*
Y411081D01*
X93333Y408998D01*
X99581D01*
Y361996D02*
X91250D01*
Y355748D01*
X95415Y357831D01*
X97498D01*
X99581Y355748D01*
Y351583D01*
X97498Y349500D01*
X93333D01*
X91250Y351583D01*
Y335413D02*
X93333Y337496D01*
X97498D01*
X99581Y335413D01*
Y333331D01*
X97498Y331248D01*
X95415D01*
X97498D01*
X99581Y329165D01*
Y327083D01*
X97498Y325000D01*
X93333D01*
X91250Y327083D01*
X92000Y299250D02*
X96165D01*
X94083D01*
Y311746D01*
X92000Y309663D01*
X30831Y299500D02*
X22500D01*
X30831Y307831D01*
Y309913D01*
X28748Y311996D01*
X24583D01*
X22500Y309913D01*
X28748Y324250D02*
Y336746D01*
X22500Y330498D01*
X30831D01*
Y362496D02*
X26665Y360413D01*
X22500Y356248D01*
Y352083D01*
X24583Y350000D01*
X28748D01*
X30831Y352083D01*
Y354165D01*
X28748Y356248D01*
X22500D01*
X12500Y402750D02*
X16665D01*
X14583D01*
Y415246D01*
X12500Y413163D01*
X22913D02*
X24996Y415246D01*
X29161D01*
X31244Y413163D01*
Y404833D01*
X29161Y402750D01*
X24996D01*
X22913Y404833D01*
Y413163D01*
X12500Y427000D02*
X16665D01*
X14583D01*
Y439496D01*
X12500Y437413D01*
X31244Y427000D02*
X22913D01*
X31244Y435331D01*
Y437413D01*
X29161Y439496D01*
X24996D01*
X22913Y437413D01*
X12500Y478000D02*
X16665D01*
X14583D01*
Y490496D01*
X12500Y488413D01*
X31244Y490496D02*
X27079Y488413D01*
X22913Y484248D01*
Y480083D01*
X24996Y478000D01*
X29161D01*
X31244Y480083D01*
Y482165D01*
X29161Y484248D01*
X22913D01*
X12500Y504500D02*
X16665D01*
X14583D01*
Y516996D01*
X12500Y514913D01*
X22913D02*
X24996Y516996D01*
X29161D01*
X31244Y514913D01*
Y512831D01*
X29161Y510748D01*
X31244Y508665D01*
Y506583D01*
X29161Y504500D01*
X24996D01*
X22913Y506583D01*
Y508665D01*
X24996Y510748D01*
X22913Y512831D01*
Y514913D01*
X24996Y510748D02*
X29161D01*
X18831Y529750D02*
X10500D01*
X18831Y538081D01*
Y540163D01*
X16748Y542246D01*
X12583D01*
X10500Y540163D01*
X22996D02*
X25079Y542246D01*
X29244D01*
X31327Y540163D01*
Y531833D01*
X29244Y529750D01*
X25079D01*
X22996Y531833D01*
Y540163D01*
X12500Y452750D02*
X16665D01*
X14583D01*
Y465246D01*
X12500Y463163D01*
X29161Y452750D02*
Y465246D01*
X22913Y458998D01*
X31244D01*
X22500Y389663D02*
X24583Y391746D01*
X28748D01*
X30831Y389663D01*
Y387581D01*
X28748Y385498D01*
X30831Y383415D01*
Y381333D01*
X28748Y379250D01*
X24583D01*
X22500Y381333D01*
Y383415D01*
X24583Y385498D01*
X22500Y387581D01*
Y389663D01*
X24583Y385498D02*
X28748D01*
X434500Y715000D02*
Y727496D01*
X440748D01*
X442831Y725413D01*
Y721248D01*
X440748Y719165D01*
X434500D01*
X446996Y727496D02*
Y717083D01*
X449079Y715000D01*
X453244D01*
X455327Y717083D01*
Y727496D01*
X484484Y715000D02*
Y727496D01*
X490732D01*
X492814Y725413D01*
Y721248D01*
X490732Y719165D01*
X484484D01*
X488649D02*
X492814Y715000D01*
X505310Y725413D02*
X503228Y727496D01*
X499062D01*
X496980Y725413D01*
Y723331D01*
X499062Y721248D01*
X503228D01*
X505310Y719165D01*
Y717083D01*
X503228Y715000D01*
X499062D01*
X496980Y717083D01*
X534468Y727496D02*
Y715000D01*
Y721248D01*
X542798D01*
Y727496D01*
Y715000D01*
X546964Y727496D02*
Y715000D01*
X555294D01*
X324002Y296415D02*
X321919Y298498D01*
X317754D01*
X315671Y296415D01*
Y288085D01*
X317754Y286002D01*
X321919D01*
X324002Y288085D01*
X328167Y286002D02*
Y298498D01*
X336498Y286002D01*
Y298498D01*
X340663Y286002D02*
X344829D01*
X342746D01*
Y298498D01*
X340663Y296415D01*
X333681Y454998D02*
X325351D01*
Y442502D01*
X333681D01*
X325351Y448750D02*
X329516D01*
X337847Y442502D02*
Y454998D01*
X342012Y450833D01*
X346177Y454998D01*
Y442502D01*
X358673Y452915D02*
X356591Y454998D01*
X352425D01*
X350343Y452915D01*
Y444585D01*
X352425Y442502D01*
X356591D01*
X358673Y444585D01*
X362839Y452915D02*
X364921Y454998D01*
X369087D01*
X371169Y452915D01*
Y450833D01*
X369087Y448750D01*
X367004D01*
X369087D01*
X371169Y446667D01*
Y444585D01*
X369087Y442502D01*
X364921D01*
X362839Y444585D01*
X375335Y452915D02*
X377417Y454998D01*
X381583D01*
X383665Y452915D01*
Y444585D01*
X381583Y442502D01*
X377417D01*
X375335Y444585D01*
Y452915D01*
X387831D02*
X389913Y454998D01*
X394079D01*
X396161Y452915D01*
Y450833D01*
X394079Y448750D01*
X396161Y446667D01*
Y444585D01*
X394079Y442502D01*
X389913D01*
X387831Y444585D01*
Y446667D01*
X389913Y448750D01*
X387831Y450833D01*
Y452915D01*
X389913Y448750D02*
X394079D01*
X400327Y452915D02*
X402409Y454998D01*
X406575D01*
X408657Y452915D01*
Y444585D01*
X406575Y442502D01*
X402409D01*
X400327Y444585D01*
Y452915D01*
X412823Y448750D02*
X421153D01*
X425318Y442502D02*
Y454998D01*
X431567D01*
X433649Y452915D01*
Y448750D01*
X431567Y446667D01*
X425318D01*
X610752Y310915D02*
X608669Y312998D01*
X604504D01*
X602421Y310915D01*
Y302585D01*
X604504Y300502D01*
X608669D01*
X610752Y302585D01*
X623248Y300502D02*
X614917D01*
X623248Y308833D01*
Y310915D01*
X621165Y312998D01*
X617000D01*
X614917Y310915D01*
X627413Y300502D02*
X631579D01*
X629496D01*
Y312998D01*
X627413Y310915D01*
X64669Y269915D02*
X62587Y271998D01*
X58421D01*
X56339Y269915D01*
Y261585D01*
X58421Y259502D01*
X62587D01*
X64669Y261585D01*
X77165Y259502D02*
X68835D01*
X77165Y267833D01*
Y269915D01*
X75083Y271998D01*
X70917D01*
X68835Y269915D01*
X81331D02*
X83413Y271998D01*
X87579D01*
X89661Y269915D01*
Y261585D01*
X87579Y259502D01*
X83413D01*
X81331Y261585D01*
Y269915D01*
X132665Y416289D02*
X134748Y418372D01*
Y422537D01*
X132665Y424620D01*
X124335D01*
X122252Y422537D01*
Y418372D01*
X124335Y416289D01*
X122252Y412124D02*
Y407959D01*
Y410041D01*
X134748D01*
X132665Y412124D01*
Y401711D02*
X134748Y399628D01*
Y395463D01*
X132665Y393380D01*
X130583D01*
X128500Y395463D01*
X126417Y393380D01*
X124335D01*
X122252Y395463D01*
Y399628D01*
X124335Y401711D01*
X126417D01*
X128500Y399628D01*
X130583Y401711D01*
X132665D01*
X128500Y399628D02*
Y395463D01*
X155665Y415789D02*
X157748Y417872D01*
Y422037D01*
X155665Y424120D01*
X147335D01*
X145252Y422037D01*
Y417872D01*
X147335Y415789D01*
X145252Y411624D02*
Y407459D01*
Y409541D01*
X157748D01*
X155665Y411624D01*
Y401211D02*
X157748Y399128D01*
Y394963D01*
X155665Y392880D01*
X153583D01*
X151500Y394963D01*
Y397045D01*
Y394963D01*
X149417Y392880D01*
X147335D01*
X145252Y394963D01*
Y399128D01*
X147335Y401211D01*
X218361Y330075D02*
X216278Y332158D01*
X212113D01*
X210030Y330075D01*
Y321745D01*
X212113Y319662D01*
X216278D01*
X218361Y321745D01*
X222526Y319662D02*
X226691D01*
X224609D01*
Y332158D01*
X222526Y330075D01*
X232939Y332158D02*
X241270D01*
Y330075D01*
X232939Y321745D01*
Y319662D01*
X609711Y333665D02*
X607628Y335748D01*
X603463D01*
X601380Y333665D01*
Y325335D01*
X603463Y323252D01*
X607628D01*
X609711Y325335D01*
X613876Y323252D02*
X618041D01*
X615959D01*
Y335748D01*
X613876Y333665D01*
X632620Y335748D02*
X624289D01*
Y329500D01*
X628455Y331583D01*
X630537D01*
X632620Y329500D01*
Y325335D01*
X630537Y323252D01*
X626372D01*
X624289Y325335D01*
X64721Y223305D02*
X62638Y225388D01*
X58473D01*
X56390Y223305D01*
Y214975D01*
X58473Y212892D01*
X62638D01*
X64721Y214975D01*
X68886Y212892D02*
X73051D01*
X70969D01*
Y225388D01*
X68886Y223305D01*
X85547Y212892D02*
Y225388D01*
X79299Y219140D01*
X87630D01*
X333252Y724120D02*
X345748D01*
Y717872D01*
X343665Y715789D01*
X339500D01*
X337417Y717872D01*
Y724120D01*
Y719955D02*
X333252Y715789D01*
Y711624D02*
Y707459D01*
Y709541D01*
X345748D01*
X343665Y711624D01*
Y701211D02*
X345748Y699128D01*
Y694963D01*
X343665Y692880D01*
X341583D01*
X339500Y694963D01*
Y697045D01*
Y694963D01*
X337417Y692880D01*
X335335D01*
X333252Y694963D01*
Y699128D01*
X335335Y701211D01*
X80087Y171752D02*
Y184248D01*
X86335D01*
X88417Y182165D01*
Y178000D01*
X86335Y175917D01*
X80087D01*
X84252D02*
X88417Y171752D01*
X100913D02*
X92583D01*
X100913Y180083D01*
Y182165D01*
X98831Y184248D01*
X94665D01*
X92583Y182165D01*
X114169Y284252D02*
Y296748D01*
X120417D01*
X122500Y294665D01*
Y290500D01*
X120417Y288417D01*
X114169D01*
X118335D02*
X122500Y284252D01*
X126665D02*
X130831D01*
X128748D01*
Y296748D01*
X126665Y294665D01*
X186337Y583498D02*
Y571002D01*
X192585D01*
X194667Y573085D01*
Y581415D01*
X192585Y583498D01*
X186337D01*
X198833Y581415D02*
X200915Y583498D01*
X205081D01*
X207163Y581415D01*
Y579333D01*
X205081Y577250D01*
X202998D01*
X205081D01*
X207163Y575167D01*
Y573085D01*
X205081Y571002D01*
X200915D01*
X198833Y573085D01*
X104250Y750998D02*
X100085D01*
X102167D01*
Y740585D01*
X100085Y738502D01*
X98002D01*
X95919Y740585D01*
X108415Y738502D02*
X112581D01*
X110498D01*
Y750998D01*
X108415Y748915D01*
X157417Y75248D02*
X153252D01*
X155335D01*
Y64835D01*
X153252Y62752D01*
X151169D01*
X149087Y64835D01*
X167831Y62752D02*
Y75248D01*
X161583Y69000D01*
X169913D01*
X641671Y583002D02*
Y595498D01*
X647919D01*
X650002Y593415D01*
Y589250D01*
X647919Y587167D01*
X641671D01*
X645837D02*
X650002Y583002D01*
X654167Y593415D02*
X656250Y595498D01*
X660415D01*
X662498Y593415D01*
Y591333D01*
X660415Y589250D01*
X658333D01*
X660415D01*
X662498Y587167D01*
Y585085D01*
X660415Y583002D01*
X656250D01*
X654167Y585085D01*
X666663Y583002D02*
X670829D01*
X668746D01*
Y595498D01*
X666663Y593415D01*
X646002Y716661D02*
X658498D01*
Y710413D01*
X656415Y708331D01*
X652250D01*
X650167Y710413D01*
Y716661D01*
Y712496D02*
X646002Y708331D01*
Y695835D02*
Y704165D01*
X654333Y695835D01*
X656415D01*
X658498Y697917D01*
Y702083D01*
X656415Y704165D01*
Y691669D02*
X658498Y689587D01*
Y685421D01*
X656415Y683339D01*
X654333D01*
X652250Y685421D01*
X650167Y683339D01*
X648085D01*
X646002Y685421D01*
Y689587D01*
X648085Y691669D01*
X650167D01*
X652250Y689587D01*
X654333Y691669D01*
X656415D01*
X652250Y689587D02*
Y685421D01*
X820089Y810002D02*
Y822498D01*
X826337D01*
X828419Y820415D01*
Y816250D01*
X826337Y814167D01*
X820089D01*
X824254D02*
X828419Y810002D01*
X840915D02*
X832585D01*
X840915Y818333D01*
Y820415D01*
X838833Y822498D01*
X834667D01*
X832585Y820415D01*
X853411Y822498D02*
X849246Y820415D01*
X845081Y816250D01*
Y812085D01*
X847163Y810002D01*
X851329D01*
X853411Y812085D01*
Y814167D01*
X851329Y816250D01*
X845081D01*
X624252Y717411D02*
X636748D01*
Y711163D01*
X634665Y709081D01*
X630500D01*
X628417Y711163D01*
Y717411D01*
Y713246D02*
X624252Y709081D01*
Y696585D02*
Y704915D01*
X632583Y696585D01*
X634665D01*
X636748Y698667D01*
Y702833D01*
X634665Y704915D01*
X626335Y692419D02*
X624252Y690337D01*
Y686171D01*
X626335Y684089D01*
X634665D01*
X636748Y686171D01*
Y690337D01*
X634665Y692419D01*
X632583D01*
X630500Y690337D01*
Y684089D01*
X665252Y716411D02*
X677748D01*
Y710163D01*
X675665Y708081D01*
X671500D01*
X669417Y710163D01*
Y716411D01*
Y712246D02*
X665252Y708081D01*
Y695585D02*
Y703915D01*
X673583Y695585D01*
X675665D01*
X677748Y697667D01*
Y701833D01*
X675665Y703915D01*
X677748Y691419D02*
Y683089D01*
X675665D01*
X667335Y691419D01*
X665252D01*
X641089Y608252D02*
Y620748D01*
X647337D01*
X649419Y618665D01*
Y614500D01*
X647337Y612417D01*
X641089D01*
X645254D02*
X649419Y608252D01*
X653585Y618665D02*
X655667Y620748D01*
X659833D01*
X661915Y618665D01*
Y616583D01*
X659833Y614500D01*
X657750D01*
X659833D01*
X661915Y612417D01*
Y610335D01*
X659833Y608252D01*
X655667D01*
X653585Y610335D01*
X666081Y618665D02*
X668163Y620748D01*
X672329D01*
X674411Y618665D01*
Y610335D01*
X672329Y608252D01*
X668163D01*
X666081Y610335D01*
Y618665D01*
X693417Y626085D02*
Y634415D01*
X691335Y636498D01*
X687169D01*
X685087Y634415D01*
Y626085D01*
X687169Y624002D01*
X691335D01*
X689252Y628167D02*
X693417Y624002D01*
X691335D02*
X693417Y626085D01*
X705913Y624002D02*
X697583D01*
X705913Y632333D01*
Y634415D01*
X703831Y636498D01*
X699665D01*
X697583Y634415D01*
X790750Y823748D02*
X782419D01*
Y817500D01*
X786585D01*
X782419D01*
Y811252D01*
X794915D02*
X799081D01*
X796998D01*
Y823748D01*
X794915Y821665D01*
X855837Y775498D02*
Y763002D01*
X862085D01*
X864167Y765085D01*
Y773415D01*
X862085Y775498D01*
X855837D01*
X868333D02*
X876663D01*
Y773415D01*
X868333Y765085D01*
Y763002D01*
X737587Y636248D02*
Y623752D01*
X743835D01*
X745917Y625835D01*
Y634165D01*
X743835Y636248D01*
X737587D01*
X758413D02*
X754248Y634165D01*
X750083Y630000D01*
Y625835D01*
X752165Y623752D01*
X756331D01*
X758413Y625835D01*
Y627917D01*
X756331Y630000D01*
X750083D01*
X516337Y660248D02*
Y647752D01*
X522585D01*
X524667Y649835D01*
Y658165D01*
X522585Y660248D01*
X516337D01*
X537163D02*
X528833D01*
Y654000D01*
X532998Y656083D01*
X535081D01*
X537163Y654000D01*
Y649835D01*
X535081Y647752D01*
X530915D01*
X528833Y649835D01*
X246169Y608248D02*
Y597835D01*
X248252Y595752D01*
X252417D01*
X254500Y597835D01*
Y608248D01*
X258665Y595752D02*
X262831D01*
X260748D01*
Y608248D01*
X258665Y606165D01*
X809502Y521911D02*
X821998D01*
Y515663D01*
X819915Y513581D01*
X815750D01*
X813667Y515663D01*
Y521911D01*
Y517746D02*
X809502Y513581D01*
Y501085D02*
Y509415D01*
X817833Y501085D01*
X819915D01*
X821998Y503167D01*
Y507333D01*
X819915Y509415D01*
X821998Y488589D02*
Y496919D01*
X815750D01*
X817833Y492754D01*
Y490671D01*
X815750Y488589D01*
X811585D01*
X809502Y490671D01*
Y494837D01*
X811585Y496919D01*
X786502Y521911D02*
X798998D01*
Y515663D01*
X796915Y513581D01*
X792750D01*
X790667Y515663D01*
Y521911D01*
Y517746D02*
X786502Y513581D01*
Y501085D02*
Y509415D01*
X794833Y501085D01*
X796915D01*
X798998Y503167D01*
Y507333D01*
X796915Y509415D01*
X786502Y490671D02*
X798998D01*
X792750Y496919D01*
Y488589D01*
X881002Y521911D02*
X893498D01*
Y515663D01*
X891415Y513581D01*
X887250D01*
X885167Y515663D01*
Y521911D01*
Y517746D02*
X881002Y513581D01*
Y501085D02*
Y509415D01*
X889333Y501085D01*
X891415D01*
X893498Y503167D01*
Y507333D01*
X891415Y509415D01*
Y496919D02*
X893498Y494837D01*
Y490671D01*
X891415Y488589D01*
X889333D01*
X887250Y490671D01*
Y492754D01*
Y490671D01*
X885167Y488589D01*
X883085D01*
X881002Y490671D01*
Y494837D01*
X883085Y496919D01*
X856752Y521911D02*
X869248D01*
Y515663D01*
X867165Y513581D01*
X863000D01*
X860917Y515663D01*
Y521911D01*
Y517746D02*
X856752Y513581D01*
Y501085D02*
Y509415D01*
X865083Y501085D01*
X867165D01*
X869248Y503167D01*
Y507333D01*
X867165Y509415D01*
X856752Y488589D02*
Y496919D01*
X865083Y488589D01*
X867165D01*
X869248Y490671D01*
Y494837D01*
X867165Y496919D01*
X931502Y430079D02*
X943998D01*
Y423831D01*
X941915Y421748D01*
X937750D01*
X935667Y423831D01*
Y430079D01*
Y425913D02*
X931502Y421748D01*
Y409252D02*
Y417583D01*
X939833Y409252D01*
X941915D01*
X943998Y411335D01*
Y415500D01*
X941915Y417583D01*
X931502Y405087D02*
Y400921D01*
Y403004D01*
X943998D01*
X941915Y405087D01*
X711089Y283002D02*
Y295498D01*
X717337D01*
X719419Y293415D01*
Y289250D01*
X717337Y287167D01*
X711089D01*
X715254D02*
X719419Y283002D01*
X731915D02*
X723585D01*
X731915Y291333D01*
Y293415D01*
X729833Y295498D01*
X725667D01*
X723585Y293415D01*
X736081D02*
X738163Y295498D01*
X742329D01*
X744411Y293415D01*
Y285085D01*
X742329Y283002D01*
X738163D01*
X736081Y285085D01*
Y293415D01*
X931502Y389370D02*
X943998D01*
Y383122D01*
X941915Y381039D01*
X937750D01*
X935667Y383122D01*
Y389370D01*
Y385205D02*
X931502Y381039D01*
Y376874D02*
Y372709D01*
Y374791D01*
X943998D01*
X941915Y376874D01*
X933585Y366461D02*
X931502Y364378D01*
Y360213D01*
X933585Y358130D01*
X941915D01*
X943998Y360213D01*
Y364378D01*
X941915Y366461D01*
X939833D01*
X937750Y364378D01*
Y358130D01*
X773880Y237252D02*
Y249748D01*
X780128D01*
X782211Y247665D01*
Y243500D01*
X780128Y241417D01*
X773880D01*
X778045D02*
X782211Y237252D01*
X786376D02*
X790541D01*
X788459D01*
Y249748D01*
X786376Y247665D01*
X796789D02*
X798872Y249748D01*
X803037D01*
X805120Y247665D01*
Y245583D01*
X803037Y243500D01*
X805120Y241417D01*
Y239335D01*
X803037Y237252D01*
X798872D01*
X796789Y239335D01*
Y241417D01*
X798872Y243500D01*
X796789Y245583D01*
Y247665D01*
X798872Y243500D02*
X803037D01*
X722130Y360252D02*
Y372748D01*
X728378D01*
X730461Y370665D01*
Y366500D01*
X728378Y364417D01*
X722130D01*
X726295D02*
X730461Y360252D01*
X734626D02*
X738791D01*
X736709D01*
Y372748D01*
X734626Y370665D01*
X745039Y372748D02*
X753370D01*
Y370665D01*
X745039Y362335D01*
Y360252D01*
X721130Y385252D02*
Y397748D01*
X727378D01*
X729461Y395665D01*
Y391500D01*
X727378Y389417D01*
X721130D01*
X725295D02*
X729461Y385252D01*
X733626D02*
X737791D01*
X735709D01*
Y397748D01*
X733626Y395665D01*
X752370Y397748D02*
X748205Y395665D01*
X744039Y391500D01*
Y387335D01*
X746122Y385252D01*
X750287D01*
X752370Y387335D01*
Y389417D01*
X750287Y391500D01*
X744039D01*
X385252Y724120D02*
X397748D01*
Y717872D01*
X395665Y715789D01*
X391500D01*
X389417Y717872D01*
Y724120D01*
Y719955D02*
X385252Y715789D01*
Y711624D02*
Y707459D01*
Y709541D01*
X397748D01*
X395665Y711624D01*
X397748Y692880D02*
Y701211D01*
X391500D01*
X393583Y697045D01*
Y694963D01*
X391500Y692880D01*
X387335D01*
X385252Y694963D01*
Y699128D01*
X387335Y701211D01*
X358502Y724370D02*
X370998D01*
Y718122D01*
X368915Y716039D01*
X364750D01*
X362667Y718122D01*
Y724370D01*
Y720205D02*
X358502Y716039D01*
Y711874D02*
Y707709D01*
Y709791D01*
X370998D01*
X368915Y711874D01*
X358502Y695213D02*
X370998D01*
X364750Y701461D01*
Y693130D01*
X241630Y540502D02*
Y552998D01*
X247878D01*
X249961Y550915D01*
Y546750D01*
X247878Y544667D01*
X241630D01*
X245795D02*
X249961Y540502D01*
X254126D02*
X258291D01*
X256209D01*
Y552998D01*
X254126Y550915D01*
X272870Y540502D02*
X264539D01*
X272870Y548833D01*
Y550915D01*
X270787Y552998D01*
X266622D01*
X264539Y550915D01*
X304002Y721537D02*
X316498D01*
Y715289D01*
X314415Y713207D01*
X310250D01*
X308167Y715289D01*
Y721537D01*
Y717372D02*
X304002Y713207D01*
Y709041D02*
Y704876D01*
Y706959D01*
X316498D01*
X314415Y709041D01*
X304002Y698628D02*
Y694463D01*
Y696545D01*
X316498D01*
X314415Y698628D01*
X251562Y725605D02*
X264058D01*
Y719357D01*
X261975Y717274D01*
X257810D01*
X255727Y719357D01*
Y725605D01*
Y721440D02*
X251562Y717274D01*
Y713109D02*
Y708944D01*
Y711026D01*
X264058D01*
X261975Y713109D01*
Y702696D02*
X264058Y700613D01*
Y696448D01*
X261975Y694365D01*
X253645D01*
X251562Y696448D01*
Y700613D01*
X253645Y702696D01*
X261975D01*
X227752Y716163D02*
X240248D01*
Y709915D01*
X238165Y707833D01*
X234000D01*
X231917Y709915D01*
Y716163D01*
Y711998D02*
X227752Y707833D01*
X229835Y703667D02*
X227752Y701585D01*
Y697419D01*
X229835Y695337D01*
X238165D01*
X240248Y697419D01*
Y701585D01*
X238165Y703667D01*
X236083D01*
X234000Y701585D01*
Y695337D01*
X375087Y579752D02*
Y592248D01*
X381335D01*
X383417Y590165D01*
Y586000D01*
X381335Y583917D01*
X375087D01*
X379252D02*
X383417Y579752D01*
X387583Y590165D02*
X389665Y592248D01*
X393831D01*
X395913Y590165D01*
Y588083D01*
X393831Y586000D01*
X395913Y583917D01*
Y581835D01*
X393831Y579752D01*
X389665D01*
X387583Y581835D01*
Y583917D01*
X389665Y586000D01*
X387583Y588083D01*
Y590165D01*
X389665Y586000D02*
X393831D01*
X375337Y605502D02*
Y617998D01*
X381585D01*
X383667Y615915D01*
Y611750D01*
X381585Y609667D01*
X375337D01*
X379502D02*
X383667Y605502D01*
X387833Y617998D02*
X396163D01*
Y615915D01*
X387833Y607585D01*
Y605502D01*
X211487Y275912D02*
Y288408D01*
X217735D01*
X219817Y286325D01*
Y282160D01*
X217735Y280077D01*
X211487D01*
X215652D02*
X219817Y275912D01*
X232313Y288408D02*
X228148Y286325D01*
X223983Y282160D01*
Y277995D01*
X226065Y275912D01*
X230231D01*
X232313Y277995D01*
Y280077D01*
X230231Y282160D01*
X223983D01*
X168987Y319162D02*
Y331658D01*
X175235D01*
X177317Y329575D01*
Y325410D01*
X175235Y323327D01*
X168987D01*
X173152D02*
X177317Y319162D01*
X189813Y331658D02*
X181483D01*
Y325410D01*
X185648Y327493D01*
X187731D01*
X189813Y325410D01*
Y321245D01*
X187731Y319162D01*
X183565D01*
X181483Y321245D01*
X65000Y129210D02*
Y137540D01*
X62917Y139623D01*
X58752D01*
X56669Y137540D01*
Y129210D01*
X58752Y127127D01*
X62917D01*
X60835Y131292D02*
X65000Y127127D01*
X62917D02*
X65000Y129210D01*
X69165Y127127D02*
X73331D01*
X71248D01*
Y139623D01*
X69165Y137540D01*
X187337Y627498D02*
Y615002D01*
X193585D01*
X195667Y617085D01*
Y625415D01*
X193585Y627498D01*
X187337D01*
X206081Y615002D02*
Y627498D01*
X199833Y621250D01*
X208163D01*
X180337Y774498D02*
Y762002D01*
X186585D01*
X188667Y764085D01*
Y772415D01*
X186585Y774498D01*
X180337D01*
X201163Y762002D02*
X192833D01*
X201163Y770333D01*
Y772415D01*
X199081Y774498D01*
X194915D01*
X192833Y772415D01*
X181169Y810248D02*
Y797752D01*
X187417D01*
X189500Y799835D01*
Y808165D01*
X187417Y810248D01*
X181169D01*
X193665Y797752D02*
X197831D01*
X195748D01*
Y810248D01*
X193665Y808165D01*
X131461Y314165D02*
X129378Y316248D01*
X125213D01*
X123130Y314165D01*
Y305835D01*
X125213Y303752D01*
X129378D01*
X131461Y305835D01*
X135626Y303752D02*
X139791D01*
X137709D01*
Y316248D01*
X135626Y314165D01*
X154370Y303752D02*
X146039D01*
X154370Y312083D01*
Y314165D01*
X152287Y316248D01*
X148122D01*
X146039Y314165D01*
X845165Y513581D02*
X847248Y515663D01*
Y519829D01*
X845165Y521911D01*
X836835D01*
X834752Y519829D01*
Y515663D01*
X836835Y513581D01*
X834752Y509415D02*
Y505250D01*
Y507333D01*
X847248D01*
X845165Y509415D01*
X834752Y499002D02*
Y494837D01*
Y496919D01*
X847248D01*
X845165Y499002D01*
X761961Y293165D02*
X759878Y295248D01*
X755713D01*
X753630Y293165D01*
Y284835D01*
X755713Y282752D01*
X759878D01*
X761961Y284835D01*
X766126Y282752D02*
X770291D01*
X768209D01*
Y295248D01*
X766126Y293165D01*
X776539D02*
X778622Y295248D01*
X782787D01*
X784870Y293165D01*
Y284835D01*
X782787Y282752D01*
X778622D01*
X776539Y284835D01*
Y293165D01*
X875417Y339665D02*
X873335Y341748D01*
X869169D01*
X867087Y339665D01*
Y331335D01*
X869169Y329252D01*
X873335D01*
X875417Y331335D01*
X879583D02*
X881665Y329252D01*
X885831D01*
X887913Y331335D01*
Y339665D01*
X885831Y341748D01*
X881665D01*
X879583Y339665D01*
Y337583D01*
X881665Y335500D01*
X887913D01*
X418665Y705833D02*
X420748Y707915D01*
Y712081D01*
X418665Y714163D01*
X410335D01*
X408252Y712081D01*
Y707915D01*
X410335Y705833D01*
X418665Y701667D02*
X420748Y699585D01*
Y695419D01*
X418665Y693337D01*
X416583D01*
X414500Y695419D01*
X412417Y693337D01*
X410335D01*
X408252Y695419D01*
Y699585D01*
X410335Y701667D01*
X412417D01*
X414500Y699585D01*
X416583Y701667D01*
X418665D01*
X414500Y699585D02*
Y695419D01*
X285415Y714833D02*
X287498Y716915D01*
Y721081D01*
X285415Y723163D01*
X277085D01*
X275002Y721081D01*
Y716915D01*
X277085Y714833D01*
X287498Y710667D02*
Y702337D01*
X285415D01*
X277085Y710667D01*
X275002D01*
X385667Y567665D02*
X383585Y569748D01*
X379419D01*
X377337Y567665D01*
Y559335D01*
X379419Y557252D01*
X383585D01*
X385667Y559335D01*
X398163Y569748D02*
X393998Y567665D01*
X389833Y563500D01*
Y559335D01*
X391915Y557252D01*
X396081D01*
X398163Y559335D01*
Y561417D01*
X396081Y563500D01*
X389833D01*
X378667Y638415D02*
X376585Y640498D01*
X372419D01*
X370337Y638415D01*
Y630085D01*
X372419Y628002D01*
X376585D01*
X378667Y630085D01*
X391163Y640498D02*
X382833D01*
Y634250D01*
X386998Y636333D01*
X389081D01*
X391163Y634250D01*
Y630085D01*
X389081Y628002D01*
X384915D01*
X382833Y630085D01*
X112917Y230665D02*
X110835Y232748D01*
X106669D01*
X104587Y230665D01*
Y222335D01*
X106669Y220252D01*
X110835D01*
X112917Y222335D01*
X123331Y220252D02*
Y232748D01*
X117083Y226500D01*
X125413D01*
X174917Y265185D02*
X172835Y267268D01*
X168669D01*
X166587Y265185D01*
Y256855D01*
X168669Y254772D01*
X172835D01*
X174917Y256855D01*
X187413Y254772D02*
X179083D01*
X187413Y263103D01*
Y265185D01*
X185331Y267268D01*
X181165D01*
X179083Y265185D01*
X149500Y265415D02*
X147417Y267498D01*
X143252D01*
X141169Y265415D01*
Y257085D01*
X143252Y255002D01*
X147417D01*
X149500Y257085D01*
X153665Y255002D02*
X157831D01*
X155748D01*
Y267498D01*
X153665Y265415D01*
X759921Y38998D02*
Y26502D01*
X766169D01*
X768252Y28585D01*
Y30667D01*
X766169Y32750D01*
X759921D01*
X766169D01*
X768252Y34833D01*
Y36915D01*
X766169Y38998D01*
X759921D01*
X772417D02*
Y26502D01*
Y32750D01*
X780748D01*
Y38998D01*
Y26502D01*
X784913D02*
X789079D01*
X786996D01*
Y38998D01*
X784913Y36915D01*
D12*
X457346Y796625D02*
G03*
X457346Y796625I-1346J0D01*
G01*
Y822875D02*
G03*
X457346Y822875I-1346J0D01*
G01*
X442346Y771625D02*
G03*
X442346Y771625I-1346J0D01*
G01*
X457346D02*
G03*
X457346Y771625I-1346J0D01*
G01*
X442346Y796625D02*
G03*
X442346Y796625I-1346J0D01*
G01*
Y822875D02*
G03*
X442346Y822875I-1346J0D01*
G01*
X532096Y745375D02*
G03*
X532096Y745375I-1346J0D01*
G01*
X547096D02*
G03*
X547096Y745375I-1346J0D01*
G01*
X532346Y798125D02*
G03*
X532346Y798125I-1346J0D01*
G01*
X547346D02*
G03*
X547346Y798125I-1346J0D01*
G01*
X532096Y823875D02*
G03*
X532096Y823875I-1346J0D01*
G01*
X547096D02*
G03*
X547096Y823875I-1346J0D01*
G01*
X487750Y745500D02*
G03*
X487750Y745500I-1346J0D01*
G01*
X502750D02*
G03*
X502750Y745500I-1346J0D01*
G01*
X488000Y798000D02*
G03*
X488000Y798000I-1346J0D01*
G01*
X503000D02*
G03*
X503000Y798000I-1346J0D01*
G01*
X598329Y822661D02*
X594997Y825993D01*
X588332D01*
X585000Y822661D01*
Y809332D01*
X588332Y806000D01*
X594997D01*
X598329Y809332D01*
Y815997D01*
X591665D01*
X629000Y806000D02*
Y825993D01*
X638997D01*
X642329Y822661D01*
Y815997D01*
X638997Y812664D01*
X629000D01*
X696750Y825993D02*
X710079Y806000D01*
Y825993D02*
X696750Y806000D01*
X733250Y825993D02*
Y822661D01*
X739914Y815997D01*
X746579Y822661D01*
Y825993D01*
X739914Y815997D02*
Y806000D01*
X9000Y620107D02*
X22329D01*
X15664D01*
Y600114D01*
X907250Y212000D02*
Y231994D01*
X917247D01*
X920579Y228661D01*
Y221997D01*
X917247Y218664D01*
X907250D01*
X913914D02*
X920579Y212000D01*
X940573D02*
X927243D01*
X940573Y225329D01*
Y228661D01*
X937240Y231994D01*
X930576D01*
X927243Y228661D01*
X907750Y250000D02*
Y269994D01*
X917747D01*
X921079Y266661D01*
Y259997D01*
X917747Y256665D01*
X907750D01*
X914415D02*
X921079Y250000D01*
X927744D02*
X934408D01*
X931076D01*
Y269994D01*
X927744Y266661D01*
X909500Y308994D02*
Y289000D01*
X916164Y295665D01*
X922829Y289000D01*
Y308994D01*
X9000Y640948D02*
Y660941D01*
X18997D01*
X22329Y657609D01*
Y650945D01*
X18997Y647612D01*
X9000D01*
X15664D02*
X22329Y640948D01*
Y581661D02*
X18997Y584994D01*
X12332D01*
X9000Y581661D01*
Y568332D01*
X12332Y565000D01*
X18997D01*
X22329Y568332D01*
Y574997D01*
X15664D01*
X298380Y827191D02*
X301712Y830524D01*
X308377D01*
X311709Y827191D01*
Y823859D01*
X308377Y820527D01*
X305044D01*
X308377D01*
X311709Y817195D01*
Y813862D01*
X308377Y810530D01*
X301712D01*
X298380Y813862D01*
X273609Y810530D02*
X260280D01*
X273609Y823859D01*
Y827191D01*
X270277Y830524D01*
X263612D01*
X260280Y827191D01*
X222180Y810530D02*
X228845D01*
X225512D01*
Y830524D01*
X222180Y827191D01*
X168339Y726753D02*
Y746747D01*
X178335D01*
X181668Y743415D01*
Y736750D01*
X178335Y733418D01*
X168339D01*
X198329Y726753D02*
Y746747D01*
X188332Y736750D01*
X201661D01*
X854589Y172753D02*
Y192747D01*
X864585D01*
X867918Y189415D01*
Y182750D01*
X864585Y179418D01*
X854589D01*
X887911Y192747D02*
X874582D01*
Y182750D01*
X881247Y186082D01*
X884579D01*
X887911Y182750D01*
Y176085D01*
X884579Y172753D01*
X877915D01*
X874582Y176085D01*
X57589Y678003D02*
Y697997D01*
X67586D01*
X70918Y694665D01*
Y688000D01*
X67586Y684668D01*
X57589D01*
X77582Y694665D02*
X80914Y697997D01*
X87579D01*
X90911Y694665D01*
Y691332D01*
X87579Y688000D01*
X84247D01*
X87579D01*
X90911Y684668D01*
Y681336D01*
X87579Y678003D01*
X80914D01*
X77582Y681336D01*
X577089Y702253D02*
Y722247D01*
X587085D01*
X590418Y718914D01*
Y712250D01*
X587085Y708918D01*
X577089D01*
X610411Y702253D02*
X597082D01*
X610411Y715582D01*
Y718914D01*
X607079Y722247D01*
X600415D01*
X597082Y718914D01*
X712171Y701753D02*
Y721747D01*
X722168D01*
X725500Y718415D01*
Y711750D01*
X722168Y708418D01*
X712171D01*
X732165Y701753D02*
X738829D01*
X735497D01*
Y721747D01*
X732165Y718415D01*
D13*
X179750Y338000D02*
X529750D01*
Y528000D01*
X179750Y338000D02*
Y528000D01*
X529750D01*
X690960Y657180D02*
Y665930D01*
X697960D01*
X712960D02*
X719960D01*
X554330Y592070D02*
Y599070D01*
Y592070D02*
X565330D01*
X554330Y614070D02*
Y621070D01*
X44000Y127000D02*
X51000D01*
Y138000D01*
X22000Y127000D02*
X29000D01*
D14*
X860730Y324500D02*
Y346000D01*
X822230D02*
X860730D01*
X822230Y324500D02*
X860730D01*
X822230D02*
Y346000D01*
X140500Y251250D02*
X162000D01*
X140500Y212750D02*
Y251250D01*
X162000Y212750D02*
Y251250D01*
X140500Y212750D02*
X162000D01*
X595520Y295250D02*
Y316750D01*
X557020D02*
X595520D01*
X557020Y295250D02*
X595520D01*
X557020D02*
Y316750D01*
X51750Y255250D02*
Y276750D01*
X13250D02*
X51750D01*
X13250Y255250D02*
X51750D01*
X13250D02*
Y276750D01*
X141500Y348480D02*
X163000D01*
Y386980D01*
X141500Y348480D02*
Y386980D01*
X163000D01*
X117750D02*
X139250D01*
X117750Y348480D02*
Y386980D01*
X139250Y348480D02*
Y386980D01*
X117750Y348480D02*
X139250D01*
X726250Y300250D02*
Y337750D01*
Y300250D02*
X746750D01*
X726250Y337750D02*
X746750D01*
Y300250D02*
Y337750D01*
X168230Y292640D02*
X205730D01*
X168230Y272140D02*
Y292640D01*
X205730Y272140D02*
Y292640D01*
X168230Y272140D02*
X205730D01*
X599730Y580120D02*
X637230D01*
Y600620D01*
X599730Y580120D02*
Y600620D01*
X637230D01*
X599730Y624750D02*
X637230D01*
X599730Y604250D02*
Y624750D01*
X637230Y604250D02*
Y624750D01*
X599730Y604250D02*
X637230D01*
X51750Y184690D02*
Y206190D01*
X13250D02*
X51750D01*
X13250Y184690D02*
X51750D01*
X13250D02*
Y206190D01*
X54750Y168250D02*
Y205750D01*
Y168250D02*
X75250D01*
X54750Y205750D02*
X75250D01*
Y168250D02*
Y205750D01*
X403270Y689810D02*
X424770D01*
X403270Y651310D02*
Y689810D01*
X424770Y651310D02*
Y689810D01*
X403270Y651310D02*
X424770D01*
X400140Y651810D02*
Y689310D01*
X379640D02*
X400140D01*
X379640Y651810D02*
X400140D01*
X379640D02*
Y689310D01*
X328070Y622390D02*
X365570D01*
X328070Y601890D02*
Y622390D01*
X365570Y601890D02*
Y622390D01*
X328070Y601890D02*
X365570D01*
X365580Y624250D02*
Y645750D01*
X327080D02*
X365580D01*
X327080Y624250D02*
X365580D01*
X327080D02*
Y645750D01*
X277160Y561430D02*
X314660D01*
X277160Y540930D02*
Y561430D01*
X314660Y540930D02*
Y561430D01*
X277160Y540930D02*
X314660D01*
X770250Y211500D02*
X807750D01*
Y232000D01*
X770250Y211500D02*
Y232000D01*
X807750D01*
X660310Y641650D02*
Y679150D01*
Y641650D02*
X680810D01*
X660310Y679150D02*
X680810D01*
Y641650D02*
Y679150D01*
X824530Y783500D02*
X862030D01*
Y804000D01*
X824530Y783500D02*
Y804000D01*
X862030D01*
X374740Y651810D02*
Y689310D01*
X354240D02*
X374740D01*
X354240Y651810D02*
X374740D01*
X354240D02*
Y689310D01*
X328840Y651810D02*
Y689310D01*
Y651810D02*
X349340D01*
X328840Y689310D02*
X349340D01*
Y651810D02*
Y689310D01*
X298360Y653080D02*
Y690580D01*
Y653080D02*
X318860D01*
X298360Y690580D02*
X318860D01*
Y653080D02*
Y690580D01*
X275000Y691460D02*
X296500D01*
X275000Y652960D02*
Y691460D01*
X296500Y652960D02*
Y691460D01*
X275000Y652960D02*
X296500D01*
X268060Y653080D02*
Y690580D01*
X247560D02*
X268060D01*
X247560Y653080D02*
X268060D01*
X247560D02*
Y690580D01*
X245200Y652970D02*
Y690470D01*
X224700D02*
X245200D01*
X224700Y652970D02*
X245200D01*
X224700D02*
Y690470D01*
X328290Y598440D02*
X365790D01*
X328290Y577940D02*
Y598440D01*
X365790Y577940D02*
Y598440D01*
X328290Y577940D02*
X365790D01*
X365580Y553130D02*
Y574630D01*
X327080D02*
X365580D01*
X327080Y553130D02*
X365580D01*
X327080D02*
Y574630D01*
X13500Y208250D02*
Y229750D01*
Y208250D02*
X52000D01*
X13500Y229750D02*
X52000D01*
Y208250D02*
Y229750D01*
X157000Y320500D02*
Y342000D01*
X118500D02*
X157000D01*
X118500Y320500D02*
X157000D01*
X118500D02*
Y342000D01*
X132480Y236250D02*
Y257750D01*
X93980D02*
X132480D01*
X93980Y236250D02*
X132480D01*
X93980D02*
Y257750D01*
X94230Y280750D02*
X131730D01*
X94230Y260250D02*
Y280750D01*
X131730Y260250D02*
Y280750D01*
X94230Y260250D02*
X131730D01*
X166500Y212750D02*
X188000D01*
Y251250D01*
X166500Y212750D02*
Y251250D01*
X188000D01*
X168230Y295000D02*
X205730D01*
Y315500D01*
X168230Y295000D02*
Y315500D01*
X205730D01*
X923250Y395250D02*
Y432750D01*
X902750D02*
X923250D01*
X902750Y395250D02*
X923250D01*
X902750D02*
Y432750D01*
X902880Y354630D02*
Y392130D01*
Y354630D02*
X923380D01*
X902880Y392130D02*
X923380D01*
Y354630D02*
Y392130D01*
X876210Y438450D02*
Y475950D01*
Y438450D02*
X896710D01*
X876210Y475950D02*
X896710D01*
Y438450D02*
Y475950D01*
X873850Y438340D02*
Y475840D01*
X853350D02*
X873850D01*
X853350Y438340D02*
X873850D01*
X853350D02*
Y475840D01*
X829990Y476830D02*
X851490D01*
X829990Y438330D02*
Y476830D01*
X851490Y438330D02*
Y476830D01*
X829990Y438330D02*
X851490D01*
X825590Y438340D02*
Y475840D01*
X805090D02*
X825590D01*
X805090Y438340D02*
X825590D01*
X805090D02*
Y475840D01*
X801460Y438450D02*
Y475950D01*
X780960D02*
X801460D01*
X780960Y438450D02*
X801460D01*
X780960D02*
Y475950D01*
X758380Y377280D02*
X795880D01*
X758380Y356780D02*
Y377280D01*
X795880Y356780D02*
Y377280D01*
X758380Y356780D02*
X795880D01*
X759650Y402680D02*
X797150D01*
X759650Y382180D02*
Y402680D01*
X797150Y382180D02*
Y402680D01*
X759650Y382180D02*
X797150D01*
X751250Y338400D02*
X772750D01*
X751250Y299900D02*
Y338400D01*
X772750Y299900D02*
Y338400D01*
X751250Y299900D02*
X772750D01*
X655410Y641760D02*
Y679260D01*
X634910D02*
X655410D01*
X634910Y641760D02*
X655410D01*
X634910D02*
Y679260D01*
X631280Y641650D02*
Y679150D01*
X610780D02*
X631280D01*
X610780Y641650D02*
X631280D01*
X610780D02*
Y679150D01*
X211020Y294500D02*
Y316000D01*
Y294500D02*
X249520D01*
X211020Y316000D02*
X249520D01*
Y294500D02*
Y316000D01*
X583610Y641150D02*
X605110D01*
Y679650D01*
X583610Y641150D02*
Y679650D01*
X605110D01*
X595750Y318500D02*
Y340000D01*
X557250D02*
X595750D01*
X557250Y318500D02*
X595750D01*
X557250D02*
Y340000D01*
D15*
X731514Y655214D02*
Y660548D01*
Y664104D01*
X752596D02*
X761486D01*
Y655214D02*
Y664104D01*
X731514D02*
X740404D01*
X719960Y657180D02*
Y665930D01*
X569214Y665480D02*
Y674370D01*
X560324Y644398D02*
X569214D01*
Y653288D01*
X565658Y674370D02*
X569214D01*
X560324D02*
X565658D01*
X238506Y614426D02*
X247396D01*
X217424D02*
Y623316D01*
Y614426D02*
X226314D01*
X247396D02*
Y617982D01*
Y623316D01*
X238506Y567436D02*
X247396D01*
X217424D02*
Y576326D01*
Y567436D02*
X226314D01*
X247396D02*
Y570992D01*
Y576326D01*
X163322Y751586D02*
X172212D01*
X142240D02*
Y760476D01*
Y751586D02*
X151130D01*
X172212D02*
Y755142D01*
Y760476D01*
X142494Y811784D02*
X151384D01*
X172466Y802894D02*
Y811784D01*
X163576D02*
X172466D01*
X142494Y808228D02*
Y811784D01*
Y802894D02*
Y808228D01*
X554330Y621070D02*
X565330D01*
X22000Y127000D02*
Y138000D01*
D16*
X857750Y719750D02*
Y749000D01*
Y719750D02*
X938000D01*
X857750Y749000D02*
X926000D01*
X938000Y719750D02*
Y737000D01*
X926000Y749000D02*
X938000Y737000D01*
X788670Y806450D02*
X808990D01*
X788670Y781050D02*
X808990D01*
D17*
X202690Y200190D02*
Y220190D01*
X192690Y83190D02*
X212690D01*
X192690Y210190D02*
X212690D01*
D18*
X611290Y389986D02*
X613829Y392525D01*
X618908D01*
X621447Y389986D01*
Y387447D01*
X618908Y384907D01*
X616368D01*
X618908D01*
X621447Y382368D01*
Y379829D01*
X618908Y377290D01*
X613829D01*
X611290Y379829D01*
X614040Y443525D02*
X624197D01*
Y440986D01*
X614040Y430829D01*
Y428290D01*
X615040Y351540D02*
X620118D01*
X617579D01*
Y366775D01*
X615040Y364236D01*
X612290Y455579D02*
X614829Y453040D01*
X619907D01*
X622447Y455579D01*
Y465736D01*
X619907Y468275D01*
X614829D01*
X612290Y465736D01*
Y463197D01*
X614829Y460658D01*
X622447D01*
X622697Y416775D02*
X612540D01*
Y409157D01*
X617618Y411697D01*
X620158D01*
X622697Y409157D01*
Y404079D01*
X620158Y401540D01*
X615079D01*
X612540Y404079D01*
X482511Y556867D02*
X477433D01*
X479972D01*
Y544172D01*
X477433Y541632D01*
X474893D01*
X472354Y544172D01*
X487589Y556867D02*
X497746D01*
Y554328D01*
X487589Y544172D01*
Y541632D01*
X154211Y612067D02*
X149132D01*
X151672D01*
Y599372D01*
X149132Y596833D01*
X146593D01*
X144054Y599372D01*
X169446Y612067D02*
X164368Y609528D01*
X159289Y604450D01*
Y599372D01*
X161828Y596833D01*
X166907D01*
X169446Y599372D01*
Y601911D01*
X166907Y604450D01*
X159289D01*
M02*
