M48
;Layer_Color=9474304
;FILE_FORMAT=2:5
INCH,LZ
;TYPE=PLATED
T1F00S00C0.01200
T2F00S00C0.02756
T3F00S00C0.02800
T4F00S00C0.04331
T5F00S00C0.08858
T6F00S00C0.14764
;TYPE=NON_PLATED
T7F00S00C0.03937
T8F00S00C0.05118
%
T01
X-0025Y-0160008
X-0032382Y-01408
X0013189Y-0159811
X00714Y-01441
X-00706Y-01474
X-00806Y-0121019
X-00802Y-01035
X-00782Y-00947
X-0062408Y-0090904
X-0062221Y-0099528
Y-0108
X-00704Y-00823
X-00502Y-00821
X-00602Y-0028
X-00601Y-0021071
X-00599Y-00079
X-0065406
X-00668Y-00044
X-00697Y-00028
X-0067986Y0012224
X-00643Y0010256
X-0061153Y0007754
X-00529Y00165
X-00691Y00172
X-00457Y00054
X-00467Y-00163
X-00437Y-00237
X-00392Y-00276
X-0075091Y-00268
X-00733Y-00385
X-01048Y-0026
X-01068Y00075
X-0113996Y-005231
X-01429Y-00263
X-0024121Y-0017385
X-00161Y-00208
X-0012079Y-0021064
X-0007549Y-0017385
X-0004244Y-0018546
X-00058Y-00075
X-00185Y-00099
X-00283Y-0002
X-0032Y00108
X-00275Y0017
X001165Y00081
Y0003547
X001388Y0001226
X00137Y-00033
X0009617Y-0015597
X0010168Y-0021873
X00195Y-00291
X00205Y-0036225
X0020296Y-0042181
X001635Y-0048587
X00138Y-00534
X000615Y-0054434
X000285Y-0048737
X-000395Y-0048887
X-0013982Y-0054906
X-00208Y-0055087
X-00362Y-0048887
X-0037218Y-00939
X-00259Y-00872
X-0003906Y-0087
X0000074Y-0085232
X0005742Y-0087
X-0008347Y-0092128
X-0015594Y-0099328
X00158Y-01002
X0042106Y-01103
X0052012Y-0125312
X0050028Y-0136189
X00595Y-0135
X00714Y-01234
X00736Y-01163
X0013189Y-0136335
X0030518Y-00368
X0028932Y-0016834
X00364Y-0015
X00441Y-0013448
X0044393Y-00193
X0055Y-00234
X00551Y-00394
X00604Y-0011
X0042Y-00065
X00432Y-00016
X00462Y00039
X00785Y-00041
X00818Y-0005501
X0101047Y-00166
X01051Y-003
X01108
X01107Y-00522
X0105Y-00527
X0101223Y0009083
X0156Y-0012544
X0145055Y00372
X00456Y00397
X0045705Y00329
Y0026514
X00155Y00269
Y00201
X-00019Y00273
X-0023297Y0023954
X-00256Y00397
X-00215Y004065
X-00179Y00399
X-0020804Y00886
X-00306Y00966
X-00085Y01121
X00249Y01191
X00211Y01243
X0024866Y01415
X00322Y01473
Y01532
Y01122
X0045Y01214
X0053Y01076
X0062Y010522
X00647Y0114
X0084161Y0142484
X-003864Y01096
X-00377Y01056
X-0038565Y0029812
X-00421Y00291
X-0058297Y0032149
X-0058432Y0038785
X-00686
X-00682Y00424
X-0071825Y00422
X-00739Y00388
X-0076651Y0044864
Y0019348
X-00718Y00199
X-0080129Y0022067
X-00862Y00242
X-00613Y00223
X-0057299Y0020017
X-01464Y00601
X-01539Y00602
T02
X0064849Y013717
X006918Y013467
X007351Y013217
X007784Y012967
X008217Y012717
X00865Y012467
X009083Y012217
X009333Y01265
X0089Y0129
X008467Y01315
X008034Y0134
X007601Y01365
X007168Y0139
X0067349Y01415
T03
X0032382Y-0142772
X-00441Y-0134
X-00757Y-01267
X-0083728Y-0136362
X-00917Y-00376
X-0093001Y-0031269
X-0126Y-0044264
X-01487Y-00537
X0097Y-00011
X0022416Y0030931
X-0142Y0028
T04
X-0105Y-0073425
X-0095
X-0085
X-0075
X-0065
X-0055
X-0045
X-0035
X-0025
X-0015
X-0005
X0005
X0015
X0025
X0035
X0045
X0055
X0065
X0075
X0085
X0095
X0105
Y0073425
X0095
X0085
X0075
X0065
X0055
X0045
X0035
X0025
X0015
X0005
X-0005
X-0015
X-0025
X-0035
X-0045
X-0055
X-0065
X-0075
X-0085
X-0095
X-0105
T05
X-0156Y0
X0156
T06
X-01142Y-00984
X01142
Y00984
X-01142
T07
X-0040609Y01203
T08
X-00099Y01203
M30
