G04*
G04 #@! TF.GenerationSoftware,Altium Limited,Altium Designer,21.4.1 (30)*
G04*
G04 Layer_Color=8388736*
%FSLAX25Y25*%
%MOIN*%
G70*
G04*
G04 #@! TF.SameCoordinates,CAD9CCDC-5C06-4C5A-A707-2981277BA2D7*
G04*
G04*
G04 #@! TF.FilePolarity,Negative*
G04*
G01*
G75*
%ADD25R,0.06109X0.02000*%
%ADD26R,0.02802X0.08274*%
%ADD27R,0.10951X0.14573*%
%ADD28R,0.04337X0.04337*%
%ADD29R,0.10636X0.06306*%
%ADD30R,0.03943X0.03156*%
%ADD31R,0.03156X0.03943*%
%ADD32R,0.04337X0.04337*%
%ADD33C,0.22428*%
%ADD34C,0.05321*%
D25*
X72900Y-113400D02*
D03*
Y-115900D02*
D03*
Y-118400D02*
D03*
Y-120900D02*
D03*
Y-123400D02*
D03*
Y-125900D02*
D03*
Y-128400D02*
D03*
Y-130900D02*
D03*
X94357Y-113400D02*
D03*
Y-115900D02*
D03*
Y-118400D02*
D03*
Y-120900D02*
D03*
Y-123400D02*
D03*
Y-125900D02*
D03*
Y-128400D02*
D03*
Y-130900D02*
D03*
D26*
X-13331Y-132976D02*
D03*
X-9394D02*
D03*
X-5457D02*
D03*
X-1520D02*
D03*
X2417D02*
D03*
X6354D02*
D03*
X10291D02*
D03*
X14228D02*
D03*
D27*
X-25102Y-144000D02*
D03*
X26000D02*
D03*
D28*
X84500Y-97500D02*
D03*
X78776D02*
D03*
X40362Y128600D02*
D03*
X34638D02*
D03*
X78776Y-75500D02*
D03*
X84500D02*
D03*
X-40862Y126000D02*
D03*
X-35138D02*
D03*
D29*
X-13780Y-119095D02*
D03*
Y-101378D02*
D03*
X13780Y-119095D02*
D03*
Y-101378D02*
D03*
Y101378D02*
D03*
Y119095D02*
D03*
X-13780Y101378D02*
D03*
Y119095D02*
D03*
D30*
X-3000Y-91000D02*
D03*
Y-97512D02*
D03*
X4000Y-90744D02*
D03*
Y-97256D02*
D03*
D31*
X-13612Y134700D02*
D03*
X-7100D02*
D03*
X13744Y135000D02*
D03*
X20256D02*
D03*
X84500Y-90500D02*
D03*
X77988D02*
D03*
X78244Y-83500D02*
D03*
X84756D02*
D03*
D32*
X-77000Y-100000D02*
D03*
Y-94276D02*
D03*
D33*
X-114200Y-98400D02*
D03*
X114200D02*
D03*
Y98400D02*
D03*
X-114200D02*
D03*
D34*
X-13780Y-110236D02*
D03*
X13780D02*
D03*
Y110236D02*
D03*
X-13780D02*
D03*
M02*
