G04*
G04 #@! TF.GenerationSoftware,Altium Limited,Altium Designer,24.4.1 (13)*
G04*
G04 Layer_Color=255*
%FSLAX44Y44*%
%MOMM*%
G71*
G04*
G04 #@! TF.SameCoordinates,FF2F9DB4-C514-40A0-8A38-6625478132A2*
G04*
G04*
G04 #@! TF.FilePolarity,Positive*
G04*
G01*
G75*
%ADD64C,1.7000*%
%ADD65R,1.7000X1.7000*%
%ADD66C,6.0000*%
%ADD67C,1.0000*%
%ADD68R,1.0000X1.0000*%
%ADD69R,1.6000X1.6000*%
%ADD70C,1.6000*%
%ADD71R,1.7000X1.7000*%
%ADD74R,5.7000X2.8000*%
%ADD75R,3.5000X3.8000*%
%ADD76R,0.6000X1.2500*%
%ADD77R,5.0000X3.0000*%
D64*
X97500Y124600D02*
D03*
Y226200D02*
D03*
Y200800D02*
D03*
Y150000D02*
D03*
Y175400D02*
D03*
X142400Y704250D02*
D03*
X117000Y678850D02*
D03*
X142400D02*
D03*
X117000Y653450D02*
D03*
X142400D02*
D03*
X117000Y628050D02*
D03*
X142400D02*
D03*
X466500Y233776D02*
D03*
X288700D02*
D03*
X542700D02*
D03*
X618900D02*
D03*
X695100D02*
D03*
X263300D02*
D03*
X364900D02*
D03*
X314100D02*
D03*
X339500D02*
D03*
X390300D02*
D03*
X415700D02*
D03*
X441100D02*
D03*
X491900D02*
D03*
X517300D02*
D03*
X568100D02*
D03*
X593500D02*
D03*
X669700D02*
D03*
X644300D02*
D03*
X771300D02*
D03*
X720500D02*
D03*
X745900D02*
D03*
X796700Y606776D02*
D03*
X771300D02*
D03*
X720500D02*
D03*
X745900D02*
D03*
X669700D02*
D03*
X644300D02*
D03*
X568100D02*
D03*
X593500D02*
D03*
X491900D02*
D03*
X517300D02*
D03*
X390300D02*
D03*
X415700D02*
D03*
X441100D02*
D03*
X364900D02*
D03*
X314100D02*
D03*
X339500D02*
D03*
X263300D02*
D03*
X542700D02*
D03*
X618900D02*
D03*
X695100D02*
D03*
X466500D02*
D03*
X288700D02*
D03*
X717500Y27776D02*
D03*
Y72776D02*
D03*
X782500Y27776D02*
D03*
X557500D02*
D03*
Y72776D02*
D03*
X622500Y27776D02*
D03*
X397500D02*
D03*
Y72776D02*
D03*
X462500Y27776D02*
D03*
X237500D02*
D03*
Y72776D02*
D03*
X302500Y27776D02*
D03*
D65*
X97500Y251600D02*
D03*
X117000Y704250D02*
D03*
X796700Y233776D02*
D03*
D66*
X1000000Y60000D02*
D03*
X60000Y780000D02*
D03*
Y60000D02*
D03*
X1000000Y790000D02*
D03*
D67*
X414450Y803076D02*
D03*
Y815776D02*
D03*
X427150Y803076D02*
D03*
Y815776D02*
D03*
X439850Y803076D02*
D03*
Y815776D02*
D03*
X452550Y803076D02*
D03*
Y815776D02*
D03*
X465250Y803076D02*
D03*
Y815776D02*
D03*
X477950Y803076D02*
D03*
Y815776D02*
D03*
X490650Y803076D02*
D03*
D68*
Y815776D02*
D03*
D69*
X122700Y305700D02*
D03*
D70*
X97300D02*
D03*
X122700Y331100D02*
D03*
X97300D02*
D03*
X122700Y356500D02*
D03*
X97300D02*
D03*
X122700Y381900D02*
D03*
X97300D02*
D03*
X122700Y407300D02*
D03*
X97300D02*
D03*
X122700Y432700D02*
D03*
X97300D02*
D03*
X122700Y458100D02*
D03*
X97300D02*
D03*
X122700Y483500D02*
D03*
X97300D02*
D03*
X122700Y508900D02*
D03*
X97300D02*
D03*
X122700Y534300D02*
D03*
X97300D02*
D03*
D71*
X782500Y72776D02*
D03*
X622500D02*
D03*
X462500D02*
D03*
X302500D02*
D03*
D74*
X571250Y732776D02*
D03*
D75*
X796250D02*
D03*
D76*
X338750Y804526D02*
D03*
X356750D02*
D03*
X339000Y783776D02*
D03*
X357000D02*
D03*
X338750Y763776D02*
D03*
X356750D02*
D03*
D77*
X964020Y446946D02*
D03*
Y394876D02*
D03*
M02*
