G04*
G04 #@! TF.GenerationSoftware,Altium Limited,Altium Designer,24.4.1 (13)*
G04*
G04 Layer_Physical_Order=2*
G04 Layer_Color=16711680*
%FSLAX44Y44*%
%MOMM*%
G71*
G04*
G04 #@! TF.SameCoordinates,FF2F9DB4-C514-40A0-8A38-6625478132A2*
G04*
G04*
G04 #@! TF.FilePolarity,Positive*
G04*
G01*
G75*
%ADD10C,0.2000*%
%ADD11C,0.6000*%
%ADD12C,0.3000*%
%ADD13C,0.2500*%
%ADD56C,0.1800*%
%ADD57C,0.5000*%
%ADD60C,0.8000*%
%ADD62C,1.0000*%
%ADD64C,1.7000*%
%ADD65R,1.7000X1.7000*%
%ADD66C,6.0000*%
%ADD67C,1.0000*%
%ADD68R,1.0000X1.0000*%
%ADD69R,1.6000X1.6000*%
%ADD70C,1.6000*%
%ADD71R,1.7000X1.7000*%
%ADD72C,0.6000*%
%ADD73C,1.2700*%
%ADD74R,5.7000X2.8000*%
%ADD75R,3.5000X3.8000*%
%ADD76R,0.6000X1.2500*%
%ADD77R,5.0000X3.0000*%
G36*
X1050000Y10000D02*
X834936D01*
X834320Y11270D01*
X835219Y12614D01*
X835396Y13506D01*
X824604D01*
X824781Y12614D01*
X825680Y11270D01*
X825064Y10000D01*
X10000D01*
Y830000D01*
X241140D01*
X241626Y828827D01*
X230371Y817571D01*
X229420Y816148D01*
X229086Y814471D01*
Y794100D01*
X228916Y794034D01*
X227816Y793889D01*
X226744Y795494D01*
X224912Y796719D01*
X224020Y796896D01*
Y791500D01*
Y786104D01*
X224912Y786281D01*
X226744Y787506D01*
X227816Y789111D01*
X228916Y788966D01*
X229086Y788900D01*
Y777537D01*
X222869Y771320D01*
X222627Y771272D01*
X221039Y770211D01*
X219979Y768623D01*
X219606Y766750D01*
X219979Y764877D01*
X221039Y763289D01*
X222627Y762228D01*
X224500Y761856D01*
X226373Y762228D01*
X227961Y763289D01*
X229021Y764877D01*
X229070Y765119D01*
X236571Y772621D01*
X237521Y774043D01*
X237855Y775721D01*
Y776708D01*
X239125Y777427D01*
X239145Y777415D01*
Y586276D01*
X239363Y585183D01*
X239981Y584257D01*
X246145Y578093D01*
Y432276D01*
X246362Y431184D01*
X246981Y430257D01*
X249248Y427990D01*
X249106Y427276D01*
X249478Y425403D01*
X250539Y423815D01*
X252127Y422755D01*
X254000Y422382D01*
X255873Y422755D01*
X257461Y423815D01*
X258521Y425403D01*
X258894Y427276D01*
X258521Y429149D01*
X257461Y430737D01*
X255873Y431797D01*
X254000Y432170D01*
X253286Y432028D01*
X251855Y433459D01*
Y579276D01*
X251637Y580368D01*
X251019Y581295D01*
X244855Y587459D01*
Y779138D01*
X245231Y779389D01*
X246027Y780582D01*
X247297Y780196D01*
Y593112D01*
X247514Y592020D01*
X248133Y591093D01*
X261267Y577960D01*
Y438481D01*
X260661Y438077D01*
X259601Y436489D01*
X259228Y434616D01*
X259601Y432743D01*
X260661Y431155D01*
X262249Y430094D01*
X264122Y429722D01*
X265995Y430094D01*
X267583Y431155D01*
X268643Y432743D01*
X269016Y434616D01*
X268643Y436489D01*
X267583Y438077D01*
X266977Y438481D01*
Y579142D01*
X266759Y580234D01*
X266141Y581161D01*
X253007Y594295D01*
Y601392D01*
X254277Y601645D01*
X254303Y601582D01*
X255954Y599430D01*
X258106Y597779D01*
X260611Y596741D01*
X263300Y596387D01*
X265989Y596741D01*
X268494Y597779D01*
X270646Y599430D01*
X271925Y601097D01*
X273195Y600666D01*
Y437928D01*
X273412Y436836D01*
X274031Y435909D01*
X296840Y413100D01*
X296684Y412867D01*
X296312Y410994D01*
X296684Y409121D01*
X297745Y407533D01*
X299333Y406473D01*
X301206Y406100D01*
X303079Y406473D01*
X304667Y407533D01*
X305728Y409121D01*
X306100Y410994D01*
X305728Y412867D01*
X304667Y414455D01*
X303079Y415516D01*
X302356Y415659D01*
X278905Y439110D01*
Y600536D01*
X280175Y600967D01*
X281354Y599430D01*
X283506Y597779D01*
X286011Y596741D01*
X288700Y596387D01*
X291389Y596741D01*
X293894Y597779D01*
X296046Y599430D01*
X297589Y601441D01*
X298075Y601420D01*
X298859Y601084D01*
Y556812D01*
X299076Y555719D01*
X299695Y554793D01*
X300745Y553744D01*
Y514065D01*
X300139Y513661D01*
X299079Y512073D01*
X298706Y510200D01*
X299079Y508327D01*
X300139Y506740D01*
X301727Y505679D01*
X303600Y505306D01*
X305473Y505679D01*
X307061Y506740D01*
X308121Y508327D01*
X308494Y510200D01*
X308121Y512073D01*
X307061Y513661D01*
X306455Y514065D01*
Y554926D01*
X306238Y556018D01*
X305619Y556945D01*
X304569Y557994D01*
Y600191D01*
X305839Y600622D01*
X306754Y599430D01*
X308906Y597779D01*
X311411Y596741D01*
X314100Y596387D01*
X316789Y596741D01*
X319294Y597779D01*
X321446Y599430D01*
X323097Y601582D01*
X323375Y602253D01*
X324645Y602001D01*
Y528026D01*
X324863Y526934D01*
X325481Y526007D01*
X330395Y521093D01*
Y511891D01*
X329789Y511487D01*
X328728Y509899D01*
X328356Y508026D01*
X328728Y506153D01*
X329789Y504565D01*
X331377Y503504D01*
X333250Y503132D01*
X335123Y503504D01*
X336711Y504565D01*
X337771Y506153D01*
X338144Y508026D01*
X337771Y509899D01*
X336711Y511487D01*
X336105Y511891D01*
Y522276D01*
X335887Y523368D01*
X335269Y524295D01*
X330355Y529208D01*
Y599688D01*
X331625Y600120D01*
X332154Y599430D01*
X334306Y597779D01*
X336811Y596741D01*
X339500Y596387D01*
X342189Y596741D01*
X344694Y597779D01*
X346846Y599430D01*
X348375Y601423D01*
X348944Y601383D01*
X349645Y601070D01*
Y591276D01*
X349863Y590183D01*
X350481Y589257D01*
X364137Y575602D01*
Y551257D01*
X363531Y550853D01*
X362471Y549265D01*
X362420Y549009D01*
X360998Y548372D01*
X359500Y548670D01*
X357627Y548298D01*
X356039Y547237D01*
X354978Y545649D01*
X354606Y543776D01*
X354978Y541903D01*
X356039Y540315D01*
X357627Y539254D01*
X358207Y539139D01*
X360354Y536992D01*
X361777Y536041D01*
X363455Y535708D01*
X450607D01*
X452285Y536041D01*
X453708Y536992D01*
X454899Y538183D01*
X455479Y538298D01*
X455875Y538563D01*
X457145Y537884D01*
Y501891D01*
X456539Y501487D01*
X455479Y499899D01*
X455106Y498026D01*
X455479Y496153D01*
X456539Y494565D01*
X458127Y493504D01*
X459691Y493194D01*
X460904Y492782D01*
X461277Y490909D01*
X462337Y489321D01*
X463925Y488260D01*
X465798Y487888D01*
X467671Y488260D01*
X469259Y489321D01*
X469663Y489927D01*
X478429D01*
X479521Y490145D01*
X480448Y490763D01*
X494661Y504976D01*
X495280Y505903D01*
X495497Y506995D01*
Y507775D01*
X505723Y518002D01*
X506438Y517860D01*
X508311Y518232D01*
X509899Y519293D01*
X510960Y520881D01*
X511332Y522754D01*
X510960Y524627D01*
X509899Y526215D01*
X508311Y527276D01*
X506438Y527648D01*
X504565Y527276D01*
X502977Y526215D01*
X501917Y524627D01*
X501544Y522754D01*
X501686Y522039D01*
X490623Y510977D01*
X490004Y510050D01*
X489787Y508958D01*
Y508178D01*
X484470Y502861D01*
X483255Y503229D01*
X483219Y503412D01*
X481994Y505244D01*
X480162Y506469D01*
X479270Y506646D01*
Y501250D01*
X478000D01*
Y499980D01*
X472604D01*
X472781Y499088D01*
X474006Y497256D01*
X474528Y496907D01*
X474143Y495637D01*
X469663D01*
X469259Y496243D01*
X467671Y497304D01*
X466107Y497615D01*
X464894Y498026D01*
X464521Y499899D01*
X463461Y501487D01*
X462855Y501891D01*
Y589766D01*
X462637Y590858D01*
X462019Y591785D01*
X456715Y597089D01*
Y600522D01*
X457985Y600954D01*
X459154Y599430D01*
X461306Y597779D01*
X463811Y596741D01*
X466500Y596387D01*
X469189Y596741D01*
X471694Y597779D01*
X473846Y599430D01*
X475497Y601582D01*
X476535Y604087D01*
X476889Y606776D01*
X476535Y609465D01*
X475497Y611970D01*
X473846Y614122D01*
X471694Y615773D01*
X470149Y616413D01*
X470008Y617846D01*
X470711Y618315D01*
X471772Y619903D01*
X472144Y621776D01*
X471772Y623649D01*
X470711Y625237D01*
X470615Y625301D01*
Y654001D01*
X470711Y654065D01*
X471772Y655653D01*
X472144Y657526D01*
X471772Y659399D01*
X470711Y660987D01*
X469123Y662048D01*
X467250Y662420D01*
X465377Y662048D01*
X463789Y660987D01*
X463052Y659883D01*
X462873Y659830D01*
X461631Y659897D01*
X460648Y661368D01*
X458816Y662593D01*
X457924Y662770D01*
Y657374D01*
Y651978D01*
X458816Y652155D01*
X460648Y653380D01*
X461684Y654930D01*
X462711Y655102D01*
X463134Y655046D01*
X463789Y654065D01*
X463885Y654001D01*
Y625301D01*
X463789Y625237D01*
X462729Y623649D01*
X462356Y621776D01*
X462729Y619903D01*
X463789Y618315D01*
X464072Y618126D01*
X463836Y616935D01*
X463777Y616796D01*
X461306Y615773D01*
X459154Y614122D01*
X457985Y612598D01*
X456715Y613030D01*
Y641626D01*
X456497Y642719D01*
X455879Y643645D01*
X448587Y650937D01*
Y653255D01*
X449193Y653659D01*
X450161Y655109D01*
X450890Y655168D01*
X451517Y655090D01*
X452660Y653380D01*
X454492Y652155D01*
X455384Y651978D01*
Y657374D01*
Y662770D01*
X454492Y662593D01*
X452660Y661368D01*
X451435Y659536D01*
X451405Y659382D01*
X451133Y659290D01*
X450083Y659248D01*
X449193Y660581D01*
X447605Y661641D01*
X445732Y662014D01*
X443859Y661641D01*
X442271Y660581D01*
X441211Y658993D01*
X440838Y657120D01*
X441211Y655247D01*
X442271Y653659D01*
X442877Y653255D01*
Y649754D01*
X443094Y648661D01*
X443713Y647735D01*
X451005Y640443D01*
Y612873D01*
X449735Y612442D01*
X448446Y614122D01*
X446294Y615773D01*
X443789Y616811D01*
X441100Y617165D01*
X438411Y616811D01*
X435906Y615773D01*
X433754Y614122D01*
X432103Y611970D01*
X431065Y609465D01*
X430711Y606776D01*
X431065Y604087D01*
X432103Y601582D01*
X433754Y599430D01*
X435906Y597779D01*
X438411Y596741D01*
X441100Y596387D01*
X443789Y596741D01*
X446294Y597779D01*
X448446Y599430D01*
X449735Y601110D01*
X451005Y600679D01*
Y595906D01*
X451222Y594813D01*
X451841Y593887D01*
X457145Y588583D01*
Y547756D01*
X455875Y547077D01*
X455479Y547341D01*
X453606Y547714D01*
X451733Y547341D01*
X450145Y546281D01*
X449239Y544923D01*
X448791Y544476D01*
X372228D01*
X371559Y545746D01*
X371886Y547392D01*
X371513Y549265D01*
X370453Y550853D01*
X369847Y551257D01*
Y576784D01*
X369630Y577877D01*
X369011Y578803D01*
X355355Y592459D01*
Y600210D01*
X356625Y600641D01*
X357554Y599430D01*
X359706Y597779D01*
X362211Y596741D01*
X364900Y596387D01*
X367589Y596741D01*
X370094Y597779D01*
X372246Y599430D01*
X373125Y600576D01*
X374395Y600145D01*
Y572950D01*
X374613Y571857D01*
X375231Y570931D01*
X375645Y570517D01*
Y557370D01*
X375039Y556965D01*
X373979Y555377D01*
X373606Y553504D01*
X373979Y551632D01*
X375039Y550044D01*
X376627Y548983D01*
X378500Y548610D01*
X380373Y548983D01*
X381961Y550044D01*
X382115Y550275D01*
X383385D01*
X383539Y550044D01*
X385127Y548983D01*
X387000Y548610D01*
X388873Y548983D01*
X390461Y550044D01*
X391521Y551632D01*
X391894Y553504D01*
X391521Y555377D01*
X390461Y556965D01*
X389405Y557671D01*
Y575144D01*
X405269Y591007D01*
X405887Y591934D01*
X406105Y593026D01*
Y600275D01*
X407375Y600706D01*
X408354Y599430D01*
X410506Y597779D01*
X413011Y596741D01*
X415700Y596387D01*
X418389Y596741D01*
X420894Y597779D01*
X423046Y599430D01*
X424697Y601582D01*
X425735Y604087D01*
X426089Y606776D01*
X425735Y609465D01*
X424697Y611970D01*
X423046Y614122D01*
X420894Y615773D01*
X418389Y616811D01*
X415700Y617165D01*
X413011Y616811D01*
X410506Y615773D01*
X408354Y614122D01*
X407375Y612846D01*
X406105Y613277D01*
Y625161D01*
X406711Y625565D01*
X407771Y627153D01*
X408144Y629026D01*
X407771Y630899D01*
X406711Y632487D01*
X405123Y633548D01*
X403250Y633920D01*
X401377Y633548D01*
X399789Y632487D01*
X398728Y630899D01*
X398356Y629026D01*
X398728Y627153D01*
X399789Y625565D01*
X400395Y625161D01*
Y612532D01*
X400029Y612345D01*
X399125Y612194D01*
X397646Y614122D01*
X395494Y615773D01*
X392989Y616811D01*
X390300Y617165D01*
X387611Y616811D01*
X385106Y615773D01*
X382954Y614122D01*
X381375Y612064D01*
X381236Y612061D01*
X380105Y612837D01*
Y618276D01*
X379888Y619369D01*
X379269Y620295D01*
X357655Y641908D01*
Y666463D01*
X358261Y666867D01*
X359322Y668455D01*
X359694Y670328D01*
X359322Y672201D01*
X358261Y673789D01*
X356673Y674849D01*
X354800Y675222D01*
X352927Y674849D01*
X351339Y673789D01*
X350279Y672201D01*
X349906Y670328D01*
X350279Y668455D01*
X351339Y666867D01*
X351945Y666463D01*
Y640726D01*
X352163Y639633D01*
X352781Y638707D01*
X374395Y617094D01*
Y613408D01*
X373125Y612976D01*
X372246Y614122D01*
X370094Y615773D01*
X367589Y616811D01*
X364900Y617165D01*
X362211Y616811D01*
X359706Y615773D01*
X357554Y614122D01*
X356625Y612911D01*
X355355Y613342D01*
Y618411D01*
X355961Y618815D01*
X357021Y620403D01*
X357394Y622276D01*
X357021Y624149D01*
X355961Y625737D01*
X354373Y626797D01*
X352500Y627170D01*
X350627Y626797D01*
X349039Y625737D01*
X347979Y624149D01*
X347606Y622276D01*
X347979Y620403D01*
X349039Y618815D01*
X349645Y618411D01*
Y612482D01*
X348944Y612169D01*
X348375Y612129D01*
X346846Y614122D01*
X344694Y615773D01*
X342189Y616811D01*
X339500Y617165D01*
X336811Y616811D01*
X334306Y615773D01*
X332154Y614122D01*
X331625Y613433D01*
X330355Y613864D01*
Y631911D01*
X330961Y632315D01*
X332021Y633903D01*
X332394Y635776D01*
X332021Y637649D01*
X330961Y639237D01*
X329373Y640297D01*
X327500Y640670D01*
X325627Y640297D01*
X324039Y639237D01*
X322979Y637649D01*
X322606Y635776D01*
X322979Y633903D01*
X324039Y632315D01*
X324645Y631911D01*
Y611552D01*
X323375Y611299D01*
X323097Y611970D01*
X321446Y614122D01*
X319294Y615773D01*
X316789Y616811D01*
X314100Y617165D01*
X311411Y616811D01*
X308906Y615773D01*
X306754Y614122D01*
X305839Y612929D01*
X304569Y613361D01*
Y647921D01*
X305175Y648325D01*
X306236Y649913D01*
X306608Y651786D01*
X306236Y653659D01*
X305175Y655247D01*
X303587Y656308D01*
X301714Y656680D01*
X299841Y656308D01*
X298253Y655247D01*
X297192Y653659D01*
X296820Y651786D01*
X297192Y649913D01*
X298253Y648325D01*
X298859Y647921D01*
Y612468D01*
X298075Y612132D01*
X297589Y612111D01*
X296046Y614122D01*
X293894Y615773D01*
X291389Y616811D01*
X288700Y617165D01*
X286011Y616811D01*
X283506Y615773D01*
X281354Y614122D01*
X280175Y612585D01*
X278905Y613017D01*
Y727644D01*
X295536Y744274D01*
X296250Y744132D01*
X298123Y744504D01*
X299711Y745565D01*
X300772Y747153D01*
X301144Y749026D01*
X300772Y750899D01*
X299711Y752487D01*
X298123Y753548D01*
X296250Y753920D01*
X294377Y753548D01*
X292789Y752487D01*
X291728Y750899D01*
X291356Y749026D01*
X291498Y748311D01*
X274031Y730845D01*
X273412Y729919D01*
X273195Y728826D01*
Y612886D01*
X271925Y612455D01*
X270646Y614122D01*
X268494Y615773D01*
X265989Y616811D01*
X263300Y617165D01*
X260611Y616811D01*
X258106Y615773D01*
X255954Y614122D01*
X254303Y611970D01*
X254277Y611907D01*
X253007Y612160D01*
Y790656D01*
X253522Y791171D01*
X262289D01*
X262693Y790565D01*
X264281Y789504D01*
X266154Y789132D01*
X268027Y789504D01*
X269615Y790565D01*
X270676Y792153D01*
X271048Y794026D01*
X270676Y795899D01*
X269615Y797487D01*
X268027Y798548D01*
X266154Y798920D01*
X264281Y798548D01*
X262693Y797487D01*
X262289Y796881D01*
X252340D01*
X251247Y796664D01*
X250321Y796045D01*
X248133Y793857D01*
X247514Y792931D01*
X247297Y791838D01*
Y785504D01*
X246027Y785118D01*
X245231Y786311D01*
X243643Y787372D01*
X241770Y787744D01*
X239897Y787372D01*
X239125Y786855D01*
X237855Y787534D01*
Y812655D01*
X249316Y824116D01*
X422405D01*
X422766Y823755D01*
Y820983D01*
X422300Y820626D01*
X421570Y819674D01*
X421348Y819586D01*
X420252D01*
X420030Y819674D01*
X419300Y820626D01*
X417879Y821716D01*
X416225Y822401D01*
X414450Y822635D01*
X412675Y822401D01*
X411021Y821716D01*
X409600Y820626D01*
X408510Y819205D01*
X407825Y817551D01*
X407591Y815776D01*
X407825Y814001D01*
X408510Y812347D01*
X409600Y810926D01*
X410552Y810196D01*
X410640Y809974D01*
Y808878D01*
X410552Y808656D01*
X409600Y807926D01*
X408510Y806505D01*
X407825Y804851D01*
X407591Y803076D01*
X407825Y801301D01*
X408510Y799647D01*
X409600Y798226D01*
X411021Y797136D01*
X412675Y796451D01*
X414450Y796217D01*
X416225Y796451D01*
X417879Y797136D01*
X419300Y798226D01*
X420030Y799178D01*
X420252Y799266D01*
X421348D01*
X421570Y799178D01*
X422300Y798226D01*
X423721Y797136D01*
X425375Y796451D01*
X427150Y796217D01*
X428925Y796451D01*
X430579Y797136D01*
X432000Y798226D01*
X432730Y799178D01*
X432952Y799266D01*
X434048D01*
X434270Y799178D01*
X435000Y798226D01*
X436421Y797136D01*
X438075Y796451D01*
X439850Y796217D01*
X441625Y796451D01*
X443279Y797136D01*
X444700Y798226D01*
X445430Y799178D01*
X445652Y799266D01*
X446748D01*
X446970Y799178D01*
X447700Y798226D01*
X449121Y797136D01*
X450775Y796451D01*
X452550Y796217D01*
X454325Y796451D01*
X455979Y797136D01*
X457400Y798226D01*
X458130Y799178D01*
X458352Y799266D01*
X459448D01*
X459670Y799178D01*
X460400Y798226D01*
X461821Y797136D01*
X463475Y796451D01*
X465250Y796217D01*
X467025Y796451D01*
X468679Y797136D01*
X470100Y798226D01*
X470830Y799178D01*
X471052Y799266D01*
X472148D01*
X472370Y799178D01*
X473100Y798226D01*
X474521Y797136D01*
X476175Y796451D01*
X477950Y796217D01*
X479725Y796451D01*
X481379Y797136D01*
X482800Y798226D01*
X483530Y799178D01*
X483752Y799266D01*
X484848D01*
X485070Y799178D01*
X485800Y798226D01*
X487221Y797136D01*
X488875Y796451D01*
X490650Y796217D01*
X492425Y796451D01*
X494079Y797136D01*
X495500Y798226D01*
X496590Y799647D01*
X497275Y801301D01*
X497509Y803076D01*
X497275Y804851D01*
X496590Y806505D01*
X495668Y807706D01*
X496027Y808976D01*
X497450D01*
Y822576D01*
X483850D01*
Y821153D01*
X482580Y820794D01*
X481379Y821716D01*
X479725Y822401D01*
X477950Y822635D01*
X476175Y822401D01*
X474521Y821716D01*
X473100Y820626D01*
X472856Y820307D01*
X471266Y820322D01*
X470628Y821154D01*
X469053Y822362D01*
X467218Y823122D01*
X466520Y823214D01*
Y815776D01*
X463980D01*
Y823214D01*
X463282Y823122D01*
X461447Y822362D01*
X459872Y821154D01*
X459535Y820714D01*
X458265D01*
X457928Y821154D01*
X456353Y822362D01*
X454518Y823122D01*
X453820Y823214D01*
Y815776D01*
X451280D01*
Y823214D01*
X450582Y823122D01*
X448747Y822362D01*
X447172Y821154D01*
X446534Y820322D01*
X444944Y820307D01*
X444700Y820626D01*
X443279Y821716D01*
X441625Y822401D01*
X439850Y822635D01*
X438075Y822401D01*
X436421Y821716D01*
X435000Y820626D01*
X434270Y819674D01*
X434048Y819586D01*
X432952D01*
X432730Y819674D01*
X432000Y820626D01*
X431534Y820983D01*
Y825571D01*
X431200Y827249D01*
X430250Y828671D01*
X430095Y828827D01*
X430581Y830000D01*
X1050000D01*
Y10000D01*
D02*
G37*
%LPC*%
G36*
X343550Y812576D02*
X333950D01*
Y808910D01*
X330328D01*
X330123Y809047D01*
X328250Y809420D01*
X326377Y809047D01*
X324789Y807987D01*
X323728Y806399D01*
X323356Y804526D01*
X323728Y802653D01*
X324789Y801065D01*
X326377Y800005D01*
X328250Y799632D01*
X330123Y800005D01*
X330328Y800142D01*
X333950D01*
Y796476D01*
X343550D01*
Y812576D01*
D02*
G37*
G36*
X362290Y813316D02*
X358020D01*
Y805796D01*
X362290D01*
Y813316D01*
D02*
G37*
G36*
X355480D02*
X351210D01*
Y805796D01*
X355480D01*
Y813316D01*
D02*
G37*
G36*
X362290Y803256D02*
X358020D01*
Y795736D01*
X362290D01*
Y803256D01*
D02*
G37*
G36*
X355480D02*
X351210D01*
Y795736D01*
X355480D01*
Y803256D01*
D02*
G37*
G36*
X221480Y796896D02*
X220588Y796719D01*
X218756Y795494D01*
X217531Y793662D01*
X217354Y792770D01*
X221480D01*
Y796896D01*
D02*
G37*
G36*
X343800Y791826D02*
X334200D01*
Y786910D01*
X331328D01*
X331123Y787048D01*
X329250Y787420D01*
X327377Y787048D01*
X325789Y785987D01*
X324729Y784399D01*
X324356Y782526D01*
X324729Y780653D01*
X325789Y779065D01*
X327377Y778005D01*
X329250Y777632D01*
X331123Y778005D01*
X331328Y778142D01*
X334200D01*
Y775726D01*
X343800D01*
Y780099D01*
X344300Y780848D01*
X344634Y782526D01*
X344300Y784204D01*
X343800Y784953D01*
Y791826D01*
D02*
G37*
G36*
X221480Y790230D02*
X217354D01*
X217531Y789338D01*
X218756Y787506D01*
X220588Y786281D01*
X221480Y786104D01*
Y790230D01*
D02*
G37*
G36*
X362540Y792566D02*
X358270D01*
Y785046D01*
X362540D01*
Y792566D01*
D02*
G37*
G36*
X355730D02*
X351460D01*
Y785046D01*
X355730D01*
Y792566D01*
D02*
G37*
G36*
X362540Y782506D02*
X358270D01*
Y774986D01*
X362540D01*
Y782506D01*
D02*
G37*
G36*
X355730D02*
X351460D01*
Y774986D01*
X355730D01*
Y782506D01*
D02*
G37*
G36*
X343550Y771826D02*
X333950D01*
Y768285D01*
X330515D01*
X330123Y768547D01*
X328250Y768920D01*
X326377Y768547D01*
X324789Y767487D01*
X323728Y765899D01*
X323356Y764026D01*
X323728Y762153D01*
X324789Y760565D01*
X326377Y759504D01*
X328250Y759132D01*
X330123Y759504D01*
X330141Y759517D01*
X333950D01*
Y755726D01*
X343550D01*
Y771826D01*
D02*
G37*
G36*
X362290Y772566D02*
X358020D01*
Y765046D01*
X362290D01*
Y772566D01*
D02*
G37*
G36*
X355480D02*
X351210D01*
Y765046D01*
X355480D01*
Y772566D01*
D02*
G37*
G36*
X1000000Y821898D02*
X995010Y821506D01*
X990143Y820337D01*
X985518Y818422D01*
X981251Y815806D01*
X977445Y812555D01*
X974194Y808749D01*
X971578Y804482D01*
X969663Y799857D01*
X968494Y794990D01*
X968102Y790000D01*
X968494Y785010D01*
X969663Y780143D01*
X971578Y775518D01*
X974194Y771251D01*
X977445Y767445D01*
X981251Y764194D01*
X985518Y761578D01*
X990143Y759663D01*
X995010Y758494D01*
X1000000Y758102D01*
X1004990Y758494D01*
X1009857Y759663D01*
X1014482Y761578D01*
X1018749Y764194D01*
X1022555Y767445D01*
X1025806Y771251D01*
X1028422Y775518D01*
X1030337Y780143D01*
X1031506Y785010D01*
X1031898Y790000D01*
X1031506Y794990D01*
X1030337Y799857D01*
X1028422Y804482D01*
X1025806Y808749D01*
X1022555Y812555D01*
X1018749Y815806D01*
X1014482Y818422D01*
X1009857Y820337D01*
X1004990Y821506D01*
X1000000Y821898D01*
D02*
G37*
G36*
X362290Y762506D02*
X358020D01*
Y754986D01*
X362290D01*
Y762506D01*
D02*
G37*
G36*
X355480D02*
X351210D01*
Y754986D01*
X355480D01*
Y762506D01*
D02*
G37*
G36*
X191020Y758646D02*
Y754520D01*
X195146D01*
X194968Y755412D01*
X193744Y757244D01*
X191912Y758469D01*
X191020Y758646D01*
D02*
G37*
G36*
X188480D02*
X187588Y758469D01*
X185756Y757244D01*
X184531Y755412D01*
X184354Y754520D01*
X188480D01*
Y758646D01*
D02*
G37*
G36*
X60000Y811898D02*
X55010Y811506D01*
X50143Y810337D01*
X45518Y808422D01*
X41251Y805806D01*
X37445Y802555D01*
X34194Y798749D01*
X31578Y794482D01*
X29663Y789857D01*
X28494Y784990D01*
X28102Y780000D01*
X28494Y775010D01*
X29663Y770143D01*
X31578Y765518D01*
X34194Y761251D01*
X37445Y757445D01*
X41251Y754194D01*
X45518Y751578D01*
X50143Y749663D01*
X55010Y748494D01*
X60000Y748102D01*
X64990Y748494D01*
X69857Y749663D01*
X74482Y751578D01*
X78749Y754194D01*
X82556Y757445D01*
X85806Y761251D01*
X88422Y765518D01*
X90337Y770143D01*
X91506Y775010D01*
X91898Y780000D01*
X91506Y784990D01*
X90337Y789857D01*
X88422Y794482D01*
X85806Y798749D01*
X82556Y802555D01*
X78749Y805806D01*
X74482Y808422D01*
X69857Y810337D01*
X64990Y811506D01*
X60000Y811898D01*
D02*
G37*
G36*
X195146Y751980D02*
X191020D01*
Y747854D01*
X191912Y748031D01*
X193744Y749256D01*
X194968Y751088D01*
X195146Y751980D01*
D02*
G37*
G36*
X188480D02*
X184354D01*
X184531Y751088D01*
X185756Y749256D01*
X187588Y748031D01*
X188480Y747854D01*
Y751980D01*
D02*
G37*
G36*
X602290Y749316D02*
X572520D01*
Y734046D01*
X602290D01*
Y749316D01*
D02*
G37*
G36*
X569980D02*
X540210D01*
Y734046D01*
X569980D01*
Y749316D01*
D02*
G37*
G36*
X602290Y731506D02*
X572520D01*
Y716236D01*
X602290D01*
Y731506D01*
D02*
G37*
G36*
X569980D02*
X540210D01*
Y716236D01*
X569980D01*
Y731506D01*
D02*
G37*
G36*
X815550Y753576D02*
X776950D01*
Y711976D01*
X815550D01*
Y727731D01*
X824700D01*
X826475Y727965D01*
X828129Y728650D01*
X829550Y729740D01*
X830640Y731161D01*
X831325Y732815D01*
X831559Y734590D01*
X831325Y736365D01*
X830640Y738019D01*
X829550Y739440D01*
X828129Y740530D01*
X826475Y741215D01*
X824700Y741449D01*
X815550D01*
Y753576D01*
D02*
G37*
G36*
X143670Y715218D02*
Y705520D01*
X153368D01*
X153156Y707132D01*
X152043Y709818D01*
X150274Y712124D01*
X147968Y713893D01*
X145282Y715006D01*
X143670Y715218D01*
D02*
G37*
G36*
X141130D02*
X139518Y715006D01*
X136832Y713893D01*
X134526Y712124D01*
X132757Y709818D01*
X131644Y707132D01*
X131432Y705520D01*
X141130D01*
Y715218D01*
D02*
G37*
G36*
X363500Y704920D02*
X361627Y704548D01*
X360039Y703487D01*
X359635Y702881D01*
X343922D01*
X342829Y702663D01*
X341903Y702045D01*
X340731Y700873D01*
X340112Y699947D01*
X339895Y698854D01*
Y632891D01*
X339289Y632487D01*
X338228Y630899D01*
X337856Y629026D01*
X338228Y627153D01*
X339289Y625565D01*
X340877Y624505D01*
X342750Y624132D01*
X344623Y624505D01*
X346211Y625565D01*
X347271Y627153D01*
X347644Y629026D01*
X347271Y630899D01*
X346211Y632487D01*
X345605Y632891D01*
Y697171D01*
X359635D01*
X360039Y696565D01*
X361627Y695505D01*
X363500Y695132D01*
X365373Y695505D01*
X366961Y696565D01*
X368022Y698153D01*
X368394Y700026D01*
X368022Y701899D01*
X366961Y703487D01*
X365373Y704548D01*
X363500Y704920D01*
D02*
G37*
G36*
X127300Y714550D02*
X106700D01*
Y693950D01*
X127300D01*
Y714550D01*
D02*
G37*
G36*
X153368Y702980D02*
X143670D01*
Y693282D01*
X145282Y693494D01*
X147968Y694607D01*
X150274Y696376D01*
X152043Y698682D01*
X153156Y701368D01*
X153368Y702980D01*
D02*
G37*
G36*
X141130D02*
X131432D01*
X131644Y701368D01*
X132757Y698682D01*
X134526Y696376D01*
X136832Y694607D01*
X139518Y693494D01*
X141130Y693282D01*
Y702980D01*
D02*
G37*
G36*
X143670Y689818D02*
Y680120D01*
X153368D01*
X153156Y681732D01*
X152043Y684418D01*
X150274Y686724D01*
X147968Y688493D01*
X145282Y689606D01*
X143670Y689818D01*
D02*
G37*
G36*
X141130D02*
X139518Y689606D01*
X136832Y688493D01*
X134526Y686724D01*
X132757Y684418D01*
X131644Y681732D01*
X131432Y680120D01*
X141130D01*
Y689818D01*
D02*
G37*
G36*
X117000Y689239D02*
X114311Y688885D01*
X111806Y687847D01*
X109654Y686196D01*
X108003Y684044D01*
X106965Y681539D01*
X106611Y678850D01*
X106965Y676161D01*
X108003Y673656D01*
X109654Y671504D01*
X111806Y669853D01*
X114311Y668815D01*
X117000Y668461D01*
X119689Y668815D01*
X122194Y669853D01*
X124346Y671504D01*
X125997Y673656D01*
X127035Y676161D01*
X127389Y678850D01*
X127035Y681539D01*
X125997Y684044D01*
X124346Y686196D01*
X122194Y687847D01*
X119689Y688885D01*
X117000Y689239D01*
D02*
G37*
G36*
X153368Y677580D02*
X143670D01*
Y667882D01*
X145282Y668094D01*
X147968Y669207D01*
X150274Y670976D01*
X152043Y673282D01*
X153156Y675968D01*
X153368Y677580D01*
D02*
G37*
G36*
X141130D02*
X131432D01*
X131644Y675968D01*
X132757Y673282D01*
X134526Y670976D01*
X136832Y669207D01*
X139518Y668094D01*
X141130Y667882D01*
Y677580D01*
D02*
G37*
G36*
X368770Y664040D02*
Y659914D01*
X372896D01*
X372719Y660806D01*
X371494Y662638D01*
X369662Y663863D01*
X368770Y664040D01*
D02*
G37*
G36*
X366230D02*
X365338Y663863D01*
X363506Y662638D01*
X362281Y660806D01*
X362104Y659914D01*
X366230D01*
Y664040D01*
D02*
G37*
G36*
X143670Y664418D02*
Y654720D01*
X153368D01*
X153156Y656332D01*
X152043Y659018D01*
X150274Y661324D01*
X147968Y663093D01*
X145282Y664206D01*
X143670Y664418D01*
D02*
G37*
G36*
X141130D02*
X139518Y664206D01*
X136832Y663093D01*
X134526Y661324D01*
X132757Y659018D01*
X131644Y656332D01*
X131432Y654720D01*
X141130D01*
Y664418D01*
D02*
G37*
G36*
X372896Y657374D02*
X368770D01*
Y653248D01*
X369662Y653425D01*
X371494Y654650D01*
X372719Y656482D01*
X372896Y657374D01*
D02*
G37*
G36*
X366230D02*
X362104D01*
X362281Y656482D01*
X363506Y654650D01*
X365338Y653425D01*
X366230Y653248D01*
Y657374D01*
D02*
G37*
G36*
X117000Y663839D02*
X114311Y663485D01*
X111806Y662447D01*
X109654Y660796D01*
X108003Y658644D01*
X106965Y656139D01*
X106611Y653450D01*
X106965Y650761D01*
X108003Y648256D01*
X109654Y646104D01*
X111806Y644453D01*
X114311Y643415D01*
X117000Y643061D01*
X119689Y643415D01*
X122194Y644453D01*
X124346Y646104D01*
X125997Y648256D01*
X127035Y650761D01*
X127389Y653450D01*
X127035Y656139D01*
X125997Y658644D01*
X124346Y660796D01*
X122194Y662447D01*
X119689Y663485D01*
X117000Y663839D01*
D02*
G37*
G36*
X153368Y652180D02*
X143670D01*
Y642482D01*
X145282Y642694D01*
X147968Y643807D01*
X150274Y645576D01*
X152043Y647882D01*
X153156Y650568D01*
X153368Y652180D01*
D02*
G37*
G36*
X141130D02*
X131432D01*
X131644Y650568D01*
X132757Y647882D01*
X134526Y645576D01*
X136832Y643807D01*
X139518Y642694D01*
X141130Y642482D01*
Y652180D01*
D02*
G37*
G36*
X391376Y693764D02*
X389503Y693391D01*
X387915Y692331D01*
X386855Y690743D01*
X386482Y688870D01*
X386855Y686997D01*
X387915Y685409D01*
X388521Y685005D01*
Y645491D01*
X387915Y645087D01*
X386855Y643499D01*
X386482Y641626D01*
X386855Y639753D01*
X387915Y638165D01*
X389503Y637104D01*
X391376Y636732D01*
X393249Y637104D01*
X394837Y638165D01*
X395897Y639753D01*
X396270Y641626D01*
X395897Y643499D01*
X394837Y645087D01*
X394231Y645491D01*
Y685005D01*
X394837Y685409D01*
X395897Y686997D01*
X396270Y688870D01*
X395897Y690743D01*
X394837Y692331D01*
X393249Y693391D01*
X391376Y693764D01*
D02*
G37*
G36*
X483062Y694026D02*
X481189Y693653D01*
X479601Y692593D01*
X478540Y691005D01*
X478168Y689132D01*
X478540Y687259D01*
X479601Y685671D01*
X480207Y685267D01*
Y639641D01*
X479601Y639237D01*
X478540Y637649D01*
X478168Y635776D01*
X478540Y633903D01*
X479601Y632315D01*
X481189Y631255D01*
X483062Y630882D01*
X484935Y631255D01*
X486523Y632315D01*
X487584Y633903D01*
X487956Y635776D01*
X487584Y637649D01*
X486523Y639237D01*
X485917Y639641D01*
Y685267D01*
X486523Y685671D01*
X487584Y687259D01*
X487956Y689132D01*
X487584Y691005D01*
X486523Y692593D01*
X484935Y693653D01*
X483062Y694026D01*
D02*
G37*
G36*
X143670Y639018D02*
Y629320D01*
X153368D01*
X153156Y630932D01*
X152043Y633618D01*
X150274Y635924D01*
X147968Y637693D01*
X145282Y638806D01*
X143670Y639018D01*
D02*
G37*
G36*
X141130D02*
X139518Y638806D01*
X136832Y637693D01*
X134526Y635924D01*
X132757Y633618D01*
X131644Y630932D01*
X131432Y629320D01*
X141130D01*
Y639018D01*
D02*
G37*
G36*
X117000Y638439D02*
X114311Y638085D01*
X111806Y637047D01*
X109654Y635396D01*
X108003Y633244D01*
X106965Y630739D01*
X106611Y628050D01*
X106965Y625361D01*
X108003Y622856D01*
X109654Y620704D01*
X111806Y619053D01*
X114311Y618015D01*
X117000Y617661D01*
X119689Y618015D01*
X122194Y619053D01*
X124346Y620704D01*
X125997Y622856D01*
X127035Y625361D01*
X127389Y628050D01*
X127035Y630739D01*
X125997Y633244D01*
X124346Y635396D01*
X122194Y637047D01*
X119689Y638085D01*
X117000Y638439D01*
D02*
G37*
G36*
X153368Y626780D02*
X143670D01*
Y617082D01*
X145282Y617294D01*
X147968Y618407D01*
X150274Y620176D01*
X152043Y622482D01*
X153156Y625168D01*
X153368Y626780D01*
D02*
G37*
G36*
X141130D02*
X131432D01*
X131644Y625168D01*
X132757Y622482D01*
X134526Y620176D01*
X136832Y618407D01*
X139518Y617294D01*
X141130Y617082D01*
Y626780D01*
D02*
G37*
G36*
X580860Y646520D02*
X578987Y646148D01*
X577399Y645087D01*
X576339Y643499D01*
X575966Y641626D01*
X576339Y639753D01*
X577399Y638165D01*
X578005Y637761D01*
Y612873D01*
X576735Y612442D01*
X575446Y614122D01*
X573294Y615773D01*
X570789Y616811D01*
X568100Y617165D01*
X565411Y616811D01*
X562906Y615773D01*
X560754Y614122D01*
X559103Y611970D01*
X558065Y609465D01*
X557711Y606776D01*
X558065Y604087D01*
X559103Y601582D01*
X560754Y599430D01*
X562906Y597779D01*
X565411Y596741D01*
X568100Y596387D01*
X570789Y596741D01*
X573294Y597779D01*
X575446Y599430D01*
X576735Y601110D01*
X578005Y600679D01*
Y474948D01*
X567919Y464862D01*
X567300Y463936D01*
X567083Y462843D01*
Y382227D01*
X565813Y382102D01*
X565705Y382644D01*
X565448Y383938D01*
X564224Y385770D01*
X562391Y386995D01*
X561499Y387172D01*
Y381776D01*
Y376380D01*
X562391Y376557D01*
X564224Y377782D01*
X565448Y379614D01*
X565705Y380908D01*
X565813Y381450D01*
X567083Y381325D01*
Y319355D01*
X566477Y318951D01*
X565416Y317363D01*
X565044Y315490D01*
X565416Y313617D01*
X566477Y312029D01*
X568065Y310968D01*
X569938Y310596D01*
X571811Y310968D01*
X573399Y312029D01*
X574459Y313617D01*
X574832Y315490D01*
X574459Y317363D01*
X573399Y318951D01*
X572793Y319355D01*
Y347143D01*
X574063Y347529D01*
X574539Y346815D01*
X576127Y345755D01*
X578000Y345382D01*
X579873Y345755D01*
X581461Y346815D01*
X582522Y348403D01*
X582894Y350276D01*
X582522Y352149D01*
X582384Y352354D01*
Y382698D01*
X582522Y382903D01*
X582894Y384776D01*
X582522Y386649D01*
X581461Y388237D01*
X579873Y389297D01*
X578000Y389670D01*
X576127Y389297D01*
X574539Y388237D01*
X574063Y387523D01*
X572793Y387909D01*
Y461661D01*
X582879Y471746D01*
X583498Y472673D01*
X583715Y473765D01*
Y600522D01*
X584985Y600954D01*
X586154Y599430D01*
X588306Y597779D01*
X590811Y596741D01*
X593500Y596387D01*
X596189Y596741D01*
X598694Y597779D01*
X600846Y599430D01*
X602497Y601582D01*
X603535Y604087D01*
X603889Y606776D01*
X603535Y609465D01*
X602497Y611970D01*
X600846Y614122D01*
X598694Y615773D01*
X596189Y616811D01*
X593500Y617165D01*
X590811Y616811D01*
X588306Y615773D01*
X586154Y614122D01*
X584985Y612598D01*
X583715Y613030D01*
Y637761D01*
X584321Y638165D01*
X585382Y639753D01*
X585754Y641626D01*
X585382Y643499D01*
X584321Y645087D01*
X582733Y646148D01*
X580860Y646520D01*
D02*
G37*
G36*
X192750Y616894D02*
X190877Y616521D01*
X189289Y615461D01*
X188228Y613873D01*
X187856Y612000D01*
X188228Y610127D01*
X189289Y608539D01*
X189520Y608385D01*
Y601698D01*
X188250Y601019D01*
X187873Y601272D01*
X186000Y601644D01*
X184127Y601272D01*
X182539Y600211D01*
X181479Y598623D01*
X181106Y596750D01*
X181479Y594877D01*
X182539Y593289D01*
X183345Y592751D01*
Y566998D01*
X183289Y566961D01*
X182229Y565373D01*
X181856Y563500D01*
X182229Y561627D01*
X183289Y560039D01*
X184020Y559551D01*
Y468782D01*
X183539Y468461D01*
X182479Y466873D01*
X182106Y465000D01*
X182479Y463127D01*
X183539Y461539D01*
X185127Y460479D01*
X187000Y460106D01*
X188873Y460479D01*
X190461Y461539D01*
X191521Y463127D01*
X191894Y465000D01*
X191670Y466125D01*
X192704Y467215D01*
X193250Y467106D01*
X195123Y467478D01*
X196711Y468539D01*
X197771Y470127D01*
X197876Y470654D01*
X199287Y471239D01*
X199677Y470979D01*
X201550Y470606D01*
X203423Y470979D01*
X205011Y472039D01*
X206071Y473627D01*
X206444Y475500D01*
X206071Y477373D01*
X205011Y478961D01*
X204480Y479315D01*
Y577634D01*
X205461Y578289D01*
X206521Y579877D01*
X206894Y581750D01*
X206521Y583623D01*
X205461Y585211D01*
X203873Y586272D01*
X202000Y586644D01*
X200127Y586272D01*
X198539Y585211D01*
X197479Y583623D01*
X197106Y581750D01*
X197479Y579877D01*
X198539Y578289D01*
X198770Y578135D01*
Y479415D01*
X198089Y478961D01*
X197375Y477891D01*
X196105Y478276D01*
Y569328D01*
X196001Y569849D01*
X196521Y570627D01*
X196894Y572500D01*
X196521Y574373D01*
X195461Y575961D01*
X195230Y576115D01*
Y607884D01*
X196211Y608539D01*
X197271Y610127D01*
X197644Y612000D01*
X197271Y613873D01*
X196211Y615461D01*
X194623Y616521D01*
X192750Y616894D01*
D02*
G37*
G36*
X771300Y617165D02*
X768611Y616811D01*
X766106Y615773D01*
X763954Y614122D01*
X762303Y611970D01*
X761265Y609465D01*
X760911Y606776D01*
X761265Y604087D01*
X762303Y601582D01*
X763954Y599430D01*
X766106Y597779D01*
X768611Y596741D01*
X771300Y596387D01*
X773989Y596741D01*
X776494Y597779D01*
X778646Y599430D01*
X780297Y601582D01*
X781335Y604087D01*
X781689Y606776D01*
X781335Y609465D01*
X780297Y611970D01*
X778646Y614122D01*
X776494Y615773D01*
X773989Y616811D01*
X771300Y617165D01*
D02*
G37*
G36*
X745900D02*
X743211Y616811D01*
X740706Y615773D01*
X738554Y614122D01*
X736903Y611970D01*
X735865Y609465D01*
X735511Y606776D01*
X735865Y604087D01*
X736903Y601582D01*
X738554Y599430D01*
X740706Y597779D01*
X743211Y596741D01*
X745900Y596387D01*
X748589Y596741D01*
X751094Y597779D01*
X753246Y599430D01*
X754897Y601582D01*
X755935Y604087D01*
X756289Y606776D01*
X755935Y609465D01*
X754897Y611970D01*
X753246Y614122D01*
X751094Y615773D01*
X748589Y616811D01*
X745900Y617165D01*
D02*
G37*
G36*
X720500D02*
X717811Y616811D01*
X715306Y615773D01*
X713154Y614122D01*
X711503Y611970D01*
X710465Y609465D01*
X710111Y606776D01*
X710465Y604087D01*
X711503Y601582D01*
X713154Y599430D01*
X715306Y597779D01*
X717811Y596741D01*
X720500Y596387D01*
X723189Y596741D01*
X725694Y597779D01*
X727846Y599430D01*
X729497Y601582D01*
X730535Y604087D01*
X730889Y606776D01*
X730535Y609465D01*
X729497Y611970D01*
X727846Y614122D01*
X725694Y615773D01*
X723189Y616811D01*
X720500Y617165D01*
D02*
G37*
G36*
X695100D02*
X692411Y616811D01*
X689906Y615773D01*
X687754Y614122D01*
X686103Y611970D01*
X685065Y609465D01*
X684711Y606776D01*
X685065Y604087D01*
X686103Y601582D01*
X687754Y599430D01*
X689906Y597779D01*
X692411Y596741D01*
X695100Y596387D01*
X697789Y596741D01*
X700294Y597779D01*
X702446Y599430D01*
X704097Y601582D01*
X705135Y604087D01*
X705489Y606776D01*
X705135Y609465D01*
X704097Y611970D01*
X702446Y614122D01*
X700294Y615773D01*
X697789Y616811D01*
X695100Y617165D01*
D02*
G37*
G36*
X669700D02*
X667011Y616811D01*
X664506Y615773D01*
X662354Y614122D01*
X660703Y611970D01*
X659665Y609465D01*
X659311Y606776D01*
X659665Y604087D01*
X660703Y601582D01*
X662354Y599430D01*
X664506Y597779D01*
X667011Y596741D01*
X669700Y596387D01*
X672389Y596741D01*
X674894Y597779D01*
X677046Y599430D01*
X678697Y601582D01*
X679735Y604087D01*
X680089Y606776D01*
X679735Y609465D01*
X678697Y611970D01*
X677046Y614122D01*
X674894Y615773D01*
X672389Y616811D01*
X669700Y617165D01*
D02*
G37*
G36*
X644300D02*
X641611Y616811D01*
X639106Y615773D01*
X636954Y614122D01*
X635303Y611970D01*
X634265Y609465D01*
X633911Y606776D01*
X634265Y604087D01*
X635303Y601582D01*
X636954Y599430D01*
X639106Y597779D01*
X641611Y596741D01*
X644300Y596387D01*
X646989Y596741D01*
X649494Y597779D01*
X651646Y599430D01*
X653297Y601582D01*
X654335Y604087D01*
X654689Y606776D01*
X654335Y609465D01*
X653297Y611970D01*
X651646Y614122D01*
X649494Y615773D01*
X646989Y616811D01*
X644300Y617165D01*
D02*
G37*
G36*
X618900D02*
X616211Y616811D01*
X613706Y615773D01*
X611554Y614122D01*
X609903Y611970D01*
X608865Y609465D01*
X608511Y606776D01*
X608865Y604087D01*
X609903Y601582D01*
X611554Y599430D01*
X613706Y597779D01*
X616211Y596741D01*
X618900Y596387D01*
X621589Y596741D01*
X624094Y597779D01*
X626246Y599430D01*
X627897Y601582D01*
X628935Y604087D01*
X629289Y606776D01*
X628935Y609465D01*
X627897Y611970D01*
X626246Y614122D01*
X624094Y615773D01*
X621589Y616811D01*
X618900Y617165D01*
D02*
G37*
G36*
X542700D02*
X540011Y616811D01*
X537506Y615773D01*
X535354Y614122D01*
X533703Y611970D01*
X532665Y609465D01*
X532311Y606776D01*
X532665Y604087D01*
X533703Y601582D01*
X535354Y599430D01*
X537506Y597779D01*
X540011Y596741D01*
X542700Y596387D01*
X545389Y596741D01*
X547894Y597779D01*
X550046Y599430D01*
X551697Y601582D01*
X552735Y604087D01*
X553089Y606776D01*
X552735Y609465D01*
X551697Y611970D01*
X550046Y614122D01*
X547894Y615773D01*
X545389Y616811D01*
X542700Y617165D01*
D02*
G37*
G36*
X517300D02*
X514611Y616811D01*
X512106Y615773D01*
X509954Y614122D01*
X508303Y611970D01*
X507265Y609465D01*
X506911Y606776D01*
X507265Y604087D01*
X508303Y601582D01*
X509954Y599430D01*
X512106Y597779D01*
X514611Y596741D01*
X517300Y596387D01*
X519989Y596741D01*
X522494Y597779D01*
X524646Y599430D01*
X526297Y601582D01*
X527335Y604087D01*
X527689Y606776D01*
X527335Y609465D01*
X526297Y611970D01*
X524646Y614122D01*
X522494Y615773D01*
X519989Y616811D01*
X517300Y617165D01*
D02*
G37*
G36*
X491900D02*
X489211Y616811D01*
X486706Y615773D01*
X484554Y614122D01*
X482903Y611970D01*
X481865Y609465D01*
X481511Y606776D01*
X481865Y604087D01*
X482903Y601582D01*
X484554Y599430D01*
X486706Y597779D01*
X489211Y596741D01*
X491900Y596387D01*
X494589Y596741D01*
X497094Y597779D01*
X499246Y599430D01*
X500897Y601582D01*
X501935Y604087D01*
X502289Y606776D01*
X501935Y609465D01*
X500897Y611970D01*
X499246Y614122D01*
X497094Y615773D01*
X494589Y616811D01*
X491900Y617165D01*
D02*
G37*
G36*
X151520Y579896D02*
Y575770D01*
X155646D01*
X155469Y576662D01*
X154244Y578494D01*
X152412Y579719D01*
X151520Y579896D01*
D02*
G37*
G36*
X148980D02*
X148088Y579719D01*
X146256Y578494D01*
X145031Y576662D01*
X144854Y575770D01*
X148980D01*
Y579896D01*
D02*
G37*
G36*
X155646Y573230D02*
X151520D01*
Y569104D01*
X152412Y569282D01*
X154244Y570506D01*
X155469Y572338D01*
X155646Y573230D01*
D02*
G37*
G36*
X148980D02*
X144854D01*
X145031Y572338D01*
X146256Y570506D01*
X148088Y569282D01*
X148980Y569104D01*
Y573230D01*
D02*
G37*
G36*
X290770Y558172D02*
Y554046D01*
X294896D01*
X294719Y554938D01*
X293494Y556770D01*
X291662Y557995D01*
X290770Y558172D01*
D02*
G37*
G36*
X288230D02*
X287338Y557995D01*
X285506Y556770D01*
X284281Y554938D01*
X284104Y554046D01*
X288230D01*
Y558172D01*
D02*
G37*
G36*
X294896Y551506D02*
X290770D01*
Y547380D01*
X291662Y547557D01*
X293494Y548782D01*
X294719Y550614D01*
X294896Y551506D01*
D02*
G37*
G36*
X288230D02*
X284104D01*
X284281Y550614D01*
X285506Y548782D01*
X287338Y547557D01*
X288230Y547380D01*
Y551506D01*
D02*
G37*
G36*
X163000Y604144D02*
X161127Y603772D01*
X159539Y602711D01*
X158478Y601123D01*
X158106Y599250D01*
X158478Y597377D01*
X159539Y595789D01*
X161127Y594729D01*
X163000Y594356D01*
X163715Y594498D01*
X173345Y584868D01*
Y547711D01*
X172075Y547127D01*
X170400Y547460D01*
X168527Y547088D01*
X166939Y546027D01*
X165879Y544439D01*
X165506Y542566D01*
X165879Y540693D01*
X166939Y539105D01*
X167545Y538701D01*
Y503182D01*
X164994Y500631D01*
X129997D01*
X129589Y501833D01*
X129689Y501911D01*
X131221Y503907D01*
X134064D01*
X134064Y503907D01*
X136327Y504357D01*
X138245Y505639D01*
X142931Y510325D01*
X142932Y510325D01*
X144213Y512244D01*
X144664Y514507D01*
Y523636D01*
X145784Y524235D01*
X146088Y524031D01*
X146980Y523854D01*
Y529250D01*
Y534646D01*
X146088Y534469D01*
X145784Y534265D01*
X144664Y534864D01*
Y548198D01*
X144213Y550461D01*
X142932Y552380D01*
X142931Y552380D01*
X138245Y557066D01*
X136327Y558348D01*
X134064Y558798D01*
X134064Y558798D01*
X83992D01*
X81729Y558348D01*
X79811Y557066D01*
X79811Y557066D01*
X75124Y552380D01*
X73843Y550461D01*
X73392Y548198D01*
X73392Y548198D01*
Y284012D01*
X73392Y284012D01*
X73843Y281749D01*
X75124Y279831D01*
X79811Y275145D01*
X79811Y275144D01*
X81729Y273862D01*
X83992Y273412D01*
X116786D01*
Y258736D01*
X115564Y257514D01*
X107800D01*
Y261900D01*
X87200D01*
Y241300D01*
X107800D01*
Y245686D01*
X118014D01*
X118014Y245686D01*
X120277Y246136D01*
X122195Y247418D01*
X126882Y252105D01*
X126882Y252105D01*
X128163Y254023D01*
X128614Y256286D01*
Y279326D01*
Y295900D01*
X132500D01*
Y301586D01*
X186336D01*
Y43000D01*
X186336Y43000D01*
X186786Y40737D01*
X188068Y38818D01*
X203292Y23595D01*
X203292Y23594D01*
X205211Y22313D01*
X207474Y21862D01*
X229055D01*
X230154Y20430D01*
X232306Y18779D01*
X234811Y17741D01*
X237500Y17387D01*
X240189Y17741D01*
X242694Y18779D01*
X244846Y20430D01*
X246497Y22582D01*
X246621Y22882D01*
X293379D01*
X293503Y22582D01*
X295154Y20430D01*
X297306Y18779D01*
X299811Y17741D01*
X302500Y17387D01*
X305189Y17741D01*
X307694Y18779D01*
X309846Y20430D01*
X311497Y22582D01*
X312535Y25087D01*
X312889Y27776D01*
X312535Y30465D01*
X311497Y32970D01*
X309846Y35122D01*
X307694Y36773D01*
X305189Y37811D01*
X302500Y38165D01*
X299811Y37811D01*
X297306Y36773D01*
X295154Y35122D01*
X293503Y32970D01*
X293379Y32670D01*
X246621D01*
X246497Y32970D01*
X244846Y35122D01*
X242694Y36773D01*
X240189Y37811D01*
X237500Y38165D01*
X234811Y37811D01*
X232306Y36773D01*
X230154Y35122D01*
X229055Y33690D01*
X209923D01*
X198164Y45450D01*
Y301819D01*
X199369Y303390D01*
X200190Y305372D01*
X200470Y307500D01*
X200190Y309628D01*
X199369Y311610D01*
X198063Y313313D01*
X196360Y314619D01*
X194378Y315440D01*
X192250Y315720D01*
X190122Y315440D01*
X188140Y314619D01*
X186569Y313414D01*
X132500D01*
Y315500D01*
X112900D01*
Y295900D01*
X116786D01*
Y285240D01*
X86442D01*
X85220Y286462D01*
Y545749D01*
X86442Y546971D01*
X131614D01*
X132836Y545749D01*
Y540490D01*
X131566Y540059D01*
X130217Y541817D01*
X128015Y543507D01*
X125451Y544569D01*
X123970Y544764D01*
Y534300D01*
Y523836D01*
X125451Y524031D01*
X128015Y525093D01*
X130217Y526783D01*
X131566Y528541D01*
X132836Y528110D01*
Y516956D01*
X131614Y515734D01*
X129809D01*
X129689Y515889D01*
X127642Y517460D01*
X125258Y518448D01*
X122700Y518784D01*
X120142Y518448D01*
X117758Y517460D01*
X115711Y515889D01*
X114140Y513842D01*
X113152Y511458D01*
X112816Y508900D01*
X113152Y506342D01*
X114140Y503958D01*
X115711Y501911D01*
X115811Y501833D01*
X115403Y500631D01*
X110050D01*
X108958Y500414D01*
X108031Y499795D01*
X100867Y492630D01*
X99858Y493048D01*
X97300Y493385D01*
X94742Y493048D01*
X92358Y492060D01*
X90311Y490489D01*
X88740Y488442D01*
X87752Y486058D01*
X87416Y483500D01*
X87752Y480942D01*
X88740Y478558D01*
X90311Y476511D01*
X92358Y474940D01*
X94742Y473952D01*
X97300Y473615D01*
X99858Y473952D01*
X102242Y474940D01*
X104289Y476511D01*
X105860Y478558D01*
X106848Y480942D01*
X107184Y483500D01*
X106848Y486058D01*
X105860Y488442D01*
X105380Y489068D01*
X111233Y494921D01*
X166176D01*
X167269Y495139D01*
X168195Y495757D01*
X172075Y499637D01*
X173345Y499151D01*
Y469774D01*
X173563Y468681D01*
X173895Y468183D01*
Y460865D01*
X173289Y460461D01*
X172229Y458873D01*
X171856Y457000D01*
X172229Y455127D01*
X173289Y453539D01*
X174877Y452478D01*
X176750Y452106D01*
X178623Y452478D01*
X180211Y453539D01*
X181271Y455127D01*
X181644Y457000D01*
X181271Y458873D01*
X180211Y460461D01*
X179605Y460865D01*
Y469224D01*
X179387Y470316D01*
X179055Y470814D01*
Y586050D01*
X178838Y587142D01*
X178219Y588069D01*
X167752Y598535D01*
X167894Y599250D01*
X167521Y601123D01*
X166461Y602711D01*
X164873Y603772D01*
X163000Y604144D01*
D02*
G37*
G36*
X796700Y617165D02*
X794011Y616811D01*
X791506Y615773D01*
X789354Y614122D01*
X787703Y611970D01*
X786665Y609465D01*
X786311Y606776D01*
X786665Y604087D01*
X787703Y601582D01*
X789354Y599430D01*
X791506Y597779D01*
X793845Y596810D01*
Y553158D01*
X786464Y545778D01*
X785750Y545920D01*
X783877Y545547D01*
X782289Y544487D01*
X781228Y542899D01*
X780856Y541026D01*
X781228Y539153D01*
X782289Y537565D01*
X782910Y537151D01*
X782524Y535881D01*
X746750D01*
X745658Y535663D01*
X744731Y535045D01*
X723465Y513778D01*
X722750Y513920D01*
X720877Y513548D01*
X719289Y512487D01*
X718229Y510899D01*
X717856Y509026D01*
X718229Y507153D01*
X719289Y505565D01*
X720877Y504505D01*
X722750Y504132D01*
X724623Y504505D01*
X726211Y505565D01*
X727271Y507153D01*
X727644Y509026D01*
X727502Y509740D01*
X747933Y530171D01*
X940755D01*
X942127Y529254D01*
X944000Y528882D01*
X945873Y529254D01*
X947461Y530315D01*
X948521Y531903D01*
X948894Y533776D01*
X948521Y535649D01*
X947461Y537237D01*
X945873Y538298D01*
X944000Y538670D01*
X942127Y538298D01*
X940539Y537237D01*
X939633Y535881D01*
X788976D01*
X788590Y537151D01*
X789211Y537565D01*
X790272Y539153D01*
X790644Y541026D01*
X790502Y541740D01*
X798719Y549957D01*
X799337Y550883D01*
X799555Y551976D01*
Y596810D01*
X801894Y597779D01*
X804046Y599430D01*
X805697Y601582D01*
X806735Y604087D01*
X807089Y606776D01*
X806735Y609465D01*
X805697Y611970D01*
X804046Y614122D01*
X801894Y615773D01*
X799389Y616811D01*
X796700Y617165D01*
D02*
G37*
G36*
X121430Y544764D02*
X119949Y544569D01*
X117385Y543507D01*
X115183Y541817D01*
X113493Y539616D01*
X112431Y537052D01*
X112236Y535570D01*
X121430D01*
Y544764D01*
D02*
G37*
G36*
X353770Y538172D02*
Y534046D01*
X357896D01*
X357719Y534938D01*
X356494Y536770D01*
X354662Y537995D01*
X353770Y538172D01*
D02*
G37*
G36*
X351230D02*
X350338Y537995D01*
X348506Y536770D01*
X347281Y534938D01*
X347104Y534046D01*
X351230D01*
Y538172D01*
D02*
G37*
G36*
X554520Y536172D02*
Y532046D01*
X558646D01*
X558469Y532938D01*
X557244Y534770D01*
X555412Y535995D01*
X554520Y536172D01*
D02*
G37*
G36*
X551980D02*
X551088Y535995D01*
X549256Y534770D01*
X548031Y532938D01*
X547854Y532046D01*
X551980D01*
Y536172D01*
D02*
G37*
G36*
X149520Y534646D02*
Y530520D01*
X153646D01*
X153469Y531412D01*
X152244Y533244D01*
X150412Y534469D01*
X149520Y534646D01*
D02*
G37*
G36*
X357896Y531506D02*
X353770D01*
Y527380D01*
X354662Y527557D01*
X356494Y528782D01*
X357719Y530614D01*
X357896Y531506D01*
D02*
G37*
G36*
X351230D02*
X347104D01*
X347281Y530614D01*
X348506Y528782D01*
X350338Y527557D01*
X351230Y527380D01*
Y531506D01*
D02*
G37*
G36*
X490520Y530172D02*
Y526046D01*
X494646D01*
X494469Y526938D01*
X493244Y528770D01*
X491412Y529995D01*
X490520Y530172D01*
D02*
G37*
G36*
X487980D02*
X487088Y529995D01*
X485256Y528770D01*
X484031Y526938D01*
X483854Y526046D01*
X487980D01*
Y530172D01*
D02*
G37*
G36*
X558646Y529506D02*
X554520D01*
Y525380D01*
X555412Y525557D01*
X557244Y526782D01*
X558469Y528614D01*
X558646Y529506D01*
D02*
G37*
G36*
X551980D02*
X547854D01*
X548031Y528614D01*
X549256Y526782D01*
X551088Y525557D01*
X551980Y525380D01*
Y529506D01*
D02*
G37*
G36*
X97300Y544184D02*
X94742Y543848D01*
X92358Y542860D01*
X90311Y541289D01*
X88740Y539242D01*
X87752Y536858D01*
X87416Y534300D01*
X87752Y531742D01*
X88740Y529358D01*
X90311Y527311D01*
X92358Y525740D01*
X94742Y524752D01*
X97300Y524416D01*
X99858Y524752D01*
X102242Y525740D01*
X104289Y527311D01*
X105860Y529358D01*
X106848Y531742D01*
X107184Y534300D01*
X106848Y536858D01*
X105860Y539242D01*
X104289Y541289D01*
X102242Y542860D01*
X99858Y543848D01*
X97300Y544184D01*
D02*
G37*
G36*
X153646Y527980D02*
X149520D01*
Y523854D01*
X150412Y524031D01*
X152244Y525256D01*
X153469Y527088D01*
X153646Y527980D01*
D02*
G37*
G36*
X121430Y533030D02*
X112236D01*
X112431Y531549D01*
X113493Y528984D01*
X115183Y526783D01*
X117385Y525093D01*
X119949Y524031D01*
X121430Y523836D01*
Y533030D01*
D02*
G37*
G36*
X494646Y523506D02*
X490520D01*
Y519380D01*
X491412Y519557D01*
X493244Y520782D01*
X494469Y522614D01*
X494646Y523506D01*
D02*
G37*
G36*
X487980D02*
X483854D01*
X484031Y522614D01*
X485256Y520782D01*
X487088Y519557D01*
X487980Y519380D01*
Y523506D01*
D02*
G37*
G36*
X476730Y506646D02*
X475838Y506469D01*
X474006Y505244D01*
X472781Y503412D01*
X472604Y502520D01*
X476730D01*
Y506646D01*
D02*
G37*
G36*
X359500Y503920D02*
X357627Y503548D01*
X356039Y502487D01*
X355635Y501881D01*
X295865D01*
X295461Y502487D01*
X293873Y503548D01*
X292000Y503920D01*
X290127Y503548D01*
X288539Y502487D01*
X287479Y500899D01*
X287106Y499026D01*
X287479Y497153D01*
X288539Y495565D01*
X290127Y494505D01*
X292000Y494132D01*
X293873Y494505D01*
X295461Y495565D01*
X295865Y496171D01*
X355635D01*
X356039Y495565D01*
X357627Y494505D01*
X359500Y494132D01*
X361373Y494505D01*
X362961Y495565D01*
X364021Y497153D01*
X364394Y499026D01*
X364021Y500899D01*
X362961Y502487D01*
X361373Y503548D01*
X359500Y503920D01*
D02*
G37*
G36*
X97300Y518784D02*
X94742Y518448D01*
X92358Y517460D01*
X90311Y515889D01*
X88740Y513842D01*
X87752Y511458D01*
X87416Y508900D01*
X87752Y506342D01*
X88740Y503958D01*
X90311Y501911D01*
X92358Y500340D01*
X94742Y499352D01*
X97300Y499016D01*
X99858Y499352D01*
X102242Y500340D01*
X104289Y501911D01*
X105860Y503958D01*
X106848Y506342D01*
X107184Y508900D01*
X106848Y511458D01*
X105860Y513842D01*
X104289Y515889D01*
X102242Y517460D01*
X99858Y518448D01*
X97300Y518784D01*
D02*
G37*
G36*
X508599Y498422D02*
Y494296D01*
X512724D01*
X512547Y495188D01*
X511323Y497020D01*
X509490Y498245D01*
X508599Y498422D01*
D02*
G37*
G36*
X506059D02*
X505167Y498245D01*
X503334Y497020D01*
X502110Y495188D01*
X501933Y494296D01*
X506059D01*
Y498422D01*
D02*
G37*
G36*
X556270Y495672D02*
Y491546D01*
X560396D01*
X560219Y492438D01*
X558994Y494270D01*
X557162Y495495D01*
X556270Y495672D01*
D02*
G37*
G36*
X553730D02*
X552838Y495495D01*
X551006Y494270D01*
X549781Y492438D01*
X549604Y491546D01*
X553730D01*
Y495672D01*
D02*
G37*
G36*
X512724Y491756D02*
X508599D01*
Y487630D01*
X509490Y487807D01*
X511323Y489032D01*
X512547Y490864D01*
X512724Y491756D01*
D02*
G37*
G36*
X506059D02*
X501933D01*
X502110Y490864D01*
X503334Y489032D01*
X505167Y487807D01*
X506059Y487630D01*
Y491756D01*
D02*
G37*
G36*
X560396Y489006D02*
X556270D01*
Y484880D01*
X557162Y485057D01*
X558994Y486282D01*
X560219Y488114D01*
X560396Y489006D01*
D02*
G37*
G36*
X553730D02*
X549604D01*
X549781Y488114D01*
X551006Y486282D01*
X552838Y485057D01*
X553730Y484880D01*
Y489006D01*
D02*
G37*
G36*
X122700Y493385D02*
X120142Y493048D01*
X117758Y492060D01*
X115711Y490489D01*
X114140Y488442D01*
X113152Y486058D01*
X112816Y483500D01*
X113152Y480942D01*
X114140Y478558D01*
X115711Y476511D01*
X117758Y474940D01*
X120142Y473952D01*
X122700Y473615D01*
X125258Y473952D01*
X127642Y474940D01*
X129689Y476511D01*
X131260Y478558D01*
X132248Y480942D01*
X132584Y483500D01*
X132248Y486058D01*
X131260Y488442D01*
X129689Y490489D01*
X127642Y492060D01*
X125258Y493048D01*
X122700Y493385D01*
D02*
G37*
G36*
X368750Y464920D02*
X366877Y464548D01*
X365289Y463487D01*
X364229Y461899D01*
X363856Y460026D01*
X363998Y459311D01*
X356068Y451381D01*
X302365D01*
X301961Y451987D01*
X300373Y453047D01*
X298500Y453420D01*
X296627Y453047D01*
X295039Y451987D01*
X293979Y450399D01*
X293606Y448526D01*
X293979Y446653D01*
X295039Y445065D01*
X296627Y444005D01*
X298500Y443632D01*
X300373Y444005D01*
X301961Y445065D01*
X302365Y445671D01*
X357250D01*
X358343Y445888D01*
X359269Y446507D01*
X368036Y455274D01*
X368750Y455132D01*
X370623Y455504D01*
X372211Y456565D01*
X373271Y458153D01*
X373644Y460026D01*
X373271Y461899D01*
X372211Y463487D01*
X370623Y464548D01*
X368750Y464920D01*
D02*
G37*
G36*
X554250Y460920D02*
X552377Y460547D01*
X550789Y459487D01*
X549729Y457899D01*
X549356Y456026D01*
X549580Y454901D01*
X548546Y453811D01*
X548000Y453920D01*
X546127Y453548D01*
X544539Y452487D01*
X544135Y451881D01*
X539432D01*
X537769Y453545D01*
X536842Y454164D01*
X535750Y454381D01*
X461115D01*
X460711Y454987D01*
X459123Y456048D01*
X457250Y456420D01*
X455377Y456048D01*
X453789Y454987D01*
X452729Y453399D01*
X452356Y451526D01*
X452729Y449653D01*
X453789Y448065D01*
X455377Y447005D01*
X457250Y446632D01*
X459123Y447005D01*
X460711Y448065D01*
X461115Y448671D01*
X522003D01*
X522682Y447401D01*
X522080Y446500D01*
X521707Y444627D01*
X522080Y442754D01*
X523141Y441167D01*
X524728Y440106D01*
X526601Y439733D01*
X527552Y439922D01*
X529262Y438212D01*
X528982Y437011D01*
X528819Y436859D01*
X527289Y435837D01*
X526228Y434249D01*
X526137Y433790D01*
X524789Y433522D01*
X524631Y433759D01*
X523043Y434819D01*
X521170Y435192D01*
X519297Y434819D01*
X517709Y433759D01*
X516956Y432631D01*
X470365D01*
X469961Y433237D01*
X468373Y434297D01*
X466500Y434670D01*
X464627Y434297D01*
X463039Y433237D01*
X461978Y431649D01*
X461606Y429776D01*
X461978Y427903D01*
X462247Y427501D01*
X461649Y426381D01*
X458115D01*
X457711Y426987D01*
X456123Y428047D01*
X454250Y428420D01*
X452377Y428047D01*
X450789Y426987D01*
X449729Y425399D01*
X449356Y423526D01*
X449729Y421653D01*
X450789Y420065D01*
X452377Y419005D01*
X454250Y418632D01*
X456123Y419005D01*
X457711Y420065D01*
X458115Y420671D01*
X460650D01*
X461036Y419401D01*
X460789Y419237D01*
X459729Y417649D01*
X459356Y415776D01*
X459729Y413903D01*
X460789Y412315D01*
X462377Y411255D01*
X464250Y410882D01*
X466123Y411255D01*
X467711Y412315D01*
X468115Y412921D01*
X504149D01*
X504534Y411651D01*
X503539Y410987D01*
X502478Y409399D01*
X502106Y407526D01*
X502478Y405653D01*
X503539Y404065D01*
X504145Y403661D01*
Y402209D01*
X502231Y400295D01*
X501613Y399369D01*
X501395Y398276D01*
Y300391D01*
X500789Y299987D01*
X499729Y298399D01*
X499356Y296526D01*
X499729Y294653D01*
X500789Y293065D01*
X502377Y292005D01*
X504250Y291632D01*
X505117Y291804D01*
X506271Y291545D01*
X506484Y290880D01*
X506729Y289653D01*
X507789Y288065D01*
X509377Y287005D01*
X511250Y286632D01*
X513123Y287005D01*
X514711Y288065D01*
X515771Y289653D01*
X516144Y291526D01*
X515771Y293399D01*
X514711Y294987D01*
X514105Y295391D01*
Y356828D01*
X514461Y357065D01*
X515522Y358653D01*
X515894Y360526D01*
X515522Y362399D01*
X514461Y363987D01*
X512873Y365047D01*
X511000Y365420D01*
X509127Y365047D01*
X508375Y364545D01*
X507105Y365224D01*
Y397094D01*
X509019Y399007D01*
X509637Y399934D01*
X509855Y401026D01*
Y403661D01*
X510461Y404065D01*
X511521Y405653D01*
X511894Y407526D01*
X511521Y409399D01*
X511188Y409898D01*
X511786Y411288D01*
X512873Y411505D01*
X514461Y412565D01*
X515522Y414153D01*
X515894Y416026D01*
X515660Y417205D01*
X516175Y418232D01*
X516608Y418453D01*
X518123Y418755D01*
X519711Y419815D01*
X520771Y421403D01*
X521144Y423276D01*
X520967Y424167D01*
X521150Y425284D01*
X521889Y425547D01*
X523043Y425776D01*
X524631Y426837D01*
X525691Y428425D01*
X525748Y428710D01*
X526949Y429034D01*
X527895Y428252D01*
Y293995D01*
X476225Y242325D01*
X475606Y241399D01*
X475530Y241014D01*
X474172Y240697D01*
X473846Y241122D01*
X471694Y242773D01*
X469189Y243811D01*
X466500Y244165D01*
X463811Y243811D01*
X461306Y242773D01*
X459154Y241122D01*
X457503Y238970D01*
X456465Y236465D01*
X456111Y233776D01*
X456465Y231087D01*
X457503Y228582D01*
X459154Y226430D01*
X461306Y224779D01*
X463811Y223741D01*
X466500Y223387D01*
X469189Y223741D01*
X471694Y224779D01*
X473846Y226430D01*
X474187Y226874D01*
X475389Y226465D01*
Y172543D01*
X474783Y172139D01*
X473722Y170551D01*
X473350Y168678D01*
X473722Y166805D01*
X474783Y165217D01*
X476371Y164156D01*
X478244Y163784D01*
X480117Y164156D01*
X481705Y165217D01*
X482766Y166805D01*
X483138Y168678D01*
X482766Y170551D01*
X481705Y172139D01*
X481099Y172543D01*
Y229618D01*
X482369Y229871D01*
X482903Y228582D01*
X484554Y226430D01*
X486706Y224779D01*
X489211Y223741D01*
X491900Y223387D01*
X494589Y223741D01*
X497094Y224779D01*
X499246Y226430D01*
X500027Y227448D01*
X501297Y227017D01*
Y160351D01*
X500691Y159947D01*
X499631Y158359D01*
X499258Y156486D01*
X499631Y154613D01*
X500691Y153025D01*
X502279Y151965D01*
X504152Y151592D01*
X506025Y151965D01*
X507613Y153025D01*
X508674Y154613D01*
X509046Y156486D01*
X508674Y158359D01*
X507613Y159947D01*
X507007Y160351D01*
Y228392D01*
X508277Y228645D01*
X508303Y228582D01*
X509954Y226430D01*
X512106Y224779D01*
X514611Y223741D01*
X517300Y223387D01*
X519989Y223741D01*
X522494Y224779D01*
X524646Y226430D01*
X525875Y228032D01*
X527145Y227601D01*
Y154815D01*
X514519Y142188D01*
X513804Y142330D01*
X511931Y141958D01*
X510343Y140897D01*
X509282Y139309D01*
X508910Y137436D01*
X509232Y135819D01*
X508731Y135318D01*
X508112Y134392D01*
X507895Y133300D01*
Y59141D01*
X507289Y58737D01*
X506228Y57149D01*
X505856Y55276D01*
X506228Y53403D01*
X507289Y51815D01*
X508877Y50754D01*
X509833Y50564D01*
X510352Y49166D01*
X509531Y47938D01*
X509354Y47046D01*
X520146D01*
X519969Y47938D01*
X518744Y49770D01*
X516912Y50995D01*
X515392Y51297D01*
X514749Y52620D01*
Y52621D01*
X515271Y53403D01*
X515644Y55276D01*
X515271Y57149D01*
X514211Y58737D01*
X513605Y59141D01*
Y132117D01*
X514086Y132598D01*
X515677Y132914D01*
X517265Y133975D01*
X518326Y135563D01*
X518698Y137436D01*
X518556Y138151D01*
X532019Y151613D01*
X532637Y152540D01*
X532855Y153632D01*
Y227601D01*
X534125Y228032D01*
X535354Y226430D01*
X537506Y224779D01*
X540011Y223741D01*
X542700Y223387D01*
X545389Y223741D01*
X547894Y224779D01*
X550046Y226430D01*
X550827Y227448D01*
X552097Y227017D01*
Y119711D01*
X551491Y119307D01*
X550430Y117719D01*
X550058Y115846D01*
X550430Y113973D01*
X551491Y112385D01*
X553079Y111325D01*
X554952Y110952D01*
X556825Y111325D01*
X558413Y112385D01*
X559473Y113973D01*
X559846Y115846D01*
X559473Y117719D01*
X558413Y119307D01*
X557807Y119711D01*
Y228392D01*
X559077Y228645D01*
X559103Y228582D01*
X560754Y226430D01*
X562906Y224779D01*
X565411Y223741D01*
X568100Y223387D01*
X570789Y223741D01*
X573294Y224779D01*
X575446Y226430D01*
X577097Y228582D01*
X578135Y231087D01*
X578489Y233776D01*
X578135Y236465D01*
X577097Y238970D01*
X575446Y241122D01*
X573294Y242773D01*
X570789Y243811D01*
X568100Y244165D01*
X565411Y243811D01*
X562906Y242773D01*
X560754Y241122D01*
X559103Y238970D01*
X559077Y238907D01*
X557807Y239160D01*
Y254852D01*
X557589Y255945D01*
X556971Y256871D01*
X556284Y257557D01*
Y376402D01*
X557404Y377001D01*
X558068Y376557D01*
X558959Y376380D01*
Y381776D01*
Y387172D01*
X558375Y387056D01*
X557105Y387762D01*
Y452161D01*
X557711Y452565D01*
X558772Y454153D01*
X559144Y456026D01*
X558772Y457899D01*
X557711Y459487D01*
X556123Y460547D01*
X554250Y460920D01*
D02*
G37*
G36*
X991560Y464486D02*
X965290D01*
Y448216D01*
X991560D01*
Y464486D01*
D02*
G37*
G36*
X962750D02*
X936480D01*
Y448216D01*
X962750D01*
Y464486D01*
D02*
G37*
G36*
X122700Y467985D02*
X120142Y467648D01*
X117758Y466660D01*
X115711Y465089D01*
X114140Y463042D01*
X113152Y460658D01*
X112816Y458100D01*
X113152Y455542D01*
X114140Y453158D01*
X115711Y451111D01*
X117758Y449540D01*
X120142Y448552D01*
X122700Y448215D01*
X125258Y448552D01*
X127642Y449540D01*
X129689Y451111D01*
X131260Y453158D01*
X132248Y455542D01*
X132584Y458100D01*
X132248Y460658D01*
X131260Y463042D01*
X129689Y465089D01*
X127642Y466660D01*
X125258Y467648D01*
X122700Y467985D01*
D02*
G37*
G36*
X97300D02*
X94742Y467648D01*
X92358Y466660D01*
X90311Y465089D01*
X88740Y463042D01*
X87752Y460658D01*
X87416Y458100D01*
X87752Y455542D01*
X88740Y453158D01*
X90311Y451111D01*
X92358Y449540D01*
X94742Y448552D01*
X97300Y448215D01*
X99858Y448552D01*
X102242Y449540D01*
X104289Y451111D01*
X105860Y453158D01*
X106848Y455542D01*
X107184Y458100D01*
X106848Y460658D01*
X105860Y463042D01*
X104289Y465089D01*
X102242Y466660D01*
X99858Y467648D01*
X97300Y467985D01*
D02*
G37*
G36*
X785500Y526420D02*
X783627Y526048D01*
X782039Y524987D01*
X780978Y523399D01*
X780606Y521526D01*
X780780Y520649D01*
X780554Y520310D01*
X780337Y519217D01*
Y453620D01*
X779085Y452369D01*
X778466Y451443D01*
X778249Y450350D01*
Y449815D01*
X776878Y448899D01*
X775817Y447311D01*
X775444Y445438D01*
X775817Y443565D01*
X776878Y441977D01*
X778465Y440916D01*
X780338Y440544D01*
X782211Y440916D01*
X783799Y441977D01*
X784860Y443565D01*
X785232Y445438D01*
X784860Y447311D01*
X783958Y448660D01*
Y449168D01*
X785210Y450419D01*
X785829Y451345D01*
X786046Y452438D01*
Y516741D01*
X787373Y517005D01*
X788961Y518065D01*
X790022Y519653D01*
X790394Y521526D01*
X790022Y523399D01*
X788961Y524987D01*
X787373Y526048D01*
X785500Y526420D01*
D02*
G37*
G36*
X923000Y476787D02*
X921225Y476553D01*
X919571Y475868D01*
X918150Y474778D01*
X917060Y473357D01*
X916375Y471703D01*
X916141Y469928D01*
Y437410D01*
X780328D01*
X780123Y437547D01*
X778250Y437920D01*
X776377Y437547D01*
X774789Y436487D01*
X773728Y434899D01*
X773356Y433026D01*
X773728Y431153D01*
X774789Y429565D01*
X776377Y428504D01*
X778250Y428132D01*
X780123Y428504D01*
X780328Y428642D01*
X916141D01*
Y277401D01*
X916375Y275626D01*
X917060Y273972D01*
X918150Y272551D01*
X925791Y264910D01*
Y88017D01*
X872409Y34635D01*
X790220D01*
X789846Y35122D01*
X787694Y36773D01*
X785189Y37811D01*
X782500Y38165D01*
X779811Y37811D01*
X777306Y36773D01*
X775154Y35122D01*
X773503Y32970D01*
X772465Y30465D01*
X772111Y27776D01*
X772465Y25087D01*
X773503Y22582D01*
X775154Y20430D01*
X777306Y18779D01*
X779811Y17741D01*
X782500Y17387D01*
X785189Y17741D01*
X787694Y18779D01*
X789846Y20430D01*
X790220Y20917D01*
X826934D01*
X827319Y19647D01*
X826006Y18770D01*
X824781Y16938D01*
X824604Y16046D01*
X835396D01*
X835219Y16938D01*
X833994Y18770D01*
X832681Y19647D01*
X833066Y20917D01*
X875250D01*
X877025Y21151D01*
X878679Y21836D01*
X880100Y22926D01*
X937500Y80326D01*
X938590Y81747D01*
X939275Y83401D01*
X939509Y85176D01*
Y267751D01*
X939275Y269526D01*
X938590Y271180D01*
X937500Y272601D01*
X929859Y280242D01*
Y469928D01*
X929625Y471703D01*
X928940Y473357D01*
X927850Y474778D01*
X926429Y475868D01*
X924775Y476553D01*
X923000Y476787D01*
D02*
G37*
G36*
X695520Y435922D02*
Y431796D01*
X699646D01*
X699469Y432688D01*
X698244Y434520D01*
X696412Y435745D01*
X695520Y435922D01*
D02*
G37*
G36*
X692980D02*
X692088Y435745D01*
X690256Y434520D01*
X689031Y432688D01*
X688854Y431796D01*
X692980D01*
Y435922D01*
D02*
G37*
G36*
X991560Y445676D02*
X965290D01*
Y429406D01*
X991560D01*
Y445676D01*
D02*
G37*
G36*
X962750D02*
X936480D01*
Y429406D01*
X962750D01*
Y445676D01*
D02*
G37*
G36*
X699646Y429256D02*
X695520D01*
Y425130D01*
X696412Y425307D01*
X698244Y426532D01*
X699469Y428364D01*
X699646Y429256D01*
D02*
G37*
G36*
X692980D02*
X688854D01*
X689031Y428364D01*
X690256Y426532D01*
X692088Y425307D01*
X692980Y425130D01*
Y429256D01*
D02*
G37*
G36*
X122700Y442584D02*
X120142Y442248D01*
X117758Y441260D01*
X115711Y439689D01*
X114140Y437642D01*
X113152Y435258D01*
X112816Y432700D01*
X113152Y430142D01*
X114140Y427758D01*
X115711Y425711D01*
X117758Y424140D01*
X120142Y423152D01*
X122700Y422816D01*
X125258Y423152D01*
X127642Y424140D01*
X129689Y425711D01*
X131260Y427758D01*
X132248Y430142D01*
X132584Y432700D01*
X132248Y435258D01*
X131260Y437642D01*
X129689Y439689D01*
X127642Y441260D01*
X125258Y442248D01*
X122700Y442584D01*
D02*
G37*
G36*
X97300D02*
X94742Y442248D01*
X92358Y441260D01*
X90311Y439689D01*
X88740Y437642D01*
X87752Y435258D01*
X87416Y432700D01*
X87752Y430142D01*
X88740Y427758D01*
X90311Y425711D01*
X92358Y424140D01*
X94742Y423152D01*
X97300Y422816D01*
X99858Y423152D01*
X102242Y424140D01*
X104289Y425711D01*
X105860Y427758D01*
X106848Y430142D01*
X107184Y432700D01*
X106848Y435258D01*
X105860Y437642D01*
X104289Y439689D01*
X102242Y441260D01*
X99858Y442248D01*
X97300Y442584D01*
D02*
G37*
G36*
X748020Y426922D02*
Y422796D01*
X752146D01*
X751969Y423688D01*
X750744Y425520D01*
X748912Y426745D01*
X748020Y426922D01*
D02*
G37*
G36*
X745480D02*
X744588Y426745D01*
X742756Y425520D01*
X741531Y423688D01*
X741354Y422796D01*
X745480D01*
Y426922D01*
D02*
G37*
G36*
X752146Y420256D02*
X748020D01*
Y416130D01*
X748912Y416307D01*
X750744Y417532D01*
X751969Y419364D01*
X752146Y420256D01*
D02*
G37*
G36*
X745480D02*
X741354D01*
X741531Y419364D01*
X742756Y417532D01*
X744588Y416307D01*
X745480Y416130D01*
Y420256D01*
D02*
G37*
G36*
X256020Y416672D02*
Y412546D01*
X260146D01*
X259969Y413438D01*
X258744Y415270D01*
X256912Y416494D01*
X256020Y416672D01*
D02*
G37*
G36*
X253480D02*
X252588Y416494D01*
X250756Y415270D01*
X249531Y413438D01*
X249354Y412546D01*
X253480D01*
Y416672D01*
D02*
G37*
G36*
X146012Y431890D02*
X144139Y431517D01*
X142551Y430457D01*
X141490Y428869D01*
X141118Y426996D01*
X141490Y425123D01*
X142551Y423535D01*
X142647Y423471D01*
Y409533D01*
X132291D01*
X132248Y409858D01*
X131260Y412242D01*
X129689Y414289D01*
X127642Y415860D01*
X125258Y416848D01*
X122700Y417184D01*
X120142Y416848D01*
X117758Y415860D01*
X115711Y414289D01*
X114140Y412242D01*
X113152Y409858D01*
X112816Y407300D01*
X113152Y404742D01*
X114140Y402358D01*
X115711Y400311D01*
X117758Y398740D01*
X120142Y397752D01*
X122700Y397416D01*
X125258Y397752D01*
X127642Y398740D01*
X129689Y400311D01*
X131260Y402358D01*
X131445Y402803D01*
X144957D01*
X144958Y402803D01*
X146245Y403060D01*
X147337Y403789D01*
X148391Y404843D01*
X148391Y404843D01*
X149121Y405935D01*
X149377Y407222D01*
Y423471D01*
X149473Y423535D01*
X150534Y425123D01*
X150906Y426996D01*
X150534Y428869D01*
X149473Y430457D01*
X147885Y431517D01*
X146012Y431890D01*
D02*
G37*
G36*
X639788Y468466D02*
X637915Y468093D01*
X636327Y467033D01*
X635266Y465445D01*
X634894Y463572D01*
X635266Y461699D01*
X635404Y461494D01*
Y411773D01*
X635106Y410276D01*
X635479Y408403D01*
X636539Y406815D01*
X638127Y405755D01*
X640000Y405382D01*
X641873Y405755D01*
X643461Y406815D01*
X644521Y408403D01*
X644894Y410276D01*
X644521Y412149D01*
X644172Y412672D01*
Y461494D01*
X644309Y461699D01*
X644682Y463572D01*
X644309Y465445D01*
X643249Y467033D01*
X641661Y468093D01*
X639788Y468466D01*
D02*
G37*
G36*
X160490Y413348D02*
X158617Y412976D01*
X157029Y411915D01*
X155969Y410327D01*
X155596Y408454D01*
X155738Y407739D01*
X153443Y405445D01*
X153219Y405295D01*
X133184Y385260D01*
X131848Y385424D01*
X131260Y386842D01*
X129689Y388889D01*
X127642Y390460D01*
X125258Y391448D01*
X122700Y391785D01*
X120142Y391448D01*
X117758Y390460D01*
X115711Y388889D01*
X114140Y386842D01*
X113152Y384458D01*
X112816Y381900D01*
X113152Y379342D01*
X114140Y376958D01*
X115711Y374911D01*
X117386Y373625D01*
X116955Y372355D01*
X110024D01*
X108932Y372137D01*
X108005Y371519D01*
X101751Y365264D01*
X99858Y366048D01*
X97300Y366385D01*
X94742Y366048D01*
X92358Y365060D01*
X90311Y363489D01*
X88740Y361442D01*
X87752Y359058D01*
X87416Y356500D01*
X87752Y353942D01*
X88740Y351558D01*
X90311Y349511D01*
X92358Y347940D01*
X94742Y346952D01*
X97300Y346615D01*
X99858Y346952D01*
X102242Y347940D01*
X104289Y349511D01*
X105860Y351558D01*
X106848Y353942D01*
X107184Y356500D01*
X106848Y359058D01*
X105902Y361341D01*
X111207Y366645D01*
X118265D01*
X118518Y365375D01*
X117758Y365060D01*
X115711Y363489D01*
X114140Y361442D01*
X113152Y359058D01*
X112816Y356500D01*
X113152Y353942D01*
X114140Y351558D01*
X115711Y349511D01*
X117730Y347961D01*
X117741Y347871D01*
X117454Y346691D01*
X109862D01*
X108808Y346481D01*
X107915Y345885D01*
X107915Y345885D01*
X101853Y339822D01*
X99858Y340648D01*
X97300Y340984D01*
X94742Y340648D01*
X92358Y339660D01*
X90311Y338089D01*
X88740Y336042D01*
X87752Y333658D01*
X87416Y331100D01*
X87752Y328542D01*
X88740Y326158D01*
X90311Y324111D01*
X92358Y322540D01*
X94742Y321552D01*
X97300Y321216D01*
X99858Y321552D01*
X102242Y322540D01*
X104289Y324111D01*
X105860Y326158D01*
X106848Y328542D01*
X107184Y331100D01*
X106848Y333658D01*
X105860Y336042D01*
X105860Y336043D01*
X111002Y341185D01*
X118120D01*
X118373Y339915D01*
X117758Y339660D01*
X115711Y338089D01*
X114140Y336042D01*
X113152Y333658D01*
X112816Y331100D01*
X113152Y328542D01*
X114140Y326158D01*
X115711Y324111D01*
X117758Y322540D01*
X120142Y321552D01*
X122700Y321216D01*
X125258Y321552D01*
X127642Y322540D01*
X129689Y324111D01*
X131260Y326158D01*
X132248Y328542D01*
X132584Y331100D01*
X132248Y333658D01*
X131260Y336042D01*
X129689Y338089D01*
X127642Y339660D01*
X127027Y339915D01*
X127280Y341185D01*
X132804D01*
X133857Y341395D01*
X134751Y341991D01*
X164469Y371709D01*
X165065Y372603D01*
X165275Y373656D01*
X165275Y373656D01*
Y380391D01*
X165983Y380863D01*
X167043Y382451D01*
X167416Y384324D01*
X167043Y386197D01*
X165983Y387785D01*
X164395Y388845D01*
X162522Y389218D01*
X160649Y388845D01*
X159061Y387785D01*
X158163Y386440D01*
X156926Y386637D01*
X156893Y386651D01*
Y390042D01*
X157601Y390515D01*
X158661Y392103D01*
X159034Y393976D01*
X158661Y395849D01*
X157601Y397437D01*
X156180Y398386D01*
X155696Y399697D01*
X157106Y401107D01*
X157331Y401257D01*
X159775Y403702D01*
X160490Y403560D01*
X162363Y403932D01*
X163951Y404993D01*
X165012Y406581D01*
X165384Y408454D01*
X165012Y410327D01*
X163951Y411915D01*
X162363Y412976D01*
X160490Y413348D01*
D02*
G37*
G36*
X413000Y474920D02*
X411127Y474548D01*
X409539Y473487D01*
X408479Y471899D01*
X408106Y470026D01*
X408479Y468153D01*
X409539Y466565D01*
X410520Y465910D01*
Y412641D01*
X410289Y412487D01*
X409229Y410899D01*
X408856Y409026D01*
X409229Y407153D01*
X410289Y405565D01*
X411877Y404505D01*
X412810Y404319D01*
X412903Y404077D01*
X413000Y402986D01*
X412925Y402927D01*
X257827D01*
X257423Y403533D01*
X255887Y404559D01*
X255853Y404791D01*
X255948Y405866D01*
X256912Y406057D01*
X258744Y407282D01*
X259969Y409114D01*
X260146Y410006D01*
X249354D01*
X249531Y409114D01*
X250756Y407282D01*
X252588Y406057D01*
X252764Y406023D01*
Y404728D01*
X252089Y404594D01*
X250501Y403533D01*
X249440Y401945D01*
X249068Y400072D01*
X249115Y399834D01*
X248035Y398754D01*
X247450Y398870D01*
X245577Y398498D01*
X243989Y397437D01*
X242929Y395849D01*
X242556Y393976D01*
X242929Y392103D01*
X243989Y390515D01*
X245577Y389454D01*
X247450Y389082D01*
X249323Y389454D01*
X250911Y390515D01*
X251383Y391223D01*
X253105D01*
X253768Y390178D01*
X253748Y389953D01*
X253386Y388134D01*
X253759Y386261D01*
X254819Y384673D01*
X256407Y383613D01*
X258280Y383240D01*
X260153Y383613D01*
X261741Y384673D01*
X261874Y384873D01*
X280254D01*
X280727Y384165D01*
X282315Y383105D01*
X284188Y382732D01*
X286061Y383105D01*
X287649Y384165D01*
X288710Y385753D01*
X289082Y387626D01*
X288710Y389499D01*
X287649Y391087D01*
X286061Y392147D01*
X284188Y392520D01*
X282714Y392227D01*
X281814Y392901D01*
X281613Y393204D01*
X281716Y393722D01*
X281343Y395595D01*
X281108Y395947D01*
X281787Y397217D01*
X401271D01*
X401396Y395947D01*
X400171Y395704D01*
X398583Y394643D01*
X397523Y393055D01*
X397150Y391182D01*
X397523Y389309D01*
X398583Y387721D01*
X400171Y386660D01*
X402044Y386288D01*
X403917Y386660D01*
X405505Y387721D01*
X405871Y388270D01*
X436992D01*
X437591Y387150D01*
X437281Y386688D01*
X437104Y385796D01*
X442500D01*
Y383256D01*
X437104D01*
X437281Y382364D01*
X437798Y381591D01*
X437119Y380321D01*
X325964D01*
X325285Y381591D01*
X325969Y382614D01*
X326146Y383506D01*
X315354D01*
X315531Y382614D01*
X316215Y381591D01*
X315536Y380321D01*
X255033D01*
X254629Y380927D01*
X253041Y381987D01*
X251168Y382360D01*
X249295Y381987D01*
X247707Y380927D01*
X246646Y379339D01*
X246274Y377466D01*
X246646Y375593D01*
X247707Y374005D01*
X247872Y373895D01*
X248179Y372238D01*
X247663Y371465D01*
X247290Y369592D01*
X247663Y367719D01*
X248723Y366131D01*
X250311Y365070D01*
X252184Y364698D01*
X254057Y365070D01*
X255645Y366131D01*
X256049Y366737D01*
X261341D01*
X261803Y365467D01*
X260781Y363938D01*
X260604Y363046D01*
X271396D01*
X271219Y363938D01*
X270197Y365467D01*
X270659Y366737D01*
X451324D01*
X452416Y366954D01*
X453343Y367573D01*
X462547Y376777D01*
X463258Y376636D01*
X465131Y377009D01*
X466719Y378069D01*
X466941Y378402D01*
X468211D01*
X468433Y378069D01*
X470021Y377009D01*
X471894Y376636D01*
X473767Y377009D01*
X475355Y378069D01*
X476415Y379657D01*
X476788Y381530D01*
X476415Y383403D01*
X475355Y384991D01*
X473767Y386051D01*
X471894Y386424D01*
X471180Y386282D01*
X468113Y389349D01*
X467187Y389967D01*
X466094Y390185D01*
X462311D01*
X461506Y391167D01*
X461548Y391380D01*
X461175Y393253D01*
X460115Y394841D01*
X458527Y395901D01*
X456654Y396274D01*
X454781Y395901D01*
X453193Y394841D01*
X452959Y394490D01*
X440017D01*
X439892Y395760D01*
X441123Y396004D01*
X442711Y397065D01*
X443772Y398653D01*
X444144Y400526D01*
X443772Y402399D01*
X442711Y403987D01*
X441529Y404776D01*
X441914Y406046D01*
X445301D01*
X445789Y405315D01*
X447377Y404254D01*
X449250Y403882D01*
X451123Y404254D01*
X452711Y405315D01*
X453772Y406903D01*
X454144Y408776D01*
X453772Y410649D01*
X452711Y412237D01*
X451123Y413298D01*
X449250Y413670D01*
X447377Y413298D01*
X445789Y412237D01*
X445468Y411756D01*
X417699D01*
X417211Y412487D01*
X416230Y413142D01*
Y466411D01*
X416461Y466565D01*
X417522Y468153D01*
X417894Y470026D01*
X417522Y471899D01*
X416461Y473487D01*
X414873Y474548D01*
X413000Y474920D01*
D02*
G37*
G36*
X97300Y417184D02*
X94742Y416848D01*
X92358Y415860D01*
X90311Y414289D01*
X88740Y412242D01*
X87752Y409858D01*
X87416Y407300D01*
X87752Y404742D01*
X88740Y402358D01*
X90311Y400311D01*
X92358Y398740D01*
X94742Y397752D01*
X97300Y397416D01*
X99858Y397752D01*
X102242Y398740D01*
X104289Y400311D01*
X105860Y402358D01*
X106848Y404742D01*
X107184Y407300D01*
X106848Y409858D01*
X105860Y412242D01*
X104289Y414289D01*
X102242Y415860D01*
X99858Y416848D01*
X97300Y417184D01*
D02*
G37*
G36*
X322020Y390172D02*
Y386046D01*
X326146D01*
X325969Y386938D01*
X324744Y388770D01*
X322912Y389995D01*
X322020Y390172D01*
D02*
G37*
G36*
X319480D02*
X318588Y389995D01*
X316756Y388770D01*
X315531Y386938D01*
X315354Y386046D01*
X319480D01*
Y390172D01*
D02*
G37*
G36*
X964750Y421420D02*
X962877Y421048D01*
X961289Y419987D01*
X960229Y418399D01*
X959856Y416526D01*
X960229Y414653D01*
X960366Y414448D01*
Y411676D01*
X937220D01*
Y378076D01*
X990820D01*
Y411676D01*
X969134D01*
Y414448D01*
X969271Y414653D01*
X969644Y416526D01*
X969271Y418399D01*
X968211Y419987D01*
X966623Y421048D01*
X964750Y421420D01*
D02*
G37*
G36*
X491020Y380422D02*
Y376296D01*
X495146D01*
X494969Y377188D01*
X493744Y379020D01*
X491912Y380245D01*
X491020Y380422D01*
D02*
G37*
G36*
X488480D02*
X487588Y380245D01*
X485756Y379020D01*
X484531Y377188D01*
X484354Y376296D01*
X488480D01*
Y380422D01*
D02*
G37*
G36*
X720000Y407920D02*
X718127Y407547D01*
X716539Y406487D01*
X715479Y404899D01*
X715106Y403026D01*
X715479Y401153D01*
X716539Y399565D01*
X716895Y399328D01*
Y383641D01*
X716289Y383237D01*
X715229Y381649D01*
X714856Y379776D01*
X715229Y377903D01*
X716289Y376315D01*
X717877Y375255D01*
X719750Y374882D01*
X721623Y375255D01*
X723211Y376315D01*
X723615Y376921D01*
X724885D01*
X725289Y376315D01*
X726877Y375255D01*
X728750Y374882D01*
X730623Y375255D01*
X732211Y376315D01*
X733271Y377903D01*
X733644Y379776D01*
X733379Y381108D01*
X733637Y381495D01*
X733855Y382588D01*
Y392411D01*
X734461Y392815D01*
X735521Y394403D01*
X735894Y396276D01*
X735521Y398149D01*
X734461Y399737D01*
X732873Y400798D01*
X731000Y401170D01*
X729127Y400798D01*
X727539Y399737D01*
X726479Y398149D01*
X726106Y396276D01*
X726479Y394403D01*
X727539Y392815D01*
X728145Y392411D01*
Y384550D01*
X726877Y384297D01*
X725289Y383237D01*
X724885Y382631D01*
X723615D01*
X723211Y383237D01*
X722605Y383641D01*
Y398994D01*
X723461Y399565D01*
X724521Y401153D01*
X724894Y403026D01*
X724521Y404899D01*
X723461Y406487D01*
X721873Y407547D01*
X720000Y407920D01*
D02*
G37*
G36*
X97300Y391785D02*
X94742Y391448D01*
X92358Y390460D01*
X90311Y388889D01*
X88740Y386842D01*
X87752Y384458D01*
X87416Y381900D01*
X87752Y379342D01*
X88740Y376958D01*
X90311Y374911D01*
X92358Y373340D01*
X94742Y372352D01*
X97300Y372015D01*
X99858Y372352D01*
X102242Y373340D01*
X104289Y374911D01*
X105860Y376958D01*
X106848Y379342D01*
X107184Y381900D01*
X106848Y384458D01*
X105860Y386842D01*
X104289Y388889D01*
X102242Y390460D01*
X99858Y391448D01*
X97300Y391785D01*
D02*
G37*
G36*
X808952Y373470D02*
X807079Y373097D01*
X805491Y372037D01*
X805087Y371431D01*
X738141D01*
X737737Y372037D01*
X736149Y373097D01*
X734276Y373470D01*
X732403Y373097D01*
X730815Y372037D01*
X729754Y370449D01*
X729382Y368576D01*
X729754Y366703D01*
X730815Y365115D01*
X732403Y364054D01*
X734276Y363682D01*
X736149Y364054D01*
X737737Y365115D01*
X738141Y365721D01*
X805087D01*
X805491Y365115D01*
X807079Y364054D01*
X808952Y363682D01*
X810825Y364054D01*
X812413Y365115D01*
X813474Y366703D01*
X813846Y368576D01*
X813474Y370449D01*
X812413Y372037D01*
X810825Y373097D01*
X808952Y373470D01*
D02*
G37*
G36*
X495146Y373756D02*
X491020D01*
Y369630D01*
X491912Y369807D01*
X493744Y371032D01*
X494969Y372864D01*
X495146Y373756D01*
D02*
G37*
G36*
X488480D02*
X484354D01*
X484531Y372864D01*
X485756Y371032D01*
X487588Y369807D01*
X488480Y369630D01*
Y373756D01*
D02*
G37*
G36*
X618520Y364672D02*
Y360546D01*
X622646D01*
X622469Y361438D01*
X621244Y363270D01*
X619412Y364495D01*
X618520Y364672D01*
D02*
G37*
G36*
X615980D02*
X615088Y364495D01*
X613256Y363270D01*
X612031Y361438D01*
X611854Y360546D01*
X615980D01*
Y364672D01*
D02*
G37*
G36*
X271396Y360506D02*
X267270D01*
Y356380D01*
X268162Y356557D01*
X269994Y357782D01*
X271219Y359614D01*
X271396Y360506D01*
D02*
G37*
G36*
X264730D02*
X260604D01*
X260781Y359614D01*
X262006Y357782D01*
X263838Y356557D01*
X264730Y356380D01*
Y360506D01*
D02*
G37*
G36*
X622646Y358006D02*
X618520D01*
Y353880D01*
X619412Y354057D01*
X621244Y355282D01*
X622469Y357114D01*
X622646Y358006D01*
D02*
G37*
G36*
X615980D02*
X611854D01*
X612031Y357114D01*
X613256Y355282D01*
X615088Y354057D01*
X615980Y353880D01*
Y358006D01*
D02*
G37*
G36*
X638000Y389894D02*
X636127Y389521D01*
X634539Y388461D01*
X633479Y386873D01*
X633363Y386293D01*
X630900Y383829D01*
X629949Y382407D01*
X629616Y380729D01*
Y357078D01*
X629478Y356873D01*
X629106Y355000D01*
X629478Y353127D01*
X630539Y351539D01*
X632127Y350479D01*
X634000Y350106D01*
X635873Y350479D01*
X637461Y351539D01*
X638521Y353127D01*
X638894Y355000D01*
X638521Y356873D01*
X638384Y357078D01*
Y378913D01*
X640104Y380633D01*
X641461Y381539D01*
X642522Y383127D01*
X642894Y385000D01*
X642522Y386873D01*
X641461Y388461D01*
X639873Y389521D01*
X638000Y389894D01*
D02*
G37*
G36*
X253520Y353172D02*
Y349046D01*
X257646D01*
X257468Y349938D01*
X256244Y351770D01*
X254412Y352994D01*
X253520Y353172D01*
D02*
G37*
G36*
X250980D02*
X250088Y352994D01*
X248256Y351770D01*
X247031Y349938D01*
X246854Y349046D01*
X250980D01*
Y353172D01*
D02*
G37*
G36*
X398234Y352890D02*
Y348764D01*
X402360D01*
X402183Y349656D01*
X400958Y351488D01*
X399126Y352713D01*
X398234Y352890D01*
D02*
G37*
G36*
X395694D02*
X394802Y352713D01*
X392970Y351488D01*
X391745Y349656D01*
X391568Y348764D01*
X395694D01*
Y352890D01*
D02*
G37*
G36*
X257646Y346506D02*
X253520D01*
Y342380D01*
X254412Y342557D01*
X256244Y343782D01*
X257468Y345614D01*
X257646Y346506D01*
D02*
G37*
G36*
X250980D02*
X246854D01*
X247031Y345614D01*
X248256Y343782D01*
X250088Y342557D01*
X250980Y342380D01*
Y346506D01*
D02*
G37*
G36*
X437247Y353071D02*
X435374Y352699D01*
X433787Y351638D01*
X432726Y350050D01*
X432353Y348177D01*
X432726Y346304D01*
X433787Y344717D01*
X435374Y343656D01*
X437247Y343283D01*
X439120Y343656D01*
X440708Y344717D01*
X441062Y345247D01*
X480334D01*
X480789Y344565D01*
X482377Y343504D01*
X484250Y343132D01*
X486123Y343504D01*
X487315Y344301D01*
X488467Y343586D01*
X488356Y343026D01*
X488498Y342312D01*
X484818Y338631D01*
X465365D01*
X464961Y339237D01*
X463373Y340298D01*
X461500Y340670D01*
X459627Y340298D01*
X458039Y339237D01*
X456978Y337649D01*
X456606Y335776D01*
X456978Y333903D01*
X458039Y332315D01*
X459627Y331255D01*
X461500Y330882D01*
X463373Y331255D01*
X464961Y332315D01*
X465365Y332921D01*
X486000D01*
X487093Y333138D01*
X488019Y333757D01*
X492536Y338274D01*
X493250Y338132D01*
X495123Y338504D01*
X496711Y339565D01*
X497771Y341153D01*
X498144Y343026D01*
X497771Y344899D01*
X496711Y346487D01*
X495123Y347547D01*
X493250Y347920D01*
X491377Y347547D01*
X490185Y346751D01*
X489033Y347466D01*
X489144Y348026D01*
X488772Y349899D01*
X487711Y351487D01*
X486123Y352547D01*
X484250Y352920D01*
X482377Y352547D01*
X480789Y351487D01*
X480435Y350956D01*
X441163D01*
X440708Y351638D01*
X439120Y352699D01*
X437247Y353071D01*
D02*
G37*
G36*
X345500Y346420D02*
X343627Y346048D01*
X342039Y344987D01*
X340979Y343399D01*
X340606Y341526D01*
X340979Y339653D01*
X342039Y338065D01*
X343627Y337005D01*
X345500Y336632D01*
X347373Y337005D01*
X347578Y337142D01*
X371069D01*
X372785Y335426D01*
X374208Y334476D01*
X375885Y334142D01*
X400922D01*
X401127Y334005D01*
X403000Y333632D01*
X404873Y334005D01*
X406461Y335065D01*
X407522Y336653D01*
X407894Y338526D01*
X407522Y340399D01*
X406461Y341987D01*
X404873Y343047D01*
X403000Y343420D01*
X402345Y343290D01*
X401581Y344433D01*
X402183Y345332D01*
X402360Y346224D01*
X391568D01*
X391745Y345332D01*
X392515Y344180D01*
X391836Y342910D01*
X377701D01*
X375985Y344626D01*
X374563Y345577D01*
X372885Y345910D01*
X347578D01*
X347373Y346048D01*
X345500Y346420D01*
D02*
G37*
G36*
X406270Y325172D02*
Y321046D01*
X410396D01*
X410219Y321938D01*
X408994Y323770D01*
X407162Y324995D01*
X406270Y325172D01*
D02*
G37*
G36*
X403730D02*
X402838Y324995D01*
X401006Y323770D01*
X399781Y321938D01*
X399604Y321046D01*
X403730D01*
Y325172D01*
D02*
G37*
G36*
X492770Y320432D02*
Y316306D01*
X496896D01*
X496719Y317198D01*
X495494Y319030D01*
X493662Y320255D01*
X492770Y320432D01*
D02*
G37*
G36*
X490230D02*
X489338Y320255D01*
X487506Y319030D01*
X486282Y317198D01*
X486104Y316306D01*
X490230D01*
Y320432D01*
D02*
G37*
G36*
X462770Y320422D02*
Y316296D01*
X466896D01*
X466718Y317188D01*
X465494Y319020D01*
X463662Y320244D01*
X462770Y320422D01*
D02*
G37*
G36*
X460230D02*
X459338Y320244D01*
X457506Y319020D01*
X456281Y317188D01*
X456104Y316296D01*
X460230D01*
Y320422D01*
D02*
G37*
G36*
X410396Y318506D02*
X406270D01*
Y314380D01*
X407162Y314557D01*
X408994Y315782D01*
X410219Y317614D01*
X410396Y318506D01*
D02*
G37*
G36*
X403730D02*
X399604D01*
X399781Y317614D01*
X401006Y315782D01*
X402838Y314557D01*
X403730Y314380D01*
Y318506D01*
D02*
G37*
G36*
X419270Y313797D02*
Y309671D01*
X423396D01*
X423219Y310563D01*
X421994Y312395D01*
X420162Y313620D01*
X419270Y313797D01*
D02*
G37*
G36*
X416730D02*
X415838Y313620D01*
X414006Y312395D01*
X412781Y310563D01*
X412604Y309671D01*
X416730D01*
Y313797D01*
D02*
G37*
G36*
X496896Y313766D02*
X492770D01*
Y309640D01*
X493662Y309817D01*
X495494Y311042D01*
X496719Y312874D01*
X496896Y313766D01*
D02*
G37*
G36*
X490230D02*
X486104D01*
X486282Y312874D01*
X487506Y311042D01*
X489338Y309817D01*
X490230Y309640D01*
Y313766D01*
D02*
G37*
G36*
X466896Y313756D02*
X462770D01*
Y309630D01*
X463662Y309807D01*
X465494Y311032D01*
X466718Y312864D01*
X466896Y313756D01*
D02*
G37*
G36*
X460230D02*
X456104D01*
X456281Y312864D01*
X457506Y311032D01*
X459338Y309807D01*
X460230Y309630D01*
Y313756D01*
D02*
G37*
G36*
X301520Y315550D02*
Y308020D01*
X309049D01*
X308911Y309071D01*
X308015Y311233D01*
X306590Y313090D01*
X304733Y314515D01*
X302571Y315411D01*
X301520Y315550D01*
D02*
G37*
G36*
X298980D02*
X297929Y315411D01*
X295767Y314515D01*
X293910Y313090D01*
X292485Y311233D01*
X291589Y309071D01*
X291451Y308020D01*
X298980D01*
Y315550D01*
D02*
G37*
G36*
X98570Y316164D02*
Y306970D01*
X107764D01*
X107569Y308451D01*
X106507Y311015D01*
X104817Y313217D01*
X102615Y314907D01*
X100051Y315969D01*
X98570Y316164D01*
D02*
G37*
G36*
X96030D02*
X94549Y315969D01*
X91985Y314907D01*
X89783Y313217D01*
X88093Y311015D01*
X87031Y308451D01*
X86836Y306970D01*
X96030D01*
Y316164D01*
D02*
G37*
G36*
X423396Y307131D02*
X419270D01*
Y303005D01*
X420162Y303183D01*
X421994Y304407D01*
X423219Y306239D01*
X423396Y307131D01*
D02*
G37*
G36*
X416730D02*
X412604D01*
X412781Y306239D01*
X414006Y304407D01*
X415838Y303183D01*
X416730Y303005D01*
Y307131D01*
D02*
G37*
G36*
X309049Y305480D02*
X301520D01*
Y297950D01*
X302571Y298089D01*
X304733Y298985D01*
X306590Y300410D01*
X308015Y302267D01*
X308911Y304429D01*
X309049Y305480D01*
D02*
G37*
G36*
X298980D02*
X291451D01*
X291589Y304429D01*
X292485Y302267D01*
X293910Y300410D01*
X295767Y298985D01*
X297929Y298089D01*
X298980Y297950D01*
Y305480D01*
D02*
G37*
G36*
X107764Y304430D02*
X98570D01*
Y295236D01*
X100051Y295431D01*
X102615Y296493D01*
X104817Y298183D01*
X106507Y300385D01*
X107569Y302948D01*
X107764Y304430D01*
D02*
G37*
G36*
X96030D02*
X86836D01*
X87031Y302948D01*
X88093Y300385D01*
X89783Y298183D01*
X91985Y296493D01*
X94549Y295431D01*
X96030Y295236D01*
Y304430D01*
D02*
G37*
G36*
X405020Y277922D02*
Y273796D01*
X409146D01*
X408969Y274688D01*
X407744Y276520D01*
X405912Y277745D01*
X405020Y277922D01*
D02*
G37*
G36*
X402480D02*
X401588Y277745D01*
X399756Y276520D01*
X398531Y274688D01*
X398354Y273796D01*
X402480D01*
Y277922D01*
D02*
G37*
G36*
X354270Y277172D02*
Y273046D01*
X358396D01*
X358219Y273938D01*
X356994Y275770D01*
X355162Y276994D01*
X354270Y277172D01*
D02*
G37*
G36*
X351730D02*
X350838Y276994D01*
X349006Y275770D01*
X347781Y273938D01*
X347604Y273046D01*
X351730D01*
Y277172D01*
D02*
G37*
G36*
X409146Y271256D02*
X405020D01*
Y267130D01*
X405912Y267307D01*
X407744Y268532D01*
X408969Y270364D01*
X409146Y271256D01*
D02*
G37*
G36*
X402480D02*
X398354D01*
X398531Y270364D01*
X399756Y268532D01*
X401588Y267307D01*
X402480Y267130D01*
Y271256D01*
D02*
G37*
G36*
X358396Y270506D02*
X354270D01*
Y266380D01*
X355162Y266557D01*
X356994Y267782D01*
X358219Y269614D01*
X358396Y270506D01*
D02*
G37*
G36*
X351730D02*
X347604D01*
X347781Y269614D01*
X349006Y267782D01*
X350838Y266557D01*
X351730Y266380D01*
Y270506D01*
D02*
G37*
G36*
X163270Y256896D02*
Y252770D01*
X167396D01*
X167219Y253662D01*
X165994Y255494D01*
X164162Y256719D01*
X163270Y256896D01*
D02*
G37*
G36*
X160730D02*
X159838Y256719D01*
X158006Y255494D01*
X156781Y253662D01*
X156604Y252770D01*
X160730D01*
Y256896D01*
D02*
G37*
G36*
X167396Y250230D02*
X163270D01*
Y246104D01*
X164162Y246281D01*
X165994Y247506D01*
X167219Y249338D01*
X167396Y250230D01*
D02*
G37*
G36*
X160730D02*
X156604D01*
X156781Y249338D01*
X158006Y247506D01*
X159838Y246281D01*
X160730Y246104D01*
Y250230D01*
D02*
G37*
G36*
X797000Y316920D02*
X795127Y316548D01*
X793539Y315487D01*
X792478Y313899D01*
X792106Y312026D01*
X792478Y310153D01*
X793539Y308565D01*
X794247Y308092D01*
Y244076D01*
X786400D01*
Y223476D01*
X807000D01*
Y244076D01*
X799753D01*
Y308092D01*
X800461Y308565D01*
X801522Y310153D01*
X801894Y312026D01*
X801522Y313899D01*
X800461Y315487D01*
X798873Y316548D01*
X797000Y316920D01*
D02*
G37*
G36*
X771300Y244165D02*
X768611Y243811D01*
X766106Y242773D01*
X763954Y241122D01*
X762303Y238970D01*
X761265Y236465D01*
X760911Y233776D01*
X761265Y231087D01*
X762303Y228582D01*
X763954Y226430D01*
X766106Y224779D01*
X768611Y223741D01*
X771300Y223387D01*
X773989Y223741D01*
X776494Y224779D01*
X778646Y226430D01*
X780297Y228582D01*
X781335Y231087D01*
X781689Y233776D01*
X781335Y236465D01*
X780297Y238970D01*
X778646Y241122D01*
X776494Y242773D01*
X773989Y243811D01*
X771300Y244165D01*
D02*
G37*
G36*
X745900D02*
X743211Y243811D01*
X740706Y242773D01*
X738554Y241122D01*
X736903Y238970D01*
X735865Y236465D01*
X735511Y233776D01*
X735865Y231087D01*
X736903Y228582D01*
X738554Y226430D01*
X740706Y224779D01*
X743211Y223741D01*
X745900Y223387D01*
X748589Y223741D01*
X751094Y224779D01*
X753246Y226430D01*
X754897Y228582D01*
X755935Y231087D01*
X756289Y233776D01*
X755935Y236465D01*
X754897Y238970D01*
X753246Y241122D01*
X751094Y242773D01*
X748589Y243811D01*
X745900Y244165D01*
D02*
G37*
G36*
X720500D02*
X717811Y243811D01*
X715306Y242773D01*
X713154Y241122D01*
X711503Y238970D01*
X710465Y236465D01*
X710111Y233776D01*
X710465Y231087D01*
X711503Y228582D01*
X713154Y226430D01*
X715306Y224779D01*
X717811Y223741D01*
X720500Y223387D01*
X723189Y223741D01*
X725694Y224779D01*
X727846Y226430D01*
X729497Y228582D01*
X730535Y231087D01*
X730889Y233776D01*
X730535Y236465D01*
X729497Y238970D01*
X727846Y241122D01*
X725694Y242773D01*
X723189Y243811D01*
X720500Y244165D01*
D02*
G37*
G36*
X695100D02*
X692411Y243811D01*
X689906Y242773D01*
X687754Y241122D01*
X686103Y238970D01*
X685065Y236465D01*
X684711Y233776D01*
X685065Y231087D01*
X686103Y228582D01*
X687754Y226430D01*
X689906Y224779D01*
X692411Y223741D01*
X695100Y223387D01*
X697789Y223741D01*
X700294Y224779D01*
X702446Y226430D01*
X704097Y228582D01*
X705135Y231087D01*
X705489Y233776D01*
X705135Y236465D01*
X704097Y238970D01*
X702446Y241122D01*
X700294Y242773D01*
X697789Y243811D01*
X695100Y244165D01*
D02*
G37*
G36*
X669700D02*
X667011Y243811D01*
X664506Y242773D01*
X662354Y241122D01*
X660703Y238970D01*
X659665Y236465D01*
X659311Y233776D01*
X659665Y231087D01*
X660703Y228582D01*
X662354Y226430D01*
X664506Y224779D01*
X667011Y223741D01*
X669700Y223387D01*
X672389Y223741D01*
X674894Y224779D01*
X677046Y226430D01*
X678697Y228582D01*
X679735Y231087D01*
X680089Y233776D01*
X679735Y236465D01*
X678697Y238970D01*
X677046Y241122D01*
X674894Y242773D01*
X672389Y243811D01*
X669700Y244165D01*
D02*
G37*
G36*
X644300D02*
X641611Y243811D01*
X639106Y242773D01*
X636954Y241122D01*
X635303Y238970D01*
X634265Y236465D01*
X633911Y233776D01*
X634265Y231087D01*
X635303Y228582D01*
X636954Y226430D01*
X639106Y224779D01*
X641611Y223741D01*
X644300Y223387D01*
X646989Y223741D01*
X649494Y224779D01*
X651646Y226430D01*
X653297Y228582D01*
X654335Y231087D01*
X654689Y233776D01*
X654335Y236465D01*
X653297Y238970D01*
X651646Y241122D01*
X649494Y242773D01*
X646989Y243811D01*
X644300Y244165D01*
D02*
G37*
G36*
X618900D02*
X616211Y243811D01*
X613706Y242773D01*
X611554Y241122D01*
X609903Y238970D01*
X608865Y236465D01*
X608511Y233776D01*
X608865Y231087D01*
X609903Y228582D01*
X611554Y226430D01*
X613706Y224779D01*
X616211Y223741D01*
X618900Y223387D01*
X621589Y223741D01*
X624094Y224779D01*
X626246Y226430D01*
X627897Y228582D01*
X628935Y231087D01*
X629289Y233776D01*
X628935Y236465D01*
X627897Y238970D01*
X626246Y241122D01*
X624094Y242773D01*
X621589Y243811D01*
X618900Y244165D01*
D02*
G37*
G36*
X593500D02*
X590811Y243811D01*
X588306Y242773D01*
X586154Y241122D01*
X584503Y238970D01*
X583465Y236465D01*
X583111Y233776D01*
X583465Y231087D01*
X584503Y228582D01*
X586154Y226430D01*
X588306Y224779D01*
X590811Y223741D01*
X593500Y223387D01*
X596189Y223741D01*
X598694Y224779D01*
X600846Y226430D01*
X602497Y228582D01*
X603535Y231087D01*
X603889Y233776D01*
X603535Y236465D01*
X602497Y238970D01*
X600846Y241122D01*
X598694Y242773D01*
X596189Y243811D01*
X593500Y244165D01*
D02*
G37*
G36*
X441100D02*
X438411Y243811D01*
X435906Y242773D01*
X433754Y241122D01*
X432103Y238970D01*
X431065Y236465D01*
X430711Y233776D01*
X431065Y231087D01*
X432103Y228582D01*
X433754Y226430D01*
X435906Y224779D01*
X438411Y223741D01*
X441100Y223387D01*
X443789Y223741D01*
X446294Y224779D01*
X448446Y226430D01*
X450097Y228582D01*
X451135Y231087D01*
X451489Y233776D01*
X451135Y236465D01*
X450097Y238970D01*
X448446Y241122D01*
X446294Y242773D01*
X443789Y243811D01*
X441100Y244165D01*
D02*
G37*
G36*
X415700D02*
X413011Y243811D01*
X410506Y242773D01*
X408354Y241122D01*
X406703Y238970D01*
X405665Y236465D01*
X405311Y233776D01*
X405665Y231087D01*
X406703Y228582D01*
X408354Y226430D01*
X410506Y224779D01*
X413011Y223741D01*
X415700Y223387D01*
X418389Y223741D01*
X420894Y224779D01*
X423046Y226430D01*
X424697Y228582D01*
X425735Y231087D01*
X426089Y233776D01*
X425735Y236465D01*
X424697Y238970D01*
X423046Y241122D01*
X420894Y242773D01*
X418389Y243811D01*
X415700Y244165D01*
D02*
G37*
G36*
X390300D02*
X387611Y243811D01*
X385106Y242773D01*
X382954Y241122D01*
X381303Y238970D01*
X380265Y236465D01*
X379911Y233776D01*
X380265Y231087D01*
X381303Y228582D01*
X382954Y226430D01*
X385106Y224779D01*
X387611Y223741D01*
X390300Y223387D01*
X392989Y223741D01*
X395494Y224779D01*
X397646Y226430D01*
X399297Y228582D01*
X400335Y231087D01*
X400689Y233776D01*
X400335Y236465D01*
X399297Y238970D01*
X397646Y241122D01*
X395494Y242773D01*
X392989Y243811D01*
X390300Y244165D01*
D02*
G37*
G36*
X364900D02*
X362211Y243811D01*
X359706Y242773D01*
X357554Y241122D01*
X355903Y238970D01*
X354865Y236465D01*
X354511Y233776D01*
X354865Y231087D01*
X355903Y228582D01*
X357554Y226430D01*
X359706Y224779D01*
X362211Y223741D01*
X364900Y223387D01*
X367589Y223741D01*
X370094Y224779D01*
X372246Y226430D01*
X373897Y228582D01*
X374935Y231087D01*
X375289Y233776D01*
X374935Y236465D01*
X373897Y238970D01*
X372246Y241122D01*
X370094Y242773D01*
X367589Y243811D01*
X364900Y244165D01*
D02*
G37*
G36*
X339500D02*
X336811Y243811D01*
X334306Y242773D01*
X332154Y241122D01*
X330503Y238970D01*
X329465Y236465D01*
X329111Y233776D01*
X329465Y231087D01*
X330503Y228582D01*
X332154Y226430D01*
X334306Y224779D01*
X336811Y223741D01*
X339500Y223387D01*
X342189Y223741D01*
X344694Y224779D01*
X346846Y226430D01*
X348497Y228582D01*
X349535Y231087D01*
X349889Y233776D01*
X349535Y236465D01*
X348497Y238970D01*
X346846Y241122D01*
X344694Y242773D01*
X342189Y243811D01*
X339500Y244165D01*
D02*
G37*
G36*
X314100D02*
X311411Y243811D01*
X308906Y242773D01*
X306754Y241122D01*
X305103Y238970D01*
X304065Y236465D01*
X303711Y233776D01*
X304065Y231087D01*
X305103Y228582D01*
X306754Y226430D01*
X308906Y224779D01*
X311411Y223741D01*
X314100Y223387D01*
X316789Y223741D01*
X319294Y224779D01*
X321446Y226430D01*
X323097Y228582D01*
X324135Y231087D01*
X324489Y233776D01*
X324135Y236465D01*
X323097Y238970D01*
X321446Y241122D01*
X319294Y242773D01*
X316789Y243811D01*
X314100Y244165D01*
D02*
G37*
G36*
X288700D02*
X286011Y243811D01*
X283506Y242773D01*
X281354Y241122D01*
X279703Y238970D01*
X278665Y236465D01*
X278311Y233776D01*
X278665Y231087D01*
X279703Y228582D01*
X281354Y226430D01*
X283506Y224779D01*
X286011Y223741D01*
X288700Y223387D01*
X291389Y223741D01*
X293894Y224779D01*
X296046Y226430D01*
X297697Y228582D01*
X298735Y231087D01*
X299089Y233776D01*
X298735Y236465D01*
X297697Y238970D01*
X296046Y241122D01*
X293894Y242773D01*
X291389Y243811D01*
X288700Y244165D01*
D02*
G37*
G36*
X263300D02*
X260611Y243811D01*
X258106Y242773D01*
X255954Y241122D01*
X254303Y238970D01*
X253265Y236465D01*
X252911Y233776D01*
X253265Y231087D01*
X254303Y228582D01*
X255954Y226430D01*
X258106Y224779D01*
X260611Y223741D01*
X263300Y223387D01*
X265989Y223741D01*
X268494Y224779D01*
X270646Y226430D01*
X272297Y228582D01*
X273335Y231087D01*
X273689Y233776D01*
X273335Y236465D01*
X272297Y238970D01*
X270646Y241122D01*
X268494Y242773D01*
X265989Y243811D01*
X263300Y244165D01*
D02*
G37*
G36*
X97500Y236589D02*
X94811Y236235D01*
X92306Y235197D01*
X90154Y233546D01*
X88503Y231394D01*
X87465Y228889D01*
X87111Y226200D01*
X87465Y223511D01*
X88503Y221006D01*
X90154Y218854D01*
X92306Y217203D01*
X94811Y216165D01*
X97500Y215811D01*
X100189Y216165D01*
X102694Y217203D01*
X104846Y218854D01*
X106497Y221006D01*
X107535Y223511D01*
X107889Y226200D01*
X107535Y228889D01*
X106497Y231394D01*
X104846Y233546D01*
X102694Y235197D01*
X100189Y236235D01*
X97500Y236589D01*
D02*
G37*
G36*
Y211189D02*
X94811Y210835D01*
X92306Y209797D01*
X90154Y208146D01*
X88503Y205994D01*
X87465Y203489D01*
X87111Y200800D01*
X87465Y198111D01*
X88503Y195606D01*
X90154Y193454D01*
X92306Y191803D01*
X94811Y190765D01*
X97500Y190411D01*
X100189Y190765D01*
X102694Y191803D01*
X104846Y193454D01*
X106497Y195606D01*
X107535Y198111D01*
X107889Y200800D01*
X107535Y203489D01*
X106497Y205994D01*
X104846Y208146D01*
X102694Y209797D01*
X100189Y210835D01*
X97500Y211189D01*
D02*
G37*
G36*
Y185789D02*
X94811Y185435D01*
X92306Y184397D01*
X90154Y182746D01*
X88503Y180594D01*
X87465Y178089D01*
X87111Y175400D01*
X87465Y172711D01*
X88503Y170206D01*
X90154Y168054D01*
X92306Y166403D01*
X94811Y165365D01*
X97500Y165011D01*
X100189Y165365D01*
X102694Y166403D01*
X104846Y168054D01*
X106497Y170206D01*
X107535Y172711D01*
X107889Y175400D01*
X107535Y178089D01*
X106497Y180594D01*
X104846Y182746D01*
X102694Y184397D01*
X100189Y185435D01*
X97500Y185789D01*
D02*
G37*
G36*
Y160389D02*
X94811Y160035D01*
X92306Y158997D01*
X90154Y157346D01*
X88503Y155194D01*
X87465Y152689D01*
X87111Y150000D01*
X87465Y147311D01*
X88503Y144806D01*
X90154Y142654D01*
X92306Y141003D01*
X94811Y139965D01*
X97500Y139611D01*
X100189Y139965D01*
X102694Y141003D01*
X104846Y142654D01*
X106497Y144806D01*
X107535Y147311D01*
X107889Y150000D01*
X107535Y152689D01*
X106497Y155194D01*
X104846Y157346D01*
X102694Y158997D01*
X100189Y160035D01*
X97500Y160389D01*
D02*
G37*
G36*
X361020Y130172D02*
Y126046D01*
X365146D01*
X364969Y126938D01*
X363744Y128770D01*
X361912Y129995D01*
X361020Y130172D01*
D02*
G37*
G36*
X358480D02*
X357588Y129995D01*
X355756Y128770D01*
X354531Y126938D01*
X354354Y126046D01*
X358480D01*
Y130172D01*
D02*
G37*
G36*
X98770Y135568D02*
Y125870D01*
X108468D01*
X108256Y127482D01*
X107143Y130168D01*
X105374Y132474D01*
X103068Y134243D01*
X100382Y135356D01*
X98770Y135568D01*
D02*
G37*
G36*
X96230D02*
X94618Y135356D01*
X91932Y134243D01*
X89626Y132474D01*
X87857Y130168D01*
X86744Y127482D01*
X86532Y125870D01*
X96230D01*
Y135568D01*
D02*
G37*
G36*
X365146Y123506D02*
X361020D01*
Y119380D01*
X361912Y119557D01*
X363744Y120782D01*
X364969Y122614D01*
X365146Y123506D01*
D02*
G37*
G36*
X358480D02*
X354354D01*
X354531Y122614D01*
X355756Y120782D01*
X357588Y119557D01*
X358480Y119380D01*
Y123506D01*
D02*
G37*
G36*
X108468Y123330D02*
X98770D01*
Y113632D01*
X100382Y113844D01*
X103068Y114957D01*
X105374Y116726D01*
X107143Y119032D01*
X108256Y121718D01*
X108468Y123330D01*
D02*
G37*
G36*
X96230D02*
X86532D01*
X86744Y121718D01*
X87857Y119032D01*
X89626Y116726D01*
X91932Y114957D01*
X94618Y113844D01*
X96230Y113632D01*
Y123330D01*
D02*
G37*
G36*
X590500Y92420D02*
X588627Y92048D01*
X587039Y90987D01*
X585979Y89399D01*
X585606Y87526D01*
X585979Y85653D01*
X587039Y84065D01*
X588627Y83005D01*
X590500Y82632D01*
X591214Y82774D01*
X603231Y70757D01*
X604157Y70139D01*
X605250Y69921D01*
X612200D01*
Y62476D01*
X632800D01*
Y83076D01*
X612200D01*
Y75631D01*
X606432D01*
X595252Y86812D01*
X595394Y87526D01*
X595022Y89399D01*
X593961Y90987D01*
X592373Y92048D01*
X590500Y92420D01*
D02*
G37*
G36*
X462250Y107420D02*
X460377Y107048D01*
X458789Y105987D01*
X457729Y104399D01*
X457356Y102526D01*
X457729Y100653D01*
X458789Y99065D01*
X459395Y98661D01*
Y83076D01*
X452200D01*
Y62476D01*
X472800D01*
Y83076D01*
X465105D01*
Y98661D01*
X465711Y99065D01*
X466772Y100653D01*
X467144Y102526D01*
X466772Y104399D01*
X465711Y105987D01*
X464123Y107048D01*
X462250Y107420D01*
D02*
G37*
G36*
X288000Y111644D02*
X286127Y111271D01*
X284539Y110211D01*
X283479Y108623D01*
X283106Y106750D01*
X283479Y104877D01*
X284539Y103289D01*
X286127Y102228D01*
X288000Y101856D01*
X289873Y102228D01*
X291461Y103289D01*
X291865Y103895D01*
X298067D01*
X299645Y102317D01*
Y83076D01*
X292200D01*
Y62476D01*
X312800D01*
Y83076D01*
X305355D01*
Y103500D01*
X305138Y104593D01*
X304519Y105519D01*
X301269Y108769D01*
X300343Y109388D01*
X299250Y109605D01*
X291865D01*
X291461Y110211D01*
X289873Y111271D01*
X288000Y111644D01*
D02*
G37*
G36*
X717500Y83165D02*
X714811Y82811D01*
X712306Y81773D01*
X710154Y80122D01*
X708503Y77970D01*
X707465Y75465D01*
X707111Y72776D01*
X707465Y70087D01*
X708503Y67582D01*
X710154Y65430D01*
X712306Y63779D01*
X714811Y62741D01*
X717500Y62387D01*
X720189Y62741D01*
X722694Y63779D01*
X724846Y65430D01*
X726497Y67582D01*
X727535Y70087D01*
X727889Y72776D01*
X727535Y75465D01*
X726497Y77970D01*
X724846Y80122D01*
X722694Y81773D01*
X720189Y82811D01*
X717500Y83165D01*
D02*
G37*
G36*
X557500D02*
X554811Y82811D01*
X552305Y81773D01*
X550154Y80122D01*
X548503Y77970D01*
X547465Y75465D01*
X547111Y72776D01*
X547465Y70087D01*
X548503Y67582D01*
X550154Y65430D01*
X552305Y63779D01*
X554811Y62741D01*
X557500Y62387D01*
X560189Y62741D01*
X562694Y63779D01*
X564846Y65430D01*
X566497Y67582D01*
X567535Y70087D01*
X567889Y72776D01*
X567535Y75465D01*
X566497Y77970D01*
X564846Y80122D01*
X562694Y81773D01*
X560189Y82811D01*
X557500Y83165D01*
D02*
G37*
G36*
X397500D02*
X394811Y82811D01*
X392306Y81773D01*
X390154Y80122D01*
X388503Y77970D01*
X387465Y75465D01*
X387111Y72776D01*
X387465Y70087D01*
X388503Y67582D01*
X390154Y65430D01*
X392306Y63779D01*
X394811Y62741D01*
X397500Y62387D01*
X400189Y62741D01*
X402694Y63779D01*
X404846Y65430D01*
X406497Y67582D01*
X407535Y70087D01*
X407889Y72776D01*
X407535Y75465D01*
X406497Y77970D01*
X404846Y80122D01*
X402694Y81773D01*
X400189Y82811D01*
X397500Y83165D01*
D02*
G37*
G36*
X237500D02*
X234811Y82811D01*
X232306Y81773D01*
X230154Y80122D01*
X228503Y77970D01*
X227465Y75465D01*
X227111Y72776D01*
X227465Y70087D01*
X228503Y67582D01*
X230154Y65430D01*
X232306Y63779D01*
X234811Y62741D01*
X237500Y62387D01*
X240189Y62741D01*
X242694Y63779D01*
X244846Y65430D01*
X246497Y67582D01*
X247535Y70087D01*
X247889Y72776D01*
X247535Y75465D01*
X246497Y77970D01*
X244846Y80122D01*
X242694Y81773D01*
X240189Y82811D01*
X237500Y83165D01*
D02*
G37*
G36*
X539270Y59922D02*
Y55796D01*
X543396D01*
X543218Y56688D01*
X541994Y58520D01*
X540162Y59745D01*
X539270Y59922D01*
D02*
G37*
G36*
X536730D02*
X535838Y59745D01*
X534006Y58520D01*
X532781Y56688D01*
X532604Y55796D01*
X536730D01*
Y59922D01*
D02*
G37*
G36*
X688520Y58922D02*
Y54796D01*
X692646D01*
X692469Y55688D01*
X691244Y57520D01*
X689412Y58745D01*
X688520Y58922D01*
D02*
G37*
G36*
X685980D02*
X685088Y58745D01*
X683256Y57520D01*
X682031Y55688D01*
X681854Y54796D01*
X685980D01*
Y58922D01*
D02*
G37*
G36*
X358520D02*
Y54796D01*
X362646D01*
X362469Y55688D01*
X361244Y57520D01*
X359412Y58745D01*
X358520Y58922D01*
D02*
G37*
G36*
X794728Y173572D02*
X792855Y173200D01*
X791267Y172139D01*
X790207Y170551D01*
X789834Y168678D01*
X790207Y166805D01*
X791267Y165217D01*
X791873Y164813D01*
Y83076D01*
X772200D01*
Y62476D01*
X791873D01*
Y59548D01*
X792091Y58456D01*
X792709Y57529D01*
X795248Y54991D01*
X795106Y54276D01*
X795479Y52403D01*
X796539Y50815D01*
X798127Y49755D01*
X800000Y49382D01*
X801873Y49755D01*
X803461Y50815D01*
X804521Y52403D01*
X804894Y54276D01*
X804521Y56149D01*
X803461Y57737D01*
X801873Y58797D01*
X800000Y59170D01*
X799286Y59028D01*
X797583Y60731D01*
Y164813D01*
X798189Y165217D01*
X799249Y166805D01*
X799622Y168678D01*
X799249Y170551D01*
X798189Y172139D01*
X796601Y173200D01*
X794728Y173572D01*
D02*
G37*
G36*
X543396Y53256D02*
X539270D01*
Y49130D01*
X540162Y49307D01*
X541994Y50532D01*
X543218Y52364D01*
X543396Y53256D01*
D02*
G37*
G36*
X536730D02*
X532604D01*
X532781Y52364D01*
X534006Y50532D01*
X535838Y49307D01*
X536730Y49130D01*
Y53256D01*
D02*
G37*
G36*
X692646Y52256D02*
X688520D01*
Y48130D01*
X689412Y48307D01*
X691244Y49532D01*
X692469Y51364D01*
X692646Y52256D01*
D02*
G37*
G36*
X685980D02*
X681854D01*
X682031Y51364D01*
X683256Y49532D01*
X685088Y48307D01*
X685980Y48130D01*
Y52256D01*
D02*
G37*
G36*
X362646D02*
X358520D01*
Y48130D01*
X359412Y48307D01*
X361244Y49532D01*
X362469Y51364D01*
X362646Y52256D01*
D02*
G37*
G36*
X344250Y127920D02*
X342377Y127548D01*
X340789Y126487D01*
X339729Y124899D01*
X339356Y123026D01*
X339729Y121153D01*
X340789Y119565D01*
X341395Y119161D01*
Y57608D01*
X341561Y56773D01*
X341479Y56649D01*
X341106Y54776D01*
X341479Y52903D01*
X342539Y51315D01*
X344098Y50274D01*
X344129Y50248D01*
X344572Y48871D01*
X343782Y47688D01*
X343604Y46796D01*
X354396D01*
X354293Y47311D01*
X354693Y47812D01*
X355089Y48153D01*
X355300Y48265D01*
X355980Y48130D01*
Y53526D01*
Y58922D01*
X355088Y58745D01*
X353256Y57520D01*
X352032Y55688D01*
X352020Y55628D01*
X350725D01*
X350522Y56649D01*
X349461Y58237D01*
X347873Y59297D01*
X347105Y59450D01*
Y119161D01*
X347711Y119565D01*
X348772Y121153D01*
X349144Y123026D01*
X348772Y124899D01*
X347711Y126487D01*
X346123Y127548D01*
X344250Y127920D01*
D02*
G37*
G36*
X839770Y50172D02*
Y46046D01*
X843896D01*
X843719Y46938D01*
X842494Y48770D01*
X840662Y49995D01*
X839770Y50172D01*
D02*
G37*
G36*
X837230D02*
X836338Y49995D01*
X834506Y48770D01*
X833281Y46938D01*
X833104Y46046D01*
X837230D01*
Y50172D01*
D02*
G37*
G36*
X520146Y44506D02*
X516020D01*
Y40380D01*
X516912Y40557D01*
X518744Y41782D01*
X519969Y43614D01*
X520146Y44506D01*
D02*
G37*
G36*
X513480D02*
X509354D01*
X509531Y43614D01*
X510756Y41782D01*
X512588Y40557D01*
X513480Y40380D01*
Y44506D01*
D02*
G37*
G36*
X354396Y44256D02*
X350270D01*
Y40130D01*
X351162Y40307D01*
X352994Y41532D01*
X354219Y43364D01*
X354396Y44256D01*
D02*
G37*
G36*
X347730D02*
X343604D01*
X343782Y43364D01*
X345006Y41532D01*
X346838Y40307D01*
X347730Y40130D01*
Y44256D01*
D02*
G37*
G36*
X843896Y43506D02*
X839770D01*
Y39380D01*
X840662Y39557D01*
X842494Y40782D01*
X843719Y42614D01*
X843896Y43506D01*
D02*
G37*
G36*
X837230D02*
X833104D01*
X833281Y42614D01*
X834506Y40782D01*
X836338Y39557D01*
X837230Y39380D01*
Y43506D01*
D02*
G37*
G36*
X637502Y161634D02*
X635629Y161262D01*
X634041Y160201D01*
X632980Y158613D01*
X632608Y156740D01*
X632980Y154867D01*
X634041Y153279D01*
X635146Y152541D01*
Y43808D01*
X635039Y43737D01*
X633979Y42149D01*
X633606Y40276D01*
X633979Y38403D01*
X635039Y36815D01*
X636627Y35754D01*
X638500Y35382D01*
X640373Y35754D01*
X641961Y36815D01*
X643021Y38403D01*
X643394Y40276D01*
X643021Y42149D01*
X641961Y43737D01*
X640856Y44475D01*
Y153208D01*
X640963Y153279D01*
X642023Y154867D01*
X642396Y156740D01*
X642023Y158613D01*
X640963Y160201D01*
X639375Y161262D01*
X637502Y161634D01*
D02*
G37*
G36*
X685770Y34422D02*
Y30296D01*
X689896D01*
X689719Y31188D01*
X688494Y33020D01*
X686662Y34245D01*
X685770Y34422D01*
D02*
G37*
G36*
X683230D02*
X682338Y34245D01*
X680506Y33020D01*
X679281Y31188D01*
X679104Y30296D01*
X683230D01*
Y34422D01*
D02*
G37*
G36*
X1000000Y91898D02*
X995010Y91506D01*
X990143Y90337D01*
X985518Y88422D01*
X981251Y85806D01*
X977445Y82556D01*
X974194Y78749D01*
X971578Y74482D01*
X969663Y69857D01*
X968494Y64990D01*
X968102Y60000D01*
X968494Y55010D01*
X969663Y50143D01*
X971578Y45518D01*
X974194Y41251D01*
X977445Y37445D01*
X981251Y34194D01*
X985518Y31578D01*
X990143Y29663D01*
X995010Y28494D01*
X1000000Y28102D01*
X1004990Y28494D01*
X1009857Y29663D01*
X1014482Y31578D01*
X1018749Y34194D01*
X1022555Y37445D01*
X1025806Y41251D01*
X1028422Y45518D01*
X1030337Y50143D01*
X1031506Y55010D01*
X1031898Y60000D01*
X1031506Y64990D01*
X1030337Y69857D01*
X1028422Y74482D01*
X1025806Y78749D01*
X1022555Y82556D01*
X1018749Y85806D01*
X1014482Y88422D01*
X1009857Y90337D01*
X1004990Y91506D01*
X1000000Y91898D01*
D02*
G37*
G36*
X60000D02*
X55010Y91506D01*
X50143Y90337D01*
X45518Y88422D01*
X41251Y85806D01*
X37445Y82556D01*
X34194Y78749D01*
X31578Y74482D01*
X29663Y69857D01*
X28494Y64990D01*
X28102Y60000D01*
X28494Y55010D01*
X29663Y50143D01*
X31578Y45518D01*
X34194Y41251D01*
X37445Y37445D01*
X41251Y34194D01*
X45518Y31578D01*
X50143Y29663D01*
X55010Y28494D01*
X60000Y28102D01*
X64990Y28494D01*
X69857Y29663D01*
X74482Y31578D01*
X78749Y34194D01*
X82556Y37445D01*
X85806Y41251D01*
X88422Y45518D01*
X90337Y50143D01*
X91506Y55010D01*
X91898Y60000D01*
X91506Y64990D01*
X90337Y69857D01*
X88422Y74482D01*
X85806Y78749D01*
X82556Y82556D01*
X78749Y85806D01*
X74482Y88422D01*
X69857Y90337D01*
X64990Y91506D01*
X60000Y91898D01*
D02*
G37*
G36*
X689896Y27756D02*
X685770D01*
Y23630D01*
X686662Y23807D01*
X688494Y25032D01*
X689719Y26864D01*
X689896Y27756D01*
D02*
G37*
G36*
X683230D02*
X679104D01*
X679281Y26864D01*
X680506Y25032D01*
X682338Y23807D01*
X683230Y23630D01*
Y27756D01*
D02*
G37*
G36*
X717500Y38165D02*
X714811Y37811D01*
X712306Y36773D01*
X710154Y35122D01*
X708503Y32970D01*
X707465Y30465D01*
X707111Y27776D01*
X707465Y25087D01*
X708503Y22582D01*
X710154Y20430D01*
X712306Y18779D01*
X714811Y17741D01*
X717500Y17387D01*
X720189Y17741D01*
X722694Y18779D01*
X724846Y20430D01*
X726497Y22582D01*
X727535Y25087D01*
X727889Y27776D01*
X727535Y30465D01*
X726497Y32970D01*
X724846Y35122D01*
X722694Y36773D01*
X720189Y37811D01*
X717500Y38165D01*
D02*
G37*
G36*
X622500D02*
X619811Y37811D01*
X617305Y36773D01*
X615154Y35122D01*
X613503Y32970D01*
X612465Y30465D01*
X612111Y27776D01*
X612465Y25087D01*
X613503Y22582D01*
X615154Y20430D01*
X617305Y18779D01*
X619811Y17741D01*
X622500Y17387D01*
X625189Y17741D01*
X627694Y18779D01*
X629846Y20430D01*
X631497Y22582D01*
X632535Y25087D01*
X632889Y27776D01*
X632535Y30465D01*
X631497Y32970D01*
X629846Y35122D01*
X627694Y36773D01*
X625189Y37811D01*
X622500Y38165D01*
D02*
G37*
G36*
X557500D02*
X554811Y37811D01*
X552305Y36773D01*
X550154Y35122D01*
X548503Y32970D01*
X547465Y30465D01*
X547111Y27776D01*
X547465Y25087D01*
X548503Y22582D01*
X550154Y20430D01*
X552305Y18779D01*
X554811Y17741D01*
X557500Y17387D01*
X560189Y17741D01*
X562694Y18779D01*
X564846Y20430D01*
X566497Y22582D01*
X567535Y25087D01*
X567889Y27776D01*
X567535Y30465D01*
X566497Y32970D01*
X564846Y35122D01*
X562694Y36773D01*
X560189Y37811D01*
X557500Y38165D01*
D02*
G37*
G36*
X462500D02*
X459811Y37811D01*
X457306Y36773D01*
X455154Y35122D01*
X453503Y32970D01*
X452465Y30465D01*
X452111Y27776D01*
X452465Y25087D01*
X453503Y22582D01*
X455154Y20430D01*
X457306Y18779D01*
X459811Y17741D01*
X462500Y17387D01*
X465189Y17741D01*
X467694Y18779D01*
X469846Y20430D01*
X471497Y22582D01*
X472535Y25087D01*
X472889Y27776D01*
X472535Y30465D01*
X471497Y32970D01*
X469846Y35122D01*
X467694Y36773D01*
X465189Y37811D01*
X462500Y38165D01*
D02*
G37*
G36*
X397500D02*
X394811Y37811D01*
X392306Y36773D01*
X390154Y35122D01*
X388503Y32970D01*
X387465Y30465D01*
X387111Y27776D01*
X387465Y25087D01*
X388503Y22582D01*
X390154Y20430D01*
X392306Y18779D01*
X394811Y17741D01*
X397500Y17387D01*
X400189Y17741D01*
X402694Y18779D01*
X404846Y20430D01*
X406497Y22582D01*
X407535Y25087D01*
X407889Y27776D01*
X407535Y30465D01*
X406497Y32970D01*
X404846Y35122D01*
X402694Y36773D01*
X400189Y37811D01*
X397500Y38165D01*
D02*
G37*
%LPD*%
D10*
X242000Y586276D02*
Y782620D01*
X241770Y782850D02*
X242000Y782620D01*
X276050Y728826D02*
X296250Y749026D01*
X97300Y356776D02*
X110024Y369500D01*
X136974D02*
X144750Y377276D01*
X110024Y369500D02*
X136974D01*
X437323Y348102D02*
X484174D01*
X484250Y348026D01*
X437247Y348177D02*
X437323Y348102D01*
X170400Y502000D02*
Y542566D01*
X166176Y497776D02*
X170400Y502000D01*
X176200Y469774D02*
Y586050D01*
Y469774D02*
X176750Y469224D01*
X163000Y599250D02*
X176200Y586050D01*
X192000Y572500D02*
X192765Y571735D01*
Y569813D02*
X193250Y569328D01*
X192765Y569813D02*
Y571735D01*
X193250Y472000D02*
Y569328D01*
X201625Y475575D02*
Y581375D01*
X201550Y475500D02*
X201625Y475575D01*
Y581375D02*
X202000Y581750D01*
X186200Y564050D02*
X186750Y563500D01*
X186000Y596750D02*
X186200Y596550D01*
Y564050D02*
Y596550D01*
X192375Y572875D02*
Y611625D01*
X192000Y572500D02*
X192375Y572875D01*
Y611625D02*
X192750Y612000D01*
X186750Y563500D02*
X186875Y563375D01*
Y465125D02*
Y563375D01*
Y465125D02*
X187000Y465000D01*
X176750Y457000D02*
Y469224D01*
X462250Y73026D02*
Y102526D01*
X288000Y106750D02*
X299250D01*
X302500Y103500D01*
X465798Y492782D02*
X478429D01*
X492642Y506995D01*
Y508958D01*
X506438Y522754D01*
X530750Y292812D02*
Y432376D01*
X526601Y444627D02*
X526884D01*
X536750Y434761D01*
X302500Y72776D02*
Y103500D01*
X378500Y553504D02*
Y571700D01*
X386550Y553954D02*
Y576326D01*
Y553954D02*
X387000Y553504D01*
X366992Y547392D02*
Y576784D01*
X352500Y591276D02*
X366992Y576784D01*
X252340Y794026D02*
X266154D01*
X250152Y791838D02*
X252340Y794026D01*
X250152Y593112D02*
Y791838D01*
X781104Y446203D02*
Y450350D01*
X783191Y452438D02*
Y519217D01*
X780338Y445438D02*
X781104Y446203D01*
Y450350D02*
X783191Y452438D01*
Y519217D02*
X785500Y521526D01*
X346000Y54776D02*
Y55858D01*
X344250Y57608D02*
Y123026D01*
Y57608D02*
X346000Y55858D01*
X478244Y168678D02*
Y240306D01*
X530750Y292812D01*
X794728Y59548D02*
Y168678D01*
Y59548D02*
X800000Y54276D01*
X637502Y156740D02*
X638001Y156241D01*
Y40775D02*
X638500Y40276D01*
X638001Y40775D02*
Y156241D01*
X504152Y156486D02*
Y247672D01*
X536750Y280270D01*
Y434761D01*
X513804Y136354D02*
Y137436D01*
X510750Y55276D02*
Y133300D01*
X513804Y137436D02*
X530000Y153632D01*
Y245072D01*
X510750Y133300D02*
X513804Y136354D01*
X554952Y115846D02*
Y254852D01*
X553429Y256375D02*
X554952Y254852D01*
X553429Y256375D02*
Y385178D01*
X110050Y497776D02*
X166176D01*
X276050Y437928D02*
X301206Y412772D01*
X276050Y437928D02*
Y728826D01*
X445732Y649754D02*
Y657120D01*
X453860Y595906D02*
Y641626D01*
X445732Y649754D02*
X453860Y641626D01*
Y595906D02*
X460000Y589766D01*
X354800Y640726D02*
X377250Y618276D01*
X354800Y640726D02*
Y670328D01*
X580860Y473765D02*
Y641626D01*
X569938Y462843D02*
X580860Y473765D01*
X483062Y635776D02*
Y689132D01*
X391376Y641626D02*
Y688870D01*
X301714Y556812D02*
Y651786D01*
X460000Y498026D02*
Y589766D01*
X403250Y593026D02*
Y628854D01*
X342750Y629026D02*
Y698854D01*
X343922Y700026D02*
X363500D01*
X342750Y698854D02*
X343922Y700026D01*
X377250Y572950D02*
X378500Y571700D01*
X377250Y572950D02*
Y618276D01*
X352500Y591276D02*
Y622276D01*
X327500Y528026D02*
Y635776D01*
Y528026D02*
X333250Y522276D01*
Y508026D02*
Y522276D01*
X301714Y556812D02*
X303600Y554926D01*
Y510200D02*
Y554926D01*
X242000Y586276D02*
X249000Y579276D01*
X386550Y576326D02*
X403250Y593026D01*
X590500Y87526D02*
X605250Y72776D01*
X622500D01*
X462250Y73026D02*
X462500Y72776D01*
X413375Y409401D02*
X413875Y408901D01*
X413000Y470026D02*
X413375Y469651D01*
Y409401D02*
Y469651D01*
X357250Y448526D02*
X368750Y460026D01*
X298500Y448526D02*
X357250D01*
X457250Y451526D02*
X535750D01*
X538250Y449026D01*
X413875Y408901D02*
X449125D01*
X449250Y408776D01*
X253962Y400072D02*
X438796D01*
X439250Y400526D01*
X964020Y394876D02*
X964750Y395606D01*
X155312Y403276D02*
X160490Y408454D01*
X122700Y382176D02*
X134138D01*
X155238Y403276D01*
X155312D01*
X97300Y485026D02*
X110050Y497776D01*
X250152Y593112D02*
X264122Y579142D01*
Y434616D02*
Y579142D01*
X292000Y499026D02*
X359500D01*
X746750Y533026D02*
X943250D01*
X944000Y533776D01*
X511250Y291526D02*
Y360276D01*
X511000Y360526D02*
X511250Y360276D01*
X504250Y296526D02*
Y398276D01*
X507000Y401026D01*
Y407526D01*
X639788Y410488D02*
X640000Y410276D01*
X249000Y432276D02*
X254000Y427276D01*
X249000Y432276D02*
Y579276D01*
X553429Y385178D02*
X554250Y385999D01*
Y456026D01*
X252184Y369592D02*
X451324D01*
X463258Y381526D01*
X450992Y377466D02*
X460856Y387330D01*
X251168Y377466D02*
X450992D01*
X520648Y429776D02*
X521170Y430298D01*
X466500Y429776D02*
X520648D01*
X301206Y410994D02*
Y412772D01*
X466094Y387330D02*
X471894Y381530D01*
X460856Y387330D02*
X466094D01*
X734276Y368576D02*
X808952D01*
X543750Y258822D02*
Y437526D01*
X530000Y245072D02*
X543750Y258822D01*
X569938Y315490D02*
Y462843D01*
X728750Y380338D02*
X731000Y382588D01*
X728750Y379776D02*
Y380338D01*
X731000Y382588D02*
Y396276D01*
X719750Y402776D02*
X720000Y403026D01*
X719750Y379776D02*
Y402776D01*
X722750Y509026D02*
X746750Y533026D01*
X516000Y423526D02*
X516250Y423276D01*
X454250Y423526D02*
X516000D01*
X796700Y551976D02*
Y606776D01*
X785750Y541026D02*
X796700Y551976D01*
X464250Y415776D02*
X510750D01*
X511000Y416026D01*
X538250Y449026D02*
X548000D01*
X486000Y335776D02*
X493250Y343026D01*
X461500Y335776D02*
X486000D01*
D11*
X237500Y27776D02*
X302500D01*
D12*
X467250Y621776D02*
Y657526D01*
X146012Y407222D02*
Y426996D01*
X122700Y407576D02*
X124086Y408962D01*
X126880Y406168D01*
X144958D01*
X146012Y407222D01*
D13*
X402242Y391380D02*
X456654D01*
X402044Y391182D02*
X402242Y391380D01*
D56*
X123092Y356384D02*
X138392D01*
X122700Y356776D02*
X123092Y356384D01*
X138392D02*
X154140Y372132D01*
Y393976D01*
X109862Y343938D02*
X132804D01*
X162522Y373656D01*
Y384324D01*
X97300Y331376D02*
X109862Y343938D01*
X247450Y393976D02*
X276568D01*
X276822Y393722D01*
X258788Y387626D02*
X284188D01*
X258280Y388134D02*
X258788Y387626D01*
X796700Y233776D02*
X797000Y234076D01*
Y312026D01*
D57*
X634000Y380729D02*
X638000Y384729D01*
X634000Y355000D02*
Y380729D01*
X424221Y828500D02*
X427150Y825571D01*
Y815776D02*
Y825571D01*
X247500Y828500D02*
X424221D01*
X233471Y814471D02*
X247500Y828500D01*
X233471Y775721D02*
Y814471D01*
X224500Y766750D02*
X233471Y775721D01*
X796250Y732776D02*
X798064Y734590D01*
X372885Y341526D02*
X375885Y338526D01*
X345500Y341526D02*
X372885D01*
X375885Y338526D02*
X403000D01*
X964750Y395606D02*
Y416526D01*
X450607Y540092D02*
X453335Y542820D01*
X359771Y543776D02*
X363455Y540092D01*
X359500Y543776D02*
X359771D01*
X453335Y542820D02*
X453606D01*
X363455Y540092D02*
X450607D01*
X778250Y433026D02*
X922744D01*
X922744Y433026D02*
Y469922D01*
X922744Y433026D02*
X922744Y433026D01*
X328250Y804526D02*
X338750D01*
X329250Y782526D02*
X340250D01*
X338625Y763901D02*
X338750Y763776D01*
X328375Y763901D02*
X338625D01*
X328250Y764026D02*
X328375Y763901D01*
X639788Y410488D02*
Y463572D01*
X578000Y350276D02*
Y384776D01*
D60*
X124500Y307500D02*
X192250D01*
Y43000D02*
Y307500D01*
Y43000D02*
X207474Y27776D01*
X122700Y305700D02*
X124500Y307500D01*
X122700Y279326D02*
Y305976D01*
X207474Y27776D02*
X237500D01*
X134064Y552885D02*
X138750Y548198D01*
Y514507D02*
Y548198D01*
X83992Y552885D02*
X134064D01*
X79306Y284012D02*
Y548198D01*
X83992Y552885D01*
X134064Y509821D02*
X138750Y514507D01*
X123345Y509821D02*
X134064D01*
X122700Y509176D02*
X123345Y509821D01*
X97500Y251600D02*
X118014D01*
X122700Y256286D02*
Y279326D01*
X118014Y251600D02*
X122700Y256286D01*
X79306Y284012D02*
X83992Y279326D01*
X122700D01*
D62*
X798064Y734590D02*
X824700D01*
X782500Y27776D02*
X875250D01*
X923000Y277401D02*
Y469928D01*
Y277401D02*
X932650Y267751D01*
X875250Y27776D02*
X932650Y85176D01*
Y267751D01*
D64*
X97500Y124600D02*
D03*
Y226200D02*
D03*
Y200800D02*
D03*
Y150000D02*
D03*
Y175400D02*
D03*
X142400Y704250D02*
D03*
X117000Y678850D02*
D03*
X142400D02*
D03*
X117000Y653450D02*
D03*
X142400D02*
D03*
X117000Y628050D02*
D03*
X142400D02*
D03*
X466500Y233776D02*
D03*
X288700D02*
D03*
X542700D02*
D03*
X618900D02*
D03*
X695100D02*
D03*
X263300D02*
D03*
X364900D02*
D03*
X314100D02*
D03*
X339500D02*
D03*
X390300D02*
D03*
X415700D02*
D03*
X441100D02*
D03*
X491900D02*
D03*
X517300D02*
D03*
X568100D02*
D03*
X593500D02*
D03*
X669700D02*
D03*
X644300D02*
D03*
X771300D02*
D03*
X720500D02*
D03*
X745900D02*
D03*
X796700Y606776D02*
D03*
X771300D02*
D03*
X720500D02*
D03*
X745900D02*
D03*
X669700D02*
D03*
X644300D02*
D03*
X568100D02*
D03*
X593500D02*
D03*
X491900D02*
D03*
X517300D02*
D03*
X390300D02*
D03*
X415700D02*
D03*
X441100D02*
D03*
X364900D02*
D03*
X314100D02*
D03*
X339500D02*
D03*
X263300D02*
D03*
X542700D02*
D03*
X618900D02*
D03*
X695100D02*
D03*
X466500D02*
D03*
X288700D02*
D03*
X717500Y27776D02*
D03*
Y72776D02*
D03*
X782500Y27776D02*
D03*
X557500D02*
D03*
Y72776D02*
D03*
X622500Y27776D02*
D03*
X397500D02*
D03*
Y72776D02*
D03*
X462500Y27776D02*
D03*
X237500D02*
D03*
Y72776D02*
D03*
X302500Y27776D02*
D03*
D65*
X97500Y251600D02*
D03*
X117000Y704250D02*
D03*
X796700Y233776D02*
D03*
D66*
X1000000Y60000D02*
D03*
X60000Y780000D02*
D03*
Y60000D02*
D03*
X1000000Y790000D02*
D03*
D67*
X414450Y803076D02*
D03*
Y815776D02*
D03*
X427150Y803076D02*
D03*
Y815776D02*
D03*
X439850Y803076D02*
D03*
Y815776D02*
D03*
X452550Y803076D02*
D03*
Y815776D02*
D03*
X465250Y803076D02*
D03*
Y815776D02*
D03*
X477950Y803076D02*
D03*
Y815776D02*
D03*
X490650Y803076D02*
D03*
D68*
Y815776D02*
D03*
D69*
X122700Y305700D02*
D03*
D70*
X97300D02*
D03*
X122700Y331100D02*
D03*
X97300D02*
D03*
X122700Y356500D02*
D03*
X97300D02*
D03*
X122700Y381900D02*
D03*
X97300D02*
D03*
X122700Y407300D02*
D03*
X97300D02*
D03*
X122700Y432700D02*
D03*
X97300D02*
D03*
X122700Y458100D02*
D03*
X97300D02*
D03*
X122700Y483500D02*
D03*
X97300D02*
D03*
X122700Y508900D02*
D03*
X97300D02*
D03*
X122700Y534300D02*
D03*
X97300D02*
D03*
D71*
X782500Y72776D02*
D03*
X622500D02*
D03*
X462500D02*
D03*
X302500D02*
D03*
D72*
X192750Y612000D02*
D03*
X634000Y355000D02*
D03*
X638000Y385000D02*
D03*
X189750Y753250D02*
D03*
X241770Y782850D02*
D03*
X224500Y766750D02*
D03*
X296250Y749026D02*
D03*
X824700Y734590D02*
D03*
X437247Y348177D02*
D03*
X201550Y475500D02*
D03*
X202000Y581750D02*
D03*
X192000Y572500D02*
D03*
X186000Y596750D02*
D03*
X163000Y599250D02*
D03*
X186750Y563500D02*
D03*
X148250Y529250D02*
D03*
X187000Y465000D02*
D03*
X193250Y472000D02*
D03*
X170400Y542566D02*
D03*
X150250Y574500D02*
D03*
X462250Y102526D02*
D03*
X288000Y106750D02*
D03*
X162000Y251500D02*
D03*
X478000Y501250D02*
D03*
X530750Y432376D02*
D03*
X526601Y444627D02*
D03*
X222750Y791500D02*
D03*
X176750Y457000D02*
D03*
X964750Y416526D02*
D03*
X387000Y553504D02*
D03*
X378500D02*
D03*
X289500Y552776D02*
D03*
X366992Y547392D02*
D03*
X396964Y347494D02*
D03*
X266154Y794026D02*
D03*
X780338Y445438D02*
D03*
X922744Y469922D02*
D03*
X344250Y123026D02*
D03*
X478244Y168678D02*
D03*
X794728D02*
D03*
X637502Y156740D02*
D03*
X504152Y156486D02*
D03*
X513804Y137436D02*
D03*
X554952Y115846D02*
D03*
X367500Y658644D02*
D03*
X328250Y804526D02*
D03*
X456654Y657374D02*
D03*
X445732Y657120D02*
D03*
X354800Y670328D02*
D03*
X580860Y641626D02*
D03*
X483062Y635776D02*
D03*
X391376Y641626D02*
D03*
Y688870D02*
D03*
X301714Y651786D02*
D03*
X483062Y689132D02*
D03*
X467250Y657526D02*
D03*
Y621776D02*
D03*
X403250Y629026D02*
D03*
X342750D02*
D03*
X352500Y622276D02*
D03*
X363500Y700026D02*
D03*
X327500Y635776D02*
D03*
X329250Y782526D02*
D03*
X418000Y308401D02*
D03*
X590500Y87526D02*
D03*
X346000Y54776D02*
D03*
X403000Y338526D02*
D03*
X345500Y341526D02*
D03*
X413000Y470026D02*
D03*
X368750Y460026D02*
D03*
X457250Y451526D02*
D03*
X449250Y408776D02*
D03*
X413750Y409026D02*
D03*
X328250Y764026D02*
D03*
X292000Y499026D02*
D03*
X359500D02*
D03*
X298500Y448526D02*
D03*
X944000Y533776D02*
D03*
X555000Y490276D02*
D03*
X247450Y393976D02*
D03*
X511250Y291526D02*
D03*
X504250Y296526D02*
D03*
X507000Y407526D02*
D03*
X333250Y508026D02*
D03*
X640000Y410276D02*
D03*
X254000Y427276D02*
D03*
X359750Y124776D02*
D03*
X442500Y384526D02*
D03*
X489750Y375026D02*
D03*
X491500Y315036D02*
D03*
X461500Y315026D02*
D03*
X560229Y381776D02*
D03*
X617250Y359276D02*
D03*
X830000Y14776D02*
D03*
X838500Y44776D02*
D03*
X684500Y29026D02*
D03*
X687250Y53526D02*
D03*
X353000Y271776D02*
D03*
X252250Y347776D02*
D03*
X405000Y319776D02*
D03*
X349000Y45526D02*
D03*
X514750Y45776D02*
D03*
X538000Y54526D02*
D03*
X357250Y53526D02*
D03*
X403750Y272526D02*
D03*
X553250Y530776D02*
D03*
X507328Y493026D02*
D03*
X489250Y524776D02*
D03*
X352500Y532776D02*
D03*
X746750Y421526D02*
D03*
X694250Y430526D02*
D03*
X320750Y384776D02*
D03*
X254750Y411276D02*
D03*
X266000Y361776D02*
D03*
X253962Y400072D02*
D03*
X252184Y369592D02*
D03*
X251168Y377466D02*
D03*
X521170Y430298D02*
D03*
X264122Y434616D02*
D03*
X160490Y408454D02*
D03*
X639788Y463572D02*
D03*
X506438Y522754D02*
D03*
X465798Y492782D02*
D03*
X402044Y391182D02*
D03*
X456654Y391380D02*
D03*
X359500Y543776D02*
D03*
X453606Y542820D02*
D03*
X778250Y433026D02*
D03*
X471894Y381530D02*
D03*
X284188Y387626D02*
D03*
X258280Y388134D02*
D03*
X162522Y384324D02*
D03*
X154140Y393976D02*
D03*
X276822Y393722D02*
D03*
X301206Y410994D02*
D03*
X146012Y426996D02*
D03*
X808952Y368576D02*
D03*
X734276D02*
D03*
X303600Y510200D02*
D03*
X569938Y315490D02*
D03*
X463258Y381530D02*
D03*
X144750Y377276D02*
D03*
X728750Y379776D02*
D03*
X731000Y396276D02*
D03*
X720000Y403026D02*
D03*
X719750Y379776D02*
D03*
X511000Y360526D02*
D03*
X484250Y348026D02*
D03*
X516250Y423276D02*
D03*
X578000Y384776D02*
D03*
Y350276D02*
D03*
X800000Y54276D02*
D03*
X722750Y509026D02*
D03*
X785500Y521526D02*
D03*
X785750Y541026D02*
D03*
X460000Y498026D02*
D03*
X454250Y423526D02*
D03*
X464250Y415776D02*
D03*
X439250Y400526D02*
D03*
X466500Y429776D02*
D03*
X797000Y312026D02*
D03*
X638500Y40276D02*
D03*
X510750Y55276D02*
D03*
X511000Y416026D02*
D03*
X543750Y437526D02*
D03*
X554250Y456026D02*
D03*
X548000Y449026D02*
D03*
X493250Y343026D02*
D03*
X461500Y335776D02*
D03*
D73*
X192250Y307500D02*
D03*
X300250Y306750D02*
D03*
D74*
X571250Y732776D02*
D03*
D75*
X796250D02*
D03*
D76*
X338750Y804526D02*
D03*
X356750D02*
D03*
X339000Y783776D02*
D03*
X357000D02*
D03*
X338750Y763776D02*
D03*
X356750D02*
D03*
D77*
X964020Y446946D02*
D03*
Y394876D02*
D03*
M02*
