G04*
G04 #@! TF.GenerationSoftware,Altium Limited,Altium Designer,24.4.1 (13)*
G04*
G04 Layer_Color=16711935*
%FSLAX44Y44*%
%MOMM*%
G71*
G04*
G04 #@! TF.SameCoordinates,FF2F9DB4-C514-40A0-8A38-6625478132A2*
G04*
G04*
G04 #@! TF.FilePolarity,Negative*
G04*
G01*
G75*
%ADD45C,1.9032*%
%ADD46R,1.9032X1.9032*%
%ADD47C,6.2032*%
%ADD48C,1.2032*%
%ADD49R,1.2032X1.2032*%
%ADD50R,1.8032X1.8032*%
%ADD51C,1.8032*%
%ADD52R,1.9032X1.9032*%
%ADD53C,0.5032*%
%ADD54C,1.4732*%
%ADD55C,0.8032*%
%ADD78R,6.1000X3.2000*%
%ADD79R,3.9000X4.2000*%
%ADD80R,0.8032X1.4532*%
%ADD81R,5.2032X3.2032*%
D45*
X97500Y124600D02*
D03*
Y226200D02*
D03*
Y200800D02*
D03*
Y150000D02*
D03*
Y175400D02*
D03*
X142400Y704250D02*
D03*
X117000Y678850D02*
D03*
X142400D02*
D03*
X117000Y653450D02*
D03*
X142400D02*
D03*
X117000Y628050D02*
D03*
X142400D02*
D03*
X466500Y233776D02*
D03*
X288700D02*
D03*
X542700D02*
D03*
X618900D02*
D03*
X695100D02*
D03*
X263300D02*
D03*
X364900D02*
D03*
X314100D02*
D03*
X339500D02*
D03*
X390300D02*
D03*
X415700D02*
D03*
X441100D02*
D03*
X491900D02*
D03*
X517300D02*
D03*
X568100D02*
D03*
X593500D02*
D03*
X669700D02*
D03*
X644300D02*
D03*
X771300D02*
D03*
X720500D02*
D03*
X745900D02*
D03*
X796700Y606776D02*
D03*
X771300D02*
D03*
X720500D02*
D03*
X745900D02*
D03*
X669700D02*
D03*
X644300D02*
D03*
X568100D02*
D03*
X593500D02*
D03*
X491900D02*
D03*
X517300D02*
D03*
X390300D02*
D03*
X415700D02*
D03*
X441100D02*
D03*
X364900D02*
D03*
X314100D02*
D03*
X339500D02*
D03*
X263300D02*
D03*
X542700D02*
D03*
X618900D02*
D03*
X695100D02*
D03*
X466500D02*
D03*
X288700D02*
D03*
X717500Y27776D02*
D03*
Y72776D02*
D03*
X782500Y27776D02*
D03*
X557500D02*
D03*
Y72776D02*
D03*
X622500Y27776D02*
D03*
X397500D02*
D03*
Y72776D02*
D03*
X462500Y27776D02*
D03*
X237500D02*
D03*
Y72776D02*
D03*
X302500Y27776D02*
D03*
D46*
X97500Y251600D02*
D03*
X117000Y704250D02*
D03*
X796700Y233776D02*
D03*
D47*
X1000000Y60000D02*
D03*
X60000Y780000D02*
D03*
Y60000D02*
D03*
X1000000Y790000D02*
D03*
D48*
X414450Y803076D02*
D03*
Y815776D02*
D03*
X427150Y803076D02*
D03*
Y815776D02*
D03*
X439850Y803076D02*
D03*
Y815776D02*
D03*
X452550Y803076D02*
D03*
Y815776D02*
D03*
X465250Y803076D02*
D03*
Y815776D02*
D03*
X477950Y803076D02*
D03*
Y815776D02*
D03*
X490650Y803076D02*
D03*
D49*
Y815776D02*
D03*
D50*
X122700Y305700D02*
D03*
D51*
X97300D02*
D03*
X122700Y331100D02*
D03*
X97300D02*
D03*
X122700Y356500D02*
D03*
X97300D02*
D03*
X122700Y381900D02*
D03*
X97300D02*
D03*
X122700Y407300D02*
D03*
X97300D02*
D03*
X122700Y432700D02*
D03*
X97300D02*
D03*
X122700Y458100D02*
D03*
X97300D02*
D03*
X122700Y483500D02*
D03*
X97300D02*
D03*
X122700Y508900D02*
D03*
X97300D02*
D03*
X122700Y534300D02*
D03*
X97300D02*
D03*
D52*
X782500Y72776D02*
D03*
X622500D02*
D03*
X462500D02*
D03*
X302500D02*
D03*
D53*
X192750Y612000D02*
D03*
X634000Y355000D02*
D03*
X638000Y385000D02*
D03*
X241770Y782850D02*
D03*
X296250Y749026D02*
D03*
X824700Y734590D02*
D03*
X437247Y348177D02*
D03*
X201550Y475500D02*
D03*
X202000Y581750D02*
D03*
X192000Y572500D02*
D03*
X163000Y599250D02*
D03*
X186750Y563500D02*
D03*
X148250Y529250D02*
D03*
X187000Y465000D02*
D03*
X193250Y472000D02*
D03*
X170400Y542566D02*
D03*
X150250Y574500D02*
D03*
X462250Y102526D02*
D03*
X288000Y106750D02*
D03*
X162000Y251500D02*
D03*
X478000Y501250D02*
D03*
X530750Y432376D02*
D03*
X526601Y444627D02*
D03*
X222750Y791500D02*
D03*
X176750Y457000D02*
D03*
X964750Y416526D02*
D03*
X387000Y553504D02*
D03*
X378500D02*
D03*
X289500Y552776D02*
D03*
X366992Y547392D02*
D03*
X396964Y347494D02*
D03*
X266154Y794026D02*
D03*
X780338Y445438D02*
D03*
X922744Y469922D02*
D03*
X344250Y123026D02*
D03*
X478244Y168678D02*
D03*
X794728D02*
D03*
X637502Y156740D02*
D03*
X504152Y156486D02*
D03*
X513804Y137436D02*
D03*
X554952Y115846D02*
D03*
X367500Y658644D02*
D03*
X456654Y657374D02*
D03*
X445732Y657120D02*
D03*
X354800Y670328D02*
D03*
X580860Y641626D02*
D03*
X483062Y635776D02*
D03*
X391376Y641626D02*
D03*
Y688870D02*
D03*
X301714Y651786D02*
D03*
X483062Y689132D02*
D03*
X467250Y657526D02*
D03*
Y621776D02*
D03*
X403250Y629026D02*
D03*
X342750D02*
D03*
X352500Y622276D02*
D03*
X363500Y700026D02*
D03*
X327500Y635776D02*
D03*
X590500Y87526D02*
D03*
X346000Y54776D02*
D03*
X403000Y338526D02*
D03*
X345500Y341526D02*
D03*
X413000Y470026D02*
D03*
X368750Y460026D02*
D03*
X457250Y451526D02*
D03*
X449250Y408776D02*
D03*
X413750Y409026D02*
D03*
X328250Y764026D02*
D03*
X292000Y499026D02*
D03*
X359500D02*
D03*
X298500Y448526D02*
D03*
X944000Y533776D02*
D03*
X555000Y490276D02*
D03*
X247450Y393976D02*
D03*
X511250Y291526D02*
D03*
X504250Y296526D02*
D03*
X507000Y407526D02*
D03*
X333250Y508026D02*
D03*
X640000Y410276D02*
D03*
X254000Y427276D02*
D03*
X359750Y124776D02*
D03*
X442500Y384526D02*
D03*
X489750Y375026D02*
D03*
X491500Y315036D02*
D03*
X461500Y315026D02*
D03*
X560229Y381776D02*
D03*
X617250Y359276D02*
D03*
X830000Y14776D02*
D03*
X838500Y44776D02*
D03*
X684500Y29026D02*
D03*
X687250Y53526D02*
D03*
X353000Y271776D02*
D03*
X252250Y347776D02*
D03*
X405000Y319776D02*
D03*
X349000Y45526D02*
D03*
X514750Y45776D02*
D03*
X538000Y54526D02*
D03*
X357250Y53526D02*
D03*
X553250Y530776D02*
D03*
X507328Y493026D02*
D03*
X489250Y524776D02*
D03*
X352500Y532776D02*
D03*
X746750Y421526D02*
D03*
X694250Y430526D02*
D03*
X320750Y384776D02*
D03*
X254750Y411276D02*
D03*
X253962Y400072D02*
D03*
X252184Y369592D02*
D03*
X251168Y377466D02*
D03*
X521170Y430298D02*
D03*
X264122Y434616D02*
D03*
X160490Y408454D02*
D03*
X639788Y463572D02*
D03*
X506438Y522754D02*
D03*
X465798Y492782D02*
D03*
X402044Y391182D02*
D03*
X456654Y391380D02*
D03*
X359500Y543776D02*
D03*
X453606Y542820D02*
D03*
X778250Y433026D02*
D03*
X471894Y381530D02*
D03*
X284188Y387626D02*
D03*
X258280Y388134D02*
D03*
X162522Y384324D02*
D03*
X154140Y393976D02*
D03*
X276822Y393722D02*
D03*
X301206Y410994D02*
D03*
X146012Y426996D02*
D03*
X808952Y368576D02*
D03*
X734276D02*
D03*
X303600Y510200D02*
D03*
X569938Y315490D02*
D03*
X463258Y381530D02*
D03*
X144750Y377276D02*
D03*
X728750Y379776D02*
D03*
X731000Y396276D02*
D03*
X720000Y403026D02*
D03*
X719750Y379776D02*
D03*
X511000Y360526D02*
D03*
X484250Y348026D02*
D03*
X516250Y423276D02*
D03*
X578000Y384776D02*
D03*
Y350276D02*
D03*
X800000Y54276D02*
D03*
X722750Y509026D02*
D03*
X785500Y521526D02*
D03*
X785750Y541026D02*
D03*
X460000Y498026D02*
D03*
X454250Y423526D02*
D03*
X464250Y415776D02*
D03*
X439250Y400526D02*
D03*
X466500Y429776D02*
D03*
X797000Y312026D02*
D03*
X638500Y40276D02*
D03*
X510750Y55276D02*
D03*
X511000Y416026D02*
D03*
X543750Y437526D02*
D03*
X554250Y456026D02*
D03*
X548000Y449026D02*
D03*
X493250Y343026D02*
D03*
X461500Y335776D02*
D03*
D54*
X192250Y307500D02*
D03*
X300250Y306750D02*
D03*
D55*
X328250Y804526D02*
D03*
X329250Y782526D02*
D03*
X418000Y308401D02*
D03*
X403750Y272526D02*
D03*
X266000Y361776D02*
D03*
D78*
X571250Y732776D02*
D03*
D79*
X796250D02*
D03*
D80*
X338750Y804526D02*
D03*
X356750D02*
D03*
X339000Y783776D02*
D03*
X357000D02*
D03*
X338750Y763776D02*
D03*
X356750D02*
D03*
D81*
X964020Y446946D02*
D03*
Y394876D02*
D03*
M02*
