G04*
G04 #@! TF.GenerationSoftware,Altium Limited,Altium Designer,24.4.1 (13)*
G04*
G04 Layer_Color=0*
%FSLAX44Y44*%
%MOMM*%
G71*
G04*
G04 #@! TF.SameCoordinates,FF2F9DB4-C514-40A0-8A38-6625478132A2*
G04*
G04*
G04 #@! TF.FilePolarity,Positive*
G04*
G01*
G75*
%ADD10C,0.2000*%
%ADD13C,0.2500*%
%ADD14C,0.0500*%
%ADD15C,0.2540*%
%ADD17C,0.1000*%
%ADD57C,0.5000*%
%ADD83C,0.0400*%
G36*
X762044Y486954D02*
X762247Y486658D01*
X762488Y486362D01*
X762710Y486103D01*
X762932Y485881D01*
X763099Y485695D01*
X763173Y485640D01*
X763229Y485584D01*
X763247Y485566D01*
X763266Y485547D01*
X763654Y485232D01*
X764043Y484936D01*
X764414Y484677D01*
X764784Y484473D01*
X765099Y484288D01*
X765228Y484214D01*
X765339Y484159D01*
X765432Y484103D01*
X765506Y484084D01*
X765543Y484047D01*
X765562D01*
Y482529D01*
X765284Y482640D01*
X765006Y482770D01*
X764728Y482899D01*
X764469Y483029D01*
X764247Y483140D01*
X764062Y483233D01*
X763951Y483307D01*
X763932Y483325D01*
X763914D01*
X763580Y483529D01*
X763284Y483733D01*
X763025Y483918D01*
X762821Y484084D01*
X762636Y484214D01*
X762525Y484325D01*
X762432Y484399D01*
X762414Y484418D01*
Y474400D01*
X760840D01*
Y487269D01*
X761858D01*
X762044Y486954D01*
D02*
G37*
G36*
X779042Y474400D02*
X774431D01*
X774005Y474419D01*
X773616Y474437D01*
X773264Y474474D01*
X772968Y474511D01*
X772709Y474548D01*
X772524Y474567D01*
X772468Y474585D01*
X772413Y474604D01*
X772376D01*
X772042Y474697D01*
X771746Y474808D01*
X771487Y474900D01*
X771265Y475011D01*
X771080Y475104D01*
X770950Y475178D01*
X770876Y475233D01*
X770839Y475252D01*
X770598Y475419D01*
X770394Y475622D01*
X770191Y475807D01*
X770024Y475993D01*
X769876Y476159D01*
X769765Y476289D01*
X769691Y476381D01*
X769672Y476418D01*
X769487Y476715D01*
X769302Y477030D01*
X769154Y477326D01*
X769043Y477622D01*
X768932Y477881D01*
X768858Y478085D01*
X768839Y478159D01*
X768820Y478215D01*
X768802Y478252D01*
Y478270D01*
X768691Y478715D01*
X768598Y479159D01*
X768543Y479585D01*
X768487Y479992D01*
X768469Y480344D01*
Y480492D01*
X768450Y480622D01*
Y480714D01*
Y480807D01*
Y480844D01*
Y480863D01*
X768469Y481492D01*
X768524Y482066D01*
X768617Y482585D01*
X768654Y482825D01*
X768709Y483029D01*
X768765Y483233D01*
X768802Y483399D01*
X768839Y483547D01*
X768895Y483677D01*
X768913Y483788D01*
X768950Y483862D01*
X768969Y483899D01*
Y483918D01*
X769172Y484399D01*
X769413Y484825D01*
X769672Y485195D01*
X769913Y485510D01*
X770135Y485769D01*
X770320Y485955D01*
X770394Y486010D01*
X770450Y486066D01*
X770469Y486084D01*
X770487Y486103D01*
X770783Y486343D01*
X771098Y486529D01*
X771413Y486695D01*
X771709Y486825D01*
X771968Y486917D01*
X772172Y486973D01*
X772246Y487010D01*
X772302D01*
X772339Y487029D01*
X772357D01*
X772672Y487084D01*
X773042Y487140D01*
X773413Y487177D01*
X773783Y487195D01*
X774116Y487214D01*
X779042D01*
Y474400D01*
D02*
G37*
G36*
X347541Y420802D02*
X347745Y420506D01*
X347986Y420210D01*
X348208Y419951D01*
X348430Y419729D01*
X348597Y419543D01*
X348671Y419488D01*
X348726Y419432D01*
X348745Y419414D01*
X348763Y419395D01*
X349152Y419080D01*
X349541Y418784D01*
X349911Y418525D01*
X350282Y418321D01*
X350596Y418136D01*
X350726Y418062D01*
X350837Y418007D01*
X350930Y417951D01*
X351004Y417932D01*
X351041Y417895D01*
X351059D01*
Y416377D01*
X350782Y416488D01*
X350504Y416618D01*
X350226Y416747D01*
X349967Y416877D01*
X349745Y416988D01*
X349560Y417081D01*
X349448Y417155D01*
X349430Y417173D01*
X349411D01*
X349078Y417377D01*
X348782Y417581D01*
X348523Y417766D01*
X348319Y417932D01*
X348134Y418062D01*
X348023Y418173D01*
X347930Y418247D01*
X347911Y418266D01*
Y408248D01*
X346338D01*
Y421117D01*
X347356D01*
X347541Y420802D01*
D02*
G37*
G36*
X372539Y421247D02*
X373131Y421154D01*
X373650Y421043D01*
X373890Y420969D01*
X374113Y420895D01*
X374316Y420821D01*
X374501Y420747D01*
X374650Y420691D01*
X374798Y420636D01*
X374890Y420580D01*
X374964Y420543D01*
X375020Y420525D01*
X375038Y420506D01*
X375538Y420191D01*
X375964Y419821D01*
X376334Y419451D01*
X376649Y419080D01*
X376890Y418747D01*
X376983Y418599D01*
X377057Y418469D01*
X377131Y418377D01*
X377168Y418303D01*
X377186Y418247D01*
X377205Y418229D01*
X377464Y417655D01*
X377649Y417062D01*
X377779Y416470D01*
X377871Y415933D01*
X377908Y415692D01*
X377927Y415451D01*
X377945Y415266D01*
Y415081D01*
X377964Y414951D01*
Y414840D01*
Y414766D01*
Y414748D01*
X377927Y414081D01*
X377853Y413433D01*
X377760Y412859D01*
X377686Y412581D01*
X377631Y412340D01*
X377575Y412118D01*
X377501Y411914D01*
X377445Y411729D01*
X377408Y411581D01*
X377353Y411470D01*
X377334Y411377D01*
X377297Y411322D01*
Y411303D01*
X377020Y410748D01*
X376705Y410248D01*
X376371Y409822D01*
X376205Y409655D01*
X376057Y409489D01*
X375909Y409341D01*
X375760Y409211D01*
X375631Y409100D01*
X375520Y409026D01*
X375446Y408952D01*
X375372Y408896D01*
X375335Y408878D01*
X375316Y408859D01*
X375057Y408711D01*
X374798Y408582D01*
X374242Y408378D01*
X373687Y408230D01*
X373150Y408137D01*
X372890Y408100D01*
X372668Y408063D01*
X372464Y408045D01*
X372298D01*
X372150Y408026D01*
X371946D01*
X371576Y408045D01*
X371224Y408082D01*
X370891Y408119D01*
X370576Y408193D01*
X370280Y408285D01*
X370002Y408378D01*
X369743Y408470D01*
X369502Y408582D01*
X369298Y408674D01*
X369095Y408767D01*
X368946Y408859D01*
X368798Y408952D01*
X368706Y409026D01*
X368613Y409063D01*
X368576Y409100D01*
X368558Y409118D01*
X368298Y409341D01*
X368076Y409563D01*
X367872Y409822D01*
X367669Y410081D01*
X367335Y410600D01*
X367076Y411118D01*
X366965Y411359D01*
X366872Y411581D01*
X366799Y411785D01*
X366743Y411951D01*
X366687Y412100D01*
X366650Y412211D01*
X366632Y412285D01*
Y412303D01*
X368335Y412729D01*
X368409Y412433D01*
X368502Y412155D01*
X368595Y411896D01*
X368687Y411655D01*
X368798Y411433D01*
X368909Y411248D01*
X369039Y411063D01*
X369150Y410896D01*
X369243Y410748D01*
X369354Y410637D01*
X369446Y410526D01*
X369520Y410433D01*
X369594Y410378D01*
X369650Y410322D01*
X369669Y410303D01*
X369687Y410285D01*
X369872Y410137D01*
X370076Y410026D01*
X370483Y409822D01*
X370872Y409674D01*
X371261Y409581D01*
X371594Y409507D01*
X371724Y409489D01*
X371853D01*
X371965Y409470D01*
X372094D01*
X372520Y409489D01*
X372927Y409563D01*
X373298Y409655D01*
X373631Y409767D01*
X373890Y409878D01*
X374001Y409933D01*
X374094Y409970D01*
X374168Y410007D01*
X374224Y410044D01*
X374261Y410063D01*
X374279D01*
X374631Y410322D01*
X374927Y410600D01*
X375187Y410915D01*
X375390Y411211D01*
X375557Y411470D01*
X375668Y411692D01*
X375705Y411785D01*
X375742Y411840D01*
X375760Y411878D01*
Y411896D01*
X375909Y412377D01*
X376020Y412859D01*
X376112Y413340D01*
X376168Y413785D01*
X376186Y413988D01*
X376205Y414174D01*
Y414340D01*
X376223Y414470D01*
Y414581D01*
Y414674D01*
Y414729D01*
Y414748D01*
X376205Y415229D01*
X376168Y415673D01*
X376094Y416081D01*
X376020Y416451D01*
X375964Y416766D01*
X375927Y416895D01*
X375890Y417007D01*
X375872Y417099D01*
X375853Y417155D01*
X375835Y417192D01*
Y417210D01*
X375649Y417636D01*
X375446Y418025D01*
X375224Y418340D01*
X374983Y418618D01*
X374779Y418840D01*
X374613Y418988D01*
X374483Y419080D01*
X374464Y419117D01*
X374446D01*
X374057Y419358D01*
X373631Y419543D01*
X373224Y419673D01*
X372835Y419747D01*
X372483Y419803D01*
X372335Y419821D01*
X372205D01*
X372113Y419840D01*
X371965D01*
X371502Y419821D01*
X371076Y419747D01*
X370724Y419636D01*
X370409Y419525D01*
X370168Y419395D01*
X369983Y419303D01*
X369872Y419229D01*
X369835Y419192D01*
X369539Y418914D01*
X369261Y418599D01*
X369039Y418266D01*
X368854Y417932D01*
X368706Y417636D01*
X368650Y417488D01*
X368613Y417377D01*
X368576Y417284D01*
X368539Y417210D01*
X368521Y417173D01*
Y417155D01*
X366854Y417543D01*
X366965Y417877D01*
X367076Y418173D01*
X367224Y418451D01*
X367354Y418729D01*
X367502Y418969D01*
X367669Y419192D01*
X367817Y419414D01*
X367965Y419599D01*
X368113Y419747D01*
X368243Y419895D01*
X368372Y420025D01*
X368465Y420117D01*
X368558Y420210D01*
X368632Y420266D01*
X368669Y420284D01*
X368687Y420303D01*
X368946Y420469D01*
X369206Y420636D01*
X369465Y420765D01*
X369743Y420877D01*
X370298Y421043D01*
X370798Y421154D01*
X371039Y421210D01*
X371242Y421228D01*
X371446Y421247D01*
X371613Y421265D01*
X371742Y421284D01*
X371928D01*
X372539Y421247D01*
D02*
G37*
G36*
X387500Y408248D02*
X379482D01*
Y409767D01*
X385797D01*
Y421062D01*
X387500D01*
Y408248D01*
D02*
G37*
G36*
X364539D02*
X359929D01*
X359503Y408267D01*
X359114Y408285D01*
X358762Y408322D01*
X358466Y408359D01*
X358207Y408396D01*
X358022Y408415D01*
X357966Y408433D01*
X357910Y408452D01*
X357873D01*
X357540Y408545D01*
X357244Y408656D01*
X356985Y408748D01*
X356763Y408859D01*
X356577Y408952D01*
X356448Y409026D01*
X356374Y409081D01*
X356337Y409100D01*
X356096Y409267D01*
X355892Y409470D01*
X355689Y409655D01*
X355522Y409841D01*
X355374Y410007D01*
X355263Y410137D01*
X355188Y410229D01*
X355170Y410266D01*
X354985Y410563D01*
X354800Y410878D01*
X354652Y411174D01*
X354540Y411470D01*
X354429Y411729D01*
X354355Y411933D01*
X354337Y412007D01*
X354318Y412063D01*
X354300Y412100D01*
Y412118D01*
X354189Y412563D01*
X354096Y413007D01*
X354040Y413433D01*
X353985Y413840D01*
X353966Y414192D01*
Y414340D01*
X353948Y414470D01*
Y414562D01*
Y414655D01*
Y414692D01*
Y414711D01*
X353966Y415340D01*
X354022Y415914D01*
X354115Y416432D01*
X354152Y416673D01*
X354207Y416877D01*
X354263Y417081D01*
X354300Y417247D01*
X354337Y417395D01*
X354392Y417525D01*
X354411Y417636D01*
X354448Y417710D01*
X354466Y417747D01*
Y417766D01*
X354670Y418247D01*
X354911Y418673D01*
X355170Y419043D01*
X355411Y419358D01*
X355633Y419617D01*
X355818Y419803D01*
X355892Y419858D01*
X355948Y419914D01*
X355966Y419932D01*
X355985Y419951D01*
X356281Y420191D01*
X356596Y420377D01*
X356911Y420543D01*
X357207Y420673D01*
X357466Y420765D01*
X357670Y420821D01*
X357744Y420858D01*
X357799D01*
X357836Y420877D01*
X357855D01*
X358170Y420932D01*
X358540Y420988D01*
X358910Y421025D01*
X359281Y421043D01*
X359614Y421062D01*
X364539D01*
Y408248D01*
D02*
G37*
%LPC*%
G36*
X777338Y485695D02*
X774376D01*
X774135Y485677D01*
X773894D01*
X773672Y485658D01*
X773302Y485603D01*
X773005Y485566D01*
X772765Y485510D01*
X772598Y485455D01*
X772505Y485436D01*
X772468Y485418D01*
X772135Y485251D01*
X771820Y485047D01*
X771543Y484807D01*
X771302Y484566D01*
X771117Y484344D01*
X770968Y484159D01*
X770931Y484084D01*
X770894Y484029D01*
X770857Y483992D01*
Y483973D01*
X770746Y483770D01*
X770635Y483529D01*
X770469Y483047D01*
X770357Y482529D01*
X770265Y482029D01*
X770246Y481807D01*
X770228Y481585D01*
X770209Y481399D01*
Y481233D01*
X770191Y481085D01*
Y480992D01*
Y480918D01*
Y480900D01*
X770209Y480381D01*
X770246Y479900D01*
X770302Y479474D01*
X770357Y479103D01*
X770394Y478955D01*
X770432Y478826D01*
X770469Y478696D01*
X770487Y478604D01*
X770506Y478529D01*
X770524Y478474D01*
X770543Y478437D01*
Y478418D01*
X770672Y478066D01*
X770820Y477752D01*
X770987Y477474D01*
X771135Y477233D01*
X771265Y477048D01*
X771376Y476918D01*
X771450Y476844D01*
X771468Y476807D01*
X771654Y476659D01*
X771839Y476530D01*
X772024Y476418D01*
X772209Y476307D01*
X772376Y476233D01*
X772505Y476178D01*
X772598Y476159D01*
X772635Y476141D01*
X772913Y476067D01*
X773246Y476011D01*
X773579Y475974D01*
X773894Y475956D01*
X774172Y475937D01*
X774301Y475919D01*
X777338D01*
Y485695D01*
D02*
G37*
G36*
X362836Y419543D02*
X359873D01*
X359632Y419525D01*
X359392D01*
X359170Y419506D01*
X358799Y419451D01*
X358503Y419414D01*
X358262Y419358D01*
X358096Y419303D01*
X358003Y419284D01*
X357966Y419266D01*
X357633Y419099D01*
X357318Y418895D01*
X357040Y418655D01*
X356800Y418414D01*
X356614Y418192D01*
X356466Y418007D01*
X356429Y417932D01*
X356392Y417877D01*
X356355Y417840D01*
Y417821D01*
X356244Y417618D01*
X356133Y417377D01*
X355966Y416895D01*
X355855Y416377D01*
X355763Y415877D01*
X355744Y415655D01*
X355726Y415433D01*
X355707Y415247D01*
Y415081D01*
X355689Y414933D01*
Y414840D01*
Y414766D01*
Y414748D01*
X355707Y414229D01*
X355744Y413748D01*
X355800Y413322D01*
X355855Y412951D01*
X355892Y412803D01*
X355929Y412674D01*
X355966Y412544D01*
X355985Y412452D01*
X356003Y412377D01*
X356022Y412322D01*
X356040Y412285D01*
Y412266D01*
X356170Y411914D01*
X356318Y411600D01*
X356485Y411322D01*
X356633Y411081D01*
X356763Y410896D01*
X356874Y410766D01*
X356948Y410692D01*
X356966Y410655D01*
X357151Y410507D01*
X357337Y410378D01*
X357522Y410266D01*
X357707Y410155D01*
X357873Y410081D01*
X358003Y410026D01*
X358096Y410007D01*
X358133Y409989D01*
X358410Y409915D01*
X358744Y409859D01*
X359077Y409822D01*
X359392Y409804D01*
X359670Y409785D01*
X359799Y409767D01*
X362836D01*
Y419543D01*
D02*
G37*
%LPD*%
D10*
X586907Y811615D02*
G03*
X586907Y654937I79343J-78339D01*
G01*
X745587Y654931D02*
G03*
X756641Y667994I-79337J78345D01*
G01*
X756802Y798363D02*
G03*
X745107Y812133I-90556J-65053D01*
G01*
X656250Y732776D02*
X666250D01*
Y722776D02*
Y732776D01*
X676250D01*
X666250D02*
Y742776D01*
X587250Y654776D02*
X745250D01*
X587250Y811776D02*
X745250Y812276D01*
X808750Y668276D02*
Y798276D01*
X757250D02*
X808750D01*
X757250Y668276D02*
X808750D01*
X910000Y480276D02*
Y600276D01*
Y240276D02*
Y360276D01*
X1000000D01*
Y480276D01*
X910000D02*
X1000000D01*
X190000Y240276D02*
X910000D01*
X190000D02*
Y600276D01*
X910000D01*
X860000Y190276D02*
Y630276D01*
X200000Y190276D02*
X860000D01*
X200000D02*
Y630276D01*
X860000D01*
D13*
X668750Y717780D02*
Y730276D01*
X674998D01*
X677081Y728193D01*
Y726111D01*
X674998Y724028D01*
X668750D01*
X674998D01*
X677081Y721945D01*
Y719863D01*
X674998Y717780D01*
X668750D01*
X681246D02*
Y730276D01*
Y724028D01*
X689577D01*
Y717780D01*
Y730276D01*
X693742D02*
X697907D01*
X695825D01*
Y717780D01*
X693742Y719863D01*
D14*
X372785Y777729D02*
X373285Y777230D01*
Y776230D01*
X372785Y775730D01*
X370786D01*
X370286Y776230D01*
Y777230D01*
X370786Y777729D01*
X372285Y779229D02*
Y780229D01*
X371786Y780728D01*
X370286D01*
Y779229D01*
X370786Y778729D01*
X371286Y779229D01*
Y780728D01*
X372785Y782228D02*
X372285D01*
Y781728D01*
Y782728D01*
Y782228D01*
X370786D01*
X370286Y782728D01*
X373285Y784227D02*
X370286D01*
X371786D01*
X372285Y784727D01*
Y785727D01*
X371786Y786227D01*
X370286D01*
Y787726D02*
Y788726D01*
X370786Y789226D01*
X371786D01*
X372285Y788726D01*
Y787726D01*
X371786Y787226D01*
X370786D01*
X370286Y787726D01*
X373285Y792225D02*
X370286D01*
Y790725D01*
X370786Y790225D01*
X371786D01*
X372285Y790725D01*
Y792225D01*
X370286Y794724D02*
Y793724D01*
X370786Y793224D01*
X371786D01*
X372285Y793724D01*
Y794724D01*
X371786Y795224D01*
X371286D01*
Y793224D01*
X372785Y755377D02*
X373285Y754877D01*
Y753878D01*
X372785Y753378D01*
X370786D01*
X370286Y753878D01*
Y754877D01*
X370786Y755377D01*
X372285Y756877D02*
Y757877D01*
X371786Y758376D01*
X370286D01*
Y756877D01*
X370786Y756377D01*
X371286Y756877D01*
Y758376D01*
X372785Y759876D02*
X372285D01*
Y759376D01*
Y760376D01*
Y759876D01*
X370786D01*
X370286Y760376D01*
X373285Y761875D02*
X370286D01*
X371786D01*
X372285Y762375D01*
Y763375D01*
X371786Y763875D01*
X370286D01*
Y765374D02*
Y766374D01*
X370786Y766874D01*
X371786D01*
X372285Y766374D01*
Y765374D01*
X371786Y764874D01*
X370786D01*
X370286Y765374D01*
X373285Y769873D02*
X370286D01*
Y768373D01*
X370786Y767873D01*
X371786D01*
X372285Y768373D01*
Y769873D01*
X370286Y772372D02*
Y771372D01*
X370786Y770872D01*
X371786D01*
X372285Y771372D01*
Y772372D01*
X371786Y772872D01*
X371286D01*
Y770872D01*
D15*
X705000Y15276D02*
Y85276D01*
X795000D01*
Y15276D02*
Y85276D01*
X705000Y15276D02*
X795000D01*
X545000D02*
Y85276D01*
X635000D01*
Y15276D02*
Y85276D01*
X545000Y15276D02*
X635000D01*
X385000D02*
Y85276D01*
X475000D01*
Y15276D02*
Y85276D01*
X385000Y15276D02*
X475000D01*
X225000D02*
Y85276D01*
X315000D01*
Y15276D02*
Y85276D01*
X225000Y15276D02*
X315000D01*
D17*
X347750Y799526D02*
Y809526D01*
X342750Y804526D02*
X352750D01*
X332750Y795526D02*
Y813526D01*
X365750D01*
Y795526D02*
Y813526D01*
X332750Y795526D02*
X365750D01*
X348000Y778776D02*
Y788776D01*
X343000Y783776D02*
X353000D01*
X333000Y774776D02*
Y792776D01*
X366000D01*
Y774776D02*
Y792776D01*
X333000Y774776D02*
X366000D01*
X347750Y758776D02*
Y768776D01*
X342750Y763776D02*
X352750D01*
X332750Y754776D02*
Y772776D01*
X365750D01*
Y754776D02*
Y772776D01*
X332750Y754776D02*
X365750D01*
X745000Y50276D02*
X755000D01*
X750000Y45276D02*
Y55276D01*
X585000Y50276D02*
X595000D01*
X590000Y45276D02*
Y55276D01*
X425000Y50276D02*
X435000D01*
X430000Y45276D02*
Y55276D01*
X265000Y50276D02*
X275000D01*
X270000Y45276D02*
Y55276D01*
X780668Y31441D02*
X781501Y32274D01*
X783167D01*
X784000Y31441D01*
Y30608D01*
X783167Y29775D01*
X781501D01*
X780668Y28942D01*
Y28109D01*
X781501Y27276D01*
X783167D01*
X784000Y28109D01*
X779002Y32274D02*
Y27276D01*
X777336Y28942D01*
X775669Y27276D01*
Y32274D01*
X771504Y27276D02*
Y32274D01*
X774003Y29775D01*
X770671D01*
X620668Y31441D02*
X621501Y32274D01*
X623167D01*
X624000Y31441D01*
Y30608D01*
X623167Y29775D01*
X621501D01*
X620668Y28942D01*
Y28109D01*
X621501Y27276D01*
X623167D01*
X624000Y28109D01*
X619002Y32274D02*
Y27276D01*
X617336Y28942D01*
X615669Y27276D01*
Y32274D01*
X614003Y31441D02*
X613170Y32274D01*
X611504D01*
X610671Y31441D01*
Y30608D01*
X611504Y29775D01*
X612337D01*
X611504D01*
X610671Y28942D01*
Y28109D01*
X611504Y27276D01*
X613170D01*
X614003Y28109D01*
X460668Y31441D02*
X461501Y32274D01*
X463167D01*
X464000Y31441D01*
Y30608D01*
X463167Y29775D01*
X461501D01*
X460668Y28942D01*
Y28109D01*
X461501Y27276D01*
X463167D01*
X464000Y28109D01*
X459002Y32274D02*
Y27276D01*
X457336Y28942D01*
X455669Y27276D01*
Y32274D01*
X450671Y27276D02*
X454003D01*
X450671Y30608D01*
Y31441D01*
X451504Y32274D01*
X453170D01*
X454003Y31441D01*
X300668D02*
X301501Y32274D01*
X303167D01*
X304000Y31441D01*
Y30608D01*
X303167Y29775D01*
X301501D01*
X300668Y28942D01*
Y28109D01*
X301501Y27276D01*
X303167D01*
X304000Y28109D01*
X299002Y32274D02*
Y27276D01*
X297335Y28942D01*
X295669Y27276D01*
Y32274D01*
X294003Y27276D02*
X292337D01*
X293170D01*
Y32274D01*
X294003Y31441D01*
D57*
X520000Y420277D02*
X550000D01*
X580000D01*
X550000Y420276D02*
Y450276D01*
Y390276D02*
Y420276D01*
X529825Y390275D02*
Y420275D01*
Y450275D01*
X530000Y420276D02*
X560000D01*
X500000D02*
X530000D01*
D83*
X335150Y796127D02*
Y798126D01*
X336483D01*
X337149Y796127D02*
Y798126D01*
X338149D01*
X338482Y797793D01*
Y796460D01*
X338149Y796127D01*
X337149D01*
X339149Y798126D02*
X339815D01*
X339482D01*
Y796127D01*
X339149Y796460D01*
X335400Y775377D02*
Y777376D01*
X336733D01*
X337399Y775377D02*
Y777376D01*
X338399D01*
X338732Y777043D01*
Y775710D01*
X338399Y775377D01*
X337399D01*
X340732Y777376D02*
X339399D01*
X340732Y776043D01*
Y775710D01*
X340398Y775377D01*
X339732D01*
X339399Y775710D01*
X335150Y755377D02*
Y757376D01*
X336483D01*
X337149Y755377D02*
Y757376D01*
X338149D01*
X338482Y757043D01*
Y755710D01*
X338149Y755377D01*
X337149D01*
X339149Y755710D02*
X339482Y755377D01*
X340148D01*
X340482Y755710D01*
Y756043D01*
X340148Y756377D01*
X339815D01*
X340148D01*
X340482Y756710D01*
Y757043D01*
X340148Y757376D01*
X339482D01*
X339149Y757043D01*
M02*
