G04*
G04 #@! TF.GenerationSoftware,Altium Limited,Altium Designer,21.4.1 (30)*
G04*
G04 Layer_Color=8388736*
%FSLAX44Y44*%
%MOMM*%
G71*
G04*
G04 #@! TF.SameCoordinates,1B399950-D3B7-4EFA-8D0F-ABCAEF693611*
G04*
G04*
G04 #@! TF.FilePolarity,Positive*
G04*
G01*
G75*
%ADD10C,0.2000*%
%ADD11C,0.1500*%
%ADD12C,0.1000*%
%ADD42C,0.0400*%
D10*
X321130Y24500D02*
Y34500D01*
X316130Y29500D02*
X326130D01*
X70270Y260020D02*
X80270D01*
X75270Y255020D02*
Y265020D01*
X90220Y28000D02*
X100220D01*
X95220Y23000D02*
Y33000D01*
X315120Y261500D02*
X325120D01*
X320120Y256500D02*
Y266500D01*
D11*
X15270Y50020D02*
X365270D01*
X15270Y240020D02*
X365270D01*
Y50020D02*
Y240020D01*
X15270Y50020D02*
Y240020D01*
X25270Y235020D02*
X359270D01*
Y55020D02*
Y235020D01*
X25270Y55020D02*
X359270D01*
X25270D02*
Y235020D01*
X149770Y135020D02*
Y155020D01*
X139770Y145020D02*
X159770D01*
D12*
X294380Y43470D02*
X347720D01*
X294380Y15530D02*
X347720D01*
Y43470D01*
X294380Y15530D02*
Y43470D01*
X35900Y246050D02*
X114640D01*
X35900Y273990D02*
X114640D01*
X35900Y246050D02*
Y273990D01*
X114640Y246050D02*
Y273990D01*
X121970Y14030D02*
Y41970D01*
X68630Y14030D02*
Y41970D01*
X121970D01*
X68630Y14030D02*
X121970D01*
X346870Y247530D02*
Y275470D01*
X293530Y247530D02*
Y275470D01*
X346870D01*
X293530Y247530D02*
X346870D01*
X374000Y223750D02*
X384000D01*
X379000Y218750D02*
Y228750D01*
X370000Y238750D02*
X388000D01*
X370000Y205750D02*
Y238750D01*
Y205750D02*
X388000D01*
Y238750D01*
X375250Y66750D02*
X385250D01*
X380250Y61750D02*
Y71750D01*
X371250Y81750D02*
X389250D01*
X371250Y48750D02*
Y81750D01*
Y48750D02*
X389250D01*
Y81750D01*
D42*
X318283Y40316D02*
X317950Y40649D01*
X317283D01*
X316950Y40316D01*
Y38983D01*
X317283Y38650D01*
X317950D01*
X318283Y38983D01*
X318949Y38650D02*
Y40649D01*
X320282Y38650D01*
Y40649D01*
X322282D02*
X320949D01*
Y39650D01*
X321615Y39983D01*
X321948D01*
X322282Y39650D01*
Y38983D01*
X321948Y38650D01*
X321282D01*
X320949Y38983D01*
X62537Y249621D02*
X63204D01*
X62870D01*
Y251287D01*
X63204Y251620D01*
X63537D01*
X63870Y251287D01*
X61871Y251620D02*
X61204D01*
X61537D01*
Y249621D01*
X61871Y249954D01*
X98067Y17186D02*
X98400Y16852D01*
X99067D01*
X99400Y17186D01*
Y18519D01*
X99067Y18852D01*
X98400D01*
X98067Y18519D01*
X97401Y18852D02*
Y16852D01*
X96068Y18852D01*
Y16852D01*
X95401Y17186D02*
X95068Y16852D01*
X94402D01*
X94068Y17186D01*
Y17519D01*
X94402Y17852D01*
X94735D01*
X94402D01*
X94068Y18185D01*
Y18519D01*
X94402Y18852D01*
X95068D01*
X95401Y18519D01*
X322967Y250684D02*
X323300Y250351D01*
X323967D01*
X324300Y250684D01*
Y252017D01*
X323967Y252350D01*
X323300D01*
X322967Y252017D01*
X322301Y252350D02*
Y250351D01*
X320968Y252350D01*
Y250351D01*
X319302Y252350D02*
Y250351D01*
X320301Y251350D01*
X318968D01*
X387399Y236350D02*
X385400D01*
Y235017D01*
X387399Y234351D02*
X385400D01*
Y233351D01*
X385733Y233018D01*
X387066D01*
X387399Y233351D01*
Y234351D01*
X385400Y231018D02*
Y232351D01*
X386733Y231018D01*
X387066D01*
X387399Y231352D01*
Y232018D01*
X387066Y232351D01*
X388649Y79350D02*
X386650D01*
Y78017D01*
X388649Y77351D02*
X386650D01*
Y76351D01*
X386983Y76018D01*
X388316D01*
X388649Y76351D01*
Y77351D01*
X386650Y75351D02*
Y74685D01*
Y75018D01*
X388649D01*
X388316Y75351D01*
M02*
