G04*
G04 #@! TF.GenerationSoftware,Altium Limited,Altium Designer,21.4.1 (30)*
G04*
G04 Layer_Color=255*
%FSLAX44Y44*%
%MOMM*%
G71*
G04*
G04 #@! TF.SameCoordinates,1B399950-D3B7-4EFA-8D0F-ABCAEF693611*
G04*
G04*
G04 #@! TF.FilePolarity,Positive*
G04*
G01*
G75*
%ADD29C,1.7000*%
%ADD30R,1.7000X1.7000*%
%ADD31C,1.5000*%
%ADD32R,1.5000X1.5000*%
%ADD34R,1.0000X1.3500*%
%ADD35R,1.4500X1.3000*%
%ADD36R,0.8000X1.0000*%
D29*
X333750Y29500D02*
D03*
X75270Y260020D02*
D03*
X49870D02*
D03*
X82600Y28000D02*
D03*
X307500Y261500D02*
D03*
D30*
X308350Y29500D02*
D03*
X100670Y260020D02*
D03*
X108000Y28000D02*
D03*
X332900Y261500D02*
D03*
D31*
X137250Y24750D02*
D03*
X157250D02*
D03*
X177250D02*
D03*
X257250D02*
D03*
X237250D02*
D03*
X217250D02*
D03*
X197250D02*
D03*
X137250Y264750D02*
D03*
X157250D02*
D03*
X177250D02*
D03*
X257250D02*
D03*
X237250D02*
D03*
X217250D02*
D03*
X197250D02*
D03*
D32*
X277250Y24750D02*
D03*
Y264750D02*
D03*
D34*
X178250Y151000D02*
D03*
X157710D02*
D03*
X157750Y175250D02*
D03*
X178290D02*
D03*
X219270D02*
D03*
X198730D02*
D03*
X178250Y198750D02*
D03*
X157710D02*
D03*
D35*
X82750Y113770D02*
D03*
Y95230D02*
D03*
X112750Y113770D02*
D03*
Y95230D02*
D03*
D36*
X209500Y122000D02*
D03*
X199750Y147000D02*
D03*
X219250D02*
D03*
M02*
