G04*
G04 #@! TF.GenerationSoftware,Altium Limited,Altium Designer,21.4.1 (30)*
G04*
G04 Layer_Physical_Order=1*
G04 Layer_Color=255*
%FSLAX44Y44*%
%MOMM*%
G71*
G04*
G04 #@! TF.SameCoordinates,1B399950-D3B7-4EFA-8D0F-ABCAEF693611*
G04*
G04*
G04 #@! TF.FilePolarity,Positive*
G04*
G01*
G75*
%ADD13C,0.2540*%
%ADD15C,1.8000*%
%ADD16R,1.4000X2.0000*%
%ADD17R,2.6000X1.4000*%
%ADD18R,1.2500X0.6000*%
%ADD27C,0.5000*%
%ADD28C,0.3000*%
%ADD29C,1.7000*%
%ADD30R,1.7000X1.7000*%
%ADD31C,1.5000*%
%ADD32R,1.5000X1.5000*%
%ADD33C,1.2700*%
G36*
X386173Y277165D02*
X387529Y276603D01*
X388750Y275788D01*
X389788Y274750D01*
X390603Y273529D01*
X391165Y272173D01*
X391451Y270734D01*
Y270000D01*
Y20000D01*
Y19266D01*
X391165Y17827D01*
X390603Y16471D01*
X389788Y15250D01*
X388750Y14212D01*
X387529Y13397D01*
X386173Y12835D01*
X384734Y12549D01*
X384000Y12549D01*
X15266D01*
X13827Y12835D01*
X12471Y13397D01*
X11250Y14212D01*
X10212Y15250D01*
X9397Y16471D01*
X8835Y17827D01*
X8549Y19266D01*
X8549Y20000D01*
Y270000D01*
Y270734D01*
X8835Y272173D01*
X9397Y273529D01*
X10212Y274750D01*
X11250Y275788D01*
X12471Y276603D01*
X13827Y277165D01*
X15266Y277451D01*
X27677D01*
X27958Y276181D01*
X26897Y275473D01*
X11587Y260163D01*
X10694Y258826D01*
X10381Y257250D01*
Y207007D01*
X10694Y205431D01*
X11587Y204095D01*
X13345Y202337D01*
X14681Y201444D01*
X16257Y201131D01*
X18730D01*
Y195830D01*
X18730Y195480D01*
Y194560D01*
X18730Y194210D01*
Y175830D01*
X18730Y175480D01*
Y174560D01*
X18730Y174210D01*
Y155830D01*
X18730Y155480D01*
Y154560D01*
X18730Y154210D01*
Y135830D01*
X18730Y135480D01*
Y134560D01*
X18730Y134210D01*
Y115830D01*
X18730Y115480D01*
Y114560D01*
X18730Y114210D01*
Y95830D01*
X18730Y95480D01*
Y94560D01*
X18730Y94210D01*
Y86290D01*
X49810D01*
Y94210D01*
X49810Y94560D01*
Y95480D01*
X49810Y95830D01*
Y114210D01*
X49810Y114560D01*
Y115480D01*
X49810Y115830D01*
Y134210D01*
X49810Y134560D01*
Y135480D01*
X49810Y135830D01*
Y154210D01*
X49810Y154560D01*
Y155480D01*
X49810Y155830D01*
Y174210D01*
X49810Y174560D01*
Y175480D01*
X49810Y175830D01*
Y180901D01*
X63274D01*
X144260Y99914D01*
X143860Y98420D01*
Y96080D01*
X144466Y93819D01*
X145636Y91791D01*
X147291Y90136D01*
X149319Y88966D01*
X151580Y88360D01*
X153920D01*
X156181Y88966D01*
X158209Y90136D01*
X159864Y91791D01*
X161034Y93819D01*
X161640Y96080D01*
Y98420D01*
X161034Y100681D01*
X160812Y101067D01*
X161828Y101847D01*
X164010Y99664D01*
X163610Y98170D01*
Y95830D01*
X164216Y93569D01*
X165386Y91541D01*
X167041Y89886D01*
X169069Y88716D01*
X171330Y88110D01*
X173670D01*
X175931Y88716D01*
X177959Y89886D01*
X179614Y91541D01*
X180784Y93569D01*
X181390Y95830D01*
Y98170D01*
X180999Y99630D01*
X182138Y100287D01*
X185360Y97065D01*
Y95580D01*
X185966Y93319D01*
X187136Y91291D01*
X188791Y89636D01*
X190819Y88466D01*
X193080Y87860D01*
X195420D01*
X197681Y88466D01*
X199709Y89636D01*
X201364Y91291D01*
X202534Y93319D01*
X203140Y95580D01*
Y97920D01*
X202534Y100181D01*
X201364Y102209D01*
X199709Y103864D01*
X197681Y105034D01*
X195420Y105640D01*
X193080D01*
X190819Y105034D01*
X189692Y104384D01*
X66143Y227933D01*
X64806Y228826D01*
X63230Y229139D01*
X49810D01*
Y234560D01*
X38389D01*
Y242714D01*
X45481Y249806D01*
X45609Y249732D01*
X48417Y248980D01*
X51323D01*
X54131Y249732D01*
X56649Y251186D01*
X58704Y253241D01*
X60158Y255759D01*
X60910Y258567D01*
Y261474D01*
X60250Y263936D01*
X61389Y264594D01*
X64289Y261693D01*
X64230Y261474D01*
Y258567D01*
X64982Y255759D01*
X66436Y253241D01*
X68491Y251186D01*
X71009Y249732D01*
X73817Y248980D01*
X76723D01*
X79531Y249732D01*
X82049Y251186D01*
X84104Y253241D01*
X85558Y255759D01*
X86310Y258567D01*
Y261474D01*
X85558Y264281D01*
X84104Y266799D01*
X82049Y268854D01*
X79531Y270308D01*
X76723Y271060D01*
X73817D01*
X71009Y270308D01*
X68674Y268960D01*
X62161Y275473D01*
X61100Y276181D01*
X61381Y277451D01*
X384734D01*
X386173Y277165D01*
D02*
G37*
G36*
X41505Y267268D02*
X41036Y266799D01*
X39582Y264281D01*
X38830Y261474D01*
Y258567D01*
X39582Y255759D01*
X39656Y255631D01*
X31357Y247333D01*
X30464Y245996D01*
X30151Y244420D01*
Y234560D01*
X18730D01*
X18619Y235784D01*
Y255544D01*
X31516Y268441D01*
X41019D01*
X41505Y267268D01*
D02*
G37*
G36*
X175787Y106638D02*
X175130Y105499D01*
X173670Y105890D01*
X171330D01*
X169836Y105490D01*
X67393Y207933D01*
X66056Y208826D01*
X64480Y209139D01*
X49810D01*
Y214560D01*
X49810D01*
Y215480D01*
X49810D01*
Y220901D01*
X61524D01*
X175787Y106638D01*
D02*
G37*
G36*
X157347Y106328D02*
X156567Y105311D01*
X156181Y105534D01*
X153920Y106140D01*
X151580D01*
X150086Y105740D01*
X67893Y187933D01*
X66556Y188826D01*
X64980Y189139D01*
X49810D01*
Y194210D01*
X49810Y194560D01*
Y195480D01*
X49810Y195830D01*
Y200901D01*
X62774D01*
X157347Y106328D01*
D02*
G37*
%LPC*%
G36*
X287290Y274790D02*
X267210D01*
Y270119D01*
X265940Y269778D01*
X265284Y270915D01*
X263415Y272784D01*
X261125Y274106D01*
X258572Y274790D01*
X255928D01*
X253375Y274106D01*
X251085Y272784D01*
X249216Y270915D01*
X247912Y268657D01*
X247636Y268591D01*
X246864D01*
X246588Y268657D01*
X245284Y270915D01*
X243415Y272784D01*
X241125Y274106D01*
X238572Y274790D01*
X235928D01*
X233375Y274106D01*
X231085Y272784D01*
X229216Y270915D01*
X227912Y268657D01*
X227637Y268591D01*
X226864D01*
X226588Y268657D01*
X225284Y270915D01*
X223415Y272784D01*
X221125Y274106D01*
X218572Y274790D01*
X215928D01*
X213375Y274106D01*
X211085Y272784D01*
X209216Y270915D01*
X207912Y268657D01*
X207636Y268591D01*
X206864D01*
X206588Y268657D01*
X205284Y270915D01*
X203415Y272784D01*
X201125Y274106D01*
X198572Y274790D01*
X195928D01*
X193375Y274106D01*
X191085Y272784D01*
X189216Y270915D01*
X187912Y268657D01*
X187637Y268591D01*
X186864D01*
X186588Y268657D01*
X185284Y270915D01*
X183415Y272784D01*
X181125Y274106D01*
X178572Y274790D01*
X175928D01*
X173375Y274106D01*
X171085Y272784D01*
X169216Y270915D01*
X167912Y268657D01*
X167636Y268591D01*
X166864D01*
X166588Y268657D01*
X165284Y270915D01*
X163415Y272784D01*
X161125Y274106D01*
X158572Y274790D01*
X155928D01*
X153375Y274106D01*
X151085Y272784D01*
X149216Y270915D01*
X147912Y268657D01*
X147636Y268591D01*
X146864D01*
X146588Y268657D01*
X145284Y270915D01*
X143415Y272784D01*
X141125Y274106D01*
X138572Y274790D01*
X135928D01*
X133375Y274106D01*
X131085Y272784D01*
X129216Y270915D01*
X127894Y268625D01*
X127210Y266072D01*
Y263428D01*
X127894Y260875D01*
X129216Y258585D01*
X131085Y256716D01*
X133375Y255394D01*
X135928Y254710D01*
X138572D01*
X141125Y255394D01*
X143415Y256716D01*
X145284Y258585D01*
X146588Y260844D01*
X146864Y260909D01*
X147636D01*
X147912Y260844D01*
X149216Y258585D01*
X151085Y256716D01*
X153375Y255394D01*
X155928Y254710D01*
X158572D01*
X161125Y255394D01*
X163415Y256716D01*
X165284Y258585D01*
X166588Y260844D01*
X166864Y260909D01*
X167636D01*
X167912Y260844D01*
X169216Y258585D01*
X171085Y256716D01*
X173375Y255394D01*
X175928Y254710D01*
X178572D01*
X181125Y255394D01*
X183415Y256716D01*
X185284Y258585D01*
X186588Y260844D01*
X186864Y260909D01*
X187637D01*
X187912Y260844D01*
X189216Y258585D01*
X191085Y256716D01*
X193375Y255394D01*
X195928Y254710D01*
X198572D01*
X201125Y255394D01*
X203415Y256716D01*
X205284Y258585D01*
X206588Y260844D01*
X206864Y260909D01*
X207636D01*
X207912Y260844D01*
X209216Y258585D01*
X211085Y256716D01*
X213375Y255394D01*
X215928Y254710D01*
X218572D01*
X221125Y255394D01*
X223415Y256716D01*
X225284Y258585D01*
X226588Y260844D01*
X226864Y260909D01*
X227637D01*
X227912Y260844D01*
X229216Y258585D01*
X231085Y256716D01*
X233375Y255394D01*
X235928Y254710D01*
X238572D01*
X241125Y255394D01*
X243415Y256716D01*
X245284Y258585D01*
X246588Y260844D01*
X246864Y260909D01*
X247636D01*
X247912Y260844D01*
X249216Y258585D01*
X251085Y256716D01*
X253375Y255394D01*
X255928Y254710D01*
X258572D01*
X261125Y255394D01*
X263415Y256716D01*
X265284Y258585D01*
X265940Y259722D01*
X267210Y259381D01*
Y254710D01*
X287290D01*
Y274790D01*
D02*
G37*
G36*
X308953Y272540D02*
X308770D01*
Y262770D01*
X318540D01*
Y262953D01*
X317788Y265761D01*
X316334Y268279D01*
X314279Y270334D01*
X311761Y271788D01*
X308953Y272540D01*
D02*
G37*
G36*
X306230D02*
X306047D01*
X303239Y271788D01*
X300721Y270334D01*
X298666Y268279D01*
X297212Y265761D01*
X296460Y262953D01*
Y262770D01*
X306230D01*
Y272540D01*
D02*
G37*
G36*
X111710Y271060D02*
X101940D01*
Y261290D01*
X111710D01*
Y271060D01*
D02*
G37*
G36*
X99400D02*
X89630D01*
Y261290D01*
X99400D01*
Y271060D01*
D02*
G37*
G36*
X318540Y260230D02*
X308770D01*
Y250460D01*
X308953D01*
X311761Y251212D01*
X314279Y252666D01*
X316334Y254721D01*
X317788Y257239D01*
X318540Y260047D01*
Y260230D01*
D02*
G37*
G36*
X306230D02*
X296460D01*
Y260047D01*
X297212Y257239D01*
X298666Y254721D01*
X300721Y252666D01*
X303239Y251212D01*
X306047Y250460D01*
X306230D01*
Y260230D01*
D02*
G37*
G36*
X111710Y258750D02*
X101940D01*
Y248980D01*
X111710D01*
Y258750D01*
D02*
G37*
G36*
X99400D02*
X89630D01*
Y248980D01*
X99400D01*
Y258750D01*
D02*
G37*
G36*
X343940Y272540D02*
X321860D01*
Y250460D01*
X327761D01*
Y246639D01*
X226000D01*
X224034Y246248D01*
X222366Y245134D01*
X209391Y232159D01*
X204810D01*
Y239560D01*
X186080D01*
X185730Y239560D01*
X184810D01*
X184460Y239560D01*
X166080D01*
X165730Y239560D01*
X164810D01*
X164460Y239560D01*
X146080D01*
X145730Y239560D01*
X144810D01*
X144460Y239560D01*
X126080D01*
X125730Y239560D01*
X124810D01*
X124460Y239560D01*
X106080D01*
X105730Y239560D01*
X104810D01*
X104460Y239560D01*
X85730D01*
Y214480D01*
X104460D01*
X104810Y214480D01*
X105730D01*
X106080Y214480D01*
X124460D01*
X124810Y214480D01*
X125730D01*
X126080Y214480D01*
X144460D01*
X144810Y214480D01*
X145730D01*
X146080Y214480D01*
X164460D01*
X164810Y214480D01*
X165730D01*
X166080Y214480D01*
X184460D01*
X184810Y214480D01*
X185730D01*
X186080Y214480D01*
X204810D01*
Y221881D01*
X211520D01*
X213486Y222272D01*
X215154Y223386D01*
X228129Y236361D01*
X239294D01*
X239634Y235091D01*
X238184Y234254D01*
X236036Y232106D01*
X234517Y229474D01*
X233730Y226539D01*
Y223501D01*
X234517Y220566D01*
X236036Y217934D01*
X238184Y215786D01*
X240816Y214266D01*
X243751Y213480D01*
X246789D01*
X249724Y214266D01*
X252356Y215786D01*
X254504Y217934D01*
X254635Y218161D01*
X255905D01*
X256036Y217934D01*
X258184Y215786D01*
X260816Y214266D01*
X263751Y213480D01*
X266789D01*
X269724Y214266D01*
X272356Y215786D01*
X274504Y217934D01*
X276024Y220566D01*
X276810Y223501D01*
Y226539D01*
X276024Y229474D01*
X274504Y232106D01*
X272356Y234254D01*
X270906Y235091D01*
X271246Y236361D01*
X331143D01*
X333109Y236752D01*
X334776Y237866D01*
X336534Y239624D01*
X337648Y241291D01*
X338039Y243257D01*
Y250460D01*
X343940D01*
Y272540D01*
D02*
G37*
G36*
X387790Y238290D02*
X370210D01*
Y237889D01*
X344750D01*
X342784Y237498D01*
X341116Y236384D01*
X307621Y202889D01*
X203799D01*
X203614Y203209D01*
X201959Y204864D01*
X199931Y206034D01*
X197670Y206640D01*
X195330D01*
X193069Y206034D01*
X191041Y204864D01*
X189386Y203209D01*
X188216Y201181D01*
X187610Y198920D01*
Y196580D01*
X188216Y194319D01*
X189386Y192291D01*
X191041Y190636D01*
X193069Y189466D01*
X195330Y188860D01*
X197670D01*
X199931Y189466D01*
X201959Y190636D01*
X203614Y192291D01*
X203799Y192611D01*
X309750D01*
X311716Y193002D01*
X313384Y194116D01*
X346879Y227611D01*
X370210D01*
Y227210D01*
X387790D01*
Y238290D01*
D02*
G37*
G36*
Y220290D02*
X370210D01*
Y213227D01*
X363121Y206139D01*
X354799D01*
X354614Y206459D01*
X352959Y208114D01*
X350931Y209284D01*
X348670Y209890D01*
X346330D01*
X344069Y209284D01*
X342041Y208114D01*
X340386Y206459D01*
X339216Y204431D01*
X338610Y202170D01*
Y199830D01*
X339216Y197569D01*
X340386Y195541D01*
X342041Y193886D01*
X344069Y192716D01*
X346330Y192110D01*
X348670D01*
X350931Y192716D01*
X352959Y193886D01*
X354614Y195541D01*
X354799Y195861D01*
X365250D01*
X367216Y196252D01*
X368884Y197366D01*
X380727Y209210D01*
X387790D01*
Y220290D01*
D02*
G37*
G36*
X64520Y121613D02*
Y114020D01*
X72113D01*
X71534Y116181D01*
X70364Y118209D01*
X68709Y119864D01*
X66681Y121034D01*
X64520Y121613D01*
D02*
G37*
G36*
X61980D02*
X59819Y121034D01*
X57791Y119864D01*
X56136Y118209D01*
X54966Y116181D01*
X54387Y114020D01*
X61980D01*
Y121613D01*
D02*
G37*
G36*
X228420Y123890D02*
X226080D01*
X223819Y123284D01*
X221791Y122114D01*
X220136Y120459D01*
X218966Y118431D01*
X218360Y116170D01*
Y113830D01*
X218480Y113383D01*
X217296Y112892D01*
X217114Y113209D01*
X215459Y114864D01*
X213431Y116034D01*
X211270Y116613D01*
Y109020D01*
X218863D01*
X218770Y109367D01*
X219954Y109858D01*
X220136Y109541D01*
X221791Y107886D01*
X222111Y107702D01*
Y49057D01*
X220943Y47889D01*
X175250D01*
X173284Y47498D01*
X171616Y46384D01*
X159716Y34483D01*
X158572Y34790D01*
X155928D01*
X153375Y34106D01*
X151085Y32784D01*
X149216Y30915D01*
X147912Y28656D01*
X147636Y28591D01*
X146864D01*
X146588Y28656D01*
X145284Y30915D01*
X143415Y32784D01*
X141125Y34106D01*
X138572Y34790D01*
X135928D01*
X133375Y34106D01*
X131085Y32784D01*
X129216Y30915D01*
X127894Y28625D01*
X127210Y26072D01*
Y23428D01*
X127894Y20875D01*
X129216Y18585D01*
X131085Y16716D01*
X133375Y15394D01*
X135928Y14710D01*
X138572D01*
X141125Y15394D01*
X143415Y16716D01*
X145284Y18585D01*
X146588Y20844D01*
X146864Y20909D01*
X147636D01*
X147912Y20844D01*
X149216Y18585D01*
X151085Y16716D01*
X153375Y15394D01*
X155928Y14710D01*
X158572D01*
X161125Y15394D01*
X163415Y16716D01*
X165284Y18585D01*
X166588Y20844D01*
X166864Y20909D01*
X167636D01*
X167912Y20844D01*
X169216Y18585D01*
X171085Y16716D01*
X173375Y15394D01*
X175928Y14710D01*
X178572D01*
X181125Y15394D01*
X183415Y16716D01*
X185284Y18585D01*
X186588Y20844D01*
X186864Y20909D01*
X187637D01*
X187912Y20844D01*
X189216Y18585D01*
X191085Y16716D01*
X193375Y15394D01*
X195928Y14710D01*
X198572D01*
X201125Y15394D01*
X203415Y16716D01*
X205284Y18585D01*
X206588Y20844D01*
X206864Y20909D01*
X207636D01*
X207912Y20844D01*
X209216Y18585D01*
X211085Y16716D01*
X213375Y15394D01*
X215928Y14710D01*
X218572D01*
X221125Y15394D01*
X223415Y16716D01*
X225284Y18585D01*
X226588Y20844D01*
X226864Y20909D01*
X227637D01*
X227912Y20844D01*
X229216Y18585D01*
X231085Y16716D01*
X233375Y15394D01*
X235928Y14710D01*
X238572D01*
X241125Y15394D01*
X243415Y16716D01*
X245284Y18585D01*
X246588Y20844D01*
X246864Y20909D01*
X247636D01*
X247912Y20844D01*
X249216Y18585D01*
X251085Y16716D01*
X253375Y15394D01*
X255928Y14710D01*
X258572D01*
X261125Y15394D01*
X263415Y16716D01*
X265284Y18585D01*
X265940Y19722D01*
X267210Y19381D01*
Y14710D01*
X287290D01*
Y34790D01*
X267210D01*
Y30119D01*
X265940Y29778D01*
X265284Y30915D01*
X263415Y32784D01*
X261125Y34106D01*
X258572Y34790D01*
X255928D01*
X253375Y34106D01*
X251085Y32784D01*
X249216Y30915D01*
X247912Y28656D01*
X247636Y28591D01*
X246864D01*
X246588Y28656D01*
X245284Y30915D01*
X243415Y32784D01*
X241125Y34106D01*
X238572Y34790D01*
X235928D01*
X233375Y34106D01*
X231085Y32784D01*
X229216Y30915D01*
X227912Y28656D01*
X227637Y28591D01*
X226864D01*
X226588Y28656D01*
X225284Y30915D01*
X223415Y32784D01*
X221125Y34106D01*
X218572Y34790D01*
X215928D01*
X213375Y34106D01*
X211085Y32784D01*
X209216Y30915D01*
X207912Y28656D01*
X207636Y28591D01*
X206864D01*
X206588Y28656D01*
X205284Y30915D01*
X203415Y32784D01*
X201125Y34106D01*
X198572Y34790D01*
X195928D01*
X193375Y34106D01*
X191085Y32784D01*
X189216Y30915D01*
X187912Y28656D01*
X187637Y28591D01*
X186864D01*
X186588Y28656D01*
X185284Y30915D01*
X183415Y32784D01*
X181125Y34106D01*
X178572Y34790D01*
X176353D01*
X175756Y35989D01*
X177379Y37611D01*
X223071D01*
X225038Y38003D01*
X226705Y39116D01*
X230884Y43295D01*
X231998Y44963D01*
X232389Y46929D01*
Y107702D01*
X232709Y107886D01*
X234364Y109541D01*
X235534Y111569D01*
X236140Y113830D01*
Y116170D01*
X235534Y118431D01*
X234364Y120459D01*
X232709Y122114D01*
X230681Y123284D01*
X228420Y123890D01*
D02*
G37*
G36*
X208730Y116613D02*
X206569Y116034D01*
X204541Y114864D01*
X202886Y113209D01*
X201716Y111181D01*
X201137Y109020D01*
X208730D01*
Y116613D01*
D02*
G37*
G36*
X72113Y111480D02*
X64520D01*
Y103887D01*
X66681Y104466D01*
X68709Y105636D01*
X70364Y107291D01*
X71534Y109319D01*
X72113Y111480D01*
D02*
G37*
G36*
X61980D02*
X54387D01*
X54966Y109319D01*
X56136Y107291D01*
X57791Y105636D01*
X59819Y104466D01*
X61980Y103887D01*
Y111480D01*
D02*
G37*
G36*
X218863Y106480D02*
X211270D01*
Y98887D01*
X213431Y99466D01*
X215459Y100636D01*
X217114Y102291D01*
X218284Y104319D01*
X218863Y106480D01*
D02*
G37*
G36*
X208730D02*
X201137D01*
X201716Y104319D01*
X202886Y102291D01*
X204541Y100636D01*
X206569Y99466D01*
X208730Y98887D01*
Y106480D01*
D02*
G37*
G36*
X165730Y75560D02*
X164810D01*
Y75560D01*
X146080D01*
X145730Y75560D01*
Y75560D01*
X144810D01*
Y75560D01*
X125730D01*
Y75560D01*
X124810D01*
Y75560D01*
X105730D01*
Y75560D01*
X104810D01*
Y75560D01*
X85730D01*
Y50480D01*
X94245D01*
X94731Y49307D01*
X84378Y38953D01*
X84053Y39040D01*
X81147D01*
X78339Y38288D01*
X75821Y36834D01*
X73766Y34779D01*
X72312Y32261D01*
X71560Y29453D01*
Y26547D01*
X72312Y23739D01*
X73766Y21221D01*
X75821Y19166D01*
X78339Y17712D01*
X81147Y16960D01*
X84053D01*
X86861Y17712D01*
X89379Y19166D01*
X91434Y21221D01*
X92888Y23739D01*
X93640Y26547D01*
Y29453D01*
X92888Y32261D01*
X91588Y34513D01*
X95690Y38615D01*
X96960Y38089D01*
Y16960D01*
X119040D01*
Y32215D01*
X126146Y39321D01*
X158953D01*
X160529Y39634D01*
X161865Y40527D01*
X167405Y46067D01*
X167405Y46068D01*
X171818Y50480D01*
X184460D01*
X184810Y50480D01*
X185730D01*
X186080Y50480D01*
X204810D01*
Y75560D01*
X186080D01*
X185730Y75560D01*
X184810D01*
X184460Y75560D01*
X166080D01*
X165730Y75560D01*
Y75560D01*
D02*
G37*
G36*
X266789Y76560D02*
X263751D01*
X260816Y75774D01*
X258184Y74254D01*
X256036Y72106D01*
X255905Y71879D01*
X254635D01*
X254504Y72106D01*
X252356Y74254D01*
X249724Y75774D01*
X246789Y76560D01*
X243751D01*
X240816Y75774D01*
X238184Y74254D01*
X236036Y72106D01*
X234517Y69474D01*
X233730Y66539D01*
Y63501D01*
X234517Y60566D01*
X236036Y57934D01*
X238184Y55786D01*
X240816Y54267D01*
X243751Y53480D01*
X246789D01*
X249724Y54267D01*
X252356Y55786D01*
X254504Y57934D01*
X254635Y58161D01*
X255905D01*
X256036Y57934D01*
X258184Y55786D01*
X260816Y54267D01*
X263751Y53480D01*
X266789D01*
X269724Y54267D01*
X272356Y55786D01*
X274504Y57934D01*
X276024Y60566D01*
X276810Y63501D01*
Y66539D01*
X276024Y69474D01*
X274504Y72106D01*
X272356Y74254D01*
X269724Y75774D01*
X266789Y76560D01*
D02*
G37*
G36*
X179170Y141890D02*
X176830D01*
X174569Y141284D01*
X172541Y140114D01*
X170886Y138459D01*
X169716Y136431D01*
X169110Y134170D01*
Y131830D01*
X169716Y129569D01*
X170886Y127541D01*
X172541Y125886D01*
X174569Y124716D01*
X176830Y124110D01*
X179170D01*
X181431Y124716D01*
X183459Y125886D01*
X185114Y127541D01*
X185299Y127861D01*
X374943D01*
X375111Y127693D01*
Y81290D01*
X371460D01*
Y70210D01*
X389040D01*
Y81290D01*
X385389D01*
Y129821D01*
X384998Y131788D01*
X383884Y133455D01*
X380705Y136634D01*
X379038Y137748D01*
X377071Y138139D01*
X185299D01*
X185114Y138459D01*
X183459Y140114D01*
X181431Y141284D01*
X179170Y141890D01*
D02*
G37*
G36*
X49810Y83750D02*
X18730D01*
Y75830D01*
X18730Y75480D01*
Y74560D01*
X18730Y74210D01*
Y55480D01*
X49810D01*
Y59881D01*
X55796D01*
X56136Y59291D01*
X57791Y57636D01*
X59819Y56466D01*
X62080Y55860D01*
X64420D01*
X66681Y56466D01*
X68709Y57636D01*
X70364Y59291D01*
X71534Y61319D01*
X72140Y63580D01*
Y65920D01*
X71534Y68181D01*
X70364Y70209D01*
X68709Y71864D01*
X66681Y73034D01*
X64420Y73640D01*
X62080D01*
X59819Y73034D01*
X57791Y71864D01*
X56136Y70209D01*
X56107Y70159D01*
X49810D01*
Y74210D01*
X49810Y74560D01*
Y75480D01*
X49810Y75830D01*
Y83750D01*
D02*
G37*
G36*
X389040Y63290D02*
X371460D01*
Y52210D01*
X375111D01*
Y50549D01*
X374791Y50364D01*
X373136Y48709D01*
X371966Y46681D01*
X371360Y44420D01*
Y42080D01*
X371966Y39819D01*
X373136Y37791D01*
X374791Y36136D01*
X376819Y34966D01*
X379080Y34360D01*
X381420D01*
X383681Y34966D01*
X385709Y36136D01*
X387364Y37791D01*
X388534Y39819D01*
X389140Y42080D01*
Y44420D01*
X388534Y46681D01*
X387364Y48709D01*
X385709Y50364D01*
X385389Y50548D01*
Y52210D01*
X389040D01*
Y63290D01*
D02*
G37*
G36*
X319390Y40540D02*
X309620D01*
Y30770D01*
X319390D01*
Y40540D01*
D02*
G37*
G36*
X307080D02*
X297310D01*
Y30770D01*
X307080D01*
Y40540D01*
D02*
G37*
G36*
X335204D02*
X332297D01*
X329489Y39788D01*
X326971Y38334D01*
X324916Y36279D01*
X323462Y33761D01*
X322710Y30954D01*
Y28047D01*
X323462Y25239D01*
X324916Y22721D01*
X326971Y20666D01*
X329489Y19212D01*
X332297Y18460D01*
X335204D01*
X338011Y19212D01*
X340529Y20666D01*
X342584Y22721D01*
X344038Y25239D01*
X344790Y28047D01*
Y30954D01*
X344038Y33761D01*
X342584Y36279D01*
X340529Y38334D01*
X338011Y39788D01*
X335204Y40540D01*
D02*
G37*
G36*
X319390Y28230D02*
X309620D01*
Y18460D01*
X319390D01*
Y28230D01*
D02*
G37*
G36*
X307080D02*
X297310D01*
Y18460D01*
X307080D01*
Y28230D01*
D02*
G37*
%LPD*%
D13*
X34270Y85020D02*
X34750Y85500D01*
D15*
X245270Y225020D02*
D03*
X265270D02*
D03*
X245270Y65020D02*
D03*
X265270D02*
D03*
D16*
X95270Y227020D02*
D03*
X195270D02*
D03*
X175270D02*
D03*
X155270D02*
D03*
X135270D02*
D03*
X115270D02*
D03*
X95270Y63020D02*
D03*
X195270D02*
D03*
X175270D02*
D03*
X155270D02*
D03*
X135270D02*
D03*
X115270D02*
D03*
D17*
X34270Y225020D02*
D03*
Y205020D02*
D03*
Y185020D02*
D03*
Y165020D02*
D03*
Y125020D02*
D03*
Y105020D02*
D03*
Y85020D02*
D03*
Y65020D02*
D03*
Y145020D02*
D03*
D18*
X379000Y232750D02*
D03*
Y214750D02*
D03*
X380250Y75750D02*
D03*
Y57750D02*
D03*
D27*
X196500Y197750D02*
X309750D01*
X344750Y232750D02*
X379000D01*
X309750Y197750D02*
X344750Y232750D01*
X347500Y201000D02*
X365250D01*
X379000Y214750D01*
X380250Y43250D02*
X380250Y43250D01*
Y57750D01*
X62980Y65020D02*
X63250Y64750D01*
X34270Y65020D02*
X62980D01*
X178000Y133000D02*
X377071D01*
X380250Y129821D01*
Y75750D02*
Y129821D01*
X223071Y42750D02*
X227250Y46929D01*
Y115000D01*
X175250Y42750D02*
X223071D01*
X157250Y24750D02*
X175250Y42750D01*
X332900Y243257D02*
Y261500D01*
X331143Y241500D02*
X332900Y243257D01*
X226000Y241500D02*
X331143D01*
X211520Y227020D02*
X226000Y241500D01*
X195270Y227020D02*
X211520D01*
D28*
X191500Y96750D02*
X194250D01*
X124440Y43440D02*
X158953D01*
X164493Y48980D01*
X164493D01*
X169770Y54257D01*
X116000Y35000D02*
X124440Y43440D01*
X169770Y57520D02*
X175270Y63020D01*
X100230Y48980D02*
X144230D01*
X155270Y60020D01*
X169770Y54257D02*
Y57520D01*
X82600Y31350D02*
X100230Y48980D01*
X155270Y60020D02*
Y63020D01*
X29810Y272560D02*
X59248D01*
X14500Y207007D02*
Y257250D01*
X29810Y272560D01*
X16257Y205250D02*
X34040D01*
X14500Y207007D02*
X16257Y205250D01*
X34040D02*
X34270Y205020D01*
X71788Y260020D02*
X75270D01*
X59248Y272560D02*
X71788Y260020D01*
X217250Y24750D02*
X217500Y25000D01*
X63230Y225020D02*
X191500Y96750D01*
X34270Y225020D02*
X63230D01*
X64480Y205020D02*
X172500Y97000D01*
X34270Y205020D02*
X64480D01*
X64980Y185020D02*
X152750Y97250D01*
X34270Y185020D02*
X64980D01*
X115000Y35000D02*
X116000D01*
X108000Y28000D02*
X115000Y35000D01*
X82600Y28000D02*
Y31350D01*
X34270Y244420D02*
X49870Y260020D01*
X34270Y225020D02*
Y244420D01*
D29*
X333750Y29500D02*
D03*
X75270Y260020D02*
D03*
X49870D02*
D03*
X82600Y28000D02*
D03*
X307500Y261500D02*
D03*
D30*
X308350Y29500D02*
D03*
X100670Y260020D02*
D03*
X108000Y28000D02*
D03*
X332900Y261500D02*
D03*
D31*
X137250Y24750D02*
D03*
X157250D02*
D03*
X177250D02*
D03*
X257250D02*
D03*
X237250D02*
D03*
X217250D02*
D03*
X197250D02*
D03*
X137250Y264750D02*
D03*
X157250D02*
D03*
X177250D02*
D03*
X257250D02*
D03*
X237250D02*
D03*
X217250D02*
D03*
X197250D02*
D03*
D32*
X277250Y24750D02*
D03*
Y264750D02*
D03*
D33*
X347500Y201000D02*
D03*
X380250Y43250D02*
D03*
X63250Y112750D02*
D03*
Y64750D02*
D03*
X210000Y107750D02*
D03*
X178000Y133000D02*
D03*
X196500Y197750D02*
D03*
X227250Y115000D02*
D03*
X194250Y96750D02*
D03*
X172500Y97000D02*
D03*
X152750Y97250D02*
D03*
M02*
