M48
;Layer_Color=9474304
;FILE_FORMAT=4:4
METRIC,LZ
;TYPE=PLATED
T1F00S00C0.7112
T2F00S00C0.7620
T3F00S00C1.0200
%
T01
X0006325Y0006475
Y0011275
X0015275Y0009725
X001725Y00097
X0019425Y0009675
X0021Y0010775
X0022725Y00115
X00178Y00133
X001965Y0019775
X003475Y00201
X0038025Y0004325
T02
X0013725Y0002475
Y0026475
T03
X000826Y00028
X00108
X0015725Y0002475
X0017725
X0019725
X0021725
X0023725
X0025725
X0027725
X0030835Y000295
X0033375
X003329Y002615
X003075
X0027725Y0026475
X0025725
X0023725
X0021725
X0019725
X0017725
X0015725
X0010067Y0026002
X0007527
X0004987
M30
