G04*
G04 #@! TF.GenerationSoftware,Altium Limited,Altium Designer,21.4.1 (30)*
G04*
G04 Layer_Color=8421504*
%FSLAX25Y25*%
%MOIN*%
G70*
G04*
G04 #@! TF.SameCoordinates,2C669462-4CAA-4C00-817C-2A90AA7F7E81*
G04*
G04*
G04 #@! TF.FilePolarity,Positive*
G04*
G01*
G75*
%ADD17R,0.05709X0.01600*%
%ADD18R,0.02402X0.07874*%
%ADD19R,0.10551X0.14173*%
%ADD20R,0.03937X0.03937*%
%ADD21R,0.10236X0.05906*%
%ADD22R,0.03543X0.02756*%
%ADD23R,0.02756X0.03543*%
%ADD24R,0.03937X0.03937*%
D17*
X72900Y-113400D02*
D03*
Y-115900D02*
D03*
Y-118400D02*
D03*
Y-120900D02*
D03*
Y-123400D02*
D03*
Y-125900D02*
D03*
Y-128400D02*
D03*
Y-130900D02*
D03*
X94357Y-113400D02*
D03*
Y-115900D02*
D03*
Y-118400D02*
D03*
Y-120900D02*
D03*
Y-123400D02*
D03*
Y-125900D02*
D03*
Y-128400D02*
D03*
Y-130900D02*
D03*
D18*
X-13331Y-132976D02*
D03*
X-9394D02*
D03*
X-5457D02*
D03*
X-1520D02*
D03*
X2417D02*
D03*
X6354D02*
D03*
X10291D02*
D03*
X14228D02*
D03*
D19*
X-25102Y-144000D02*
D03*
X26000D02*
D03*
D20*
X84500Y-97500D02*
D03*
X78776D02*
D03*
X40362Y128600D02*
D03*
X34638D02*
D03*
X78776Y-75500D02*
D03*
X84500D02*
D03*
X-40862Y126000D02*
D03*
X-35138D02*
D03*
D21*
X-13780Y-119095D02*
D03*
Y-101378D02*
D03*
X13780Y-119095D02*
D03*
Y-101378D02*
D03*
Y101378D02*
D03*
Y119095D02*
D03*
X-13780Y101378D02*
D03*
Y119095D02*
D03*
D22*
X-3000Y-91000D02*
D03*
Y-97512D02*
D03*
X4000Y-90744D02*
D03*
Y-97256D02*
D03*
D23*
X-13612Y134700D02*
D03*
X-7100D02*
D03*
X13744Y135000D02*
D03*
X20256D02*
D03*
X84500Y-90500D02*
D03*
X77988D02*
D03*
X78244Y-83500D02*
D03*
X84756D02*
D03*
D24*
X-77000Y-100000D02*
D03*
Y-94276D02*
D03*
M02*
