G04*
G04 #@! TF.GenerationSoftware,Altium Limited,Altium Designer,21.4.1 (30)*
G04*
G04 Layer_Physical_Order=1*
G04 Layer_Color=255*
%FSLAX25Y25*%
%MOIN*%
G70*
G04*
G04 #@! TF.SameCoordinates,4CBD480F-F67F-4A02-B49F-E89483E6C45F*
G04*
G04*
G04 #@! TF.FilePolarity,Positive*
G04*
G01*
G75*
%ADD13C,0.01000*%
%ADD14R,0.07874X0.02362*%
%ADD15R,0.03937X0.03937*%
%ADD26C,0.00800*%
%ADD27C,0.02300*%
%ADD28C,0.03000*%
%ADD29C,0.22028*%
%ADD30C,0.08563*%
%ADD31P,0.12110X4X90.0*%
%ADD32C,0.05315*%
%ADD33R,0.05315X0.05315*%
%ADD34C,0.17717*%
%ADD35C,0.02400*%
%ADD36C,0.05000*%
G36*
X10990Y148983D02*
X18287Y148264D01*
X25540Y147188D01*
X32731Y145758D01*
X39844Y143976D01*
X42667Y143120D01*
X42848Y142654D01*
X40949Y139423D01*
X40948Y139420D01*
X40946Y139418D01*
X40883Y139233D01*
X40819Y139048D01*
X40819Y139044D01*
X40818Y139041D01*
X40830Y138846D01*
X40841Y138651D01*
X40843Y138647D01*
X40843Y138644D01*
X40930Y138468D01*
X41015Y138292D01*
X41017Y138290D01*
X41019Y138287D01*
X41165Y138158D01*
X41312Y138028D01*
X41315Y138027D01*
X41317Y138024D01*
X97434Y105515D01*
X97435Y105515D01*
X97436Y105514D01*
X97623Y105450D01*
X97811Y105386D01*
X97812Y105386D01*
X97812Y105386D01*
X98009Y105399D01*
X98207Y105412D01*
X98208Y105412D01*
X98210Y105412D01*
X98387Y105500D01*
X98564Y105587D01*
X98565Y105588D01*
X98566Y105588D01*
X98697Y105738D01*
X98827Y105886D01*
X98828Y105887D01*
X98828Y105888D01*
X100937Y109546D01*
X101431Y109623D01*
X103009Y108194D01*
X108194Y103009D01*
X113118Y97576D01*
X117769Y91908D01*
X122137Y86019D01*
X126211Y79922D01*
X129980Y73633D01*
X133437Y67166D01*
X136572Y60538D01*
X139377Y53764D01*
X141848Y46860D01*
X143976Y39844D01*
X145758Y32731D01*
X147188Y25540D01*
X148264Y18287D01*
X148983Y10990D01*
X149071Y9198D01*
X148499Y8782D01*
X147218Y7501D01*
X146152Y6035D01*
X145330Y4420D01*
X144770Y2696D01*
X144486Y906D01*
Y-906D01*
X144770Y-2696D01*
X145330Y-4420D01*
X146152Y-6035D01*
X147218Y-7501D01*
X148499Y-8782D01*
X149071Y-9198D01*
X148983Y-10990D01*
X148264Y-18287D01*
X147188Y-25540D01*
X145758Y-32731D01*
X143976Y-39844D01*
X141848Y-46860D01*
X139377Y-53764D01*
X136572Y-60538D01*
X133437Y-67166D01*
X129980Y-73633D01*
X126211Y-79922D01*
X122137Y-86019D01*
X117769Y-91908D01*
X113118Y-97576D01*
X108194Y-103009D01*
X103009Y-108194D01*
X97576Y-113118D01*
X91908Y-117769D01*
X86019Y-122137D01*
X79922Y-126211D01*
X73633Y-129980D01*
X67166Y-133437D01*
X60538Y-136572D01*
X53764Y-139377D01*
X46860Y-141848D01*
X39844Y-143976D01*
X32731Y-145758D01*
X25540Y-147188D01*
X18287Y-148264D01*
X10990Y-148983D01*
X3666Y-149343D01*
X-3666D01*
X-10336Y-149015D01*
X-10655Y-148499D01*
X-10342Y-146922D01*
Y-145078D01*
X-10701Y-143270D01*
X-11407Y-141567D01*
X-12431Y-140034D01*
X-13735Y-138731D01*
X-15267Y-137707D01*
X-16970Y-137001D01*
X-18778Y-136642D01*
X-20622D01*
X-22430Y-137001D01*
X-24133Y-137707D01*
X-25666Y-138731D01*
X-26969Y-140034D01*
X-27993Y-141567D01*
X-28699Y-143270D01*
X-29058Y-145078D01*
Y-146094D01*
X-29445Y-146412D01*
X-32731Y-145758D01*
X-39844Y-143976D01*
X-46860Y-141848D01*
X-53764Y-139377D01*
X-60538Y-136572D01*
X-67166Y-133437D01*
X-73633Y-129980D01*
X-79922Y-126211D01*
X-86019Y-122137D01*
X-91908Y-117769D01*
X-97576Y-113118D01*
X-103009Y-108194D01*
X-108194Y-103009D01*
X-113118Y-97576D01*
X-117769Y-91908D01*
X-122137Y-86019D01*
X-126211Y-79922D01*
X-129980Y-73633D01*
X-133437Y-67166D01*
X-136572Y-60538D01*
X-139377Y-53764D01*
X-141848Y-46860D01*
X-143976Y-39844D01*
X-145758Y-32731D01*
X-147188Y-25540D01*
X-148264Y-18287D01*
X-148983Y-10990D01*
X-149071Y-9198D01*
X-148499Y-8782D01*
X-147218Y-7501D01*
X-146152Y-6035D01*
X-145330Y-4420D01*
X-144770Y-2696D01*
X-144486Y-906D01*
Y906D01*
X-144770Y2696D01*
X-145330Y4420D01*
X-146152Y6035D01*
X-147218Y7501D01*
X-148499Y8782D01*
X-149071Y9198D01*
X-148983Y10990D01*
X-148264Y18287D01*
X-147188Y25540D01*
X-145758Y32731D01*
X-143976Y39844D01*
X-141848Y46860D01*
X-139377Y53764D01*
X-136572Y60538D01*
X-133437Y67166D01*
X-129980Y73633D01*
X-126211Y79922D01*
X-122137Y86019D01*
X-117769Y91908D01*
X-113118Y97576D01*
X-108194Y103009D01*
X-103009Y108194D01*
X-97576Y113118D01*
X-91908Y117769D01*
X-86019Y122137D01*
X-79922Y126211D01*
X-73633Y129980D01*
X-67166Y133437D01*
X-60538Y136572D01*
X-53764Y139377D01*
X-46860Y141848D01*
X-39844Y143976D01*
X-32731Y145758D01*
X-29445Y146411D01*
X-29058Y146094D01*
Y145078D01*
X-28699Y143270D01*
X-27993Y141567D01*
X-26969Y140034D01*
X-25666Y138731D01*
X-24133Y137707D01*
X-22430Y137001D01*
X-20622Y136642D01*
X-18778D01*
X-16970Y137001D01*
X-15267Y137707D01*
X-13735Y138731D01*
X-12431Y140034D01*
X-11407Y141567D01*
X-10701Y143270D01*
X-10342Y145078D01*
Y146922D01*
X-10655Y148499D01*
X-10336Y149015D01*
X-3666Y149343D01*
X3666D01*
X10990Y148983D01*
D02*
G37*
%LPC*%
G36*
X-73828Y124624D02*
X-75087D01*
X-76303Y124298D01*
X-77394Y123668D01*
X-78284Y122778D01*
X-78913Y121688D01*
X-79239Y120472D01*
Y119213D01*
X-78913Y117997D01*
X-78362Y117041D01*
X-78728Y116675D01*
X-79683Y117227D01*
X-80899Y117552D01*
X-82158D01*
X-83375Y117227D01*
X-84465Y116597D01*
X-85355Y115707D01*
X-85985Y114617D01*
X-86310Y113401D01*
Y112142D01*
X-85985Y110925D01*
X-85916Y110807D01*
X-86269Y110453D01*
X-86561Y110622D01*
X-87905Y110982D01*
X-89295D01*
X-90639Y110622D01*
X-91843Y109926D01*
X-91981Y109788D01*
X-88247Y106054D01*
X-84512Y102319D01*
X-84374Y102457D01*
X-83678Y103661D01*
X-83319Y105005D01*
Y106395D01*
X-83678Y107739D01*
X-83847Y108030D01*
X-83494Y108384D01*
X-83375Y108315D01*
X-82158Y107990D01*
X-80899D01*
X-79683Y108315D01*
X-78593Y108945D01*
X-77703Y109835D01*
X-77073Y110925D01*
X-76748Y112142D01*
Y113401D01*
X-77073Y114617D01*
X-77625Y115572D01*
X-77259Y115938D01*
X-76303Y115386D01*
X-75087Y115061D01*
X-73828D01*
X-72612Y115386D01*
X-71522Y116016D01*
X-70632Y116906D01*
X-70002Y117997D01*
X-69676Y119213D01*
Y120472D01*
X-70002Y121688D01*
X-70632Y122778D01*
X-71522Y123668D01*
X-72612Y124298D01*
X-73828Y124624D01*
D02*
G37*
G36*
X-92688Y109081D02*
X-92826Y108943D01*
X-93522Y107739D01*
X-93881Y106395D01*
Y105005D01*
X-93522Y103661D01*
X-93353Y103369D01*
X-93707Y103016D01*
X-93826Y103085D01*
X-95042Y103410D01*
X-96301D01*
X-97517Y103085D01*
X-98607Y102455D01*
X-99497Y101565D01*
X-100127Y100475D01*
X-100452Y99258D01*
Y98000D01*
X-100127Y96783D01*
X-99575Y95828D01*
X-99941Y95462D01*
X-100897Y96013D01*
X-102113Y96339D01*
X-103372D01*
X-104588Y96013D01*
X-105678Y95384D01*
X-106568Y94494D01*
X-107198Y93403D01*
X-107524Y92187D01*
Y90928D01*
X-107198Y89712D01*
X-106646Y88757D01*
X-107012Y88391D01*
X-107968Y88942D01*
X-109184Y89268D01*
X-110443D01*
X-111659Y88942D01*
X-112749Y88313D01*
X-113639Y87423D01*
X-114269Y86332D01*
X-114595Y85116D01*
Y83857D01*
X-114269Y82641D01*
X-113717Y81686D01*
X-114083Y81320D01*
X-115039Y81871D01*
X-116255Y82197D01*
X-117514D01*
X-118730Y81871D01*
X-119820Y81242D01*
X-120710Y80352D01*
X-121340Y79261D01*
X-121666Y78045D01*
Y76786D01*
X-121340Y75570D01*
X-120788Y74615D01*
X-121154Y74249D01*
X-122110Y74800D01*
X-123326Y75126D01*
X-124585D01*
X-125801Y74800D01*
X-126891Y74171D01*
X-127781Y73281D01*
X-128411Y72190D01*
X-128737Y70974D01*
Y69715D01*
X-128411Y68499D01*
X-127781Y67409D01*
X-126891Y66518D01*
X-125801Y65889D01*
X-124585Y65563D01*
X-123326D01*
X-122110Y65889D01*
X-121019Y66518D01*
X-120129Y67409D01*
X-119500Y68499D01*
X-119174Y69715D01*
Y70974D01*
X-119500Y72190D01*
X-120051Y73146D01*
X-119685Y73512D01*
X-118730Y72960D01*
X-117514Y72634D01*
X-116255D01*
X-115039Y72960D01*
X-113948Y73590D01*
X-113058Y74480D01*
X-112429Y75570D01*
X-112103Y76786D01*
Y78045D01*
X-112429Y79261D01*
X-112980Y80217D01*
X-112614Y80583D01*
X-111659Y80031D01*
X-110443Y79705D01*
X-109184D01*
X-107968Y80031D01*
X-106877Y80661D01*
X-105987Y81551D01*
X-105358Y82641D01*
X-105032Y83857D01*
Y85116D01*
X-105358Y86332D01*
X-105909Y87288D01*
X-105543Y87654D01*
X-104588Y87102D01*
X-103372Y86776D01*
X-102113D01*
X-100897Y87102D01*
X-99806Y87732D01*
X-98916Y88622D01*
X-98286Y89712D01*
X-97961Y90928D01*
Y92187D01*
X-98286Y93403D01*
X-98838Y94359D01*
X-98472Y94725D01*
X-97517Y94173D01*
X-96301Y93848D01*
X-95042D01*
X-93826Y94173D01*
X-92735Y94803D01*
X-91845Y95693D01*
X-91215Y96783D01*
X-90890Y98000D01*
Y99258D01*
X-91215Y100475D01*
X-91284Y100593D01*
X-90930Y100947D01*
X-90639Y100778D01*
X-89295Y100418D01*
X-87905D01*
X-86561Y100778D01*
X-85357Y101474D01*
X-85219Y101612D01*
X-88954Y105347D01*
X-92688Y109081D01*
D02*
G37*
G36*
X-59686Y110482D02*
X-60945D01*
X-62161Y110156D01*
X-63252Y109526D01*
X-64142Y108636D01*
X-64771Y107546D01*
X-65097Y106330D01*
Y105070D01*
X-64771Y103854D01*
X-64220Y102899D01*
X-64586Y102533D01*
X-65541Y103085D01*
X-66757Y103410D01*
X-68016D01*
X-69232Y103085D01*
X-70323Y102455D01*
X-71213Y101565D01*
X-71842Y100475D01*
X-72168Y99258D01*
Y97999D01*
X-71842Y96783D01*
X-71291Y95828D01*
X-71657Y95462D01*
X-72612Y96013D01*
X-73828Y96339D01*
X-75087D01*
X-76303Y96013D01*
X-77394Y95384D01*
X-78284Y94494D01*
X-78913Y93403D01*
X-79239Y92187D01*
Y90928D01*
X-78913Y89712D01*
X-78362Y88757D01*
X-78728Y88391D01*
X-79683Y88942D01*
X-80899Y89268D01*
X-82158D01*
X-83375Y88942D01*
X-84465Y88313D01*
X-85355Y87423D01*
X-85985Y86332D01*
X-86310Y85116D01*
Y83857D01*
X-85985Y82641D01*
X-85433Y81686D01*
X-85799Y81320D01*
X-86754Y81871D01*
X-87971Y82197D01*
X-89230D01*
X-90446Y81871D01*
X-91536Y81242D01*
X-92426Y80352D01*
X-93056Y79261D01*
X-93382Y78045D01*
Y76786D01*
X-93056Y75570D01*
X-92504Y74615D01*
X-92870Y74249D01*
X-93826Y74800D01*
X-95042Y75126D01*
X-96301D01*
X-97517Y74800D01*
X-98607Y74171D01*
X-99497Y73281D01*
X-100127Y72190D01*
X-100452Y70974D01*
Y69715D01*
X-100127Y68499D01*
X-99575Y67544D01*
X-99941Y67178D01*
X-100897Y67729D01*
X-102113Y68055D01*
X-103372D01*
X-104588Y67729D01*
X-105678Y67100D01*
X-106568Y66210D01*
X-107198Y65119D01*
X-107524Y63903D01*
Y62644D01*
X-107198Y61428D01*
X-106690Y60549D01*
X-107090Y60241D01*
X-109813Y62965D01*
X-116575Y56203D01*
X-109813Y49441D01*
X-103051Y56203D01*
X-105774Y58926D01*
X-105467Y59326D01*
X-104588Y58818D01*
X-103372Y58492D01*
X-102113D01*
X-100897Y58818D01*
X-99806Y59447D01*
X-98916Y60338D01*
X-98286Y61428D01*
X-97961Y62644D01*
Y63903D01*
X-98286Y65119D01*
X-98838Y66075D01*
X-98472Y66441D01*
X-97517Y65889D01*
X-96301Y65563D01*
X-95042D01*
X-93826Y65889D01*
X-92735Y66518D01*
X-91845Y67409D01*
X-91215Y68499D01*
X-90890Y69715D01*
Y70974D01*
X-91215Y72190D01*
X-91767Y73146D01*
X-91401Y73512D01*
X-90446Y72960D01*
X-89230Y72634D01*
X-87971D01*
X-86754Y72960D01*
X-85664Y73590D01*
X-84774Y74480D01*
X-84144Y75570D01*
X-83819Y76786D01*
Y78045D01*
X-84144Y79261D01*
X-84696Y80217D01*
X-84330Y80583D01*
X-83375Y80031D01*
X-82158Y79705D01*
X-80899D01*
X-79683Y80031D01*
X-78593Y80661D01*
X-77703Y81551D01*
X-77073Y82641D01*
X-76748Y83857D01*
Y85116D01*
X-77073Y86332D01*
X-77625Y87288D01*
X-77259Y87654D01*
X-76303Y87102D01*
X-75087Y86776D01*
X-73828D01*
X-72612Y87102D01*
X-71522Y87732D01*
X-70632Y88622D01*
X-70002Y89712D01*
X-69676Y90928D01*
Y92187D01*
X-70002Y93403D01*
X-70554Y94359D01*
X-70188Y94725D01*
X-69232Y94173D01*
X-68016Y93848D01*
X-66757D01*
X-65541Y94173D01*
X-64451Y94803D01*
X-63561Y95693D01*
X-62931Y96783D01*
X-62605Y97999D01*
Y99258D01*
X-62931Y100475D01*
X-63483Y101430D01*
X-63117Y101796D01*
X-62161Y101244D01*
X-60945Y100918D01*
X-59686D01*
X-58470Y101244D01*
X-57380Y101874D01*
X-56490Y102764D01*
X-55860Y103854D01*
X-55534Y105070D01*
Y106330D01*
X-55860Y107546D01*
X-56490Y108636D01*
X-57380Y109526D01*
X-58470Y110156D01*
X-59686Y110482D01*
D02*
G37*
G36*
X-115562Y48900D02*
X-116238D01*
X-116863Y48641D01*
X-117341Y48163D01*
X-117600Y47538D01*
Y46862D01*
X-117341Y46237D01*
X-116868Y45763D01*
Y32581D01*
X-116963Y32541D01*
X-117441Y32063D01*
X-117700Y31438D01*
Y30762D01*
X-117441Y30137D01*
X-116963Y29659D01*
X-116338Y29400D01*
X-115662D01*
X-115037Y29659D01*
X-114559Y30137D01*
X-114300Y30762D01*
Y31438D01*
X-114559Y32063D01*
X-115032Y32537D01*
Y45719D01*
X-114937Y45759D01*
X-114459Y46237D01*
X-114200Y46862D01*
Y47538D01*
X-114459Y48163D01*
X-114937Y48641D01*
X-115562Y48900D01*
D02*
G37*
G36*
X124100Y27772D02*
X119663D01*
Y26610D01*
X115758D01*
Y27772D01*
X111320D01*
Y25591D01*
X110820D01*
Y25091D01*
X105884D01*
Y23410D01*
X105914D01*
X106384Y23335D01*
X106384Y22909D01*
Y19972D01*
X115258D01*
Y20634D01*
X120163D01*
Y19972D01*
X129037D01*
Y20469D01*
X130988D01*
X131033Y20361D01*
X131511Y19883D01*
X132136Y19624D01*
X132812D01*
X133437Y19883D01*
X133915Y20361D01*
X134174Y20986D01*
Y21663D01*
X133915Y22287D01*
X133437Y22766D01*
X132812Y23024D01*
X132136D01*
X131511Y22766D01*
X131254Y22509D01*
X129391D01*
X129040Y22859D01*
X129085Y23342D01*
X129506Y23410D01*
X129537D01*
Y25091D01*
X124600D01*
Y25591D01*
X124100D01*
Y27772D01*
D02*
G37*
G36*
X129537D02*
X125100D01*
Y26091D01*
X129537D01*
Y27772D01*
D02*
G37*
G36*
X110320D02*
X105884D01*
Y26091D01*
X110320D01*
Y27772D01*
D02*
G37*
G36*
X5400Y27674D02*
Y26000D01*
X7074D01*
X6765Y26746D01*
X6146Y27365D01*
X5400Y27674D01*
D02*
G37*
G36*
X4400D02*
X3654Y27365D01*
X3035Y26746D01*
X2726Y26000D01*
X4400D01*
Y27674D01*
D02*
G37*
G36*
X110820Y19399D02*
X103122D01*
X102478Y19271D01*
X102255Y19122D01*
X101983Y19010D01*
X101505Y18531D01*
X101247Y17906D01*
Y17230D01*
X101505Y16605D01*
X101983Y16127D01*
X102382Y15962D01*
X102283Y15462D01*
X97579D01*
X96936Y15334D01*
X96390Y14969D01*
X92273Y10852D01*
X92095Y10900D01*
X91305D01*
X90542Y10696D01*
X89858Y10301D01*
X89299Y9742D01*
X88904Y9058D01*
X88700Y8295D01*
Y7505D01*
X88904Y6742D01*
X89299Y6058D01*
X89858Y5499D01*
X90542Y5104D01*
X91305Y4900D01*
X92095D01*
X92642Y5046D01*
X92901Y4598D01*
X87283Y-1019D01*
X87238Y-1000D01*
X86562D01*
X85937Y-1259D01*
X85459Y-1737D01*
X85200Y-2362D01*
Y-3038D01*
X85459Y-3663D01*
X85937Y-4141D01*
X86562Y-4400D01*
X87238D01*
X87863Y-4141D01*
X88341Y-3663D01*
X88600Y-3038D01*
Y-2362D01*
X88581Y-2317D01*
X99823Y8925D01*
X106384D01*
Y8161D01*
X115258D01*
Y8925D01*
X120163D01*
Y8161D01*
X129037D01*
Y11524D01*
X120163D01*
Y10760D01*
X115258D01*
Y11524D01*
X106384D01*
Y10760D01*
X99442D01*
X99091Y10690D01*
X98794Y10491D01*
X95002Y6700D01*
X94554Y6958D01*
X94700Y7505D01*
Y8295D01*
X94652Y8473D01*
X98276Y12097D01*
X124600D01*
X124606Y12098D01*
X129037D01*
Y15461D01*
X124606D01*
X124600Y15462D01*
X104161D01*
X103940Y15962D01*
X104006Y16034D01*
X110820D01*
X110827Y16035D01*
X115258D01*
Y16697D01*
X120163D01*
Y16035D01*
X129037D01*
Y19398D01*
X120163D01*
Y18736D01*
X115258D01*
Y19398D01*
X110827D01*
X110820Y19399D01*
D02*
G37*
G36*
X-110500Y16690D02*
Y13700D01*
X-107510D01*
X-107738Y14551D01*
X-108199Y15349D01*
X-108851Y16001D01*
X-109649Y16462D01*
X-110500Y16690D01*
D02*
G37*
G36*
X-111500D02*
X-112351Y16462D01*
X-113149Y16001D01*
X-113801Y15349D01*
X-114261Y14551D01*
X-114489Y13700D01*
X-111500D01*
Y16690D01*
D02*
G37*
G36*
X-107510Y12700D02*
X-110500D01*
Y9710D01*
X-109649Y9939D01*
X-108851Y10399D01*
X-108199Y11051D01*
X-107738Y11849D01*
X-107510Y12700D01*
D02*
G37*
G36*
X-111500D02*
X-114489D01*
X-114261Y11849D01*
X-113801Y11051D01*
X-113149Y10399D01*
X-112351Y9939D01*
X-111500Y9710D01*
Y12700D01*
D02*
G37*
G36*
X16468Y10331D02*
X14000D01*
Y7862D01*
X16468D01*
Y10331D01*
D02*
G37*
G36*
X27657Y10717D02*
X21342D01*
Y4402D01*
X27657D01*
Y10717D01*
D02*
G37*
G36*
X-66843D02*
X-73158D01*
Y4402D01*
X-66843D01*
Y10717D01*
D02*
G37*
G36*
X129037Y7587D02*
X120163D01*
Y4224D01*
X129037D01*
Y7587D01*
D02*
G37*
G36*
X115258D02*
X106384D01*
Y4224D01*
X115258D01*
Y7587D01*
D02*
G37*
G36*
X129037Y3650D02*
X120163D01*
Y287D01*
X129037D01*
Y3650D01*
D02*
G37*
G36*
X115258D02*
X106384D01*
Y287D01*
X115258D01*
Y3650D01*
D02*
G37*
G36*
X-69584Y2843D02*
X-70416D01*
X-71219Y2627D01*
X-71939Y2212D01*
X-72527Y1624D01*
X-72942Y904D01*
X-73158Y101D01*
Y-731D01*
X-72942Y-1534D01*
X-72854Y-1687D01*
X-74148Y-2980D01*
X-91667D01*
X-91704Y-2842D01*
X-92099Y-2158D01*
X-92658Y-1599D01*
X-93342Y-1204D01*
X-94105Y-1000D01*
X-94895D01*
X-95658Y-1204D01*
X-96342Y-1599D01*
X-96901Y-2158D01*
X-97296Y-2842D01*
X-97500Y-3605D01*
Y-4395D01*
X-97296Y-5158D01*
X-96901Y-5842D01*
X-96342Y-6401D01*
X-95658Y-6796D01*
X-94895Y-7000D01*
X-94105D01*
X-93342Y-6796D01*
X-92658Y-6401D01*
X-92099Y-5842D01*
X-91704Y-5158D01*
X-91667Y-5020D01*
X-73725D01*
X-73335Y-4942D01*
X-73004Y-4721D01*
X-71423Y-3139D01*
X-71219Y-3257D01*
X-70416Y-3472D01*
X-69584D01*
X-68781Y-3257D01*
X-68061Y-2842D01*
X-67473Y-2254D01*
X-67058Y-1534D01*
X-66843Y-731D01*
Y101D01*
X-67058Y904D01*
X-67473Y1624D01*
X-68061Y2212D01*
X-68781Y2627D01*
X-69584Y2843D01*
D02*
G37*
G36*
X24916D02*
X24084D01*
X23281Y2627D01*
X22561Y2212D01*
X21973Y1624D01*
X21558Y904D01*
X21342Y101D01*
Y-731D01*
X21558Y-1534D01*
X21973Y-2254D01*
X22561Y-2842D01*
X23281Y-3257D01*
X24084Y-3472D01*
X24916D01*
X25719Y-3257D01*
X26439Y-2842D01*
X27027Y-2254D01*
X27442Y-1534D01*
X27657Y-731D01*
Y101D01*
X27442Y904D01*
X27027Y1624D01*
X26439Y2212D01*
X25719Y2627D01*
X24916Y2843D01*
D02*
G37*
G36*
X129037Y-287D02*
X120163D01*
Y-3650D01*
X129037D01*
Y-287D01*
D02*
G37*
G36*
X115258D02*
X106384D01*
Y-3650D01*
X115258D01*
Y-287D01*
D02*
G37*
G36*
X129037Y-4224D02*
X120163D01*
Y-4988D01*
X115258D01*
Y-4224D01*
X106384D01*
Y-5035D01*
X97739D01*
X97263Y-4559D01*
X96638Y-4300D01*
X95962D01*
X95337Y-4559D01*
X94859Y-5037D01*
X94600Y-5662D01*
Y-6338D01*
X94859Y-6963D01*
X95337Y-7441D01*
X95962Y-7700D01*
X96638D01*
X97263Y-7441D01*
X97741Y-6963D01*
X97780Y-6870D01*
X106384D01*
Y-7587D01*
X115258D01*
Y-6823D01*
X120163D01*
Y-7587D01*
X129037D01*
Y-4224D01*
D02*
G37*
G36*
X24916Y-5032D02*
X24084D01*
X23281Y-5247D01*
X22561Y-5662D01*
X21973Y-6250D01*
X21558Y-6970D01*
X21342Y-7773D01*
Y-8605D01*
X21558Y-9408D01*
X21973Y-10128D01*
X22561Y-10716D01*
X23281Y-11131D01*
X24084Y-11347D01*
X24916D01*
X25719Y-11131D01*
X26439Y-10716D01*
X27027Y-10128D01*
X27442Y-9408D01*
X27657Y-8605D01*
Y-7773D01*
X27442Y-6970D01*
X27027Y-6250D01*
X26439Y-5662D01*
X25719Y-5247D01*
X24916Y-5032D01*
D02*
G37*
G36*
X-69584D02*
X-70416D01*
X-71219Y-5247D01*
X-71939Y-5662D01*
X-72527Y-6250D01*
X-72942Y-6970D01*
X-73158Y-7773D01*
Y-8605D01*
X-72942Y-9408D01*
X-72527Y-10128D01*
X-71939Y-10716D01*
X-71219Y-11131D01*
X-70416Y-11347D01*
X-69584D01*
X-68781Y-11131D01*
X-68061Y-10716D01*
X-67473Y-10128D01*
X-67058Y-9408D01*
X-66843Y-8605D01*
Y-7773D01*
X-67058Y-6970D01*
X-67473Y-6250D01*
X-68061Y-5662D01*
X-68781Y-5247D01*
X-69584Y-5032D01*
D02*
G37*
G36*
X99938Y-8000D02*
X99262D01*
X98637Y-8259D01*
X98159Y-8737D01*
X97900Y-9362D01*
Y-10038D01*
X98159Y-10663D01*
X98637Y-11141D01*
X99262Y-11400D01*
X99938D01*
X100563Y-11141D01*
X101015Y-10689D01*
X106384D01*
Y-11524D01*
X115258D01*
Y-10862D01*
X120163D01*
Y-11524D01*
X129037D01*
Y-8161D01*
X120163D01*
Y-8823D01*
X115258D01*
Y-8161D01*
X106384D01*
Y-8854D01*
X101090D01*
X101041Y-8737D01*
X100563Y-8259D01*
X99938Y-8000D01*
D02*
G37*
G36*
X84438Y18000D02*
X83762D01*
X83137Y17741D01*
X82659Y17263D01*
X82400Y16638D01*
Y16042D01*
X82079Y15721D01*
X81858Y15390D01*
X81780Y15000D01*
Y-11294D01*
X81858Y-11684D01*
X82079Y-12015D01*
X84565Y-14501D01*
X84896Y-14721D01*
X85286Y-14799D01*
X106384D01*
Y-15461D01*
X115258D01*
Y-14799D01*
X120163D01*
Y-15461D01*
X129037D01*
Y-12098D01*
X120163D01*
Y-12760D01*
X115258D01*
Y-12098D01*
X106384D01*
Y-12760D01*
X85708D01*
X83820Y-10871D01*
Y14578D01*
X83842Y14600D01*
X84438D01*
X85063Y14859D01*
X85541Y15337D01*
X85800Y15962D01*
Y16638D01*
X85541Y17263D01*
X85063Y17741D01*
X84438Y18000D01*
D02*
G37*
G36*
X34038Y37600D02*
X33362D01*
X32737Y37341D01*
X32259Y36863D01*
X32000Y36238D01*
Y35562D01*
X32259Y34937D01*
X32680Y34515D01*
Y-14092D01*
X31292Y-15480D01*
X27613D01*
X27442Y-14844D01*
X27027Y-14124D01*
X26439Y-13536D01*
X25719Y-13121D01*
X24916Y-12905D01*
X24084D01*
X23281Y-13121D01*
X22561Y-13536D01*
X21973Y-14124D01*
X21558Y-14844D01*
X21342Y-15647D01*
Y-16479D01*
X21558Y-17282D01*
X21973Y-18002D01*
X22561Y-18590D01*
X23281Y-19005D01*
X24084Y-19220D01*
X24916D01*
X25719Y-19005D01*
X26439Y-18590D01*
X27027Y-18002D01*
X27305Y-17520D01*
X31714D01*
X32104Y-17442D01*
X32435Y-17221D01*
X34421Y-15235D01*
X34642Y-14904D01*
X34720Y-14514D01*
Y34515D01*
X35141Y34937D01*
X35400Y35562D01*
Y36238D01*
X35141Y36863D01*
X34663Y37341D01*
X34038Y37600D01*
D02*
G37*
G36*
X135538Y-15900D02*
X134862D01*
X134237Y-16159D01*
X133759Y-16637D01*
X133758Y-16639D01*
X129037D01*
Y-16035D01*
X120163D01*
Y-16697D01*
X115258D01*
Y-16035D01*
X106384D01*
Y-19398D01*
X115258D01*
Y-18736D01*
X120163D01*
Y-19398D01*
X129037D01*
Y-18678D01*
X133874D01*
X134237Y-19041D01*
X134862Y-19300D01*
X135538D01*
X136163Y-19041D01*
X136641Y-18563D01*
X136900Y-17938D01*
Y-17262D01*
X136641Y-16637D01*
X136163Y-16159D01*
X135538Y-15900D01*
D02*
G37*
G36*
X52723Y-16168D02*
Y-17842D01*
X54398D01*
X54088Y-17096D01*
X53470Y-16477D01*
X52723Y-16168D01*
D02*
G37*
G36*
X51723D02*
X50977Y-16477D01*
X50358Y-17096D01*
X50049Y-17842D01*
X51723D01*
Y-16168D01*
D02*
G37*
G36*
X-69584Y-12905D02*
X-70416D01*
X-71219Y-13121D01*
X-71939Y-13536D01*
X-72527Y-14124D01*
X-72942Y-14844D01*
X-73158Y-15647D01*
Y-16479D01*
X-72942Y-17282D01*
X-72527Y-18002D01*
X-71939Y-18590D01*
X-71219Y-19005D01*
X-70416Y-19220D01*
X-69584D01*
X-68781Y-19005D01*
X-68061Y-18590D01*
X-67473Y-18002D01*
X-67058Y-17282D01*
X-66843Y-16479D01*
Y-15647D01*
X-67058Y-14844D01*
X-67473Y-14124D01*
X-68061Y-13536D01*
X-68781Y-13121D01*
X-69584Y-12905D01*
D02*
G37*
G36*
X54398Y-18843D02*
X52723D01*
Y-20517D01*
X53470Y-20208D01*
X54088Y-19589D01*
X54398Y-18843D01*
D02*
G37*
G36*
X51723D02*
X50049D01*
X50358Y-19589D01*
X50977Y-20208D01*
X51723Y-20517D01*
Y-18843D01*
D02*
G37*
G36*
X129037Y-19972D02*
X120163D01*
Y-20634D01*
X115258D01*
Y-19972D01*
X106384D01*
Y-23335D01*
X115258D01*
Y-22673D01*
X120163D01*
Y-23335D01*
X129037D01*
Y-22796D01*
X134431D01*
X134459Y-22863D01*
X134937Y-23341D01*
X135562Y-23600D01*
X136238D01*
X136863Y-23341D01*
X137341Y-22863D01*
X137600Y-22238D01*
Y-21562D01*
X137341Y-20937D01*
X136863Y-20459D01*
X136238Y-20200D01*
X135562D01*
X134937Y-20459D01*
X134639Y-20757D01*
X129037D01*
Y-19972D01*
D02*
G37*
G36*
X139611Y-23890D02*
X138934D01*
X138310Y-24149D01*
X137888Y-24571D01*
X129037D01*
Y-23910D01*
X120163D01*
Y-24571D01*
X115258D01*
Y-23910D01*
X106384D01*
Y-27272D01*
X115258D01*
Y-26610D01*
X120163D01*
Y-27272D01*
X129037D01*
Y-26610D01*
X137888D01*
X138310Y-27032D01*
X138934Y-27291D01*
X139611D01*
X140235Y-27032D01*
X140714Y-26553D01*
X140972Y-25929D01*
Y-25252D01*
X140714Y-24628D01*
X140235Y-24149D01*
X139611Y-23890D01*
D02*
G37*
G36*
X24916Y-20779D02*
X24084D01*
X23281Y-20995D01*
X22561Y-21410D01*
X21973Y-21998D01*
X21558Y-22718D01*
X21342Y-23521D01*
Y-24353D01*
X21558Y-25156D01*
X21973Y-25876D01*
X22561Y-26464D01*
X23281Y-26879D01*
X24084Y-27095D01*
X24916D01*
X25719Y-26879D01*
X26439Y-26464D01*
X27027Y-25876D01*
X27442Y-25156D01*
X27657Y-24353D01*
Y-23521D01*
X27442Y-22718D01*
X27027Y-21998D01*
X26439Y-21410D01*
X25719Y-20995D01*
X24916Y-20779D01*
D02*
G37*
G36*
X-69584D02*
X-70416D01*
X-71219Y-20995D01*
X-71939Y-21410D01*
X-72527Y-21998D01*
X-72942Y-22718D01*
X-73158Y-23521D01*
Y-24353D01*
X-72942Y-25156D01*
X-72527Y-25876D01*
X-71939Y-26464D01*
X-71219Y-26879D01*
X-70416Y-27095D01*
X-69584D01*
X-68781Y-26879D01*
X-68061Y-26464D01*
X-67473Y-25876D01*
X-67058Y-25156D01*
X-66843Y-24353D01*
Y-23521D01*
X-67058Y-22718D01*
X-67473Y-21998D01*
X-68061Y-21410D01*
X-68781Y-20995D01*
X-69584Y-20779D01*
D02*
G37*
G36*
X24916Y-28654D02*
X24084D01*
X23281Y-28869D01*
X22561Y-29284D01*
X21973Y-29872D01*
X21558Y-30592D01*
X21342Y-31395D01*
Y-32227D01*
X21558Y-33030D01*
X21973Y-33750D01*
X22561Y-34338D01*
X23281Y-34753D01*
X24084Y-34969D01*
X24916D01*
X25719Y-34753D01*
X26439Y-34338D01*
X27027Y-33750D01*
X27442Y-33030D01*
X27657Y-32227D01*
Y-31395D01*
X27442Y-30592D01*
X27027Y-29872D01*
X26439Y-29284D01*
X25719Y-28869D01*
X24916Y-28654D01*
D02*
G37*
G36*
X-69584D02*
X-70416D01*
X-71219Y-28869D01*
X-71939Y-29284D01*
X-72527Y-29872D01*
X-72942Y-30592D01*
X-73158Y-31395D01*
Y-32227D01*
X-72942Y-33030D01*
X-72527Y-33750D01*
X-71939Y-34338D01*
X-71219Y-34753D01*
X-70416Y-34969D01*
X-69584D01*
X-68781Y-34753D01*
X-68061Y-34338D01*
X-67473Y-33750D01*
X-67058Y-33030D01*
X-66843Y-32227D01*
Y-31395D01*
X-67058Y-30592D01*
X-67473Y-29872D01*
X-68061Y-29284D01*
X-68781Y-28869D01*
X-69584Y-28654D01*
D02*
G37*
G36*
X-3005Y44900D02*
X-3795D01*
X-4558Y44696D01*
X-5242Y44301D01*
X-5801Y43742D01*
X-6196Y43058D01*
X-6400Y42295D01*
Y41505D01*
X-6196Y40742D01*
X-5801Y40058D01*
X-5539Y39797D01*
Y22403D01*
X-5901Y22042D01*
X-6296Y21358D01*
X-6500Y20595D01*
Y19805D01*
X-6296Y19042D01*
X-5901Y18358D01*
X-5539Y17997D01*
Y2224D01*
X-5384Y1443D01*
X-4942Y782D01*
X-4356Y196D01*
X-3695Y-246D01*
X-2914Y-401D01*
X2231D01*
Y-831D01*
X7169D01*
Y-401D01*
X11032D01*
Y-831D01*
X11461D01*
Y-37400D01*
X11616Y-38180D01*
X12058Y-38842D01*
X14343Y-41127D01*
X14343Y-41127D01*
X15005Y-41569D01*
X15785Y-41724D01*
X22074D01*
X22561Y-42212D01*
X23281Y-42627D01*
X24084Y-42843D01*
X24916D01*
X25719Y-42627D01*
X26439Y-42212D01*
X27027Y-41624D01*
X27442Y-40904D01*
X27657Y-40101D01*
Y-39269D01*
X27442Y-38466D01*
X27027Y-37746D01*
X26439Y-37158D01*
X25719Y-36743D01*
X24916Y-36528D01*
X24084D01*
X23281Y-36743D01*
X22561Y-37158D01*
X22074Y-37646D01*
X16630D01*
X15539Y-36555D01*
Y-831D01*
X15969D01*
Y3894D01*
X15969Y4106D01*
X16350Y4394D01*
X16468D01*
Y6862D01*
X13500D01*
Y7362D01*
X13000D01*
Y10331D01*
X10531D01*
Y8382D01*
X7668D01*
Y10331D01*
X5920D01*
Y23541D01*
X6146Y23635D01*
X6765Y24254D01*
X7074Y25000D01*
X2726D01*
X3035Y24254D01*
X3654Y23635D01*
X3880Y23541D01*
Y10331D01*
X1732D01*
Y7862D01*
X4700D01*
Y6862D01*
X1732D01*
Y4394D01*
X1732D01*
X1944Y4169D01*
X1949Y3749D01*
X1878Y3677D01*
X-1461D01*
Y17997D01*
X-1099Y18358D01*
X-704Y19042D01*
X-500Y19805D01*
Y20595D01*
X-704Y21358D01*
X-1099Y22042D01*
X-1461Y22403D01*
Y39597D01*
X-999Y40058D01*
X-604Y40742D01*
X-400Y41505D01*
Y42295D01*
X-604Y43058D01*
X-999Y43742D01*
X-1558Y44301D01*
X-2242Y44696D01*
X-3005Y44900D01*
D02*
G37*
G36*
X-69584Y-36528D02*
X-70416D01*
X-71219Y-36743D01*
X-71939Y-37158D01*
X-72527Y-37746D01*
X-72942Y-38466D01*
X-73158Y-39269D01*
Y-40101D01*
X-72942Y-40904D01*
X-72527Y-41624D01*
X-71939Y-42212D01*
X-71219Y-42627D01*
X-70416Y-42843D01*
X-69584D01*
X-68781Y-42627D01*
X-68061Y-42212D01*
X-67473Y-41624D01*
X-67058Y-40904D01*
X-66843Y-40101D01*
Y-39269D01*
X-67058Y-38466D01*
X-67473Y-37746D01*
X-68061Y-37158D01*
X-68781Y-36743D01*
X-69584Y-36528D01*
D02*
G37*
G36*
X-129200Y-40411D02*
Y-43400D01*
X-126210D01*
X-126438Y-42549D01*
X-126899Y-41751D01*
X-127551Y-41099D01*
X-128349Y-40639D01*
X-129200Y-40411D01*
D02*
G37*
G36*
X-130200D02*
X-131051Y-40639D01*
X-131849Y-41099D01*
X-132501Y-41751D01*
X-132961Y-42549D01*
X-133189Y-43400D01*
X-130200D01*
Y-40411D01*
D02*
G37*
G36*
X25000Y-43907D02*
Y-47059D01*
X28152D01*
X27908Y-46147D01*
X27427Y-45313D01*
X26746Y-44632D01*
X25912Y-44151D01*
X25000Y-43907D01*
D02*
G37*
G36*
X24000Y-43907D02*
X23088Y-44151D01*
X22254Y-44632D01*
X21573Y-45313D01*
X21092Y-46147D01*
X20847Y-47059D01*
X24000D01*
Y-43907D01*
D02*
G37*
G36*
X-126210Y-44400D02*
X-129200D01*
Y-47390D01*
X-128349Y-47161D01*
X-127551Y-46701D01*
X-126899Y-46049D01*
X-126438Y-45251D01*
X-126210Y-44400D01*
D02*
G37*
G36*
X-130200D02*
X-133189D01*
X-132961Y-45251D01*
X-132501Y-46049D01*
X-131849Y-46701D01*
X-131051Y-47161D01*
X-130200Y-47390D01*
Y-44400D01*
D02*
G37*
G36*
X-69584Y-44402D02*
X-70416D01*
X-71219Y-44617D01*
X-71939Y-45032D01*
X-72527Y-45620D01*
X-72942Y-46340D01*
X-73158Y-47143D01*
Y-47975D01*
X-72942Y-48778D01*
X-72527Y-49498D01*
X-71939Y-50086D01*
X-71219Y-50501D01*
X-70416Y-50717D01*
X-69584D01*
X-68781Y-50501D01*
X-68061Y-50086D01*
X-67473Y-49498D01*
X-67058Y-48778D01*
X-66843Y-47975D01*
Y-47143D01*
X-67058Y-46340D01*
X-67473Y-45620D01*
X-68061Y-45032D01*
X-68781Y-44617D01*
X-69584Y-44402D01*
D02*
G37*
G36*
X24000Y-48059D02*
X20847D01*
X21092Y-48971D01*
X21573Y-49805D01*
X22254Y-50486D01*
X23088Y-50967D01*
X24000Y-51212D01*
Y-48059D01*
D02*
G37*
G36*
X28152D02*
X25000D01*
Y-51212D01*
X25912Y-50967D01*
X26746Y-50486D01*
X27427Y-49805D01*
X27908Y-48971D01*
X28152Y-48059D01*
D02*
G37*
G36*
X-100862Y4100D02*
X-101538D01*
X-102163Y3841D01*
X-102641Y3363D01*
X-102900Y2738D01*
Y2062D01*
X-102882Y2019D01*
Y-34907D01*
X-103042Y-34999D01*
X-103601Y-35558D01*
X-103996Y-36242D01*
X-104200Y-37005D01*
Y-37795D01*
X-103996Y-38558D01*
X-103601Y-39242D01*
X-103042Y-39801D01*
X-102358Y-40196D01*
X-101595Y-40400D01*
X-100805D01*
X-100042Y-40196D01*
X-99358Y-39801D01*
X-98799Y-39242D01*
X-98404Y-38558D01*
X-98200Y-37795D01*
Y-37005D01*
X-98404Y-36242D01*
X-98799Y-35558D01*
X-99358Y-34999D01*
X-99518Y-34907D01*
Y-33927D01*
X-99018Y-33793D01*
X-98701Y-34342D01*
X-98142Y-34901D01*
X-97458Y-35296D01*
X-97320Y-35333D01*
Y-63100D01*
X-97242Y-63490D01*
X-97198Y-63556D01*
X-97200Y-63562D01*
Y-64238D01*
X-96941Y-64863D01*
X-96463Y-65341D01*
X-95838Y-65600D01*
X-95162D01*
X-94537Y-65341D01*
X-94059Y-64863D01*
X-93800Y-64238D01*
Y-63562D01*
X-94059Y-62937D01*
X-94537Y-62459D01*
X-95162Y-62200D01*
X-95280D01*
Y-35333D01*
X-95142Y-35296D01*
X-94458Y-34901D01*
X-93899Y-34342D01*
X-93504Y-33658D01*
X-93300Y-32895D01*
Y-32105D01*
X-93504Y-31342D01*
X-93899Y-30658D01*
X-94458Y-30099D01*
X-95142Y-29704D01*
X-95905Y-29500D01*
X-96695D01*
X-97458Y-29704D01*
X-98142Y-30099D01*
X-98701Y-30658D01*
X-99018Y-31207D01*
X-99518Y-31073D01*
Y2019D01*
X-99500Y2062D01*
Y2738D01*
X-99759Y3363D01*
X-100237Y3841D01*
X-100862Y4100D01*
D02*
G37*
%LPD*%
D13*
X82800Y-11294D02*
Y15000D01*
Y-11294D02*
X85286Y-13780D01*
X82800Y15000D02*
X84100Y16300D01*
X85286Y-13780D02*
X110820D01*
X33700Y-14514D02*
Y35900D01*
X110820Y-17717D02*
X124600D01*
X124658Y-17658D02*
X135142D01*
X124600Y-17717D02*
X124658Y-17658D01*
X135142D02*
X135200Y-17600D01*
X110820Y-25591D02*
X124600D01*
Y-21654D02*
X124723Y-21777D01*
X110820Y-21654D02*
X124600D01*
X124723Y-21777D02*
X135777D01*
X135900Y-21900D01*
X124600Y-25591D02*
X139272D01*
X4700Y7362D02*
X13500D01*
X31714Y-16500D02*
X33700Y-14514D01*
X4700Y7362D02*
X4900Y7562D01*
Y25500D01*
X-73725Y-4000D02*
X-70040Y-315D01*
X-70000D01*
X-94500Y-4000D02*
X-73725D01*
X24937Y-16500D02*
X31714D01*
X24500Y-16063D02*
X24937Y-16500D01*
X124765Y21489D02*
X132309D01*
X124600Y21654D02*
X124765Y21489D01*
X132309D02*
X132474Y21325D01*
X-96300Y-63100D02*
X-95500Y-63900D01*
X-96300Y-63100D02*
Y-32500D01*
X110820Y17717D02*
X124600D01*
X110820Y21654D02*
X124600D01*
X110820Y25591D02*
X124600D01*
X110820Y-9843D02*
X124600D01*
X110820Y-13780D02*
X124600D01*
D14*
X110820Y25591D02*
D03*
Y21654D02*
D03*
Y17717D02*
D03*
Y13780D02*
D03*
Y9843D02*
D03*
Y5906D02*
D03*
Y1969D02*
D03*
Y-1969D02*
D03*
Y-5906D02*
D03*
Y-9843D02*
D03*
Y-13780D02*
D03*
Y-17717D02*
D03*
Y-21654D02*
D03*
Y-25591D02*
D03*
X124600Y25591D02*
D03*
Y21654D02*
D03*
Y17717D02*
D03*
Y13780D02*
D03*
Y9843D02*
D03*
Y5906D02*
D03*
Y1969D02*
D03*
Y-1969D02*
D03*
Y-5906D02*
D03*
Y-9843D02*
D03*
Y-13780D02*
D03*
Y-17717D02*
D03*
Y-21654D02*
D03*
Y-25591D02*
D03*
D15*
X13500Y7362D02*
D03*
Y1638D02*
D03*
X4700Y7362D02*
D03*
Y1638D02*
D03*
D26*
X110820Y9843D02*
X124600D01*
X96347Y-5953D02*
X110773D01*
X110820Y-5906D01*
X96300Y-6000D02*
X96347Y-5953D01*
X110820Y-5906D02*
X124600D01*
X86900Y-2700D02*
X99442Y9843D01*
X110820D01*
X99600Y-9700D02*
X99671Y-9771D01*
X110749D02*
X110820Y-9843D01*
X99671Y-9771D02*
X110749D01*
X-115950Y47150D02*
X-115900Y47200D01*
X-115950Y31150D02*
Y47150D01*
X-116000Y31100D02*
X-115950Y31150D01*
D27*
X91700Y7900D02*
X97579Y13780D01*
X124600D01*
X-101200Y-37400D02*
Y2400D01*
X102973Y17568D02*
X103122Y17717D01*
X110820D01*
X102946Y17568D02*
X102973D01*
D28*
X-3500Y41800D02*
X-3400Y41900D01*
X-3500Y20200D02*
Y41800D01*
X-2914Y1638D02*
X4700D01*
X-3500Y2224D02*
X-2914Y1638D01*
X-3500Y2224D02*
Y20200D01*
X15785Y-39685D02*
X24500D01*
X13500Y-37400D02*
X15785Y-39685D01*
X13500Y-37400D02*
Y1638D01*
X4700D02*
X13500D01*
D29*
X-156000Y0D02*
D03*
X156000D02*
D03*
D30*
X-74458Y119842D02*
D03*
X-60316Y105700D02*
D03*
X-81529Y112771D02*
D03*
X-67387Y98629D02*
D03*
X-88600Y105700D02*
D03*
X-74458Y91558D02*
D03*
X-95671Y98629D02*
D03*
X-81529Y84487D02*
D03*
X-102742Y91558D02*
D03*
X-88600Y77416D02*
D03*
X-109813Y84487D02*
D03*
X-95671Y70345D02*
D03*
X-116884Y77416D02*
D03*
X-102742Y63274D02*
D03*
X-123955Y70345D02*
D03*
D31*
X-109813Y56203D02*
D03*
D32*
X24500Y-315D02*
D03*
Y-47559D02*
D03*
Y-39685D02*
D03*
Y-8189D02*
D03*
Y-16063D02*
D03*
Y-23937D02*
D03*
Y-31811D02*
D03*
X-70000Y-39685D02*
D03*
Y-47559D02*
D03*
Y-31811D02*
D03*
Y-315D02*
D03*
Y-8189D02*
D03*
Y-16063D02*
D03*
Y-23937D02*
D03*
D33*
X24500Y7559D02*
D03*
X-70000D02*
D03*
D34*
X-19700Y-146000D02*
D03*
Y146000D02*
D03*
D35*
X96300Y-6000D02*
D03*
X86900Y-2700D02*
D03*
X99600Y-9700D02*
D03*
X-115900Y47200D02*
D03*
X-116000Y31100D02*
D03*
X-101200Y2400D02*
D03*
X52223Y-18342D02*
D03*
X102946Y17568D02*
D03*
X33700Y35900D02*
D03*
X-95500Y-63900D02*
D03*
X135200Y-17600D02*
D03*
X135900Y-21900D02*
D03*
X139272Y-25591D02*
D03*
X4900Y25500D02*
D03*
X84100Y16300D02*
D03*
X132474Y21325D02*
D03*
D36*
X91700Y7900D02*
D03*
X-101200Y-37400D02*
D03*
X-129700Y-43900D02*
D03*
X-3400Y41900D02*
D03*
X-111000Y13200D02*
D03*
X-3500Y20200D02*
D03*
X-94500Y-4000D02*
D03*
X-96300Y-32500D02*
D03*
M02*
