G04*
G04 #@! TF.GenerationSoftware,Altium Limited,Altium Designer,21.4.1 (30)*
G04*
G04 Layer_Color=8388736*
%FSLAX25Y25*%
%MOIN*%
G70*
G04*
G04 #@! TF.SameCoordinates,7249496F-D708-40B6-935A-EC4B0A0C4DBB*
G04*
G04*
G04 #@! TF.FilePolarity,Negative*
G04*
G01*
G75*
%ADD13R,0.06306X0.03392*%
%ADD14C,0.18117*%
%ADD15C,0.14173*%
%ADD16C,0.12992*%
%ADD17C,0.07093*%
%ADD18R,0.07093X0.07093*%
%ADD19R,0.05912X0.05912*%
%ADD20C,0.06896*%
%ADD21P,0.10031X4X390.0*%
%ADD22R,0.07093X0.07093*%
%ADD23C,0.05400*%
%ADD24C,0.02800*%
D13*
X8706Y-137100D02*
D03*
Y-142100D02*
D03*
Y-147100D02*
D03*
Y-152100D02*
D03*
X-19443D02*
D03*
Y-147100D02*
D03*
Y-142100D02*
D03*
Y-137100D02*
D03*
D14*
X-153543Y0D02*
D03*
X153543D02*
D03*
D15*
X-25548Y118D02*
D03*
X-84564D02*
D03*
D16*
X-25548Y-106890D02*
D03*
X-84564D02*
D03*
D17*
X-139900Y28200D02*
D03*
X-43359Y-153812D02*
D03*
X-33700Y-156400D02*
D03*
X54500Y-78900D02*
D03*
X-136100Y-60500D02*
D03*
D18*
X-149900Y28200D02*
D03*
X44500Y-78900D02*
D03*
D19*
X46000Y-50000D02*
D03*
D20*
Y-36220D02*
D03*
Y-22441D02*
D03*
Y-8661D02*
D03*
Y5118D02*
D03*
Y18898D02*
D03*
Y32677D02*
D03*
Y46457D02*
D03*
Y60236D02*
D03*
Y74016D02*
D03*
D21*
X-53018Y-151224D02*
D03*
D22*
X-136100Y-70500D02*
D03*
D23*
X64000Y-14900D02*
D03*
X110000Y5400D02*
D03*
X-65200Y-107200D02*
D03*
X-24300Y-80400D02*
D03*
Y-29400D02*
D03*
X-8400Y34500D02*
D03*
X-3600Y50100D02*
D03*
X-8800Y6600D02*
D03*
X-47900Y82200D02*
D03*
X-69500Y19800D02*
D03*
X-72650Y70600D02*
D03*
X-62600Y4500D02*
D03*
X-37300Y49000D02*
D03*
X-35500Y41300D02*
D03*
X-110000Y-67000D02*
D03*
X-109600Y-53400D02*
D03*
X-101100Y-13300D02*
D03*
X-63350Y38900D02*
D03*
X59300Y-126500D02*
D03*
X82300Y-71300D02*
D03*
X107100Y-41100D02*
D03*
X-21200Y41400D02*
D03*
X-14800Y49100D02*
D03*
X-6000Y69400D02*
D03*
X-28500Y75600D02*
D03*
X-91500Y70600D02*
D03*
X-41341Y25559D02*
D03*
X106800Y-107200D02*
D03*
X107100Y-99600D02*
D03*
X77700Y-98600D02*
D03*
X39400Y-126800D02*
D03*
Y-110300D02*
D03*
X72200Y-133500D02*
D03*
X88200Y-107300D02*
D03*
D24*
X72500Y-20500D02*
D03*
X-12800Y-151900D02*
D03*
X-12700Y-12300D02*
D03*
X-6900Y-11000D02*
D03*
X-47700Y70500D02*
D03*
X-52400Y50200D02*
D03*
X-68000Y89600D02*
D03*
X65300Y-75500D02*
D03*
X65600Y-66300D02*
D03*
X1000Y96200D02*
D03*
X900Y81800D02*
D03*
X90400Y-87700D02*
D03*
X97000D02*
D03*
X91600Y-95400D02*
D03*
X-4500Y-153200D02*
D03*
M02*
