G04*
G04 #@! TF.GenerationSoftware,Altium Limited,Altium Designer,21.4.1 (30)*
G04*
G04 Layer_Physical_Order=2*
G04 Layer_Color=16711680*
%FSLAX25Y25*%
%MOIN*%
G70*
G04*
G04 #@! TF.SameCoordinates,7249496F-D708-40B6-935A-EC4B0A0C4DBB*
G04*
G04*
G04 #@! TF.FilePolarity,Positive*
G04*
G01*
G75*
%ADD25C,0.01000*%
%ADD26C,0.02400*%
%ADD27C,0.02300*%
%ADD28C,0.01500*%
%ADD29C,0.05000*%
%ADD31C,0.17717*%
%ADD32C,0.12992*%
%ADD33C,0.11811*%
%ADD34C,0.06693*%
%ADD35R,0.06693X0.06693*%
%ADD37C,0.06496*%
%ADD38P,0.09465X4X390.0*%
%ADD39R,0.06693X0.06693*%
%ADD40C,0.05000*%
%ADD41C,0.02400*%
%ADD42R,0.03740X0.02205*%
%ADD43R,0.07874X0.02362*%
%ADD44R,0.02756X0.03543*%
%ADD45R,0.03937X0.03937*%
%ADD46R,0.02165X0.05906*%
%ADD47R,0.03937X0.03150*%
%ADD48R,0.02205X0.03740*%
%ADD49R,0.03937X0.03937*%
%ADD50R,0.08661X0.02362*%
%ADD51R,0.03543X0.02756*%
%ADD52C,0.02500*%
%ADD53C,0.03000*%
%ADD54C,0.00600*%
%ADD55C,0.02000*%
%ADD56R,0.06496X0.06496*%
D25*
X63978Y-14878D02*
Y-8722D01*
Y-14878D02*
X64000Y-14900D01*
X63956Y-8700D02*
X63978Y-8722D01*
X63600Y-23500D02*
X78766D01*
X37500Y-14400D02*
X54500D01*
X63600Y-23500D01*
X87106Y-9144D02*
X87288Y-8961D01*
X79500Y-9144D02*
X87106D01*
X72428Y-9172D02*
X79472D01*
X72400Y-9200D02*
X72428Y-9172D01*
X79472D02*
X79500Y-9144D01*
X88368Y1600D02*
X91600Y-1632D01*
Y-15600D02*
Y-1632D01*
X87600Y1600D02*
X88368D01*
X90561Y-16639D02*
X91600Y-15600D01*
X87288Y-16639D02*
X90561D01*
X109970Y5370D02*
X110000Y5400D01*
X95277Y5340D02*
X95307Y5370D01*
X109970D01*
X72500Y-20500D02*
Y-15812D01*
X72400Y-15712D02*
X72500Y-15812D01*
X43800Y-3000D02*
X58650D01*
X63956Y-8306D01*
Y-8700D02*
Y-8306D01*
X-48300Y81800D02*
X-47900Y82200D01*
X-48300Y81000D02*
Y81800D01*
X-51450Y77850D02*
X-48300Y81000D01*
X-51450Y68550D02*
Y77850D01*
X-54600Y65400D02*
X-51450Y68550D01*
X-59172Y65500D02*
X-59072Y65400D01*
X-54600D01*
X72700Y10100D02*
X72900Y10300D01*
X78766Y-23500D02*
X79452Y-22814D01*
Y-15704D01*
X32943Y-9843D02*
X37500Y-14400D01*
X53100Y-17300D02*
X65600Y-29800D01*
X36600Y-17300D02*
X53100D01*
X33079Y-13780D02*
X36600Y-17300D01*
X65600Y-66300D02*
Y-29800D01*
X79452Y-15704D02*
X79500Y-15656D01*
X15890Y-9843D02*
X32943D01*
X2110D02*
X15890D01*
X23084Y17717D02*
X43800Y-3000D01*
X15890Y17717D02*
X23084D01*
X-15714Y-12300D02*
X-12700D01*
X-16300Y-12886D02*
X-15714Y-12300D01*
X-16300Y-17800D02*
Y-12886D01*
X-9794Y-17406D02*
X-9483Y-17717D01*
X-6900Y-11379D02*
Y-11000D01*
X-8000Y-12479D02*
X-6900Y-11379D01*
X-9483Y-17717D02*
X2110D01*
X-9794Y-17794D02*
Y-14351D01*
X-8000Y-12557D01*
Y-12479D01*
X-9794Y-17794D02*
X-9788Y-17800D01*
X84162Y-136362D02*
X84812Y-137012D01*
X84162Y-136362D02*
Y-133400D01*
X84812Y-138400D02*
Y-137012D01*
X-4053Y-21654D02*
X2110D01*
X-6300Y-23900D02*
X-4053Y-21654D01*
X-10244Y-23900D02*
X-6300D01*
X-52400Y50200D02*
Y59500D01*
X-53400Y60500D02*
X-52400Y59500D01*
X-59172Y60500D02*
X-53400D01*
X-47700Y64914D02*
X-47114Y65500D01*
X-45700Y59914D02*
X-45114Y60500D01*
X-38700D01*
X-47114Y65500D02*
X-38700D01*
X-45700Y51300D02*
Y59914D01*
Y51300D02*
X-43300Y48900D01*
X-47700Y49834D02*
Y64914D01*
Y49834D02*
X-46000Y48134D01*
X-59194Y55522D02*
X-59172Y55500D01*
X-75578Y55522D02*
X-59194D01*
X-75600Y62056D02*
Y67070D01*
X-73407Y75500D02*
X-59172D01*
X-76650Y68120D02*
Y72257D01*
X-72650Y70600D02*
X-68000D01*
X-76650Y72257D02*
X-73407Y75500D01*
X-76650Y68120D02*
X-75600Y67070D01*
X-37400Y48900D02*
X-37300Y49000D01*
X-43300Y48900D02*
X-37400D01*
X-36800Y41300D02*
X-35500D01*
X-40756Y45256D02*
X-36800Y41300D01*
X-13000Y51982D02*
Y62744D01*
X-14800Y50182D02*
X-13000Y51982D01*
X-14800Y49100D02*
Y50182D01*
X-16069Y25959D02*
X-15700Y25591D01*
X66476Y-119400D02*
X66683Y-119193D01*
X-117800Y-67112D02*
X-117744Y-67056D01*
X-110056D02*
X-110000Y-67000D01*
X-63350Y38900D02*
X-63272Y38822D01*
X-53778D01*
X57406Y-8661D02*
X57444Y-8700D01*
X46000Y-8661D02*
X57406D01*
X65294Y-81794D02*
Y-75506D01*
X65300Y-75500D01*
X65288Y-81800D02*
X65294Y-81794D01*
X59300Y-126500D02*
X65888D01*
X44500Y-78900D02*
X52100Y-71300D01*
X82300D01*
X15890Y-13780D02*
X33079D01*
X58500Y-103200D02*
X72500D01*
X49387D02*
X58500D01*
Y-82900D01*
X54500Y-78900D02*
X58500Y-82900D01*
X-12844Y96456D02*
X744D01*
X1000Y96200D01*
X-13100Y96712D02*
X-12844Y96456D01*
X838Y81862D02*
X900Y81800D01*
X-5900Y81862D02*
X838D01*
X8300Y81277D02*
Y85214D01*
X-19614Y85800D02*
X7714D01*
X8300Y85214D01*
X68100Y1400D02*
X68494D01*
X72206Y5112D02*
X72209D01*
X68494Y1400D02*
X72206Y5112D01*
X68000Y1300D02*
X68100Y1400D01*
X57100Y1886D02*
X57686Y1300D01*
X57100Y1886D02*
Y4644D01*
X57686Y1300D02*
X68000D01*
X56744Y5000D02*
X57100Y4644D01*
X56626Y5118D02*
X56744Y5000D01*
X100800Y-12800D02*
X107100Y-19100D01*
X97131Y-12800D02*
X100800D01*
X107100Y-41100D02*
Y-19100D01*
X-53778Y38822D02*
X-53700Y38744D01*
X-29944Y82256D02*
X-20200D01*
X-31700Y80500D02*
X-29944Y82256D01*
X-38700Y80500D02*
X-31700D01*
X-20200Y82256D02*
Y85214D01*
X-19614Y85800D01*
X-9000Y81700D02*
X-6062D01*
X-5900Y81862D01*
X-9556Y82256D02*
X-9000Y81700D01*
X-13100Y82256D02*
X-9556D01*
X-13200Y90300D02*
X-13100Y90200D01*
X-21200Y55100D02*
X-20200Y56100D01*
Y62744D01*
X-21200Y41400D02*
Y55100D01*
X-46000Y45256D02*
X-40756D01*
X-46000D02*
Y48134D01*
X32100Y46556D02*
X32150Y46506D01*
X45950D02*
X46000Y46457D01*
X-6072Y69328D02*
X-6000Y69400D01*
X-13000Y69256D02*
X-12928Y69328D01*
X-6072D01*
X-28600Y75500D02*
X-28500Y75600D01*
X-38700Y75500D02*
X-28600D01*
X-13100Y69356D02*
X-13000Y69256D01*
X-13100Y69356D02*
Y75744D01*
X-20200Y69256D02*
Y75744D01*
X-53700Y38744D02*
X-46000D01*
X-59172Y46472D02*
X-57956Y45256D01*
X-53700D01*
X-59172Y46472D02*
Y55500D01*
X-91500Y56438D02*
Y70600D01*
Y56438D02*
X-91000Y55938D01*
X-68000Y70600D02*
X-67900Y70500D01*
X-59172D01*
X-75600Y55544D02*
X-75578Y55522D01*
X-139900Y56100D02*
X-139738Y55938D01*
X-27500Y25959D02*
X-27100Y25559D01*
X-83406Y62056D02*
X-75600D01*
X-83800Y61662D02*
X-83406Y62056D01*
X90450Y-87650D02*
Y-81950D01*
X90400Y-87700D02*
X90450Y-87650D01*
Y-81950D02*
X90500Y-81900D01*
X87700Y-91100D02*
Y-87900D01*
X84583Y-84783D02*
X87700Y-87900D01*
Y-91100D02*
X88791Y-92191D01*
X84583Y-84783D02*
Y-82558D01*
X83924Y-81900D02*
X84583Y-82558D01*
X97000Y-87700D02*
X97006Y-87694D01*
Y-81906D01*
X97012Y-81900D01*
X88791Y-92191D02*
X93441D01*
X98209Y-96960D01*
X104814Y-81900D02*
X105400Y-81314D01*
X97012Y-81900D02*
X104814D01*
X105400Y-81314D02*
Y-69686D01*
X96762Y-69100D02*
X104814D01*
X105400Y-69686D01*
X74800Y-75300D02*
X90588D01*
X90688Y-75400D01*
X71800Y-81800D02*
Y-78300D01*
X90688Y-75400D02*
Y-69450D01*
X71800Y-78300D02*
X74800Y-75300D01*
X71800Y-85000D02*
Y-81800D01*
X91300Y-100700D02*
X91600Y-100400D01*
Y-95400D01*
X112514Y-93900D02*
X113100Y-94486D01*
X99563Y-93900D02*
X112514D01*
X113100Y-119153D02*
Y-94486D01*
X105340Y-119739D02*
X112514D01*
X113100Y-119153D01*
X102260Y-104440D02*
X107100Y-99600D01*
X98977Y-104440D02*
X102260D01*
X106214Y-112300D02*
X106800Y-111714D01*
X101600Y-112061D02*
X101839Y-112300D01*
X106214D01*
X106800Y-111714D02*
Y-107200D01*
X98977Y-94486D02*
X99563Y-93900D01*
X98977Y-96960D02*
Y-94486D01*
X85900Y-100700D02*
X91300D01*
X98209Y-96960D02*
X98977D01*
X77600Y-98500D02*
Y-90662D01*
X77500Y-90562D02*
X77600Y-90662D01*
Y-98500D02*
X77700Y-98600D01*
X72500Y-103200D02*
X83400D01*
X85900Y-100700D01*
X-4500Y-153200D02*
X-4300Y-153400D01*
X12800D01*
X39400Y-126800D01*
Y-110300D02*
Y-110100D01*
X39539Y-109961D01*
Y-100840D01*
X91378Y-80628D02*
X92365D01*
X90500Y-81900D02*
Y-81506D01*
X97200Y-75794D02*
Y-75400D01*
X92365Y-80628D02*
X97200Y-75794D01*
X90500Y-81506D02*
X91378Y-80628D01*
X77500Y-90562D02*
Y-86200D01*
X78200Y-85500D01*
Y-81900D01*
X72400Y-123286D02*
Y-119600D01*
X92800Y-113300D02*
X98977Y-107123D01*
X92800Y-119500D02*
Y-113300D01*
X98977Y-107123D02*
Y-104440D01*
X84356Y-119500D02*
X92800D01*
X83814Y-123228D02*
X84400Y-123814D01*
X72400Y-126500D02*
Y-123286D01*
X84400Y-126488D02*
Y-123814D01*
Y-126488D02*
X84412Y-126500D01*
X72457Y-123228D02*
X83814D01*
X78300Y-138400D02*
Y-133400D01*
X78438D01*
X72300D02*
X78300D01*
X72200Y-133500D02*
X72300Y-133400D01*
X72500Y-111822D02*
Y-103200D01*
X47068Y-100880D02*
X49387Y-103200D01*
X72400Y-123286D02*
X72457Y-123228D01*
X72200Y-119400D02*
X72400Y-119600D01*
X78438Y-133400D02*
Y-129738D01*
X77900Y-129200D02*
X78438Y-129738D01*
X77900Y-129200D02*
Y-125700D01*
X84812Y-140194D02*
Y-139800D01*
X66683Y-119193D02*
Y-116517D01*
X67500Y-115700D01*
Y-111822D01*
X92800Y-119500D02*
X97621D01*
X97860Y-119739D01*
X71800Y-85000D02*
X72500Y-85700D01*
Y-90562D02*
Y-85700D01*
X86832Y1600D02*
X87600D01*
X80400Y-1262D02*
X83970D01*
X86832Y1600D01*
X72600Y-1400D02*
X80262D01*
X80400Y-1262D01*
X97131Y-12800D02*
Y-8031D01*
X95277Y-6177D02*
X97131Y-8031D01*
X95277Y-6177D02*
Y-2140D01*
X32441Y-22441D02*
X46000D01*
X15890Y-17717D02*
X27716D01*
X32441Y-22441D01*
X37020Y-36220D02*
X46000D01*
X22454Y-21654D02*
X37020Y-36220D01*
X15890Y-21654D02*
X22454D01*
X2110Y-13780D02*
X15890D01*
X2110Y-17717D02*
X15890D01*
X2110Y-21654D02*
X15890D01*
X-69300Y80500D02*
X-59172D01*
X-70056Y79744D02*
X-69300Y80500D01*
X-75300Y79744D02*
X-70056D01*
X-82900D02*
X-75300D01*
X-82900Y79744D02*
X-82900Y79744D01*
X90688Y-69450D02*
X91038Y-69100D01*
X46300Y-100880D02*
X47068D01*
X39559Y-93380D02*
X46280D01*
X39539Y-93360D02*
X39559Y-93380D01*
X46280D02*
X46300Y-93400D01*
X72200Y-119400D02*
X72500Y-119100D01*
Y-111822D01*
D26*
X-65200Y-107200D02*
Y-106900D01*
X-81600Y-90500D02*
X-65200Y-106900D01*
X-123056Y-90500D02*
X-81600D01*
X-124462Y-89094D02*
X-123056Y-90500D01*
X-124462Y-89094D02*
Y-81800D01*
X-147300Y-70800D02*
X-136300Y-81800D01*
X-124462D01*
X-147700Y-66162D02*
X-147300Y-66562D01*
Y-70800D02*
Y-66562D01*
X-118738Y-71238D02*
X-117800Y-70300D01*
Y-67112D01*
X-118738Y-74500D02*
Y-71238D01*
Y-81800D02*
Y-74500D01*
X-124462Y-81800D02*
Y-74500D01*
X-124500Y-74462D02*
X-124462Y-74500D01*
X-124500Y-74462D02*
Y-67062D01*
D27*
X72700Y10100D02*
X93930D01*
X63256D02*
X72700D01*
X-15700Y25591D02*
X2110D01*
X-20550Y15150D02*
X-17984Y17717D01*
X-124750Y15150D02*
X-20550D01*
X-136100Y3800D02*
X-124750Y15150D01*
X-53018Y-151224D02*
Y-95481D01*
X-87900Y-60600D02*
X-53018Y-95481D01*
X-117800Y-60600D02*
X-87900D01*
X50900Y-133300D02*
X61500Y-143900D01*
X81106D02*
X84812Y-140194D01*
X61500Y-143900D02*
X81106D01*
X-62600Y4500D02*
Y10600D01*
X-103700D02*
X-62600D01*
X-14624D01*
X-17984Y17717D02*
X2110D01*
X-14624Y10600D02*
X-11444Y13780D01*
X-82900Y92053D02*
X-80703Y94250D01*
X-30250D01*
X-26300Y90300D01*
X-27131Y25591D02*
X-15700D01*
X-41341Y25559D02*
X-27100D01*
X8300Y75972D02*
X12153D01*
X-112979Y1321D02*
X-103700Y10600D01*
X-112979Y-50020D02*
X-109600Y-53400D01*
X-112979Y-50020D02*
Y1321D01*
X-117744Y-67056D02*
X-110056D01*
X-22300Y-13300D02*
X-14906Y-5906D01*
X-101100Y-13300D02*
X-22300D01*
X-14906Y-5906D02*
X-11153D01*
X2110D01*
X15890D01*
X-82900Y86256D02*
Y92053D01*
X-136100Y-60500D02*
Y3800D01*
X-5900Y76138D02*
X-5706Y75944D01*
X8300D01*
X13500Y77319D02*
Y88853D01*
X12153Y75972D02*
X13500Y77319D01*
X-13100Y90200D02*
X12153D01*
X13500Y88853D01*
X-27500Y25959D02*
Y63138D01*
X63256Y10100D02*
X63256Y10100D01*
X93930D02*
X95277Y8753D01*
Y5340D02*
Y8753D01*
X80400Y4462D02*
Y9300D01*
X46000Y5118D02*
X56626D01*
X-26300Y90300D02*
X-13200D01*
X-135544Y86256D02*
X-82900D01*
X-139900Y81900D02*
X-135544Y86256D01*
X32150Y46506D02*
X45950D01*
X29409Y25591D02*
X32100Y28281D01*
Y40044D01*
X15890Y25591D02*
X29409D01*
X-91000Y55938D02*
X-83800D01*
X-139738D02*
X-91000D01*
X-139900Y56100D02*
Y81900D01*
Y28200D02*
Y56100D01*
X50900Y-133300D02*
Y-119400D01*
X-147638Y-60500D02*
X-136100D01*
X-147700Y-60438D02*
X-147638Y-60500D01*
X-121438Y-61338D02*
X-120700Y-60600D01*
X-117800D01*
X-124500Y-61338D02*
X-121438D01*
X-130862D02*
X-124500D01*
X-131700Y-60500D02*
X-130862Y-61338D01*
X-136100Y-60500D02*
X-131700D01*
D28*
X-21192Y-28730D02*
X-16756Y-24294D01*
X-23630Y-28730D02*
X-21192D01*
X-16756Y-24294D02*
Y-23900D01*
X-24300Y-29400D02*
X-23630Y-28730D01*
X-36700Y-127700D02*
Y-92800D01*
X-24300Y-80400D01*
X-36700Y-127700D02*
X-19486Y-144914D01*
Y-145214D02*
Y-144914D01*
Y-145214D02*
X-12800Y-151900D01*
X2110Y-39490D02*
Y-25591D01*
X-43359Y-153812D02*
Y-84959D01*
X2110Y-39490D01*
X15890Y-25591D02*
X17965D01*
X-8400Y34500D02*
Y45300D01*
X-3600Y50100D01*
X2110Y13780D02*
X15890D01*
X-11444D02*
X2110D01*
X-8800Y6600D02*
X-8568D01*
X-5325Y9843D02*
X15890D01*
X-8568Y6600D02*
X-5325Y9843D01*
X-47700Y70500D02*
X-38700D01*
X-33200D01*
X-22100Y19800D02*
X-20246Y21654D01*
X15890D01*
X-69500Y19800D02*
X-22100D01*
X-67800Y85500D02*
X-59172D01*
X-70000D02*
X-67800D01*
X-68000Y85700D02*
X-67800Y85500D01*
X-68000Y85700D02*
Y89600D01*
X-75300Y86256D02*
X-70756D01*
X-70000Y85500D01*
X-31700Y69000D02*
X-27638D01*
X-27500Y68862D01*
X-33200Y70500D02*
X-31700Y69000D01*
X2110Y25591D02*
X15890D01*
X2110Y-25591D02*
X15890D01*
Y-37490D02*
Y-25591D01*
Y-37490D02*
X28400Y-50000D01*
X46000D01*
X2110Y17717D02*
X15890D01*
D29*
X-139900Y28200D02*
X-43981D01*
X-41341Y25559D01*
D31*
X-153543Y0D02*
D03*
X153543D02*
D03*
D32*
X-25548Y118D02*
D03*
X-84564D02*
D03*
D33*
X-25548Y-106890D02*
D03*
X-84564D02*
D03*
D34*
X-139900Y28200D02*
D03*
X-43359Y-153812D02*
D03*
X-33700Y-156400D02*
D03*
X54500Y-78900D02*
D03*
X-136100Y-60500D02*
D03*
D35*
X-149900Y28200D02*
D03*
X44500Y-78900D02*
D03*
D37*
X46000Y-36220D02*
D03*
Y-22441D02*
D03*
Y-8661D02*
D03*
Y5118D02*
D03*
Y18898D02*
D03*
Y32677D02*
D03*
Y46457D02*
D03*
Y60236D02*
D03*
Y74016D02*
D03*
D38*
X-53018Y-151224D02*
D03*
D39*
X-136100Y-70500D02*
D03*
D40*
X64000Y-14900D02*
D03*
X110000Y5400D02*
D03*
X-65200Y-107200D02*
D03*
X-24300Y-80400D02*
D03*
Y-29400D02*
D03*
X-8400Y34500D02*
D03*
X-3600Y50100D02*
D03*
X-8800Y6600D02*
D03*
X-47900Y82200D02*
D03*
X-69500Y19800D02*
D03*
X-72650Y70600D02*
D03*
X-62600Y4500D02*
D03*
X-37300Y49000D02*
D03*
X-35500Y41300D02*
D03*
X-110000Y-67000D02*
D03*
X-109600Y-53400D02*
D03*
X-101100Y-13300D02*
D03*
X-63350Y38900D02*
D03*
X59300Y-126500D02*
D03*
X82300Y-71300D02*
D03*
X107100Y-41100D02*
D03*
X-21200Y41400D02*
D03*
X-14800Y49100D02*
D03*
X-6000Y69400D02*
D03*
X-28500Y75600D02*
D03*
X-91500Y70600D02*
D03*
X-41341Y25559D02*
D03*
X106800Y-107200D02*
D03*
X107100Y-99600D02*
D03*
X77700Y-98600D02*
D03*
X39400Y-126800D02*
D03*
Y-110300D02*
D03*
X72200Y-133500D02*
D03*
X88200Y-107300D02*
D03*
D41*
X72500Y-20500D02*
D03*
X-12800Y-151900D02*
D03*
X-12700Y-12300D02*
D03*
X-6900Y-11000D02*
D03*
X-47700Y70500D02*
D03*
X-52400Y50200D02*
D03*
X-68000Y89600D02*
D03*
X65300Y-75500D02*
D03*
X65600Y-66300D02*
D03*
X1000Y96200D02*
D03*
X900Y81800D02*
D03*
X90400Y-87700D02*
D03*
X97000D02*
D03*
X91600Y-95400D02*
D03*
X-4500Y-153200D02*
D03*
D42*
X95277Y5340D02*
D03*
Y-2140D02*
D03*
X87600Y1600D02*
D03*
X91300Y-100700D02*
D03*
X98977Y-104440D02*
D03*
Y-96960D02*
D03*
X53977Y-97140D02*
D03*
X46300Y-93400D02*
D03*
Y-100880D02*
D03*
X31861Y-97100D02*
D03*
X39539Y-100840D02*
D03*
Y-93360D02*
D03*
D43*
X2110Y-25591D02*
D03*
Y-21654D02*
D03*
Y-17717D02*
D03*
Y-13780D02*
D03*
Y-9843D02*
D03*
Y-5906D02*
D03*
Y-1969D02*
D03*
Y1969D02*
D03*
Y5906D02*
D03*
Y9843D02*
D03*
Y13780D02*
D03*
Y17717D02*
D03*
Y21654D02*
D03*
Y25591D02*
D03*
X15890Y-25591D02*
D03*
Y-21654D02*
D03*
Y-17717D02*
D03*
Y-13780D02*
D03*
Y-9843D02*
D03*
Y-5906D02*
D03*
Y-1969D02*
D03*
Y1969D02*
D03*
Y5906D02*
D03*
Y9843D02*
D03*
Y13780D02*
D03*
Y17717D02*
D03*
Y21654D02*
D03*
Y25591D02*
D03*
D44*
X90500Y-81900D02*
D03*
X97012D02*
D03*
X84812Y-139800D02*
D03*
X78300D02*
D03*
X84412Y-126500D02*
D03*
X77900D02*
D03*
X56744Y5000D02*
D03*
X63256D02*
D03*
X-16300Y-17800D02*
D03*
X-9788D02*
D03*
X-16756Y-23900D02*
D03*
X-10244D02*
D03*
X72400Y-126500D02*
D03*
X65888D02*
D03*
X63956Y-8700D02*
D03*
X57444D02*
D03*
X84556Y-119700D02*
D03*
X78044D02*
D03*
X65288Y-81800D02*
D03*
X71800D02*
D03*
X97200Y-75400D02*
D03*
X90688D02*
D03*
D45*
X78438Y-133400D02*
D03*
X84162D02*
D03*
X78200Y-81900D02*
D03*
X83924D02*
D03*
X-124462Y-74500D02*
D03*
X-118738D02*
D03*
X-124462Y-81800D02*
D03*
X-118738D02*
D03*
X66676Y-119600D02*
D03*
X72400D02*
D03*
X91038Y-69100D02*
D03*
X96762D02*
D03*
D46*
X67500Y-90562D02*
D03*
X72500D02*
D03*
X77500D02*
D03*
X82500D02*
D03*
X67500Y-111822D02*
D03*
X72500D02*
D03*
X77500D02*
D03*
X82500D02*
D03*
D47*
X87288Y-8961D02*
D03*
Y-16639D02*
D03*
X97131Y-12800D02*
D03*
D48*
X105340Y-119739D02*
D03*
X97860D02*
D03*
X101600Y-112061D02*
D03*
D49*
X-83800Y55938D02*
D03*
Y61662D02*
D03*
X-27500Y63138D02*
D03*
Y68862D02*
D03*
X-5900Y76138D02*
D03*
Y81862D02*
D03*
X-147700Y-66162D02*
D03*
Y-60438D02*
D03*
X-124500Y-67062D02*
D03*
Y-61338D02*
D03*
X80400Y4462D02*
D03*
Y-1262D02*
D03*
D50*
X-38700Y85500D02*
D03*
Y70500D02*
D03*
Y55500D02*
D03*
Y80500D02*
D03*
Y75500D02*
D03*
Y65500D02*
D03*
Y60500D02*
D03*
X-59172Y70500D02*
D03*
Y85500D02*
D03*
Y55500D02*
D03*
Y80500D02*
D03*
Y75500D02*
D03*
Y65500D02*
D03*
Y60500D02*
D03*
D51*
X-13100Y96712D02*
D03*
Y90200D02*
D03*
X-75300Y86256D02*
D03*
Y79744D02*
D03*
X-75600Y62056D02*
D03*
Y55544D02*
D03*
X-53700Y45256D02*
D03*
Y38744D02*
D03*
X-46000Y45256D02*
D03*
Y38744D02*
D03*
X-20200Y69256D02*
D03*
Y62744D02*
D03*
Y75744D02*
D03*
Y82256D02*
D03*
X-13000Y69256D02*
D03*
Y62744D02*
D03*
X8300Y82456D02*
D03*
Y75944D02*
D03*
X-82900Y79744D02*
D03*
Y86256D02*
D03*
X-13100Y82256D02*
D03*
Y75744D02*
D03*
X32100Y46556D02*
D03*
Y40044D02*
D03*
X79500Y-15656D02*
D03*
Y-9144D02*
D03*
X72400Y-9200D02*
D03*
Y-15712D02*
D03*
X-117800Y-60600D02*
D03*
Y-67112D02*
D03*
X72600Y-1400D02*
D03*
Y5112D02*
D03*
D52*
X-13477Y-119400D02*
X50900D01*
X-25987Y-106890D02*
X-13477Y-119400D01*
X63256Y10100D02*
Y35744D01*
Y5000D02*
Y10100D01*
X58956Y40044D02*
X63256Y35744D01*
X32100Y40044D02*
X58956D01*
X50900Y-119400D02*
X66476D01*
D53*
X-149900Y20300D02*
Y28200D01*
X-153543Y0D02*
Y16657D01*
X-149900Y20300D01*
D54*
X78044Y-119306D02*
X80950Y-116400D01*
X87291D02*
X88200Y-115491D01*
X80950Y-116400D02*
X87291D01*
X88200Y-115491D02*
Y-107300D01*
X88100Y-107200D02*
X88200Y-107300D01*
X78044Y-119700D02*
Y-119306D01*
X78086Y-107200D02*
X88100D01*
X77500Y-107786D02*
X78086Y-107200D01*
X77500Y-111822D02*
Y-107786D01*
D55*
X97100Y-133400D02*
X105340Y-125160D01*
Y-119739D01*
X84162Y-133400D02*
X97100D01*
D56*
X46000Y-50000D02*
D03*
M02*
