G04*
G04 #@! TF.GenerationSoftware,Altium Limited,Altium Designer,21.4.1 (30)*
G04*
G04 Layer_Color=255*
%FSLAX25Y25*%
%MOIN*%
G70*
G04*
G04 #@! TF.SameCoordinates,7249496F-D708-40B6-935A-EC4B0A0C4DBB*
G04*
G04*
G04 #@! TF.FilePolarity,Positive*
G04*
G01*
G75*
%ADD31C,0.17717*%
%ADD32C,0.12992*%
%ADD33C,0.11811*%
%ADD34C,0.06693*%
%ADD35R,0.06693X0.06693*%
%ADD37C,0.06496*%
%ADD38P,0.09465X4X390.0*%
%ADD39R,0.06693X0.06693*%
%ADD42R,0.03740X0.02205*%
%ADD43R,0.07874X0.02362*%
%ADD44R,0.02756X0.03543*%
%ADD45R,0.03937X0.03937*%
%ADD46R,0.02165X0.05906*%
%ADD47R,0.03937X0.03150*%
%ADD48R,0.02205X0.03740*%
%ADD49R,0.03937X0.03937*%
%ADD50R,0.08661X0.02362*%
%ADD51R,0.03543X0.02756*%
%ADD56R,0.06496X0.06496*%
D31*
X-153543Y0D02*
D03*
X153543D02*
D03*
D32*
X-25548Y118D02*
D03*
X-84564D02*
D03*
D33*
X-25548Y-106890D02*
D03*
X-84564D02*
D03*
D34*
X-139900Y28200D02*
D03*
X-43359Y-153812D02*
D03*
X-33700Y-156400D02*
D03*
X54500Y-78900D02*
D03*
X-136100Y-60500D02*
D03*
D35*
X-149900Y28200D02*
D03*
X44500Y-78900D02*
D03*
D37*
X46000Y-36220D02*
D03*
Y-22441D02*
D03*
Y-8661D02*
D03*
Y5118D02*
D03*
Y18898D02*
D03*
Y32677D02*
D03*
Y46457D02*
D03*
Y60236D02*
D03*
Y74016D02*
D03*
D38*
X-53018Y-151224D02*
D03*
D39*
X-136100Y-70500D02*
D03*
D42*
X95277Y5340D02*
D03*
Y-2140D02*
D03*
X87600Y1600D02*
D03*
X91300Y-100700D02*
D03*
X98977Y-104440D02*
D03*
Y-96960D02*
D03*
X53977Y-97140D02*
D03*
X46300Y-93400D02*
D03*
Y-100880D02*
D03*
X31861Y-97100D02*
D03*
X39539Y-100840D02*
D03*
Y-93360D02*
D03*
D43*
X2110Y-25591D02*
D03*
Y-21654D02*
D03*
Y-17717D02*
D03*
Y-13780D02*
D03*
Y-9843D02*
D03*
Y-5906D02*
D03*
Y-1969D02*
D03*
Y1969D02*
D03*
Y5906D02*
D03*
Y9843D02*
D03*
Y13780D02*
D03*
Y17717D02*
D03*
Y21654D02*
D03*
Y25591D02*
D03*
X15890Y-25591D02*
D03*
Y-21654D02*
D03*
Y-17717D02*
D03*
Y-13780D02*
D03*
Y-9843D02*
D03*
Y-5906D02*
D03*
Y-1969D02*
D03*
Y1969D02*
D03*
Y5906D02*
D03*
Y9843D02*
D03*
Y13780D02*
D03*
Y17717D02*
D03*
Y21654D02*
D03*
Y25591D02*
D03*
D44*
X90500Y-81900D02*
D03*
X97012D02*
D03*
X84812Y-139800D02*
D03*
X78300D02*
D03*
X84412Y-126500D02*
D03*
X77900D02*
D03*
X56744Y5000D02*
D03*
X63256D02*
D03*
X-16300Y-17800D02*
D03*
X-9788D02*
D03*
X-16756Y-23900D02*
D03*
X-10244D02*
D03*
X72400Y-126500D02*
D03*
X65888D02*
D03*
X63956Y-8700D02*
D03*
X57444D02*
D03*
X84556Y-119700D02*
D03*
X78044D02*
D03*
X65288Y-81800D02*
D03*
X71800D02*
D03*
X97200Y-75400D02*
D03*
X90688D02*
D03*
D45*
X78438Y-133400D02*
D03*
X84162D02*
D03*
X78200Y-81900D02*
D03*
X83924D02*
D03*
X-124462Y-74500D02*
D03*
X-118738D02*
D03*
X-124462Y-81800D02*
D03*
X-118738D02*
D03*
X66676Y-119600D02*
D03*
X72400D02*
D03*
X91038Y-69100D02*
D03*
X96762D02*
D03*
D46*
X67500Y-90562D02*
D03*
X72500D02*
D03*
X77500D02*
D03*
X82500D02*
D03*
X67500Y-111822D02*
D03*
X72500D02*
D03*
X77500D02*
D03*
X82500D02*
D03*
D47*
X87288Y-8961D02*
D03*
Y-16639D02*
D03*
X97131Y-12800D02*
D03*
D48*
X105340Y-119739D02*
D03*
X97860D02*
D03*
X101600Y-112061D02*
D03*
D49*
X-83800Y55938D02*
D03*
Y61662D02*
D03*
X-27500Y63138D02*
D03*
Y68862D02*
D03*
X-5900Y76138D02*
D03*
Y81862D02*
D03*
X-147700Y-66162D02*
D03*
Y-60438D02*
D03*
X-124500Y-67062D02*
D03*
Y-61338D02*
D03*
X80400Y4462D02*
D03*
Y-1262D02*
D03*
D50*
X-38700Y85500D02*
D03*
Y70500D02*
D03*
Y55500D02*
D03*
Y80500D02*
D03*
Y75500D02*
D03*
Y65500D02*
D03*
Y60500D02*
D03*
X-59172Y70500D02*
D03*
Y85500D02*
D03*
Y55500D02*
D03*
Y80500D02*
D03*
Y75500D02*
D03*
Y65500D02*
D03*
Y60500D02*
D03*
D51*
X-13100Y96712D02*
D03*
Y90200D02*
D03*
X-75300Y86256D02*
D03*
Y79744D02*
D03*
X-75600Y62056D02*
D03*
Y55544D02*
D03*
X-53700Y45256D02*
D03*
Y38744D02*
D03*
X-46000Y45256D02*
D03*
Y38744D02*
D03*
X-20200Y69256D02*
D03*
Y62744D02*
D03*
Y75744D02*
D03*
Y82256D02*
D03*
X-13000Y69256D02*
D03*
Y62744D02*
D03*
X8300Y82456D02*
D03*
Y75944D02*
D03*
X-82900Y79744D02*
D03*
Y86256D02*
D03*
X-13100Y82256D02*
D03*
Y75744D02*
D03*
X32100Y46556D02*
D03*
Y40044D02*
D03*
X79500Y-15656D02*
D03*
Y-9144D02*
D03*
X72400Y-9200D02*
D03*
Y-15712D02*
D03*
X-117800Y-60600D02*
D03*
Y-67112D02*
D03*
X72600Y-1400D02*
D03*
Y5112D02*
D03*
D56*
X46000Y-50000D02*
D03*
M02*
