G04*
G04 #@! TF.GenerationSoftware,Altium Limited,Altium Designer,21.4.1 (30)*
G04*
G04 Layer_Color=32896*
%FSLAX25Y25*%
%MOIN*%
G70*
G04*
G04 #@! TF.SameCoordinates,7249496F-D708-40B6-935A-EC4B0A0C4DBB*
G04*
G04*
G04 #@! TF.FilePolarity,Positive*
G04*
G01*
G75*
%ADD10C,0.00394*%
%ADD11C,0.00787*%
%ADD71C,0.00158*%
D10*
X-155400Y33700D02*
X-134400D01*
X-155400Y22700D02*
X-134400D01*
Y33700D01*
X-155400Y22700D02*
Y33700D01*
X-56908Y-144488D02*
X-26964Y-152511D01*
X-59755Y-155113D02*
X-29811Y-163136D01*
X-26964Y-152511D01*
X-59755Y-155113D02*
X-56908Y-144488D01*
X39000Y-84400D02*
Y-73400D01*
X60000Y-84400D02*
Y-73400D01*
X39000Y-84400D02*
X60000D01*
X39000Y-73400D02*
X60000D01*
X-141600Y-76000D02*
X-130600D01*
X-141600Y-55000D02*
X-130600D01*
Y-76000D02*
Y-55000D01*
X-141600Y-76000D02*
Y-55000D01*
D11*
X-153543Y0D02*
X-151181D01*
X-155905D02*
X-153543D01*
Y2362D01*
Y-2362D02*
Y0D01*
X-58937D02*
X-55000D01*
Y-3937D02*
Y0D01*
X-51063D01*
X-55000D02*
Y3937D01*
X-119860Y117205D02*
X10298D01*
X-119860Y-117086D02*
X10298D01*
X-119860D02*
Y117205D01*
X10298Y-117086D02*
Y117205D01*
X-144869Y26232D02*
Y30169D01*
X-146837Y28200D02*
X-142900D01*
X153543Y0D02*
X155905D01*
X151181D02*
X153543D01*
Y2362D01*
Y-2362D02*
Y0D01*
X-45261Y-153302D02*
X-41458Y-154321D01*
X-43869Y-155713D02*
X-42850Y-151910D01*
X47563Y-78900D02*
X51500D01*
X49531Y-80869D02*
Y-76932D01*
X-136100Y-67437D02*
Y-63500D01*
X-138068Y-65469D02*
X-134132D01*
D71*
X-145989Y32590D02*
X-146252D01*
X-146121D01*
Y31934D01*
X-146252Y31802D01*
X-146383D01*
X-146514Y31934D01*
X-145333Y31802D02*
Y32590D01*
X-145727Y32196D01*
X-145202D01*
X-37457Y-151154D02*
X-37711Y-151087D01*
X-37584Y-151121D01*
X-37754Y-151754D01*
X-37915Y-151847D01*
X-38041Y-151813D01*
X-38134Y-151652D01*
X-37408Y-151983D02*
X-37154Y-152051D01*
X-37281Y-152017D01*
X-37077Y-151256D01*
X-37238Y-151349D01*
X48411Y-74511D02*
X48148D01*
X48279D01*
Y-75166D01*
X48148Y-75298D01*
X48017D01*
X47886Y-75166D01*
X49198Y-74511D02*
X48673D01*
Y-74904D01*
X48935Y-74773D01*
X49067D01*
X49198Y-74904D01*
Y-75166D01*
X49067Y-75298D01*
X48804D01*
X48673Y-75166D01*
X-140489Y-66589D02*
Y-66852D01*
Y-66721D01*
X-139833D01*
X-139702Y-66852D01*
Y-66983D01*
X-139833Y-67114D01*
X-140358Y-66327D02*
X-140489Y-66196D01*
Y-65934D01*
X-140358Y-65802D01*
X-140227D01*
X-140096Y-65934D01*
Y-66065D01*
Y-65934D01*
X-139964Y-65802D01*
X-139833D01*
X-139702Y-65934D01*
Y-66196D01*
X-139833Y-66327D01*
M02*
