G04*
G04 #@! TF.GenerationSoftware,Altium Limited,Altium Designer,21.4.1 (30)*
G04*
G04 Layer_Color=16711935*
%FSLAX25Y25*%
%MOIN*%
G70*
G04*
G04 #@! TF.SameCoordinates,7249496F-D708-40B6-935A-EC4B0A0C4DBB*
G04*
G04*
G04 #@! TF.FilePolarity,Positive*
G04*
G01*
G75*
%ADD25C,0.01000*%
D25*
X117095Y-122319D02*
X122319Y-117095D01*
X123883Y-113935D02*
X124472Y-114746D01*
X121720Y-110405D02*
X123883Y-113935D01*
X119841Y-106717D02*
X121720Y-110405D01*
X111648Y-127310D02*
X117095Y-122319D01*
X105989Y-132059D02*
X111648Y-127310D01*
X118256Y-102892D02*
X119841Y-106717D01*
X122319Y-117095D02*
X124472Y-114746D01*
X-132059Y-105989D02*
X-127310Y-111648D01*
X-157818Y-61372D02*
X-154991Y-68198D01*
X-136557Y-100127D02*
X-132059Y-105989D01*
X-154991Y-68198D02*
X-151869Y-74893D01*
X-148458Y-81447D02*
X-144764Y-87845D01*
X-140794Y-94076D01*
X-136557Y-100127D01*
X-127310Y-111648D02*
X-122319Y-117095D01*
X-160345Y-54430D02*
X-157818Y-61372D01*
X-151869Y-74893D02*
X-148458Y-81447D01*
X-122319Y-117095D02*
X-117095Y-122319D01*
X-111648Y-127310D01*
X-105989Y-132059D01*
X-100127Y-136557D01*
X-94076Y-140794D01*
X-81447Y-148458D02*
X-74893Y-151869D01*
X-87845Y-144764D02*
X-81447Y-148458D01*
X-94076Y-140794D02*
X-87845Y-144764D01*
X-74893Y-151869D02*
X-68198Y-154991D01*
X68198D02*
X74893Y-151869D01*
X-3694Y-169291D02*
X3694D01*
X11075Y-168969D01*
X-11075D02*
X-3694Y-169291D01*
X11075Y-168969D02*
X18435Y-168325D01*
X-18435D02*
X-11075Y-168969D01*
X18435Y-168325D02*
X25759Y-167361D01*
X33035Y-166078D01*
X40248Y-164479D01*
X47384Y-162567D01*
X54430Y-160345D02*
X61372Y-157818D01*
X68198Y-154991D01*
X47384Y-162567D02*
X54430Y-160345D01*
X121720Y-58886D02*
X123883Y-55357D01*
X116977Y-70336D02*
X118256Y-66399D01*
X116011Y-74361D02*
X116977Y-70336D01*
X115363Y-90842D02*
X116011Y-94931D01*
X115039Y-86715D02*
Y-84646D01*
Y-82576D02*
X115363Y-78449D01*
X115039Y-84646D02*
Y-82576D01*
X115363Y-78449D02*
X116011Y-74361D01*
Y-94931D02*
X116977Y-98956D01*
X115039Y-86715D02*
X115363Y-90842D01*
X116977Y-98956D02*
X118256Y-102892D01*
Y-66399D02*
X119841Y-62574D01*
X121720Y-58886D01*
X100127Y-136557D02*
X105989Y-132059D01*
X81447Y-148458D02*
X87845Y-144764D01*
X94076Y-140794D01*
X74893Y-151869D02*
X81447Y-148458D01*
X94076Y-140794D02*
X100127Y-136557D01*
X-68198Y-154991D02*
X-61372Y-157818D01*
X-25759Y-167361D02*
X-18435Y-168325D01*
X-40248Y-164479D02*
X-33035Y-166078D01*
X-47384Y-162567D02*
X-40248Y-164479D01*
X-54430Y-160345D02*
X-47384Y-162567D01*
X-61372Y-157818D02*
X-54430Y-160345D01*
X-33035Y-166078D02*
X-25759Y-167361D01*
X-167361Y25759D02*
X-166078Y33035D01*
X-168325Y18435D02*
X-167361Y25759D01*
X-168969Y11075D02*
X-168325Y18435D01*
X-169291Y3694D02*
X-168969Y11075D01*
X-169291Y0D02*
Y3694D01*
Y-3694D02*
Y0D01*
Y-3694D02*
X-168969Y-11075D01*
X-168325Y-18435D01*
X-167361Y-25759D01*
X-166078Y-33035D01*
X-164479Y-40248D01*
X-162567Y-47384D01*
X-160345Y-54430D01*
X-144764Y87845D02*
X-140794Y94076D01*
X-148458Y81447D02*
X-144764Y87845D01*
X-151869Y74893D02*
X-148458Y81447D01*
X-154991Y68198D02*
X-151869Y74893D01*
X-157818Y61372D02*
X-154991Y68198D01*
X-164479Y40248D02*
X-162567Y47384D01*
X-166078Y33035D02*
X-164479Y40248D01*
X-162567Y47384D02*
X-160345Y54430D01*
X-157818Y61372D01*
X-81447Y148458D02*
X-74893Y151869D01*
X-87845Y144764D02*
X-81447Y148458D01*
X-94076Y140794D02*
X-87845Y144764D01*
X-100127Y136557D02*
X-94076Y140794D01*
X-105989Y132059D02*
X-100127Y136557D01*
X-140794Y94076D02*
X-136557Y100127D01*
X-132059Y105989D01*
X-127310Y111648D02*
X-122319Y117095D01*
X-117095Y122319D01*
X-111648Y127310D01*
X-132059Y105989D02*
X-127310Y111648D01*
X-111648Y127310D02*
X-105989Y132059D01*
X40248Y164479D02*
X41411Y164167D01*
X-54430Y160345D02*
X-47384Y162567D01*
X41411Y164167D02*
X60240Y158230D01*
X-74893Y151869D02*
X-68198Y154991D01*
X-61372Y157818D01*
X-54430Y160345D01*
X68198Y154991D02*
X74893Y151869D01*
X-47384Y162567D02*
X-40248Y164479D01*
X60240Y158230D02*
X61372Y157818D01*
X68198Y154991D01*
X165647Y-31968D02*
X166266D01*
X161520Y-32293D02*
X165647Y-31968D01*
X157432Y-32940D02*
X161520Y-32293D01*
X153407Y-33906D02*
X157432Y-32940D01*
X149470Y-35186D02*
X153407Y-33906D01*
X126316Y-52008D02*
X129004Y-48860D01*
X131931Y-45933D01*
X135079Y-43245D01*
X138428Y-40812D01*
X141957Y-38649D01*
X145645Y-36770D01*
X149470Y-35186D01*
X166266Y31969D02*
X167361Y25759D01*
X168325Y18435D01*
X166266Y-31968D02*
X167361Y-25759D01*
X168325Y-18435D01*
X168969Y-11075D01*
X169291Y-3694D01*
Y0D01*
X168969Y11075D02*
X169291Y3694D01*
X168325Y18435D02*
X168969Y11075D01*
X169291Y0D02*
Y3694D01*
X117095Y122319D02*
X122319Y117095D01*
X111648Y127310D02*
X117095Y122319D01*
X115039Y86715D02*
X115364Y90842D01*
X115039Y84646D02*
Y86715D01*
Y82576D02*
Y84646D01*
Y82576D02*
X115364Y78449D01*
Y90842D02*
X116012Y94930D01*
X116978Y98955D01*
X118257Y102892D01*
X119841Y106717D01*
X121720Y110405D01*
X123883Y113934D01*
X124472Y114745D01*
X122319Y117095D02*
X124472Y114745D01*
X118257Y66399D02*
X119841Y62575D01*
X123883Y-55357D02*
X126316Y-52008D01*
X115364Y78449D02*
X116012Y74361D01*
X116978Y70336D01*
X121720Y58887D02*
X123883Y55357D01*
X119841Y62575D02*
X121720Y58887D01*
X123883Y55357D02*
X126316Y52008D01*
X116978Y70336D02*
X118257Y66399D01*
X126316Y52008D02*
X129005Y48861D01*
X165647Y31969D02*
X166266D01*
X161520Y32293D02*
X165647Y31969D01*
X157432Y32941D02*
X161520Y32293D01*
X153407Y33907D02*
X157432Y32941D01*
X149470Y35186D02*
X153407Y33907D01*
X145646Y36770D02*
X149470Y35186D01*
X141957Y38650D02*
X145646Y36770D01*
X138428Y40812D02*
X141957Y38650D01*
X135079Y43246D02*
X138428Y40812D01*
X131932Y45934D02*
X135079Y43246D01*
X129005Y48861D02*
X131932Y45934D01*
X94076Y140794D02*
X100127Y136557D01*
X81447Y148458D02*
X87845Y144764D01*
X94076Y140794D01*
X105989Y132059D02*
X111648Y127310D01*
X74893Y151869D02*
X81447Y148458D01*
X100127Y136557D02*
X105989Y132059D01*
X-3694Y169291D02*
X3694D01*
X-33035Y166078D02*
X-25759Y167361D01*
X18435Y168325D02*
X25759Y167361D01*
X-25759D02*
X-18435Y168325D01*
X11075Y168969D02*
X18435Y168325D01*
X-18435D02*
X-11075Y168969D01*
X3694Y169291D02*
X11075Y168969D01*
X-11075D02*
X-3694Y169291D01*
X25759Y167361D02*
X33035Y166078D01*
X-40248Y164479D02*
X-33035Y166078D01*
X33035D02*
X40248Y164479D01*
M02*
