M48
;Layer_Color=9474304
;FILE_FORMAT=2:5
INCH,LZ
;TYPE=PLATED
T1F00S00C0.01200
T2F00S00C0.02800
T3F00S00C0.03150
T4F00S00C0.05709
T5F00S00C0.13780
T6F00S00C0.15000
%
T01
X-00955Y-00639
X0139272Y-0025591
X01359Y-00219
X01352Y-00176
X0132474Y0021325
X0102946Y0017568
X00841Y00163
X00869Y-00027
X00963Y-0006
X00996Y-00097
X0052223Y-0018342
X00337Y00359
X00049Y00255
X-0116Y00311
X-01159Y00472
X-01012Y00024
T02
X-01297Y-00439
X-01012Y-00374
X-00963Y-00325
X00917Y00079
X-00035Y00202
X-00034Y00419
X-0111Y00132
X-00945Y-0004
T03
X-007Y-0047559
Y-0039685
Y-0031811
Y-0023937
X00245
Y-0031811
Y-0039685
Y-0047559
Y-0016063
Y-0008189
Y-0000315
Y0007559
X-007
Y-0000315
Y-0008189
Y-0016063
T04
X-0123955Y0070345
X-0116884Y0077416
X-0109813Y0084487
X-0102742Y0091558
X-0095671Y0098629
X-00886Y01057
X-0081529Y0112771
X-0074458Y0119842
X-0060316Y01057
X-0067387Y0098629
X-0074458Y0091558
X-0081529Y0084487
X-00886Y0077416
X-0095671Y0070345
X-0102742Y0063274
X-0109813Y0056203
T05
X-00197Y-0146
Y0146
T06
X0156Y0
X-0156
M30
