G04*
G04 #@! TF.GenerationSoftware,Altium Limited,Altium Designer,21.4.1 (30)*
G04*
G04 Layer_Color=32896*
%FSLAX25Y25*%
%MOIN*%
G70*
G04*
G04 #@! TF.SameCoordinates,E1CA7C7D-416C-4424-9A17-3CD1BDAA3B9A*
G04*
G04*
G04 #@! TF.FilePolarity,Positive*
G04*
G01*
G75*
%ADD10C,0.00394*%
%ADD11C,0.00787*%
%ADD13C,0.01000*%
G36*
X-139645Y-39339D02*
X-140093D01*
Y-36575D01*
X-141935Y-39339D01*
X-142419D01*
Y-35817D01*
X-141971D01*
Y-38586D01*
X-140123Y-35817D01*
X-139645D01*
Y-39339D01*
D02*
G37*
G36*
X-137273Y-35766D02*
X-137095Y-35791D01*
X-137013Y-35807D01*
X-136937Y-35827D01*
X-136866Y-35842D01*
X-136799Y-35862D01*
X-136738Y-35883D01*
X-136688Y-35903D01*
X-136642Y-35923D01*
X-136601Y-35939D01*
X-136570Y-35954D01*
X-136550Y-35964D01*
X-136535Y-35969D01*
X-136530Y-35974D01*
X-136458Y-36020D01*
X-136387Y-36066D01*
X-136265Y-36173D01*
X-136158Y-36280D01*
X-136072Y-36392D01*
X-136000Y-36489D01*
X-135975Y-36529D01*
X-135954Y-36570D01*
X-135934Y-36601D01*
X-135924Y-36621D01*
X-135919Y-36636D01*
X-135914Y-36641D01*
X-135843Y-36809D01*
X-135792Y-36977D01*
X-135751Y-37140D01*
X-135741Y-37216D01*
X-135725Y-37288D01*
X-135720Y-37354D01*
X-135710Y-37410D01*
X-135705Y-37466D01*
Y-37512D01*
X-135700Y-37547D01*
Y-37573D01*
Y-37593D01*
Y-37598D01*
X-135710Y-37786D01*
X-135736Y-37965D01*
X-135751Y-38046D01*
X-135766Y-38122D01*
X-135786Y-38199D01*
X-135807Y-38265D01*
X-135827Y-38326D01*
X-135848Y-38377D01*
X-135863Y-38428D01*
X-135878Y-38463D01*
X-135893Y-38499D01*
X-135904Y-38519D01*
X-135914Y-38535D01*
Y-38540D01*
X-136005Y-38687D01*
X-136107Y-38815D01*
X-136214Y-38927D01*
X-136316Y-39018D01*
X-136413Y-39090D01*
X-136448Y-39115D01*
X-136484Y-39140D01*
X-136514Y-39156D01*
X-136535Y-39171D01*
X-136550Y-39176D01*
X-136555Y-39181D01*
X-136637Y-39222D01*
X-136718Y-39252D01*
X-136881Y-39308D01*
X-137039Y-39344D01*
X-137186Y-39375D01*
X-137252Y-39380D01*
X-137313Y-39390D01*
X-137370Y-39395D01*
X-137415D01*
X-137451Y-39400D01*
X-137502D01*
X-137644Y-39395D01*
X-137782Y-39380D01*
X-137909Y-39354D01*
X-138021Y-39329D01*
X-138067Y-39319D01*
X-138113Y-39308D01*
X-138153Y-39293D01*
X-138189Y-39283D01*
X-138215Y-39273D01*
X-138235Y-39268D01*
X-138245Y-39263D01*
X-138250D01*
X-138388Y-39207D01*
X-138515Y-39140D01*
X-138637Y-39069D01*
X-138744Y-39003D01*
X-138790Y-38972D01*
X-138835Y-38942D01*
X-138871Y-38916D01*
X-138902Y-38896D01*
X-138927Y-38876D01*
X-138947Y-38860D01*
X-138958Y-38855D01*
X-138963Y-38850D01*
Y-37542D01*
X-137466D01*
Y-37960D01*
X-138505D01*
Y-38621D01*
X-138444Y-38672D01*
X-138372Y-38718D01*
X-138296Y-38759D01*
X-138225Y-38794D01*
X-138164Y-38825D01*
X-138108Y-38850D01*
X-138087Y-38860D01*
X-138077Y-38866D01*
X-138067Y-38871D01*
X-138062D01*
X-137955Y-38906D01*
X-137848Y-38937D01*
X-137751Y-38957D01*
X-137660Y-38967D01*
X-137583Y-38978D01*
X-137553D01*
X-137522Y-38983D01*
X-137471D01*
X-137344Y-38978D01*
X-137222Y-38957D01*
X-137110Y-38932D01*
X-137008Y-38906D01*
X-136927Y-38876D01*
X-136891Y-38866D01*
X-136866Y-38855D01*
X-136840Y-38845D01*
X-136825Y-38835D01*
X-136815Y-38830D01*
X-136810D01*
X-136703Y-38764D01*
X-136606Y-38693D01*
X-136525Y-38616D01*
X-136458Y-38540D01*
X-136402Y-38469D01*
X-136367Y-38412D01*
X-136352Y-38392D01*
X-136346Y-38377D01*
X-136336Y-38367D01*
Y-38362D01*
X-136285Y-38234D01*
X-136245Y-38102D01*
X-136219Y-37970D01*
X-136199Y-37843D01*
X-136194Y-37786D01*
X-136189Y-37736D01*
X-136184Y-37685D01*
Y-37644D01*
X-136179Y-37613D01*
Y-37588D01*
Y-37573D01*
Y-37568D01*
X-136184Y-37425D01*
X-136199Y-37298D01*
X-136219Y-37176D01*
X-136245Y-37069D01*
X-136255Y-37023D01*
X-136270Y-36982D01*
X-136280Y-36947D01*
X-136290Y-36916D01*
X-136301Y-36891D01*
X-136306Y-36875D01*
X-136311Y-36865D01*
Y-36860D01*
X-136346Y-36789D01*
X-136382Y-36723D01*
X-136418Y-36662D01*
X-136453Y-36611D01*
X-136484Y-36570D01*
X-136509Y-36534D01*
X-136530Y-36514D01*
X-136535Y-36509D01*
X-136591Y-36453D01*
X-136652Y-36402D01*
X-136718Y-36361D01*
X-136779Y-36320D01*
X-136830Y-36295D01*
X-136871Y-36270D01*
X-136901Y-36259D01*
X-136911Y-36254D01*
X-137003Y-36219D01*
X-137095Y-36193D01*
X-137191Y-36178D01*
X-137278Y-36163D01*
X-137354Y-36158D01*
X-137385D01*
X-137410Y-36153D01*
X-137466D01*
X-137563Y-36158D01*
X-137655Y-36168D01*
X-137736Y-36183D01*
X-137807Y-36198D01*
X-137868Y-36219D01*
X-137914Y-36234D01*
X-137940Y-36244D01*
X-137950Y-36249D01*
X-138026Y-36285D01*
X-138092Y-36326D01*
X-138153Y-36366D01*
X-138199Y-36407D01*
X-138235Y-36443D01*
X-138265Y-36468D01*
X-138281Y-36489D01*
X-138286Y-36494D01*
X-138331Y-36555D01*
X-138367Y-36626D01*
X-138403Y-36692D01*
X-138433Y-36763D01*
X-138454Y-36825D01*
X-138469Y-36870D01*
X-138474Y-36891D01*
X-138479Y-36906D01*
X-138484Y-36911D01*
Y-36916D01*
X-138907Y-36804D01*
X-138871Y-36677D01*
X-138825Y-36565D01*
X-138779Y-36463D01*
X-138739Y-36382D01*
X-138698Y-36316D01*
X-138668Y-36270D01*
X-138647Y-36239D01*
X-138637Y-36229D01*
X-138566Y-36147D01*
X-138489Y-36081D01*
X-138408Y-36020D01*
X-138331Y-35969D01*
X-138260Y-35934D01*
X-138204Y-35903D01*
X-138184Y-35893D01*
X-138169Y-35888D01*
X-138159Y-35883D01*
X-138153D01*
X-138036Y-35842D01*
X-137914Y-35811D01*
X-137802Y-35786D01*
X-137695Y-35771D01*
X-137599Y-35761D01*
X-137558D01*
X-137527Y-35756D01*
X-137364D01*
X-137273Y-35766D01*
D02*
G37*
G36*
X-143203Y-39339D02*
X-144470D01*
X-144587Y-39334D01*
X-144694Y-39329D01*
X-144791Y-39319D01*
X-144872Y-39308D01*
X-144943Y-39298D01*
X-144994Y-39293D01*
X-145010Y-39288D01*
X-145025Y-39283D01*
X-145035D01*
X-145127Y-39257D01*
X-145208Y-39227D01*
X-145279Y-39202D01*
X-145341Y-39171D01*
X-145391Y-39145D01*
X-145427Y-39125D01*
X-145447Y-39110D01*
X-145457Y-39105D01*
X-145524Y-39059D01*
X-145580Y-39003D01*
X-145636Y-38952D01*
X-145682Y-38901D01*
X-145722Y-38855D01*
X-145753Y-38820D01*
X-145773Y-38794D01*
X-145778Y-38784D01*
X-145829Y-38703D01*
X-145880Y-38616D01*
X-145921Y-38535D01*
X-145951Y-38453D01*
X-145982Y-38382D01*
X-146002Y-38326D01*
X-146007Y-38306D01*
X-146012Y-38290D01*
X-146017Y-38280D01*
Y-38275D01*
X-146048Y-38153D01*
X-146073Y-38031D01*
X-146089Y-37914D01*
X-146104Y-37802D01*
X-146109Y-37705D01*
Y-37664D01*
X-146114Y-37629D01*
Y-37603D01*
Y-37578D01*
Y-37568D01*
Y-37563D01*
X-146109Y-37389D01*
X-146094Y-37232D01*
X-146068Y-37089D01*
X-146058Y-37023D01*
X-146043Y-36967D01*
X-146028Y-36911D01*
X-146017Y-36865D01*
X-146007Y-36825D01*
X-145992Y-36789D01*
X-145987Y-36758D01*
X-145977Y-36738D01*
X-145972Y-36728D01*
Y-36723D01*
X-145916Y-36590D01*
X-145850Y-36473D01*
X-145778Y-36371D01*
X-145712Y-36285D01*
X-145651Y-36214D01*
X-145600Y-36163D01*
X-145580Y-36147D01*
X-145564Y-36132D01*
X-145559Y-36127D01*
X-145554Y-36122D01*
X-145473Y-36056D01*
X-145386Y-36005D01*
X-145300Y-35959D01*
X-145218Y-35923D01*
X-145147Y-35898D01*
X-145091Y-35883D01*
X-145071Y-35873D01*
X-145055D01*
X-145045Y-35868D01*
X-145040D01*
X-144954Y-35852D01*
X-144852Y-35837D01*
X-144750Y-35827D01*
X-144648Y-35822D01*
X-144557Y-35817D01*
X-143203D01*
Y-39339D01*
D02*
G37*
G36*
X-99050Y-3739D02*
X-99538D01*
X-100281Y-1056D01*
X-100302Y-990D01*
X-100317Y-919D01*
X-100337Y-848D01*
X-100353Y-787D01*
X-100368Y-731D01*
X-100378Y-685D01*
X-100383Y-654D01*
X-100388Y-649D01*
Y-644D01*
X-100393Y-660D01*
X-100398Y-685D01*
X-100414Y-741D01*
X-100434Y-807D01*
X-100454Y-878D01*
X-100470Y-945D01*
X-100485Y-1001D01*
X-100490Y-1026D01*
X-100495Y-1041D01*
X-100500Y-1051D01*
Y-1056D01*
X-101238Y-3739D01*
X-101696D01*
X-102663Y-217D01*
X-102190D01*
X-101640Y-2482D01*
X-101600Y-2640D01*
X-101569Y-2782D01*
X-101539Y-2914D01*
X-101513Y-3026D01*
X-101498Y-3077D01*
X-101493Y-3123D01*
X-101482Y-3159D01*
X-101477Y-3189D01*
X-101467Y-3215D01*
Y-3235D01*
X-101462Y-3245D01*
Y-3250D01*
X-101426Y-3026D01*
X-101381Y-2808D01*
X-101335Y-2599D01*
X-101314Y-2502D01*
X-101289Y-2405D01*
X-101269Y-2319D01*
X-101248Y-2242D01*
X-101228Y-2176D01*
X-101213Y-2115D01*
X-101202Y-2069D01*
X-101192Y-2034D01*
X-101182Y-2008D01*
Y-2003D01*
X-100683Y-217D01*
X-100118D01*
X-99452Y-2599D01*
X-99446Y-2619D01*
X-99436Y-2650D01*
X-99426Y-2690D01*
X-99416Y-2736D01*
X-99401Y-2787D01*
X-99391Y-2843D01*
X-99360Y-2955D01*
X-99335Y-3067D01*
X-99319Y-3118D01*
X-99309Y-3159D01*
X-99304Y-3199D01*
X-99294Y-3225D01*
X-99289Y-3245D01*
Y-3250D01*
X-99263Y-3118D01*
X-99238Y-2986D01*
X-99212Y-2863D01*
X-99187Y-2757D01*
X-99177Y-2706D01*
X-99167Y-2660D01*
X-99156Y-2624D01*
X-99151Y-2589D01*
X-99146Y-2563D01*
X-99141Y-2543D01*
X-99136Y-2533D01*
Y-2527D01*
X-98612Y-217D01*
X-98128D01*
X-99050Y-3739D01*
D02*
G37*
G36*
X-88900D02*
X-89368D01*
Y-2141D01*
X-91022D01*
Y-1723D01*
X-89368D01*
Y-634D01*
X-91282D01*
Y-217D01*
X-88900D01*
Y-3739D01*
D02*
G37*
G36*
X-91868D02*
X-94071D01*
Y-3322D01*
X-92336D01*
Y-217D01*
X-91868D01*
Y-3739D01*
D02*
G37*
G36*
X-96031Y-161D02*
X-95904Y-176D01*
X-95782Y-201D01*
X-95665Y-232D01*
X-95558Y-273D01*
X-95456Y-313D01*
X-95364Y-359D01*
X-95283Y-405D01*
X-95206Y-451D01*
X-95140Y-497D01*
X-95084Y-537D01*
X-95038Y-578D01*
X-95003Y-609D01*
X-94972Y-634D01*
X-94957Y-649D01*
X-94952Y-654D01*
X-94871Y-751D01*
X-94799Y-853D01*
X-94733Y-965D01*
X-94682Y-1077D01*
X-94636Y-1194D01*
X-94596Y-1306D01*
X-94565Y-1418D01*
X-94545Y-1525D01*
X-94525Y-1627D01*
X-94509Y-1723D01*
X-94499Y-1810D01*
X-94489Y-1881D01*
Y-1942D01*
X-94484Y-1988D01*
Y-2018D01*
Y-2024D01*
Y-2029D01*
X-94494Y-2202D01*
X-94514Y-2359D01*
X-94545Y-2512D01*
X-94565Y-2578D01*
X-94586Y-2645D01*
X-94601Y-2701D01*
X-94621Y-2751D01*
X-94636Y-2797D01*
X-94652Y-2838D01*
X-94662Y-2868D01*
X-94672Y-2889D01*
X-94682Y-2904D01*
Y-2909D01*
X-94769Y-3057D01*
X-94860Y-3184D01*
X-94962Y-3296D01*
X-95059Y-3388D01*
X-95145Y-3464D01*
X-95181Y-3495D01*
X-95212Y-3515D01*
X-95242Y-3535D01*
X-95262Y-3551D01*
X-95273Y-3556D01*
X-95278Y-3561D01*
X-95354Y-3602D01*
X-95430Y-3637D01*
X-95583Y-3698D01*
X-95731Y-3739D01*
X-95868Y-3770D01*
X-95934Y-3780D01*
X-95990Y-3785D01*
X-96041Y-3795D01*
X-96087D01*
X-96118Y-3800D01*
X-96169D01*
X-96337Y-3790D01*
X-96494Y-3764D01*
X-96642Y-3734D01*
X-96708Y-3714D01*
X-96769Y-3693D01*
X-96825Y-3673D01*
X-96876Y-3652D01*
X-96917Y-3637D01*
X-96952Y-3622D01*
X-96983Y-3607D01*
X-97008Y-3596D01*
X-97019Y-3586D01*
X-97024D01*
X-97166Y-3495D01*
X-97288Y-3393D01*
X-97390Y-3286D01*
X-97477Y-3184D01*
X-97548Y-3087D01*
X-97573Y-3052D01*
X-97594Y-3016D01*
X-97614Y-2986D01*
X-97624Y-2965D01*
X-97634Y-2950D01*
Y-2945D01*
X-97675Y-2863D01*
X-97706Y-2782D01*
X-97762Y-2619D01*
X-97802Y-2456D01*
X-97828Y-2309D01*
X-97833Y-2242D01*
X-97843Y-2181D01*
X-97848Y-2125D01*
Y-2080D01*
X-97853Y-2039D01*
Y-2013D01*
Y-1993D01*
Y-1988D01*
X-97843Y-1795D01*
X-97823Y-1616D01*
X-97808Y-1535D01*
X-97787Y-1453D01*
X-97767Y-1382D01*
X-97751Y-1316D01*
X-97731Y-1255D01*
X-97711Y-1199D01*
X-97695Y-1153D01*
X-97675Y-1113D01*
X-97665Y-1082D01*
X-97655Y-1062D01*
X-97645Y-1046D01*
Y-1041D01*
X-97563Y-894D01*
X-97466Y-761D01*
X-97365Y-649D01*
X-97273Y-558D01*
X-97186Y-486D01*
X-97146Y-456D01*
X-97115Y-430D01*
X-97085Y-415D01*
X-97064Y-400D01*
X-97054Y-395D01*
X-97049Y-390D01*
X-96973Y-349D01*
X-96896Y-313D01*
X-96749Y-252D01*
X-96596Y-212D01*
X-96464Y-186D01*
X-96403Y-176D01*
X-96342Y-166D01*
X-96296Y-161D01*
X-96250D01*
X-96214Y-156D01*
X-96169D01*
X-96031Y-161D01*
D02*
G37*
G36*
X-160049Y22131D02*
X-159955Y22126D01*
X-159866Y22109D01*
X-159783Y22093D01*
X-159705Y22070D01*
X-159633Y22048D01*
X-159567Y22020D01*
X-159505Y21993D01*
X-159450Y21965D01*
X-159406Y21937D01*
X-159367Y21915D01*
X-159334Y21893D01*
X-159306Y21876D01*
X-159289Y21859D01*
X-159278Y21854D01*
X-159272Y21848D01*
X-159217Y21793D01*
X-159167Y21732D01*
X-159117Y21665D01*
X-159078Y21599D01*
X-159012Y21465D01*
X-158967Y21332D01*
X-158950Y21271D01*
X-158934Y21210D01*
X-158923Y21160D01*
X-158912Y21116D01*
X-158906Y21077D01*
Y21049D01*
X-158901Y21033D01*
Y21027D01*
X-159383Y20977D01*
X-159395Y21105D01*
X-159417Y21216D01*
X-159450Y21316D01*
X-159489Y21393D01*
X-159522Y21460D01*
X-159555Y21504D01*
X-159578Y21532D01*
X-159589Y21543D01*
X-159672Y21610D01*
X-159761Y21660D01*
X-159855Y21699D01*
X-159938Y21721D01*
X-160016Y21737D01*
X-160083Y21743D01*
X-160105Y21748D01*
X-160138D01*
X-160255Y21743D01*
X-160360Y21721D01*
X-160449Y21687D01*
X-160527Y21654D01*
X-160588Y21615D01*
X-160627Y21587D01*
X-160654Y21565D01*
X-160666Y21554D01*
X-160732Y21476D01*
X-160782Y21399D01*
X-160821Y21321D01*
X-160843Y21243D01*
X-160860Y21182D01*
X-160865Y21127D01*
X-160871Y21093D01*
Y21088D01*
Y21082D01*
X-160860Y20983D01*
X-160837Y20877D01*
X-160799Y20783D01*
X-160760Y20694D01*
X-160715Y20622D01*
X-160677Y20561D01*
X-160666Y20539D01*
X-160654Y20522D01*
X-160643Y20516D01*
Y20511D01*
X-160599Y20450D01*
X-160543Y20389D01*
X-160482Y20322D01*
X-160416Y20256D01*
X-160277Y20122D01*
X-160138Y19989D01*
X-160066Y19928D01*
X-160005Y19873D01*
X-159944Y19823D01*
X-159894Y19778D01*
X-159855Y19745D01*
X-159822Y19717D01*
X-159800Y19701D01*
X-159794Y19695D01*
X-159655Y19578D01*
X-159528Y19467D01*
X-159422Y19367D01*
X-159339Y19284D01*
X-159267Y19212D01*
X-159217Y19162D01*
X-159189Y19129D01*
X-159178Y19123D01*
Y19118D01*
X-159100Y19023D01*
X-159039Y18935D01*
X-158984Y18846D01*
X-158939Y18768D01*
X-158906Y18701D01*
X-158884Y18652D01*
X-158873Y18618D01*
X-158867Y18613D01*
Y18607D01*
X-158845Y18546D01*
X-158834Y18491D01*
X-158823Y18435D01*
X-158817Y18385D01*
X-158812Y18341D01*
Y18307D01*
Y18285D01*
Y18280D01*
X-161359D01*
Y18735D01*
X-159467D01*
X-159533Y18829D01*
X-159567Y18868D01*
X-159594Y18907D01*
X-159622Y18940D01*
X-159644Y18962D01*
X-159661Y18979D01*
X-159667Y18984D01*
X-159694Y19012D01*
X-159728Y19040D01*
X-159805Y19112D01*
X-159894Y19195D01*
X-159988Y19279D01*
X-160077Y19351D01*
X-160116Y19384D01*
X-160149Y19417D01*
X-160177Y19440D01*
X-160199Y19456D01*
X-160210Y19467D01*
X-160216Y19473D01*
X-160305Y19551D01*
X-160394Y19623D01*
X-160471Y19695D01*
X-160543Y19756D01*
X-160610Y19817D01*
X-160666Y19873D01*
X-160721Y19922D01*
X-160765Y19967D01*
X-160810Y20011D01*
X-160843Y20045D01*
X-160871Y20072D01*
X-160899Y20100D01*
X-160926Y20133D01*
X-160937Y20144D01*
X-161015Y20239D01*
X-161082Y20322D01*
X-161137Y20405D01*
X-161182Y20472D01*
X-161215Y20533D01*
X-161237Y20577D01*
X-161248Y20605D01*
X-161254Y20616D01*
X-161287Y20699D01*
X-161309Y20783D01*
X-161331Y20861D01*
X-161343Y20927D01*
X-161348Y20988D01*
X-161354Y21033D01*
Y21060D01*
Y21071D01*
X-161348Y21155D01*
X-161337Y21232D01*
X-161326Y21310D01*
X-161304Y21377D01*
X-161248Y21510D01*
X-161193Y21615D01*
X-161159Y21665D01*
X-161132Y21704D01*
X-161104Y21743D01*
X-161076Y21771D01*
X-161054Y21793D01*
X-161043Y21815D01*
X-161032Y21821D01*
X-161026Y21826D01*
X-160965Y21882D01*
X-160899Y21932D01*
X-160826Y21970D01*
X-160754Y22004D01*
X-160610Y22059D01*
X-160466Y22098D01*
X-160405Y22109D01*
X-160344Y22120D01*
X-160288Y22126D01*
X-160244Y22131D01*
X-160205Y22137D01*
X-160149D01*
X-160049Y22131D01*
D02*
G37*
G36*
X-155504Y21665D02*
X-156769D01*
Y18280D01*
X-157280D01*
Y21665D01*
X-158545D01*
Y22120D01*
X-155504D01*
Y21665D01*
D02*
G37*
G36*
X-153389Y22181D02*
X-153262Y22165D01*
X-153140Y22142D01*
X-153034Y22120D01*
X-152951Y22098D01*
X-152912Y22087D01*
X-152884Y22076D01*
X-152862Y22065D01*
X-152846Y22059D01*
X-152834Y22054D01*
X-152829D01*
X-152718Y21998D01*
X-152618Y21937D01*
X-152535Y21871D01*
X-152468Y21810D01*
X-152418Y21754D01*
X-152379Y21710D01*
X-152352Y21676D01*
X-152346Y21671D01*
Y21665D01*
X-152290Y21571D01*
X-152252Y21476D01*
X-152224Y21382D01*
X-152207Y21299D01*
X-152196Y21227D01*
X-152185Y21171D01*
Y21149D01*
Y21132D01*
Y21127D01*
Y21121D01*
X-152191Y21027D01*
X-152207Y20938D01*
X-152229Y20855D01*
X-152252Y20783D01*
X-152274Y20727D01*
X-152296Y20683D01*
X-152313Y20655D01*
X-152318Y20644D01*
X-152374Y20566D01*
X-152440Y20494D01*
X-152507Y20433D01*
X-152574Y20383D01*
X-152629Y20339D01*
X-152679Y20311D01*
X-152712Y20289D01*
X-152718Y20283D01*
X-152723D01*
X-152768Y20261D01*
X-152818Y20239D01*
X-152929Y20200D01*
X-153056Y20161D01*
X-153179Y20122D01*
X-153289Y20089D01*
X-153340Y20078D01*
X-153384Y20067D01*
X-153417Y20056D01*
X-153445Y20050D01*
X-153462Y20045D01*
X-153467D01*
X-153561Y20022D01*
X-153650Y20000D01*
X-153728Y19978D01*
X-153795Y19961D01*
X-153861Y19945D01*
X-153917Y19928D01*
X-153967Y19917D01*
X-154006Y19900D01*
X-154044Y19889D01*
X-154072Y19884D01*
X-154116Y19867D01*
X-154144Y19861D01*
X-154150Y19856D01*
X-154233Y19823D01*
X-154305Y19784D01*
X-154366Y19745D01*
X-154411Y19712D01*
X-154449Y19678D01*
X-154472Y19656D01*
X-154488Y19639D01*
X-154494Y19634D01*
X-154533Y19584D01*
X-154560Y19529D01*
X-154577Y19473D01*
X-154594Y19429D01*
X-154599Y19384D01*
X-154605Y19351D01*
Y19323D01*
Y19318D01*
X-154599Y19251D01*
X-154588Y19190D01*
X-154572Y19134D01*
X-154549Y19090D01*
X-154527Y19046D01*
X-154510Y19018D01*
X-154499Y18996D01*
X-154494Y18990D01*
X-154449Y18935D01*
X-154394Y18890D01*
X-154339Y18851D01*
X-154288Y18812D01*
X-154239Y18790D01*
X-154200Y18768D01*
X-154172Y18757D01*
X-154161Y18751D01*
X-154078Y18724D01*
X-153989Y18701D01*
X-153900Y18690D01*
X-153822Y18679D01*
X-153756Y18674D01*
X-153700Y18668D01*
X-153650D01*
X-153528Y18674D01*
X-153417Y18685D01*
X-153317Y18701D01*
X-153228Y18724D01*
X-153156Y18746D01*
X-153101Y18763D01*
X-153084Y18768D01*
X-153068Y18774D01*
X-153062Y18779D01*
X-153056D01*
X-152968Y18824D01*
X-152884Y18874D01*
X-152823Y18924D01*
X-152768Y18973D01*
X-152723Y19012D01*
X-152696Y19051D01*
X-152679Y19073D01*
X-152673Y19079D01*
X-152635Y19151D01*
X-152596Y19229D01*
X-152574Y19312D01*
X-152551Y19384D01*
X-152535Y19456D01*
X-152524Y19506D01*
Y19529D01*
X-152518Y19545D01*
Y19551D01*
Y19556D01*
X-152041Y19512D01*
X-152052Y19373D01*
X-152074Y19240D01*
X-152107Y19123D01*
X-152146Y19018D01*
X-152185Y18935D01*
X-152202Y18901D01*
X-152213Y18874D01*
X-152229Y18851D01*
X-152235Y18835D01*
X-152246Y18824D01*
Y18818D01*
X-152329Y18713D01*
X-152418Y18618D01*
X-152513Y18541D01*
X-152601Y18474D01*
X-152679Y18424D01*
X-152746Y18391D01*
X-152768Y18380D01*
X-152785Y18369D01*
X-152796Y18363D01*
X-152801D01*
X-152940Y18313D01*
X-153084Y18274D01*
X-153228Y18252D01*
X-153367Y18230D01*
X-153434Y18224D01*
X-153489Y18219D01*
X-153539D01*
X-153584Y18213D01*
X-153673D01*
X-153822Y18219D01*
X-153961Y18235D01*
X-154089Y18263D01*
X-154194Y18291D01*
X-154283Y18313D01*
X-154322Y18330D01*
X-154355Y18341D01*
X-154377Y18352D01*
X-154394Y18357D01*
X-154405Y18363D01*
X-154411D01*
X-154527Y18424D01*
X-154627Y18491D01*
X-154716Y18563D01*
X-154788Y18629D01*
X-154843Y18685D01*
X-154882Y18735D01*
X-154910Y18768D01*
X-154916Y18774D01*
Y18779D01*
X-154977Y18885D01*
X-155021Y18984D01*
X-155049Y19079D01*
X-155071Y19168D01*
X-155082Y19245D01*
X-155093Y19307D01*
Y19329D01*
Y19345D01*
Y19351D01*
Y19356D01*
X-155088Y19467D01*
X-155071Y19573D01*
X-155043Y19667D01*
X-155016Y19745D01*
X-154982Y19812D01*
X-154960Y19861D01*
X-154938Y19889D01*
X-154932Y19900D01*
X-154866Y19984D01*
X-154788Y20061D01*
X-154705Y20128D01*
X-154622Y20189D01*
X-154549Y20233D01*
X-154488Y20267D01*
X-154466Y20278D01*
X-154449Y20289D01*
X-154438Y20294D01*
X-154433D01*
X-154388Y20317D01*
X-154333Y20333D01*
X-154272Y20355D01*
X-154205Y20378D01*
X-154067Y20416D01*
X-153922Y20455D01*
X-153856Y20472D01*
X-153795Y20489D01*
X-153734Y20505D01*
X-153684Y20516D01*
X-153645Y20527D01*
X-153611Y20533D01*
X-153589Y20539D01*
X-153584D01*
X-153473Y20566D01*
X-153373Y20588D01*
X-153284Y20616D01*
X-153206Y20639D01*
X-153134Y20666D01*
X-153073Y20688D01*
X-153018Y20711D01*
X-152968Y20727D01*
X-152929Y20749D01*
X-152895Y20766D01*
X-152873Y20777D01*
X-152851Y20794D01*
X-152823Y20810D01*
X-152818Y20816D01*
X-152768Y20872D01*
X-152734Y20927D01*
X-152707Y20983D01*
X-152690Y21038D01*
X-152679Y21082D01*
X-152673Y21121D01*
Y21144D01*
Y21155D01*
X-152685Y21243D01*
X-152707Y21321D01*
X-152740Y21388D01*
X-152779Y21449D01*
X-152812Y21493D01*
X-152846Y21532D01*
X-152868Y21554D01*
X-152879Y21560D01*
X-152923Y21587D01*
X-152968Y21615D01*
X-153073Y21660D01*
X-153184Y21687D01*
X-153295Y21710D01*
X-153395Y21721D01*
X-153439Y21726D01*
X-153473Y21732D01*
X-153550D01*
X-153706Y21726D01*
X-153844Y21704D01*
X-153955Y21671D01*
X-154050Y21637D01*
X-154122Y21604D01*
X-154177Y21571D01*
X-154205Y21549D01*
X-154216Y21543D01*
X-154294Y21465D01*
X-154355Y21382D01*
X-154405Y21293D01*
X-154438Y21205D01*
X-154461Y21121D01*
X-154477Y21060D01*
X-154483Y21033D01*
X-154488Y21016D01*
Y21005D01*
Y20999D01*
X-154977Y21038D01*
X-154966Y21160D01*
X-154938Y21271D01*
X-154910Y21377D01*
X-154871Y21465D01*
X-154838Y21538D01*
X-154810Y21593D01*
X-154799Y21610D01*
X-154788Y21626D01*
X-154782Y21632D01*
Y21637D01*
X-154710Y21732D01*
X-154633Y21815D01*
X-154549Y21887D01*
X-154466Y21943D01*
X-154394Y21993D01*
X-154339Y22020D01*
X-154316Y22031D01*
X-154300Y22043D01*
X-154288Y22048D01*
X-154283D01*
X-154161Y22093D01*
X-154028Y22126D01*
X-153906Y22154D01*
X-153789Y22170D01*
X-153684Y22181D01*
X-153645D01*
X-153606Y22187D01*
X-153534D01*
X-153389Y22181D01*
D02*
G37*
G36*
X151754Y22743D02*
X151815Y22654D01*
X151887Y22565D01*
X151954Y22487D01*
X152020Y22421D01*
X152070Y22365D01*
X152093Y22349D01*
X152109Y22332D01*
X152115Y22326D01*
X152120Y22321D01*
X152237Y22226D01*
X152353Y22138D01*
X152464Y22060D01*
X152575Y21999D01*
X152670Y21943D01*
X152708Y21921D01*
X152742Y21905D01*
X152770Y21888D01*
X152792Y21882D01*
X152803Y21871D01*
X152808D01*
Y21416D01*
X152725Y21449D01*
X152642Y21488D01*
X152559Y21527D01*
X152481Y21566D01*
X152414Y21599D01*
X152359Y21627D01*
X152326Y21649D01*
X152320Y21655D01*
X152314D01*
X152215Y21716D01*
X152126Y21777D01*
X152048Y21832D01*
X151987Y21882D01*
X151932Y21921D01*
X151898Y21955D01*
X151871Y21977D01*
X151865Y21982D01*
Y18980D01*
X151393D01*
Y22837D01*
X151699D01*
X151754Y22743D01*
D02*
G37*
G36*
X156544Y22365D02*
X155278D01*
Y18980D01*
X154768D01*
Y22365D01*
X153502D01*
Y22820D01*
X156544D01*
Y22365D01*
D02*
G37*
G36*
X158658Y22881D02*
X158786Y22865D01*
X158908Y22842D01*
X159013Y22820D01*
X159097Y22798D01*
X159135Y22787D01*
X159163Y22776D01*
X159185Y22765D01*
X159202Y22759D01*
X159213Y22754D01*
X159219D01*
X159330Y22698D01*
X159430Y22637D01*
X159513Y22571D01*
X159579Y22510D01*
X159629Y22454D01*
X159668Y22410D01*
X159696Y22376D01*
X159702Y22371D01*
Y22365D01*
X159757Y22271D01*
X159796Y22176D01*
X159824Y22082D01*
X159840Y21999D01*
X159851Y21927D01*
X159862Y21871D01*
Y21849D01*
Y21832D01*
Y21827D01*
Y21821D01*
X159857Y21727D01*
X159840Y21638D01*
X159818Y21555D01*
X159796Y21483D01*
X159774Y21427D01*
X159751Y21383D01*
X159735Y21355D01*
X159729Y21344D01*
X159674Y21266D01*
X159607Y21194D01*
X159541Y21133D01*
X159474Y21083D01*
X159418Y21039D01*
X159369Y21011D01*
X159335Y20989D01*
X159330Y20983D01*
X159324D01*
X159280Y20961D01*
X159230Y20939D01*
X159119Y20900D01*
X158991Y20861D01*
X158869Y20822D01*
X158758Y20789D01*
X158708Y20778D01*
X158664Y20767D01*
X158630Y20756D01*
X158603Y20750D01*
X158586Y20745D01*
X158580D01*
X158486Y20722D01*
X158397Y20700D01*
X158320Y20678D01*
X158253Y20661D01*
X158186Y20645D01*
X158131Y20628D01*
X158081Y20617D01*
X158042Y20600D01*
X158003Y20589D01*
X157975Y20584D01*
X157931Y20567D01*
X157903Y20561D01*
X157898Y20556D01*
X157815Y20523D01*
X157742Y20484D01*
X157681Y20445D01*
X157637Y20412D01*
X157598Y20378D01*
X157576Y20356D01*
X157559Y20339D01*
X157554Y20334D01*
X157515Y20284D01*
X157487Y20229D01*
X157471Y20173D01*
X157454Y20129D01*
X157448Y20084D01*
X157443Y20051D01*
Y20023D01*
Y20018D01*
X157448Y19951D01*
X157459Y19890D01*
X157476Y19834D01*
X157498Y19790D01*
X157520Y19746D01*
X157537Y19718D01*
X157548Y19696D01*
X157554Y19690D01*
X157598Y19635D01*
X157654Y19590D01*
X157709Y19551D01*
X157759Y19512D01*
X157809Y19490D01*
X157848Y19468D01*
X157876Y19457D01*
X157887Y19451D01*
X157970Y19424D01*
X158059Y19401D01*
X158148Y19390D01*
X158225Y19379D01*
X158292Y19374D01*
X158347Y19368D01*
X158397D01*
X158519Y19374D01*
X158630Y19385D01*
X158730Y19401D01*
X158819Y19424D01*
X158891Y19446D01*
X158947Y19463D01*
X158963Y19468D01*
X158980Y19474D01*
X158986Y19479D01*
X158991D01*
X159080Y19524D01*
X159163Y19574D01*
X159224Y19624D01*
X159280Y19673D01*
X159324Y19712D01*
X159352Y19751D01*
X159369Y19773D01*
X159374Y19779D01*
X159413Y19851D01*
X159452Y19929D01*
X159474Y20012D01*
X159496Y20084D01*
X159513Y20156D01*
X159524Y20206D01*
Y20229D01*
X159529Y20245D01*
Y20251D01*
Y20256D01*
X160007Y20212D01*
X159996Y20073D01*
X159974Y19940D01*
X159940Y19823D01*
X159901Y19718D01*
X159862Y19635D01*
X159846Y19601D01*
X159835Y19574D01*
X159818Y19551D01*
X159813Y19535D01*
X159801Y19524D01*
Y19518D01*
X159718Y19413D01*
X159629Y19318D01*
X159535Y19241D01*
X159446Y19174D01*
X159369Y19124D01*
X159302Y19091D01*
X159280Y19080D01*
X159263Y19069D01*
X159252Y19063D01*
X159247D01*
X159108Y19013D01*
X158963Y18974D01*
X158819Y18952D01*
X158680Y18930D01*
X158614Y18924D01*
X158558Y18919D01*
X158508D01*
X158464Y18913D01*
X158375D01*
X158225Y18919D01*
X158087Y18935D01*
X157959Y18963D01*
X157853Y18991D01*
X157765Y19013D01*
X157726Y19030D01*
X157693Y19041D01*
X157670Y19052D01*
X157654Y19057D01*
X157642Y19063D01*
X157637D01*
X157520Y19124D01*
X157421Y19191D01*
X157332Y19263D01*
X157260Y19329D01*
X157204Y19385D01*
X157165Y19435D01*
X157137Y19468D01*
X157132Y19474D01*
Y19479D01*
X157071Y19585D01*
X157026Y19684D01*
X156999Y19779D01*
X156976Y19868D01*
X156965Y19945D01*
X156954Y20007D01*
Y20029D01*
Y20045D01*
Y20051D01*
Y20056D01*
X156960Y20167D01*
X156976Y20273D01*
X157004Y20367D01*
X157032Y20445D01*
X157065Y20512D01*
X157088Y20561D01*
X157110Y20589D01*
X157115Y20600D01*
X157182Y20684D01*
X157260Y20761D01*
X157343Y20828D01*
X157426Y20889D01*
X157498Y20933D01*
X157559Y20967D01*
X157581Y20978D01*
X157598Y20989D01*
X157609Y20994D01*
X157615D01*
X157659Y21017D01*
X157715Y21033D01*
X157776Y21055D01*
X157842Y21078D01*
X157981Y21116D01*
X158125Y21155D01*
X158192Y21172D01*
X158253Y21189D01*
X158314Y21205D01*
X158364Y21216D01*
X158403Y21227D01*
X158436Y21233D01*
X158458Y21239D01*
X158464D01*
X158575Y21266D01*
X158675Y21289D01*
X158764Y21316D01*
X158841Y21339D01*
X158913Y21366D01*
X158975Y21388D01*
X159030Y21411D01*
X159080Y21427D01*
X159119Y21449D01*
X159152Y21466D01*
X159174Y21477D01*
X159196Y21494D01*
X159224Y21510D01*
X159230Y21516D01*
X159280Y21572D01*
X159313Y21627D01*
X159341Y21683D01*
X159357Y21738D01*
X159369Y21782D01*
X159374Y21821D01*
Y21844D01*
Y21855D01*
X159363Y21943D01*
X159341Y22021D01*
X159308Y22088D01*
X159269Y22149D01*
X159235Y22193D01*
X159202Y22232D01*
X159180Y22254D01*
X159169Y22260D01*
X159124Y22287D01*
X159080Y22315D01*
X158975Y22360D01*
X158863Y22387D01*
X158753Y22410D01*
X158653Y22421D01*
X158608Y22426D01*
X158575Y22432D01*
X158497D01*
X158342Y22426D01*
X158203Y22404D01*
X158092Y22371D01*
X157998Y22337D01*
X157925Y22304D01*
X157870Y22271D01*
X157842Y22249D01*
X157831Y22243D01*
X157754Y22165D01*
X157693Y22082D01*
X157642Y21993D01*
X157609Y21905D01*
X157587Y21821D01*
X157570Y21760D01*
X157565Y21733D01*
X157559Y21716D01*
Y21705D01*
Y21699D01*
X157071Y21738D01*
X157082Y21860D01*
X157110Y21971D01*
X157137Y22077D01*
X157176Y22165D01*
X157210Y22238D01*
X157237Y22293D01*
X157248Y22310D01*
X157260Y22326D01*
X157265Y22332D01*
Y22337D01*
X157337Y22432D01*
X157415Y22515D01*
X157498Y22587D01*
X157581Y22643D01*
X157654Y22693D01*
X157709Y22720D01*
X157731Y22731D01*
X157748Y22743D01*
X157759Y22748D01*
X157765D01*
X157887Y22793D01*
X158020Y22826D01*
X158142Y22854D01*
X158258Y22870D01*
X158364Y22881D01*
X158403D01*
X158442Y22887D01*
X158514D01*
X158658Y22881D01*
D02*
G37*
%LPC*%
G36*
X-143671Y-36234D02*
X-144485D01*
X-144552Y-36239D01*
X-144618D01*
X-144679Y-36244D01*
X-144781Y-36259D01*
X-144862Y-36270D01*
X-144928Y-36285D01*
X-144974Y-36300D01*
X-144999Y-36305D01*
X-145010Y-36310D01*
X-145101Y-36356D01*
X-145188Y-36412D01*
X-145264Y-36478D01*
X-145330Y-36544D01*
X-145381Y-36606D01*
X-145422Y-36656D01*
X-145432Y-36677D01*
X-145442Y-36692D01*
X-145452Y-36702D01*
Y-36707D01*
X-145483Y-36763D01*
X-145513Y-36830D01*
X-145559Y-36962D01*
X-145590Y-37104D01*
X-145615Y-37242D01*
X-145620Y-37303D01*
X-145625Y-37364D01*
X-145631Y-37415D01*
Y-37461D01*
X-145636Y-37501D01*
Y-37527D01*
Y-37547D01*
Y-37552D01*
X-145631Y-37695D01*
X-145620Y-37827D01*
X-145605Y-37944D01*
X-145590Y-38046D01*
X-145580Y-38087D01*
X-145570Y-38122D01*
X-145559Y-38158D01*
X-145554Y-38184D01*
X-145549Y-38204D01*
X-145544Y-38219D01*
X-145539Y-38229D01*
Y-38234D01*
X-145503Y-38331D01*
X-145463Y-38418D01*
X-145417Y-38494D01*
X-145376Y-38560D01*
X-145341Y-38611D01*
X-145310Y-38647D01*
X-145290Y-38667D01*
X-145284Y-38677D01*
X-145234Y-38718D01*
X-145183Y-38754D01*
X-145132Y-38784D01*
X-145081Y-38815D01*
X-145035Y-38835D01*
X-144999Y-38850D01*
X-144974Y-38855D01*
X-144964Y-38860D01*
X-144887Y-38881D01*
X-144796Y-38896D01*
X-144704Y-38906D01*
X-144618Y-38911D01*
X-144541Y-38916D01*
X-144506Y-38921D01*
X-143671D01*
Y-36234D01*
D02*
G37*
G36*
X-96123Y-558D02*
X-96169D01*
X-96296Y-563D01*
X-96418Y-583D01*
X-96525Y-614D01*
X-96616Y-644D01*
X-96693Y-680D01*
X-96723Y-695D01*
X-96749Y-705D01*
X-96774Y-721D01*
X-96789Y-726D01*
X-96795Y-736D01*
X-96800D01*
X-96896Y-807D01*
X-96983Y-888D01*
X-97059Y-970D01*
X-97120Y-1051D01*
X-97166Y-1123D01*
X-97202Y-1184D01*
X-97212Y-1204D01*
X-97222Y-1219D01*
X-97227Y-1230D01*
Y-1235D01*
X-97278Y-1357D01*
X-97314Y-1489D01*
X-97339Y-1611D01*
X-97355Y-1728D01*
X-97365Y-1784D01*
X-97370Y-1830D01*
Y-1876D01*
X-97375Y-1912D01*
Y-1942D01*
Y-1963D01*
Y-1978D01*
Y-1983D01*
X-97370Y-2105D01*
X-97360Y-2222D01*
X-97344Y-2334D01*
X-97324Y-2436D01*
X-97293Y-2527D01*
X-97268Y-2614D01*
X-97237Y-2695D01*
X-97207Y-2767D01*
X-97171Y-2828D01*
X-97141Y-2884D01*
X-97115Y-2930D01*
X-97090Y-2965D01*
X-97064Y-2996D01*
X-97049Y-3021D01*
X-97039Y-3031D01*
X-97034Y-3036D01*
X-96968Y-3103D01*
X-96896Y-3159D01*
X-96825Y-3204D01*
X-96754Y-3250D01*
X-96683Y-3286D01*
X-96606Y-3311D01*
X-96540Y-3337D01*
X-96469Y-3357D01*
X-96408Y-3372D01*
X-96347Y-3383D01*
X-96296Y-3393D01*
X-96250Y-3398D01*
X-96214D01*
X-96189Y-3403D01*
X-96163D01*
X-96067Y-3398D01*
X-95975Y-3388D01*
X-95894Y-3367D01*
X-95812Y-3347D01*
X-95736Y-3316D01*
X-95665Y-3286D01*
X-95598Y-3255D01*
X-95537Y-3220D01*
X-95486Y-3184D01*
X-95441Y-3154D01*
X-95400Y-3123D01*
X-95364Y-3093D01*
X-95339Y-3072D01*
X-95319Y-3052D01*
X-95308Y-3042D01*
X-95303Y-3036D01*
X-95242Y-2965D01*
X-95191Y-2889D01*
X-95145Y-2808D01*
X-95105Y-2726D01*
X-95074Y-2640D01*
X-95044Y-2558D01*
X-95003Y-2395D01*
X-94993Y-2324D01*
X-94983Y-2253D01*
X-94972Y-2192D01*
X-94967Y-2141D01*
X-94962Y-2095D01*
Y-2059D01*
Y-2039D01*
Y-2034D01*
X-94967Y-1891D01*
X-94977Y-1759D01*
X-94993Y-1632D01*
X-95018Y-1520D01*
X-95044Y-1418D01*
X-95074Y-1326D01*
X-95110Y-1240D01*
X-95140Y-1168D01*
X-95176Y-1102D01*
X-95206Y-1046D01*
X-95237Y-1001D01*
X-95262Y-965D01*
X-95288Y-934D01*
X-95303Y-914D01*
X-95313Y-904D01*
X-95319Y-899D01*
X-95385Y-838D01*
X-95456Y-787D01*
X-95527Y-741D01*
X-95604Y-700D01*
X-95675Y-670D01*
X-95746Y-639D01*
X-95878Y-598D01*
X-95939Y-588D01*
X-95995Y-578D01*
X-96041Y-568D01*
X-96087Y-563D01*
X-96123Y-558D01*
D02*
G37*
%LPD*%
D10*
X73992Y-13953D02*
G03*
X74386Y-13953I197J0D01*
G01*
D02*
G03*
X73992Y-13953I-197J0D01*
G01*
D02*
G03*
X74386Y-13953I197J0D01*
G01*
X-126004Y-40748D02*
X-113996D01*
X-126004Y10748D02*
X-113996D01*
D11*
X-106024Y-40591D02*
G03*
X-106024Y-40591I-197J0D01*
G01*
X55094Y11598D02*
Y12405D01*
X66905D01*
Y11598D02*
Y12405D01*
Y-14386D02*
Y-13598D01*
X55094Y-14386D02*
X66905D01*
X55094D02*
Y-13598D01*
D13*
X64599Y24499D02*
X65598Y25499D01*
X67598D01*
X68597Y24499D01*
Y20501D01*
X67598Y19501D01*
X65598D01*
X64599Y20501D01*
X62599Y19501D02*
Y25499D01*
X58601Y19501D01*
Y25499D01*
X56601Y24499D02*
X55602Y25499D01*
X53602D01*
X52603Y24499D01*
Y23500D01*
X53602Y22500D01*
X54602D01*
X53602D01*
X52603Y21500D01*
Y20501D01*
X53602Y19501D01*
X55602D01*
X56601Y20501D01*
X-113501Y23999D02*
X-112502Y24999D01*
X-110502D01*
X-109503Y23999D01*
Y20001D01*
X-110502Y19001D01*
X-112502D01*
X-113501Y20001D01*
X-115501Y19001D02*
Y24999D01*
X-119499Y19001D01*
Y24999D01*
X-125497Y19001D02*
X-121499D01*
X-125497Y23000D01*
Y23999D01*
X-124498Y24999D01*
X-122498D01*
X-121499Y23999D01*
M02*
