G04*
G04 #@! TF.GenerationSoftware,Altium Limited,Altium Designer,21.4.1 (30)*
G04*
G04 Layer_Color=255*
%FSLAX25Y25*%
%MOIN*%
G70*
G04*
G04 #@! TF.SameCoordinates,E1CA7C7D-416C-4424-9A17-3CD1BDAA3B9A*
G04*
G04*
G04 #@! TF.FilePolarity,Positive*
G04*
G01*
G75*
%ADD14R,0.07874X0.02362*%
%ADD15R,0.03937X0.03937*%
%ADD29C,0.22028*%
%ADD30C,0.08563*%
%ADD31P,0.12110X4X90.0*%
%ADD32C,0.05315*%
%ADD33R,0.05315X0.05315*%
%ADD34C,0.17717*%
D14*
X110820Y25591D02*
D03*
Y21654D02*
D03*
Y17717D02*
D03*
Y13780D02*
D03*
Y9843D02*
D03*
Y5906D02*
D03*
Y1969D02*
D03*
Y-1969D02*
D03*
Y-5906D02*
D03*
Y-9843D02*
D03*
Y-13780D02*
D03*
Y-17717D02*
D03*
Y-21654D02*
D03*
Y-25591D02*
D03*
X124600Y25591D02*
D03*
Y21654D02*
D03*
Y17717D02*
D03*
Y13780D02*
D03*
Y9843D02*
D03*
Y5906D02*
D03*
Y1969D02*
D03*
Y-1969D02*
D03*
Y-5906D02*
D03*
Y-9843D02*
D03*
Y-13780D02*
D03*
Y-17717D02*
D03*
Y-21654D02*
D03*
Y-25591D02*
D03*
D15*
X13500Y7362D02*
D03*
Y1638D02*
D03*
X4700Y7362D02*
D03*
Y1638D02*
D03*
D29*
X-156000Y0D02*
D03*
X156000D02*
D03*
D30*
X-74458Y119842D02*
D03*
X-60316Y105700D02*
D03*
X-81529Y112771D02*
D03*
X-67387Y98629D02*
D03*
X-88600Y105700D02*
D03*
X-74458Y91558D02*
D03*
X-95671Y98629D02*
D03*
X-81529Y84487D02*
D03*
X-102742Y91558D02*
D03*
X-88600Y77416D02*
D03*
X-109813Y84487D02*
D03*
X-95671Y70345D02*
D03*
X-116884Y77416D02*
D03*
X-102742Y63274D02*
D03*
X-123955Y70345D02*
D03*
D31*
X-109813Y56203D02*
D03*
D32*
X24500Y-315D02*
D03*
Y-47559D02*
D03*
Y-39685D02*
D03*
Y-8189D02*
D03*
Y-16063D02*
D03*
Y-23937D02*
D03*
Y-31811D02*
D03*
X-70000Y-39685D02*
D03*
Y-47559D02*
D03*
Y-31811D02*
D03*
Y-315D02*
D03*
Y-8189D02*
D03*
Y-16063D02*
D03*
Y-23937D02*
D03*
D33*
X24500Y7559D02*
D03*
X-70000D02*
D03*
D34*
X-19700Y-146000D02*
D03*
Y146000D02*
D03*
M02*
