M48
;Layer_Color=9474304
;FILE_FORMAT=2:5
INCH,LZ
;TYPE=PLATED
T1F00S00C0.01200
T2F00S00C0.02800
T3F00S00C0.04016
T4F00S00C0.04331
T5F00S00C0.04724
T6F00S00C0.13780
;TYPE=NON_PLATED
T7F00S00C0.12992
%
T01
X-00128Y-01519
X-00045Y-01532
X00653Y-00755
X00656Y-00663
X00904Y-00877
X0097
X00916Y-00954
X00725Y-00205
X-00069Y-0011
X-00127Y-00123
X00009Y00818
X0001Y00962
X-00477Y00705
X-00524Y00502
X-0068Y00896
T02
X-011Y-0067
X-01096Y-00534
X-01011Y-00133
X-00243Y-00294
Y-00804
X-00652Y-01072
X00394Y-01103
Y-01268
X00593Y-01265
X00722Y-01335
X00777Y-00986
X00882Y-01073
X01068Y-01072
X01071Y-00996
X00823Y-00713
X01071Y-00411
X0064Y-00149
X011Y00054
X-00088Y00066
X-00084Y00345
X-00036Y00501
X-0006Y00694
X-00285Y00756
X-00479Y00822
X-007265Y00706
X-00915
X-006335Y00389
X-00695Y00198
X-00626Y00045
X-0041341Y0025559
X-00355Y00413
X-00373Y0049
X-00148Y00491
X-00212Y00414
T03
X-01361Y-00705
Y-00605
X-0053018Y-0151224
X-0043359Y-0153812
X-00337Y-01564
X00445Y-00789
X00545
X-01399Y00282
X-01499
T04
X0046Y-003622
Y-0022441
Y-0008661
Y0005118
Y0018898
Y0032677
Y0046457
Y0060236
Y0074016
T05
X-0084564Y-010689
X-0025548
X0046Y-005
T06
X0153543Y0
X-0153543
T07
X-0084564Y0000118
X-0025548
M30
