M48
;Layer_Color=9474304
;FILE_FORMAT=4:4
METRIC,TZ
;TYPE=PLATED
T1F00S00C0.3000
T2F00S00C0.4500
T3F00S00C0.5000
T4F00S00C0.8000
T5F00S00C1.0200
T6F00S00C1.1000
T7F00S00C1.1500
T8F00S00C1.2000
T9F00S00C1.3000
T10F00S00C1.3000
T11F00S00C3.6000
;TYPE=NON_PLATED
T12F00S00C3.3000
T13F00S00C3.4000
%
T01
X426750Y692500
X620290Y641320
T02
X59750Y195250
X61500Y231730
X72750Y251000
X133250Y227250
X145000Y223000
X201000Y222500
X148500Y288000
X181250Y351750
X164500Y112750
X708790Y346040
X622500Y619979
X305180Y625790
X287180Y636790
X274180Y603790
X244680Y654790
T03
X149000Y265750
X617000Y342250
X804000Y762000
X775540Y651570
X644150Y696970
X599790Y686320
X549030Y621530
X477000Y679830
X470500Y446250
X449250Y420250
X429250Y471250
X410000Y498000
X509000Y459000
X530000Y432000
X708790Y403210
X390000Y532000
X338000Y544000
Y483000
X287450Y569920
X317930Y627070
X357930Y626540
X357680Y687290
X323930Y701710
X304500Y706000
X246250Y768750
X379500Y809750
T04
X390000Y360000
X410000
X430000
X450000
X470000
X490000
X510000
X530000
Y600000
X510000
X490000
X470000
X450000
X430000
X410000
X390000
T05
X157600Y35750
X183000
X183150Y68500
X157750
X916543Y25568
X941943
X498750Y664550
Y689950
X458940Y743900
Y769300
X433540
Y743900
X190250Y759350
Y784750
Y810150
X433540Y820100
X458940
Y794700
X433540
T06
X97300Y305700
Y331100
Y356500
Y381900
X122700
Y356500
Y331100
Y305700
Y407300
Y432700
Y458100
Y483500
Y508900
Y534300
X97300
Y508900
Y483500
Y458100
Y432700
Y407300
T07
X617300Y359200
Y384600
X642700
X642800Y358950
X642700Y410000
Y435400
X617300
Y410000
Y460800
X642700
T08
X258500Y97693
Y247593
T09
X69250Y704750
X352850Y770000
T10
X639650Y770000
X677750
X733450
X771550
X314750
X276650
X69250Y666650
Y628550
T11
X60000Y60000
X1000000
Y790000
X60000Y780000
T12
X530300Y97693
Y247593
T13
X530300Y172643
M30
