G04*
G04 #@! TF.GenerationSoftware,Altium Limited,Altium Designer,21.4.1 (30)*
G04*
G04 Layer_Color=16711935*
%FSLAX44Y44*%
%MOMM*%
G71*
G04*
G04 #@! TF.SameCoordinates,C757E9F2-7087-4A76-99C7-233D7C25EA9E*
G04*
G04*
G04 #@! TF.FilePolarity,Negative*
G04*
G01*
G75*
%ADD44C,6.2032*%
%ADD45R,1.9032X1.9032*%
%ADD46C,1.9032*%
%ADD47C,2.3000*%
%ADD48R,2.3000X2.3000*%
%ADD49R,2.3000X2.3000*%
%ADD50C,3.3000*%
%ADD51C,3.6000*%
%ADD52C,3.7000*%
%ADD53R,1.9032X1.9032*%
%ADD54R,1.5532X1.5532*%
%ADD55C,1.5532*%
%ADD56C,1.9282*%
%ADD57R,1.9282X1.9282*%
D44*
X60000Y780000D02*
D03*
Y60000D02*
D03*
X1000000D02*
D03*
Y790000D02*
D03*
D45*
X433540Y820100D02*
D03*
X122700Y305700D02*
D03*
X190250Y759350D02*
D03*
X498750Y664550D02*
D03*
D46*
X458940Y820100D02*
D03*
X433540Y794700D02*
D03*
X458940D02*
D03*
X433540Y769300D02*
D03*
X458940D02*
D03*
X433540Y743900D02*
D03*
X458940D02*
D03*
X157750Y68500D02*
D03*
X157600Y35750D02*
D03*
X97300Y534300D02*
D03*
X122700D02*
D03*
X97300Y508900D02*
D03*
X122700D02*
D03*
X97300Y483500D02*
D03*
X122700D02*
D03*
X97300Y458100D02*
D03*
X122700D02*
D03*
X97300Y432700D02*
D03*
X122700D02*
D03*
X97300Y407300D02*
D03*
X122700D02*
D03*
X97300Y381900D02*
D03*
X122700D02*
D03*
X97300Y356500D02*
D03*
X122700D02*
D03*
X97300Y331100D02*
D03*
X122700D02*
D03*
X97300Y305700D02*
D03*
X190250Y784750D02*
D03*
Y810150D02*
D03*
X916543Y25568D02*
D03*
X498750Y689950D02*
D03*
D47*
X677750Y770000D02*
D03*
X69250Y666650D02*
D03*
Y704750D02*
D03*
X352850Y770000D02*
D03*
X314750D02*
D03*
X771550D02*
D03*
D48*
X639650D02*
D03*
X276650D02*
D03*
X733450D02*
D03*
D49*
X69250Y628550D02*
D03*
D50*
X258500Y97693D02*
D03*
Y247593D02*
D03*
D51*
X530300Y97693D02*
D03*
Y247593D02*
D03*
D52*
Y172643D02*
D03*
D53*
X183150Y68500D02*
D03*
X183000Y35750D02*
D03*
X941943Y25568D02*
D03*
D54*
X530000Y360000D02*
D03*
Y600000D02*
D03*
D55*
X510000Y360000D02*
D03*
X490000D02*
D03*
X470000D02*
D03*
X450000D02*
D03*
X430000D02*
D03*
X410000D02*
D03*
X390000D02*
D03*
Y600000D02*
D03*
X410000D02*
D03*
X430000D02*
D03*
X450000D02*
D03*
X470000D02*
D03*
X490000D02*
D03*
X510000D02*
D03*
D56*
X642700Y410000D02*
D03*
Y384600D02*
D03*
Y435400D02*
D03*
X617300Y410000D02*
D03*
Y384600D02*
D03*
Y435400D02*
D03*
X642700Y460800D02*
D03*
X617300Y359200D02*
D03*
Y460800D02*
D03*
D57*
X642800Y358950D02*
D03*
M02*
