G04*
G04 #@! TF.GenerationSoftware,Altium Limited,Altium Designer,21.4.1 (30)*
G04*
G04 Layer_Physical_Order=2*
G04 Layer_Color=16711680*
%FSLAX44Y44*%
%MOMM*%
G71*
G04*
G04 #@! TF.SameCoordinates,C757E9F2-7087-4A76-99C7-233D7C25EA9E*
G04*
G04*
G04 #@! TF.FilePolarity,Positive*
G04*
G01*
G75*
%ADD10C,0.2000*%
%ADD19C,0.2540*%
%ADD59C,0.5000*%
%ADD60C,1.0000*%
%ADD63C,6.0000*%
%ADD64R,1.7000X1.7000*%
%ADD65C,1.7000*%
%ADD66C,2.0000*%
%ADD67R,2.0000X2.0000*%
%ADD68R,2.0000X2.0000*%
%ADD69C,3.0000*%
%ADD70C,3.3000*%
%ADD71C,3.4000*%
%ADD72R,1.7000X1.7000*%
%ADD73R,1.3500X1.3500*%
%ADD74C,1.3500*%
%ADD75C,1.7250*%
%ADD76R,1.7250X1.7250*%
%ADD77C,0.9000*%
%ADD78C,1.0000*%
%ADD79C,0.6000*%
G36*
X1050000Y10000D02*
X10000D01*
Y830000D01*
X423040D01*
Y810584D01*
X385946D01*
X385833Y811447D01*
X385178Y813028D01*
X384136Y814386D01*
X382778Y815428D01*
X381197Y816083D01*
X379500Y816306D01*
X377803Y816083D01*
X376222Y815428D01*
X374864Y814386D01*
X373822Y813028D01*
X373167Y811447D01*
X372944Y809750D01*
X373167Y808053D01*
X373822Y806472D01*
X374864Y805114D01*
X376222Y804072D01*
X377803Y803417D01*
X379500Y803194D01*
X381197Y803417D01*
X382504Y803959D01*
X382718Y803916D01*
X425017D01*
X425580Y802976D01*
X425842Y801916D01*
X424368Y799995D01*
X423310Y797441D01*
X422949Y794700D01*
X423310Y791959D01*
X424368Y789405D01*
X426051Y787211D01*
X428245Y785528D01*
X430799Y784470D01*
X433540Y784109D01*
X436281Y784470D01*
X438835Y785528D01*
X441029Y787211D01*
X442712Y789405D01*
X443770Y791959D01*
X444131Y794700D01*
X443770Y797441D01*
X442712Y799995D01*
X441238Y801916D01*
X441500Y802976D01*
X442063Y803916D01*
X446599D01*
X450094Y800420D01*
X449768Y799995D01*
X448710Y797441D01*
X448349Y794700D01*
X448710Y791959D01*
X449768Y789405D01*
X451451Y787211D01*
X453645Y785528D01*
X456199Y784470D01*
X458940Y784109D01*
X461681Y784470D01*
X464235Y785528D01*
X466429Y787211D01*
X468112Y789405D01*
X469170Y791959D01*
X469531Y794700D01*
X469170Y797441D01*
X468112Y799995D01*
X466429Y802189D01*
X464235Y803872D01*
X461681Y804930D01*
X458940Y805291D01*
X456199Y804930D01*
X455362Y804583D01*
X450337Y809607D01*
X449256Y810330D01*
X447980Y810584D01*
X444040D01*
Y830000D01*
X451308D01*
X451987Y828000D01*
X451451Y827589D01*
X449768Y825395D01*
X448710Y822841D01*
X448349Y820100D01*
X448710Y817359D01*
X449768Y814805D01*
X451451Y812611D01*
X453645Y810928D01*
X456199Y809870D01*
X458940Y809509D01*
X461681Y809870D01*
X464235Y810928D01*
X466429Y812611D01*
X468112Y814805D01*
X469170Y817359D01*
X469531Y820100D01*
X469170Y822841D01*
X468112Y825395D01*
X466429Y827589D01*
X465893Y828000D01*
X466572Y830000D01*
X1050000D01*
Y10000D01*
D02*
G37*
%LPC*%
G36*
X191520Y821118D02*
Y811420D01*
X201218D01*
X201006Y813032D01*
X199893Y815718D01*
X198124Y818024D01*
X195818Y819793D01*
X193132Y820906D01*
X191520Y821118D01*
D02*
G37*
G36*
X188980D02*
X187368Y820906D01*
X184682Y819793D01*
X182376Y818024D01*
X180607Y815718D01*
X179494Y813032D01*
X179282Y811420D01*
X188980D01*
Y821118D01*
D02*
G37*
G36*
Y808880D02*
X179282D01*
X179494Y807268D01*
X180607Y804582D01*
X182376Y802276D01*
X184682Y800507D01*
X187368Y799394D01*
X188980Y799182D01*
Y808880D01*
D02*
G37*
G36*
X201218D02*
X191520D01*
Y799182D01*
X193132Y799394D01*
X195818Y800507D01*
X198124Y802276D01*
X199893Y804582D01*
X201006Y807268D01*
X201218Y808880D01*
D02*
G37*
G36*
X190250Y795341D02*
X187509Y794980D01*
X184955Y793922D01*
X182761Y792239D01*
X181078Y790045D01*
X180020Y787491D01*
X179659Y784750D01*
X180020Y782009D01*
X181078Y779455D01*
X182761Y777261D01*
X184955Y775578D01*
X187509Y774520D01*
X190250Y774159D01*
X192991Y774520D01*
X195545Y775578D01*
X197739Y777261D01*
X199422Y779455D01*
X200480Y782009D01*
X200841Y784750D01*
X200480Y787491D01*
X199422Y790045D01*
X197739Y792239D01*
X195545Y793922D01*
X192991Y794980D01*
X190250Y795341D01*
D02*
G37*
G36*
X745990Y782540D02*
X734720D01*
Y771270D01*
X745990D01*
Y782540D01*
D02*
G37*
G36*
X732180D02*
X720910D01*
Y771270D01*
X732180D01*
Y782540D01*
D02*
G37*
G36*
X652190D02*
X640920D01*
Y771270D01*
X652190D01*
Y782540D01*
D02*
G37*
G36*
X638380D02*
X627110D01*
Y771270D01*
X638380D01*
Y782540D01*
D02*
G37*
G36*
X434810Y780268D02*
Y770570D01*
X444508D01*
X444296Y772182D01*
X443183Y774868D01*
X441414Y777174D01*
X439108Y778943D01*
X436422Y780056D01*
X434810Y780268D01*
D02*
G37*
G36*
X432270D02*
X430658Y780056D01*
X427972Y778943D01*
X425666Y777174D01*
X423897Y774868D01*
X422784Y772182D01*
X422572Y770570D01*
X432270D01*
Y780268D01*
D02*
G37*
G36*
X805270Y768933D02*
Y763270D01*
X810934D01*
X810859Y763838D01*
X810149Y765550D01*
X809021Y767021D01*
X807550Y768149D01*
X805838Y768859D01*
X805270Y768933D01*
D02*
G37*
G36*
X802730D02*
X802162Y768859D01*
X800450Y768149D01*
X798979Y767021D01*
X797851Y765550D01*
X797141Y763838D01*
X797066Y763270D01*
X802730D01*
Y768933D01*
D02*
G37*
G36*
X458940Y779891D02*
X456199Y779530D01*
X453645Y778472D01*
X451451Y776789D01*
X449768Y774595D01*
X448710Y772041D01*
X448349Y769300D01*
X448710Y766559D01*
X449768Y764005D01*
X451451Y761811D01*
X453645Y760128D01*
X456199Y759070D01*
X458940Y758709D01*
X461681Y759070D01*
X464235Y760128D01*
X466429Y761811D01*
X468112Y764005D01*
X469170Y766559D01*
X469531Y769300D01*
X469170Y772041D01*
X468112Y774595D01*
X466429Y776789D01*
X464235Y778472D01*
X461681Y779530D01*
X458940Y779891D01*
D02*
G37*
G36*
X444508Y768030D02*
X434810D01*
Y758332D01*
X436422Y758544D01*
X439108Y759657D01*
X441414Y761426D01*
X443183Y763732D01*
X444296Y766418D01*
X444508Y768030D01*
D02*
G37*
G36*
X432270D02*
X422572D01*
X422784Y766418D01*
X423897Y763732D01*
X425666Y761426D01*
X427972Y759657D01*
X430658Y758544D01*
X432270Y758332D01*
Y768030D01*
D02*
G37*
G36*
X288650Y782000D02*
X264650D01*
Y758000D01*
X288650D01*
Y782000D01*
D02*
G37*
G36*
X1000000Y822099D02*
X994979Y821704D01*
X990081Y820528D01*
X985427Y818600D01*
X981133Y815969D01*
X977303Y812697D01*
X974031Y808867D01*
X971400Y804573D01*
X969472Y799919D01*
X968296Y795021D01*
X967901Y790000D01*
X968296Y784979D01*
X969472Y780081D01*
X971400Y775427D01*
X974031Y771133D01*
X977303Y767303D01*
X981133Y764031D01*
X985427Y761400D01*
X990081Y759472D01*
X994979Y758296D01*
X1000000Y757901D01*
X1005021Y758296D01*
X1009919Y759472D01*
X1014573Y761400D01*
X1018867Y764031D01*
X1022697Y767303D01*
X1025969Y771133D01*
X1028600Y775427D01*
X1030528Y780081D01*
X1031704Y784979D01*
X1032099Y790000D01*
X1031704Y795021D01*
X1030528Y799919D01*
X1028600Y804573D01*
X1025969Y808867D01*
X1022697Y812697D01*
X1018867Y815969D01*
X1014573Y818600D01*
X1009919Y820528D01*
X1005021Y821704D01*
X1000000Y822099D01*
D02*
G37*
G36*
X771550Y782104D02*
X768417Y781691D01*
X765498Y780482D01*
X762991Y778559D01*
X761068Y776052D01*
X759859Y773133D01*
X759446Y770000D01*
X759859Y766867D01*
X761068Y763948D01*
X762991Y761441D01*
X765498Y759518D01*
X768417Y758309D01*
X771550Y757896D01*
X774683Y758309D01*
X777602Y759518D01*
X780108Y761441D01*
X782032Y763948D01*
X783241Y766867D01*
X783654Y770000D01*
X783241Y773133D01*
X782032Y776052D01*
X780108Y778559D01*
X777602Y780482D01*
X774683Y781691D01*
X771550Y782104D01*
D02*
G37*
G36*
X677750D02*
X674617Y781691D01*
X671698Y780482D01*
X669192Y778559D01*
X667268Y776052D01*
X666059Y773133D01*
X665646Y770000D01*
X666059Y766867D01*
X667268Y763948D01*
X669192Y761441D01*
X671698Y759518D01*
X674617Y758309D01*
X677750Y757896D01*
X680883Y758309D01*
X683802Y759518D01*
X686309Y761441D01*
X688232Y763948D01*
X689441Y766867D01*
X689854Y770000D01*
X689441Y773133D01*
X688232Y776052D01*
X686309Y778559D01*
X683802Y780482D01*
X680883Y781691D01*
X677750Y782104D01*
D02*
G37*
G36*
X352850D02*
X349717Y781691D01*
X346798Y780482D01*
X344291Y778559D01*
X342368Y776052D01*
X341159Y773133D01*
X340746Y770000D01*
X341159Y766867D01*
X342368Y763948D01*
X344291Y761441D01*
X346798Y759518D01*
X349717Y758309D01*
X352850Y757896D01*
X355983Y758309D01*
X358902Y759518D01*
X361409Y761441D01*
X363332Y763948D01*
X364541Y766867D01*
X364953Y770000D01*
X364541Y773133D01*
X363332Y776052D01*
X361409Y778559D01*
X358902Y780482D01*
X355983Y781691D01*
X352850Y782104D01*
D02*
G37*
G36*
X745990Y768730D02*
X734720D01*
Y757460D01*
X745990D01*
Y768730D01*
D02*
G37*
G36*
X732180D02*
X720910D01*
Y757460D01*
X732180D01*
Y768730D01*
D02*
G37*
G36*
X652190D02*
X640920D01*
Y757460D01*
X652190D01*
Y768730D01*
D02*
G37*
G36*
X638380D02*
X627110D01*
Y757460D01*
X638380D01*
Y768730D01*
D02*
G37*
G36*
X810934Y760730D02*
X805270D01*
Y755067D01*
X805838Y755141D01*
X807550Y755851D01*
X809021Y756979D01*
X810149Y758450D01*
X810859Y760162D01*
X810934Y760730D01*
D02*
G37*
G36*
X802730D02*
X797066D01*
X797141Y760162D01*
X797851Y758450D01*
X798979Y756979D01*
X800450Y755851D01*
X802162Y755141D01*
X802730Y755067D01*
Y760730D01*
D02*
G37*
G36*
X200750Y769850D02*
X179750D01*
Y748850D01*
X200750D01*
Y769850D01*
D02*
G37*
G36*
X60000Y812099D02*
X54979Y811704D01*
X50081Y810528D01*
X45427Y808600D01*
X41133Y805969D01*
X37303Y802697D01*
X34031Y798867D01*
X31400Y794573D01*
X29472Y789919D01*
X28296Y785021D01*
X27901Y780000D01*
X28296Y774979D01*
X29472Y770081D01*
X31400Y765427D01*
X34031Y761133D01*
X37303Y757303D01*
X41133Y754031D01*
X45427Y751400D01*
X50081Y749472D01*
X54979Y748296D01*
X60000Y747901D01*
X65021Y748296D01*
X69919Y749472D01*
X74573Y751400D01*
X78867Y754031D01*
X82697Y757303D01*
X85969Y761133D01*
X88600Y765427D01*
X90528Y770081D01*
X91704Y774979D01*
X92099Y780000D01*
X91704Y785021D01*
X90528Y789919D01*
X88600Y794573D01*
X85969Y798867D01*
X82697Y802697D01*
X78867Y805969D01*
X74573Y808600D01*
X69919Y810528D01*
X65021Y811704D01*
X60000Y812099D01*
D02*
G37*
G36*
X458940Y754491D02*
X456199Y754130D01*
X453645Y753072D01*
X451451Y751389D01*
X449768Y749195D01*
X448710Y746641D01*
X448349Y743900D01*
X448710Y741159D01*
X449768Y738605D01*
X451451Y736411D01*
X453645Y734728D01*
X456199Y733670D01*
X458940Y733309D01*
X461681Y733670D01*
X464235Y734728D01*
X466429Y736411D01*
X468112Y738605D01*
X469170Y741159D01*
X469531Y743900D01*
X469170Y746641D01*
X468112Y749195D01*
X466429Y751389D01*
X464235Y753072D01*
X461681Y754130D01*
X458940Y754491D01*
D02*
G37*
G36*
X314750Y782104D02*
X311617Y781691D01*
X308698Y780482D01*
X306192Y778559D01*
X304268Y776052D01*
X303059Y773133D01*
X302646Y770000D01*
X303059Y766867D01*
X304268Y763948D01*
X306192Y761441D01*
X308698Y759518D01*
X310162Y758912D01*
Y718150D01*
X305005Y712994D01*
X304500Y713060D01*
X302673Y712820D01*
X300970Y712114D01*
X299508Y710993D01*
X298386Y709530D01*
X297680Y707827D01*
X297440Y706000D01*
X297680Y704173D01*
X298386Y702470D01*
X299508Y701008D01*
X300970Y699885D01*
X302673Y699180D01*
X304500Y698940D01*
X306327Y699180D01*
X308030Y699885D01*
X309492Y701008D01*
X310614Y702470D01*
X311320Y704173D01*
X311560Y706000D01*
X311494Y706505D01*
X317994Y713006D01*
X318989Y714494D01*
X319338Y716250D01*
Y758912D01*
X320802Y759518D01*
X323308Y761441D01*
X325232Y763948D01*
X326441Y766867D01*
X326854Y770000D01*
X326441Y773133D01*
X325232Y776052D01*
X323308Y778559D01*
X320802Y780482D01*
X317883Y781691D01*
X314750Y782104D01*
D02*
G37*
G36*
X325200Y708644D02*
Y702980D01*
X330864D01*
X330789Y703548D01*
X330079Y705260D01*
X328951Y706731D01*
X327480Y707859D01*
X325768Y708569D01*
X325200Y708644D01*
D02*
G37*
G36*
X322660D02*
X322092Y708569D01*
X320380Y707859D01*
X318909Y706731D01*
X317781Y705260D01*
X317071Y703548D01*
X316996Y702980D01*
X322660D01*
Y708644D01*
D02*
G37*
G36*
X645420Y703904D02*
Y698240D01*
X651084D01*
X651009Y698808D01*
X650299Y700520D01*
X649171Y701991D01*
X647700Y703119D01*
X645988Y703829D01*
X645420Y703904D01*
D02*
G37*
G36*
X642880D02*
X642312Y703829D01*
X640600Y703119D01*
X639129Y701991D01*
X638001Y700520D01*
X637291Y698808D01*
X637216Y698240D01*
X642880D01*
Y703904D01*
D02*
G37*
G36*
X433540Y754491D02*
X430799Y754130D01*
X428245Y753072D01*
X426051Y751389D01*
X424368Y749195D01*
X423310Y746641D01*
X422949Y743900D01*
X423310Y741159D01*
X424368Y738605D01*
X426051Y736411D01*
X428245Y734728D01*
X430206Y733916D01*
Y700671D01*
X427069Y697534D01*
X426750Y697598D01*
X424799Y697210D01*
X423145Y696105D01*
X422040Y694451D01*
X421652Y692500D01*
X422040Y690549D01*
X423145Y688895D01*
X424799Y687790D01*
X426750Y687402D01*
X428701Y687790D01*
X430355Y688895D01*
X431460Y690549D01*
X431848Y692500D01*
X431784Y692819D01*
X435897Y696933D01*
X436620Y698014D01*
X436874Y699290D01*
Y733916D01*
X438835Y734728D01*
X441029Y736411D01*
X442712Y738605D01*
X443770Y741159D01*
X444131Y743900D01*
X443770Y746641D01*
X442712Y749195D01*
X441029Y751389D01*
X438835Y753072D01*
X436281Y754130D01*
X433540Y754491D01*
D02*
G37*
G36*
X330864Y700440D02*
X325200D01*
Y694777D01*
X325768Y694851D01*
X327480Y695561D01*
X328951Y696689D01*
X330079Y698160D01*
X330789Y699872D01*
X330864Y700440D01*
D02*
G37*
G36*
X322660D02*
X316996D01*
X317071Y699872D01*
X317781Y698160D01*
X318909Y696689D01*
X320380Y695561D01*
X322092Y694851D01*
X322660Y694777D01*
Y700440D01*
D02*
G37*
G36*
X69250Y716854D02*
X66117Y716441D01*
X63198Y715232D01*
X60691Y713308D01*
X58768Y710802D01*
X57559Y707883D01*
X57146Y704750D01*
X57559Y701617D01*
X58768Y698698D01*
X60691Y696191D01*
X63198Y694268D01*
X66117Y693059D01*
X69250Y692646D01*
X72383Y693059D01*
X75302Y694268D01*
X77808Y696191D01*
X79732Y698698D01*
X80941Y701617D01*
X81354Y704750D01*
X80941Y707883D01*
X79732Y710802D01*
X77808Y713308D01*
X75302Y715232D01*
X72383Y716441D01*
X69250Y716854D01*
D02*
G37*
G36*
X651084Y695700D02*
X645420D01*
Y690036D01*
X645988Y690111D01*
X647700Y690821D01*
X649171Y691949D01*
X650299Y693420D01*
X651009Y695132D01*
X651084Y695700D01*
D02*
G37*
G36*
X642880D02*
X637216D01*
X637291Y695132D01*
X638001Y693420D01*
X639129Y691949D01*
X640600Y690821D01*
X642312Y690111D01*
X642880Y690036D01*
Y695700D01*
D02*
G37*
G36*
X601060Y693254D02*
Y687590D01*
X606724D01*
X606649Y688158D01*
X605939Y689870D01*
X604811Y691341D01*
X603340Y692469D01*
X601628Y693179D01*
X601060Y693254D01*
D02*
G37*
G36*
X598520D02*
X597952Y693179D01*
X596240Y692469D01*
X594769Y691341D01*
X593641Y689870D01*
X592931Y688158D01*
X592856Y687590D01*
X598520D01*
Y693254D01*
D02*
G37*
G36*
X478270Y686764D02*
Y681100D01*
X483934D01*
X483859Y681668D01*
X483149Y683380D01*
X482021Y684851D01*
X480550Y685979D01*
X478838Y686689D01*
X478270Y686764D01*
D02*
G37*
G36*
X475730D02*
X475162Y686689D01*
X473450Y685979D01*
X471979Y684851D01*
X470851Y683380D01*
X470141Y681668D01*
X470066Y681100D01*
X475730D01*
Y686764D01*
D02*
G37*
G36*
X606724Y685050D02*
X601060D01*
Y679387D01*
X601628Y679461D01*
X603340Y680171D01*
X604811Y681299D01*
X605939Y682770D01*
X606649Y684482D01*
X606724Y685050D01*
D02*
G37*
G36*
X598520D02*
X592856D01*
X592931Y684482D01*
X593641Y682770D01*
X594769Y681299D01*
X596240Y680171D01*
X597952Y679461D01*
X598520Y679387D01*
Y685050D01*
D02*
G37*
G36*
X498750Y700541D02*
X496009Y700180D01*
X493455Y699122D01*
X491261Y697439D01*
X489578Y695245D01*
X488520Y692691D01*
X488159Y689950D01*
X488520Y687209D01*
X489578Y684655D01*
X491261Y682461D01*
X493455Y680778D01*
X496009Y679720D01*
X498750Y679359D01*
X501491Y679720D01*
X504045Y680778D01*
X506239Y682461D01*
X507922Y684655D01*
X508980Y687209D01*
X509341Y689950D01*
X508980Y692691D01*
X507922Y695245D01*
X506239Y697439D01*
X504045Y699122D01*
X501491Y700180D01*
X498750Y700541D01*
D02*
G37*
G36*
X483934Y678560D02*
X478270D01*
Y672896D01*
X478838Y672971D01*
X480550Y673681D01*
X482021Y674809D01*
X483149Y676280D01*
X483859Y677992D01*
X483934Y678560D01*
D02*
G37*
G36*
X475730D02*
X470066D01*
X470141Y677992D01*
X470851Y676280D01*
X471979Y674809D01*
X473450Y673681D01*
X475162Y672971D01*
X475730Y672896D01*
Y678560D01*
D02*
G37*
G36*
X69250Y678754D02*
X66117Y678341D01*
X63198Y677132D01*
X60691Y675209D01*
X58768Y672702D01*
X57559Y669783D01*
X57146Y666650D01*
X57559Y663517D01*
X58768Y660598D01*
X60691Y658092D01*
X63198Y656168D01*
X66117Y654959D01*
X69250Y654547D01*
X72383Y654959D01*
X75302Y656168D01*
X77808Y658092D01*
X79732Y660598D01*
X80941Y663517D01*
X81354Y666650D01*
X80941Y669783D01*
X79732Y672702D01*
X77808Y675209D01*
X75302Y677132D01*
X72383Y678341D01*
X69250Y678754D01*
D02*
G37*
G36*
X509250Y675050D02*
X488250D01*
Y654050D01*
X509250D01*
Y675050D01*
D02*
G37*
G36*
X776810Y658503D02*
Y652840D01*
X782474D01*
X782399Y653408D01*
X781689Y655120D01*
X780561Y656591D01*
X779090Y657719D01*
X777378Y658429D01*
X776810Y658503D01*
D02*
G37*
G36*
X774270D02*
X773702Y658429D01*
X771990Y657719D01*
X770519Y656591D01*
X769391Y655120D01*
X768681Y653408D01*
X768606Y652840D01*
X774270D01*
Y658503D01*
D02*
G37*
G36*
X246250Y775306D02*
X244553Y775083D01*
X242972Y774428D01*
X241614Y773386D01*
X240572Y772028D01*
X239917Y770447D01*
X239694Y768750D01*
X239917Y767053D01*
X240572Y765472D01*
X241614Y764114D01*
X242131Y763718D01*
Y660770D01*
X241402Y660468D01*
X240044Y659426D01*
X239002Y658068D01*
X238347Y656487D01*
X238124Y654790D01*
X238347Y653093D01*
X239002Y651512D01*
X240044Y650154D01*
X241402Y649112D01*
X242983Y648457D01*
X244680Y648234D01*
X246377Y648457D01*
X247958Y649112D01*
X249316Y650154D01*
X250358Y651512D01*
X251013Y653093D01*
X251236Y654790D01*
X251013Y656487D01*
X250358Y658068D01*
X249316Y659426D01*
X248799Y659822D01*
Y762770D01*
X249528Y763072D01*
X250886Y764114D01*
X251928Y765472D01*
X252583Y767053D01*
X252806Y768750D01*
X252583Y770447D01*
X251928Y772028D01*
X250886Y773386D01*
X249528Y774428D01*
X247947Y775083D01*
X246250Y775306D01*
D02*
G37*
G36*
X782474Y650300D02*
X776810D01*
Y644637D01*
X777378Y644711D01*
X779090Y645421D01*
X780561Y646549D01*
X781689Y648020D01*
X782399Y649732D01*
X782474Y650300D01*
D02*
G37*
G36*
X774270D02*
X768606D01*
X768681Y649732D01*
X769391Y648020D01*
X770519Y646549D01*
X771990Y645421D01*
X773702Y644711D01*
X774270Y644637D01*
Y650300D01*
D02*
G37*
G36*
X621560Y646716D02*
Y642590D01*
X625686D01*
X625509Y643482D01*
X624284Y645314D01*
X622452Y646539D01*
X621560Y646716D01*
D02*
G37*
G36*
X619020D02*
X618128Y646539D01*
X616296Y645314D01*
X615071Y643482D01*
X614894Y642590D01*
X619020D01*
Y646716D01*
D02*
G37*
G36*
X288450Y643724D02*
Y638060D01*
X294114D01*
X294039Y638628D01*
X293329Y640340D01*
X292201Y641811D01*
X290730Y642939D01*
X289018Y643649D01*
X288450Y643724D01*
D02*
G37*
G36*
X285910D02*
X285342Y643649D01*
X283630Y642939D01*
X282159Y641811D01*
X281031Y640340D01*
X280321Y638628D01*
X280247Y638060D01*
X285910D01*
Y643724D01*
D02*
G37*
G36*
X625686Y640050D02*
X621560D01*
Y635924D01*
X622452Y636101D01*
X624284Y637326D01*
X625509Y639158D01*
X625686Y640050D01*
D02*
G37*
G36*
X619020D02*
X614894D01*
X615071Y639158D01*
X616296Y637326D01*
X618128Y636101D01*
X619020Y635924D01*
Y640050D01*
D02*
G37*
G36*
X357680Y693846D02*
X355983Y693623D01*
X354402Y692968D01*
X353044Y691926D01*
X352002Y690568D01*
X351347Y688987D01*
X351124Y687290D01*
X351347Y685593D01*
X352002Y684012D01*
X353044Y682654D01*
X354402Y681612D01*
X354471Y681584D01*
Y632079D01*
X353294Y631176D01*
X352499Y630139D01*
X323694D01*
X323608Y630348D01*
X322566Y631706D01*
X321208Y632748D01*
X319627Y633403D01*
X317930Y633626D01*
X316233Y633403D01*
X314652Y632748D01*
X313294Y631706D01*
X312665Y630886D01*
X310858Y630624D01*
X310252Y630745D01*
X310201Y630811D01*
X308730Y631939D01*
X307018Y632649D01*
X306450Y632724D01*
Y625790D01*
X305180D01*
Y624520D01*
X298246D01*
X298321Y623952D01*
X299031Y622240D01*
X300159Y620769D01*
X301630Y619641D01*
X302568Y619252D01*
X303228Y617083D01*
X285093Y598947D01*
X284370Y597866D01*
X284116Y596590D01*
Y575555D01*
X282814Y574556D01*
X281772Y573198D01*
X281117Y571617D01*
X280894Y569920D01*
X281117Y568223D01*
X281772Y566642D01*
X282814Y565284D01*
X284172Y564242D01*
X285753Y563587D01*
X287450Y563364D01*
X289147Y563587D01*
X290728Y564242D01*
X292086Y565284D01*
X293128Y566642D01*
X293783Y568223D01*
X294006Y569920D01*
X293783Y571617D01*
X293128Y573198D01*
X292086Y574556D01*
X290784Y575555D01*
Y595209D01*
X316303Y620728D01*
X317930Y620514D01*
X319627Y620737D01*
X321208Y621392D01*
X322566Y622434D01*
X323361Y623471D01*
X352166D01*
X352252Y623262D01*
X353294Y621904D01*
X354652Y620862D01*
X356233Y620207D01*
X357930Y619984D01*
X359627Y620207D01*
X361208Y620862D01*
X362566Y621904D01*
X363608Y623262D01*
X364263Y624843D01*
X364486Y626540D01*
X364263Y628237D01*
X363608Y629818D01*
X362566Y631176D01*
X361208Y632218D01*
X361139Y632246D01*
Y681751D01*
X362316Y682654D01*
X363358Y684012D01*
X364013Y685593D01*
X364236Y687290D01*
X364013Y688987D01*
X363358Y690568D01*
X362316Y691926D01*
X360958Y692968D01*
X359377Y693623D01*
X357680Y693846D01*
D02*
G37*
G36*
X294114Y635520D02*
X288450D01*
Y629856D01*
X289018Y629931D01*
X290730Y630641D01*
X292201Y631769D01*
X293329Y633240D01*
X294039Y634952D01*
X294114Y635520D01*
D02*
G37*
G36*
X285910D02*
X280247D01*
X280321Y634952D01*
X281031Y633240D01*
X282159Y631769D01*
X283630Y630641D01*
X285342Y629931D01*
X285910Y629856D01*
Y635520D01*
D02*
G37*
G36*
X81790Y641090D02*
X70520D01*
Y629820D01*
X81790D01*
Y641090D01*
D02*
G37*
G36*
X67980D02*
X56710D01*
Y629820D01*
X67980D01*
Y641090D01*
D02*
G37*
G36*
X303910Y632724D02*
X303342Y632649D01*
X301630Y631939D01*
X300159Y630811D01*
X299031Y629340D01*
X298321Y627628D01*
X298246Y627060D01*
X303910D01*
Y632724D01*
D02*
G37*
G36*
X550300Y628464D02*
Y622800D01*
X555964D01*
X555889Y623368D01*
X555179Y625080D01*
X554051Y626551D01*
X552580Y627679D01*
X550868Y628389D01*
X550300Y628464D01*
D02*
G37*
G36*
X547760D02*
X547192Y628389D01*
X545480Y627679D01*
X544009Y626551D01*
X542881Y625080D01*
X542171Y623368D01*
X542096Y622800D01*
X547760D01*
Y628464D01*
D02*
G37*
G36*
X81790Y627280D02*
X70520D01*
Y616010D01*
X81790D01*
Y627280D01*
D02*
G37*
G36*
X67980D02*
X56710D01*
Y616010D01*
X67980D01*
Y627280D01*
D02*
G37*
G36*
X555964Y620260D02*
X550300D01*
Y614596D01*
X550868Y614671D01*
X552580Y615381D01*
X554051Y616509D01*
X555179Y617980D01*
X555889Y619692D01*
X555964Y620260D01*
D02*
G37*
G36*
X547760D02*
X542096D01*
X542171Y619692D01*
X542881Y617980D01*
X544009Y616509D01*
X545480Y615381D01*
X547192Y614671D01*
X547760Y614596D01*
Y620260D01*
D02*
G37*
G36*
X275450Y610723D02*
Y605060D01*
X281114D01*
X281039Y605628D01*
X280329Y607340D01*
X279201Y608811D01*
X277730Y609939D01*
X276018Y610649D01*
X275450Y610723D01*
D02*
G37*
G36*
X272910D02*
X272342Y610649D01*
X270630Y609939D01*
X269159Y608811D01*
X268031Y607340D01*
X267321Y605628D01*
X267246Y605060D01*
X272910D01*
Y610723D01*
D02*
G37*
G36*
X281114Y602520D02*
X275450D01*
Y596856D01*
X276018Y596931D01*
X277730Y597641D01*
X279201Y598769D01*
X280329Y600240D01*
X281039Y601952D01*
X281114Y602520D01*
D02*
G37*
G36*
X272910D02*
X267246D01*
X267321Y601952D01*
X268031Y600240D01*
X269159Y598769D01*
X270630Y597641D01*
X272342Y596931D01*
X272910Y596856D01*
Y602520D01*
D02*
G37*
G36*
X490000Y608825D02*
X487716Y608525D01*
X485587Y607643D01*
X483759Y606241D01*
X482357Y604413D01*
X481475Y602284D01*
X481175Y600000D01*
X481475Y597716D01*
X482357Y595587D01*
X483759Y593759D01*
X485587Y592357D01*
X487716Y591475D01*
X490000Y591175D01*
X492284Y591475D01*
X494413Y592357D01*
X496241Y593759D01*
X497643Y595587D01*
X498525Y597716D01*
X498825Y600000D01*
X498525Y602284D01*
X497643Y604413D01*
X496241Y606241D01*
X494413Y607643D01*
X492284Y608525D01*
X490000Y608825D01*
D02*
G37*
G36*
X470000D02*
X467716Y608525D01*
X465587Y607643D01*
X463759Y606241D01*
X462357Y604413D01*
X461475Y602284D01*
X461175Y600000D01*
X461475Y597716D01*
X462357Y595587D01*
X463759Y593759D01*
X465587Y592357D01*
X467716Y591475D01*
X470000Y591175D01*
X472284Y591475D01*
X474413Y592357D01*
X476241Y593759D01*
X477643Y595587D01*
X478525Y597716D01*
X478825Y600000D01*
X478525Y602284D01*
X477643Y604413D01*
X476241Y606241D01*
X474413Y607643D01*
X472284Y608525D01*
X470000Y608825D01*
D02*
G37*
G36*
X450000D02*
X447716Y608525D01*
X445587Y607643D01*
X443759Y606241D01*
X442357Y604413D01*
X441475Y602284D01*
X441175Y600000D01*
X441475Y597716D01*
X442357Y595587D01*
X443759Y593759D01*
X445587Y592357D01*
X447716Y591475D01*
X450000Y591175D01*
X452284Y591475D01*
X454413Y592357D01*
X456241Y593759D01*
X457643Y595587D01*
X458525Y597716D01*
X458825Y600000D01*
X458525Y602284D01*
X457643Y604413D01*
X456241Y606241D01*
X454413Y607643D01*
X452284Y608525D01*
X450000Y608825D01*
D02*
G37*
G36*
X430000D02*
X427716Y608525D01*
X425587Y607643D01*
X423759Y606241D01*
X422357Y604413D01*
X421475Y602284D01*
X421175Y600000D01*
X421475Y597716D01*
X422357Y595587D01*
X423759Y593759D01*
X425587Y592357D01*
X427716Y591475D01*
X430000Y591175D01*
X432284Y591475D01*
X434413Y592357D01*
X436241Y593759D01*
X437643Y595587D01*
X438525Y597716D01*
X438825Y600000D01*
X438525Y602284D01*
X437643Y604413D01*
X436241Y606241D01*
X434413Y607643D01*
X432284Y608525D01*
X430000Y608825D01*
D02*
G37*
G36*
X123970Y545268D02*
Y535570D01*
X133668D01*
X133456Y537182D01*
X132343Y539868D01*
X130574Y542174D01*
X128268Y543943D01*
X125582Y545056D01*
X123970Y545268D01*
D02*
G37*
G36*
X121430D02*
X119818Y545056D01*
X117132Y543943D01*
X114826Y542174D01*
X113057Y539868D01*
X111944Y537182D01*
X111732Y535570D01*
X121430D01*
Y545268D01*
D02*
G37*
G36*
X390000Y608825D02*
X387716Y608525D01*
X385587Y607643D01*
X383759Y606241D01*
X382357Y604413D01*
X381475Y602284D01*
X381175Y600000D01*
X381475Y597716D01*
X382357Y595587D01*
X383759Y593759D01*
X385587Y592357D01*
X386941Y591796D01*
Y537769D01*
X386722Y537678D01*
X385364Y536636D01*
X384322Y535278D01*
X383667Y533697D01*
X383444Y532000D01*
X383667Y530303D01*
X384322Y528722D01*
X385364Y527364D01*
X386722Y526322D01*
X388303Y525667D01*
X390000Y525444D01*
X391697Y525667D01*
X393278Y526322D01*
X394636Y527364D01*
X395678Y528722D01*
X396333Y530303D01*
X396556Y532000D01*
X396333Y533697D01*
X395678Y535278D01*
X394636Y536636D01*
X393278Y537678D01*
X393059Y537769D01*
Y591796D01*
X394413Y592357D01*
X396241Y593759D01*
X397643Y595587D01*
X398525Y597716D01*
X398825Y600000D01*
X398525Y602284D01*
X397643Y604413D01*
X396241Y606241D01*
X394413Y607643D01*
X392284Y608525D01*
X390000Y608825D01*
D02*
G37*
G36*
X97300Y544891D02*
X94559Y544530D01*
X92005Y543472D01*
X89811Y541789D01*
X88128Y539595D01*
X87070Y537041D01*
X86709Y534300D01*
X87070Y531559D01*
X88128Y529005D01*
X89811Y526811D01*
X92005Y525128D01*
X94559Y524070D01*
X97300Y523709D01*
X100041Y524070D01*
X102595Y525128D01*
X104789Y526811D01*
X106472Y529005D01*
X107530Y531559D01*
X107891Y534300D01*
X107530Y537041D01*
X106472Y539595D01*
X104789Y541789D01*
X102595Y543472D01*
X100041Y544530D01*
X97300Y544891D01*
D02*
G37*
G36*
X121430Y533030D02*
X111732D01*
X111944Y531418D01*
X113057Y528732D01*
X114826Y526426D01*
X117132Y524657D01*
X119818Y523544D01*
X121430Y523332D01*
Y533030D01*
D02*
G37*
G36*
X133668D02*
X123970D01*
Y523332D01*
X125582Y523544D01*
X128268Y524657D01*
X130574Y526426D01*
X132343Y528732D01*
X133456Y531418D01*
X133668Y533030D01*
D02*
G37*
G36*
X122700Y519491D02*
X119959Y519130D01*
X117405Y518072D01*
X115211Y516389D01*
X113528Y514195D01*
X112470Y511641D01*
X112109Y508900D01*
X112470Y506159D01*
X113528Y503605D01*
X115211Y501411D01*
X117405Y499728D01*
X119959Y498670D01*
X122700Y498309D01*
X125441Y498670D01*
X127995Y499728D01*
X130189Y501411D01*
X131872Y503605D01*
X132930Y506159D01*
X133291Y508900D01*
X132930Y511641D01*
X131872Y514195D01*
X130189Y516389D01*
X127995Y518072D01*
X125441Y519130D01*
X122700Y519491D01*
D02*
G37*
G36*
X97300D02*
X94559Y519130D01*
X92005Y518072D01*
X89811Y516389D01*
X88128Y514195D01*
X87070Y511641D01*
X86709Y508900D01*
X87070Y506159D01*
X88128Y503605D01*
X89811Y501411D01*
X92005Y499728D01*
X94559Y498670D01*
X97300Y498309D01*
X100041Y498670D01*
X102595Y499728D01*
X104789Y501411D01*
X106472Y503605D01*
X107530Y506159D01*
X107891Y508900D01*
X107530Y511641D01*
X106472Y514195D01*
X104789Y516389D01*
X102595Y518072D01*
X100041Y519130D01*
X97300Y519491D01*
D02*
G37*
G36*
X410000Y608825D02*
X407716Y608525D01*
X405587Y607643D01*
X403759Y606241D01*
X402357Y604413D01*
X401475Y602284D01*
X401175Y600000D01*
X401475Y597716D01*
X402357Y595587D01*
X403759Y593759D01*
X405587Y592357D01*
X406941Y591796D01*
Y503769D01*
X406722Y503678D01*
X405364Y502636D01*
X404322Y501278D01*
X403667Y499697D01*
X403444Y498000D01*
X403667Y496303D01*
X404322Y494722D01*
X405364Y493364D01*
X406722Y492322D01*
X408303Y491667D01*
X410000Y491444D01*
X411697Y491667D01*
X413278Y492322D01*
X414636Y493364D01*
X415678Y494722D01*
X416333Y496303D01*
X416556Y498000D01*
X416333Y499697D01*
X415678Y501278D01*
X414636Y502636D01*
X413278Y503678D01*
X413059Y503769D01*
Y591796D01*
X414413Y592357D01*
X416241Y593759D01*
X417643Y595587D01*
X418525Y597716D01*
X418825Y600000D01*
X418525Y602284D01*
X417643Y604413D01*
X416241Y606241D01*
X414413Y607643D01*
X412284Y608525D01*
X410000Y608825D01*
D02*
G37*
G36*
X338000Y550556D02*
X336303Y550333D01*
X334722Y549678D01*
X333364Y548636D01*
X332322Y547278D01*
X331667Y545697D01*
X331444Y544000D01*
X331667Y542303D01*
X332322Y540722D01*
X333364Y539364D01*
X334722Y538322D01*
X334941Y538232D01*
Y488769D01*
X334722Y488678D01*
X333364Y487636D01*
X332322Y486278D01*
X331667Y484697D01*
X331444Y483000D01*
X331667Y481303D01*
X332322Y479722D01*
X333364Y478364D01*
X334722Y477322D01*
X336303Y476667D01*
X338000Y476444D01*
X339697Y476667D01*
X341278Y477322D01*
X342636Y478364D01*
X343678Y479722D01*
X344333Y481303D01*
X344556Y483000D01*
X344333Y484697D01*
X343678Y486278D01*
X342636Y487636D01*
X341278Y488678D01*
X341059Y488769D01*
Y538232D01*
X341278Y538322D01*
X342636Y539364D01*
X343678Y540722D01*
X344333Y542303D01*
X344556Y544000D01*
X344333Y545697D01*
X343678Y547278D01*
X342636Y548636D01*
X341278Y549678D01*
X339697Y550333D01*
X338000Y550556D01*
D02*
G37*
G36*
X122700Y494091D02*
X119959Y493730D01*
X117405Y492672D01*
X115211Y490989D01*
X113528Y488795D01*
X112470Y486241D01*
X112109Y483500D01*
X112470Y480759D01*
X113528Y478205D01*
X115211Y476011D01*
X117405Y474328D01*
X119959Y473270D01*
X122700Y472909D01*
X125441Y473270D01*
X127995Y474328D01*
X130189Y476011D01*
X131872Y478205D01*
X132930Y480759D01*
X133291Y483500D01*
X132930Y486241D01*
X131872Y488795D01*
X130189Y490989D01*
X127995Y492672D01*
X125441Y493730D01*
X122700Y494091D01*
D02*
G37*
G36*
X97300D02*
X94559Y493730D01*
X92005Y492672D01*
X89811Y490989D01*
X88128Y488795D01*
X87070Y486241D01*
X86709Y483500D01*
X87070Y480759D01*
X88128Y478205D01*
X89811Y476011D01*
X92005Y474328D01*
X94559Y473270D01*
X97300Y472909D01*
X100041Y473270D01*
X102595Y474328D01*
X104789Y476011D01*
X106472Y478205D01*
X107530Y480759D01*
X107891Y483500D01*
X107530Y486241D01*
X106472Y488795D01*
X104789Y490989D01*
X102595Y492672D01*
X100041Y493730D01*
X97300Y494091D01*
D02*
G37*
G36*
X510000Y608825D02*
X507716Y608525D01*
X505587Y607643D01*
X503759Y606241D01*
X502357Y604413D01*
X501475Y602284D01*
X501175Y600000D01*
X501475Y597716D01*
X502357Y595587D01*
X503759Y593759D01*
X505587Y592357D01*
X506441Y592003D01*
Y464976D01*
X505722Y464678D01*
X504364Y463636D01*
X503322Y462278D01*
X502667Y460697D01*
X502444Y459000D01*
X502667Y457303D01*
X503322Y455722D01*
X504364Y454364D01*
X505722Y453322D01*
X507303Y452667D01*
X509000Y452444D01*
X510697Y452667D01*
X512278Y453322D01*
X513636Y454364D01*
X514678Y455722D01*
X515333Y457303D01*
X515556Y459000D01*
X515333Y460697D01*
X514678Y462278D01*
X513636Y463636D01*
X512559Y464462D01*
Y591589D01*
X514413Y592357D01*
X516241Y593759D01*
X517643Y595587D01*
X518525Y597716D01*
X518825Y600000D01*
X518525Y602284D01*
X517643Y604413D01*
X516241Y606241D01*
X514413Y607643D01*
X512284Y608525D01*
X510000Y608825D01*
D02*
G37*
G36*
X642700Y471517D02*
X639926Y471152D01*
X637342Y470081D01*
X635122Y468378D01*
X633419Y466158D01*
X632349Y463574D01*
X631983Y460800D01*
X632349Y458026D01*
X633419Y455442D01*
X635122Y453222D01*
X637342Y451519D01*
X639926Y450448D01*
X642700Y450083D01*
X645474Y450448D01*
X648058Y451519D01*
X650278Y453222D01*
X651981Y455442D01*
X653052Y458026D01*
X653417Y460800D01*
X653052Y463574D01*
X651981Y466158D01*
X650278Y468378D01*
X648058Y470081D01*
X645474Y471152D01*
X642700Y471517D01*
D02*
G37*
G36*
X622500Y626535D02*
X620803Y626312D01*
X619222Y625657D01*
X617864Y624615D01*
X616822Y623257D01*
X616167Y621676D01*
X615944Y619979D01*
X615952Y619920D01*
X614056Y618024D01*
X613061Y616535D01*
X612712Y614779D01*
Y470400D01*
X611942Y470081D01*
X609722Y468378D01*
X608019Y466158D01*
X606949Y463574D01*
X606583Y460800D01*
X606949Y458026D01*
X608019Y455442D01*
X609722Y453222D01*
X611942Y451519D01*
X614526Y450448D01*
X617300Y450083D01*
X620074Y450448D01*
X622658Y451519D01*
X624878Y453222D01*
X626581Y455442D01*
X627652Y458026D01*
X628017Y460800D01*
X627652Y463574D01*
X626581Y466158D01*
X624878Y468378D01*
X622658Y470081D01*
X621888Y470400D01*
Y611616D01*
X622500Y613423D01*
X624197Y613647D01*
X625778Y614302D01*
X627136Y615344D01*
X628178Y616701D01*
X628833Y618283D01*
X629056Y619979D01*
X628833Y621676D01*
X628178Y623257D01*
X627136Y624615D01*
X625778Y625657D01*
X624197Y626312D01*
X622500Y626535D01*
D02*
G37*
G36*
X122700Y468691D02*
X119959Y468330D01*
X117405Y467272D01*
X115211Y465589D01*
X113528Y463395D01*
X112470Y460841D01*
X112109Y458100D01*
X112470Y455359D01*
X113528Y452805D01*
X115211Y450611D01*
X117405Y448928D01*
X119959Y447870D01*
X122700Y447509D01*
X125441Y447870D01*
X127995Y448928D01*
X130189Y450611D01*
X131872Y452805D01*
X132930Y455359D01*
X133291Y458100D01*
X132930Y460841D01*
X131872Y463395D01*
X130189Y465589D01*
X127995Y467272D01*
X125441Y468330D01*
X122700Y468691D01*
D02*
G37*
G36*
X97300D02*
X94559Y468330D01*
X92005Y467272D01*
X89811Y465589D01*
X88128Y463395D01*
X87070Y460841D01*
X86709Y458100D01*
X87070Y455359D01*
X88128Y452805D01*
X89811Y450611D01*
X92005Y448928D01*
X94559Y447870D01*
X97300Y447509D01*
X100041Y447870D01*
X102595Y448928D01*
X104789Y450611D01*
X106472Y452805D01*
X107530Y455359D01*
X107891Y458100D01*
X107530Y460841D01*
X106472Y463395D01*
X104789Y465589D01*
X102595Y467272D01*
X100041Y468330D01*
X97300Y468691D01*
D02*
G37*
G36*
X538750Y608750D02*
X521250D01*
Y591250D01*
X526941D01*
Y437769D01*
X526722Y437678D01*
X525364Y436636D01*
X524322Y435278D01*
X523667Y433697D01*
X523444Y432000D01*
X523667Y430303D01*
X524322Y428722D01*
X525364Y427364D01*
X526722Y426322D01*
X528303Y425667D01*
X530000Y425444D01*
X531697Y425667D01*
X533278Y426322D01*
X534636Y427364D01*
X535678Y428722D01*
X536333Y430303D01*
X536556Y432000D01*
X536333Y433697D01*
X535678Y435278D01*
X534636Y436636D01*
X533278Y437678D01*
X533059Y437769D01*
Y591250D01*
X538750D01*
Y608750D01*
D02*
G37*
G36*
X642700Y446117D02*
X639926Y445751D01*
X637342Y444681D01*
X635122Y442978D01*
X633419Y440758D01*
X632349Y438174D01*
X631983Y435400D01*
X632349Y432626D01*
X633419Y430042D01*
X635122Y427822D01*
X637342Y426119D01*
X639926Y425048D01*
X642700Y424683D01*
X645474Y425048D01*
X648058Y426119D01*
X650278Y427822D01*
X651981Y430042D01*
X653052Y432626D01*
X653417Y435400D01*
X653052Y438174D01*
X651981Y440758D01*
X650278Y442978D01*
X648058Y444681D01*
X645474Y445751D01*
X642700Y446117D01*
D02*
G37*
G36*
X617300D02*
X614526Y445751D01*
X611942Y444681D01*
X609722Y442978D01*
X608019Y440758D01*
X606949Y438174D01*
X606583Y435400D01*
X606949Y432626D01*
X608019Y430042D01*
X609722Y427822D01*
X611942Y426119D01*
X614526Y425048D01*
X617300Y424683D01*
X620074Y425048D01*
X622658Y426119D01*
X624878Y427822D01*
X626581Y430042D01*
X627652Y432626D01*
X628017Y435400D01*
X627652Y438174D01*
X626581Y440758D01*
X624878Y442978D01*
X622658Y444681D01*
X620074Y445751D01*
X617300Y446117D01*
D02*
G37*
G36*
X122700Y443291D02*
X119959Y442930D01*
X117405Y441872D01*
X115211Y440189D01*
X113528Y437995D01*
X112470Y435441D01*
X112109Y432700D01*
X112470Y429959D01*
X113528Y427405D01*
X115211Y425211D01*
X117405Y423528D01*
X119959Y422470D01*
X122700Y422109D01*
X125441Y422470D01*
X127995Y423528D01*
X130189Y425211D01*
X131872Y427405D01*
X132930Y429959D01*
X133291Y432700D01*
X132930Y435441D01*
X131872Y437995D01*
X130189Y440189D01*
X127995Y441872D01*
X125441Y442930D01*
X122700Y443291D01*
D02*
G37*
G36*
X97300D02*
X94559Y442930D01*
X92005Y441872D01*
X89811Y440189D01*
X88128Y437995D01*
X87070Y435441D01*
X86709Y432700D01*
X87070Y429959D01*
X88128Y427405D01*
X89811Y425211D01*
X92005Y423528D01*
X94559Y422470D01*
X97300Y422109D01*
X100041Y422470D01*
X102595Y423528D01*
X104789Y425211D01*
X106472Y427405D01*
X107530Y429959D01*
X107891Y432700D01*
X107530Y435441D01*
X106472Y437995D01*
X104789Y440189D01*
X102595Y441872D01*
X100041Y442930D01*
X97300Y443291D01*
D02*
G37*
G36*
X710060Y410144D02*
Y404480D01*
X715723D01*
X715649Y405048D01*
X714939Y406760D01*
X713811Y408231D01*
X712340Y409359D01*
X710628Y410069D01*
X710060Y410144D01*
D02*
G37*
G36*
X707520D02*
X706952Y410069D01*
X705240Y409359D01*
X703769Y408231D01*
X702641Y406760D01*
X701931Y405048D01*
X701857Y404480D01*
X707520D01*
Y410144D01*
D02*
G37*
G36*
X617300Y420717D02*
X614526Y420352D01*
X611942Y419281D01*
X609722Y417578D01*
X608019Y415358D01*
X606949Y412774D01*
X606583Y410000D01*
X606949Y407226D01*
X608019Y404642D01*
X609722Y402422D01*
X611942Y400719D01*
X614526Y399649D01*
X617300Y399283D01*
X620074Y399649D01*
X622658Y400719D01*
X624878Y402422D01*
X626581Y404642D01*
X627652Y407226D01*
X628017Y410000D01*
X627652Y412774D01*
X626581Y415358D01*
X624878Y417578D01*
X622658Y419281D01*
X620074Y420352D01*
X617300Y420717D01*
D02*
G37*
G36*
X642700Y420717D02*
X639926Y420351D01*
X637342Y419281D01*
X635122Y417578D01*
X633419Y415358D01*
X632349Y412774D01*
X631983Y410000D01*
X632349Y407226D01*
X633419Y404642D01*
X635122Y402422D01*
X637342Y400719D01*
X639926Y399649D01*
X642700Y399283D01*
X645474Y399649D01*
X648058Y400719D01*
X650278Y402422D01*
X651981Y404642D01*
X653052Y407226D01*
X653417Y410000D01*
X653052Y412774D01*
X651981Y415358D01*
X650278Y417578D01*
X648058Y419281D01*
X645474Y420351D01*
X642700Y420717D01*
D02*
G37*
G36*
X122700Y417891D02*
X119959Y417530D01*
X117405Y416472D01*
X115211Y414789D01*
X113528Y412595D01*
X112470Y410041D01*
X112109Y407300D01*
X112470Y404559D01*
X113528Y402005D01*
X115211Y399811D01*
X117405Y398128D01*
X119959Y397070D01*
X122700Y396709D01*
X125441Y397070D01*
X127995Y398128D01*
X130189Y399811D01*
X131872Y402005D01*
X132930Y404559D01*
X133291Y407300D01*
X132930Y410041D01*
X131872Y412595D01*
X130189Y414789D01*
X127995Y416472D01*
X125441Y417530D01*
X122700Y417891D01*
D02*
G37*
G36*
X97300D02*
X94559Y417530D01*
X92005Y416472D01*
X89811Y414789D01*
X88128Y412595D01*
X87070Y410041D01*
X86709Y407300D01*
X87070Y404559D01*
X88128Y402005D01*
X89811Y399811D01*
X92005Y398128D01*
X94559Y397070D01*
X97300Y396709D01*
X100041Y397070D01*
X102595Y398128D01*
X104789Y399811D01*
X106472Y402005D01*
X107530Y404559D01*
X107891Y407300D01*
X107530Y410041D01*
X106472Y412595D01*
X104789Y414789D01*
X102595Y416472D01*
X100041Y417530D01*
X97300Y417891D01*
D02*
G37*
G36*
X715723Y401940D02*
X710060D01*
Y396276D01*
X710628Y396351D01*
X712340Y397061D01*
X713811Y398189D01*
X714939Y399660D01*
X715649Y401372D01*
X715723Y401940D01*
D02*
G37*
G36*
X707520D02*
X701857D01*
X701931Y401372D01*
X702641Y399660D01*
X703769Y398189D01*
X705240Y397061D01*
X706952Y396351D01*
X707520Y396276D01*
Y401940D01*
D02*
G37*
G36*
X642700Y395317D02*
X639926Y394952D01*
X637342Y393881D01*
X635122Y392178D01*
X633419Y389958D01*
X632349Y387374D01*
X631983Y384600D01*
X632349Y381826D01*
X633419Y379242D01*
X635122Y377022D01*
X637342Y375319D01*
X639926Y374249D01*
X642700Y373883D01*
X645474Y374249D01*
X648058Y375319D01*
X650278Y377022D01*
X651981Y379242D01*
X653052Y381826D01*
X653417Y384600D01*
X653052Y387374D01*
X651981Y389958D01*
X650278Y392178D01*
X648058Y393881D01*
X645474Y394952D01*
X642700Y395317D01*
D02*
G37*
G36*
X617300D02*
X614526Y394952D01*
X611942Y393881D01*
X609722Y392178D01*
X608019Y389958D01*
X606949Y387374D01*
X606583Y384600D01*
X606949Y381826D01*
X608019Y379242D01*
X609722Y377022D01*
X611942Y375319D01*
X614526Y374249D01*
X617300Y373883D01*
X620074Y374249D01*
X622658Y375319D01*
X624878Y377022D01*
X626581Y379242D01*
X627652Y381826D01*
X628017Y384600D01*
X627652Y387374D01*
X626581Y389958D01*
X624878Y392178D01*
X622658Y393881D01*
X620074Y394952D01*
X617300Y395317D01*
D02*
G37*
G36*
X122700Y392491D02*
X119959Y392130D01*
X117405Y391072D01*
X115211Y389389D01*
X113528Y387195D01*
X112470Y384641D01*
X112109Y381900D01*
X112470Y379159D01*
X113528Y376605D01*
X115211Y374411D01*
X117405Y372728D01*
X119959Y371670D01*
X122700Y371309D01*
X125441Y371670D01*
X127995Y372728D01*
X130189Y374411D01*
X131872Y376605D01*
X132930Y379159D01*
X133291Y381900D01*
X132930Y384641D01*
X131872Y387195D01*
X130189Y389389D01*
X127995Y391072D01*
X125441Y392130D01*
X122700Y392491D01*
D02*
G37*
G36*
X97300D02*
X94559Y392130D01*
X92005Y391072D01*
X89811Y389389D01*
X88128Y387195D01*
X87070Y384641D01*
X86709Y381900D01*
X87070Y379159D01*
X88128Y376605D01*
X89811Y374411D01*
X92005Y372728D01*
X94559Y371670D01*
X97300Y371309D01*
X100041Y371670D01*
X102595Y372728D01*
X104789Y374411D01*
X106472Y376605D01*
X107530Y379159D01*
X107891Y381900D01*
X107530Y384641D01*
X106472Y387195D01*
X104789Y389389D01*
X102595Y391072D01*
X100041Y392130D01*
X97300Y392491D01*
D02*
G37*
G36*
X388730Y369203D02*
X387575Y369051D01*
X385315Y368115D01*
X383374Y366626D01*
X381885Y364685D01*
X380949Y362425D01*
X380797Y361270D01*
X388730D01*
Y369203D01*
D02*
G37*
G36*
X618570Y370294D02*
Y360470D01*
X628394D01*
X628178Y362115D01*
X627053Y364831D01*
X625263Y367163D01*
X622931Y368953D01*
X620215Y370078D01*
X618570Y370294D01*
D02*
G37*
G36*
X616030D02*
X614385Y370078D01*
X611669Y368953D01*
X609337Y367163D01*
X607547Y364831D01*
X606422Y362115D01*
X606206Y360470D01*
X616030D01*
Y370294D01*
D02*
G37*
G36*
X182520Y358684D02*
Y353020D01*
X188183D01*
X188109Y353588D01*
X187399Y355300D01*
X186271Y356771D01*
X184800Y357899D01*
X183088Y358609D01*
X182520Y358684D01*
D02*
G37*
G36*
X179980D02*
X179412Y358609D01*
X177700Y357899D01*
X176229Y356771D01*
X175100Y355300D01*
X174391Y353588D01*
X174316Y353020D01*
X179980D01*
Y358684D01*
D02*
G37*
G36*
X538750Y368750D02*
X521250D01*
Y351250D01*
X538750D01*
Y368750D01*
D02*
G37*
G36*
X510000Y368825D02*
X507716Y368525D01*
X505587Y367643D01*
X503759Y366241D01*
X502357Y364413D01*
X501475Y362284D01*
X501175Y360000D01*
X501475Y357716D01*
X502357Y355587D01*
X503759Y353759D01*
X505587Y352357D01*
X507716Y351475D01*
X510000Y351175D01*
X512284Y351475D01*
X514413Y352357D01*
X516241Y353759D01*
X517643Y355587D01*
X518525Y357716D01*
X518825Y360000D01*
X518525Y362284D01*
X517643Y364413D01*
X516241Y366241D01*
X514413Y367643D01*
X512284Y368525D01*
X510000Y368825D01*
D02*
G37*
G36*
X490000D02*
X487716Y368525D01*
X485587Y367643D01*
X483759Y366241D01*
X482357Y364413D01*
X481475Y362284D01*
X481175Y360000D01*
X481475Y357716D01*
X482357Y355587D01*
X483759Y353759D01*
X485587Y352357D01*
X487716Y351475D01*
X490000Y351175D01*
X492284Y351475D01*
X494413Y352357D01*
X496241Y353759D01*
X497643Y355587D01*
X498525Y357716D01*
X498825Y360000D01*
X498525Y362284D01*
X497643Y364413D01*
X496241Y366241D01*
X494413Y367643D01*
X492284Y368525D01*
X490000Y368825D01*
D02*
G37*
G36*
X470500Y452806D02*
X468803Y452583D01*
X467222Y451928D01*
X465864Y450886D01*
X464822Y449528D01*
X464167Y447947D01*
X463944Y446250D01*
X464167Y444553D01*
X464822Y442972D01*
X465864Y441614D01*
X466916Y440807D01*
Y368194D01*
X465587Y367643D01*
X463759Y366241D01*
X462357Y364413D01*
X461475Y362284D01*
X461175Y360000D01*
X461475Y357716D01*
X462357Y355587D01*
X463759Y353759D01*
X465587Y352357D01*
X467716Y351475D01*
X470000Y351175D01*
X472284Y351475D01*
X474413Y352357D01*
X476241Y353759D01*
X477643Y355587D01*
X478525Y357716D01*
X478825Y360000D01*
X478525Y362284D01*
X477643Y364413D01*
X476241Y366241D01*
X474413Y367643D01*
X473584Y367986D01*
Y440492D01*
X473778Y440572D01*
X475136Y441614D01*
X476178Y442972D01*
X476833Y444553D01*
X477056Y446250D01*
X476833Y447947D01*
X476178Y449528D01*
X475136Y450886D01*
X473778Y451928D01*
X472197Y452583D01*
X470500Y452806D01*
D02*
G37*
G36*
X449250Y426806D02*
X447553Y426583D01*
X445972Y425928D01*
X444614Y424886D01*
X443572Y423528D01*
X442917Y421947D01*
X442694Y420250D01*
X442917Y418553D01*
X443572Y416972D01*
X444614Y415614D01*
X445916Y414615D01*
Y367779D01*
X445587Y367643D01*
X443759Y366241D01*
X442357Y364413D01*
X441475Y362284D01*
X441175Y360000D01*
X441475Y357716D01*
X442357Y355587D01*
X443759Y353759D01*
X445587Y352357D01*
X447716Y351475D01*
X450000Y351175D01*
X452284Y351475D01*
X454413Y352357D01*
X456241Y353759D01*
X457643Y355587D01*
X458525Y357716D01*
X458825Y360000D01*
X458525Y362284D01*
X457643Y364413D01*
X456241Y366241D01*
X454413Y367643D01*
X452584Y368401D01*
Y414615D01*
X453886Y415614D01*
X454928Y416972D01*
X455583Y418553D01*
X455806Y420250D01*
X455583Y421947D01*
X454928Y423528D01*
X453886Y424886D01*
X452528Y425928D01*
X450947Y426583D01*
X449250Y426806D01*
D02*
G37*
G36*
X429250Y477806D02*
X427553Y477583D01*
X425972Y476928D01*
X424614Y475886D01*
X423572Y474528D01*
X422917Y472947D01*
X422694Y471250D01*
X422917Y469553D01*
X423572Y467972D01*
X424614Y466614D01*
X425972Y465572D01*
X426291Y465440D01*
Y367935D01*
X425587Y367643D01*
X423759Y366241D01*
X422357Y364413D01*
X421475Y362284D01*
X421175Y360000D01*
X421475Y357716D01*
X422357Y355587D01*
X423759Y353759D01*
X425587Y352357D01*
X427716Y351475D01*
X430000Y351175D01*
X432284Y351475D01*
X434413Y352357D01*
X436241Y353759D01*
X437643Y355587D01*
X438525Y357716D01*
X438825Y360000D01*
X438525Y362284D01*
X437643Y364413D01*
X436241Y366241D01*
X434413Y367643D01*
X432959Y368245D01*
Y465903D01*
X433886Y466614D01*
X434928Y467972D01*
X435583Y469553D01*
X435806Y471250D01*
X435583Y472947D01*
X434928Y474528D01*
X433886Y475886D01*
X432528Y476928D01*
X430947Y477583D01*
X429250Y477806D01*
D02*
G37*
G36*
X391270Y369203D02*
Y360000D01*
X390000D01*
D01*
X391270D01*
Y350797D01*
X392425Y350949D01*
X394685Y351885D01*
X396626Y353374D01*
X398115Y355315D01*
X399051Y357575D01*
X399216Y358828D01*
X399264Y359191D01*
X401281D01*
X401329Y358828D01*
X401475Y357716D01*
X402357Y355587D01*
X403759Y353759D01*
X405587Y352357D01*
X407716Y351475D01*
X410000Y351175D01*
X412284Y351475D01*
X414413Y352357D01*
X416241Y353759D01*
X417643Y355587D01*
X418525Y357716D01*
X418825Y360000D01*
X418525Y362284D01*
X417643Y364413D01*
X416241Y366241D01*
X414413Y367643D01*
X412284Y368525D01*
X410000Y368825D01*
X407716Y368525D01*
X405587Y367643D01*
X403759Y366241D01*
X402357Y364413D01*
X401475Y362284D01*
X401329Y361172D01*
X401281Y360809D01*
X399264D01*
X399216Y361171D01*
X399051Y362425D01*
X398115Y364685D01*
X396626Y366626D01*
X394685Y368115D01*
X392425Y369051D01*
X391270Y369203D01*
D02*
G37*
G36*
X388730Y358730D02*
X380797D01*
X380949Y357575D01*
X381885Y355315D01*
X383374Y353374D01*
X385315Y351885D01*
X387575Y350949D01*
X388730Y350797D01*
Y358730D01*
D02*
G37*
G36*
X653425Y369575D02*
X632175D01*
Y348325D01*
X653425D01*
Y369575D01*
D02*
G37*
G36*
X710060Y352974D02*
Y347310D01*
X715723D01*
X715649Y347878D01*
X714939Y349590D01*
X713811Y351061D01*
X712340Y352189D01*
X710628Y352899D01*
X710060Y352974D01*
D02*
G37*
G36*
X707520D02*
X706952Y352899D01*
X705240Y352189D01*
X703769Y351061D01*
X702641Y349590D01*
X701931Y347878D01*
X701857Y347310D01*
X707520D01*
Y352974D01*
D02*
G37*
G36*
X122700Y367091D02*
X119959Y366730D01*
X117405Y365672D01*
X115211Y363989D01*
X113528Y361795D01*
X112470Y359241D01*
X112109Y356500D01*
X112470Y353759D01*
X113528Y351205D01*
X115211Y349011D01*
X117405Y347328D01*
X119959Y346270D01*
X122700Y345909D01*
X125441Y346270D01*
X127995Y347328D01*
X130189Y349011D01*
X131872Y351205D01*
X132930Y353759D01*
X133291Y356500D01*
X132930Y359241D01*
X131872Y361795D01*
X130189Y363989D01*
X127995Y365672D01*
X125441Y366730D01*
X122700Y367091D01*
D02*
G37*
G36*
X97300D02*
X94559Y366730D01*
X92005Y365672D01*
X89811Y363989D01*
X88128Y361795D01*
X87070Y359241D01*
X86709Y356500D01*
X87070Y353759D01*
X88128Y351205D01*
X89811Y349011D01*
X92005Y347328D01*
X94559Y346270D01*
X97300Y345909D01*
X100041Y346270D01*
X102595Y347328D01*
X104789Y349011D01*
X106472Y351205D01*
X107530Y353759D01*
X107891Y356500D01*
X107530Y359241D01*
X106472Y361795D01*
X104789Y363989D01*
X102595Y365672D01*
X100041Y366730D01*
X97300Y367091D01*
D02*
G37*
G36*
X188183Y350480D02*
X182520D01*
Y344816D01*
X183088Y344891D01*
X184800Y345601D01*
X186271Y346729D01*
X187399Y348200D01*
X188109Y349912D01*
X188183Y350480D01*
D02*
G37*
G36*
X179980D02*
X174316D01*
X174391Y349912D01*
X175100Y348200D01*
X176229Y346729D01*
X177700Y345601D01*
X179412Y344891D01*
X179980Y344816D01*
Y350480D01*
D02*
G37*
G36*
X628394Y357930D02*
X617300D01*
X606206D01*
X606422Y356285D01*
X607547Y353569D01*
X609337Y351237D01*
X611600Y349501D01*
X611670Y349440D01*
X611975Y347296D01*
X611911Y347183D01*
X610851Y345800D01*
X610141Y344088D01*
X610066Y343520D01*
X623934D01*
X623859Y344088D01*
X623149Y345800D01*
X622234Y346994D01*
X622302Y348216D01*
X622631Y349324D01*
X622931Y349447D01*
X625263Y351237D01*
X627053Y353569D01*
X628178Y356285D01*
X628394Y357930D01*
D02*
G37*
G36*
X715723Y344770D02*
X710060D01*
Y339106D01*
X710628Y339181D01*
X712340Y339891D01*
X713811Y341019D01*
X714939Y342490D01*
X715649Y344202D01*
X715723Y344770D01*
D02*
G37*
G36*
X707520D02*
X701857D01*
X701931Y344202D01*
X702641Y342490D01*
X703769Y341019D01*
X705240Y339891D01*
X706952Y339181D01*
X707520Y339106D01*
Y344770D01*
D02*
G37*
G36*
X623934Y340980D02*
X618270D01*
Y335316D01*
X618838Y335391D01*
X620550Y336101D01*
X622021Y337229D01*
X623149Y338700D01*
X623859Y340412D01*
X623934Y340980D01*
D02*
G37*
G36*
X615730D02*
X610066D01*
X610141Y340412D01*
X610851Y338700D01*
X611979Y337229D01*
X613450Y336101D01*
X615162Y335391D01*
X615730Y335316D01*
Y340980D01*
D02*
G37*
G36*
X97300Y341691D02*
X94559Y341330D01*
X92005Y340272D01*
X89811Y338589D01*
X88128Y336395D01*
X87070Y333841D01*
X86709Y331100D01*
X87070Y328359D01*
X88128Y325805D01*
X89811Y323611D01*
X92005Y321928D01*
X94559Y320870D01*
X97300Y320509D01*
X100041Y320870D01*
X102595Y321928D01*
X104789Y323611D01*
X106472Y325805D01*
X107530Y328359D01*
X107891Y331100D01*
X107530Y333841D01*
X106472Y336395D01*
X104789Y338589D01*
X102595Y340272D01*
X100041Y341330D01*
X97300Y341691D01*
D02*
G37*
G36*
X98570Y316668D02*
Y306970D01*
X108268D01*
X108056Y308582D01*
X106943Y311268D01*
X105174Y313574D01*
X102868Y315343D01*
X100182Y316456D01*
X98570Y316668D01*
D02*
G37*
G36*
X96030D02*
X94418Y316456D01*
X91732Y315343D01*
X89426Y313574D01*
X87657Y311268D01*
X86544Y308582D01*
X86332Y306970D01*
X96030D01*
Y316668D01*
D02*
G37*
G36*
X133200Y316200D02*
X112200D01*
Y295200D01*
X133200D01*
Y316200D01*
D02*
G37*
G36*
X108268Y304430D02*
X98570D01*
Y294732D01*
X100182Y294944D01*
X102868Y296057D01*
X105174Y297826D01*
X106943Y300132D01*
X108056Y302818D01*
X108268Y304430D01*
D02*
G37*
G36*
X96030D02*
X86332D01*
X86544Y302818D01*
X87657Y300132D01*
X89426Y297826D01*
X91732Y296057D01*
X94418Y294944D01*
X96030Y294732D01*
Y304430D01*
D02*
G37*
G36*
X149770Y294933D02*
Y289270D01*
X155434D01*
X155359Y289838D01*
X154649Y291550D01*
X153521Y293021D01*
X152050Y294149D01*
X150338Y294859D01*
X149770Y294933D01*
D02*
G37*
G36*
X147230D02*
X146662Y294859D01*
X144950Y294149D01*
X143479Y293021D01*
X142351Y291550D01*
X141641Y289838D01*
X141566Y289270D01*
X147230D01*
Y294933D01*
D02*
G37*
G36*
X155434Y286730D02*
X149770D01*
Y281066D01*
X150338Y281141D01*
X152050Y281851D01*
X153521Y282979D01*
X154649Y284450D01*
X155359Y286162D01*
X155434Y286730D01*
D02*
G37*
G36*
X147230D02*
X141566D01*
X141641Y286162D01*
X142351Y284450D01*
X143479Y282979D01*
X144950Y281851D01*
X146662Y281141D01*
X147230Y281066D01*
Y286730D01*
D02*
G37*
G36*
X150270Y272684D02*
Y267020D01*
X155934D01*
X155859Y267588D01*
X155149Y269300D01*
X154021Y270771D01*
X152550Y271899D01*
X150838Y272609D01*
X150270Y272684D01*
D02*
G37*
G36*
X147730D02*
X147162Y272609D01*
X145450Y271899D01*
X143979Y270771D01*
X142851Y269300D01*
X142141Y267588D01*
X142066Y267020D01*
X147730D01*
Y272684D01*
D02*
G37*
G36*
X155934Y264480D02*
X150270D01*
Y258816D01*
X150838Y258891D01*
X152550Y259601D01*
X154021Y260729D01*
X155149Y262200D01*
X155859Y263912D01*
X155934Y264480D01*
D02*
G37*
G36*
X147730D02*
X142066D01*
X142141Y263912D01*
X142851Y262200D01*
X143979Y260729D01*
X145450Y259601D01*
X147162Y258891D01*
X147730Y258816D01*
Y264480D01*
D02*
G37*
G36*
X74020Y257934D02*
Y252270D01*
X79683D01*
X79609Y252838D01*
X78899Y254550D01*
X77771Y256021D01*
X76300Y257149D01*
X74588Y257859D01*
X74020Y257934D01*
D02*
G37*
G36*
X71480D02*
X70912Y257859D01*
X69200Y257149D01*
X67729Y256021D01*
X66601Y254550D01*
X65891Y252838D01*
X65816Y252270D01*
X71480D01*
Y257934D01*
D02*
G37*
G36*
X79683Y249730D02*
X74020D01*
Y244067D01*
X74588Y244141D01*
X76300Y244851D01*
X77771Y245979D01*
X78899Y247450D01*
X79609Y249162D01*
X79683Y249730D01*
D02*
G37*
G36*
X71480D02*
X65816D01*
X65891Y249162D01*
X66601Y247450D01*
X67729Y245979D01*
X69200Y244851D01*
X70912Y244141D01*
X71480Y244067D01*
Y249730D01*
D02*
G37*
G36*
X62770Y238664D02*
Y233000D01*
X68433D01*
X68359Y233568D01*
X67649Y235280D01*
X66521Y236751D01*
X65050Y237879D01*
X63338Y238589D01*
X62770Y238664D01*
D02*
G37*
G36*
X60230D02*
X59662Y238589D01*
X57950Y237879D01*
X56479Y236751D01*
X55351Y235280D01*
X54641Y233568D01*
X54566Y233000D01*
X60230D01*
Y238664D01*
D02*
G37*
G36*
X122700Y341691D02*
X119959Y341330D01*
X117405Y340272D01*
X115211Y338589D01*
X113528Y336395D01*
X112470Y333841D01*
X112109Y331100D01*
X112470Y328359D01*
X113528Y325805D01*
X115211Y323611D01*
X117405Y321928D01*
X119959Y320870D01*
X122700Y320509D01*
X125441Y320870D01*
X127995Y321928D01*
X130189Y323611D01*
X130517Y324040D01*
X249718D01*
X251440Y322318D01*
Y263095D01*
X249010Y261796D01*
X246422Y259672D01*
X244297Y257083D01*
X242719Y254130D01*
X241747Y250926D01*
X241418Y247593D01*
X241747Y244261D01*
X242719Y241056D01*
X244297Y238103D01*
X246422Y235514D01*
X249010Y233390D01*
X251963Y231811D01*
X255168Y230839D01*
X258500Y230511D01*
X261833Y230839D01*
X265038Y231811D01*
X267991Y233390D01*
X270579Y235514D01*
X272704Y238103D01*
X274282Y241056D01*
X275254Y244261D01*
X275583Y247593D01*
X275254Y250926D01*
X274282Y254130D01*
X272704Y257083D01*
X270579Y259672D01*
X267991Y261796D01*
X265561Y263095D01*
Y325242D01*
X265320Y327070D01*
X264615Y328772D01*
X263493Y330235D01*
X257635Y336092D01*
X256173Y337215D01*
X254470Y337920D01*
X252643Y338160D01*
X130517D01*
X130189Y338589D01*
X127995Y340272D01*
X125441Y341330D01*
X122700Y341691D01*
D02*
G37*
G36*
X530300Y266183D02*
X526674Y265825D01*
X523187Y264767D01*
X519973Y263050D01*
X517156Y260738D01*
X514844Y257921D01*
X513126Y254707D01*
X512068Y251220D01*
X511711Y247593D01*
X512068Y243966D01*
X513126Y240479D01*
X514844Y237265D01*
X517156Y234448D01*
X519973Y232136D01*
X523187Y230419D01*
X526674Y229361D01*
X530300Y229004D01*
X533927Y229361D01*
X537414Y230419D01*
X540628Y232136D01*
X543445Y234448D01*
X545757Y237265D01*
X547475Y240479D01*
X548533Y243966D01*
X548890Y247593D01*
X548533Y251220D01*
X547475Y254707D01*
X545757Y257921D01*
X543445Y260738D01*
X540628Y263050D01*
X537414Y264767D01*
X533927Y265825D01*
X530300Y266183D01*
D02*
G37*
G36*
X131980Y234184D02*
X131412Y234109D01*
X129700Y233399D01*
X128229Y232271D01*
X127101Y230800D01*
X126391Y229088D01*
X126316Y228520D01*
X131980D01*
Y234184D01*
D02*
G37*
G36*
X68433Y230460D02*
X62770D01*
Y224797D01*
X63338Y224871D01*
X65050Y225581D01*
X66521Y226709D01*
X67649Y228180D01*
X68359Y229892D01*
X68433Y230460D01*
D02*
G37*
G36*
X60230D02*
X54566D01*
X54641Y229892D01*
X55351Y228180D01*
X56479Y226709D01*
X57950Y225581D01*
X59662Y224871D01*
X60230Y224797D01*
Y230460D01*
D02*
G37*
G36*
X146270Y229934D02*
Y224270D01*
X151933D01*
X151859Y224838D01*
X151149Y226550D01*
X150021Y228021D01*
X148550Y229149D01*
X146838Y229859D01*
X146270Y229934D01*
D02*
G37*
G36*
X202270Y229434D02*
Y223770D01*
X207934D01*
X207859Y224338D01*
X207149Y226050D01*
X206021Y227521D01*
X204550Y228649D01*
X202838Y229359D01*
X202270Y229434D01*
D02*
G37*
G36*
X199730D02*
X199162Y229359D01*
X197450Y228649D01*
X195979Y227521D01*
X194851Y226050D01*
X194141Y224338D01*
X194067Y223770D01*
X199730D01*
Y229434D01*
D02*
G37*
G36*
X131980Y225980D02*
X126316D01*
X126391Y225412D01*
X127101Y223700D01*
X128229Y222229D01*
X129700Y221101D01*
X131412Y220391D01*
X131980Y220317D01*
Y225980D01*
D02*
G37*
G36*
X151933Y221730D02*
X146270D01*
Y216066D01*
X146838Y216141D01*
X148550Y216851D01*
X150021Y217979D01*
X151149Y219450D01*
X151859Y221162D01*
X151933Y221730D01*
D02*
G37*
G36*
X134520Y234184D02*
Y227250D01*
Y220317D01*
X135088Y220391D01*
X136189Y220847D01*
X137001Y220978D01*
X138630Y219983D01*
X138851Y219450D01*
X139979Y217979D01*
X141450Y216851D01*
X143162Y216141D01*
X143730Y216066D01*
Y223000D01*
Y229934D01*
X143162Y229859D01*
X142061Y229403D01*
X141249Y229272D01*
X139620Y230267D01*
X139399Y230800D01*
X138271Y232271D01*
X136800Y233399D01*
X135088Y234109D01*
X134520Y234184D01*
D02*
G37*
G36*
X207934Y221230D02*
X202270D01*
Y215567D01*
X202838Y215641D01*
X204550Y216351D01*
X206021Y217479D01*
X207149Y218950D01*
X207859Y220662D01*
X207934Y221230D01*
D02*
G37*
G36*
X199730D02*
X194067D01*
X194141Y220662D01*
X194851Y218950D01*
X195979Y217479D01*
X197450Y216351D01*
X199162Y215641D01*
X199730Y215567D01*
Y221230D01*
D02*
G37*
G36*
X61020Y202183D02*
Y196520D01*
X66684D01*
X66609Y197088D01*
X65899Y198800D01*
X64771Y200271D01*
X63300Y201399D01*
X61588Y202109D01*
X61020Y202183D01*
D02*
G37*
G36*
X58480D02*
X57912Y202109D01*
X56200Y201399D01*
X54729Y200271D01*
X53601Y198800D01*
X52891Y197088D01*
X52817Y196520D01*
X58480D01*
Y202183D01*
D02*
G37*
G36*
X66684Y193980D02*
X61020D01*
Y188316D01*
X61588Y188391D01*
X63300Y189101D01*
X64771Y190229D01*
X65899Y191700D01*
X66609Y193412D01*
X66684Y193980D01*
D02*
G37*
G36*
X58480D02*
X52817D01*
X52891Y193412D01*
X53601Y191700D01*
X54729Y190229D01*
X56200Y189101D01*
X57912Y188391D01*
X58480Y188316D01*
Y193980D01*
D02*
G37*
G36*
X530300Y191735D02*
X526576Y191368D01*
X522994Y190282D01*
X519694Y188517D01*
X516800Y186143D01*
X514426Y183250D01*
X512662Y179949D01*
X511575Y176368D01*
X511209Y172643D01*
X511575Y168918D01*
X512662Y165337D01*
X514426Y162036D01*
X516800Y159143D01*
X519694Y156769D01*
X522994Y155004D01*
X526576Y153918D01*
X530300Y153551D01*
X534025Y153918D01*
X537607Y155004D01*
X540907Y156769D01*
X543801Y159143D01*
X546175Y162036D01*
X547939Y165337D01*
X549025Y168918D01*
X549392Y172643D01*
X549025Y176368D01*
X547939Y179949D01*
X546175Y183250D01*
X543801Y186143D01*
X540907Y188517D01*
X537607Y190282D01*
X534025Y191368D01*
X530300Y191735D01*
D02*
G37*
G36*
X165770Y119684D02*
Y114020D01*
X171434D01*
X171359Y114588D01*
X170649Y116300D01*
X169521Y117771D01*
X168050Y118899D01*
X166338Y119609D01*
X165770Y119684D01*
D02*
G37*
G36*
X163230D02*
X162662Y119609D01*
X160950Y118899D01*
X159479Y117771D01*
X158351Y116300D01*
X157641Y114588D01*
X157566Y114020D01*
X163230D01*
Y119684D01*
D02*
G37*
G36*
X171434Y111480D02*
X165770D01*
Y105816D01*
X166338Y105891D01*
X168050Y106601D01*
X169521Y107729D01*
X170649Y109200D01*
X171359Y110912D01*
X171434Y111480D01*
D02*
G37*
G36*
X163230D02*
X157566D01*
X157641Y110912D01*
X158351Y109200D01*
X159479Y107729D01*
X160950Y106601D01*
X162662Y105891D01*
X163230Y105816D01*
Y111480D01*
D02*
G37*
G36*
X259771Y115193D02*
Y98963D01*
X276000D01*
X275787Y101131D01*
X274784Y104438D01*
X273155Y107485D01*
X270963Y110156D01*
X268292Y112348D01*
X265245Y113976D01*
X261939Y114979D01*
X259771Y115193D01*
D02*
G37*
G36*
X257230D02*
X255062Y114979D01*
X251756Y113976D01*
X248709Y112348D01*
X246038Y110156D01*
X243846Y107485D01*
X242217Y104438D01*
X241214Y101131D01*
X241001Y98963D01*
X257230D01*
Y115193D01*
D02*
G37*
G36*
X276000Y96423D02*
X259771D01*
Y80193D01*
X261939Y80407D01*
X265245Y81410D01*
X268292Y83039D01*
X270963Y85230D01*
X273155Y87901D01*
X274784Y90948D01*
X275787Y94255D01*
X276000Y96423D01*
D02*
G37*
G36*
X257230D02*
X241001D01*
X241214Y94255D01*
X242217Y90948D01*
X243846Y87901D01*
X246038Y85230D01*
X248709Y83039D01*
X251756Y81410D01*
X255062Y80407D01*
X257230Y80193D01*
Y96423D01*
D02*
G37*
G36*
X530300Y116283D02*
X526674Y115925D01*
X523187Y114867D01*
X519973Y113150D01*
X517156Y110838D01*
X514844Y108021D01*
X513126Y104807D01*
X512068Y101320D01*
X511711Y97693D01*
X512068Y94066D01*
X513126Y90579D01*
X514844Y87365D01*
X517156Y84548D01*
X519973Y82236D01*
X523187Y80519D01*
X526674Y79461D01*
X530300Y79104D01*
X533927Y79461D01*
X537414Y80519D01*
X540628Y82236D01*
X543445Y84548D01*
X545757Y87365D01*
X547475Y90579D01*
X548533Y94066D01*
X548890Y97693D01*
X548533Y101320D01*
X547475Y104807D01*
X545757Y108021D01*
X543445Y110838D01*
X540628Y113150D01*
X537414Y114867D01*
X533927Y115925D01*
X530300Y116283D01*
D02*
G37*
G36*
X159020Y79468D02*
Y69770D01*
X168718D01*
X168506Y71382D01*
X167393Y74068D01*
X165624Y76374D01*
X163318Y78143D01*
X160632Y79256D01*
X159020Y79468D01*
D02*
G37*
G36*
X156480D02*
X154868Y79256D01*
X152182Y78143D01*
X149876Y76374D01*
X148107Y74068D01*
X146994Y71382D01*
X146782Y69770D01*
X156480D01*
Y79468D01*
D02*
G37*
G36*
X193650Y79000D02*
X172650D01*
Y58000D01*
X193650D01*
Y79000D01*
D02*
G37*
G36*
X168718Y67230D02*
X159020D01*
Y57532D01*
X160632Y57744D01*
X163318Y58857D01*
X165624Y60626D01*
X167393Y62932D01*
X168506Y65618D01*
X168718Y67230D01*
D02*
G37*
G36*
X156480D02*
X146782D01*
X146994Y65618D01*
X148107Y62932D01*
X149876Y60626D01*
X152182Y58857D01*
X154868Y57744D01*
X156480Y57532D01*
Y67230D01*
D02*
G37*
G36*
X1000000Y92099D02*
X994979Y91704D01*
X990081Y90528D01*
X985427Y88600D01*
X981133Y85969D01*
X977303Y82697D01*
X974031Y78867D01*
X971400Y74573D01*
X969472Y69919D01*
X968296Y65021D01*
X967901Y60000D01*
X968296Y54979D01*
X969472Y50081D01*
X971400Y45427D01*
X974031Y41133D01*
X977303Y37303D01*
X981133Y34031D01*
X985427Y31400D01*
X990081Y29472D01*
X994979Y28296D01*
X1000000Y27901D01*
X1005021Y28296D01*
X1009919Y29472D01*
X1014573Y31400D01*
X1018867Y34031D01*
X1022697Y37303D01*
X1025969Y41133D01*
X1028600Y45427D01*
X1030528Y50081D01*
X1031704Y54979D01*
X1032099Y60000D01*
X1031704Y65021D01*
X1030528Y69919D01*
X1028600Y74573D01*
X1025969Y78867D01*
X1022697Y82697D01*
X1018867Y85969D01*
X1014573Y88600D01*
X1009919Y90528D01*
X1005021Y91704D01*
X1000000Y92099D01*
D02*
G37*
G36*
X60000D02*
X54979Y91704D01*
X50081Y90528D01*
X45427Y88600D01*
X41133Y85969D01*
X37303Y82697D01*
X34031Y78867D01*
X31400Y74573D01*
X29472Y69919D01*
X28296Y65021D01*
X27901Y60000D01*
X28296Y54979D01*
X29472Y50081D01*
X31400Y45427D01*
X34031Y41133D01*
X37303Y37303D01*
X41133Y34031D01*
X45427Y31400D01*
X50081Y29472D01*
X54979Y28296D01*
X60000Y27901D01*
X65021Y28296D01*
X69919Y29472D01*
X74573Y31400D01*
X78867Y34031D01*
X82697Y37303D01*
X85969Y41133D01*
X88600Y45427D01*
X90528Y50081D01*
X91704Y54979D01*
X92099Y60000D01*
X91704Y65021D01*
X90528Y69919D01*
X88600Y74573D01*
X85969Y78867D01*
X82697Y82697D01*
X78867Y85969D01*
X74573Y88600D01*
X69919Y90528D01*
X65021Y91704D01*
X60000Y92099D01*
D02*
G37*
G36*
X917813Y36536D02*
Y26838D01*
X927512D01*
X927299Y28450D01*
X926187Y31135D01*
X924417Y33442D01*
X922111Y35211D01*
X919425Y36323D01*
X917813Y36536D01*
D02*
G37*
G36*
X915273Y36536D02*
X913661Y36323D01*
X910976Y35211D01*
X908670Y33442D01*
X906900Y31135D01*
X905788Y28450D01*
X905575Y26838D01*
X915273D01*
Y36536D01*
D02*
G37*
G36*
X193500Y46250D02*
X172500D01*
Y25250D01*
X193500D01*
Y46250D01*
D02*
G37*
G36*
X157600Y46341D02*
X154859Y45980D01*
X152305Y44922D01*
X150111Y43239D01*
X148428Y41045D01*
X147370Y38491D01*
X147009Y35750D01*
X147370Y33009D01*
X148428Y30455D01*
X150111Y28261D01*
X152305Y26578D01*
X154859Y25520D01*
X157600Y25159D01*
X160341Y25520D01*
X162895Y26578D01*
X165089Y28261D01*
X166772Y30455D01*
X167830Y33009D01*
X168191Y35750D01*
X167830Y38491D01*
X166772Y41045D01*
X165089Y43239D01*
X162895Y44922D01*
X160341Y45980D01*
X157600Y46341D01*
D02*
G37*
G36*
X952443Y36068D02*
X931443D01*
Y15068D01*
X952443D01*
Y36068D01*
D02*
G37*
G36*
X915273Y24298D02*
X905575D01*
X905788Y22686D01*
X906900Y20000D01*
X908670Y17694D01*
X910976Y15924D01*
X913661Y14812D01*
X915273Y14600D01*
Y24298D01*
D02*
G37*
G36*
X927512D02*
X917813D01*
Y14600D01*
X919425Y14812D01*
X922111Y15924D01*
X924417Y17694D01*
X926187Y20000D01*
X927299Y22686D01*
X927512Y24298D01*
D02*
G37*
%LPD*%
D10*
X390000Y532000D02*
Y600000D01*
X390000Y600000D02*
X390000Y600000D01*
X338000Y483000D02*
Y544000D01*
X410000Y498000D02*
Y600000D01*
X509000Y459000D02*
X509500Y459500D01*
Y599500D01*
X510000Y600000D01*
X530000D02*
X530000Y600000D01*
Y432000D02*
Y600000D01*
D19*
X380218Y809750D02*
X382718Y807250D01*
X379500Y809750D02*
X380218D01*
X382718Y807250D02*
X447980D01*
X458940Y796290D01*
X245465Y655575D02*
Y767965D01*
X244680Y654790D02*
X245465Y655575D01*
Y767965D02*
X246250Y768750D01*
X433540Y699290D02*
Y745490D01*
X426750Y692500D02*
X433540Y699290D01*
X357805Y626665D02*
X357930Y626540D01*
X357680Y687290D02*
X357805Y687165D01*
Y626665D02*
Y687165D01*
X317930Y627070D02*
X318195Y626805D01*
X357665D02*
X357930Y626540D01*
X318195Y626805D02*
X357665D01*
X449250Y420250D02*
Y420750D01*
Y360750D02*
Y420250D01*
Y360750D02*
X450000Y360000D01*
X470250Y360250D02*
Y446000D01*
X470500Y446250D01*
X470000Y360000D02*
X470250Y360250D01*
X429250Y471250D02*
X429625Y470875D01*
Y360375D02*
Y470875D01*
Y360375D02*
X430000Y360000D01*
X287450Y569920D02*
Y596590D01*
X317930Y627070D01*
D59*
X617300Y614779D02*
X622500Y619979D01*
X617300Y460800D02*
Y614779D01*
X314750Y716250D02*
Y770000D01*
X304500Y706000D02*
X314750Y716250D01*
D60*
X258500Y247593D02*
Y325242D01*
X252643Y331100D02*
X258500Y325242D01*
X122700Y331100D02*
X252643D01*
D63*
X60000Y780000D02*
D03*
Y60000D02*
D03*
X1000000D02*
D03*
Y790000D02*
D03*
D64*
X433540Y820100D02*
D03*
X122700Y305700D02*
D03*
X190250Y759350D02*
D03*
X498750Y664550D02*
D03*
D65*
X458940Y820100D02*
D03*
X433540Y794700D02*
D03*
X458940D02*
D03*
X433540Y769300D02*
D03*
X458940D02*
D03*
X433540Y743900D02*
D03*
X458940D02*
D03*
X157750Y68500D02*
D03*
X157600Y35750D02*
D03*
X97300Y534300D02*
D03*
X122700D02*
D03*
X97300Y508900D02*
D03*
X122700D02*
D03*
X97300Y483500D02*
D03*
X122700D02*
D03*
X97300Y458100D02*
D03*
X122700D02*
D03*
X97300Y432700D02*
D03*
X122700D02*
D03*
X97300Y407300D02*
D03*
X122700D02*
D03*
X97300Y381900D02*
D03*
X122700D02*
D03*
X97300Y356500D02*
D03*
X122700D02*
D03*
X97300Y331100D02*
D03*
X122700D02*
D03*
X97300Y305700D02*
D03*
X190250Y784750D02*
D03*
Y810150D02*
D03*
X916543Y25568D02*
D03*
X498750Y689950D02*
D03*
D66*
X677750Y770000D02*
D03*
X69250Y666650D02*
D03*
Y704750D02*
D03*
X352850Y770000D02*
D03*
X314750D02*
D03*
X771550D02*
D03*
D67*
X639650D02*
D03*
X276650D02*
D03*
X733450D02*
D03*
D68*
X69250Y628550D02*
D03*
D69*
X258500Y97693D02*
D03*
Y247593D02*
D03*
D70*
X530300Y97693D02*
D03*
Y247593D02*
D03*
D71*
Y172643D02*
D03*
D72*
X183150Y68500D02*
D03*
X183000Y35750D02*
D03*
X941943Y25568D02*
D03*
D73*
X530000Y360000D02*
D03*
Y600000D02*
D03*
D74*
X510000Y360000D02*
D03*
X490000D02*
D03*
X470000D02*
D03*
X450000D02*
D03*
X430000D02*
D03*
X410000D02*
D03*
X390000D02*
D03*
Y600000D02*
D03*
X410000D02*
D03*
X430000D02*
D03*
X450000D02*
D03*
X470000D02*
D03*
X490000D02*
D03*
X510000D02*
D03*
D75*
X642700Y410000D02*
D03*
Y384600D02*
D03*
Y435400D02*
D03*
X617300Y410000D02*
D03*
Y384600D02*
D03*
Y435400D02*
D03*
X642700Y460800D02*
D03*
X617300Y359200D02*
D03*
Y460800D02*
D03*
D76*
X642800Y358950D02*
D03*
D77*
X390000Y532000D02*
D03*
X338000Y544000D02*
D03*
Y483000D02*
D03*
X410000Y498000D02*
D03*
X509000Y459000D02*
D03*
X530000Y432000D02*
D03*
X72750Y251000D02*
D03*
X622500Y619979D02*
D03*
X246250Y768750D02*
D03*
X357680Y687290D02*
D03*
X164500Y112750D02*
D03*
X323930Y701710D02*
D03*
X244680Y654790D02*
D03*
X644150Y696970D02*
D03*
X804000Y762000D02*
D03*
X775540Y651570D02*
D03*
X145000Y223000D02*
D03*
X59750Y195250D02*
D03*
X148500Y288000D02*
D03*
X477000Y679830D02*
D03*
X549030Y621530D02*
D03*
X599790Y686320D02*
D03*
X61500Y231730D02*
D03*
X617000Y342250D02*
D03*
X708790Y346040D02*
D03*
Y403210D02*
D03*
X149000Y265750D02*
D03*
X305180Y625790D02*
D03*
X274180Y603790D02*
D03*
X133250Y227250D02*
D03*
X181250Y351750D02*
D03*
X201000Y222500D02*
D03*
X287180Y636790D02*
D03*
X357930Y626540D02*
D03*
X449250Y420250D02*
D03*
X470500Y446250D02*
D03*
X429250Y471250D02*
D03*
X287450Y569920D02*
D03*
X317930Y627070D02*
D03*
X379500Y809750D02*
D03*
D78*
X304500Y706000D02*
D03*
D79*
X426750Y692500D02*
D03*
X620290Y641320D02*
D03*
M02*
