G04*
G04 #@! TF.GenerationSoftware,Altium Limited,Altium Designer,21.4.1 (30)*
G04*
G04 Layer_Physical_Order=1*
G04 Layer_Color=255*
%FSLAX44Y44*%
%MOMM*%
G71*
G04*
G04 #@! TF.SameCoordinates,C757E9F2-7087-4A76-99C7-233D7C25EA9E*
G04*
G04*
G04 #@! TF.FilePolarity,Positive*
G04*
G01*
G75*
%ADD10C,0.2000*%
%ADD12C,0.2500*%
%ADD18C,0.3000*%
%ADD19C,0.2540*%
%ADD20R,0.3000X0.5000*%
%ADD21R,1.4500X1.3000*%
%ADD22R,1.3500X1.0000*%
%ADD23R,0.8000X1.1000*%
%ADD24R,0.5600X0.9500*%
%ADD25R,1.3000X1.4500*%
%ADD26R,1.0000X1.3500*%
%ADD27R,0.5500X1.5000*%
%ADD28R,1.0000X0.8000*%
%ADD29R,0.9500X0.5600*%
%ADD30R,2.5000X2.3000*%
%ADD31R,1.0000X1.9000*%
%ADD58C,0.7500*%
%ADD59C,0.5000*%
%ADD60C,1.0000*%
%ADD61C,0.3500*%
%ADD62C,0.2200*%
%ADD63C,6.0000*%
%ADD64R,1.7000X1.7000*%
%ADD65C,1.7000*%
%ADD66C,2.0000*%
%ADD67R,2.0000X2.0000*%
%ADD68R,2.0000X2.0000*%
%ADD69C,3.0000*%
%ADD70C,3.3000*%
%ADD71C,3.4000*%
%ADD72R,1.7000X1.7000*%
%ADD73R,1.3500X1.3500*%
%ADD74C,1.3500*%
%ADD75C,1.7250*%
%ADD76R,1.7250X1.7250*%
%ADD77C,0.9000*%
%ADD78C,1.0000*%
%ADD79C,0.6000*%
G36*
X1050000Y480000D02*
X560000D01*
Y340000D01*
X189750D01*
Y344750D01*
X187113D01*
Y348904D01*
X187307Y349241D01*
X187750Y350894D01*
Y352606D01*
X187307Y354259D01*
X186451Y355741D01*
X185241Y356951D01*
X183759Y357807D01*
X182106Y358250D01*
X180394D01*
X178741Y357807D01*
X177259Y356951D01*
X176049Y355741D01*
X175193Y354259D01*
X174750Y352606D01*
Y350894D01*
X175193Y349241D01*
X175387Y348904D01*
Y344750D01*
X172750D01*
Y344750D01*
X171210D01*
Y344750D01*
X154210D01*
Y342560D01*
X142000D01*
X140173Y342320D01*
X138470Y341614D01*
X137008Y340492D01*
X136515Y340000D01*
X128285D01*
X126753Y340884D01*
X124082Y341600D01*
X121318D01*
X118647Y340884D01*
X116253Y339502D01*
X114298Y337547D01*
X112916Y335153D01*
X112200Y332482D01*
Y329718D01*
X112916Y327047D01*
X114298Y324653D01*
X116253Y322698D01*
X118647Y321316D01*
X121318Y320600D01*
X124082D01*
X124250Y320471D01*
Y316740D01*
X123970D01*
Y305700D01*
Y294660D01*
X124250D01*
Y254591D01*
X123770Y252790D01*
X122250Y252790D01*
X116000D01*
Y243000D01*
X114730D01*
Y241730D01*
X105690D01*
Y233210D01*
X109002D01*
Y224863D01*
X101060D01*
Y228790D01*
X93290D01*
Y219000D01*
Y209210D01*
X101060D01*
Y213137D01*
X114865D01*
X117109Y213584D01*
X119010Y214855D01*
X120281Y216756D01*
X120728Y219000D01*
Y231796D01*
X121870Y232938D01*
X123916Y232664D01*
X124250Y231409D01*
Y189167D01*
X164250D01*
Y119250D01*
X163644D01*
X161991Y118807D01*
X160509Y117951D01*
X159299Y116741D01*
X158443Y115259D01*
X158000Y113606D01*
Y111894D01*
X158443Y110241D01*
X158502Y110138D01*
Y107000D01*
X155730D01*
Y88500D01*
X164250D01*
Y79181D01*
X162250Y78026D01*
X161803Y78284D01*
X159132Y79000D01*
X156368D01*
X153697Y78284D01*
X151303Y76902D01*
X149348Y74947D01*
X147966Y72553D01*
X147250Y69882D01*
Y67118D01*
X147966Y64447D01*
X149348Y62053D01*
X151303Y60098D01*
X153697Y58716D01*
X156368Y58000D01*
X159132D01*
X161803Y58716D01*
X162250Y58974D01*
X164250Y57819D01*
Y46659D01*
X162518Y45658D01*
X161861Y46038D01*
X159053Y46790D01*
X158870D01*
Y35750D01*
Y24710D01*
X159053D01*
X161861Y25462D01*
X162518Y25842D01*
X164250Y24841D01*
Y10000D01*
X10000D01*
Y278000D01*
Y311250D01*
Y830000D01*
X422500D01*
Y821370D01*
X433540D01*
X444580D01*
Y830000D01*
X451281D01*
X451991Y828000D01*
X450538Y826547D01*
X449156Y824153D01*
X448440Y821482D01*
Y818718D01*
X449156Y816047D01*
X450538Y813653D01*
X452493Y811698D01*
X454887Y810316D01*
X457558Y809600D01*
X460322D01*
X462993Y810316D01*
X464645Y811270D01*
X473386Y802529D01*
Y732104D01*
X463213D01*
X462950Y734104D01*
X462993Y734116D01*
X465387Y735498D01*
X467342Y737453D01*
X468724Y739847D01*
X469440Y742518D01*
Y745282D01*
X468724Y747953D01*
X467342Y750347D01*
X465387Y752302D01*
X462993Y753684D01*
X462274Y753877D01*
Y759323D01*
X462993Y759516D01*
X465387Y760898D01*
X467342Y762853D01*
X468724Y765247D01*
X469440Y767918D01*
Y770682D01*
X468724Y773353D01*
X467342Y775747D01*
X465387Y777702D01*
X462993Y779084D01*
X460322Y779800D01*
X457558D01*
X455339Y779206D01*
X450187Y784358D01*
X449106Y785080D01*
X447830Y785334D01*
X442615D01*
X441787Y787334D01*
X442374Y787921D01*
X443828Y790439D01*
X444580Y793247D01*
Y793430D01*
X433540D01*
X422500D01*
Y793247D01*
X423252Y790439D01*
X424706Y787921D01*
X425293Y787334D01*
X424465Y785334D01*
X403131D01*
X390607Y797858D01*
X389526Y798580D01*
X388250Y798834D01*
X294400D01*
X293124Y798580D01*
X292043Y797858D01*
X276185Y782000D01*
X264650D01*
Y758000D01*
X288650D01*
Y782000D01*
X288228D01*
X287463Y783848D01*
X295781Y792166D01*
X386869D01*
X399393Y779642D01*
X400474Y778920D01*
X401750Y778666D01*
X425228D01*
X426057Y776666D01*
X425138Y775747D01*
X423756Y773353D01*
X423040Y770682D01*
Y767918D01*
X423756Y765247D01*
X425138Y762853D01*
X427093Y760898D01*
X429487Y759516D01*
X432158Y758800D01*
X434922D01*
X437593Y759516D01*
X439987Y760898D01*
X441942Y762853D01*
X443324Y765247D01*
X444040Y767918D01*
Y770682D01*
X443324Y773353D01*
X441942Y775747D01*
X441023Y776666D01*
X441852Y778666D01*
X446449D01*
X450110Y775005D01*
X449156Y773353D01*
X448440Y770682D01*
Y767918D01*
X449156Y765247D01*
X450538Y762853D01*
X452493Y760898D01*
X454887Y759516D01*
X455606Y759323D01*
Y753877D01*
X454887Y753684D01*
X452493Y752302D01*
X450538Y750347D01*
X449156Y747953D01*
X448440Y745282D01*
Y742518D01*
X449156Y739847D01*
X450538Y737453D01*
X452493Y735498D01*
X454887Y734116D01*
X454930Y734104D01*
X454667Y732104D01*
X437813D01*
X437550Y734104D01*
X437593Y734116D01*
X439987Y735498D01*
X441942Y737453D01*
X443324Y739847D01*
X444040Y742518D01*
Y745282D01*
X443324Y747953D01*
X441942Y750347D01*
X439987Y752302D01*
X437593Y753684D01*
X434922Y754400D01*
X432158D01*
X429487Y753684D01*
X427093Y752302D01*
X425138Y750347D01*
X423756Y747953D01*
X423040Y745282D01*
Y742518D01*
X423756Y739847D01*
X425138Y737453D01*
X427093Y735498D01*
X429487Y734116D01*
X429530Y734104D01*
X429267Y732104D01*
X338052D01*
X337914Y732282D01*
X337319Y734104D01*
X355207Y751992D01*
X355930Y753074D01*
X356184Y754350D01*
Y758470D01*
X357482Y758818D01*
X360218Y760398D01*
X362452Y762632D01*
X364032Y765368D01*
X364850Y768420D01*
Y771580D01*
X364032Y774632D01*
X362452Y777368D01*
X360218Y779602D01*
X357482Y781182D01*
X354430Y782000D01*
X351270D01*
X348218Y781182D01*
X345482Y779602D01*
X343248Y777368D01*
X341668Y774632D01*
X340850Y771580D01*
Y768420D01*
X341668Y765368D01*
X343248Y762632D01*
X345482Y760398D01*
X348218Y758818D01*
X349516Y758470D01*
Y755731D01*
X333119Y739334D01*
X207631D01*
X207584Y739381D01*
Y781940D01*
X207330Y783216D01*
X206607Y784297D01*
X205120Y785785D01*
X204038Y786508D01*
X202762Y786762D01*
X200581D01*
X200034Y788803D01*
X198652Y791197D01*
X196697Y793152D01*
X194303Y794534D01*
X191632Y795250D01*
X188868D01*
X186197Y794534D01*
X183803Y793152D01*
X181848Y791197D01*
X180466Y788803D01*
X179750Y786132D01*
Y783368D01*
X180466Y780697D01*
X181848Y778303D01*
X183803Y776348D01*
X186197Y774966D01*
X188868Y774250D01*
X191632D01*
X194303Y774966D01*
X196697Y776348D01*
X198652Y778303D01*
X198916Y778760D01*
X200916Y778224D01*
Y770390D01*
X191520D01*
Y759350D01*
X190250D01*
Y758080D01*
X179210D01*
Y748310D01*
X188416D01*
Y651000D01*
X188670Y649724D01*
X189393Y648643D01*
X203573Y634462D01*
X204654Y633740D01*
X205930Y633486D01*
X249750D01*
Y629530D01*
X253820D01*
Y636820D01*
Y644110D01*
X249750D01*
Y640154D01*
X207311D01*
X195084Y652381D01*
Y748310D01*
X200916D01*
Y738000D01*
X201170Y736724D01*
X201893Y735642D01*
X203892Y733642D01*
X204974Y732920D01*
X206250Y732666D01*
X262718D01*
X262856Y732488D01*
X263451Y730666D01*
X253665Y720880D01*
X252942Y719798D01*
X252688Y718522D01*
Y668128D01*
X252942Y666852D01*
X253665Y665770D01*
X255152Y664283D01*
X256234Y663560D01*
X257510Y663306D01*
X259320D01*
Y660124D01*
X259320Y659640D01*
X258151Y658124D01*
X250261D01*
X249881Y658781D01*
X248671Y659991D01*
X247189Y660847D01*
X245536Y661290D01*
X243824D01*
X242171Y660847D01*
X240689Y659991D01*
X239479Y658781D01*
X238623Y657299D01*
X238180Y655646D01*
Y653934D01*
X238623Y652281D01*
X239479Y650799D01*
X240689Y649589D01*
X242171Y648733D01*
X243824Y648290D01*
X245536D01*
X247189Y648733D01*
X248671Y649589D01*
X249881Y650799D01*
X250261Y651456D01*
X289442D01*
X290718Y651710D01*
X291800Y652432D01*
X293288Y653920D01*
X294010Y655002D01*
X294264Y656278D01*
Y659520D01*
X299680D01*
Y663416D01*
X309620D01*
Y659630D01*
X314596D01*
Y652140D01*
X313180D01*
Y633140D01*
X313180Y633140D01*
X313180D01*
X312962Y631572D01*
X312454Y631182D01*
X311852Y631094D01*
X310576Y631142D01*
X310403Y631315D01*
X309980Y633140D01*
X309980D01*
Y652140D01*
X300480D01*
Y633140D01*
X300617D01*
Y630419D01*
X299979Y629781D01*
X299123Y628299D01*
X298680Y626646D01*
Y624934D01*
X299123Y623281D01*
X299722Y622244D01*
X299194Y620841D01*
X298705Y620244D01*
X269390D01*
Y624070D01*
X259790D01*
Y610570D01*
X267486D01*
X268689Y610570D01*
X269230Y610346D01*
X269410Y610091D01*
X270035Y608837D01*
X268979Y607781D01*
X268123Y606299D01*
X267680Y604646D01*
Y602934D01*
X268123Y601281D01*
X268979Y599799D01*
X269502Y599276D01*
Y596580D01*
X269290D01*
Y583080D01*
X278890D01*
Y596580D01*
X278678D01*
Y599096D01*
X279381Y599799D01*
X280237Y601281D01*
X280680Y602934D01*
Y604646D01*
X280237Y606299D01*
X279381Y607781D01*
X278171Y608991D01*
X276689Y609847D01*
X275036Y610290D01*
X273324D01*
X271755Y609869D01*
X271671Y609847D01*
X271376Y609780D01*
X270406Y609933D01*
X270293Y609987D01*
X269436Y610796D01*
X269404Y611598D01*
X269860Y612632D01*
X270804Y613576D01*
X324280D01*
X324713Y613662D01*
X325698Y611819D01*
X315407Y601527D01*
X314633Y600369D01*
X314361Y599004D01*
Y598140D01*
X313180D01*
Y579140D01*
X314361D01*
Y567290D01*
X310890D01*
Y549790D01*
X317067D01*
X317930Y549618D01*
X318793Y549790D01*
X324890D01*
Y567290D01*
X321499D01*
Y579140D01*
X322680D01*
Y598140D01*
X322680Y598140D01*
X322680D01*
X323672Y599699D01*
X323826Y599853D01*
X325340Y598539D01*
X325340Y596739D01*
Y589910D01*
X329360D01*
Y598680D01*
X327335D01*
X325481Y598680D01*
X324167Y600194D01*
X336904Y612931D01*
X403250D01*
X404616Y613203D01*
X405773Y613977D01*
X408031Y616234D01*
X408804Y617392D01*
X409076Y618757D01*
Y626750D01*
X414250D01*
Y632431D01*
X482250D01*
X483616Y632703D01*
X484773Y633477D01*
X497718Y646421D01*
X519509D01*
X521450Y646280D01*
X521450Y644421D01*
Y637760D01*
X530490D01*
Y636490D01*
X531760D01*
Y626700D01*
X538754D01*
X539530Y626700D01*
X541306Y627240D01*
X541753D01*
X543167Y625826D01*
Y624375D01*
X542973Y624039D01*
X542530Y622386D01*
Y620674D01*
X542973Y619021D01*
X543829Y617539D01*
X545039Y616329D01*
X546521Y615473D01*
X548174Y615030D01*
X549886D01*
X551539Y615473D01*
X553021Y616329D01*
X554231Y617539D01*
X555087Y619021D01*
X555530Y620674D01*
Y622386D01*
X555087Y624039D01*
X554893Y624375D01*
Y627240D01*
X557530D01*
Y645740D01*
X541306D01*
X541262Y645753D01*
X540150Y647799D01*
X540228Y647991D01*
X547037Y654800D01*
X555990D01*
Y672300D01*
X543325D01*
X542497Y674300D01*
X546947Y678750D01*
X555770D01*
Y696250D01*
X541770D01*
Y684345D01*
X541701Y684000D01*
Y683598D01*
X537230Y679127D01*
X535230Y679955D01*
X535230Y680158D01*
X535230D01*
X535230Y680251D01*
Y696250D01*
X521230D01*
Y693687D01*
X519230Y692775D01*
X518848Y693030D01*
X517572Y693284D01*
X508727D01*
X508534Y694003D01*
X507152Y696397D01*
X505197Y698352D01*
X502803Y699734D01*
X500132Y700450D01*
X497368D01*
X494697Y699734D01*
X494053Y699362D01*
X487057Y706357D01*
X485976Y707080D01*
X484700Y707334D01*
X374390D01*
X373114Y707080D01*
X372033Y706357D01*
X359269Y693594D01*
X358536Y693790D01*
X356824D01*
X355171Y693347D01*
X353689Y692491D01*
X352480Y691282D01*
X352474Y691282D01*
X350480Y691819D01*
Y694290D01*
X332980D01*
Y680290D01*
X350480D01*
Y682761D01*
X352474Y683298D01*
X352480Y683298D01*
X353689Y682089D01*
X355171Y681233D01*
X356824Y680790D01*
X358536D01*
X360189Y681233D01*
X361671Y682089D01*
X362881Y683299D01*
X363737Y684781D01*
X364180Y686434D01*
Y688146D01*
X363984Y688878D01*
X375771Y700666D01*
X483319D01*
X489338Y694647D01*
X488966Y694003D01*
X488250Y691332D01*
Y688568D01*
X488966Y685897D01*
X490348Y683503D01*
X492303Y681548D01*
X494697Y680166D01*
X497368Y679450D01*
X500132D01*
X502803Y680166D01*
X505197Y681548D01*
X507152Y683503D01*
X508534Y685897D01*
X508727Y686616D01*
X516191D01*
X517664Y685143D01*
X518746Y684420D01*
X520022Y684166D01*
X521230D01*
Y678750D01*
X533729Y678750D01*
X533822D01*
X533822D01*
X534025Y678750D01*
X534853Y676750D01*
X530403Y672300D01*
X521450D01*
Y668119D01*
X509250D01*
Y675050D01*
X488250D01*
Y654050D01*
X492521D01*
X492654Y653879D01*
X493253Y652050D01*
X480772Y639569D01*
X414250D01*
Y645250D01*
X397250D01*
Y645250D01*
X395710D01*
Y645250D01*
X378710D01*
Y638612D01*
X378388D01*
X377112Y638358D01*
X376030Y637635D01*
X368269Y629874D01*
X363511D01*
X363131Y630531D01*
X361921Y631741D01*
X360439Y632597D01*
X358786Y633040D01*
X357074D01*
X355421Y632597D01*
X353939Y631741D01*
X352729Y630531D01*
X351873Y629049D01*
X351430Y627396D01*
Y625684D01*
X351873Y624031D01*
X352729Y622549D01*
X353209Y622069D01*
X352381Y620069D01*
X335426D01*
X334745Y619933D01*
X333470Y621625D01*
X333710Y621984D01*
X333964Y623260D01*
Y633140D01*
X335380D01*
Y652140D01*
X333964D01*
Y656019D01*
X337695Y659750D01*
X350480D01*
Y663416D01*
X362647D01*
X368130Y657933D01*
X369212Y657210D01*
X370488Y656956D01*
X380340D01*
Y653290D01*
X397840D01*
Y656956D01*
X405740D01*
Y653290D01*
X423240D01*
Y656956D01*
X431140D01*
Y653290D01*
X448640D01*
Y656956D01*
X449940D01*
X451216Y657210D01*
X452298Y657933D01*
X452321Y657956D01*
X454770D01*
Y652790D01*
X473270D01*
Y669330D01*
X473270Y669790D01*
Y671330D01*
X473270Y672169D01*
X473564Y672555D01*
X475270Y673564D01*
X476144Y673330D01*
X477856D01*
X479509Y673773D01*
X480991Y674629D01*
X482201Y675839D01*
X483057Y677321D01*
X483500Y678974D01*
Y680686D01*
X483057Y682339D01*
X482201Y683821D01*
X480991Y685031D01*
X479509Y685887D01*
X477856Y686330D01*
X476144D01*
X475270Y686096D01*
X473564Y687105D01*
X473270Y687491D01*
Y688330D01*
X454770D01*
Y686193D01*
X448640D01*
Y687830D01*
X432792D01*
X432787Y687830D01*
X432787D01*
X431979Y687830D01*
X431291Y689108D01*
X431039Y689788D01*
X431750Y691505D01*
Y693495D01*
X430989Y695332D01*
X429582Y696739D01*
X427745Y697500D01*
X425755D01*
X423918Y696739D01*
X423013Y695834D01*
X417680D01*
X416404Y695580D01*
X415322Y694857D01*
X412132Y691667D01*
X411410Y690586D01*
X411156Y689310D01*
Y687830D01*
X405740D01*
Y673830D01*
X423240D01*
Y686377D01*
X425240Y687713D01*
X425755Y687500D01*
X427745D01*
X429264Y688129D01*
X430474Y687533D01*
X431140Y686991D01*
X431140Y686178D01*
Y673830D01*
X448640D01*
Y674467D01*
X454770D01*
Y671790D01*
X454770Y671330D01*
Y669790D01*
X454770Y669330D01*
Y664624D01*
X450940D01*
X450640Y664564D01*
X448640Y665908D01*
Y667290D01*
X431140D01*
Y663624D01*
X423240D01*
Y667290D01*
X405740D01*
Y663624D01*
X397840D01*
Y667290D01*
X380340D01*
Y663624D01*
X371869D01*
X366385Y669108D01*
X365304Y669830D01*
X364028Y670084D01*
X350480D01*
Y673750D01*
X332980D01*
Y664465D01*
X330120Y661605D01*
X328120Y662433D01*
Y676170D01*
X328120Y676630D01*
Y678170D01*
X328120Y678630D01*
Y695170D01*
X328120D01*
X328447Y697035D01*
X329131Y697719D01*
X329987Y699201D01*
X330430Y700854D01*
Y702566D01*
X329987Y704219D01*
X329131Y705701D01*
X327921Y706911D01*
X326439Y707767D01*
X324786Y708210D01*
X323074D01*
X321421Y707767D01*
X319939Y706911D01*
X318729Y705701D01*
X317873Y704219D01*
X317772Y703843D01*
X314725Y700796D01*
X313454Y698894D01*
X313007Y696650D01*
Y695170D01*
X309839D01*
X308444Y696683D01*
X308739Y697124D01*
X309088Y698880D01*
Y700689D01*
X310101Y701702D01*
X311023Y703298D01*
X311500Y705078D01*
Y706922D01*
X311023Y708702D01*
X310101Y710298D01*
X308798Y711601D01*
X307202Y712523D01*
X305422Y713000D01*
X303578D01*
X301798Y712523D01*
X300202Y711601D01*
X298899Y710298D01*
X297977Y708702D01*
X297500Y706922D01*
Y705078D01*
X297977Y703298D01*
X298899Y701702D01*
X299866Y700735D01*
X293191Y694060D01*
X282180D01*
Y691823D01*
X276820D01*
Y694180D01*
X259356D01*
Y717141D01*
X267651Y725436D01*
X475232D01*
X476508Y725690D01*
X477590Y726413D01*
X479077Y727900D01*
X479800Y728982D01*
X480054Y730258D01*
Y803910D01*
X479800Y805186D01*
X479077Y806268D01*
X468846Y816499D01*
X469440Y818718D01*
Y821482D01*
X468724Y824153D01*
X467342Y826547D01*
X465889Y828000D01*
X466599Y830000D01*
X1050000D01*
Y480000D01*
D02*
G37*
G36*
X309620Y694843D02*
Y678630D01*
X309620Y678170D01*
Y676630D01*
X309620Y676170D01*
Y670084D01*
X299680D01*
Y673520D01*
X282180D01*
Y659520D01*
X280758Y658124D01*
X277988D01*
X276820Y659640D01*
X276820Y660124D01*
Y673640D01*
X259356D01*
Y680180D01*
X276820D01*
Y682647D01*
X282180D01*
Y680060D01*
X299680D01*
Y687571D01*
X307744Y695636D01*
X307925Y695906D01*
X309620Y694843D01*
D02*
G37*
G36*
X378710Y628272D02*
Y626750D01*
X395710D01*
Y626750D01*
X397250D01*
Y626750D01*
X401939D01*
Y620235D01*
X401772Y620069D01*
X364163D01*
X363272Y621982D01*
X364127Y623206D01*
X369650D01*
X370926Y623460D01*
X372007Y624182D01*
X376862Y629037D01*
X378710Y628272D01*
D02*
G37*
G36*
X817500Y283083D02*
X231926D01*
X232985Y234435D01*
X231596Y232995D01*
X195789Y232478D01*
X193790Y234450D01*
Y240250D01*
X184000D01*
Y241520D01*
X182730D01*
Y250560D01*
X174210D01*
Y246108D01*
X170040D01*
Y250330D01*
X161520D01*
Y241290D01*
X160250D01*
Y240020D01*
X150460D01*
Y233824D01*
X150460Y232250D01*
X148647Y231798D01*
X142622Y231710D01*
X141272Y233691D01*
X141297Y233750D01*
X141770D01*
Y252250D01*
X126500D01*
Y257210D01*
X132750D01*
Y266500D01*
Y275790D01*
X126500D01*
Y295200D01*
X133200D01*
Y316200D01*
X126500D01*
Y321248D01*
X126753Y321316D01*
X129147Y322698D01*
X130489Y324040D01*
X137600D01*
X139427Y324280D01*
X141130Y324986D01*
X141475Y325250D01*
X587500D01*
Y475250D01*
X817500D01*
Y283083D01*
D02*
G37*
G36*
X290000Y10000D02*
X170370D01*
Y23720D01*
X171960Y24710D01*
X172370Y24710D01*
X181730D01*
Y35750D01*
Y46790D01*
X172370D01*
X171960Y46790D01*
X170370Y47780D01*
Y56832D01*
X172110Y57460D01*
X172370Y57460D01*
X181880D01*
Y68500D01*
Y79540D01*
X172370D01*
X172110Y79540D01*
X170370Y80168D01*
Y87086D01*
X170995Y87711D01*
X172370Y88373D01*
X173730Y87960D01*
X174506Y87960D01*
X181500D01*
Y97750D01*
Y107540D01*
X174506D01*
X173730Y107540D01*
X172370Y107127D01*
X170995Y107789D01*
X170370Y108414D01*
Y109917D01*
X170557Y110241D01*
X171000Y111894D01*
Y113606D01*
X170557Y115259D01*
X170370Y115583D01*
Y180000D01*
X240000D01*
Y241197D01*
X242000Y241595D01*
X242957Y239285D01*
X244876Y236412D01*
X247319Y233969D01*
X250192Y232049D01*
X253384Y230727D01*
X256773Y230053D01*
X257230D01*
Y247593D01*
Y265133D01*
X256773D01*
X253384Y264459D01*
X250192Y263137D01*
X247319Y261217D01*
X244876Y258774D01*
X242957Y255901D01*
X242000Y253591D01*
X240000Y253989D01*
Y280000D01*
X290000D01*
Y10000D01*
D02*
G37*
%LPC*%
G36*
X444580Y818830D02*
X434810D01*
Y809060D01*
X444580D01*
Y818830D01*
D02*
G37*
G36*
X432270D02*
X422500D01*
Y809060D01*
X432270D01*
Y818830D01*
D02*
G37*
G36*
X231300Y821712D02*
X221700D01*
Y808212D01*
X229813Y808212D01*
X230868Y808212D01*
X230948Y808158D01*
X232439Y807016D01*
X232666Y805156D01*
Y802212D01*
X231200D01*
Y788712D01*
X240800D01*
Y802212D01*
X239334D01*
Y805619D01*
X240131Y806416D01*
X373919D01*
X374299Y805759D01*
X375509Y804549D01*
X376991Y803693D01*
X378644Y803250D01*
X380356D01*
X382009Y803693D01*
X383491Y804549D01*
X384701Y805759D01*
X385557Y807241D01*
X386000Y808894D01*
Y810606D01*
X385557Y812259D01*
X384701Y813741D01*
X383491Y814951D01*
X382009Y815807D01*
X380356Y816250D01*
X378644D01*
X376991Y815807D01*
X375509Y814951D01*
X374299Y813741D01*
X373919Y813084D01*
X238750D01*
X237474Y812830D01*
X236392Y812107D01*
X233643Y809358D01*
X233300Y808845D01*
X231300Y809452D01*
X231300Y810010D01*
X231300Y810010D01*
X231300Y810033D01*
Y821712D01*
D02*
G37*
G36*
X191632Y820650D02*
X188868D01*
X186197Y819934D01*
X183803Y818552D01*
X181848Y816597D01*
X180466Y814203D01*
X179750Y811532D01*
Y808768D01*
X180466Y806097D01*
X181848Y803703D01*
X183803Y801748D01*
X186197Y800366D01*
X188868Y799650D01*
X191632D01*
X194303Y800366D01*
X196697Y801748D01*
X198652Y803703D01*
X200034Y806097D01*
X200750Y808768D01*
Y811532D01*
X200034Y814203D01*
X198652Y816597D01*
X196697Y818552D01*
X194303Y819934D01*
X191632Y820650D01*
D02*
G37*
G36*
X434993Y805740D02*
X434810D01*
Y795970D01*
X444580D01*
Y796153D01*
X443828Y798961D01*
X442374Y801479D01*
X440319Y803534D01*
X437801Y804988D01*
X434993Y805740D01*
D02*
G37*
G36*
X432270D02*
X432087D01*
X429279Y804988D01*
X426761Y803534D01*
X424706Y801479D01*
X423252Y798961D01*
X422500Y796153D01*
Y795970D01*
X432270D01*
Y805740D01*
D02*
G37*
G36*
X853830Y811250D02*
X839830D01*
Y788250D01*
X853830D01*
Y793887D01*
X859010D01*
Y791000D01*
X873010D01*
Y808500D01*
X859010D01*
Y805613D01*
X853830D01*
Y811250D01*
D02*
G37*
G36*
X823830D02*
X809830D01*
Y804994D01*
X799483D01*
X797656Y804753D01*
X795953Y804048D01*
X794491Y802926D01*
X773473Y781908D01*
X773130Y782000D01*
X769970D01*
X766918Y781182D01*
X764182Y779602D01*
X761948Y777368D01*
X760368Y774632D01*
X759550Y771580D01*
Y768420D01*
X760368Y765368D01*
X761948Y762632D01*
X764182Y760398D01*
X766918Y758818D01*
X769970Y758000D01*
X773130D01*
X776182Y758818D01*
X778918Y760398D01*
X781152Y762632D01*
X782732Y765368D01*
X783550Y768420D01*
Y771580D01*
X783458Y771923D01*
X802408Y790873D01*
X809830D01*
Y788250D01*
X823830D01*
Y797475D01*
X823890Y797933D01*
Y799750D01*
X823830Y800209D01*
Y811250D01*
D02*
G37*
G36*
X460322Y805200D02*
X457558D01*
X454887Y804484D01*
X452493Y803102D01*
X450538Y801147D01*
X449156Y798753D01*
X448440Y796082D01*
Y793318D01*
X449156Y790647D01*
X450538Y788253D01*
X452493Y786298D01*
X454887Y784916D01*
X457558Y784200D01*
X460322D01*
X462993Y784916D01*
X465387Y786298D01*
X467342Y788253D01*
X468724Y790647D01*
X469440Y793318D01*
Y796082D01*
X468724Y798753D01*
X467342Y801147D01*
X465387Y803102D01*
X462993Y804484D01*
X460322Y805200D01*
D02*
G37*
G36*
X247106Y775250D02*
X245394D01*
X243741Y774807D01*
X242776Y774250D01*
X242472Y774372D01*
X240776Y775190D01*
X240776Y775190D01*
X240776Y775190D01*
X231176D01*
Y761690D01*
X240776D01*
Y762203D01*
X241257Y762639D01*
X242776Y763250D01*
X243741Y762693D01*
X245394Y762250D01*
X247106D01*
X248759Y762693D01*
X250241Y763549D01*
X251451Y764759D01*
X252307Y766241D01*
X252750Y767894D01*
Y769606D01*
X252307Y771259D01*
X251451Y772741D01*
X250241Y773951D01*
X248759Y774807D01*
X247106Y775250D01*
D02*
G37*
G36*
X838800Y775150D02*
X809800D01*
Y767863D01*
X806846D01*
X806509Y768057D01*
X804856Y768500D01*
X803144D01*
X801491Y768057D01*
X800009Y767201D01*
X798799Y765991D01*
X797943Y764509D01*
X797500Y762856D01*
Y761144D01*
X797943Y759491D01*
X798799Y758009D01*
X800009Y756799D01*
X801491Y755943D01*
X803144Y755500D01*
X804856D01*
X806509Y755943D01*
X806846Y756137D01*
X809800D01*
Y748150D01*
X838800D01*
Y775150D01*
D02*
G37*
G36*
X221800Y802212D02*
X212200D01*
Y788712D01*
X213666D01*
Y775190D01*
X212176D01*
Y761690D01*
X221776D01*
Y775190D01*
X220334D01*
Y788712D01*
X221800D01*
Y802212D01*
D02*
G37*
G36*
X188980Y770390D02*
X179210D01*
Y760620D01*
X188980D01*
Y770390D01*
D02*
G37*
G36*
X1002518Y822000D02*
X997482D01*
X992507Y821212D01*
X987716Y819656D01*
X983228Y817369D01*
X979153Y814408D01*
X975592Y810847D01*
X972631Y806772D01*
X970344Y802284D01*
X968788Y797493D01*
X968000Y792518D01*
Y787482D01*
X968788Y782507D01*
X970344Y777716D01*
X972631Y773228D01*
X975592Y769153D01*
X979153Y765592D01*
X983228Y762631D01*
X987716Y760344D01*
X992507Y758788D01*
X997482Y758000D01*
X1002518D01*
X1007493Y758788D01*
X1012284Y760344D01*
X1016772Y762631D01*
X1020847Y765592D01*
X1024408Y769153D01*
X1027369Y773228D01*
X1029656Y777716D01*
X1031212Y782507D01*
X1032000Y787482D01*
Y792518D01*
X1031212Y797493D01*
X1029656Y802284D01*
X1027369Y806772D01*
X1024408Y810847D01*
X1020847Y814408D01*
X1016772Y817369D01*
X1012284Y819656D01*
X1007493Y821212D01*
X1002518Y822000D01*
D02*
G37*
G36*
X745450Y782000D02*
X721450D01*
Y758000D01*
X745450D01*
Y782000D01*
D02*
G37*
G36*
X651650D02*
X627650D01*
Y758000D01*
X651650D01*
Y782000D01*
D02*
G37*
G36*
X316330D02*
X313170D01*
X310118Y781182D01*
X307382Y779602D01*
X305148Y777368D01*
X303568Y774632D01*
X302750Y771580D01*
Y768420D01*
X303568Y765368D01*
X305148Y762632D01*
X307382Y760398D01*
X310118Y758818D01*
X313170Y758000D01*
X316330D01*
X319382Y758818D01*
X322118Y760398D01*
X324352Y762632D01*
X325932Y765368D01*
X326750Y768420D01*
Y771580D01*
X325932Y774632D01*
X324352Y777368D01*
X322118Y779602D01*
X319382Y781182D01*
X316330Y782000D01*
D02*
G37*
G36*
X62519Y812000D02*
X57481D01*
X52507Y811212D01*
X47716Y809656D01*
X43228Y807369D01*
X39153Y804408D01*
X35592Y800847D01*
X32631Y796772D01*
X30344Y792284D01*
X28788Y787493D01*
X28000Y782518D01*
Y777482D01*
X28788Y772507D01*
X30344Y767716D01*
X32631Y763228D01*
X35592Y759153D01*
X39153Y755592D01*
X43228Y752631D01*
X47716Y750344D01*
X52507Y748788D01*
X57481Y748000D01*
X62519D01*
X67493Y748788D01*
X72284Y750344D01*
X76772Y752631D01*
X80847Y755592D01*
X84408Y759153D01*
X87369Y763228D01*
X89656Y767716D01*
X91212Y772507D01*
X92000Y777482D01*
Y782518D01*
X91212Y787493D01*
X89656Y792284D01*
X87369Y796772D01*
X84408Y800847D01*
X80847Y804408D01*
X76772Y807369D01*
X72284Y809656D01*
X67493Y811212D01*
X62519Y812000D01*
D02*
G37*
G36*
X231276Y755690D02*
X221676D01*
Y742190D01*
X231276D01*
Y755690D01*
D02*
G37*
G36*
X398380Y688370D02*
X390360D01*
Y682100D01*
X398380D01*
Y688370D01*
D02*
G37*
G36*
X387820D02*
X379800D01*
Y682100D01*
X387820D01*
Y688370D01*
D02*
G37*
G36*
X600646Y692820D02*
X598934D01*
X597281Y692377D01*
X595799Y691521D01*
X594589Y690311D01*
X593733Y688829D01*
X593290Y687176D01*
Y685464D01*
X593733Y683811D01*
X594589Y682329D01*
X595799Y681119D01*
X597281Y680263D01*
X598934Y679820D01*
X600646D01*
X602299Y680263D01*
X603781Y681119D01*
X604278Y681616D01*
X606650D01*
Y681404D01*
X620150D01*
Y691004D01*
X606650D01*
Y690792D01*
X604510D01*
X603781Y691521D01*
X602299Y692377D01*
X600646Y692820D01*
D02*
G37*
G36*
X679330Y782000D02*
X676170D01*
X673118Y781182D01*
X670382Y779602D01*
X668148Y777368D01*
X666568Y774632D01*
X665750Y771580D01*
Y768420D01*
X666568Y765368D01*
X668148Y762632D01*
X670382Y760398D01*
X673118Y758818D01*
X673162Y758806D01*
Y745249D01*
X673511Y743493D01*
X674506Y742005D01*
X676982Y739529D01*
Y694990D01*
X672820D01*
Y680990D01*
X690320D01*
Y683457D01*
X696950D01*
Y681100D01*
X714450D01*
Y695100D01*
X696950D01*
Y692633D01*
X690320D01*
Y694990D01*
X686158D01*
Y741429D01*
X685809Y743185D01*
X684814Y744673D01*
X682338Y747149D01*
Y758806D01*
X682382Y758818D01*
X685118Y760398D01*
X687352Y762632D01*
X688932Y765368D01*
X689750Y768420D01*
Y771580D01*
X688932Y774632D01*
X687352Y777368D01*
X685118Y779602D01*
X682382Y781182D01*
X679330Y782000D01*
D02*
G37*
G36*
X811840Y691320D02*
X802240D01*
Y677820D01*
X811840D01*
Y691320D01*
D02*
G37*
G36*
X398380Y679560D02*
X390360D01*
Y673290D01*
X398380D01*
Y679560D01*
D02*
G37*
G36*
X387820D02*
X379800D01*
Y673290D01*
X387820D01*
Y679560D01*
D02*
G37*
G36*
X645006Y703470D02*
X643294D01*
X641641Y703027D01*
X640159Y702171D01*
X638949Y700961D01*
X638093Y699479D01*
X637650Y697826D01*
Y696114D01*
X638093Y694461D01*
X638949Y692979D01*
X640159Y691769D01*
X641641Y690913D01*
X642044Y690805D01*
X645650Y687199D01*
Y678950D01*
X645650Y678490D01*
Y676950D01*
X645650Y676490D01*
Y673038D01*
X639650D01*
Y681504D01*
X626150D01*
Y671904D01*
X628312D01*
Y671379D01*
X628661Y669623D01*
X629656Y668135D01*
X632585Y665206D01*
X634073Y664211D01*
X635829Y663862D01*
X645650D01*
Y659950D01*
X664150D01*
Y663362D01*
X672820D01*
Y660450D01*
X676842D01*
Y653820D01*
X674290D01*
Y641820D01*
X688290D01*
Y653820D01*
X686018D01*
Y660450D01*
X690320D01*
Y674450D01*
X672820D01*
Y672538D01*
X664150D01*
Y676490D01*
X664150Y676950D01*
Y678490D01*
X664150Y678950D01*
Y695490D01*
X653941D01*
X650300Y699131D01*
X650207Y699479D01*
X649351Y700961D01*
X648141Y702171D01*
X646659Y703027D01*
X645006Y703470D01*
D02*
G37*
G36*
X893550Y808500D02*
X879550D01*
Y791000D01*
X881962D01*
Y782801D01*
X874311Y775150D01*
X852800D01*
Y748150D01*
X862712D01*
Y731815D01*
X862511Y731514D01*
X862162Y729758D01*
Y677401D01*
X854419Y669658D01*
X821340D01*
Y671820D01*
X811740D01*
Y658320D01*
X821340D01*
Y660482D01*
X856320D01*
X858076Y660831D01*
X859564Y661826D01*
X869994Y672256D01*
X870989Y673744D01*
X871338Y675500D01*
Y728252D01*
X871539Y728552D01*
X871888Y730308D01*
Y748150D01*
X881800D01*
Y769661D01*
X889794Y777656D01*
X890789Y779144D01*
X891138Y780900D01*
Y791000D01*
X893550D01*
Y808500D01*
D02*
G37*
G36*
X714990Y675100D02*
X706970D01*
Y668830D01*
X714990D01*
Y675100D01*
D02*
G37*
G36*
X704430D02*
X696410D01*
Y668830D01*
X704430D01*
Y675100D01*
D02*
G37*
G36*
X620690Y672544D02*
X614670D01*
Y668474D01*
X620690D01*
Y672544D01*
D02*
G37*
G36*
X612130D02*
X606110D01*
Y668474D01*
X612130D01*
Y672544D01*
D02*
G37*
G36*
X620690Y665934D02*
X614670D01*
Y661864D01*
X620690D01*
Y665934D01*
D02*
G37*
G36*
X612130D02*
X606110D01*
Y661864D01*
X612130D01*
Y665934D01*
D02*
G37*
G36*
X739850Y694990D02*
X722350D01*
Y680990D01*
X739850D01*
Y682897D01*
X744196D01*
X751843Y675250D01*
X751014Y673250D01*
X750500D01*
Y658250D01*
X762500D01*
Y673250D01*
X760323D01*
Y676000D01*
X760075Y677250D01*
X760166Y677661D01*
X761244Y679250D01*
X772000D01*
Y683416D01*
X776429D01*
X792740Y667105D01*
Y658320D01*
X802340D01*
Y671820D01*
X797455D01*
X780167Y689108D01*
X779086Y689830D01*
X777810Y690084D01*
X772000D01*
Y694250D01*
X760000D01*
Y680736D01*
X758000Y679907D01*
X748484Y689424D01*
X747243Y690252D01*
X745780Y690543D01*
X739850D01*
Y694990D01*
D02*
G37*
G36*
X70830Y716750D02*
X67670D01*
X64618Y715932D01*
X61882Y714352D01*
X59648Y712118D01*
X58068Y709382D01*
X57250Y706330D01*
Y703170D01*
X58068Y700118D01*
X59648Y697382D01*
X61882Y695148D01*
X64618Y693568D01*
X67670Y692750D01*
X70830D01*
X72509Y693200D01*
X88887Y676822D01*
Y616678D01*
X70104Y597896D01*
X68834Y595993D01*
X68387Y593750D01*
Y404950D01*
X68834Y402706D01*
X70104Y400804D01*
X86975Y383934D01*
X86800Y383282D01*
Y380518D01*
X87516Y377847D01*
X88121Y376798D01*
X86521Y375570D01*
X47863Y414228D01*
Y636972D01*
X65991Y655100D01*
X67670Y654650D01*
X70830D01*
X73882Y655468D01*
X76618Y657048D01*
X78852Y659282D01*
X80432Y662018D01*
X81250Y665070D01*
Y668230D01*
X80432Y671282D01*
X78852Y674018D01*
X76618Y676252D01*
X73882Y677832D01*
X70830Y678650D01*
X67670D01*
X64618Y677832D01*
X61882Y676252D01*
X59648Y674018D01*
X58068Y671282D01*
X57250Y668230D01*
Y665070D01*
X57700Y663391D01*
X37854Y643546D01*
X36584Y641644D01*
X36137Y639400D01*
Y411800D01*
X36584Y409557D01*
X37854Y407654D01*
X86975Y358534D01*
X86800Y357882D01*
Y355118D01*
X87516Y352447D01*
X88898Y350053D01*
X89887Y349064D01*
X89059Y347064D01*
X79750D01*
X78482Y346811D01*
X77407Y346093D01*
X72127Y340814D01*
X61040D01*
Y346500D01*
X51750D01*
X42460D01*
Y340814D01*
X39250D01*
X38540Y340672D01*
X36970Y341574D01*
X36540Y342003D01*
Y346520D01*
X28520D01*
Y340250D01*
X34485D01*
X35314Y338250D01*
X31314Y334250D01*
X18500D01*
Y320250D01*
X23936D01*
Y303214D01*
X24189Y301946D01*
X24907Y300871D01*
X26371Y299407D01*
X27446Y298689D01*
X28714Y298436D01*
X29179D01*
X29361Y285187D01*
X29960D01*
Y282710D01*
X29960Y282710D01*
X29960D01*
X28790Y281260D01*
X27225Y279695D01*
X26540Y278670D01*
X26299Y277460D01*
Y277040D01*
X20420D01*
Y268520D01*
X29460D01*
Y267250D01*
X30730D01*
Y257460D01*
X38500D01*
Y257460D01*
X39500Y258000D01*
X56500D01*
Y260762D01*
X64730D01*
Y256750D01*
X67127D01*
Y254261D01*
X66693Y253509D01*
X66250Y251856D01*
Y250144D01*
X66693Y248491D01*
X67549Y247009D01*
X68759Y245799D01*
X70241Y244943D01*
X71894Y244500D01*
X73606D01*
X75259Y244943D01*
X76741Y245799D01*
X77951Y247009D01*
X78807Y248491D01*
X79250Y250144D01*
Y251856D01*
X78853Y253339D01*
Y255336D01*
X80267Y256750D01*
X80954D01*
X82730Y256210D01*
X83506Y256210D01*
X90500D01*
Y266000D01*
Y275790D01*
X83506D01*
X82730Y275790D01*
X80954Y275250D01*
X64730D01*
Y272488D01*
X56500D01*
Y276500D01*
X51012D01*
Y276822D01*
X50758Y278098D01*
X50036Y279180D01*
X46028Y283188D01*
X46774Y285187D01*
X46889D01*
Y298436D01*
X48535D01*
X49804Y298689D01*
X50879Y299407D01*
X52343Y300871D01*
X53061Y301946D01*
X53314Y303214D01*
Y320230D01*
X60500D01*
Y323916D01*
X67980D01*
X69248Y324169D01*
X70323Y324887D01*
X73223Y327786D01*
X87317D01*
X87516Y327047D01*
X88898Y324653D01*
X90853Y322698D01*
X93247Y321316D01*
X95918Y320600D01*
X98682D01*
X101353Y321316D01*
X103747Y322698D01*
X105702Y324653D01*
X107084Y327047D01*
X107800Y329718D01*
Y332482D01*
X107084Y335153D01*
X105702Y337547D01*
X104813Y338436D01*
X105641Y340436D01*
X109950D01*
X111218Y340689D01*
X112293Y341407D01*
X117984Y347098D01*
X118647Y346716D01*
X121318Y346000D01*
X124082D01*
X126753Y346716D01*
X129147Y348098D01*
X131102Y350053D01*
X132484Y352447D01*
X133200Y355118D01*
Y357882D01*
X132484Y360553D01*
X131102Y362947D01*
X129147Y364902D01*
X126753Y366284D01*
X124082Y367000D01*
X121318D01*
X118647Y366284D01*
X116253Y364902D01*
X114298Y362947D01*
X112916Y360553D01*
X112200Y357882D01*
Y355118D01*
X112916Y352447D01*
X113298Y351784D01*
X108577Y347064D01*
X105541D01*
X104713Y349064D01*
X105702Y350053D01*
X107084Y352447D01*
X107800Y355118D01*
Y357882D01*
X107084Y360553D01*
X105702Y362947D01*
X103747Y364902D01*
X101353Y366284D01*
X98682Y367000D01*
X95918D01*
X95266Y366825D01*
X90970Y371121D01*
X92198Y372721D01*
X93247Y372116D01*
X95918Y371400D01*
X98682D01*
X101353Y372116D01*
X103747Y373498D01*
X105702Y375453D01*
X107084Y377847D01*
X107800Y380518D01*
Y383282D01*
X107084Y385953D01*
X105702Y388347D01*
X103747Y390302D01*
X101353Y391684D01*
X98682Y392400D01*
X95918D01*
X95266Y392225D01*
X90970Y396521D01*
X92198Y398121D01*
X93247Y397516D01*
X95918Y396800D01*
X98682D01*
X101353Y397516D01*
X103747Y398898D01*
X105702Y400853D01*
X105851Y401110D01*
X108085Y401326D01*
X115774Y393637D01*
X115774Y393637D01*
X116766Y392974D01*
X116852Y392957D01*
X117199Y390849D01*
X116253Y390302D01*
X114298Y388347D01*
X112916Y385953D01*
X112200Y383282D01*
Y380518D01*
X112916Y377847D01*
X114298Y375453D01*
X116253Y373498D01*
X118647Y372116D01*
X121318Y371400D01*
X124082D01*
X126753Y372116D01*
X129147Y373498D01*
X131102Y375453D01*
X132484Y377847D01*
X132751Y378841D01*
X477833D01*
X486515Y370159D01*
X486556Y369406D01*
X486331Y367986D01*
X484627Y367002D01*
X482998Y365373D01*
X481846Y363377D01*
X481250Y361152D01*
Y358848D01*
X481846Y356623D01*
X482998Y354627D01*
X484627Y352998D01*
X486623Y351846D01*
X488848Y351250D01*
X491152D01*
X493377Y351846D01*
X495373Y352998D01*
X497002Y354627D01*
X498154Y356623D01*
X498750Y358848D01*
Y361152D01*
X498154Y363377D01*
X497002Y365373D01*
X495373Y367002D01*
X493377Y368154D01*
X493059Y368239D01*
Y371000D01*
X492826Y372170D01*
X492163Y373163D01*
X481263Y384063D01*
X480271Y384726D01*
X479100Y384959D01*
X479100Y384959D01*
X132751D01*
X132484Y385953D01*
X131102Y388347D01*
X129147Y390302D01*
X128386Y390741D01*
X128922Y392741D01*
X494933D01*
X506941Y380733D01*
Y368239D01*
X506623Y368154D01*
X504627Y367002D01*
X502998Y365373D01*
X501846Y363377D01*
X501250Y361152D01*
Y358848D01*
X501846Y356623D01*
X502998Y354627D01*
X504627Y352998D01*
X506623Y351846D01*
X508848Y351250D01*
X511152D01*
X513377Y351846D01*
X515373Y352998D01*
X517002Y354627D01*
X518154Y356623D01*
X518750Y358848D01*
Y361152D01*
X518154Y363377D01*
X517002Y365373D01*
X515373Y367002D01*
X513377Y368154D01*
X513059Y368239D01*
Y382000D01*
X513059Y382000D01*
X512826Y383171D01*
X512163Y384163D01*
X512163Y384163D01*
X498363Y397963D01*
X497370Y398626D01*
X496200Y398859D01*
X496200Y398859D01*
X131936D01*
X131102Y400853D01*
X132484Y403247D01*
X132751Y404241D01*
X514433D01*
X526941Y391733D01*
Y368750D01*
X521250D01*
Y351250D01*
X538750D01*
Y368750D01*
X533059D01*
Y393000D01*
X533059Y393000D01*
X532826Y394170D01*
X532163Y395163D01*
X517863Y409463D01*
X516870Y410126D01*
X515700Y410359D01*
X515700Y410359D01*
X132751D01*
X132484Y411353D01*
X131102Y413747D01*
X129433Y415416D01*
X129670Y416586D01*
X130161Y417416D01*
X443381D01*
X444049Y416259D01*
X445259Y415049D01*
X446741Y414193D01*
X448394Y413750D01*
X450106D01*
X451759Y414193D01*
X453241Y415049D01*
X454451Y416259D01*
X455307Y417741D01*
X455750Y419394D01*
Y421106D01*
X455307Y422759D01*
X454451Y424241D01*
X453241Y425451D01*
X451759Y426307D01*
X450106Y426750D01*
X448394D01*
X446741Y426307D01*
X445259Y425451D01*
X444049Y424241D01*
X443958Y424084D01*
X131762D01*
X130933Y426084D01*
X131102Y426253D01*
X132484Y428647D01*
X132751Y429641D01*
X523903D01*
X523943Y429491D01*
X524799Y428009D01*
X526009Y426799D01*
X527491Y425943D01*
X529144Y425500D01*
X530856D01*
X532509Y425943D01*
X533991Y426799D01*
X535201Y428009D01*
X536057Y429491D01*
X536500Y431144D01*
Y432856D01*
X536057Y434509D01*
X535201Y435991D01*
X533991Y437201D01*
X532509Y438057D01*
X530856Y438500D01*
X529144D01*
X527491Y438057D01*
X526009Y437201D01*
X524799Y435991D01*
X524665Y435759D01*
X132751D01*
X132484Y436753D01*
X131102Y439147D01*
X129333Y440916D01*
X129439Y441719D01*
X130005Y442916D01*
X464919D01*
X465299Y442259D01*
X466509Y441049D01*
X467991Y440193D01*
X469644Y439750D01*
X471356D01*
X473009Y440193D01*
X474491Y441049D01*
X475701Y442259D01*
X476557Y443741D01*
X477000Y445394D01*
Y447106D01*
X476557Y448759D01*
X475701Y450241D01*
X474491Y451451D01*
X473009Y452307D01*
X471356Y452750D01*
X469644D01*
X467991Y452307D01*
X466509Y451451D01*
X465299Y450241D01*
X464919Y449584D01*
X131862D01*
X131033Y451584D01*
X131102Y451653D01*
X132484Y454047D01*
X132871Y455491D01*
X503520D01*
X503799Y455009D01*
X505009Y453799D01*
X506491Y452943D01*
X508144Y452500D01*
X509856D01*
X511509Y452943D01*
X512991Y453799D01*
X514201Y455009D01*
X515057Y456491D01*
X515500Y458144D01*
Y459856D01*
X515057Y461509D01*
X514201Y462991D01*
X512991Y464201D01*
X511509Y465057D01*
X509856Y465500D01*
X508144D01*
X506491Y465057D01*
X505009Y464201D01*
X503799Y462991D01*
X503001Y461609D01*
X132630D01*
X132484Y462153D01*
X131102Y464547D01*
X129733Y465916D01*
X130562Y467916D01*
X423669D01*
X424049Y467259D01*
X425259Y466049D01*
X426741Y465193D01*
X428394Y464750D01*
X430106D01*
X431759Y465193D01*
X433241Y466049D01*
X434451Y467259D01*
X435307Y468741D01*
X435750Y470394D01*
Y472106D01*
X435307Y473759D01*
X434451Y475241D01*
X433241Y476451D01*
X431759Y477307D01*
X430106Y477750D01*
X428394D01*
X426741Y477307D01*
X425259Y476451D01*
X424049Y475241D01*
X423669Y474584D01*
X339433D01*
X339170Y476584D01*
X340509Y476943D01*
X341991Y477799D01*
X343201Y479009D01*
X344057Y480491D01*
X344500Y482144D01*
Y483856D01*
X344057Y485509D01*
X343201Y486991D01*
X341991Y488201D01*
X340509Y489057D01*
X338856Y489500D01*
X337144D01*
X335491Y489057D01*
X334009Y488201D01*
X332799Y486991D01*
X332549Y486559D01*
X132751D01*
X132484Y487553D01*
X131102Y489947D01*
X129147Y491902D01*
X128386Y492341D01*
X128922Y494341D01*
X404607D01*
X404799Y494009D01*
X406009Y492799D01*
X407491Y491943D01*
X409144Y491500D01*
X410856D01*
X412509Y491943D01*
X413991Y492799D01*
X415201Y494009D01*
X416057Y495491D01*
X416500Y497144D01*
Y498856D01*
X416057Y500509D01*
X415201Y501991D01*
X413991Y503201D01*
X412509Y504057D01*
X410856Y504500D01*
X409144D01*
X407491Y504057D01*
X406009Y503201D01*
X404799Y501991D01*
X403943Y500509D01*
X403929Y500459D01*
X132403D01*
X131729Y502459D01*
X132988Y504639D01*
X133740Y507447D01*
Y507630D01*
X122700D01*
X111660D01*
Y507447D01*
X112412Y504639D01*
X113671Y502459D01*
X112997Y500459D01*
X110067D01*
X106570Y503956D01*
X107084Y504847D01*
X107800Y507518D01*
Y510282D01*
X107084Y512953D01*
X105702Y515347D01*
X103747Y517302D01*
X101353Y518684D01*
X98682Y519400D01*
X95918D01*
X93247Y518684D01*
X90853Y517302D01*
X88898Y515347D01*
X87516Y512953D01*
X86800Y510282D01*
Y507518D01*
X87516Y504847D01*
X88898Y502453D01*
X90853Y500498D01*
X93247Y499116D01*
X95918Y498400D01*
X98682D01*
X101353Y499116D01*
X102244Y499630D01*
X106637Y495237D01*
X106637Y495237D01*
X107629Y494574D01*
X108800Y494341D01*
X108800Y494341D01*
X116478D01*
X117014Y492341D01*
X116253Y491902D01*
X114298Y489947D01*
X112916Y487553D01*
X112200Y484882D01*
Y482118D01*
X112916Y479447D01*
X114298Y477053D01*
X114767Y476584D01*
X113938Y474584D01*
X110931D01*
X106712Y478803D01*
X107084Y479447D01*
X107800Y482118D01*
Y484882D01*
X107084Y487553D01*
X105702Y489947D01*
X103747Y491902D01*
X101353Y493284D01*
X98682Y494000D01*
X95918D01*
X93247Y493284D01*
X90853Y491902D01*
X88898Y489947D01*
X87516Y487553D01*
X86800Y484882D01*
Y482118D01*
X87516Y479447D01*
X88898Y477053D01*
X90853Y475098D01*
X93247Y473716D01*
X95918Y473000D01*
X98682D01*
X101353Y473716D01*
X101997Y474088D01*
X107192Y468893D01*
X108274Y468170D01*
X109550Y467916D01*
X114838D01*
X115667Y465916D01*
X114298Y464547D01*
X112916Y462153D01*
X112200Y459482D01*
Y456718D01*
X112916Y454047D01*
X114298Y451653D01*
X114367Y451584D01*
X113538Y449584D01*
X110531D01*
X106712Y453403D01*
X107084Y454047D01*
X107800Y456718D01*
Y459482D01*
X107084Y462153D01*
X105702Y464547D01*
X103747Y466502D01*
X101353Y467884D01*
X98682Y468600D01*
X95918D01*
X93247Y467884D01*
X90853Y466502D01*
X88898Y464547D01*
X87516Y462153D01*
X86800Y459482D01*
Y456718D01*
X87516Y454047D01*
X88898Y451653D01*
X90853Y449698D01*
X93247Y448316D01*
X95918Y447600D01*
X98682D01*
X101353Y448316D01*
X101997Y448688D01*
X106792Y443893D01*
X107874Y443170D01*
X109150Y442916D01*
X115395D01*
X115961Y441719D01*
X116067Y440916D01*
X114298Y439147D01*
X112916Y436753D01*
X112200Y434082D01*
Y431318D01*
X112916Y428647D01*
X114298Y426253D01*
X114467Y426084D01*
X113638Y424084D01*
X110631D01*
X106712Y428003D01*
X107084Y428647D01*
X107800Y431318D01*
Y434082D01*
X107084Y436753D01*
X105702Y439147D01*
X103747Y441102D01*
X101353Y442484D01*
X98682Y443200D01*
X95918D01*
X93247Y442484D01*
X90853Y441102D01*
X88898Y439147D01*
X87516Y436753D01*
X86800Y434082D01*
Y431318D01*
X87516Y428647D01*
X88898Y426253D01*
X90853Y424298D01*
X93247Y422916D01*
X95918Y422200D01*
X98682D01*
X101353Y422916D01*
X101997Y423288D01*
X106892Y418392D01*
X107974Y417670D01*
X109250Y417416D01*
X115239D01*
X115730Y416586D01*
X115967Y415416D01*
X114298Y413747D01*
X112916Y411353D01*
X112200Y408682D01*
Y408587D01*
X112182Y408565D01*
X110200Y407609D01*
X109971Y407762D01*
X108800Y407995D01*
X107800Y408682D01*
X107084Y411353D01*
X105702Y413747D01*
X103747Y415702D01*
X101353Y417084D01*
X98682Y417800D01*
X95918D01*
X93247Y417084D01*
X90853Y415702D01*
X88898Y413747D01*
X87516Y411353D01*
X86800Y408682D01*
Y405918D01*
X87516Y403247D01*
X88121Y402198D01*
X86521Y400970D01*
X80113Y407378D01*
Y591322D01*
X98896Y610104D01*
X100166Y612006D01*
X100613Y614250D01*
Y679250D01*
X100166Y681494D01*
X98896Y683396D01*
X80800Y701491D01*
X81250Y703170D01*
Y706330D01*
X80432Y709382D01*
X78852Y712118D01*
X76618Y714352D01*
X73882Y715932D01*
X70830Y716750D01*
D02*
G37*
G36*
X781500Y673250D02*
X769500D01*
Y658250D01*
X769657D01*
Y654381D01*
X769483Y654079D01*
X769040Y652426D01*
Y650714D01*
X769483Y649061D01*
X770339Y647579D01*
X771549Y646369D01*
X773031Y645513D01*
X774684Y645070D01*
X776396D01*
X778049Y645513D01*
X779531Y646369D01*
X780741Y647579D01*
X781597Y649061D01*
X782040Y650714D01*
Y652426D01*
X781597Y654079D01*
X781383Y654450D01*
Y658250D01*
X781500D01*
Y673250D01*
D02*
G37*
G36*
X643500Y650570D02*
X629500D01*
Y644654D01*
X624027D01*
X623122Y645559D01*
X621285Y646320D01*
X619295D01*
X617458Y645559D01*
X616051Y644152D01*
X615290Y642315D01*
Y640325D01*
X616051Y638488D01*
X617458Y637081D01*
X619295Y636320D01*
X621285D01*
X623122Y637081D01*
X624027Y637986D01*
X629500D01*
Y633070D01*
X643500D01*
Y650570D01*
D02*
G37*
G36*
X714990Y666290D02*
X696410D01*
Y660020D01*
X701407D01*
Y644610D01*
X698750D01*
Y639340D01*
X713830D01*
Y644610D01*
X710583D01*
Y660020D01*
X714990D01*
Y666290D01*
D02*
G37*
G36*
X260430Y644110D02*
X256360D01*
Y638090D01*
X260430D01*
Y644110D01*
D02*
G37*
G36*
X348080Y652140D02*
X338580D01*
Y633140D01*
X348080D01*
Y652140D01*
D02*
G37*
G36*
X713830Y636800D02*
X707560D01*
Y631530D01*
X713830D01*
Y636800D01*
D02*
G37*
G36*
X705020D02*
X698750D01*
Y631530D01*
X705020D01*
Y636800D01*
D02*
G37*
G36*
X278890Y643570D02*
X269290D01*
Y630070D01*
X278890D01*
Y632217D01*
X282561D01*
X283189Y631589D01*
X284671Y630733D01*
X286324Y630290D01*
X288036D01*
X289689Y630733D01*
X291171Y631589D01*
X292381Y632799D01*
X293237Y634281D01*
X293680Y635934D01*
Y637646D01*
X293237Y639299D01*
X292381Y640781D01*
X291171Y641991D01*
X289689Y642847D01*
X288036Y643290D01*
X286324D01*
X284671Y642847D01*
X283189Y641991D01*
X282591Y641393D01*
X278890D01*
Y643570D01*
D02*
G37*
G36*
X260430Y635550D02*
X256360D01*
Y629530D01*
X260430D01*
Y635550D01*
D02*
G37*
G36*
X529220Y635220D02*
X521450D01*
Y626700D01*
X529220D01*
Y635220D01*
D02*
G37*
G36*
X643500Y628320D02*
X629500D01*
Y624191D01*
X627500Y624172D01*
X626491Y625181D01*
X625009Y626036D01*
X623356Y626479D01*
X621644D01*
X619991Y626036D01*
X618509Y625181D01*
X617299Y623970D01*
X616443Y622488D01*
X616000Y620835D01*
Y619124D01*
X616443Y617471D01*
X617299Y615988D01*
X618509Y614778D01*
X619991Y613922D01*
X621644Y613479D01*
X623356D01*
X625009Y613922D01*
X626491Y614778D01*
X626695Y614982D01*
X629500D01*
Y610820D01*
X643500D01*
Y628320D01*
D02*
G37*
G36*
X81250Y640550D02*
X57250D01*
Y616550D01*
X81250D01*
Y640550D01*
D02*
G37*
G36*
X664040Y650570D02*
X650040D01*
Y633070D01*
X652452D01*
Y628320D01*
X650040D01*
Y610820D01*
X664040D01*
Y614982D01*
X671540D01*
X673296Y615331D01*
X674784Y616326D01*
X680779Y622320D01*
X688290D01*
Y634320D01*
X674290D01*
Y628809D01*
X669640Y624158D01*
X664040D01*
Y628320D01*
X661628D01*
Y633070D01*
X664040D01*
Y650570D01*
D02*
G37*
G36*
X538750Y608750D02*
X521250D01*
Y591250D01*
X538750D01*
Y608750D01*
D02*
G37*
G36*
X511152D02*
X508848D01*
X506623Y608154D01*
X504627Y607002D01*
X502998Y605373D01*
X501846Y603377D01*
X501250Y601152D01*
Y598848D01*
X501846Y596623D01*
X502998Y594627D01*
X504627Y592998D01*
X506623Y591846D01*
X508848Y591250D01*
X511152D01*
X513377Y591846D01*
X515373Y592998D01*
X517002Y594627D01*
X518154Y596623D01*
X518750Y598848D01*
Y601152D01*
X518154Y603377D01*
X517002Y605373D01*
X515373Y607002D01*
X513377Y608154D01*
X511152Y608750D01*
D02*
G37*
G36*
X491152D02*
X488848D01*
X486623Y608154D01*
X484627Y607002D01*
X482998Y605373D01*
X481846Y603377D01*
X481250Y601152D01*
Y598848D01*
X481846Y596623D01*
X482998Y594627D01*
X484627Y592998D01*
X486623Y591846D01*
X488848Y591250D01*
X491152D01*
X493377Y591846D01*
X495373Y592998D01*
X497002Y594627D01*
X498154Y596623D01*
X498750Y598848D01*
Y601152D01*
X498154Y603377D01*
X497002Y605373D01*
X495373Y607002D01*
X493377Y608154D01*
X491152Y608750D01*
D02*
G37*
G36*
X471152D02*
X468848D01*
X466623Y608154D01*
X464627Y607002D01*
X462998Y605373D01*
X461846Y603377D01*
X461250Y601152D01*
Y598848D01*
X461846Y596623D01*
X462998Y594627D01*
X464627Y592998D01*
X466623Y591846D01*
X468848Y591250D01*
X471152D01*
X473377Y591846D01*
X475373Y592998D01*
X477002Y594627D01*
X478154Y596623D01*
X478750Y598848D01*
Y601152D01*
X478154Y603377D01*
X477002Y605373D01*
X475373Y607002D01*
X473377Y608154D01*
X471152Y608750D01*
D02*
G37*
G36*
X451152D02*
X448848D01*
X446623Y608154D01*
X444627Y607002D01*
X442998Y605373D01*
X441846Y603377D01*
X441250Y601152D01*
Y598848D01*
X441846Y596623D01*
X442998Y594627D01*
X444627Y592998D01*
X446623Y591846D01*
X448848Y591250D01*
X451152D01*
X453377Y591846D01*
X455373Y592998D01*
X457002Y594627D01*
X458154Y596623D01*
X458750Y598848D01*
Y601152D01*
X458154Y603377D01*
X457002Y605373D01*
X455373Y607002D01*
X453377Y608154D01*
X451152Y608750D01*
D02*
G37*
G36*
X431152D02*
X428848D01*
X426623Y608154D01*
X424627Y607002D01*
X422998Y605373D01*
X421846Y603377D01*
X421250Y601152D01*
Y598848D01*
X421846Y596623D01*
X422998Y594627D01*
X424627Y592998D01*
X426623Y591846D01*
X428848Y591250D01*
X431152D01*
X433377Y591846D01*
X435373Y592998D01*
X437002Y594627D01*
X438154Y596623D01*
X438750Y598848D01*
Y601152D01*
X438154Y603377D01*
X437002Y605373D01*
X435373Y607002D01*
X433377Y608154D01*
X431152Y608750D01*
D02*
G37*
G36*
X411152D02*
X408848D01*
X406623Y608154D01*
X404627Y607002D01*
X402998Y605373D01*
X401846Y603377D01*
X401250Y601152D01*
Y598848D01*
X401846Y596623D01*
X402998Y594627D01*
X404627Y592998D01*
X406623Y591846D01*
X408848Y591250D01*
X411152D01*
X413377Y591846D01*
X415373Y592998D01*
X417002Y594627D01*
X418154Y596623D01*
X418750Y598848D01*
Y601152D01*
X418154Y603377D01*
X417002Y605373D01*
X415373Y607002D01*
X413377Y608154D01*
X411152Y608750D01*
D02*
G37*
G36*
X391152D02*
X388848D01*
X386623Y608154D01*
X384627Y607002D01*
X382998Y605373D01*
X381846Y603377D01*
X381250Y601152D01*
Y598848D01*
X381846Y596623D01*
X382998Y594627D01*
X384627Y592998D01*
X386623Y591846D01*
X388848Y591250D01*
X391152D01*
X393377Y591846D01*
X395373Y592998D01*
X397002Y594627D01*
X398154Y596623D01*
X398750Y598848D01*
Y601152D01*
X398154Y603377D01*
X397002Y605373D01*
X395373Y607002D01*
X393377Y608154D01*
X391152Y608750D01*
D02*
G37*
G36*
X260430Y597120D02*
X256360D01*
Y591100D01*
X260430D01*
Y597120D01*
D02*
G37*
G36*
X253820D02*
X249750D01*
Y591100D01*
X253820D01*
Y597120D01*
D02*
G37*
G36*
X331900Y598680D02*
Y589910D01*
X335920D01*
Y598680D01*
X331900D01*
D02*
G37*
G36*
X260430Y588560D02*
X256360D01*
Y582540D01*
X260430D01*
Y588560D01*
D02*
G37*
G36*
X253820D02*
X249750D01*
Y582540D01*
X253820D01*
Y588560D01*
D02*
G37*
G36*
X348080Y598140D02*
X338580D01*
Y579140D01*
X348080D01*
Y598140D01*
D02*
G37*
G36*
X309980D02*
X300480D01*
Y579140D01*
X309980D01*
Y598140D01*
D02*
G37*
G36*
X335920Y587370D02*
X331900D01*
Y578600D01*
X335920D01*
Y587370D01*
D02*
G37*
G36*
X329360D02*
X325340D01*
Y578600D01*
X329360D01*
Y587370D01*
D02*
G37*
G36*
X269390Y577080D02*
X259790D01*
Y563580D01*
X269390D01*
Y566586D01*
X281869D01*
X282249Y565929D01*
X283459Y564719D01*
X284941Y563863D01*
X286594Y563420D01*
X288306D01*
X289959Y563863D01*
X291441Y564719D01*
X292651Y565929D01*
X293507Y567411D01*
X293950Y569064D01*
Y570776D01*
X293507Y572429D01*
X292651Y573911D01*
X291441Y575121D01*
X289959Y575977D01*
X288306Y576420D01*
X286594D01*
X284941Y575977D01*
X283459Y575121D01*
X282249Y573911D01*
X281869Y573254D01*
X269390D01*
Y577080D01*
D02*
G37*
G36*
X739850Y674450D02*
X722350D01*
Y660450D01*
X724912D01*
Y563369D01*
X724671Y563128D01*
X345430D01*
Y567290D01*
X331430D01*
Y549790D01*
X331769D01*
X332449Y548601D01*
X332683Y547790D01*
X331943Y546509D01*
X331500Y544856D01*
Y543144D01*
X331943Y541491D01*
X332799Y540009D01*
X334009Y538799D01*
X335491Y537943D01*
X337144Y537500D01*
X338856D01*
X340509Y537943D01*
X341991Y538799D01*
X343201Y540009D01*
X344057Y541491D01*
X344500Y543144D01*
Y544856D01*
X344057Y546509D01*
X343317Y547790D01*
X343551Y548601D01*
X344231Y549790D01*
X345430D01*
Y553952D01*
X726571D01*
X728327Y554301D01*
X729815Y555296D01*
X732744Y558225D01*
X733739Y559713D01*
X734088Y561469D01*
Y660450D01*
X739850D01*
Y674450D01*
D02*
G37*
G36*
X229000Y552059D02*
X229000Y552059D01*
X112000D01*
X112000Y552059D01*
X110829Y551826D01*
X109837Y551163D01*
X102244Y543570D01*
X101353Y544084D01*
X98682Y544800D01*
X95918D01*
X93247Y544084D01*
X90853Y542702D01*
X88898Y540747D01*
X87516Y538353D01*
X86800Y535682D01*
Y532918D01*
X87516Y530247D01*
X88898Y527853D01*
X90853Y525898D01*
X93247Y524516D01*
X95918Y523800D01*
X98682D01*
X101353Y524516D01*
X103747Y525898D01*
X105702Y527853D01*
X107084Y530247D01*
X107800Y532918D01*
Y535682D01*
X107084Y538353D01*
X106570Y539244D01*
X113267Y545941D01*
X117072D01*
X117306Y545620D01*
X116750Y542989D01*
X116253Y542702D01*
X114298Y540747D01*
X112916Y538353D01*
X112200Y535682D01*
Y532918D01*
X112916Y530247D01*
X114298Y527853D01*
X116253Y525898D01*
X118647Y524516D01*
X121318Y523800D01*
X124082D01*
X126753Y524516D01*
X129147Y525898D01*
X131102Y527853D01*
X132175Y529712D01*
X142500D01*
Y526796D01*
X141960Y525020D01*
X141960Y524244D01*
Y520568D01*
X133027D01*
X131271Y520219D01*
X129783Y519224D01*
X128727Y518168D01*
X126961Y519188D01*
X124153Y519940D01*
X123970D01*
Y510170D01*
X133740D01*
Y510204D01*
X134928Y511392D01*
X141960D01*
Y506940D01*
X150480D01*
Y515980D01*
X151750D01*
Y517250D01*
X161540D01*
Y524244D01*
X161540Y525020D01*
X161000Y526796D01*
Y543020D01*
X142500D01*
Y538888D01*
X132175D01*
X131102Y540747D01*
X129147Y542702D01*
X128651Y542989D01*
X128094Y545620D01*
X128328Y545941D01*
X227733D01*
X243837Y529837D01*
X243837Y529837D01*
X244830Y529174D01*
X246000Y528941D01*
X384260D01*
X384799Y528009D01*
X386009Y526799D01*
X387491Y525943D01*
X389144Y525500D01*
X390856D01*
X392509Y525943D01*
X393991Y526799D01*
X395201Y528009D01*
X396057Y529491D01*
X396500Y531144D01*
Y532856D01*
X396057Y534509D01*
X395201Y535991D01*
X393991Y537201D01*
X392509Y538057D01*
X390856Y538500D01*
X389144D01*
X387491Y538057D01*
X386009Y537201D01*
X384799Y535991D01*
X384260Y535059D01*
X247267D01*
X231163Y551163D01*
X230171Y551826D01*
X229000Y552059D01*
D02*
G37*
G36*
X121430Y519940D02*
X121247D01*
X118439Y519188D01*
X115921Y517734D01*
X113866Y515679D01*
X112412Y513161D01*
X111660Y510353D01*
Y510170D01*
X121430D01*
Y519940D01*
D02*
G37*
G36*
X161540Y514710D02*
X153020D01*
Y506940D01*
X161540D01*
Y514710D01*
D02*
G37*
G36*
X408730Y369277D02*
X406414Y368657D01*
X404296Y367434D01*
X402566Y365704D01*
X401343Y363586D01*
X400710Y361223D01*
X398750Y361152D01*
X398154Y363377D01*
X397002Y365373D01*
X395373Y367002D01*
X393377Y368154D01*
X391152Y368750D01*
X388848D01*
X386623Y368154D01*
X384627Y367002D01*
X382998Y365373D01*
X381846Y363377D01*
X381250Y361152D01*
Y358848D01*
X381846Y356623D01*
X382998Y354627D01*
X384627Y352998D01*
X386623Y351846D01*
X388848Y351250D01*
X391152D01*
X393377Y351846D01*
X395373Y352998D01*
X397002Y354627D01*
X398154Y356623D01*
X398750Y358848D01*
X400710Y358777D01*
X401343Y356414D01*
X402566Y354296D01*
X404296Y352566D01*
X406414Y351343D01*
X408730Y350723D01*
Y360000D01*
Y369277D01*
D02*
G37*
G36*
X471152Y368750D02*
X468848D01*
X466623Y368154D01*
X464627Y367002D01*
X462998Y365373D01*
X461846Y363377D01*
X461250Y361152D01*
Y358848D01*
X461846Y356623D01*
X462998Y354627D01*
X464627Y352998D01*
X466623Y351846D01*
X468848Y351250D01*
X471152D01*
X473377Y351846D01*
X475373Y352998D01*
X477002Y354627D01*
X478154Y356623D01*
X478750Y358848D01*
Y361152D01*
X478154Y363377D01*
X477002Y365373D01*
X475373Y367002D01*
X473377Y368154D01*
X471152Y368750D01*
D02*
G37*
G36*
X451152D02*
X448848D01*
X446623Y368154D01*
X444627Y367002D01*
X442998Y365373D01*
X441846Y363377D01*
X441250Y361152D01*
Y358848D01*
X441846Y356623D01*
X442998Y354627D01*
X444627Y352998D01*
X446623Y351846D01*
X448848Y351250D01*
X451152D01*
X453377Y351846D01*
X455373Y352998D01*
X457002Y354627D01*
X458154Y356623D01*
X458750Y358848D01*
Y361152D01*
X458154Y363377D01*
X457002Y365373D01*
X455373Y367002D01*
X453377Y368154D01*
X451152Y368750D01*
D02*
G37*
G36*
X411270Y369277D02*
Y360000D01*
Y350723D01*
X413586Y351343D01*
X415704Y352566D01*
X417434Y354296D01*
X418657Y356414D01*
X419290Y358777D01*
X421250Y358848D01*
X421846Y356623D01*
X422998Y354627D01*
X424627Y352998D01*
X426623Y351846D01*
X428848Y351250D01*
X431152D01*
X433377Y351846D01*
X435373Y352998D01*
X437002Y354627D01*
X438154Y356623D01*
X438750Y358848D01*
Y361152D01*
X438154Y363377D01*
X437002Y365373D01*
X435373Y367002D01*
X433377Y368154D01*
X431152Y368750D01*
X428848D01*
X426623Y368154D01*
X424627Y367002D01*
X422998Y365373D01*
X421846Y363377D01*
X421250Y361152D01*
X419290Y361223D01*
X418657Y363586D01*
X417434Y365704D01*
X415704Y367434D01*
X413586Y368657D01*
X411270Y369277D01*
D02*
G37*
G36*
X36540Y355330D02*
X28520D01*
Y349060D01*
X36540D01*
Y355330D01*
D02*
G37*
G36*
X25980D02*
X17960D01*
Y349060D01*
X25980D01*
Y355330D01*
D02*
G37*
G36*
X61040Y355310D02*
X53020D01*
Y349040D01*
X61040D01*
Y355310D01*
D02*
G37*
G36*
X50480D02*
X42460D01*
Y349040D01*
X50480D01*
Y355310D01*
D02*
G37*
G36*
X25980Y346520D02*
X17960D01*
Y340250D01*
X25980D01*
Y346520D01*
D02*
G37*
G36*
X121430Y316740D02*
X111660D01*
Y306970D01*
X121430D01*
Y316740D01*
D02*
G37*
G36*
X98682Y316200D02*
X95918D01*
X93247Y315484D01*
X90853Y314102D01*
X88898Y312147D01*
X87516Y309753D01*
X86800Y307082D01*
Y304318D01*
X87516Y301647D01*
X88898Y299253D01*
X90853Y297298D01*
X93247Y295916D01*
X95918Y295200D01*
X98682D01*
X101353Y295916D01*
X103747Y297298D01*
X105702Y299253D01*
X107084Y301647D01*
X107800Y304318D01*
Y307082D01*
X107084Y309753D01*
X105702Y312147D01*
X103747Y314102D01*
X101353Y315484D01*
X98682Y316200D01*
D02*
G37*
G36*
X121430Y304430D02*
X111660D01*
Y294660D01*
X121430D01*
Y304430D01*
D02*
G37*
G36*
X121020Y275790D02*
X114750D01*
Y267770D01*
X121020D01*
Y275790D01*
D02*
G37*
G36*
X28190Y265980D02*
X20420D01*
Y257460D01*
X28190D01*
Y265980D01*
D02*
G37*
G36*
X121020Y265230D02*
X114750D01*
Y257210D01*
X121020D01*
Y265230D01*
D02*
G37*
G36*
X93040Y275790D02*
Y266000D01*
Y256210D01*
X100810D01*
Y259190D01*
X105940D01*
Y257210D01*
X112210D01*
Y266500D01*
Y275790D01*
X105940D01*
Y273310D01*
X100810D01*
Y275790D01*
X93040D01*
D02*
G37*
G36*
X113460Y252790D02*
X105690D01*
Y244270D01*
X113460D01*
Y252790D01*
D02*
G37*
G36*
X62356Y238230D02*
X60644D01*
X58991Y237787D01*
X57509Y236931D01*
X56299Y235721D01*
X55443Y234239D01*
X55000Y232586D01*
Y230874D01*
X55443Y229221D01*
X56299Y227739D01*
X57509Y226529D01*
X58991Y225673D01*
X59367Y225572D01*
X64980Y219959D01*
Y209750D01*
X81204D01*
X82980Y209210D01*
X83756Y209210D01*
X90750D01*
Y219000D01*
Y228790D01*
X83756D01*
X82980Y228790D01*
X81204Y228250D01*
X73271D01*
X67658Y233863D01*
X67557Y234239D01*
X66701Y235721D01*
X65491Y236931D01*
X64009Y237787D01*
X62356Y238230D01*
D02*
G37*
G36*
X82730Y205230D02*
X80954Y204690D01*
X64730D01*
Y201208D01*
X62431D01*
X62259Y201307D01*
X60606Y201750D01*
X58894D01*
X57241Y201307D01*
X55759Y200451D01*
X54549Y199241D01*
X53693Y197759D01*
X53250Y196106D01*
Y194394D01*
X53693Y192741D01*
X54549Y191259D01*
X55759Y190049D01*
X57241Y189193D01*
X58894Y188750D01*
X60606D01*
X62259Y189193D01*
X62760Y189482D01*
X64730D01*
Y186190D01*
X80954D01*
X82730Y185650D01*
X83506Y185650D01*
X90500D01*
Y195440D01*
Y205230D01*
X83506D01*
X82797Y205230D01*
X82730D01*
D02*
G37*
G36*
X93040Y205230D02*
Y196710D01*
X100810D01*
Y205230D01*
X93040D01*
D02*
G37*
G36*
X100810Y194170D02*
X93040D01*
Y185650D01*
X100810D01*
Y194170D01*
D02*
G37*
G36*
X156330Y46790D02*
X156147D01*
X153339Y46038D01*
X150821Y44584D01*
X148766Y42529D01*
X147312Y40011D01*
X146560Y37203D01*
Y37020D01*
X156330D01*
Y46790D01*
D02*
G37*
G36*
X62519Y92000D02*
X57481D01*
X52507Y91212D01*
X47716Y89656D01*
X43228Y87369D01*
X39153Y84408D01*
X35592Y80847D01*
X32631Y76772D01*
X30344Y72284D01*
X28788Y67493D01*
X28000Y62519D01*
Y57481D01*
X28788Y52507D01*
X30344Y47716D01*
X32631Y43228D01*
X35592Y39153D01*
X39153Y35592D01*
X43228Y32631D01*
X47716Y30344D01*
X52507Y28788D01*
X57481Y28000D01*
X62519D01*
X67493Y28788D01*
X72284Y30344D01*
X76772Y32631D01*
X80847Y35592D01*
X84408Y39153D01*
X87369Y43228D01*
X89656Y47716D01*
X91212Y52507D01*
X92000Y57481D01*
Y62519D01*
X91212Y67493D01*
X89656Y72284D01*
X87369Y76772D01*
X84408Y80847D01*
X80847Y84408D01*
X76772Y87369D01*
X72284Y89656D01*
X67493Y91212D01*
X62519Y92000D01*
D02*
G37*
G36*
X156330Y34480D02*
X146560D01*
Y34297D01*
X147312Y31489D01*
X148766Y28971D01*
X150821Y26916D01*
X153339Y25462D01*
X156147Y24710D01*
X156330D01*
Y34480D01*
D02*
G37*
%LPD*%
G36*
X332799Y479009D02*
X334009Y477799D01*
X335491Y476943D01*
X336831Y476584D01*
X336567Y474584D01*
X131462D01*
X130633Y476584D01*
X131102Y477053D01*
X132484Y479447D01*
X132751Y480441D01*
X331972D01*
X332799Y479009D01*
D02*
G37*
G36*
X43000Y320230D02*
X46686D01*
Y307759D01*
X45500Y306250D01*
X38500D01*
Y306250D01*
X37500D01*
Y306250D01*
X30564D01*
Y320250D01*
X36000D01*
Y329564D01*
X40623Y334186D01*
X43000D01*
Y320230D01*
D02*
G37*
%LPC*%
G36*
X644099Y471425D02*
X641301D01*
X638599Y470701D01*
X636176Y469302D01*
X634198Y467324D01*
X632799Y464901D01*
X632075Y462199D01*
Y459401D01*
X632799Y456699D01*
X634198Y454276D01*
X636176Y452298D01*
X638599Y450899D01*
X641301Y450175D01*
X644099D01*
X646801Y450899D01*
X649224Y452298D01*
X651202Y454276D01*
X652601Y456699D01*
X653325Y459401D01*
Y462199D01*
X652601Y464901D01*
X651202Y467324D01*
X649224Y469302D01*
X646801Y470701D01*
X644099Y471425D01*
D02*
G37*
G36*
X618699D02*
X615901D01*
X613199Y470701D01*
X610776Y469302D01*
X608798Y467324D01*
X607399Y464901D01*
X606675Y462199D01*
Y459401D01*
X607399Y456699D01*
X608798Y454276D01*
X610445Y452629D01*
X610125Y451261D01*
X609728Y450629D01*
X602033D01*
X600757Y450375D01*
X599675Y449652D01*
X598143Y448120D01*
X597420Y447038D01*
X597166Y445762D01*
Y321881D01*
X590869Y315584D01*
X188750D01*
Y321000D01*
X174750D01*
Y303500D01*
X178936D01*
Y296750D01*
X174750D01*
Y279250D01*
X178436D01*
Y275000D01*
X173210D01*
X172750Y275000D01*
X171210D01*
X170750Y275000D01*
X167823D01*
Y279250D01*
X168210D01*
Y296750D01*
X154210D01*
Y293863D01*
X151346D01*
X151009Y294057D01*
X149356Y294500D01*
X147644D01*
X145991Y294057D01*
X144509Y293201D01*
X143299Y291991D01*
X142443Y290509D01*
X142000Y288856D01*
Y287144D01*
X142443Y285491D01*
X143299Y284009D01*
X144509Y282799D01*
X145991Y281943D01*
X147644Y281500D01*
X149356D01*
X151009Y281943D01*
X151346Y282137D01*
X154210D01*
Y279250D01*
X156097D01*
Y275000D01*
X154210D01*
Y271613D01*
X151846D01*
X151509Y271807D01*
X149856Y272250D01*
X148144D01*
X146491Y271807D01*
X145009Y270951D01*
X143799Y269741D01*
X143560Y269328D01*
X141560Y269863D01*
Y275790D01*
X135290D01*
Y266500D01*
Y257210D01*
X141560D01*
Y261637D01*
X143560Y262173D01*
X143799Y261759D01*
X145009Y260549D01*
X146491Y259693D01*
X148144Y259250D01*
X149856D01*
X151509Y259693D01*
X151846Y259887D01*
X154210D01*
Y256500D01*
X170750D01*
X171210Y256500D01*
X172750D01*
X173210Y256500D01*
X189750D01*
Y275000D01*
X185104D01*
Y279250D01*
X188750D01*
Y296750D01*
X185604D01*
Y303500D01*
X188750D01*
Y308916D01*
X592250D01*
X593526Y309170D01*
X594608Y309893D01*
X602858Y318143D01*
X603580Y319224D01*
X603834Y320500D01*
Y443961D01*
X608007D01*
X608835Y441961D01*
X608798Y441924D01*
X607399Y439501D01*
X606675Y436799D01*
Y434001D01*
X607399Y431299D01*
X608798Y428876D01*
X610776Y426898D01*
X613199Y425499D01*
X615901Y424775D01*
X618699D01*
X621401Y425499D01*
X623824Y426898D01*
X625802Y428876D01*
X627201Y431299D01*
X627925Y434001D01*
Y436799D01*
X627201Y439501D01*
X625802Y441924D01*
X625765Y441961D01*
X626594Y443961D01*
X629424D01*
X633196Y440189D01*
X632799Y439501D01*
X632075Y436799D01*
Y434001D01*
X632799Y431299D01*
X634198Y428876D01*
X636176Y426898D01*
X638599Y425499D01*
X641301Y424775D01*
X644099D01*
X646801Y425499D01*
X649224Y426898D01*
X651202Y428876D01*
X652601Y431299D01*
X653325Y434001D01*
Y436799D01*
X652601Y439501D01*
X651202Y441924D01*
X649224Y443902D01*
X646801Y445301D01*
X644099Y446025D01*
X641301D01*
X638599Y445301D01*
X637911Y444904D01*
X633162Y449652D01*
X632081Y450375D01*
X630805Y450629D01*
X624872D01*
X624476Y451261D01*
X624155Y452629D01*
X625802Y454276D01*
X627201Y456699D01*
X627925Y459401D01*
Y462199D01*
X627201Y464901D01*
X625802Y467324D01*
X623824Y469302D01*
X621401Y470701D01*
X618699Y471425D01*
D02*
G37*
G36*
Y420625D02*
X615901D01*
X613199Y419901D01*
X610776Y418502D01*
X608798Y416524D01*
X607399Y414101D01*
X606675Y411399D01*
Y408601D01*
X607399Y405899D01*
X608798Y403476D01*
X610776Y401498D01*
X613199Y400099D01*
X615901Y399375D01*
X618699D01*
X621401Y400099D01*
X623824Y401498D01*
X625802Y403476D01*
X627201Y405899D01*
X627925Y408601D01*
Y411399D01*
X627201Y414101D01*
X625802Y416524D01*
X623824Y418502D01*
X621401Y419901D01*
X618699Y420625D01*
D02*
G37*
G36*
X644099Y420625D02*
X641301D01*
X638599Y419901D01*
X636176Y418502D01*
X634198Y416524D01*
X632799Y414101D01*
X632075Y411399D01*
Y408601D01*
X632799Y405899D01*
X634198Y403476D01*
X636176Y401498D01*
X638599Y400099D01*
X641301Y399375D01*
X644099D01*
X646801Y400099D01*
X649224Y401498D01*
X651202Y403476D01*
X652601Y405899D01*
X653325Y408601D01*
Y411399D01*
X652601Y414101D01*
X651202Y416524D01*
X649224Y418502D01*
X646801Y419901D01*
X644099Y420625D01*
D02*
G37*
G36*
X709646Y409710D02*
X707934D01*
X706281Y409267D01*
X704799Y408411D01*
X703589Y407201D01*
X702733Y405719D01*
X702290Y404066D01*
Y402354D01*
X702733Y400701D01*
X702927Y400364D01*
Y398414D01*
X701513Y397000D01*
X701066D01*
X699290Y397540D01*
X698514Y397540D01*
X691520D01*
Y387750D01*
X690250D01*
Y386480D01*
X681210D01*
Y377960D01*
X683190D01*
Y373040D01*
X681210D01*
Y364520D01*
X690250D01*
Y363250D01*
X691520D01*
Y353460D01*
X698514D01*
X699290Y353460D01*
X701066Y354000D01*
X701513D01*
X702927Y352586D01*
Y348886D01*
X702733Y348549D01*
X702290Y346896D01*
Y345184D01*
X702733Y343531D01*
X703589Y342049D01*
X704799Y340839D01*
X706281Y339983D01*
X707934Y339540D01*
X709646D01*
X711299Y339983D01*
X712781Y340839D01*
X713991Y342049D01*
X714847Y343531D01*
X715290Y345184D01*
Y346896D01*
X714847Y348549D01*
X714653Y348886D01*
Y354000D01*
X717290D01*
Y372500D01*
X701066D01*
X699290Y373040D01*
X697310Y374542D01*
Y376546D01*
X698725Y377960D01*
X699290D01*
X701066Y378500D01*
X717290D01*
Y397000D01*
X714653D01*
Y400364D01*
X714847Y400701D01*
X715290Y402354D01*
Y404066D01*
X714847Y405719D01*
X713991Y407201D01*
X712781Y408411D01*
X711299Y409267D01*
X709646Y409710D01*
D02*
G37*
G36*
X688980Y397540D02*
X681210D01*
Y389020D01*
X688980D01*
Y397540D01*
D02*
G37*
G36*
X644099Y395225D02*
X641301D01*
X638599Y394501D01*
X636176Y393102D01*
X634198Y391124D01*
X632799Y388701D01*
X632075Y385999D01*
Y383201D01*
X632799Y380499D01*
X634198Y378076D01*
X636176Y376098D01*
X638599Y374699D01*
X641301Y373975D01*
X644099D01*
X646801Y374699D01*
X649224Y376098D01*
X651202Y378076D01*
X652601Y380499D01*
X653325Y383201D01*
Y385999D01*
X652601Y388701D01*
X651202Y391124D01*
X649224Y393102D01*
X646801Y394501D01*
X644099Y395225D01*
D02*
G37*
G36*
X618699D02*
X615901D01*
X613199Y394501D01*
X610776Y393102D01*
X608798Y391124D01*
X607399Y388701D01*
X606675Y385999D01*
Y383201D01*
X607399Y380499D01*
X608798Y378076D01*
X610776Y376098D01*
X613199Y374699D01*
X615901Y373975D01*
X618699D01*
X621401Y374699D01*
X623824Y376098D01*
X625802Y378076D01*
X627201Y380499D01*
X627925Y383201D01*
Y385999D01*
X627201Y388701D01*
X625802Y391124D01*
X623824Y393102D01*
X621401Y394501D01*
X618699Y395225D01*
D02*
G37*
G36*
X653965Y370115D02*
X644070D01*
Y360220D01*
X653965D01*
Y370115D01*
D02*
G37*
G36*
X641530D02*
X631635D01*
Y360220D01*
X641530D01*
Y370115D01*
D02*
G37*
G36*
X688980Y361980D02*
X681210D01*
Y353460D01*
X688980D01*
Y361980D01*
D02*
G37*
G36*
X653965Y357680D02*
X644070D01*
Y347785D01*
X653965D01*
Y357680D01*
D02*
G37*
G36*
X641530D02*
X631635D01*
Y347785D01*
X641530D01*
Y357680D01*
D02*
G37*
G36*
X618699Y369825D02*
X615901D01*
X613199Y369101D01*
X610776Y367702D01*
X608798Y365724D01*
X607399Y363301D01*
X606675Y360599D01*
Y357801D01*
X607399Y355099D01*
X608798Y352676D01*
X610776Y350698D01*
X611287Y350403D01*
Y345355D01*
X610943Y344759D01*
X610500Y343106D01*
Y341394D01*
X610943Y339741D01*
X611799Y338259D01*
X613009Y337049D01*
X614491Y336193D01*
X616144Y335750D01*
X617856D01*
X619509Y336193D01*
X620991Y337049D01*
X622201Y338259D01*
X623057Y339741D01*
X623500Y341394D01*
Y343106D01*
X623057Y344759D01*
X623013Y344836D01*
Y350229D01*
X623824Y350698D01*
X625802Y352676D01*
X627201Y355099D01*
X627925Y357801D01*
Y360599D01*
X627201Y363301D01*
X625802Y365724D01*
X623824Y367702D01*
X621401Y369101D01*
X618699Y369825D01*
D02*
G37*
G36*
X168750Y321540D02*
X162480D01*
Y313520D01*
X168750D01*
Y321540D01*
D02*
G37*
G36*
X159940D02*
X153670D01*
Y313520D01*
X159940D01*
Y321540D01*
D02*
G37*
G36*
X168750Y310980D02*
X162480D01*
Y302960D01*
X168750D01*
Y310980D01*
D02*
G37*
G36*
X159940D02*
X153670D01*
Y302960D01*
X159940D01*
Y310980D01*
D02*
G37*
G36*
X193790Y250560D02*
X185270D01*
Y242790D01*
X193790D01*
Y250560D01*
D02*
G37*
G36*
X158980Y250330D02*
X150460D01*
Y242560D01*
X158980D01*
Y250330D01*
D02*
G37*
G36*
X260228Y265133D02*
X259771D01*
Y248863D01*
X276040D01*
Y249321D01*
X275366Y252709D01*
X274044Y255901D01*
X272125Y258774D01*
X269682Y261217D01*
X266809Y263137D01*
X263617Y264459D01*
X260228Y265133D01*
D02*
G37*
G36*
X276040Y246323D02*
X259771D01*
Y230053D01*
X260228D01*
X263617Y230727D01*
X266809Y232049D01*
X269682Y233969D01*
X272125Y236412D01*
X274044Y239285D01*
X275366Y242477D01*
X276040Y245865D01*
Y246323D01*
D02*
G37*
G36*
X184040Y107540D02*
Y99020D01*
X191810D01*
Y107540D01*
X184040D01*
D02*
G37*
G36*
X191810Y96480D02*
X184040D01*
Y87960D01*
X191810D01*
Y96480D01*
D02*
G37*
G36*
X260175Y114693D02*
X256826D01*
X253542Y114040D01*
X250448Y112758D01*
X247664Y110898D01*
X245296Y108530D01*
X243435Y105746D01*
X242154Y102652D01*
X241500Y99367D01*
Y96019D01*
X242154Y92734D01*
X243435Y89641D01*
X245296Y86856D01*
X247664Y84488D01*
X250448Y82628D01*
X253542Y81346D01*
X256826Y80693D01*
X260175D01*
X263459Y81346D01*
X266553Y82628D01*
X269337Y84488D01*
X271705Y86856D01*
X273566Y89641D01*
X274847Y92734D01*
X275501Y96019D01*
Y99367D01*
X274847Y102652D01*
X273566Y105746D01*
X271705Y108530D01*
X269337Y110898D01*
X266553Y112758D01*
X263459Y114040D01*
X260175Y114693D01*
D02*
G37*
G36*
X184420Y79540D02*
Y69770D01*
X194190D01*
Y79540D01*
X184420D01*
D02*
G37*
G36*
X194190Y67230D02*
X184420D01*
Y57460D01*
X194190D01*
Y67230D01*
D02*
G37*
G36*
X184270Y46790D02*
Y37020D01*
X194040D01*
Y46790D01*
X184270D01*
D02*
G37*
G36*
X194040Y34480D02*
X184270D01*
Y24710D01*
X194040D01*
Y34480D01*
D02*
G37*
%LPD*%
D10*
X246000Y532000D02*
X390000D01*
X229000Y549000D02*
X246000Y532000D01*
X338000Y558110D02*
X338430Y558540D01*
X338000Y544000D02*
Y558110D01*
X122700Y483500D02*
X337500D01*
X338000Y483000D01*
X112000Y549000D02*
X229000D01*
X97300Y534300D02*
X112000Y549000D01*
X108800Y497400D02*
X409400D01*
X410000Y498000D01*
X97300Y508900D02*
X108800Y497400D01*
X123150Y458550D02*
X508550D01*
X509000Y459000D01*
X122700Y458100D02*
X123150Y458550D01*
X122700Y432700D02*
X529300D01*
X530000Y432000D01*
X510000Y360000D02*
Y382000D01*
X117937Y395800D02*
X496200D01*
X510000Y382000D01*
X97300Y407300D02*
X99663Y404937D01*
X108800D01*
X117937Y395800D01*
X515700Y407300D02*
X530000Y393000D01*
Y360000D02*
Y393000D01*
X122700Y407300D02*
X515700D01*
X479100Y381900D02*
X490000Y371000D01*
Y360000D02*
Y371000D01*
X122700Y381900D02*
X479100D01*
D12*
X109950Y343750D02*
X122700Y356500D01*
X39250Y337500D02*
X73500D01*
X79750Y343750D01*
X109950D01*
X42000Y301750D02*
X48535D01*
X50000Y303214D02*
Y325480D01*
X51750Y327230D01*
X48535Y301750D02*
X50000Y303214D01*
X27250D02*
Y327250D01*
Y303214D02*
X28714Y301750D01*
X34000D01*
X29000Y327250D02*
X39250Y337500D01*
X27250Y327250D02*
X29000D01*
X67980Y327230D02*
X71850Y331100D01*
X97300D01*
X51750Y327230D02*
X67980D01*
D18*
X317930Y553187D02*
Y588640D01*
Y599004D01*
X403250Y616500D02*
X405507Y618757D01*
X335426Y616500D02*
X403250D01*
X317930Y599004D02*
X335426Y616500D01*
X405507Y618757D02*
Y635757D01*
X405750Y636000D01*
X545270Y682120D02*
Y684000D01*
X528450Y663550D02*
Y665300D01*
X545270Y682120D01*
Y684000D02*
X548770Y687500D01*
X482250Y636000D02*
X496240Y649990D01*
X537180D01*
X548990Y661800D01*
Y663550D01*
X405750Y636000D02*
X482250D01*
X498750Y664550D02*
X527450D01*
D19*
X109150Y446250D02*
X470500D01*
X97300Y458100D02*
X109150Y446250D01*
X73230Y266000D02*
X73250Y265980D01*
X447830Y782000D02*
X458940Y770890D01*
X401750Y782000D02*
X447830D01*
X388250Y795500D02*
X401750Y782000D01*
X191750Y651000D02*
X205930Y636820D01*
X255090D01*
X191750Y651000D02*
Y759000D01*
X339980Y666750D02*
X364028D01*
X370488Y660290D01*
X389090D02*
X414490D01*
X370488D02*
X389090D01*
X264590Y616910D02*
X324280D01*
X289442Y654790D02*
X290930Y656278D01*
X244680Y654790D02*
X289442D01*
X290930Y656278D02*
Y666750D01*
X236286Y768750D02*
X246250D01*
X235976Y768440D02*
X236286Y768750D01*
X256022Y668128D02*
Y718522D01*
X386488Y635278D02*
X387210Y636000D01*
X378388Y635278D02*
X386488D01*
X369650Y626540D02*
X378388Y635278D01*
X357930Y626540D02*
X369650D01*
X417680Y692500D02*
X426750D01*
X414490Y689310D02*
X417680Y692500D01*
X357680Y687290D02*
X374390Y704000D01*
X484700D01*
X414490Y680830D02*
Y689310D01*
X341730Y687290D02*
X357680D01*
X317930Y667190D02*
X318870Y668130D01*
X204250Y738000D02*
Y781940D01*
X206250Y736000D02*
X334500D01*
X204250Y738000D02*
X206250Y736000D01*
X202762Y783428D02*
X204250Y781940D01*
X191572Y783428D02*
X202762D01*
X190250Y784750D02*
X191572Y783428D01*
X236000Y795462D02*
Y807000D01*
X238750Y809750D02*
X379500D01*
X236000Y807000D02*
X238750Y809750D01*
X217000Y768792D02*
Y795462D01*
X47678Y267572D02*
X48000Y267250D01*
X182270Y312250D02*
X592250D01*
X600500Y320500D02*
Y445762D01*
X592250Y312250D02*
X600500Y320500D01*
X133270Y243000D02*
X133500Y242770D01*
X47678Y267572D02*
Y276822D01*
X73230Y195440D02*
X73250Y195420D01*
X42000Y282500D02*
Y287750D01*
Y282500D02*
X47678Y276822D01*
X109550Y471250D02*
X429250D01*
X159750Y222250D02*
X160250Y222750D01*
X184000Y222980D02*
X184480Y222500D01*
X181770Y269250D02*
Y290500D01*
X182270Y291000D01*
X182270Y291000D01*
Y312250D01*
X636000Y641320D02*
X636500Y641820D01*
X620290Y641320D02*
X636000D01*
X822700Y763250D02*
X824300Y761650D01*
X256022Y718522D02*
X266270Y728770D01*
X475232D01*
X476720Y730258D02*
Y803910D01*
X475232Y728770D02*
X476720Y730258D01*
X257510Y666640D02*
X268070D01*
X256022Y668128D02*
X257510Y666640D01*
X520022Y687500D02*
X528230D01*
X517572Y689950D02*
X520022Y687500D01*
X498750Y689950D02*
X517572D01*
X484700Y704000D02*
X498750Y689950D01*
X352850Y754350D02*
Y777750D01*
X334500Y736000D02*
X352850Y754350D01*
X264590Y569920D02*
X287450D01*
X294400Y795500D02*
X388250D01*
X276650Y777750D02*
X294400Y795500D01*
X317930Y627070D02*
Y642640D01*
X317490Y666750D02*
X317930Y667190D01*
Y642640D02*
Y667190D01*
X330630Y623260D02*
Y642640D01*
Y657400D01*
X339980Y666750D01*
X448750Y420750D02*
X449250Y420250D01*
Y420750D01*
X109250D02*
X448750D01*
X97300Y432700D02*
X109250Y420750D01*
X97300Y483500D02*
X109550Y471250D01*
X548990Y663550D02*
X549250Y663810D01*
X324280Y616910D02*
X330630Y623260D01*
X600500Y445762D02*
X602033Y447295D01*
X630805D01*
X642700Y435400D01*
X766000Y686750D02*
X777810D01*
X797540Y667020D01*
Y665070D02*
Y667020D01*
X296010Y666750D02*
X317490D01*
X414490Y660290D02*
X414490Y660290D01*
X439890D01*
X449940D01*
X450940Y661290D01*
X464020D01*
X458940Y745490D02*
Y770890D01*
Y821690D02*
X476720Y803910D01*
D20*
X42000Y301750D02*
D03*
X34000D02*
D03*
Y287750D02*
D03*
X42000D02*
D03*
D21*
X318870Y686670D02*
D03*
Y668130D02*
D03*
X654900Y686990D02*
D03*
Y668450D02*
D03*
X160250Y241290D02*
D03*
Y222750D02*
D03*
X184000Y222980D02*
D03*
Y241520D02*
D03*
X151750Y534520D02*
D03*
Y515980D02*
D03*
X464020Y661290D02*
D03*
Y679830D02*
D03*
D22*
X731100Y687990D02*
D03*
Y667450D02*
D03*
X705700Y667560D02*
D03*
Y688100D02*
D03*
X681570Y667450D02*
D03*
Y687990D02*
D03*
X27250Y347790D02*
D03*
Y327250D02*
D03*
X51750Y327230D02*
D03*
Y347770D02*
D03*
X268070Y666640D02*
D03*
Y687180D02*
D03*
X290930Y666520D02*
D03*
Y687060D02*
D03*
X414490Y680830D02*
D03*
Y660290D02*
D03*
X389090Y660290D02*
D03*
Y680830D02*
D03*
X439890Y660290D02*
D03*
Y680830D02*
D03*
X341730Y687290D02*
D03*
Y666750D02*
D03*
D23*
X756500Y665750D02*
D03*
X775500D02*
D03*
X766000Y686750D02*
D03*
D24*
X236000Y795462D02*
D03*
X217000D02*
D03*
X226500Y814962D02*
D03*
X226476Y748940D02*
D03*
X216976Y768440D02*
D03*
X235976D02*
D03*
X264590Y570330D02*
D03*
X274090Y589830D02*
D03*
X255090D02*
D03*
X264590Y617320D02*
D03*
X274090Y636820D02*
D03*
X255090D02*
D03*
X797540Y665070D02*
D03*
X816540D02*
D03*
X807040Y684570D02*
D03*
D25*
X164230Y97750D02*
D03*
X182770D02*
D03*
X162710Y335500D02*
D03*
X181250D02*
D03*
X29460Y267250D02*
D03*
X48000D02*
D03*
X91770Y195440D02*
D03*
X73230D02*
D03*
X114730Y243000D02*
D03*
X133270D02*
D03*
X73230Y266000D02*
D03*
X91770D02*
D03*
X73480Y219000D02*
D03*
X92020D02*
D03*
X162710Y265750D02*
D03*
X181250D02*
D03*
X405750Y636000D02*
D03*
X387210D02*
D03*
X549030Y636490D02*
D03*
X530490D02*
D03*
X690250Y363250D02*
D03*
X708790D02*
D03*
Y387750D02*
D03*
X690250D02*
D03*
D26*
X161210Y288000D02*
D03*
X181750D02*
D03*
X181750Y312250D02*
D03*
X161210D02*
D03*
X657040Y641820D02*
D03*
X636500D02*
D03*
X113480Y266500D02*
D03*
X134020D02*
D03*
X317890Y558540D02*
D03*
X338430D02*
D03*
X528450Y663550D02*
D03*
X548990D02*
D03*
X548770Y687500D02*
D03*
X528230D02*
D03*
X657040Y619570D02*
D03*
X636500D02*
D03*
X866010Y799750D02*
D03*
X886550D02*
D03*
D27*
X343330Y642640D02*
D03*
X330630D02*
D03*
X317930D02*
D03*
X305230D02*
D03*
X343330Y588640D02*
D03*
X330630D02*
D03*
X317930D02*
D03*
X305230D02*
D03*
D28*
X681290Y628320D02*
D03*
Y647820D02*
D03*
X706290Y638070D02*
D03*
D29*
X632900Y676704D02*
D03*
X613400Y686204D02*
D03*
Y667204D02*
D03*
D30*
X867300Y761650D02*
D03*
X824300D02*
D03*
D31*
X846830Y799750D02*
D03*
X816830D02*
D03*
D58*
X74250Y404950D02*
Y593750D01*
X94750Y614250D01*
Y679250D01*
X74250Y404950D02*
X97300Y381900D01*
X42000Y639400D02*
X69250Y666650D01*
X42000Y411800D02*
Y639400D01*
Y411800D02*
X97300Y356500D01*
X72990Y265720D02*
X73250Y265980D01*
X48625Y266625D02*
X72605D01*
X73230Y266000D01*
X48000Y267250D02*
X48625Y266625D01*
X72990Y251240D02*
Y265720D01*
X72750Y251000D02*
X72990Y251240D01*
X47750Y267750D02*
X47875Y267625D01*
X69250Y704750D02*
X94750Y679250D01*
X164230Y97750D02*
X164365Y97885D01*
Y112615D02*
X164500Y112750D01*
X164365Y97885D02*
Y112615D01*
X318870Y686670D02*
Y696650D01*
X323930Y701710D01*
X654150Y686990D02*
X654900D01*
X644170Y696970D02*
X654150Y686990D01*
X804000Y762000D02*
X819850D01*
X775520Y651590D02*
Y665730D01*
X775500Y665750D02*
X775520Y665730D01*
Y651590D02*
X775540Y651570D01*
X145125Y222875D02*
X159125D01*
X159750Y222250D01*
X145000Y223000D02*
X145125Y222875D01*
X59845Y195345D02*
X73175D01*
X73250Y195420D01*
X59750Y195250D02*
X59845Y195345D01*
X148500Y288000D02*
X161210D01*
X161960Y287250D01*
X440390Y680330D02*
X463520D01*
X439890Y680830D02*
X440390Y680330D01*
X463520D02*
X464020Y679830D01*
X439890Y680830D02*
X440000Y680940D01*
X133260Y242530D02*
X133500Y242770D01*
X464020Y679830D02*
X477000D01*
X549030Y621530D02*
Y636490D01*
X599790Y686320D02*
X599906Y686204D01*
X73480Y219000D02*
Y219750D01*
X61500Y231730D02*
X73480Y219750D01*
X617150Y359050D02*
X617300Y359200D01*
X617000Y342250D02*
X617150Y342400D01*
Y359050D01*
X708790Y346040D02*
Y363250D01*
Y387750D02*
Y403210D01*
X149000Y265750D02*
X162710D01*
X24250Y346540D02*
X26000D01*
X27250Y347790D01*
X29460Y267250D02*
Y268000D01*
X305180Y625790D02*
X305205Y625815D01*
X274135Y603745D02*
X274180Y603790D01*
X161960Y266500D02*
Y287250D01*
Y266500D02*
X162710Y265750D01*
X133250Y227250D02*
X133260Y227260D01*
Y242530D01*
X114865Y219000D02*
Y242865D01*
X92020Y219000D02*
X114865D01*
X114730Y243000D02*
X114865Y242865D01*
X181250Y335500D02*
Y351750D01*
X27250Y347790D02*
X27260Y347780D01*
X51740D02*
X51750Y347770D01*
X184480Y222500D02*
X201000D01*
X122593Y305593D02*
X122700Y305700D01*
X819850Y762000D02*
X820650Y761200D01*
X846830Y799750D02*
X866010D01*
D59*
X338430Y558540D02*
X726571D01*
X729500Y561469D02*
Y665850D01*
X726571Y558540D02*
X729500Y561469D01*
X623180Y619570D02*
X636500D01*
X622500Y619979D02*
X622771D01*
X623180Y619570D01*
X729500Y665850D02*
X731100Y667450D01*
X856320Y665070D02*
X866750Y675500D01*
Y729758D01*
X816540Y665070D02*
X856320D01*
X677750Y745249D02*
Y770000D01*
Y745249D02*
X681570Y741429D01*
Y687990D02*
Y741429D01*
X268125Y687235D02*
X290930D01*
X292680Y687060D02*
X304500Y698880D01*
Y706000D01*
X290930Y687060D02*
X292680D01*
X868300Y761650D02*
X877300Y770650D01*
Y771650D01*
X886550Y780900D02*
Y799750D01*
X867300Y761650D02*
X868300D01*
X877300Y771650D02*
X886550Y780900D01*
X867300Y730308D02*
Y761650D01*
X866750Y729758D02*
X867300Y730308D01*
X599906Y686204D02*
X613400D01*
X134020Y264750D02*
Y266500D01*
X156250Y245290D02*
X160250Y241290D01*
X160480Y241520D02*
X184000D01*
X156480Y245290D02*
X160250Y241520D01*
X305205Y625815D02*
Y642615D01*
X274090Y589830D02*
Y603700D01*
X182770Y68880D02*
X183150Y68500D01*
X183000Y35750D02*
X183150Y35900D01*
X274090Y636820D02*
X274105Y636805D01*
X287165D02*
X287180Y636790D01*
X274105Y636805D02*
X287165D01*
X705700Y667560D02*
X705995Y667265D01*
Y638365D02*
Y667265D01*
Y638365D02*
X706290Y638070D01*
X681625Y688045D02*
X705645D01*
X681570Y687990D02*
X681625Y688045D01*
X705645D02*
X705700Y688100D01*
X133027Y515980D02*
X151750D01*
X125947Y508900D02*
X133027Y515980D01*
X122700Y508900D02*
X125947D01*
X122700Y534300D02*
X151530D01*
X151750Y534520D01*
X632900Y671379D02*
X635829Y668450D01*
X632900Y671379D02*
Y676704D01*
X635829Y668450D02*
X654900D01*
X681430Y647960D02*
Y667310D01*
X681570Y667450D01*
X681290Y647820D02*
X681430Y647960D01*
X655400Y667950D02*
X681070D01*
X654900Y668450D02*
X655400Y667950D01*
X681070D02*
X681570Y667450D01*
X680290Y628320D02*
X681290D01*
X657040Y619570D02*
X671540D01*
X680290Y628320D01*
X657040Y619570D02*
Y641820D01*
X268070Y687180D02*
X268125Y687235D01*
D60*
X771550Y770000D02*
X799483Y797933D01*
X816830D01*
Y799750D01*
X973750Y24000D02*
X1000000Y50250D01*
X941943Y25568D02*
X943511Y24000D01*
X973750D01*
X1000000Y50250D02*
Y60000D01*
X820650Y761200D02*
X822700Y763250D01*
X690250Y363250D02*
Y387750D01*
X182770Y97750D02*
Y98500D01*
X137600Y331100D02*
X142000Y335500D01*
X162710D01*
X122700Y331100D02*
X137600D01*
X92020Y266250D02*
X113230D01*
D61*
X745780Y686720D02*
X756500Y676000D01*
X731100Y686720D02*
X745780D01*
X756500Y663750D02*
Y676000D01*
D62*
X29460Y268000D02*
Y277460D01*
X34000Y282000D01*
Y287750D01*
D63*
X60000Y780000D02*
D03*
Y60000D02*
D03*
X1000000D02*
D03*
Y790000D02*
D03*
D64*
X433540Y820100D02*
D03*
X122700Y305700D02*
D03*
X190250Y759350D02*
D03*
X498750Y664550D02*
D03*
D65*
X458940Y820100D02*
D03*
X433540Y794700D02*
D03*
X458940D02*
D03*
X433540Y769300D02*
D03*
X458940D02*
D03*
X433540Y743900D02*
D03*
X458940D02*
D03*
X157750Y68500D02*
D03*
X157600Y35750D02*
D03*
X97300Y534300D02*
D03*
X122700D02*
D03*
X97300Y508900D02*
D03*
X122700D02*
D03*
X97300Y483500D02*
D03*
X122700D02*
D03*
X97300Y458100D02*
D03*
X122700D02*
D03*
X97300Y432700D02*
D03*
X122700D02*
D03*
X97300Y407300D02*
D03*
X122700D02*
D03*
X97300Y381900D02*
D03*
X122700D02*
D03*
X97300Y356500D02*
D03*
X122700D02*
D03*
X97300Y331100D02*
D03*
X122700D02*
D03*
X97300Y305700D02*
D03*
X190250Y784750D02*
D03*
Y810150D02*
D03*
X916543Y25568D02*
D03*
X498750Y689950D02*
D03*
D66*
X677750Y770000D02*
D03*
X69250Y666650D02*
D03*
Y704750D02*
D03*
X352850Y770000D02*
D03*
X314750D02*
D03*
X771550D02*
D03*
D67*
X639650D02*
D03*
X276650D02*
D03*
X733450D02*
D03*
D68*
X69250Y628550D02*
D03*
D69*
X258500Y97693D02*
D03*
Y247593D02*
D03*
D70*
X530300Y97693D02*
D03*
Y247593D02*
D03*
D71*
Y172643D02*
D03*
D72*
X183150Y68500D02*
D03*
X183000Y35750D02*
D03*
X941943Y25568D02*
D03*
D73*
X530000Y360000D02*
D03*
Y600000D02*
D03*
D74*
X510000Y360000D02*
D03*
X490000D02*
D03*
X470000D02*
D03*
X450000D02*
D03*
X430000D02*
D03*
X410000D02*
D03*
X390000D02*
D03*
Y600000D02*
D03*
X410000D02*
D03*
X430000D02*
D03*
X450000D02*
D03*
X470000D02*
D03*
X490000D02*
D03*
X510000D02*
D03*
D75*
X642700Y410000D02*
D03*
Y384600D02*
D03*
Y435400D02*
D03*
X617300Y410000D02*
D03*
Y384600D02*
D03*
Y435400D02*
D03*
X642700Y460800D02*
D03*
X617300Y359200D02*
D03*
Y460800D02*
D03*
D76*
X642800Y358950D02*
D03*
D77*
X390000Y532000D02*
D03*
X338000Y544000D02*
D03*
Y483000D02*
D03*
X410000Y498000D02*
D03*
X509000Y459000D02*
D03*
X530000Y432000D02*
D03*
X72750Y251000D02*
D03*
X622500Y619979D02*
D03*
X246250Y768750D02*
D03*
X357680Y687290D02*
D03*
X164500Y112750D02*
D03*
X323930Y701710D02*
D03*
X244680Y654790D02*
D03*
X644150Y696970D02*
D03*
X804000Y762000D02*
D03*
X775540Y651570D02*
D03*
X145000Y223000D02*
D03*
X59750Y195250D02*
D03*
X148500Y288000D02*
D03*
X477000Y679830D02*
D03*
X549030Y621530D02*
D03*
X599790Y686320D02*
D03*
X61500Y231730D02*
D03*
X617000Y342250D02*
D03*
X708790Y346040D02*
D03*
Y403210D02*
D03*
X149000Y265750D02*
D03*
X305180Y625790D02*
D03*
X274180Y603790D02*
D03*
X133250Y227250D02*
D03*
X181250Y351750D02*
D03*
X201000Y222500D02*
D03*
X287180Y636790D02*
D03*
X357930Y626540D02*
D03*
X449250Y420250D02*
D03*
X470500Y446250D02*
D03*
X429250Y471250D02*
D03*
X287450Y569920D02*
D03*
X317930Y627070D02*
D03*
X379500Y809750D02*
D03*
D78*
X304500Y706000D02*
D03*
D79*
X426750Y692500D02*
D03*
X620290Y641320D02*
D03*
M02*
