G04*
G04 #@! TF.GenerationSoftware,Altium Limited,Altium Designer,21.4.1 (30)*
G04*
G04 Layer_Color=32896*
%FSLAX44Y44*%
%MOMM*%
G71*
G04*
G04 #@! TF.SameCoordinates,C757E9F2-7087-4A76-99C7-233D7C25EA9E*
G04*
G04*
G04 #@! TF.FilePolarity,Positive*
G04*
G01*
G75*
%ADD10C,0.2000*%
%ADD19C,0.2540*%
D10*
X94000Y780000D02*
G03*
X94000Y780000I-34000J0D01*
G01*
Y60000D02*
G03*
X94000Y60000I-34000J0D01*
G01*
X1034000D02*
G03*
X1034000Y60000I-34000J0D01*
G01*
Y790000D02*
G03*
X1034000Y790000I-34000J0D01*
G01*
X83750Y546750D02*
X83750Y293250D01*
X83750Y546750D02*
X136250D01*
X83750Y293250D02*
X136250D01*
Y546750D01*
X604700Y345300D02*
Y474800D01*
Y345300D02*
X655200D01*
X604700Y474800D02*
X655200D01*
Y345300D02*
Y474800D01*
D19*
X641629Y494330D02*
X644168Y496870D01*
X649246D01*
X651786Y494330D01*
Y484174D01*
X649246Y481635D01*
X644168D01*
X641629Y484174D01*
X636550Y481635D02*
Y496870D01*
X626394Y481635D01*
Y496870D01*
X621315Y494330D02*
X618776Y496870D01*
X613698D01*
X611159Y494330D01*
Y491791D01*
X613698Y489252D01*
X611159Y486713D01*
Y484174D01*
X613698Y481635D01*
X618776D01*
X621315Y484174D01*
Y486713D01*
X618776Y489252D01*
X621315Y491791D01*
Y494330D01*
X618776Y489252D02*
X613698D01*
M02*
