G04*
G04 #@! TF.GenerationSoftware,Altium Limited,Altium Designer,21.4.1 (30)*
G04*
G04 Layer_Color=65535*
%FSLAX44Y44*%
%MOMM*%
G71*
G04*
G04 #@! TF.SameCoordinates,C757E9F2-7087-4A76-99C7-233D7C25EA9E*
G04*
G04*
G04 #@! TF.FilePolarity,Positive*
G04*
G01*
G75*
%ADD10C,0.2000*%
%ADD11C,0.1000*%
%ADD12C,0.2500*%
%ADD13C,0.4000*%
%ADD14C,0.0500*%
%ADD15C,0.1500*%
%ADD16C,0.1524*%
%ADD17C,0.1270*%
%ADD18C,0.3000*%
%ADD19C,0.2540*%
G36*
X1031412Y736997D02*
X1031774D01*
Y736635D01*
X1032135D01*
Y736273D01*
X1032497D01*
Y735912D01*
X1033220D01*
Y735550D01*
X1033581D01*
Y735189D01*
X1033943D01*
Y734827D01*
X1034305D01*
Y734466D01*
X1035028D01*
Y734104D01*
X1035389D01*
Y733743D01*
X1035751D01*
Y733381D01*
X1036112D01*
Y733020D01*
X1036835D01*
Y732658D01*
X1037197D01*
Y732297D01*
X1037559D01*
Y731935D01*
X1037920D01*
Y731573D01*
X1038643D01*
Y731212D01*
X1039005D01*
Y730850D01*
X1039366D01*
Y730489D01*
X1040089D01*
Y730127D01*
X1040451D01*
Y729766D01*
X1040813D01*
Y729404D01*
X1041174D01*
Y729043D01*
X1041897D01*
Y728681D01*
X1042259D01*
Y728319D01*
X1042620D01*
Y727958D01*
X1042982D01*
Y727596D01*
X1043705D01*
Y727235D01*
X1044066D01*
Y726873D01*
X1044428D01*
Y726512D01*
X1044790D01*
Y726150D01*
X1045513D01*
Y725789D01*
X1045874D01*
Y725427D01*
X1046236D01*
Y725066D01*
X1046597D01*
Y680234D01*
X1023097D01*
Y714942D01*
X1022735D01*
Y715665D01*
X1022374D01*
Y716027D01*
X1022012D01*
Y716388D01*
X1021651D01*
Y716750D01*
X1015504D01*
Y716388D01*
X1015143D01*
Y716027D01*
X1014781D01*
Y715665D01*
X1014420D01*
Y715304D01*
X1014058D01*
Y679872D01*
X1013697D01*
Y680234D01*
X990558D01*
Y714942D01*
X990196D01*
Y715304D01*
X989835D01*
Y716027D01*
X989473D01*
Y716388D01*
X988750D01*
Y716750D01*
X982604D01*
Y716388D01*
X982242D01*
Y716027D01*
X981881D01*
Y715665D01*
X981519D01*
Y715304D01*
X981158D01*
Y690357D01*
X965249D01*
Y691080D01*
X964888D01*
Y691803D01*
X964526D01*
Y692888D01*
X964165D01*
Y693611D01*
X963803D01*
Y694334D01*
X963442D01*
Y695419D01*
X963080D01*
Y696142D01*
X962719D01*
Y696865D01*
X962357D01*
Y697950D01*
X961996D01*
Y698673D01*
X961634D01*
Y699757D01*
X961273D01*
Y700480D01*
X960911D01*
Y701204D01*
X960549D01*
Y702288D01*
X960188D01*
Y703011D01*
X959826D01*
Y703734D01*
X959465D01*
Y704819D01*
X959103D01*
Y705542D01*
X958742D01*
Y706265D01*
X958380D01*
Y707350D01*
X958019D01*
Y714581D01*
X957657D01*
Y714942D01*
X957296D01*
Y715304D01*
X956934D01*
Y715665D01*
X956572D01*
Y716027D01*
X956211D01*
Y716388D01*
X955849D01*
Y716750D01*
X932710D01*
Y716388D01*
X932349D01*
Y716027D01*
X931987D01*
Y715304D01*
X931626D01*
Y714942D01*
X931264D01*
Y714581D01*
X930903D01*
Y707711D01*
X948618D01*
Y707350D01*
X948980D01*
Y706265D01*
X949342D01*
Y705181D01*
X949703D01*
Y704457D01*
X950065D01*
Y703373D01*
X950426D01*
Y702288D01*
X950788D01*
Y701565D01*
X951149D01*
Y700480D01*
X951511D01*
Y699757D01*
X951872D01*
Y698673D01*
X952234D01*
Y697588D01*
X952595D01*
Y696865D01*
X952957D01*
Y695780D01*
X953318D01*
Y695057D01*
X953680D01*
Y693973D01*
X954042D01*
Y693250D01*
X954403D01*
Y692165D01*
X954765D01*
Y691080D01*
X955126D01*
Y690357D01*
X955488D01*
Y689273D01*
X955849D01*
Y688549D01*
X956211D01*
Y681319D01*
X955849D01*
Y680957D01*
X931264D01*
Y659626D01*
X903064D01*
Y729404D01*
X903425D01*
Y729766D01*
X903787D01*
Y730127D01*
X904148D01*
Y730489D01*
X904510D01*
Y730850D01*
X904871D01*
Y731212D01*
X905233D01*
Y731935D01*
X905594D01*
Y732297D01*
X905956D01*
Y732658D01*
X906318D01*
Y733020D01*
X906679D01*
Y733381D01*
X907041D01*
Y733743D01*
X907402D01*
Y734466D01*
X907764D01*
Y734827D01*
X908125D01*
Y735189D01*
X908487D01*
Y735550D01*
X908848D01*
Y735912D01*
X909210D01*
Y736273D01*
X909572D01*
Y736997D01*
X909933D01*
Y737358D01*
X998512D01*
Y736997D01*
X998873D01*
Y736635D01*
X999235D01*
Y736273D01*
X999596D01*
Y735912D01*
X999958D01*
Y735550D01*
X1000319D01*
Y735189D01*
X1000681D01*
Y734827D01*
X1001042D01*
Y734466D01*
X1001404D01*
Y734104D01*
X1001766D01*
Y733743D01*
X1002489D01*
Y734104D01*
X1002850D01*
Y734466D01*
X1003212D01*
Y734827D01*
X1003573D01*
Y735189D01*
X1003935D01*
Y735550D01*
X1004296D01*
Y735912D01*
X1004658D01*
Y736273D01*
X1005020D01*
Y736635D01*
X1005381D01*
Y736997D01*
X1005743D01*
Y737358D01*
X1031412D01*
Y736997D01*
D02*
G37*
G36*
X226301Y97383D02*
X214129D01*
Y101317D01*
X226301D01*
Y97383D01*
D02*
G37*
G36*
X219300Y241024D02*
X228000D01*
Y237368D01*
X219300D01*
Y228667D01*
X215597D01*
Y237368D01*
X206897D01*
Y241024D01*
X215597D01*
Y249817D01*
X219300D01*
Y241024D01*
D02*
G37*
D10*
X94000Y780000D02*
G03*
X94000Y780000I-34000J0D01*
G01*
Y60000D02*
G03*
X94000Y60000I-34000J0D01*
G01*
X1034000D02*
G03*
X1034000Y60000I-34000J0D01*
G01*
Y790000D02*
G03*
X1034000Y790000I-34000J0D01*
G01*
X46890Y292290D02*
Y297290D01*
X29230Y292250D02*
Y297250D01*
X419570Y729930D02*
X472910D01*
X419570Y834070D02*
X472910D01*
Y729930D02*
Y834070D01*
X419570Y729930D02*
Y834070D01*
X419740Y834000D02*
X419990D01*
X417990Y835750D02*
X419740Y834000D01*
X686685Y806000D02*
Y811000D01*
X668905Y806000D02*
X686685D01*
X668905D02*
Y811000D01*
X648585Y806000D02*
Y811000D01*
X630805Y806000D02*
X648585D01*
X630805D02*
Y811000D01*
X639712D02*
X677787D01*
X616200D02*
X639712D01*
X677787D02*
X701200D01*
X616200Y741000D02*
X701200D01*
Y811000D01*
X616200Y741000D02*
Y811000D01*
X28250Y609550D02*
Y723750D01*
Y619680D02*
X33250D01*
Y637460D01*
X28250D02*
X33250D01*
X28250Y657780D02*
X33250D01*
Y675560D01*
X28250D02*
X33250D01*
X28250Y695880D02*
X33250D01*
Y713660D01*
X28250D02*
X33250D01*
X98250Y609550D02*
Y723750D01*
X28250D02*
X98250D01*
X28880Y609550D02*
X98250D01*
X232600Y6643D02*
Y337243D01*
Y6643D02*
X827701D01*
X232600Y337243D02*
X827701D01*
Y6643D02*
Y337243D01*
X143780Y54530D02*
Y82470D01*
X197120D01*
Y54530D02*
Y82470D01*
X143780Y54530D02*
X197120D01*
X143630Y21780D02*
Y49720D01*
X196970D01*
Y21780D02*
Y49720D01*
X143630Y21780D02*
X196970D01*
X204220Y745380D02*
Y824120D01*
X176280D02*
X204220D01*
X176280Y745380D02*
Y824120D01*
Y745380D02*
X204220D01*
X257650Y741000D02*
Y810370D01*
X371850Y741000D02*
Y811000D01*
X257650Y741000D02*
X371850D01*
X361760Y806000D02*
Y811000D01*
X343980Y806000D02*
X361760D01*
X343980D02*
Y811000D01*
X323660Y806000D02*
Y811000D01*
X305880Y806000D02*
X323660D01*
X305880D02*
Y811000D01*
X285560Y806000D02*
Y811000D01*
X267780Y806000D02*
X285560D01*
X267780D02*
Y811000D01*
X257650D02*
X371850D01*
X378500Y370000D02*
X541500Y370000D01*
X378500Y350000D02*
Y370000D01*
Y350000D02*
X541500D01*
Y370000D01*
Y590000D02*
Y610000D01*
X378500Y590000D02*
X541500D01*
X378500D02*
Y610000D01*
X541500Y610000D01*
X902573Y11598D02*
X955913D01*
Y39538D01*
X902573D02*
X955913D01*
X902573Y11598D02*
Y39538D01*
X484780Y650580D02*
Y703920D01*
Y650580D02*
X512720D01*
Y703920D01*
X484780D02*
X512720D01*
X780485Y806000D02*
Y811000D01*
X762705Y806000D02*
X780485D01*
X762705D02*
Y811000D01*
X742385Y806000D02*
Y811000D01*
X724605Y806000D02*
X742385D01*
X724605D02*
Y811000D01*
X733512D02*
X771588D01*
X710000D02*
X733512D01*
X771588D02*
X795000D01*
X710000Y741000D02*
X795000D01*
Y811000D01*
X710000Y741000D02*
Y811000D01*
X299280Y631640D02*
X349280D01*
X299280Y599640D02*
X349280D01*
Y631640D01*
X299280Y599640D02*
Y631640D01*
X817800Y781650D02*
X873800D01*
X817800Y741650D02*
X873800D01*
X817800Y776650D02*
Y781650D01*
X873800Y776650D02*
Y781650D01*
X817800Y741650D02*
Y746650D01*
X873800Y741650D02*
Y746650D01*
X866800Y776650D02*
Y781650D01*
Y741650D02*
Y746650D01*
X559654Y763875D02*
Y781125D01*
X527154D02*
X559654D01*
X527154Y763875D02*
X559654D01*
X559904Y815125D02*
Y832375D01*
X527404D02*
X559904D01*
X527404Y815125D02*
X559904D01*
X527404D02*
Y832375D01*
X527154Y763875D02*
Y781125D01*
X514500Y737750D02*
Y755000D01*
X482000D02*
X514500D01*
X482000Y737750D02*
Y755000D01*
Y737750D02*
X514500D01*
X495834Y644498D02*
X492502D01*
X494168D01*
Y636168D01*
X492502Y634502D01*
X490835D01*
X489169Y636168D01*
X505831Y644498D02*
X499166D01*
Y639500D01*
X502498Y641166D01*
X504165D01*
X505831Y639500D01*
Y636168D01*
X504165Y634502D01*
X500832D01*
X499166Y636168D01*
X70335Y288332D02*
X68669Y289998D01*
X65337D01*
X63671Y288332D01*
Y281668D01*
X65337Y280002D01*
X68669D01*
X70335Y281668D01*
X80332Y280002D02*
X73668D01*
X80332Y286666D01*
Y288332D01*
X78666Y289998D01*
X75334D01*
X73668Y288332D01*
X83665D02*
X85331Y289998D01*
X88663D01*
X90329Y288332D01*
Y281668D01*
X88663Y280002D01*
X85331D01*
X83665Y281668D01*
Y288332D01*
X648208Y711152D02*
X646542Y712818D01*
X643210D01*
X641544Y711152D01*
Y704488D01*
X643210Y702822D01*
X646542D01*
X648208Y704488D01*
X651541Y702822D02*
X654873D01*
X653207D01*
Y712818D01*
X651541Y711152D01*
X666536Y712818D02*
X663204Y711152D01*
X659872Y707820D01*
Y704488D01*
X661538Y702822D01*
X664870D01*
X666536Y704488D01*
Y706154D01*
X664870Y707820D01*
X659872D01*
X105585Y280002D02*
Y289998D01*
X110584D01*
X112250Y288332D01*
Y285000D01*
X110584Y283334D01*
X105585D01*
X108918D02*
X112250Y280002D01*
X115582D02*
X118914D01*
X117248D01*
Y289998D01*
X115582Y288332D01*
X725874Y624738D02*
Y631402D01*
X724208Y633068D01*
X720875D01*
X719209Y631402D01*
Y624738D01*
X720875Y623072D01*
X724208D01*
X722542Y626404D02*
X725874Y623072D01*
X724208D02*
X725874Y624738D01*
X729206Y631402D02*
X730872Y633068D01*
X734204D01*
X735871Y631402D01*
Y629736D01*
X734204Y628070D01*
X732538D01*
X734204D01*
X735871Y626404D01*
Y624738D01*
X734204Y623072D01*
X730872D01*
X729206Y624738D01*
D11*
X42000Y308750D02*
G03*
X42000Y309750I0J500D01*
G01*
D02*
G03*
X42000Y308750I0J-500D01*
G01*
D12*
X353080Y642890D02*
G03*
X353080Y642890I-1250J0D01*
G01*
X760500Y817500D02*
Y829996D01*
X766748D01*
X768831Y827913D01*
Y823748D01*
X766748Y821665D01*
X760500D01*
X772996Y829996D02*
Y817500D01*
X781327D01*
X793822Y827913D02*
X791740Y829996D01*
X787574D01*
X785492Y827913D01*
Y825831D01*
X787574Y823748D01*
X791740D01*
X793822Y821665D01*
Y819583D01*
X791740Y817500D01*
X787574D01*
X785492Y819583D01*
X10837Y619581D02*
X8754Y617498D01*
Y613333D01*
X10837Y611250D01*
X19167D01*
X21250Y613333D01*
Y617498D01*
X19167Y619581D01*
X15002D01*
Y615415D01*
X21250Y623746D02*
X8754D01*
X21250Y632077D01*
X8754D01*
Y636242D02*
X21250D01*
Y642490D01*
X19167Y644573D01*
X10837D01*
X8754Y642490D01*
Y636242D01*
X26500Y597996D02*
Y587583D01*
X28583Y585500D01*
X32748D01*
X34831Y587583D01*
Y597996D01*
X38996Y585500D02*
Y593831D01*
X43161Y597996D01*
X47327Y593831D01*
Y585500D01*
Y591748D01*
X38996D01*
X51492Y585500D02*
Y597996D01*
X57740D01*
X59823Y595913D01*
Y591748D01*
X57740Y589665D01*
X51492D01*
X55657D02*
X59823Y585500D01*
X63988Y597996D02*
X72319D01*
X68153D01*
Y585500D01*
X97310D02*
X88980D01*
X97310Y593831D01*
Y595913D01*
X95228Y597996D01*
X91062D01*
X88980Y595913D01*
X626831Y829996D02*
X618500D01*
Y823748D01*
X622665D01*
X618500D01*
Y817500D01*
X639327Y827913D02*
X637244Y829996D01*
X633079D01*
X630996Y827913D01*
Y825831D01*
X633079Y823748D01*
X637244D01*
X639327Y821665D01*
Y819583D01*
X637244Y817500D01*
X633079D01*
X630996Y819583D01*
X683331Y829996D02*
X675000D01*
Y823748D01*
X679165D01*
X675000D01*
Y817500D01*
X695827Y827913D02*
X693744Y829996D01*
X689579D01*
X687496Y827913D01*
Y825831D01*
X689579Y823748D01*
X693744D01*
X695827Y821665D01*
Y819583D01*
X693744Y817500D01*
X689579D01*
X687496Y819583D01*
X723831Y827913D02*
X721748Y829996D01*
X717583D01*
X715500Y827913D01*
Y819583D01*
X717583Y817500D01*
X721748D01*
X723831Y819583D01*
Y823748D01*
X719665D01*
X727996Y817500D02*
Y829996D01*
X736327Y817500D01*
Y829996D01*
X740492D02*
Y817500D01*
X746740D01*
X748822Y819583D01*
Y827913D01*
X746740Y829996D01*
X740492D01*
X8754Y692250D02*
Y700581D01*
Y696415D01*
X21250D01*
X8754Y704746D02*
X21250Y713077D01*
X8754D02*
X21250Y704746D01*
X389282Y751996D02*
X385116D01*
X387199D01*
Y741583D01*
X385116Y739500D01*
X383033D01*
X380951Y741583D01*
X401777Y739500D02*
X393447D01*
X401777Y747831D01*
Y749913D01*
X399695Y751996D01*
X395530D01*
X393447Y749913D01*
X405943Y751996D02*
Y739500D01*
X412191D01*
X414273Y741583D01*
Y749913D01*
X412191Y751996D01*
X405943D01*
X389282Y777246D02*
X385116D01*
X387199D01*
Y766833D01*
X385116Y764750D01*
X383033D01*
X380951Y766833D01*
X401777Y764750D02*
X393447D01*
X401777Y773081D01*
Y775163D01*
X399695Y777246D01*
X395530D01*
X393447Y775163D01*
X414273D02*
X412191Y777246D01*
X408025D01*
X405943Y775163D01*
Y766833D01*
X408025Y764750D01*
X412191D01*
X414273Y766833D01*
X389282Y803956D02*
X385116D01*
X387199D01*
Y793542D01*
X385116Y791460D01*
X383033D01*
X380951Y793542D01*
X401777Y791460D02*
X393447D01*
X401777Y799790D01*
Y801873D01*
X399695Y803956D01*
X395530D01*
X393447Y801873D01*
X405943Y803956D02*
Y791460D01*
X412191D01*
X414273Y793542D01*
Y795625D01*
X412191Y797708D01*
X405943D01*
X412191D01*
X414273Y799790D01*
Y801873D01*
X412191Y803956D01*
X405943D01*
X389282Y827956D02*
X385116D01*
X387199D01*
Y817542D01*
X385116Y815460D01*
X383033D01*
X380951Y817542D01*
X401777Y815460D02*
X393447D01*
X401777Y823791D01*
Y825873D01*
X399695Y827956D01*
X395530D01*
X393447Y825873D01*
X405943Y815460D02*
Y823791D01*
X410108Y827956D01*
X414273Y823791D01*
Y815460D01*
Y821708D01*
X405943D01*
X167663Y768250D02*
X169746Y766167D01*
Y762002D01*
X167663Y759919D01*
X165581D01*
X163498Y762002D01*
Y764085D01*
Y762002D01*
X161415Y759919D01*
X159333D01*
X157250Y762002D01*
Y766167D01*
X159333Y768250D01*
X169746Y755754D02*
X161415D01*
X157250Y751589D01*
X161415Y747423D01*
X169746D01*
X168163Y816419D02*
X170246Y818502D01*
Y822667D01*
X168163Y824750D01*
X159833D01*
X157750Y822667D01*
Y818502D01*
X159833Y816419D01*
X163998D01*
Y820585D01*
X157750Y812254D02*
X170246D01*
X157750Y803923D01*
X170246D01*
Y799758D02*
X157750D01*
Y793510D01*
X159833Y791428D01*
X168163D01*
X170246Y793510D01*
Y799758D01*
X80831Y299500D02*
X72500D01*
X80831Y307831D01*
Y309913D01*
X78748Y311996D01*
X74583D01*
X72500Y309913D01*
X78748Y324250D02*
Y336746D01*
X72500Y330498D01*
X80831D01*
Y362496D02*
X76665Y360413D01*
X72500Y356248D01*
Y352083D01*
X74583Y350000D01*
X78748D01*
X80831Y352083D01*
Y354165D01*
X78748Y356248D01*
X72500D01*
X62500Y402750D02*
X66665D01*
X64583D01*
Y415246D01*
X62500Y413163D01*
X72913D02*
X74996Y415246D01*
X79161D01*
X81244Y413163D01*
Y404833D01*
X79161Y402750D01*
X74996D01*
X72913Y404833D01*
Y413163D01*
X62500Y427000D02*
X66665D01*
X64583D01*
Y439496D01*
X62500Y437413D01*
X81244Y427000D02*
X72913D01*
X81244Y435331D01*
Y437413D01*
X79161Y439496D01*
X74996D01*
X72913Y437413D01*
X62500Y478000D02*
X66665D01*
X64583D01*
Y490496D01*
X62500Y488413D01*
X81244Y490496D02*
X77079Y488413D01*
X72913Y484248D01*
Y480083D01*
X74996Y478000D01*
X79161D01*
X81244Y480083D01*
Y482165D01*
X79161Y484248D01*
X72913D01*
X62500Y504500D02*
X66665D01*
X64583D01*
Y516996D01*
X62500Y514913D01*
X72913D02*
X74996Y516996D01*
X79161D01*
X81244Y514913D01*
Y512831D01*
X79161Y510748D01*
X81244Y508665D01*
Y506583D01*
X79161Y504500D01*
X74996D01*
X72913Y506583D01*
Y508665D01*
X74996Y510748D01*
X72913Y512831D01*
Y514913D01*
X74996Y510748D02*
X79161D01*
X68831Y529750D02*
X60500D01*
X68831Y538081D01*
Y540163D01*
X66748Y542246D01*
X62583D01*
X60500Y540163D01*
X72996D02*
X75079Y542246D01*
X79244D01*
X81327Y540163D01*
Y531833D01*
X79244Y529750D01*
X75079D01*
X72996Y531833D01*
Y540163D01*
X62500Y452750D02*
X66665D01*
X64583D01*
Y465246D01*
X62500Y463163D01*
X79161Y452750D02*
Y465246D01*
X72913Y458998D01*
X81244D01*
X72500Y389663D02*
X74583Y391746D01*
X78748D01*
X80831Y389663D01*
Y387581D01*
X78748Y385498D01*
X80831Y383415D01*
Y381333D01*
X78748Y379250D01*
X74583D01*
X72500Y381333D01*
Y383415D01*
X74583Y385498D01*
X72500Y387581D01*
Y389663D01*
X74583Y385498D02*
X78748D01*
X21250Y657500D02*
X8754D01*
Y663748D01*
X10837Y665831D01*
X15002D01*
X17085Y663748D01*
Y657500D01*
Y661665D02*
X21250Y665831D01*
X8754Y669996D02*
X21250Y678327D01*
X8754D02*
X21250Y669996D01*
X349000Y827913D02*
X351083Y829996D01*
X355248D01*
X357331Y827913D01*
Y825831D01*
X355248Y823748D01*
X353165D01*
X355248D01*
X357331Y821665D01*
Y819583D01*
X355248Y817500D01*
X351083D01*
X349000Y819583D01*
X318581Y817500D02*
X310250D01*
X318581Y825831D01*
Y827913D01*
X316498Y829996D01*
X312333D01*
X310250Y827913D01*
X274000Y817500D02*
X278165D01*
X276083D01*
Y829996D01*
X274000Y827913D01*
X484500Y715000D02*
Y727496D01*
X490748D01*
X492831Y725413D01*
Y721248D01*
X490748Y719165D01*
X484500D01*
X496996Y727496D02*
Y717083D01*
X499079Y715000D01*
X503244D01*
X505327Y717083D01*
Y727496D01*
X534484Y715000D02*
Y727496D01*
X540732D01*
X542814Y725413D01*
Y721248D01*
X540732Y719165D01*
X534484D01*
X538649D02*
X542814Y715000D01*
X555310Y725413D02*
X553228Y727496D01*
X549062D01*
X546980Y725413D01*
Y723331D01*
X549062Y721248D01*
X553228D01*
X555310Y719165D01*
Y717083D01*
X553228Y715000D01*
X549062D01*
X546980Y717083D01*
X46002Y381663D02*
X58498D01*
Y375415D01*
X56415Y373333D01*
X52250D01*
X50167Y375415D01*
Y381663D01*
Y377498D02*
X46002Y373333D01*
Y362919D02*
X58498D01*
X52250Y369167D01*
Y360837D01*
X20502Y382163D02*
X32998D01*
Y375915D01*
X30915Y373833D01*
X26750D01*
X24667Y375915D01*
Y382163D01*
Y377998D02*
X20502Y373833D01*
X30915Y369667D02*
X32998Y367585D01*
Y363419D01*
X30915Y361337D01*
X28833D01*
X26750Y363419D01*
Y365502D01*
Y363419D01*
X24667Y361337D01*
X22585D01*
X20502Y363419D01*
Y367585D01*
X22585Y369667D01*
X362502Y735913D02*
X374998D01*
Y729665D01*
X372915Y727583D01*
X368750D01*
X366667Y729665D01*
Y735913D01*
X362502Y717169D02*
X374998D01*
X368750Y723417D01*
Y715087D01*
X594921Y636322D02*
Y648818D01*
X601169D01*
X603252Y646735D01*
Y642570D01*
X601169Y640487D01*
X594921D01*
X599087D02*
X603252Y636322D01*
X607417Y646735D02*
X609500Y648818D01*
X613665D01*
X615748Y646735D01*
Y644653D01*
X613665Y642570D01*
X611583D01*
X613665D01*
X615748Y640487D01*
Y638405D01*
X613665Y636322D01*
X609500D01*
X607417Y638405D01*
X619913Y636322D02*
X624079D01*
X621996D01*
Y648818D01*
X619913Y646735D01*
X512252Y582415D02*
X510169Y584498D01*
X506004D01*
X503921Y582415D01*
Y574085D01*
X506004Y572002D01*
X510169D01*
X512252Y574085D01*
X516417Y572002D02*
Y584498D01*
X524748Y572002D01*
Y584498D01*
X528913Y572002D02*
X533079D01*
X530996D01*
Y584498D01*
X528913Y582415D01*
X218517Y589538D02*
Y577042D01*
X224765D01*
X226847Y579125D01*
Y587455D01*
X224765Y589538D01*
X218517D01*
X231013Y587455D02*
X233095Y589538D01*
X237261D01*
X239343Y587455D01*
Y585373D01*
X237261Y583290D01*
X235178D01*
X237261D01*
X239343Y581207D01*
Y579125D01*
X237261Y577042D01*
X233095D01*
X231013Y579125D01*
X278349Y614288D02*
Y603875D01*
X280432Y601792D01*
X284597D01*
X286680Y603875D01*
Y614288D01*
X290845Y601792D02*
X295011D01*
X292928D01*
Y614288D01*
X290845Y612205D01*
X273880Y547862D02*
Y560358D01*
X280128D01*
X282211Y558275D01*
Y554110D01*
X280128Y552027D01*
X273880D01*
X278045D02*
X282211Y547862D01*
X286376D02*
X290541D01*
X288459D01*
Y560358D01*
X286376Y558275D01*
X305120Y547862D02*
X296789D01*
X305120Y556193D01*
Y558275D01*
X303037Y560358D01*
X298872D01*
X296789Y558275D01*
X561337Y656752D02*
Y669248D01*
X567585D01*
X569667Y667165D01*
Y663000D01*
X567585Y660917D01*
X561337D01*
X565502D02*
X569667Y656752D01*
X573833Y667165D02*
X575915Y669248D01*
X580081D01*
X582163Y667165D01*
Y665083D01*
X580081Y663000D01*
X582163Y660917D01*
Y658835D01*
X580081Y656752D01*
X575915D01*
X573833Y658835D01*
Y660917D01*
X575915Y663000D01*
X573833Y665083D01*
Y667165D01*
X575915Y663000D02*
X580081D01*
X561587Y681752D02*
Y694248D01*
X567835D01*
X569917Y692165D01*
Y688000D01*
X567835Y685917D01*
X561587D01*
X565752D02*
X569917Y681752D01*
X574083Y694248D02*
X582413D01*
Y692165D01*
X574083Y683835D01*
Y681752D01*
X219517Y633538D02*
Y621042D01*
X225765D01*
X227847Y623125D01*
Y631455D01*
X225765Y633538D01*
X219517D01*
X238261Y621042D02*
Y633538D01*
X232013Y627290D01*
X240343D01*
X571667Y639165D02*
X569585Y641248D01*
X565419D01*
X563337Y639165D01*
Y630835D01*
X565419Y628752D01*
X569585D01*
X571667Y630835D01*
X584163Y641248D02*
X579998Y639165D01*
X575833Y635000D01*
Y630835D01*
X577915Y628752D01*
X582081D01*
X584163Y630835D01*
Y632917D01*
X582081Y635000D01*
X575833D01*
X428817Y639415D02*
X426735Y641498D01*
X422569D01*
X420487Y639415D01*
Y631085D01*
X422569Y629002D01*
X426735D01*
X428817Y631085D01*
X441313Y641498D02*
X432983D01*
Y635250D01*
X437148Y637333D01*
X439231D01*
X441313Y635250D01*
Y631085D01*
X439231Y629002D01*
X435065D01*
X432983Y631085D01*
X121167Y69748D02*
X117002D01*
X119085D01*
Y59335D01*
X117002Y57252D01*
X114919D01*
X112837Y59335D01*
X133663Y69748D02*
X129498Y67665D01*
X125333Y63500D01*
Y59335D01*
X127415Y57252D01*
X131581D01*
X133663Y59335D01*
Y61417D01*
X131581Y63500D01*
X125333D01*
X121211Y100165D02*
X119128Y102248D01*
X114963D01*
X112880Y100165D01*
Y91835D01*
X114963Y89752D01*
X119128D01*
X121211Y91835D01*
X125376Y89752D02*
X129541D01*
X127459D01*
Y102248D01*
X125376Y100165D01*
X135789D02*
X137872Y102248D01*
X142037D01*
X144120Y100165D01*
Y98083D01*
X142037Y96000D01*
X139955D01*
X142037D01*
X144120Y93917D01*
Y91835D01*
X142037Y89752D01*
X137872D01*
X135789Y91835D01*
X178211Y539165D02*
X176128Y541248D01*
X171963D01*
X169880Y539165D01*
Y530835D01*
X171963Y528752D01*
X176128D01*
X178211Y530835D01*
X182376Y528752D02*
X186541D01*
X184459D01*
Y541248D01*
X182376Y539165D01*
X192789D02*
X194872Y541248D01*
X199037D01*
X201120Y539165D01*
Y537083D01*
X199037Y535000D01*
X201120Y532917D01*
Y530835D01*
X199037Y528752D01*
X194872D01*
X192789Y530835D01*
Y532917D01*
X194872Y535000D01*
X192789Y537083D01*
Y539165D01*
X194872Y535000D02*
X199037D01*
X505169Y387415D02*
X503087Y389498D01*
X498921D01*
X496839Y387415D01*
Y379085D01*
X498921Y377002D01*
X503087D01*
X505169Y379085D01*
X509335Y377002D02*
Y389498D01*
X517665Y377002D01*
Y389498D01*
X530161Y377002D02*
X521831D01*
X530161Y385333D01*
Y387415D01*
X528079Y389498D01*
X523913D01*
X521831Y387415D01*
X732002Y367665D02*
X729919Y369748D01*
X725754D01*
X723671Y367665D01*
Y359335D01*
X725754Y357252D01*
X729919D01*
X732002Y359335D01*
X744498Y357252D02*
X736167D01*
X744498Y365583D01*
Y367665D01*
X742415Y369748D01*
X738250D01*
X736167Y367665D01*
X748663Y357252D02*
X752829D01*
X750746D01*
Y369748D01*
X748663Y367665D01*
X619587Y722752D02*
Y735248D01*
X625835D01*
X627917Y733165D01*
Y729000D01*
X625835Y726917D01*
X619587D01*
X640413Y722752D02*
X632083D01*
X640413Y731083D01*
Y733165D01*
X638331Y735248D01*
X634165D01*
X632083Y733165D01*
X775419Y723002D02*
Y735498D01*
X781667D01*
X783750Y733415D01*
Y729250D01*
X781667Y727167D01*
X775419D01*
X787915Y723002D02*
X792081D01*
X789998D01*
Y735498D01*
X787915Y733415D01*
X203211Y268915D02*
X201128Y270998D01*
X196963D01*
X194880Y268915D01*
Y260585D01*
X196963Y258502D01*
X201128D01*
X203211Y260585D01*
X207376Y258502D02*
X211541D01*
X209459D01*
Y270998D01*
X207376Y268915D01*
X217789Y270998D02*
X226120D01*
Y268915D01*
X217789Y260585D01*
Y258502D01*
X730961Y392665D02*
X728878Y394748D01*
X724713D01*
X722630Y392665D01*
Y384335D01*
X724713Y382252D01*
X728878D01*
X730961Y384335D01*
X735126Y382252D02*
X739291D01*
X737209D01*
Y394748D01*
X735126Y392665D01*
X753870Y394748D02*
X745539D01*
Y388500D01*
X749705Y390583D01*
X751787D01*
X753870Y388500D01*
Y384335D01*
X751787Y382252D01*
X747622D01*
X745539Y384335D01*
X35961Y221165D02*
X33878Y223248D01*
X29713D01*
X27630Y221165D01*
Y212835D01*
X29713Y210752D01*
X33878D01*
X35961Y212835D01*
X40126Y210752D02*
X44291D01*
X42209D01*
Y223248D01*
X40126Y221165D01*
X56787Y210752D02*
Y223248D01*
X50539Y217000D01*
X58870D01*
X383252Y724120D02*
X395748D01*
Y717872D01*
X393665Y715789D01*
X389500D01*
X387417Y717872D01*
Y724120D01*
Y719955D02*
X383252Y715789D01*
Y711624D02*
Y707459D01*
Y709541D01*
X395748D01*
X393665Y711624D01*
Y701211D02*
X395748Y699128D01*
Y694963D01*
X393665Y692880D01*
X391583D01*
X389500Y694963D01*
Y697045D01*
Y694963D01*
X387417Y692880D01*
X385335D01*
X383252Y694963D01*
Y699128D01*
X385335Y701211D01*
X184750Y737748D02*
X180585D01*
X182667D01*
Y727335D01*
X180585Y725252D01*
X178502D01*
X176419Y727335D01*
X188915Y725252D02*
X193081D01*
X190998D01*
Y737748D01*
X188915Y735665D01*
X912361Y56816D02*
X908195D01*
X910278D01*
Y46402D01*
X908195Y44320D01*
X906113D01*
X904030Y46402D01*
X922774Y44320D02*
Y56816D01*
X916526Y50568D01*
X924857D01*
X711498Y700339D02*
X699002D01*
Y706587D01*
X701085Y708669D01*
X705250D01*
X707333Y706587D01*
Y700339D01*
Y704504D02*
X711498Y708669D01*
Y721165D02*
Y712835D01*
X703167Y721165D01*
X701085D01*
X699002Y719083D01*
Y714917D01*
X701085Y712835D01*
Y725331D02*
X699002Y727413D01*
Y731579D01*
X701085Y733661D01*
X703167D01*
X705250Y731579D01*
X707333Y733661D01*
X709415D01*
X711498Y731579D01*
Y727413D01*
X709415Y725331D01*
X707333D01*
X705250Y727413D01*
X703167Y725331D01*
X701085D01*
X705250Y727413D02*
Y731579D01*
X853089Y816002D02*
Y828498D01*
X859337D01*
X861419Y826415D01*
Y822250D01*
X859337Y820167D01*
X853089D01*
X857254D02*
X861419Y816002D01*
X873915D02*
X865585D01*
X873915Y824333D01*
Y826415D01*
X871833Y828498D01*
X867667D01*
X865585Y826415D01*
X886411Y828498D02*
X882246Y826415D01*
X878081Y822250D01*
Y818085D01*
X880163Y816002D01*
X884329D01*
X886411Y818085D01*
Y820167D01*
X884329Y822250D01*
X878081D01*
X689288Y700659D02*
X676792D01*
Y706907D01*
X678875Y708989D01*
X683040D01*
X685123Y706907D01*
Y700659D01*
Y704824D02*
X689288Y708989D01*
Y721485D02*
Y713155D01*
X680957Y721485D01*
X678875D01*
X676792Y719403D01*
Y715237D01*
X678875Y713155D01*
X687205Y725651D02*
X689288Y727733D01*
Y731899D01*
X687205Y733981D01*
X678875D01*
X676792Y731899D01*
Y727733D01*
X678875Y725651D01*
X680957D01*
X683040Y727733D01*
Y733981D01*
X736788Y700659D02*
X724292D01*
Y706907D01*
X726375Y708989D01*
X730540D01*
X732623Y706907D01*
Y700659D01*
Y704824D02*
X736788Y708989D01*
Y721485D02*
Y713155D01*
X728457Y721485D01*
X726375D01*
X724292Y719403D01*
Y715237D01*
X726375Y713155D01*
X724292Y725651D02*
Y733981D01*
X726375D01*
X734705Y725651D01*
X736788D01*
X630089Y592252D02*
Y604748D01*
X636337D01*
X638419Y602665D01*
Y598500D01*
X636337Y596417D01*
X630089D01*
X634254D02*
X638419Y592252D01*
X642585Y602665D02*
X644667Y604748D01*
X648833D01*
X650915Y602665D01*
Y600583D01*
X648833Y598500D01*
X646750D01*
X648833D01*
X650915Y596417D01*
Y594335D01*
X648833Y592252D01*
X644667D01*
X642585Y594335D01*
X655081Y602665D02*
X657163Y604748D01*
X661329D01*
X663411Y602665D01*
Y594335D01*
X661329Y592252D01*
X657163D01*
X655081Y594335D01*
Y602665D01*
X761207Y632905D02*
Y641235D01*
X759125Y643318D01*
X754959D01*
X752877Y641235D01*
Y632905D01*
X754959Y630822D01*
X759125D01*
X757042Y634987D02*
X761207Y630822D01*
X759125D02*
X761207Y632905D01*
X773703Y630822D02*
X765373D01*
X773703Y639153D01*
Y641235D01*
X771621Y643318D01*
X767455D01*
X765373Y641235D01*
X823750Y829748D02*
X815419D01*
Y823500D01*
X819585D01*
X815419D01*
Y817252D01*
X827915D02*
X832081D01*
X829998D01*
Y829748D01*
X827915Y827665D01*
X855087Y735498D02*
Y723002D01*
X861335D01*
X863417Y725085D01*
Y733415D01*
X861335Y735498D01*
X855087D01*
X867583D02*
X875913D01*
Y733415D01*
X867583Y725085D01*
Y723002D01*
X800127Y642318D02*
Y629822D01*
X806375D01*
X808457Y631905D01*
Y640235D01*
X806375Y642318D01*
X800127D01*
X820953D02*
X816788Y640235D01*
X812623Y636070D01*
Y631905D01*
X814705Y629822D01*
X818871D01*
X820953Y631905D01*
Y633987D01*
X818871Y636070D01*
X812623D01*
X607127Y708568D02*
Y696072D01*
X613375D01*
X615457Y698155D01*
Y706485D01*
X613375Y708568D01*
X607127D01*
X627953D02*
X619623D01*
Y702320D01*
X623788Y704403D01*
X625871D01*
X627953Y702320D01*
Y698155D01*
X625871Y696072D01*
X621705D01*
X619623Y698155D01*
X435252Y724120D02*
X447748D01*
Y717872D01*
X445665Y715789D01*
X441500D01*
X439417Y717872D01*
Y724120D01*
Y719955D02*
X435252Y715789D01*
Y711624D02*
Y707459D01*
Y709541D01*
X447748D01*
X445665Y711624D01*
X447748Y692880D02*
Y701211D01*
X441500D01*
X443583Y697045D01*
Y694963D01*
X441500Y692880D01*
X437335D01*
X435252Y694963D01*
Y699128D01*
X437335Y701211D01*
X408252Y724120D02*
X420748D01*
Y717872D01*
X418665Y715789D01*
X414500D01*
X412417Y717872D01*
Y724120D01*
Y719955D02*
X408252Y715789D01*
Y711624D02*
Y707459D01*
Y709541D01*
X420748D01*
X418665Y711624D01*
X408252Y694963D02*
X420748D01*
X414500Y701211D01*
Y692880D01*
X337122Y726727D02*
X349618D01*
Y720479D01*
X347535Y718397D01*
X343370D01*
X341287Y720479D01*
Y726727D01*
Y722562D02*
X337122Y718397D01*
Y714231D02*
Y710066D01*
Y712149D01*
X349618D01*
X347535Y714231D01*
X337122Y703818D02*
Y699653D01*
Y701735D01*
X349618D01*
X347535Y703818D01*
X284682Y730410D02*
X297178D01*
Y724162D01*
X295095Y722079D01*
X290930D01*
X288847Y724162D01*
Y730410D01*
Y726245D02*
X284682Y722079D01*
Y717914D02*
Y713749D01*
Y715831D01*
X297178D01*
X295095Y717914D01*
Y707501D02*
X297178Y705418D01*
Y701253D01*
X295095Y699170D01*
X286765D01*
X284682Y701253D01*
Y705418D01*
X286765Y707501D01*
X295095D01*
X260872Y721353D02*
X273368D01*
Y715105D01*
X271285Y713023D01*
X267120D01*
X265037Y715105D01*
Y721353D01*
Y717188D02*
X260872Y713023D01*
X262955Y708857D02*
X260872Y706775D01*
Y702609D01*
X262955Y700527D01*
X271285D01*
X273368Y702609D01*
Y706775D01*
X271285Y708857D01*
X269203D01*
X267120Y706775D01*
Y700527D01*
X195987Y281522D02*
Y294018D01*
X202235D01*
X204317Y291935D01*
Y287770D01*
X202235Y285687D01*
X195987D01*
X200152D02*
X204317Y281522D01*
X216813Y294018D02*
X212648Y291935D01*
X208483Y287770D01*
Y283605D01*
X210565Y281522D01*
X214731D01*
X216813Y283605D01*
Y285687D01*
X214731Y287770D01*
X208483D01*
X194797Y306252D02*
Y318748D01*
X201045D01*
X203127Y316665D01*
Y312500D01*
X201045Y310417D01*
X194797D01*
X198962D02*
X203127Y306252D01*
X215623Y318748D02*
X207293D01*
Y312500D01*
X211458Y314583D01*
X213541D01*
X215623Y312500D01*
Y308335D01*
X213541Y306252D01*
X209375D01*
X207293Y308335D01*
X215587Y736748D02*
Y724252D01*
X221835D01*
X223917Y726335D01*
Y734665D01*
X221835Y736748D01*
X215587D01*
X236413Y724252D02*
X228083D01*
X236413Y732583D01*
Y734665D01*
X234331Y736748D01*
X230165D01*
X228083Y734665D01*
X236169Y833498D02*
Y821002D01*
X242417D01*
X244500Y823085D01*
Y831415D01*
X242417Y833498D01*
X236169D01*
X248665Y821002D02*
X252831D01*
X250748D01*
Y833498D01*
X248665Y831415D01*
X120917Y37248D02*
X116752D01*
X118835D01*
Y26835D01*
X116752Y24752D01*
X114669D01*
X112587Y26835D01*
X125083Y35165D02*
X127165Y37248D01*
X131331D01*
X133413Y35165D01*
Y33083D01*
X131331Y31000D01*
X129248D01*
X131331D01*
X133413Y28917D01*
Y26835D01*
X131331Y24752D01*
X127165D01*
X125083Y26835D01*
X203211Y334665D02*
X201128Y336748D01*
X196963D01*
X194880Y334665D01*
Y326335D01*
X196963Y324252D01*
X201128D01*
X203211Y326335D01*
X207376Y324252D02*
X211541D01*
X209459D01*
Y336748D01*
X207376Y334665D01*
X226120Y324252D02*
X217789D01*
X226120Y332583D01*
Y334665D01*
X224037Y336748D01*
X219872D01*
X217789Y334665D01*
X468665Y705833D02*
X470748Y707915D01*
Y712081D01*
X468665Y714163D01*
X460335D01*
X458252Y712081D01*
Y707915D01*
X460335Y705833D01*
X468665Y701667D02*
X470748Y699585D01*
Y695419D01*
X468665Y693337D01*
X466583D01*
X464500Y695419D01*
X462417Y693337D01*
X460335D01*
X458252Y695419D01*
Y699585D01*
X460335Y701667D01*
X462417D01*
X464500Y699585D01*
X466583Y701667D01*
X468665D01*
X464500Y699585D02*
Y695419D01*
X318535Y720023D02*
X320618Y722105D01*
Y726271D01*
X318535Y728353D01*
X310205D01*
X308122Y726271D01*
Y722105D01*
X310205Y720023D01*
X320618Y715857D02*
Y707527D01*
X318535D01*
X310205Y715857D01*
X308122D01*
X87667Y247415D02*
X85585Y249498D01*
X81419D01*
X79337Y247415D01*
Y239085D01*
X81419Y237002D01*
X85585D01*
X87667Y239085D01*
X98081Y237002D02*
Y249498D01*
X91833Y243250D01*
X100163D01*
X38417Y197915D02*
X36335Y199998D01*
X32169D01*
X30087Y197915D01*
Y189585D01*
X32169Y187502D01*
X36335D01*
X38417Y189585D01*
X42583Y197915D02*
X44665Y199998D01*
X48831D01*
X50913Y197915D01*
Y195833D01*
X48831Y193750D01*
X46748D01*
X48831D01*
X50913Y191667D01*
Y189585D01*
X48831Y187502D01*
X44665D01*
X42583Y189585D01*
X183417Y205665D02*
X181335Y207748D01*
X177169D01*
X175087Y205665D01*
Y197335D01*
X177169Y195252D01*
X181335D01*
X183417Y197335D01*
X195913Y195252D02*
X187583D01*
X195913Y203583D01*
Y205665D01*
X193831Y207748D01*
X189665D01*
X187583Y205665D01*
X159000D02*
X156917Y207748D01*
X152752D01*
X150669Y205665D01*
Y197335D01*
X152752Y195252D01*
X156917D01*
X159000Y197335D01*
X163165Y195252D02*
X167331D01*
X165248D01*
Y207748D01*
X163165Y205665D01*
D13*
X537750Y745500D02*
G03*
X537750Y745500I-1346J0D01*
G01*
X552750D02*
G03*
X552750Y745500I-1346J0D01*
G01*
X538000Y798000D02*
G03*
X538000Y798000I-1346J0D01*
G01*
X553000D02*
G03*
X553000Y798000I-1346J0D01*
G01*
X507346Y796625D02*
G03*
X507346Y796625I-1346J0D01*
G01*
Y822875D02*
G03*
X507346Y822875I-1346J0D01*
G01*
X492346Y771625D02*
G03*
X492346Y771625I-1346J0D01*
G01*
X507346D02*
G03*
X507346Y771625I-1346J0D01*
G01*
X492346Y796625D02*
G03*
X492346Y796625I-1346J0D01*
G01*
Y822875D02*
G03*
X492346Y822875I-1346J0D01*
G01*
D14*
X308120Y696650D02*
X329620D01*
X308120Y658150D02*
Y696650D01*
X329620Y658150D02*
Y696650D01*
X308120Y658150D02*
X329620D01*
X720850Y658970D02*
Y696470D01*
Y658970D02*
X741350D01*
X720850Y696470D02*
X741350D01*
Y658970D02*
Y696470D01*
X715950Y659080D02*
Y696580D01*
X695450D02*
X715950D01*
X695450Y659080D02*
X715950D01*
X695450D02*
Y696580D01*
X691820Y658970D02*
Y696470D01*
X671320D02*
X691820D01*
X671320Y658970D02*
X691820D01*
X671320D02*
Y696470D01*
X644150Y658470D02*
X665650D01*
Y696970D01*
X644150Y658470D02*
Y696970D01*
X665650D01*
X154250Y87000D02*
Y108500D01*
Y87000D02*
X192750D01*
X154250Y108500D02*
X192750D01*
Y87000D02*
Y108500D01*
X152730Y324750D02*
Y346250D01*
Y324750D02*
X191230D01*
X152730Y346250D02*
X191230D01*
Y324750D02*
Y346250D01*
X152730Y277750D02*
X190230D01*
Y298250D01*
X152730Y277750D02*
Y298250D01*
X190230D01*
X152730Y322500D02*
X190230D01*
X152730Y302000D02*
Y322500D01*
X190230Y302000D02*
Y322500D01*
X152730Y302000D02*
X190230D01*
X628020Y631570D02*
X665520D01*
Y652070D01*
X628020Y631570D02*
Y652070D01*
X665520D01*
X19480Y256500D02*
Y278000D01*
Y256500D02*
X57980D01*
X19480Y278000D02*
X57980D01*
Y256500D02*
Y278000D01*
X63250Y184690D02*
Y206190D01*
Y184690D02*
X101750D01*
X63250Y206190D02*
X101750D01*
Y184690D02*
Y206190D01*
X143250Y232250D02*
Y253750D01*
X104750D02*
X143250D01*
X104750Y232250D02*
X143250D01*
X104750D02*
Y253750D01*
X63250Y255250D02*
Y276750D01*
Y255250D02*
X101750D01*
X63250Y276750D02*
X101750D01*
Y255250D02*
Y276750D01*
X102000Y208250D02*
Y229750D01*
X63500D02*
X102000D01*
X63500Y208250D02*
X102000D01*
X63500D02*
Y229750D01*
X37500Y318770D02*
Y356270D01*
X17000D02*
X37500D01*
X17000Y318770D02*
X37500D01*
X17000D02*
Y356270D01*
X41500Y318750D02*
Y356250D01*
Y318750D02*
X62000D01*
X41500Y356250D02*
X62000D01*
Y318750D02*
Y356250D01*
X105000Y256250D02*
X142500D01*
Y276750D01*
X105000Y256250D02*
Y276750D01*
X142500D01*
X149500Y212770D02*
X171000D01*
Y251270D01*
X149500Y212770D02*
Y251270D01*
X171000D01*
X173250Y251500D02*
X194750D01*
X173250Y213000D02*
Y251500D01*
X194750Y213000D02*
Y251500D01*
X173250Y213000D02*
X194750D01*
X152730Y255000D02*
Y276500D01*
Y255000D02*
X191230D01*
X152730Y276500D02*
X191230D01*
Y255000D02*
Y276500D01*
X141000Y544500D02*
X162500D01*
X141000Y506000D02*
Y544500D01*
X162500Y506000D02*
Y544500D01*
X141000Y506000D02*
X162500D01*
X278320Y658160D02*
Y695660D01*
X257820D02*
X278320D01*
X257820Y658160D02*
X278320D01*
X257820D02*
Y695660D01*
X301180Y658040D02*
Y695540D01*
X280680D02*
X301180D01*
X280680Y658040D02*
X301180D01*
X280680D02*
Y695540D01*
X309410Y568790D02*
X346910D01*
X309410Y548290D02*
Y568790D01*
X346910Y548290D02*
Y568790D01*
X309410Y548290D02*
X346910D01*
X377230Y625250D02*
Y646750D01*
Y625250D02*
X415730D01*
X377230Y646750D02*
X415730D01*
Y625250D02*
Y646750D01*
X404240Y651810D02*
Y689310D01*
Y651810D02*
X424740D01*
X404240Y689310D02*
X424740D01*
Y651810D02*
Y689310D01*
X399340Y651810D02*
Y689310D01*
X378840D02*
X399340D01*
X378840Y651810D02*
X399340D01*
X378840D02*
Y689310D01*
X429640Y651810D02*
Y689310D01*
Y651810D02*
X450140D01*
X429640Y689310D02*
X450140D01*
Y651810D02*
Y689310D01*
X559010Y625740D02*
Y647240D01*
X520510D02*
X559010D01*
X520510Y625740D02*
X559010D01*
X520510D02*
Y647240D01*
X519970Y653300D02*
X557470D01*
Y673800D01*
X519970Y653300D02*
Y673800D01*
X557470D01*
X453270Y651310D02*
X474770D01*
Y689810D01*
X453270Y651310D02*
Y689810D01*
X474770D01*
X331480Y658270D02*
Y695770D01*
Y658270D02*
X351980D01*
X331480Y695770D02*
X351980D01*
Y658270D02*
Y695770D01*
X519750Y677250D02*
X557250D01*
Y697750D01*
X519750Y677250D02*
Y697750D01*
X557250D01*
X628020Y629820D02*
X665520D01*
X628020Y609320D02*
Y629820D01*
X665520Y609320D02*
Y629820D01*
X628020Y609320D02*
X665520D01*
X680270Y352500D02*
Y374000D01*
Y352500D02*
X718770D01*
X680270Y374000D02*
X718770D01*
Y352500D02*
Y374000D01*
Y377000D02*
Y398500D01*
X680270D02*
X718770D01*
X680270Y377000D02*
X718770D01*
X680270D02*
Y398500D01*
X857530Y810000D02*
X895030D01*
X857530Y789500D02*
Y810000D01*
X895030Y789500D02*
Y810000D01*
X857530Y789500D02*
X895030D01*
D15*
X751500Y674500D02*
Y683250D01*
X758500D01*
X773500D02*
X780500D01*
X702790Y623570D02*
Y630570D01*
X691790Y652570D02*
X702790D01*
Y645570D02*
Y652570D01*
D16*
X780500Y674500D02*
Y683250D01*
X211514Y811816D02*
X220404D01*
X241486Y802926D02*
Y811816D01*
X232596D02*
X241486D01*
X211514Y808260D02*
Y811816D01*
Y802926D02*
Y808260D01*
X241462Y755642D02*
Y760976D01*
Y752086D02*
Y755642D01*
X211490Y752086D02*
X220380D01*
X211490D02*
Y760976D01*
X232572Y752086D02*
X241462D01*
X279576Y577032D02*
Y582366D01*
Y573476D02*
Y577032D01*
X249604Y573476D02*
X258494D01*
X249604D02*
Y582366D01*
X270686Y573476D02*
X279576D01*
Y624022D02*
Y629356D01*
Y620466D02*
Y624022D01*
X249604Y620466D02*
X258494D01*
X249604D02*
Y629356D01*
X270686Y620466D02*
X279576D01*
X691790Y623570D02*
X702790D01*
X620864Y691690D02*
X626198D01*
X629754D01*
Y661718D02*
Y670608D01*
X620864Y661718D02*
X629754D01*
Y682800D02*
Y691690D01*
X792054Y681424D02*
X800944D01*
X822026Y672534D02*
Y681424D01*
X813136D02*
X822026D01*
X792054Y677868D02*
Y681424D01*
Y672534D02*
Y677868D01*
D17*
X821670Y787050D02*
X841990D01*
X821670Y812450D02*
X841990D01*
D18*
X876997Y651133D02*
X867000D01*
Y643636D01*
X871998D01*
X867000D01*
Y636138D01*
X881995D02*
Y651133D01*
X886993Y646135D01*
X891992Y651133D01*
Y636138D01*
X906987Y648634D02*
X904488Y651133D01*
X899490D01*
X896990Y648634D01*
Y638638D01*
X899490Y636138D01*
X904488D01*
X906987Y638638D01*
X911985Y643636D02*
X921982D01*
X926981Y648634D02*
X929480Y651133D01*
X934478D01*
X936977Y648634D01*
Y646135D01*
X934478Y643636D01*
X931979D01*
X934478D01*
X936977Y641137D01*
Y638638D01*
X934478Y636138D01*
X929480D01*
X926981Y638638D01*
X951973Y636138D02*
X941976D01*
X951973Y646135D01*
Y648634D01*
X949473Y651133D01*
X944475D01*
X941976Y648634D01*
X956971D02*
X959470Y651133D01*
X964468D01*
X966968Y648634D01*
Y638638D01*
X964468Y636138D01*
X959470D01*
X956971Y638638D01*
Y648634D01*
X971966Y651133D02*
Y638638D01*
X974465Y636138D01*
X979464D01*
X981963Y638638D01*
Y651133D01*
X986961Y643636D02*
X996958D01*
X1001956Y636138D02*
Y646135D01*
X1006955Y651133D01*
X1011953Y646135D01*
Y636138D01*
Y643636D01*
X1001956D01*
X1026948Y636138D02*
X1016951D01*
X1026948Y646135D01*
Y648634D01*
X1024449Y651133D01*
X1019451D01*
X1016951Y648634D01*
X867000Y625939D02*
Y615942D01*
X871998Y610944D01*
X876997Y615942D01*
Y625939D01*
X881995Y610944D02*
X886993D01*
X884494D01*
Y625939D01*
X881995Y623440D01*
X894491Y610944D02*
Y625939D01*
X901989D01*
X904488Y623440D01*
Y618442D01*
X901989Y615942D01*
X894491D01*
X899490D02*
X904488Y610944D01*
X919483D02*
X909486D01*
X919483Y620941D01*
Y623440D01*
X916984Y625939D01*
X911985D01*
X909486Y623440D01*
X924481Y610944D02*
Y625939D01*
X931979D01*
X934478Y623440D01*
Y618442D01*
X931979Y615942D01*
X924481D01*
X929480D02*
X934478Y610944D01*
X939476D02*
X944475D01*
X941976D01*
Y625939D01*
X939476Y623440D01*
X867000Y600745D02*
Y585750D01*
X876997D01*
X889493Y600745D02*
X884494D01*
X881995Y598246D01*
Y588249D01*
X884494Y585750D01*
X889493D01*
X891992Y588249D01*
Y598246D01*
X889493Y600745D01*
X896990D02*
X906987D01*
X901989D01*
Y585750D01*
X921982Y600745D02*
X911985D01*
Y585750D01*
X921982D01*
X911985Y593248D02*
X916984D01*
X951973Y585750D02*
X941976D01*
X951973Y595747D01*
Y598246D01*
X949473Y600745D01*
X944475D01*
X941976Y598246D01*
X964468Y585750D02*
Y600745D01*
X956971Y593248D01*
X966968D01*
X971966Y585750D02*
X976964D01*
X974465D01*
Y600745D01*
X971966Y598246D01*
X984462D02*
X986961Y600745D01*
X991960D01*
X994459Y598246D01*
Y588249D01*
X991960Y585750D01*
X986961D01*
X984462Y588249D01*
Y598246D01*
X1009454Y585750D02*
X999457D01*
X1009454Y595747D01*
Y598246D01*
X1006955Y600745D01*
X1001956D01*
X999457Y598246D01*
X1024449Y585750D02*
X1014452D01*
X1024449Y595747D01*
Y598246D01*
X1021950Y600745D01*
X1016951D01*
X1014452Y598246D01*
D19*
X869079Y562540D02*
Y575236D01*
Y570158D01*
X866540D01*
X871618D01*
X869079D01*
Y575236D01*
X871618Y577775D01*
X879236Y562540D02*
X884314D01*
X881775D01*
Y577775D01*
X879236D01*
X894471Y562540D02*
X899549D01*
X902088Y565079D01*
Y570158D01*
X899549Y572697D01*
X894471D01*
X891932Y570158D01*
Y565079D01*
X894471Y562540D01*
X907167Y572697D02*
Y565079D01*
X909706Y562540D01*
X912245Y565079D01*
X914784Y562540D01*
X917324Y565079D01*
Y572697D01*
X922402Y562540D02*
Y572697D01*
X924941D01*
X927480Y570158D01*
Y562540D01*
Y570158D01*
X930020Y572697D01*
X932559Y570158D01*
Y562540D01*
X945255D02*
X940176D01*
X937637Y565079D01*
Y570158D01*
X940176Y572697D01*
X945255D01*
X947794Y570158D01*
Y567618D01*
X937637D01*
X960490Y562540D02*
X955411D01*
X952872Y565079D01*
Y570158D01*
X955411Y572697D01*
X960490D01*
X963029Y570158D01*
Y567618D01*
X952872D01*
X970646Y575236D02*
Y572697D01*
X968107D01*
X973186D01*
X970646D01*
Y565079D01*
X973186Y562540D01*
X980803D02*
Y565079D01*
X983342D01*
Y562540D01*
X980803D01*
X1003656Y572697D02*
X996038D01*
X993499Y570158D01*
Y565079D01*
X996038Y562540D01*
X1003656D01*
X1011273D02*
X1016351D01*
X1018891Y565079D01*
Y570158D01*
X1016351Y572697D01*
X1011273D01*
X1008734Y570158D01*
Y565079D01*
X1011273Y562540D01*
X1023969D02*
Y572697D01*
X1026508D01*
X1029047Y570158D01*
Y562540D01*
Y570158D01*
X1031587Y572697D01*
X1034126Y570158D01*
Y562540D01*
X661290Y389986D02*
X663829Y392525D01*
X668907D01*
X671447Y389986D01*
Y387447D01*
X668907Y384907D01*
X666368D01*
X668907D01*
X671447Y382368D01*
Y379829D01*
X668907Y377290D01*
X663829D01*
X661290Y379829D01*
X664040Y443525D02*
X674197D01*
Y440986D01*
X664040Y430829D01*
Y428290D01*
X665040Y351540D02*
X670118D01*
X667579D01*
Y366775D01*
X665040Y364236D01*
X662290Y455579D02*
X664829Y453040D01*
X669908D01*
X672447Y455579D01*
Y465736D01*
X669908Y468275D01*
X664829D01*
X662290Y465736D01*
Y463197D01*
X664829Y460658D01*
X672447D01*
X672697Y416775D02*
X662540D01*
Y409157D01*
X667618Y411697D01*
X670157D01*
X672697Y409157D01*
Y404079D01*
X670157Y401540D01*
X665079D01*
X662540Y404079D01*
X107304Y706383D02*
Y721618D01*
X114922D01*
X117461Y719078D01*
Y714000D01*
X114922Y711461D01*
X107304D01*
X122539Y719078D02*
X125078Y721618D01*
X130157D01*
X132696Y719078D01*
Y716539D01*
X130157Y714000D01*
X127618D01*
X130157D01*
X132696Y711461D01*
Y708922D01*
X130157Y706383D01*
X125078D01*
X122539Y708922D01*
X35461Y249828D02*
X32922Y252367D01*
X27843D01*
X25304Y249828D01*
Y239672D01*
X27843Y237132D01*
X32922D01*
X35461Y239672D01*
X40539D02*
X43078Y237132D01*
X48157D01*
X50696Y239672D01*
Y249828D01*
X48157Y252367D01*
X43078D01*
X40539Y249828D01*
Y247289D01*
X43078Y244750D01*
X50696D01*
X838976Y46118D02*
Y30882D01*
X846593D01*
X849133Y33422D01*
Y35961D01*
X846593Y38500D01*
X838976D01*
X846593D01*
X849133Y41039D01*
Y43578D01*
X846593Y46118D01*
X838976D01*
X854211D02*
Y30882D01*
Y38500D01*
X864368D01*
Y46118D01*
Y30882D01*
X869446D02*
X874524D01*
X871985D01*
Y46118D01*
X869446Y43578D01*
M02*
