G04*
G04 #@! TF.GenerationSoftware,Altium Limited,Altium Designer,21.4.1 (30)*
G04*
G04 Layer_Color=0*
%FSLAX44Y44*%
%MOMM*%
G71*
G04*
G04 #@! TF.SameCoordinates,C757E9F2-7087-4A76-99C7-233D7C25EA9E*
G04*
G04*
G04 #@! TF.FilePolarity,Positive*
G04*
G01*
G75*
%ADD10C,0.2000*%
%ADD11C,0.1000*%
D10*
X105000Y420000D02*
X110000D01*
X115000D01*
X110000D02*
Y425000D01*
Y415000D02*
Y420000D01*
X625000Y410000D02*
X630000D01*
X635000D01*
X630000Y405000D02*
Y410000D01*
Y415000D01*
D11*
X136000Y293000D02*
Y547000D01*
X84000Y293000D02*
Y547000D01*
Y293000D02*
X136000D01*
X84000Y547000D02*
X136000D01*
X604750Y345250D02*
Y474750D01*
Y345250D02*
X655250D01*
X604750Y474750D02*
X655250D01*
Y345250D02*
Y474750D01*
X95582Y309086D02*
X94749Y308253D01*
Y306587D01*
X95582Y305754D01*
X98914D01*
X99747Y306587D01*
Y308253D01*
X98914Y309086D01*
X99747Y310753D02*
X94749D01*
X99747Y314085D01*
X94749D01*
Y319083D02*
X95582Y317417D01*
X97248Y315751D01*
X98914D01*
X99747Y316584D01*
Y318250D01*
X98914Y319083D01*
X98081D01*
X97248Y318250D01*
Y315751D01*
X614835Y462667D02*
X614002Y463500D01*
Y465166D01*
X614835Y465999D01*
X618167D01*
X619001Y465166D01*
Y463500D01*
X618167Y462667D01*
X619001Y461001D02*
X614002D01*
X619001Y457669D01*
X614002D01*
X614835Y456003D02*
X614002Y455170D01*
Y453504D01*
X614835Y452671D01*
X615668D01*
X616501Y453504D01*
X617334Y452671D01*
X618167D01*
X619001Y453504D01*
Y455170D01*
X618167Y456003D01*
X617334D01*
X616501Y455170D01*
X615668Y456003D01*
X614835D01*
X616501Y455170D02*
Y453504D01*
M02*
