G04*
G04 #@! TF.GenerationSoftware,Altium Limited,Altium Designer,21.4.1 (30)*
G04*
G04 Layer_Color=8388736*
%FSLAX44Y44*%
%MOMM*%
G71*
G04*
G04 #@! TF.SameCoordinates,C757E9F2-7087-4A76-99C7-233D7C25EA9E*
G04*
G04*
G04 #@! TF.FilePolarity,Negative*
G04*
G01*
G75*
%ADD32R,0.5032X0.7032*%
%ADD33R,1.6532X1.5032*%
%ADD34R,1.5532X1.2032*%
%ADD35R,1.0032X1.3032*%
%ADD36R,0.7632X1.1532*%
%ADD37R,1.5032X1.6532*%
%ADD38R,1.2032X1.5532*%
%ADD39R,0.7532X1.7032*%
%ADD40R,1.2032X1.0032*%
%ADD41R,1.1532X0.7632*%
%ADD42R,2.7032X2.5032*%
%ADD43R,1.2032X2.1032*%
%ADD44C,6.2032*%
%ADD45R,1.9032X1.9032*%
%ADD46C,1.9032*%
%ADD47C,2.3000*%
%ADD48R,2.3000X2.3000*%
%ADD49R,2.3000X2.3000*%
%ADD50C,3.3000*%
%ADD51C,3.6000*%
%ADD52C,3.7000*%
%ADD53R,1.9032X1.9032*%
%ADD54R,1.5532X1.5532*%
%ADD55C,1.5532*%
%ADD56C,1.9282*%
%ADD57R,1.9282X1.9282*%
D32*
X42000Y301750D02*
D03*
X34000D02*
D03*
Y287750D02*
D03*
X42000D02*
D03*
D33*
X318870Y686670D02*
D03*
Y668130D02*
D03*
X654900Y686990D02*
D03*
Y668450D02*
D03*
X160250Y241290D02*
D03*
Y222750D02*
D03*
X184000Y222980D02*
D03*
Y241520D02*
D03*
X151750Y534520D02*
D03*
Y515980D02*
D03*
X464020Y661290D02*
D03*
Y679830D02*
D03*
D34*
X731100Y687990D02*
D03*
Y667450D02*
D03*
X705700Y667560D02*
D03*
Y688100D02*
D03*
X681570Y667450D02*
D03*
Y687990D02*
D03*
X27250Y347790D02*
D03*
Y327250D02*
D03*
X51750Y327230D02*
D03*
Y347770D02*
D03*
X268070Y666640D02*
D03*
Y687180D02*
D03*
X290930Y666520D02*
D03*
Y687060D02*
D03*
X414490Y680830D02*
D03*
Y660290D02*
D03*
X389090Y660290D02*
D03*
Y680830D02*
D03*
X439890Y660290D02*
D03*
Y680830D02*
D03*
X341730Y687290D02*
D03*
Y666750D02*
D03*
D35*
X756500Y665750D02*
D03*
X775500D02*
D03*
X766000Y686750D02*
D03*
D36*
X236000Y795462D02*
D03*
X217000D02*
D03*
X226500Y814962D02*
D03*
X226476Y748940D02*
D03*
X216976Y768440D02*
D03*
X235976D02*
D03*
X264590Y570330D02*
D03*
X274090Y589830D02*
D03*
X255090D02*
D03*
X264590Y617320D02*
D03*
X274090Y636820D02*
D03*
X255090D02*
D03*
X797540Y665070D02*
D03*
X816540D02*
D03*
X807040Y684570D02*
D03*
D37*
X164230Y97750D02*
D03*
X182770D02*
D03*
X162710Y335500D02*
D03*
X181250D02*
D03*
X29460Y267250D02*
D03*
X48000D02*
D03*
X91770Y195440D02*
D03*
X73230D02*
D03*
X114730Y243000D02*
D03*
X133270D02*
D03*
X73230Y266000D02*
D03*
X91770D02*
D03*
X73480Y219000D02*
D03*
X92020D02*
D03*
X162710Y265750D02*
D03*
X181250D02*
D03*
X405750Y636000D02*
D03*
X387210D02*
D03*
X549030Y636490D02*
D03*
X530490D02*
D03*
X690250Y363250D02*
D03*
X708790D02*
D03*
Y387750D02*
D03*
X690250D02*
D03*
D38*
X161210Y288000D02*
D03*
X181750D02*
D03*
X181750Y312250D02*
D03*
X161210D02*
D03*
X657040Y641820D02*
D03*
X636500D02*
D03*
X113480Y266500D02*
D03*
X134020D02*
D03*
X317890Y558540D02*
D03*
X338430D02*
D03*
X528450Y663550D02*
D03*
X548990D02*
D03*
X548770Y687500D02*
D03*
X528230D02*
D03*
X657040Y619570D02*
D03*
X636500D02*
D03*
X866010Y799750D02*
D03*
X886550D02*
D03*
D39*
X343330Y642640D02*
D03*
X330630D02*
D03*
X317930D02*
D03*
X305230D02*
D03*
X343330Y588640D02*
D03*
X330630D02*
D03*
X317930D02*
D03*
X305230D02*
D03*
D40*
X681290Y628320D02*
D03*
Y647820D02*
D03*
X706290Y638070D02*
D03*
D41*
X632900Y676704D02*
D03*
X613400Y686204D02*
D03*
Y667204D02*
D03*
D42*
X867300Y761650D02*
D03*
X824300D02*
D03*
D43*
X846830Y799750D02*
D03*
X816830D02*
D03*
D44*
X60000Y780000D02*
D03*
Y60000D02*
D03*
X1000000D02*
D03*
Y790000D02*
D03*
D45*
X433540Y820100D02*
D03*
X122700Y305700D02*
D03*
X190250Y759350D02*
D03*
X498750Y664550D02*
D03*
D46*
X458940Y820100D02*
D03*
X433540Y794700D02*
D03*
X458940D02*
D03*
X433540Y769300D02*
D03*
X458940D02*
D03*
X433540Y743900D02*
D03*
X458940D02*
D03*
X157750Y68500D02*
D03*
X157600Y35750D02*
D03*
X97300Y534300D02*
D03*
X122700D02*
D03*
X97300Y508900D02*
D03*
X122700D02*
D03*
X97300Y483500D02*
D03*
X122700D02*
D03*
X97300Y458100D02*
D03*
X122700D02*
D03*
X97300Y432700D02*
D03*
X122700D02*
D03*
X97300Y407300D02*
D03*
X122700D02*
D03*
X97300Y381900D02*
D03*
X122700D02*
D03*
X97300Y356500D02*
D03*
X122700D02*
D03*
X97300Y331100D02*
D03*
X122700D02*
D03*
X97300Y305700D02*
D03*
X190250Y784750D02*
D03*
Y810150D02*
D03*
X916543Y25568D02*
D03*
X498750Y689950D02*
D03*
D47*
X677750Y770000D02*
D03*
X69250Y666650D02*
D03*
Y704750D02*
D03*
X352850Y770000D02*
D03*
X314750D02*
D03*
X771550D02*
D03*
D48*
X639650D02*
D03*
X276650D02*
D03*
X733450D02*
D03*
D49*
X69250Y628550D02*
D03*
D50*
X258500Y97693D02*
D03*
Y247593D02*
D03*
D51*
X530300Y97693D02*
D03*
Y247593D02*
D03*
D52*
Y172643D02*
D03*
D53*
X183150Y68500D02*
D03*
X183000Y35750D02*
D03*
X941943Y25568D02*
D03*
D54*
X530000Y360000D02*
D03*
Y600000D02*
D03*
D55*
X510000Y360000D02*
D03*
X490000D02*
D03*
X470000D02*
D03*
X450000D02*
D03*
X430000D02*
D03*
X410000D02*
D03*
X390000D02*
D03*
Y600000D02*
D03*
X410000D02*
D03*
X430000D02*
D03*
X450000D02*
D03*
X470000D02*
D03*
X490000D02*
D03*
X510000D02*
D03*
D56*
X642700Y410000D02*
D03*
Y384600D02*
D03*
Y435400D02*
D03*
X617300Y410000D02*
D03*
Y384600D02*
D03*
Y435400D02*
D03*
X642700Y460800D02*
D03*
X617300Y359200D02*
D03*
Y460800D02*
D03*
D57*
X642800Y358950D02*
D03*
M02*
