G04*
G04 #@! TF.GenerationSoftware,Altium Limited,Altium Designer,24.4.1 (13)*
G04*
G04 Layer_Color=8421504*
%FSLAX44Y44*%
%MOMM*%
G71*
G04*
G04 #@! TF.SameCoordinates,FF2F9DB4-C514-40A0-8A38-6625478132A2*
G04*
G04*
G04 #@! TF.FilePolarity,Positive*
G04*
G01*
G75*
%ADD19R,1.3500X1.0000*%
%ADD20R,1.0000X1.3500*%
%ADD21R,1.0000X0.3500*%
%ADD22R,1.4500X1.3000*%
%ADD23R,1.3000X1.4500*%
%ADD24R,0.3500X1.0000*%
%ADD25R,0.3000X1.4750*%
%ADD26R,1.4750X0.3000*%
%ADD27O,1.4000X0.3000*%
%ADD28R,1.0000X1.8000*%
%ADD29R,2.5000X1.0200*%
%ADD30R,1.0000X0.8000*%
%ADD31R,1.5000X1.0000*%
D19*
X197500Y654040D02*
D03*
Y633500D02*
D03*
X221000Y632980D02*
D03*
Y653520D02*
D03*
X171500Y633750D02*
D03*
Y654290D02*
D03*
X408000Y771296D02*
D03*
Y750756D02*
D03*
X430250Y771276D02*
D03*
Y750736D02*
D03*
X453000Y771276D02*
D03*
Y750736D02*
D03*
X475500Y771296D02*
D03*
Y750756D02*
D03*
X362250Y751006D02*
D03*
Y771546D02*
D03*
X498500Y751006D02*
D03*
Y771546D02*
D03*
X385000Y751006D02*
D03*
Y771546D02*
D03*
X922750Y502776D02*
D03*
Y523316D02*
D03*
X838750Y74816D02*
D03*
Y54276D02*
D03*
X674250Y74066D02*
D03*
Y53526D02*
D03*
X812250Y54276D02*
D03*
Y74816D02*
D03*
X652250Y53276D02*
D03*
Y73816D02*
D03*
X369000Y74046D02*
D03*
Y53506D02*
D03*
X526250Y75046D02*
D03*
Y54506D02*
D03*
X495750Y54776D02*
D03*
Y75316D02*
D03*
X330971Y54744D02*
D03*
Y75284D02*
D03*
D20*
X116210Y599750D02*
D03*
X136750D02*
D03*
X295460Y804026D02*
D03*
X316000D02*
D03*
X295730Y782516D02*
D03*
X316270D02*
D03*
X316770Y763560D02*
D03*
X296230D02*
D03*
X287346Y406422D02*
D03*
X266806D02*
D03*
X210000Y766750D02*
D03*
X189460D02*
D03*
X963770Y483276D02*
D03*
X943230D02*
D03*
D21*
X140750Y568000D02*
D03*
Y581000D02*
D03*
X159750D02*
D03*
Y574500D02*
D03*
Y568000D02*
D03*
D22*
X341750Y306480D02*
D03*
Y325020D02*
D03*
X160744Y530118D02*
D03*
Y511578D02*
D03*
X418046Y279170D02*
D03*
Y297710D02*
D03*
X366750Y291046D02*
D03*
Y272506D02*
D03*
X391500Y291046D02*
D03*
Y272506D02*
D03*
X318500Y325290D02*
D03*
Y306750D02*
D03*
X508500Y333296D02*
D03*
Y314756D02*
D03*
X474750Y333566D02*
D03*
Y315026D02*
D03*
X417750Y339046D02*
D03*
Y320506D02*
D03*
X289250Y518736D02*
D03*
Y537276D02*
D03*
D23*
X189980Y791750D02*
D03*
X208520D02*
D03*
X145500Y251500D02*
D03*
X126960D02*
D03*
X521000Y500026D02*
D03*
X539540D02*
D03*
X284020Y374026D02*
D03*
X265480D02*
D03*
X520798Y524238D02*
D03*
X539338D02*
D03*
X284020Y348526D02*
D03*
X265480D02*
D03*
X470730Y542276D02*
D03*
X489270D02*
D03*
X523710Y382776D02*
D03*
X542250D02*
D03*
X728500Y430526D02*
D03*
X709960D02*
D03*
X654230Y29026D02*
D03*
X672770D02*
D03*
X811730Y26776D02*
D03*
X830270D02*
D03*
X495480Y33526D02*
D03*
X514020D02*
D03*
X330482Y32426D02*
D03*
X349022D02*
D03*
D24*
X376250Y670026D02*
D03*
Y689026D02*
D03*
X454500Y670276D02*
D03*
X461000D02*
D03*
X467500D02*
D03*
Y689276D02*
D03*
X454500D02*
D03*
X363250Y670026D02*
D03*
X369750D02*
D03*
X363250Y689026D02*
D03*
X349750Y138276D02*
D03*
X356250D02*
D03*
X362750D02*
D03*
Y157276D02*
D03*
X349750D02*
D03*
D25*
X352000Y363896D02*
D03*
X357000D02*
D03*
X362000D02*
D03*
X367000D02*
D03*
X372000D02*
D03*
X377000D02*
D03*
X382000D02*
D03*
X387000D02*
D03*
X392000D02*
D03*
X397000D02*
D03*
X402000D02*
D03*
X407000D02*
D03*
X412000D02*
D03*
X417000D02*
D03*
X422000D02*
D03*
X427000D02*
D03*
X432000D02*
D03*
X437000D02*
D03*
X442000D02*
D03*
X447000D02*
D03*
X452000D02*
D03*
X457000D02*
D03*
X462000D02*
D03*
X467000D02*
D03*
X472000Y518656D02*
D03*
X467000D02*
D03*
X462000D02*
D03*
X457000D02*
D03*
X452000D02*
D03*
X447000D02*
D03*
X442000D02*
D03*
X437000D02*
D03*
X432000D02*
D03*
X427000D02*
D03*
X422000D02*
D03*
X417000D02*
D03*
X412000D02*
D03*
X407000D02*
D03*
X402000D02*
D03*
X397000D02*
D03*
X392000D02*
D03*
X387000D02*
D03*
X382000D02*
D03*
X377000D02*
D03*
X372000D02*
D03*
X367000D02*
D03*
X362000D02*
D03*
X357000D02*
D03*
X352000D02*
D03*
X472000Y363896D02*
D03*
D26*
X489380Y381276D02*
D03*
Y386276D02*
D03*
Y391276D02*
D03*
Y396276D02*
D03*
Y401276D02*
D03*
Y406276D02*
D03*
Y411276D02*
D03*
Y416276D02*
D03*
Y421276D02*
D03*
Y426276D02*
D03*
Y431276D02*
D03*
Y436276D02*
D03*
Y441276D02*
D03*
Y446276D02*
D03*
Y451276D02*
D03*
Y456276D02*
D03*
Y461276D02*
D03*
Y466276D02*
D03*
Y471276D02*
D03*
Y476276D02*
D03*
Y481276D02*
D03*
Y486276D02*
D03*
Y491276D02*
D03*
Y496276D02*
D03*
Y501276D02*
D03*
X334620D02*
D03*
Y496276D02*
D03*
Y491276D02*
D03*
Y486276D02*
D03*
Y481276D02*
D03*
Y476276D02*
D03*
Y471276D02*
D03*
Y466276D02*
D03*
Y461276D02*
D03*
Y456276D02*
D03*
Y451276D02*
D03*
Y446276D02*
D03*
Y441276D02*
D03*
Y436276D02*
D03*
Y431276D02*
D03*
Y426276D02*
D03*
Y421276D02*
D03*
Y416276D02*
D03*
Y411276D02*
D03*
Y406276D02*
D03*
Y401276D02*
D03*
Y396276D02*
D03*
Y391276D02*
D03*
Y386276D02*
D03*
Y381276D02*
D03*
D27*
X838000Y347776D02*
D03*
Y352776D02*
D03*
Y357776D02*
D03*
Y362776D02*
D03*
Y367776D02*
D03*
Y372776D02*
D03*
Y377776D02*
D03*
Y382776D02*
D03*
Y387776D02*
D03*
Y392776D02*
D03*
Y397776D02*
D03*
Y402776D02*
D03*
Y407776D02*
D03*
Y412776D02*
D03*
Y417776D02*
D03*
Y422776D02*
D03*
Y427776D02*
D03*
Y432776D02*
D03*
Y437776D02*
D03*
Y442776D02*
D03*
Y447776D02*
D03*
Y452776D02*
D03*
Y457776D02*
D03*
Y462776D02*
D03*
Y467776D02*
D03*
Y472776D02*
D03*
Y477776D02*
D03*
Y482776D02*
D03*
X762000Y347776D02*
D03*
Y352776D02*
D03*
Y357776D02*
D03*
Y362776D02*
D03*
Y367776D02*
D03*
Y372776D02*
D03*
Y377776D02*
D03*
Y382776D02*
D03*
Y387776D02*
D03*
Y392776D02*
D03*
Y397776D02*
D03*
Y402776D02*
D03*
Y407776D02*
D03*
Y412776D02*
D03*
Y417776D02*
D03*
Y422776D02*
D03*
Y427776D02*
D03*
Y432776D02*
D03*
Y437776D02*
D03*
Y442776D02*
D03*
Y447776D02*
D03*
Y452776D02*
D03*
Y457776D02*
D03*
Y462776D02*
D03*
Y467776D02*
D03*
Y472776D02*
D03*
Y477776D02*
D03*
Y482776D02*
D03*
D28*
X366750Y313776D02*
D03*
X391750D02*
D03*
D29*
X660250Y461076D02*
D03*
Y435676D02*
D03*
Y410276D02*
D03*
Y384876D02*
D03*
Y359476D02*
D03*
X599750Y461076D02*
D03*
Y435676D02*
D03*
Y410276D02*
D03*
Y384876D02*
D03*
Y359476D02*
D03*
D30*
X944500Y503526D02*
D03*
Y523026D02*
D03*
X969500Y513276D02*
D03*
D31*
X565620Y503956D02*
D03*
Y521956D02*
D03*
M02*
