G04*
G04 #@! TF.GenerationSoftware,Altium Limited,Altium Designer,24.4.1 (13)*
G04*
G04 Layer_Color=65535*
%FSLAX44Y44*%
%MOMM*%
G71*
G04*
G04 #@! TF.SameCoordinates,FF2F9DB4-C514-40A0-8A38-6625478132A2*
G04*
G04*
G04 #@! TF.FilePolarity,Positive*
G04*
G01*
G75*
%ADD10C,0.2000*%
%ADD11C,0.6000*%
%ADD12C,0.3000*%
%ADD13C,0.2500*%
%ADD14C,0.0500*%
%ADD15C,0.2540*%
%ADD16C,0.1500*%
%ADD17C,0.1000*%
%ADD18C,0.1524*%
D10*
X94000Y780000D02*
G03*
X94000Y780000I-34000J0D01*
G01*
Y60000D02*
G03*
X94000Y60000I-34000J0D01*
G01*
X1034000Y790000D02*
G03*
X1034000Y790000I-34000J0D01*
G01*
Y60000D02*
G03*
X1034000Y60000I-34000J0D01*
G01*
X83530Y109360D02*
X111470D01*
X83530D02*
Y266840D01*
X111470Y109360D02*
Y266840D01*
X83530D02*
X111470D01*
X103030Y614080D02*
X156370D01*
X103030Y718220D02*
X156370D01*
Y614080D02*
Y718220D01*
X103030Y614080D02*
Y718220D01*
X103200Y718150D02*
X103450D01*
X101450Y719900D02*
X103200Y718150D01*
X528500Y783926D02*
Y834826D01*
X376350D02*
X528500D01*
X376350Y783926D02*
Y834826D01*
Y783926D02*
X528500D01*
X345500Y374776D02*
Y507776D01*
X478500D01*
Y374776D02*
Y507776D01*
X345500Y374776D02*
X478500D01*
X135400Y547000D02*
X135400Y293000D01*
X84600D02*
X135400D01*
X84600Y547000D02*
X135400D01*
X84600Y293000D02*
Y547000D01*
X773000Y344776D02*
X827000D01*
X773000Y485776D02*
X827000D01*
Y344776D02*
Y485776D01*
X773000Y344776D02*
Y485776D01*
X375250Y321276D02*
X383250D01*
X375250Y306276D02*
X383250D01*
X604850Y473776D02*
X655150D01*
X604850Y346776D02*
X655150D01*
X363421Y340998D02*
Y331002D01*
X370085D01*
X380082Y339332D02*
X378416Y340998D01*
X375084D01*
X373418Y339332D01*
Y337666D01*
X375084Y336000D01*
X378416D01*
X380082Y334334D01*
Y332668D01*
X378416Y331002D01*
X375084D01*
X373418Y332668D01*
X390079Y340998D02*
X383414D01*
Y331002D01*
X390079D01*
X383414Y336000D02*
X386747D01*
X482095Y675330D02*
X475431D01*
Y665334D01*
X482095D01*
X475431Y670332D02*
X478763D01*
X492092Y673664D02*
X490426Y675330D01*
X487094D01*
X485427Y673664D01*
Y671998D01*
X487094Y670332D01*
X490426D01*
X492092Y668666D01*
Y667000D01*
X490426Y665334D01*
X487094D01*
X485427Y667000D01*
X495424Y675330D02*
Y665334D01*
X500423D01*
X502089Y667000D01*
Y673664D01*
X500423Y675330D01*
X495424D01*
X505421Y673664D02*
X507087Y675330D01*
X510419D01*
X512085Y673664D01*
Y671998D01*
X510419Y670332D01*
X508753D01*
X510419D01*
X512085Y668666D01*
Y667000D01*
X510419Y665334D01*
X507087D01*
X505421Y667000D01*
X391085Y675202D02*
X384421D01*
Y665206D01*
X391085D01*
X384421Y670204D02*
X387753D01*
X401082Y673536D02*
X399416Y675202D01*
X396083D01*
X394417Y673536D01*
Y671870D01*
X396083Y670204D01*
X399416D01*
X401082Y668538D01*
Y666872D01*
X399416Y665206D01*
X396083D01*
X394417Y666872D01*
X404414Y675202D02*
Y665206D01*
X409412D01*
X411079Y666872D01*
Y673536D01*
X409412Y675202D01*
X404414D01*
X421075Y665206D02*
X414411D01*
X421075Y671870D01*
Y673536D01*
X419409Y675202D01*
X416077D01*
X414411Y673536D01*
D11*
X360500Y386276D02*
G03*
X360500Y386276I-2500J0D01*
G01*
X786000Y475776D02*
G03*
X786000Y475776I-3000J0D01*
G01*
D12*
X347000Y363276D02*
G03*
X347000Y363276I-1000J0D01*
G01*
D13*
X763250Y489776D02*
G03*
X763250Y489776I-1250J0D01*
G01*
X261331Y623500D02*
X253000D01*
X261331Y631831D01*
Y633913D01*
X259248Y635996D01*
X255083D01*
X253000Y633913D01*
X265496D02*
X267579Y635996D01*
X271744D01*
X273827Y633913D01*
Y631831D01*
X271744Y629748D01*
X269661D01*
X271744D01*
X273827Y627665D01*
Y625583D01*
X271744Y623500D01*
X267579D01*
X265496Y625583D01*
X791248Y620750D02*
Y633246D01*
X785000Y626998D01*
X793331D01*
X803744Y620750D02*
Y633246D01*
X797496Y626998D01*
X805827D01*
X235081Y227276D02*
X226750D01*
X235081Y235607D01*
Y237689D01*
X232998Y239772D01*
X228833D01*
X226750Y237689D01*
X247577Y227276D02*
X239246D01*
X247577Y235607D01*
Y237689D01*
X245494Y239772D01*
X241329D01*
X239246Y237689D01*
X677500Y441522D02*
X685831D01*
Y439439D01*
X677500Y431109D01*
Y429026D01*
X676500Y455109D02*
X678583Y453026D01*
X682748D01*
X684831Y455109D01*
Y463439D01*
X682748Y465522D01*
X678583D01*
X676500Y463439D01*
Y461357D01*
X678583Y459274D01*
X684831D01*
X678000Y389189D02*
X680083Y391272D01*
X684248D01*
X686331Y389189D01*
Y387107D01*
X684248Y385024D01*
X682165D01*
X684248D01*
X686331Y382941D01*
Y380859D01*
X684248Y378776D01*
X680083D01*
X678000Y380859D01*
X685081Y416022D02*
X676750D01*
Y409774D01*
X680915Y411857D01*
X682998D01*
X685081Y409774D01*
Y405609D01*
X682998Y403526D01*
X678833D01*
X676750Y405609D01*
X77831Y285189D02*
X75748Y287272D01*
X71583D01*
X69500Y285189D01*
Y276859D01*
X71583Y274776D01*
X75748D01*
X77831Y276859D01*
Y281024D01*
X73665D01*
X81996Y274776D02*
Y287272D01*
X90327Y274776D01*
Y287272D01*
X94492D02*
Y274776D01*
X100740D01*
X102823Y276859D01*
Y285189D01*
X100740Y287272D01*
X94492D01*
X118250D02*
Y274776D01*
X124498D01*
X126581Y276859D01*
Y285189D01*
X124498Y287272D01*
X118250D01*
X130746D02*
Y278941D01*
X134911Y274776D01*
X139077Y278941D01*
Y287272D01*
X143242D02*
Y274776D01*
X149490D01*
X151573Y276859D01*
Y285189D01*
X149490Y287272D01*
X143242D01*
X155738D02*
Y274776D01*
X161986D01*
X164069Y276859D01*
Y285189D01*
X161986Y287272D01*
X155738D01*
X72331Y300276D02*
X64000D01*
X72331Y308607D01*
Y310689D01*
X70248Y312772D01*
X66083D01*
X64000Y310689D01*
X64750Y386689D02*
X66833Y388772D01*
X70998D01*
X73081Y386689D01*
Y384607D01*
X70998Y382524D01*
X73081Y380441D01*
Y378359D01*
X70998Y376276D01*
X66833D01*
X64750Y378359D01*
Y380441D01*
X66833Y382524D01*
X64750Y384607D01*
Y386689D01*
X66833Y382524D02*
X70998D01*
X72581Y364772D02*
X68415Y362689D01*
X64250Y358524D01*
Y354359D01*
X66333Y352276D01*
X70498D01*
X72581Y354359D01*
Y356441D01*
X70498Y358524D01*
X64250D01*
X67748Y327026D02*
Y339522D01*
X61500Y333274D01*
X69831D01*
X60250Y452526D02*
X64415D01*
X62333D01*
Y465022D01*
X60250Y462939D01*
X76911Y452526D02*
Y465022D01*
X70663Y458774D01*
X78994D01*
X60250Y427526D02*
X64415D01*
X62333D01*
Y440022D01*
X60250Y437939D01*
X78994Y427526D02*
X70663D01*
X78994Y435857D01*
Y437939D01*
X76911Y440022D01*
X72746D01*
X70663Y437939D01*
X60250Y478776D02*
X64415D01*
X62333D01*
Y491272D01*
X60250Y489189D01*
X78994Y491272D02*
X74829Y489189D01*
X70663Y485024D01*
Y480859D01*
X72746Y478776D01*
X76911D01*
X78994Y480859D01*
Y482941D01*
X76911Y485024D01*
X70663D01*
X59750Y504026D02*
X63915D01*
X61833D01*
Y516522D01*
X59750Y514439D01*
X70163D02*
X72246Y516522D01*
X76411D01*
X78494Y514439D01*
Y512357D01*
X76411Y510274D01*
X78494Y508191D01*
Y506109D01*
X76411Y504026D01*
X72246D01*
X70163Y506109D01*
Y508191D01*
X72246Y510274D01*
X70163Y512357D01*
Y514439D01*
X72246Y510274D02*
X76411D01*
X65831Y527276D02*
X57500D01*
X65831Y535607D01*
Y537689D01*
X63748Y539772D01*
X59583D01*
X57500Y537689D01*
X69996D02*
X72079Y539772D01*
X76244D01*
X78327Y537689D01*
Y529359D01*
X76244Y527276D01*
X72079D01*
X69996Y529359D01*
Y537689D01*
X59750Y402276D02*
X63915D01*
X61833D01*
Y414772D01*
X59750Y412689D01*
X70163D02*
X72246Y414772D01*
X76411D01*
X78494Y412689D01*
Y404359D01*
X76411Y402276D01*
X72246D01*
X70163Y404359D01*
Y412689D01*
X679750Y353776D02*
X683915D01*
X681833D01*
Y366272D01*
X679750Y364189D01*
X249493Y798192D02*
Y810688D01*
X255741D01*
X257823Y808605D01*
Y804440D01*
X255741Y802357D01*
X249493D01*
X253658D02*
X257823Y798192D01*
X270319D02*
X261989D01*
X270319Y806523D01*
Y808605D01*
X268237Y810688D01*
X264071D01*
X261989Y808605D01*
X282815Y798192D02*
X274485D01*
X282815Y806523D01*
Y808605D01*
X280733Y810688D01*
X276567D01*
X274485Y808605D01*
X248839Y776602D02*
Y789098D01*
X255087D01*
X257169Y787015D01*
Y782850D01*
X255087Y780767D01*
X248839D01*
X253004D02*
X257169Y776602D01*
X269665D02*
X261335D01*
X269665Y784933D01*
Y787015D01*
X267583Y789098D01*
X263417D01*
X261335Y787015D01*
X273831D02*
X275913Y789098D01*
X280079D01*
X282161Y787015D01*
Y784933D01*
X280079Y782850D01*
X277996D01*
X280079D01*
X282161Y780767D01*
Y778685D01*
X280079Y776602D01*
X275913D01*
X273831Y778685D01*
X163752Y704661D02*
X176248D01*
Y698413D01*
X174165Y696331D01*
X170000D01*
X167917Y698413D01*
Y704661D01*
Y700496D02*
X163752Y696331D01*
Y683835D02*
Y692165D01*
X172083Y683835D01*
X174165D01*
X176248Y685917D01*
Y690083D01*
X174165Y692165D01*
X176248Y671339D02*
Y679669D01*
X170000D01*
X172083Y675504D01*
Y673421D01*
X170000Y671339D01*
X165835D01*
X163752Y673421D01*
Y677587D01*
X165835Y679669D01*
X191752Y704579D02*
X204248D01*
Y698331D01*
X202165Y696248D01*
X198000D01*
X195917Y698331D01*
Y704579D01*
Y700413D02*
X191752Y696248D01*
Y683752D02*
Y692083D01*
X200083Y683752D01*
X202165D01*
X204248Y685835D01*
Y690000D01*
X202165Y692083D01*
X191752Y679587D02*
Y675421D01*
Y677504D01*
X204248D01*
X202165Y679587D01*
X214752Y704661D02*
X227248D01*
Y698413D01*
X225165Y696331D01*
X221000D01*
X218917Y698413D01*
Y704661D01*
Y700496D02*
X214752Y696331D01*
Y683835D02*
Y692165D01*
X223083Y683835D01*
X225165D01*
X227248Y685917D01*
Y690083D01*
X225165Y692165D01*
Y679669D02*
X227248Y677587D01*
Y673421D01*
X225165Y671339D01*
X216835D01*
X214752Y673421D01*
Y677587D01*
X216835Y679669D01*
X225165D01*
X91752Y101415D02*
X89669Y103498D01*
X85504D01*
X83421Y101415D01*
Y93085D01*
X85504Y91002D01*
X89669D01*
X91752Y93085D01*
X95917Y91002D02*
Y103498D01*
X104248Y91002D01*
Y103498D01*
X108413Y91002D02*
X112579D01*
X110496D01*
Y103498D01*
X108413Y101415D01*
X156917Y794415D02*
X154835Y796498D01*
X150669D01*
X148587Y794415D01*
Y786085D01*
X150669Y784002D01*
X154835D01*
X156917Y786085D01*
X161083Y794415D02*
X163165Y796498D01*
X167331D01*
X169413Y794415D01*
Y792333D01*
X167331Y790250D01*
X169413Y788167D01*
Y786085D01*
X167331Y784002D01*
X163165D01*
X161083Y786085D01*
Y788167D01*
X163165Y790250D01*
X161083Y792333D01*
Y794415D01*
X163165Y790250D02*
X167331D01*
X117417Y737748D02*
X113252D01*
X115335D01*
Y727335D01*
X113252Y725252D01*
X111169D01*
X109087Y727335D01*
X121583Y735665D02*
X123665Y737748D01*
X127831D01*
X129913Y735665D01*
Y733583D01*
X127831Y731500D01*
X125748D01*
X127831D01*
X129913Y729417D01*
Y727335D01*
X127831Y725252D01*
X123665D01*
X121583Y727335D01*
X128419Y235665D02*
X126337Y237748D01*
X122171D01*
X120089Y235665D01*
Y227335D01*
X122171Y225252D01*
X126337D01*
X128419Y227335D01*
X140915Y225252D02*
X132585D01*
X140915Y233583D01*
Y235665D01*
X138833Y237748D01*
X134667D01*
X132585Y235665D01*
X151329Y225252D02*
Y237748D01*
X145081Y231500D01*
X153411D01*
X524711Y481941D02*
X522628Y484024D01*
X518463D01*
X516380Y481941D01*
Y473611D01*
X518463Y471528D01*
X522628D01*
X524711Y473611D01*
X528876Y471528D02*
X533041D01*
X530959D01*
Y484024D01*
X528876Y481941D01*
X539289Y473611D02*
X541372Y471528D01*
X545537D01*
X547620Y473611D01*
Y481941D01*
X545537Y484024D01*
X541372D01*
X539289Y481941D01*
Y479859D01*
X541372Y477776D01*
X547620D01*
X532711Y338191D02*
X530628Y340274D01*
X526463D01*
X524380Y338191D01*
Y329861D01*
X526463Y327778D01*
X530628D01*
X532711Y329861D01*
X536876Y327778D02*
X541041D01*
X538959D01*
Y340274D01*
X536876Y338191D01*
X553537Y327778D02*
Y340274D01*
X547289Y334026D01*
X555620D01*
X399587Y545774D02*
Y535361D01*
X401669Y533278D01*
X405835D01*
X407917Y535361D01*
Y545774D01*
X420413Y533278D02*
X412083D01*
X420413Y541609D01*
Y543691D01*
X418331Y545774D01*
X414165D01*
X412083Y543691D01*
X620281Y490343D02*
X618199Y492426D01*
X614033D01*
X611951Y490343D01*
Y482013D01*
X614033Y479930D01*
X618199D01*
X620281Y482013D01*
X624447Y479930D02*
Y492426D01*
X632777Y479930D01*
Y492426D01*
X636943Y490343D02*
X639025Y492426D01*
X643191D01*
X645273Y490343D01*
Y488261D01*
X643191Y486178D01*
X641108D01*
X643191D01*
X645273Y484095D01*
Y482013D01*
X643191Y479930D01*
X639025D01*
X636943Y482013D01*
X800587Y89778D02*
Y102274D01*
X806835D01*
X808917Y100191D01*
Y96026D01*
X806835Y93943D01*
X800587D01*
X804752D02*
X808917Y89778D01*
X821413Y102274D02*
X817248Y100191D01*
X813083Y96026D01*
Y91861D01*
X815165Y89778D01*
X819331D01*
X821413Y91861D01*
Y93943D01*
X819331Y96026D01*
X813083D01*
X184923Y534283D02*
X182841Y536366D01*
X178675D01*
X176593Y534283D01*
Y525953D01*
X178675Y523870D01*
X182841D01*
X184923Y525953D01*
X197419Y523870D02*
X189089D01*
X197419Y532201D01*
Y534283D01*
X195337Y536366D01*
X191171D01*
X189089Y534283D01*
X201585D02*
X203667Y536366D01*
X207833D01*
X209915Y534283D01*
Y532201D01*
X207833Y530118D01*
X205750D01*
X207833D01*
X209915Y528035D01*
Y525953D01*
X207833Y523870D01*
X203667D01*
X201585Y525953D01*
X100419Y563415D02*
X98337Y565498D01*
X94171D01*
X92089Y563415D01*
Y555085D01*
X94171Y553002D01*
X98337D01*
X100419Y555085D01*
X104585Y553002D02*
Y565498D01*
X112915Y553002D01*
Y565498D01*
X125411Y553002D02*
X117081D01*
X125411Y561333D01*
Y563415D01*
X123329Y565498D01*
X119163D01*
X117081Y563415D01*
X142963Y759502D02*
Y771998D01*
X149211D01*
X151293Y769915D01*
Y765750D01*
X149211Y763667D01*
X142963D01*
X147128D02*
X151293Y759502D01*
X155459D02*
X159624D01*
X157541D01*
Y771998D01*
X155459Y769915D01*
X165872Y759502D02*
X170037D01*
X167955D01*
Y771998D01*
X165872Y769915D01*
X525565Y409571D02*
X523482Y411654D01*
X519317D01*
X517234Y409571D01*
Y401241D01*
X519317Y399158D01*
X523482D01*
X525565Y401241D01*
X529730Y399158D02*
X533895D01*
X531813D01*
Y411654D01*
X529730Y409571D01*
X540143D02*
X542226Y411654D01*
X546391D01*
X548474Y409571D01*
Y401241D01*
X546391Y399158D01*
X542226D01*
X540143Y401241D01*
Y409571D01*
X248731Y756790D02*
Y769286D01*
X254979D01*
X257061Y767203D01*
Y763038D01*
X254979Y760955D01*
X248731D01*
X252896D02*
X257061Y756790D01*
X269557D02*
X261227D01*
X269557Y765121D01*
Y767203D01*
X267475Y769286D01*
X263309D01*
X261227Y767203D01*
X279971Y756790D02*
Y769286D01*
X273723Y763038D01*
X282053D01*
X353007Y734896D02*
X365503D01*
Y728648D01*
X363420Y726565D01*
X359255D01*
X357172Y728648D01*
Y734896D01*
Y730731D02*
X353007Y726565D01*
Y722400D02*
Y718235D01*
Y720317D01*
X365503D01*
X363420Y722400D01*
X355090Y711987D02*
X353007Y709904D01*
Y705739D01*
X355090Y703656D01*
X363420D01*
X365503Y705739D01*
Y709904D01*
X363420Y711987D01*
X361338D01*
X359255Y709904D01*
Y703656D01*
X446252Y734376D02*
X458748D01*
Y728128D01*
X456665Y726045D01*
X452500D01*
X450417Y728128D01*
Y734376D01*
Y730211D02*
X446252Y726045D01*
Y721880D02*
Y717715D01*
Y719797D01*
X458748D01*
X456665Y721880D01*
X458748Y711467D02*
Y703136D01*
X456665D01*
X448335Y711467D01*
X446252D01*
X422476Y733994D02*
X434972D01*
Y727746D01*
X432889Y725664D01*
X428724D01*
X426641Y727746D01*
Y733994D01*
Y729829D02*
X422476Y725664D01*
Y721498D02*
Y717333D01*
Y719416D01*
X434972D01*
X432889Y721498D01*
X434972Y702754D02*
Y711085D01*
X428724D01*
X430807Y706920D01*
Y704837D01*
X428724Y702754D01*
X424559D01*
X422476Y704837D01*
Y709002D01*
X424559Y711085D01*
X492752Y736146D02*
X505248D01*
Y729898D01*
X503165Y727815D01*
X499000D01*
X496917Y729898D01*
Y736146D01*
Y731981D02*
X492752Y727815D01*
Y723650D02*
Y719485D01*
Y721567D01*
X505248D01*
X503165Y723650D01*
X505248Y704906D02*
X503165Y709071D01*
X499000Y713237D01*
X494835D01*
X492752Y711154D01*
Y706989D01*
X494835Y704906D01*
X496917D01*
X499000Y706989D01*
Y713237D01*
X401628Y733896D02*
X414124D01*
Y727648D01*
X412041Y725565D01*
X407876D01*
X405793Y727648D01*
Y733896D01*
Y729731D02*
X401628Y725565D01*
Y721400D02*
Y717235D01*
Y719317D01*
X414124D01*
X412041Y721400D01*
Y710987D02*
X414124Y708904D01*
Y704739D01*
X412041Y702656D01*
X409959D01*
X407876Y704739D01*
X405793Y702656D01*
X403711D01*
X401628Y704739D01*
Y708904D01*
X403711Y710987D01*
X405793D01*
X407876Y708904D01*
X409959Y710987D01*
X412041D01*
X407876Y708904D02*
Y704739D01*
X466566Y734646D02*
X479062D01*
Y728398D01*
X476979Y726315D01*
X472814D01*
X470731Y728398D01*
Y734646D01*
Y730481D02*
X466566Y726315D01*
Y722150D02*
Y717985D01*
Y720067D01*
X479062D01*
X476979Y722150D01*
X466566Y705489D02*
X479062D01*
X472814Y711737D01*
Y703406D01*
X378635Y735146D02*
X391131D01*
Y728898D01*
X389049Y726815D01*
X384883D01*
X382801Y728898D01*
Y735146D01*
Y730981D02*
X378635Y726815D01*
Y722650D02*
Y718485D01*
Y720567D01*
X391131D01*
X389049Y722650D01*
Y712237D02*
X391131Y710154D01*
Y705989D01*
X389049Y703906D01*
X386966D01*
X384883Y705989D01*
Y708071D01*
Y705989D01*
X382801Y703906D01*
X380718D01*
X378635Y705989D01*
Y710154D01*
X380718Y712237D01*
X212880Y398528D02*
Y411024D01*
X219128D01*
X221211Y408941D01*
Y404776D01*
X219128Y402693D01*
X212880D01*
X217045D02*
X221211Y398528D01*
X225376D02*
X229541D01*
X227459D01*
Y411024D01*
X225376Y408941D01*
X244120Y398528D02*
X235789D01*
X244120Y406859D01*
Y408941D01*
X242037Y411024D01*
X237872D01*
X235789Y408941D01*
X899630Y476778D02*
Y489274D01*
X905878D01*
X907961Y487191D01*
Y483026D01*
X905878Y480943D01*
X899630D01*
X903795D02*
X907961Y476778D01*
X912126D02*
X916291D01*
X914209D01*
Y489274D01*
X912126Y487191D01*
X922539D02*
X924622Y489274D01*
X928787D01*
X930870Y487191D01*
Y478861D01*
X928787Y476778D01*
X924622D01*
X922539Y478861D01*
Y487191D01*
X914587Y536028D02*
Y548524D01*
X920835D01*
X922917Y546441D01*
Y542276D01*
X920835Y540193D01*
X914587D01*
X918752D02*
X922917Y536028D01*
X927083Y538111D02*
X929165Y536028D01*
X933331D01*
X935413Y538111D01*
Y546441D01*
X933331Y548524D01*
X929165D01*
X927083Y546441D01*
Y544359D01*
X929165Y542276D01*
X935413D01*
X829587Y90028D02*
Y102524D01*
X835835D01*
X837917Y100441D01*
Y96276D01*
X835835Y94193D01*
X829587D01*
X833752D02*
X837917Y90028D01*
X842083Y100441D02*
X844165Y102524D01*
X848331D01*
X850413Y100441D01*
Y98359D01*
X848331Y96276D01*
X850413Y94193D01*
Y92111D01*
X848331Y90028D01*
X844165D01*
X842083Y92111D01*
Y94193D01*
X844165Y96276D01*
X842083Y98359D01*
Y100441D01*
X844165Y96276D02*
X848331D01*
X670523Y87246D02*
Y99742D01*
X676771D01*
X678853Y97659D01*
Y93494D01*
X676771Y91411D01*
X670523D01*
X674688D02*
X678853Y87246D01*
X683019Y99742D02*
X691349D01*
Y97659D01*
X683019Y89329D01*
Y87246D01*
X642051Y87150D02*
Y99646D01*
X648299D01*
X650381Y97563D01*
Y93398D01*
X648299Y91315D01*
X642051D01*
X646216D02*
X650381Y87150D01*
X662877Y99646D02*
X654547D01*
Y93398D01*
X658712Y95480D01*
X660795D01*
X662877Y93398D01*
Y89232D01*
X660795Y87150D01*
X656629D01*
X654547Y89232D01*
X359119Y87500D02*
Y99996D01*
X365367D01*
X367449Y97913D01*
Y93748D01*
X365367Y91665D01*
X359119D01*
X363284D02*
X367449Y87500D01*
X377863D02*
Y99996D01*
X371615Y93748D01*
X379945D01*
X516853Y88008D02*
Y100504D01*
X523101D01*
X525183Y98421D01*
Y94256D01*
X523101Y92173D01*
X516853D01*
X521018D02*
X525183Y88008D01*
X529349Y98421D02*
X531431Y100504D01*
X535597D01*
X537679Y98421D01*
Y96339D01*
X535597Y94256D01*
X533514D01*
X535597D01*
X537679Y92173D01*
Y90091D01*
X535597Y88008D01*
X531431D01*
X529349Y90091D01*
X485611Y88008D02*
Y100504D01*
X491859D01*
X493941Y98421D01*
Y94256D01*
X491859Y92173D01*
X485611D01*
X489776D02*
X493941Y88008D01*
X506437D02*
X498107D01*
X506437Y96339D01*
Y98421D01*
X504355Y100504D01*
X500189D01*
X498107Y98421D01*
X321323Y88008D02*
Y100504D01*
X327571D01*
X329654Y98421D01*
Y94256D01*
X327571Y92173D01*
X321323D01*
X325489D02*
X329654Y88008D01*
X333819D02*
X337985D01*
X335902D01*
Y100504D01*
X333819Y98421D01*
X969750Y535861D02*
Y544191D01*
X967667Y546274D01*
X963502D01*
X961419Y544191D01*
Y535861D01*
X963502Y533778D01*
X967667D01*
X965585Y537943D02*
X969750Y533778D01*
X967667D02*
X969750Y535861D01*
X973915Y533778D02*
X978081D01*
X975998D01*
Y546274D01*
X973915Y544191D01*
X790169Y508524D02*
Y498111D01*
X792252Y496028D01*
X796417D01*
X798500Y498111D01*
Y508524D01*
X802665Y496028D02*
X806831D01*
X804748D01*
Y508524D01*
X802665Y506441D01*
X582943Y518588D02*
Y506092D01*
X591274D01*
X595439D02*
X599605D01*
X597522D01*
Y518588D01*
X595439Y516505D01*
X341169Y828665D02*
X339087Y830748D01*
X334921D01*
X332839Y828665D01*
Y820335D01*
X334921Y818252D01*
X339087D01*
X341169Y820335D01*
X345335Y818252D02*
Y830748D01*
X353665Y818252D01*
Y830748D01*
X364079Y818252D02*
Y830748D01*
X357831Y824500D01*
X366161D01*
X347384Y184578D02*
X339053D01*
Y172082D01*
X347384D01*
X339053Y178330D02*
X343219D01*
X359880Y182495D02*
X357797Y184578D01*
X353632D01*
X351549Y182495D01*
Y180413D01*
X353632Y178330D01*
X357797D01*
X359880Y176247D01*
Y174165D01*
X357797Y172082D01*
X353632D01*
X351549Y174165D01*
X364045Y184578D02*
Y172082D01*
X370293D01*
X372376Y174165D01*
Y182495D01*
X370293Y184578D01*
X364045D01*
X376541Y172082D02*
X380707D01*
X378624D01*
Y184578D01*
X376541Y182495D01*
X444169Y279941D02*
X442087Y282024D01*
X437921D01*
X435839Y279941D01*
Y271611D01*
X437921Y269528D01*
X442087D01*
X444169Y271611D01*
X456665Y269528D02*
X448335D01*
X456665Y277859D01*
Y279941D01*
X454583Y282024D01*
X450417D01*
X448335Y279941D01*
X469161Y269528D02*
X460831D01*
X469161Y277859D01*
Y279941D01*
X467079Y282024D01*
X462913D01*
X460831Y279941D01*
X353502Y256691D02*
X351419Y258774D01*
X347254D01*
X345171Y256691D01*
Y248361D01*
X347254Y246278D01*
X351419D01*
X353502Y248361D01*
X365998Y246278D02*
X357667D01*
X365998Y254609D01*
Y256691D01*
X363915Y258774D01*
X359750D01*
X357667Y256691D01*
X370163Y246278D02*
X374329D01*
X372246D01*
Y258774D01*
X370163Y256691D01*
X392669Y256441D02*
X390587Y258524D01*
X386421D01*
X384339Y256441D01*
Y248111D01*
X386421Y246028D01*
X390587D01*
X392669Y248111D01*
X405165Y246028D02*
X396835D01*
X405165Y254359D01*
Y256441D01*
X403083Y258524D01*
X398917D01*
X396835Y256441D01*
X409331D02*
X411413Y258524D01*
X415579D01*
X417661Y256441D01*
Y248111D01*
X415579Y246028D01*
X411413D01*
X409331Y248111D01*
Y256441D01*
X221211Y377941D02*
X219128Y380024D01*
X214963D01*
X212880Y377941D01*
Y369611D01*
X214963Y367528D01*
X219128D01*
X221211Y369611D01*
X225376Y367528D02*
X229541D01*
X227459D01*
Y380024D01*
X225376Y377941D01*
X235789D02*
X237872Y380024D01*
X242037D01*
X244120Y377941D01*
Y375859D01*
X242037Y373776D01*
X244120Y371693D01*
Y369611D01*
X242037Y367528D01*
X237872D01*
X235789Y369611D01*
Y371693D01*
X237872Y373776D01*
X235789Y375859D01*
Y377941D01*
X237872Y373776D02*
X242037D01*
X525057Y550795D02*
X522974Y552878D01*
X518809D01*
X516726Y550795D01*
Y542465D01*
X518809Y540382D01*
X522974D01*
X525057Y542465D01*
X529222Y540382D02*
X533387D01*
X531305D01*
Y552878D01*
X529222Y550795D01*
X539635Y552878D02*
X547966D01*
Y550795D01*
X539635Y542465D01*
Y540382D01*
X336665Y284539D02*
X338748Y286622D01*
Y290787D01*
X336665Y292870D01*
X328335D01*
X326252Y290787D01*
Y286622D01*
X328335Y284539D01*
X326252Y280374D02*
Y276209D01*
Y278291D01*
X338748D01*
X336665Y280374D01*
X338748Y261630D02*
X336665Y265795D01*
X332500Y269961D01*
X328335D01*
X326252Y267878D01*
Y263713D01*
X328335Y261630D01*
X330417D01*
X332500Y263713D01*
Y269961D01*
X314665Y285289D02*
X316748Y287372D01*
Y291537D01*
X314665Y293620D01*
X306335D01*
X304252Y291537D01*
Y287372D01*
X306335Y285289D01*
X304252Y281124D02*
Y276959D01*
Y279041D01*
X316748D01*
X314665Y281124D01*
X316748Y262380D02*
Y270711D01*
X310500D01*
X312583Y266545D01*
Y264463D01*
X310500Y262380D01*
X306335D01*
X304252Y264463D01*
Y268628D01*
X306335Y270711D01*
X471961Y298191D02*
X469878Y300274D01*
X465713D01*
X463630Y298191D01*
Y289861D01*
X465713Y287778D01*
X469878D01*
X471961Y289861D01*
X476126Y287778D02*
X480291D01*
X478209D01*
Y300274D01*
X476126Y298191D01*
X486539D02*
X488622Y300274D01*
X492787D01*
X494870Y298191D01*
Y296109D01*
X492787Y294026D01*
X490705D01*
X492787D01*
X494870Y291943D01*
Y289861D01*
X492787Y287778D01*
X488622D01*
X486539Y289861D01*
X220211Y351915D02*
X218128Y353998D01*
X213963D01*
X211880Y351915D01*
Y343585D01*
X213963Y341502D01*
X218128D01*
X220211Y343585D01*
X224376Y341502D02*
X228541D01*
X226459D01*
Y353998D01*
X224376Y351915D01*
X243120Y341502D02*
X234789D01*
X243120Y349833D01*
Y351915D01*
X241037Y353998D01*
X236872D01*
X234789Y351915D01*
X473037Y567305D02*
X470955Y569388D01*
X466789D01*
X464707Y567305D01*
Y558975D01*
X466789Y556892D01*
X470955D01*
X473037Y558975D01*
X477203Y556892D02*
X481368D01*
X479285D01*
Y569388D01*
X477203Y567305D01*
X487616Y556892D02*
X491781D01*
X489699D01*
Y569388D01*
X487616Y567305D01*
X442915Y329333D02*
X444998Y331415D01*
Y335581D01*
X442915Y337663D01*
X434585D01*
X432502Y335581D01*
Y331415D01*
X434585Y329333D01*
Y325167D02*
X432502Y323085D01*
Y318919D01*
X434585Y316837D01*
X442915D01*
X444998Y318919D01*
Y323085D01*
X442915Y325167D01*
X440833D01*
X438750Y323085D01*
Y316837D01*
X261277Y525903D02*
X259195Y527986D01*
X255029D01*
X252947Y525903D01*
Y517573D01*
X255029Y515490D01*
X259195D01*
X261277Y517573D01*
X273773Y527986D02*
X269608Y525903D01*
X265443Y521738D01*
Y517573D01*
X267525Y515490D01*
X271691D01*
X273773Y517573D01*
Y519655D01*
X271691Y521738D01*
X265443D01*
X717417Y454941D02*
X715335Y457024D01*
X711169D01*
X709087Y454941D01*
Y446611D01*
X711169Y444528D01*
X715335D01*
X717417Y446611D01*
X729913Y457024D02*
X721583D01*
Y450776D01*
X725748Y452859D01*
X727831D01*
X729913Y450776D01*
Y446611D01*
X727831Y444528D01*
X723665D01*
X721583Y446611D01*
X698309Y30807D02*
X700392Y32889D01*
Y37055D01*
X698309Y39137D01*
X689979D01*
X687896Y37055D01*
Y32889D01*
X689979Y30807D01*
X687896Y20393D02*
X700392D01*
X694144Y26641D01*
Y18311D01*
X852417Y30441D02*
X850335Y32524D01*
X846169D01*
X844087Y30441D01*
Y22111D01*
X846169Y20028D01*
X850335D01*
X852417Y22111D01*
X856583Y30441D02*
X858665Y32524D01*
X862831D01*
X864913Y30441D01*
Y28359D01*
X862831Y26276D01*
X860748D01*
X862831D01*
X864913Y24193D01*
Y22111D01*
X862831Y20028D01*
X858665D01*
X856583Y22111D01*
X537665Y34609D02*
X539748Y36691D01*
Y40857D01*
X537665Y42939D01*
X529335D01*
X527252Y40857D01*
Y36691D01*
X529335Y34609D01*
X527252Y22113D02*
Y30443D01*
X535583Y22113D01*
X537665D01*
X539748Y24195D01*
Y28361D01*
X537665Y30443D01*
X370500Y36441D02*
X368417Y38524D01*
X364252D01*
X362169Y36441D01*
Y28111D01*
X364252Y26028D01*
X368417D01*
X370500Y28111D01*
X374665Y26028D02*
X378831D01*
X376748D01*
Y38524D01*
X374665Y36441D01*
D14*
X207750Y625020D02*
Y662520D01*
X187250D02*
X207750D01*
X187250Y625020D02*
X207750D01*
X187250D02*
Y662520D01*
X107730Y610000D02*
X145230D01*
X107730Y589500D02*
Y610000D01*
X145230Y589500D02*
Y610000D01*
X107730Y589500D02*
X145230D01*
X331000Y296500D02*
X352500D01*
Y335000D01*
X331000Y296500D02*
Y335000D01*
X352500D01*
X180000Y781000D02*
Y802500D01*
Y781000D02*
X218500D01*
X180000Y802500D02*
X218500D01*
Y781000D02*
Y802500D01*
X286980Y814276D02*
X324480D01*
X286980Y793776D02*
Y814276D01*
X324480Y793776D02*
Y814276D01*
X286980Y793776D02*
X324480D01*
X287250Y792766D02*
X324750D01*
X287250Y772266D02*
Y792766D01*
X324750Y772266D02*
Y792766D01*
X287250Y772266D02*
X324750D01*
X210750Y624500D02*
Y662000D01*
Y624500D02*
X231250D01*
X210750Y662000D02*
X231250D01*
Y624500D02*
Y662000D01*
X161250Y625270D02*
Y662770D01*
Y625270D02*
X181750D01*
X161250Y662770D02*
X181750D01*
Y625270D02*
Y662770D01*
X155480Y240750D02*
Y262250D01*
X116980D02*
X155480D01*
X116980Y240750D02*
X155480D01*
X116980D02*
Y262250D01*
X485750Y742276D02*
Y779776D01*
X465250D02*
X485750D01*
X465250Y742276D02*
X485750D01*
X465250D02*
Y779776D01*
X287750Y753310D02*
X325250D01*
Y773810D01*
X287750Y753310D02*
Y773810D01*
X325250D01*
X352000Y742526D02*
Y780026D01*
Y742526D02*
X372500D01*
X352000Y780026D02*
X372500D01*
Y742526D02*
Y780026D01*
X442750Y742256D02*
Y779756D01*
Y742256D02*
X463250D01*
X442750Y779756D02*
X463250D01*
Y742256D02*
Y779756D01*
X420000Y742256D02*
Y779756D01*
Y742256D02*
X440500D01*
X420000Y779756D02*
X440500D01*
Y742256D02*
Y779756D01*
X488250Y742526D02*
Y780026D01*
Y742526D02*
X508750D01*
X488250Y780026D02*
X508750D01*
Y742526D02*
Y780026D01*
X397750Y742276D02*
Y779776D01*
Y742276D02*
X418250D01*
X397750Y779776D02*
X418250D01*
Y742276D02*
Y779776D01*
X374750Y742526D02*
Y780026D01*
Y742526D02*
X395250D01*
X374750Y780026D02*
X395250D01*
Y742526D02*
Y780026D01*
X258326Y396172D02*
X295826D01*
Y416672D01*
X258326Y396172D02*
Y416672D01*
X295826D01*
X180980Y756500D02*
X218480D01*
Y777000D01*
X180980Y756500D02*
Y777000D01*
X218480D01*
X934750Y473026D02*
X972250D01*
Y493526D01*
X934750Y473026D02*
Y493526D01*
X972250D01*
X912500Y494296D02*
Y531796D01*
Y494296D02*
X933000D01*
X912500Y531796D02*
X933000D01*
Y494296D02*
Y531796D01*
X849000Y45796D02*
Y83296D01*
X828500D02*
X849000D01*
X828500Y45796D02*
X849000D01*
X828500D02*
Y83296D01*
X684500Y45046D02*
Y82546D01*
X664000D02*
X684500D01*
X664000Y45046D02*
X684500D01*
X664000D02*
Y82546D01*
X802000Y45796D02*
Y83296D01*
Y45796D02*
X822500D01*
X802000Y83296D02*
X822500D01*
Y45796D02*
Y83296D01*
X642000Y44796D02*
Y82296D01*
Y44796D02*
X662500D01*
X642000Y82296D02*
X662500D01*
Y44796D02*
Y82296D01*
X379250Y45026D02*
Y82526D01*
X358750D02*
X379250D01*
X358750Y45026D02*
X379250D01*
X358750D02*
Y82526D01*
X536500Y46026D02*
Y83526D01*
X516000D02*
X536500D01*
X516000Y46026D02*
X536500D01*
X516000D02*
Y83526D01*
X485500Y46296D02*
Y83796D01*
Y46296D02*
X506000D01*
X485500Y83796D02*
X506000D01*
Y46296D02*
Y83796D01*
X320721Y46264D02*
Y83764D01*
Y46264D02*
X341221D01*
X320721Y83764D02*
X341221D01*
Y46264D02*
Y83764D01*
X149994Y540098D02*
X171494D01*
X149994Y501598D02*
Y540098D01*
X171494Y501598D02*
Y540098D01*
X149994Y501598D02*
X171494D01*
X407296Y269190D02*
X428796D01*
Y307690D01*
X407296Y269190D02*
Y307690D01*
X428796D01*
X356000Y301026D02*
X377500D01*
X356000Y262526D02*
Y301026D01*
X377500Y262526D02*
Y301026D01*
X356000Y262526D02*
X377500D01*
X380750Y301026D02*
X402250D01*
X380750Y262526D02*
Y301026D01*
X402250Y262526D02*
Y301026D01*
X380750Y262526D02*
X402250D01*
X511020Y489276D02*
Y510776D01*
Y489276D02*
X549520D01*
X511020Y510776D02*
X549520D01*
Y489276D02*
Y510776D01*
X294000Y363276D02*
Y384776D01*
X255500D02*
X294000D01*
X255500Y363276D02*
X294000D01*
X255500D02*
Y384776D01*
X510818Y513488D02*
Y534988D01*
Y513488D02*
X549318D01*
X510818Y534988D02*
X549318D01*
Y513488D02*
Y534988D01*
X307750Y335270D02*
X329250D01*
X307750Y296770D02*
Y335270D01*
X329250Y296770D02*
Y335270D01*
X307750Y296770D02*
X329250D01*
X497750Y343276D02*
X519250D01*
X497750Y304776D02*
Y343276D01*
X519250Y304776D02*
Y343276D01*
X497750Y304776D02*
X519250D01*
X464000Y343546D02*
X485500D01*
X464000Y305046D02*
Y343546D01*
X485500Y305046D02*
Y343546D01*
X464000Y305046D02*
X485500D01*
X294000Y337776D02*
Y359276D01*
X255500D02*
X294000D01*
X255500Y337776D02*
X294000D01*
X255500D02*
Y359276D01*
X460750Y531526D02*
Y553026D01*
Y531526D02*
X499250D01*
X460750Y553026D02*
X499250D01*
Y531526D02*
Y553026D01*
X513730Y372026D02*
Y393526D01*
Y372026D02*
X552230D01*
X513730Y393526D02*
X552230D01*
Y372026D02*
Y393526D01*
X407000Y349026D02*
X428500D01*
X407000Y310526D02*
Y349026D01*
X428500Y310526D02*
Y349026D01*
X407000Y310526D02*
X428500D01*
X278500Y508756D02*
X300000D01*
Y547256D01*
X278500Y508756D02*
Y547256D01*
X300000D01*
X738480Y419776D02*
Y441276D01*
X699980D02*
X738480D01*
X699980Y419776D02*
X738480D01*
X699980D02*
Y441276D01*
X644250Y18276D02*
Y39776D01*
Y18276D02*
X682750D01*
X644250Y39776D02*
X682750D01*
Y18276D02*
Y39776D01*
X801750Y16026D02*
Y37526D01*
Y16026D02*
X840250D01*
X801750Y37526D02*
X840250D01*
Y16026D02*
Y37526D01*
X485500Y22776D02*
Y44276D01*
Y22776D02*
X524000D01*
X485500Y44276D02*
X524000D01*
Y22776D02*
Y44276D01*
X320502Y21676D02*
Y43176D01*
Y21676D02*
X359002D01*
X320502Y43176D02*
X359002D01*
Y21676D02*
Y43176D01*
D15*
X153000Y561000D02*
X166500D01*
X447500Y663526D02*
Y677026D01*
X356250Y663276D02*
Y676776D01*
X342750Y131526D02*
Y145026D01*
X816040Y226316D02*
X821118D01*
X818579D01*
Y241551D01*
X816040Y239012D01*
D16*
X442550Y829426D02*
Y834826D01*
X462550Y829426D02*
Y834826D01*
X442550Y829426D02*
X462550D01*
X966000Y520776D02*
Y527776D01*
X955000D02*
X966000D01*
Y498776D02*
Y505776D01*
D17*
X401348Y313776D02*
Y325714D01*
Y301838D02*
Y313776D01*
X357406Y301838D02*
X401250D01*
X357406D02*
Y325714D01*
X401250D01*
X555620Y529456D02*
X575620D01*
Y496456D02*
Y529456D01*
X555620Y496456D02*
Y529456D01*
Y496456D02*
X575620D01*
D18*
X955000Y498776D02*
X966000D01*
M02*
