G04*
G04 #@! TF.GenerationSoftware,Altium Limited,Altium Designer,24.4.1 (13)*
G04*
G04 Layer_Color=32896*
%FSLAX44Y44*%
%MOMM*%
G71*
G04*
G04 #@! TF.SameCoordinates,FF2F9DB4-C514-40A0-8A38-6625478132A2*
G04*
G04*
G04 #@! TF.FilePolarity,Positive*
G04*
G01*
G75*
%ADD10C,0.2000*%
%ADD12C,0.3000*%
%ADD13C,0.2500*%
%ADD15C,0.2540*%
%ADD17C,0.1000*%
%ADD57C,0.5000*%
G36*
X1045720Y742101D02*
X1046081D01*
Y741377D01*
X1046443D01*
Y741016D01*
X1046804D01*
Y740654D01*
X1047166D01*
Y740293D01*
X1047527D01*
Y739931D01*
X1047889D01*
Y739570D01*
X1048251D01*
Y738847D01*
X1048612D01*
Y738485D01*
X1048974D01*
Y738123D01*
X1049335D01*
Y737762D01*
X1049697D01*
Y737400D01*
X1050058D01*
Y737039D01*
X1050420D01*
Y736316D01*
X1050781D01*
Y735954D01*
X1051143D01*
Y735593D01*
X1051504D01*
Y735231D01*
X1051866D01*
Y734870D01*
X1052227D01*
Y734508D01*
X1052589D01*
Y664730D01*
X1024389D01*
Y686061D01*
X999803D01*
Y686423D01*
X999442D01*
Y693653D01*
X999803D01*
Y694377D01*
X1000165D01*
Y695461D01*
X1000527D01*
Y696184D01*
X1000888D01*
Y697269D01*
X1001250D01*
Y698354D01*
X1001611D01*
Y699077D01*
X1001973D01*
Y700161D01*
X1002334D01*
Y700884D01*
X1002696D01*
Y701969D01*
X1003057D01*
Y702692D01*
X1003419D01*
Y703777D01*
X1003780D01*
Y704861D01*
X1004142D01*
Y705584D01*
X1004503D01*
Y706669D01*
X1004865D01*
Y707392D01*
X1005227D01*
Y708477D01*
X1005588D01*
Y709561D01*
X1005950D01*
Y710285D01*
X1006311D01*
Y711369D01*
X1006673D01*
Y712454D01*
X1007034D01*
Y712815D01*
X1024750D01*
Y719685D01*
X1024389D01*
Y720046D01*
X1024027D01*
Y720408D01*
X1023665D01*
Y721131D01*
X1023304D01*
Y721492D01*
X1022942D01*
Y721854D01*
X999803D01*
Y721492D01*
X999442D01*
Y721131D01*
X999080D01*
Y720769D01*
X998719D01*
Y720408D01*
X998357D01*
Y720046D01*
X997996D01*
Y719685D01*
X997634D01*
Y712454D01*
X997273D01*
Y711369D01*
X996911D01*
Y710646D01*
X996550D01*
Y709923D01*
X996188D01*
Y708838D01*
X995826D01*
Y708115D01*
X995465D01*
Y707392D01*
X995103D01*
Y706308D01*
X994742D01*
Y705584D01*
X994380D01*
Y704861D01*
X994019D01*
Y703777D01*
X993657D01*
Y703054D01*
X993296D01*
Y701969D01*
X992934D01*
Y701246D01*
X992572D01*
Y700523D01*
X992211D01*
Y699438D01*
X991849D01*
Y698715D01*
X991488D01*
Y697992D01*
X991126D01*
Y696907D01*
X990765D01*
Y696184D01*
X990403D01*
Y695461D01*
X974495D01*
Y720408D01*
X974134D01*
Y720769D01*
X973772D01*
Y721131D01*
X973411D01*
Y721492D01*
X973049D01*
Y721854D01*
X966903D01*
Y721492D01*
X966180D01*
Y721131D01*
X965818D01*
Y720408D01*
X965456D01*
Y720046D01*
X965095D01*
Y685338D01*
X941956D01*
Y684976D01*
X941595D01*
Y720408D01*
X941233D01*
Y720769D01*
X940872D01*
Y721131D01*
X940510D01*
Y721492D01*
X940148D01*
Y721854D01*
X934002D01*
Y721492D01*
X933641D01*
Y721131D01*
X933279D01*
Y720769D01*
X932917D01*
Y720046D01*
X932556D01*
Y685338D01*
X909055D01*
Y730170D01*
X909417D01*
Y730531D01*
X909779D01*
Y730893D01*
X910140D01*
Y731254D01*
X910863D01*
Y731616D01*
X911225D01*
Y731977D01*
X911586D01*
Y732339D01*
X911948D01*
Y732700D01*
X912671D01*
Y733062D01*
X913033D01*
Y733423D01*
X913394D01*
Y733785D01*
X913756D01*
Y734146D01*
X914479D01*
Y734508D01*
X914840D01*
Y734870D01*
X915202D01*
Y735231D01*
X915563D01*
Y735593D01*
X916286D01*
Y735954D01*
X916648D01*
Y736316D01*
X917010D01*
Y736677D01*
X917733D01*
Y737039D01*
X918094D01*
Y737400D01*
X918456D01*
Y737762D01*
X918817D01*
Y738123D01*
X919540D01*
Y738485D01*
X919902D01*
Y738847D01*
X920263D01*
Y739208D01*
X920625D01*
Y739570D01*
X921348D01*
Y739931D01*
X921710D01*
Y740293D01*
X922071D01*
Y740654D01*
X922433D01*
Y741016D01*
X923156D01*
Y741377D01*
X923517D01*
Y741739D01*
X923879D01*
Y742101D01*
X924240D01*
Y742462D01*
X949910D01*
Y742101D01*
X950272D01*
Y741739D01*
X950633D01*
Y741377D01*
X950995D01*
Y741016D01*
X951356D01*
Y740654D01*
X951718D01*
Y740293D01*
X952079D01*
Y739931D01*
X952441D01*
Y739570D01*
X952803D01*
Y739208D01*
X953164D01*
Y738847D01*
X953887D01*
Y739208D01*
X954249D01*
Y739570D01*
X954610D01*
Y739931D01*
X954972D01*
Y740293D01*
X955333D01*
Y740654D01*
X955695D01*
Y741016D01*
X956056D01*
Y741377D01*
X956418D01*
Y741739D01*
X956779D01*
Y742101D01*
X957141D01*
Y742462D01*
X1045720D01*
Y742101D01*
D02*
G37*
G36*
X960395Y664730D02*
X957141D01*
Y671599D01*
X956779D01*
Y671238D01*
X956418D01*
Y670515D01*
X956056D01*
Y669791D01*
X955695D01*
Y669430D01*
X955333D01*
Y668707D01*
X954972D01*
Y668345D01*
X952441D01*
Y669068D01*
X952079D01*
Y669430D01*
X951718D01*
Y670153D01*
X951356D01*
Y670876D01*
X950995D01*
Y671599D01*
X950272D01*
Y664730D01*
X947018D01*
Y679192D01*
X950633D01*
Y678468D01*
X950995D01*
Y677745D01*
X951356D01*
Y677022D01*
X951718D01*
Y676299D01*
X952079D01*
Y675576D01*
X952441D01*
Y674853D01*
X952803D01*
Y674130D01*
X953164D01*
Y673407D01*
X953526D01*
Y672684D01*
X953887D01*
Y673045D01*
X954249D01*
Y673768D01*
X954610D01*
Y674492D01*
X954972D01*
Y675215D01*
X955333D01*
Y675938D01*
X955695D01*
Y676661D01*
X956056D01*
Y677384D01*
X956418D01*
Y678107D01*
X956779D01*
Y678830D01*
X957141D01*
Y679192D01*
X960395D01*
Y664730D01*
D02*
G37*
G36*
X980641Y678468D02*
X980280D01*
Y677384D01*
X979918D01*
Y675938D01*
X979557D01*
Y674492D01*
X979195D01*
Y673407D01*
X978834D01*
Y671961D01*
X978472D01*
Y670515D01*
X978111D01*
Y669430D01*
X977749D01*
Y667984D01*
X977388D01*
Y666537D01*
X977026D01*
Y665453D01*
X976665D01*
Y664730D01*
X973772D01*
Y665815D01*
X973411D01*
Y666899D01*
X973049D01*
Y667984D01*
X972688D01*
Y669068D01*
X972326D01*
Y670153D01*
X971964D01*
Y671238D01*
X971603D01*
Y671961D01*
X971241D01*
Y671238D01*
X970880D01*
Y670153D01*
X970518D01*
Y669068D01*
X970157D01*
Y667622D01*
X969795D01*
Y666537D01*
X969434D01*
Y665453D01*
X969072D01*
Y664730D01*
X966180D01*
Y665815D01*
X965818D01*
Y666899D01*
X965456D01*
Y668345D01*
X965095D01*
Y669791D01*
X964734D01*
Y670876D01*
X964372D01*
Y672322D01*
X964010D01*
Y673407D01*
X963649D01*
Y674853D01*
X963287D01*
Y676299D01*
X962926D01*
Y677384D01*
X962564D01*
Y678830D01*
X962203D01*
Y679192D01*
X965818D01*
Y678468D01*
X966180D01*
Y677022D01*
X966541D01*
Y675576D01*
X966903D01*
Y674130D01*
X967264D01*
Y672684D01*
X967626D01*
Y671599D01*
X967987D01*
Y672322D01*
X968349D01*
Y673407D01*
X968710D01*
Y674492D01*
X969072D01*
Y675938D01*
X969434D01*
Y677022D01*
X969795D01*
Y678107D01*
X970157D01*
Y679192D01*
X972688D01*
Y678468D01*
X973049D01*
Y677384D01*
X973411D01*
Y676299D01*
X973772D01*
Y674853D01*
X974134D01*
Y673768D01*
X974495D01*
Y672684D01*
X974857D01*
Y671599D01*
X975218D01*
Y672322D01*
X975580D01*
Y673407D01*
X975941D01*
Y675215D01*
X976303D01*
Y676661D01*
X976665D01*
Y678107D01*
X977026D01*
Y679192D01*
X980641D01*
Y678468D01*
D02*
G37*
G36*
X1016434Y664730D02*
X1013181D01*
Y670515D01*
X1007757D01*
Y673407D01*
X1013181D01*
Y676299D01*
X1007034D01*
Y679192D01*
X1016434D01*
Y664730D01*
D02*
G37*
G36*
X1004142D02*
X994742D01*
Y667622D01*
X1000888D01*
Y679192D01*
X1004142D01*
Y664730D01*
D02*
G37*
G36*
X989319Y678830D02*
X990042D01*
Y678468D01*
X990765D01*
Y678107D01*
X991126D01*
Y677745D01*
X991488D01*
Y677384D01*
X991849D01*
Y677022D01*
X992211D01*
Y676299D01*
X992572D01*
Y674853D01*
X992934D01*
Y669430D01*
X992572D01*
Y667622D01*
X992211D01*
Y666899D01*
X991849D01*
Y666537D01*
X991488D01*
Y666176D01*
X991126D01*
Y665815D01*
X990765D01*
Y665453D01*
X990042D01*
Y665091D01*
X989319D01*
Y664730D01*
X985703D01*
Y665091D01*
X984980D01*
Y665453D01*
X984257D01*
Y665815D01*
X983895D01*
Y666176D01*
X983172D01*
Y666899D01*
X982811D01*
Y667261D01*
X982449D01*
Y668345D01*
X982088D01*
Y675576D01*
X982449D01*
Y676661D01*
X982811D01*
Y677384D01*
X983172D01*
Y677745D01*
X983534D01*
Y678107D01*
X984257D01*
Y678468D01*
X984619D01*
Y678830D01*
X985703D01*
Y679192D01*
X989319D01*
Y678830D01*
D02*
G37*
G36*
X943764Y664730D02*
X934002D01*
Y667622D01*
X940510D01*
Y670515D01*
X935087D01*
Y673407D01*
X940510D01*
Y676299D01*
X934002D01*
Y679192D01*
X943764D01*
Y664730D01*
D02*
G37*
G36*
X931110D02*
X921710D01*
Y667622D01*
X927856D01*
Y670515D01*
X922433D01*
Y673407D01*
X927856D01*
Y676299D01*
X921710D01*
Y679192D01*
X931110D01*
Y664730D01*
D02*
G37*
G36*
X919540Y676299D02*
X915925D01*
Y664730D01*
X912671D01*
Y676299D01*
X909055D01*
Y679192D01*
X919540D01*
Y676299D01*
D02*
G37*
%LPC*%
G36*
X988234D02*
X986426D01*
Y675938D01*
X986065D01*
Y675576D01*
X985703D01*
Y675215D01*
Y674853D01*
X985342D01*
Y674492D01*
Y674130D01*
Y673768D01*
Y673407D01*
Y673045D01*
Y672684D01*
Y672322D01*
Y671961D01*
Y671599D01*
Y671238D01*
Y670876D01*
Y670515D01*
Y670153D01*
Y669791D01*
Y669430D01*
Y669068D01*
X985703D01*
Y668707D01*
Y668345D01*
X986065D01*
Y667984D01*
X986426D01*
Y667622D01*
X988234D01*
Y667984D01*
X988957D01*
Y668345D01*
Y668707D01*
X989319D01*
Y669068D01*
Y669430D01*
Y669791D01*
Y670153D01*
Y670515D01*
X989680D01*
Y670876D01*
Y671238D01*
Y671599D01*
Y671961D01*
Y672322D01*
Y672684D01*
Y673045D01*
X989319D01*
Y673407D01*
Y673768D01*
Y674130D01*
Y674492D01*
Y674853D01*
Y675215D01*
X988957D01*
Y675576D01*
Y675938D01*
X988234D01*
Y676299D01*
D02*
G37*
%LPD*%
D10*
X586907Y811115D02*
G03*
X557295Y756462I79343J-78339D01*
G01*
X745587Y654431D02*
G03*
X756641Y667494I-79337J78345D01*
G01*
X756802Y797863D02*
G03*
X745107Y811634I-90556J-65053D01*
G01*
X557638Y708929D02*
G03*
X587250Y654276I108955J23686D01*
G01*
X94000Y780000D02*
G03*
X94000Y780000I-34000J0D01*
G01*
Y60000D02*
G03*
X94000Y60000I-34000J0D01*
G01*
X1034000Y790000D02*
G03*
X1034000Y790000I-34000J0D01*
G01*
Y60000D02*
G03*
X1034000Y60000I-34000J0D01*
G01*
X587250Y811276D02*
X745250Y811776D01*
X587250Y654276D02*
X745250D01*
X757250Y797776D02*
X809000D01*
X757250Y667776D02*
X808750D01*
X809000Y761026D02*
Y797776D01*
X808750Y667776D02*
Y704526D01*
X607500Y733026D02*
X620829D01*
X756250Y734862D02*
X769579D01*
X762915Y728197D02*
Y741526D01*
X66003Y198522D02*
X74000D01*
Y186526D01*
X66003D01*
X74000Y192524D02*
X70001D01*
X62004Y186526D02*
Y194523D01*
X56006D01*
X54006Y192524D01*
Y186526D01*
X48008Y196523D02*
Y194523D01*
X50008D01*
X46009D01*
X48008D01*
Y188525D01*
X46009Y186526D01*
X34013D02*
X38012D01*
X40011Y188525D01*
Y192524D01*
X38012Y194523D01*
X34013D01*
X32014Y192524D01*
Y190525D01*
X40011D01*
X28015Y194523D02*
Y186526D01*
Y190525D01*
X26016Y192524D01*
X24016Y194523D01*
X22017D01*
X759747Y55024D02*
X762246Y57524D01*
X767244D01*
X769743Y55024D01*
Y52525D01*
X767244Y50026D01*
X762246D01*
X759747Y47527D01*
Y45028D01*
X762246Y42528D01*
X767244D01*
X769743Y45028D01*
X754748Y57524D02*
Y42528D01*
X749750Y47527D01*
X744752Y42528D01*
Y57524D01*
X732256Y42528D02*
Y57524D01*
X739753Y50026D01*
X729756D01*
D12*
X1038503Y628689D02*
X1048500D01*
Y621192D01*
X1043502D01*
X1048500D01*
Y613694D01*
X1033505D02*
Y628689D01*
X1028506Y623691D01*
X1023508Y628689D01*
Y613694D01*
X1008513Y626190D02*
X1011012Y628689D01*
X1016011D01*
X1018510Y626190D01*
Y616193D01*
X1016011Y613694D01*
X1011012D01*
X1008513Y616193D01*
X1003515Y621192D02*
X993518D01*
X988519Y626190D02*
X986020Y628689D01*
X981022D01*
X978523Y626190D01*
Y623691D01*
X981022Y621192D01*
X983521D01*
X981022D01*
X978523Y618693D01*
Y616193D01*
X981022Y613694D01*
X986020D01*
X988519Y616193D01*
X963528Y613694D02*
X973524D01*
X963528Y623691D01*
Y626190D01*
X966027Y628689D01*
X971025D01*
X973524Y626190D01*
X958529D02*
X956030Y628689D01*
X951032D01*
X948532Y626190D01*
Y616193D01*
X951032Y613694D01*
X956030D01*
X958529Y616193D01*
Y626190D01*
X943534Y628689D02*
Y616193D01*
X941035Y613694D01*
X936036D01*
X933537Y616193D01*
Y628689D01*
X928539Y621192D02*
X918542D01*
X913544Y613694D02*
Y623691D01*
X908545Y628689D01*
X903547Y623691D01*
Y613694D01*
Y621192D01*
X913544D01*
X898549Y613694D02*
X893550D01*
X896049D01*
Y628689D01*
X898549Y626190D01*
X1048500Y603495D02*
Y593498D01*
X1043502Y588500D01*
X1038503Y593498D01*
Y603495D01*
X1033505Y588500D02*
X1028506D01*
X1031006D01*
Y603495D01*
X1033505Y600996D01*
X1021009Y588500D02*
Y603495D01*
X1013511D01*
X1011012Y600996D01*
Y595998D01*
X1013511Y593498D01*
X1021009D01*
X1016011D02*
X1011012Y588500D01*
X996017D02*
X1006014D01*
X996017Y598497D01*
Y600996D01*
X998516Y603495D01*
X1003515D01*
X1006014Y600996D01*
X991019Y588500D02*
Y603495D01*
X983521D01*
X981022Y600996D01*
Y595998D01*
X983521Y593498D01*
X991019D01*
X986020D02*
X981022Y588500D01*
X976023D02*
X971025D01*
X973524D01*
Y603495D01*
X976023Y600996D01*
X1049750Y654495D02*
Y639500D01*
X1039753D01*
X1027257Y654495D02*
X1032256D01*
X1034755Y651996D01*
Y641999D01*
X1032256Y639500D01*
X1027257D01*
X1024758Y641999D01*
Y651996D01*
X1027257Y654495D01*
X1019760D02*
X1009763D01*
X1014761D01*
Y639500D01*
X994768Y654495D02*
X1004765D01*
Y639500D01*
X994768D01*
X1004765Y646998D02*
X999766D01*
X964778Y639500D02*
X974774D01*
X964778Y649497D01*
Y651996D01*
X967277Y654495D01*
X972275D01*
X974774Y651996D01*
X952282Y639500D02*
Y654495D01*
X959779Y646998D01*
X949782D01*
X944784Y639500D02*
X939786D01*
X942285D01*
Y654495D01*
X944784Y651996D01*
X932288D02*
X929789Y654495D01*
X924790D01*
X922291Y651996D01*
Y641999D01*
X924790Y639500D01*
X929789D01*
X932288Y641999D01*
Y651996D01*
X907296Y639500D02*
X917293D01*
X907296Y649497D01*
Y651996D01*
X909795Y654495D01*
X914794D01*
X917293Y651996D01*
X892301Y639500D02*
X902298D01*
X892301Y649497D01*
Y651996D01*
X894800Y654495D01*
X899799D01*
X902298Y651996D01*
X601497Y55524D02*
X603996Y58024D01*
X608994D01*
X611493Y55524D01*
Y53025D01*
X608994Y50526D01*
X603996D01*
X601497Y48027D01*
Y45528D01*
X603996Y43028D01*
X608994D01*
X611493Y45528D01*
X596498Y58024D02*
Y43028D01*
X591500Y48027D01*
X586502Y43028D01*
Y58024D01*
X581503Y55524D02*
X579004Y58024D01*
X574006D01*
X571507Y55524D01*
Y53025D01*
X574006Y50526D01*
X576505D01*
X574006D01*
X571507Y48027D01*
Y45528D01*
X574006Y43028D01*
X579004D01*
X581503Y45528D01*
X439247Y55524D02*
X441746Y58024D01*
X446744D01*
X449244Y55524D01*
Y53025D01*
X446744Y50526D01*
X441746D01*
X439247Y48027D01*
Y45528D01*
X441746Y43028D01*
X446744D01*
X449244Y45528D01*
X434248Y58024D02*
Y43028D01*
X429250Y48027D01*
X424252Y43028D01*
Y58024D01*
X409257Y43028D02*
X419253D01*
X409257Y53025D01*
Y55524D01*
X411756Y58024D01*
X416754D01*
X419253Y55524D01*
X277997Y55274D02*
X280497Y57774D01*
X285495D01*
X287994Y55274D01*
Y52775D01*
X285495Y50276D01*
X280497D01*
X277997Y47777D01*
Y45278D01*
X280497Y42778D01*
X285495D01*
X287994Y45278D01*
X272999Y57774D02*
Y42778D01*
X268001Y47777D01*
X263002Y42778D01*
Y57774D01*
X258004Y42778D02*
X253006D01*
X255505D01*
Y57774D01*
X258004Y55274D01*
D13*
X792250Y90276D02*
G03*
X792250Y90276I-1250J0D01*
G01*
X632250D02*
G03*
X632250Y90276I-1250J0D01*
G01*
X472250D02*
G03*
X472250Y90276I-1250J0D01*
G01*
X312250D02*
G03*
X312250Y90276I-1250J0D01*
G01*
X91500Y672517D02*
Y685013D01*
X85252D01*
X83169Y682931D01*
Y678765D01*
X85252Y676683D01*
X91500D01*
X79004Y685013D02*
Y672517D01*
X72756D01*
X70673Y674600D01*
Y682931D01*
X72756Y685013D01*
X79004D01*
X58177Y672517D02*
X66508D01*
X58177Y680848D01*
Y682931D01*
X60260Y685013D01*
X64425D01*
X66508Y682931D01*
X91500Y647509D02*
Y660005D01*
X85252D01*
X83169Y657922D01*
Y653757D01*
X85252Y651674D01*
X91500D01*
X79004Y660005D02*
Y647509D01*
X72756D01*
X70673Y649591D01*
Y657922D01*
X72756Y660005D01*
X79004D01*
X66508Y657922D02*
X64425Y660005D01*
X60260D01*
X58177Y657922D01*
Y655839D01*
X60260Y653757D01*
X62343D01*
X60260D01*
X58177Y651674D01*
Y649591D01*
X60260Y647509D01*
X64425D01*
X66508Y649591D01*
X91500Y622500D02*
Y634996D01*
X85252D01*
X83169Y632913D01*
Y628748D01*
X85252Y626665D01*
X91500D01*
X79004Y634996D02*
Y622500D01*
X72756D01*
X70673Y624583D01*
Y632913D01*
X72756Y634996D01*
X79004D01*
X60260Y622500D02*
Y634996D01*
X66508Y628748D01*
X58177D01*
X91500Y697526D02*
Y710022D01*
X85252D01*
X83169Y707939D01*
Y703774D01*
X85252Y701691D01*
X91500D01*
X79004Y710022D02*
Y697526D01*
X72756D01*
X70673Y699609D01*
Y707939D01*
X72756Y710022D01*
X79004D01*
X66508Y697526D02*
X62343D01*
X64425D01*
Y710022D01*
X66508Y707939D01*
X95669Y284689D02*
X97752Y286772D01*
X101917D01*
X104000Y284689D01*
Y276359D01*
X101917Y274276D01*
X97752D01*
X95669Y276359D01*
Y280524D01*
X99835D01*
X91504Y274276D02*
Y286772D01*
X83173Y274276D01*
Y286772D01*
X79008D02*
Y274276D01*
X72760D01*
X70677Y276359D01*
Y284689D01*
X72760Y286772D01*
X79008D01*
X73500Y173996D02*
Y163583D01*
X71417Y161500D01*
X67252D01*
X65169Y163583D01*
Y173996D01*
X61004Y161500D02*
Y173996D01*
X54756D01*
X52673Y171913D01*
Y167748D01*
X54756Y165665D01*
X61004D01*
X65169Y227022D02*
X73500D01*
Y214526D01*
X65169D01*
X73500Y220774D02*
X69335D01*
X61004Y214526D02*
X54756D01*
X52673Y216609D01*
X54756Y218691D01*
X58921D01*
X61004Y220774D01*
X58921Y222857D01*
X52673D01*
X40177D02*
X46425D01*
X48508Y220774D01*
Y216609D01*
X46425Y214526D01*
X40177D01*
X73500Y251772D02*
Y239276D01*
X67252D01*
X65169Y241359D01*
Y249689D01*
X67252Y251772D01*
X73500D01*
X61004D02*
Y243441D01*
X56839Y239276D01*
X52673Y243441D01*
Y251772D01*
X48508D02*
Y239276D01*
X42260D01*
X40177Y241359D01*
Y249689D01*
X42260Y251772D01*
X48508D01*
X36012D02*
Y239276D01*
X29764D01*
X27682Y241359D01*
Y249689D01*
X29764Y251772D01*
X36012D01*
X163750Y287272D02*
Y274776D01*
X157502D01*
X155419Y276859D01*
Y285189D01*
X157502Y287272D01*
X163750D01*
X151254D02*
Y278941D01*
X147089Y274776D01*
X142923Y278941D01*
Y287272D01*
X138758D02*
Y274776D01*
X132510D01*
X130428Y276859D01*
Y285189D01*
X132510Y287272D01*
X138758D01*
X126262D02*
Y274776D01*
X120014D01*
X117931Y276859D01*
Y285189D01*
X120014Y287272D01*
X126262D01*
X73500Y151272D02*
Y138776D01*
X67252D01*
X65169Y140859D01*
Y149189D01*
X67252Y151272D01*
X73500D01*
X58921Y138776D02*
X54756D01*
X52673Y140859D01*
Y145024D01*
X54756Y147107D01*
X58921D01*
X61004Y145024D01*
Y140859D01*
X58921Y138776D01*
X48508Y147107D02*
Y140859D01*
X46425Y138776D01*
X44343Y140859D01*
X42260Y138776D01*
X40177Y140859D01*
Y147107D01*
X36012Y138776D02*
Y147107D01*
X29764D01*
X27682Y145024D01*
Y138776D01*
X65169Y122689D02*
X67252Y124772D01*
X71417D01*
X73500Y122689D01*
Y114359D01*
X71417Y112276D01*
X67252D01*
X65169Y114359D01*
Y118524D01*
X69335D01*
X61004Y112276D02*
Y124772D01*
X52673Y112276D01*
Y124772D01*
X48508D02*
Y112276D01*
X42260D01*
X40177Y114359D01*
Y122689D01*
X42260Y124772D01*
X48508D01*
X78000Y403026D02*
X73835D01*
X75917D01*
Y415522D01*
X78000Y413439D01*
X67587D02*
X65504Y415522D01*
X61339D01*
X59256Y413439D01*
Y405109D01*
X61339Y403026D01*
X65504D01*
X67587Y405109D01*
Y413439D01*
X78000Y504776D02*
X73835D01*
X75917D01*
Y517272D01*
X78000Y515189D01*
X67587D02*
X65504Y517272D01*
X61339D01*
X59256Y515189D01*
Y513107D01*
X61339Y511024D01*
X59256Y508941D01*
Y506859D01*
X61339Y504776D01*
X65504D01*
X67587Y506859D01*
Y508941D01*
X65504Y511024D01*
X67587Y513107D01*
Y515189D01*
X65504Y511024D02*
X61339D01*
X78000Y428276D02*
X73835D01*
X75917D01*
Y440772D01*
X78000Y438689D01*
X59256Y428276D02*
X67587D01*
X59256Y436607D01*
Y438689D01*
X61339Y440772D01*
X65504D01*
X67587Y438689D01*
X78000Y453276D02*
X73835D01*
X75917D01*
Y465772D01*
X78000Y463689D01*
X61339Y453276D02*
Y465772D01*
X67587Y459524D01*
X59256D01*
X78000Y479526D02*
X73835D01*
X75917D01*
Y492022D01*
X78000Y489939D01*
X59256Y492022D02*
X63421Y489939D01*
X67587Y485774D01*
Y481609D01*
X65504Y479526D01*
X61339D01*
X59256Y481609D01*
Y483691D01*
X61339Y485774D01*
X67587D01*
X69669Y528026D02*
X78000D01*
X69669Y536357D01*
Y538439D01*
X71752Y540522D01*
X75917D01*
X78000Y538439D01*
X65504D02*
X63421Y540522D01*
X59256D01*
X57173Y538439D01*
Y530109D01*
X59256Y528026D01*
X63421D01*
X65504Y530109D01*
Y538439D01*
X69669Y300276D02*
X78000D01*
X69669Y308607D01*
Y310689D01*
X71752Y312772D01*
X75917D01*
X78000Y310689D01*
X71752Y327026D02*
Y339522D01*
X78000Y333274D01*
X69669D01*
X78000Y387439D02*
X75917Y389522D01*
X71752D01*
X69669Y387439D01*
Y385357D01*
X71752Y383274D01*
X69669Y381191D01*
Y379109D01*
X71752Y377026D01*
X75917D01*
X78000Y379109D01*
Y381191D01*
X75917Y383274D01*
X78000Y385357D01*
Y387439D01*
X75917Y383274D02*
X71752D01*
X69669Y365522D02*
X73835Y363439D01*
X78000Y359274D01*
Y355109D01*
X75917Y353026D01*
X71752D01*
X69669Y355109D01*
Y357191D01*
X71752Y359274D01*
X78000D01*
X856579Y812248D02*
Y799752D01*
X850331D01*
X848248Y801835D01*
Y803917D01*
X850331Y806000D01*
X856579D01*
X850331D01*
X848248Y808083D01*
Y810165D01*
X850331Y812248D01*
X856579D01*
X844083D02*
Y799752D01*
Y806000D01*
X835752D01*
Y812248D01*
Y799752D01*
X831587D02*
X827421D01*
X829504D01*
Y812248D01*
X831587Y810165D01*
X849325Y828165D02*
X851407Y830248D01*
X855573D01*
X857655Y828165D01*
Y819835D01*
X855573Y817752D01*
X851407D01*
X849325Y819835D01*
X845159Y817752D02*
Y830248D01*
X838911D01*
X836829Y828165D01*
Y824000D01*
X838911Y821917D01*
X845159D01*
X840994D02*
X836829Y817752D01*
X824333D02*
X832663D01*
X824333Y826083D01*
Y828165D01*
X826415Y830248D01*
X830581D01*
X832663Y828165D01*
X820167D02*
X818085Y830248D01*
X813919D01*
X811837Y828165D01*
Y819835D01*
X813919Y817752D01*
X818085D01*
X820167Y819835D01*
Y828165D01*
X807671D02*
X805589Y830248D01*
X801423D01*
X799341Y828165D01*
Y826083D01*
X801423Y824000D01*
X803506D01*
X801423D01*
X799341Y821917D01*
Y819835D01*
X801423Y817752D01*
X805589D01*
X807671Y819835D01*
X786845Y817752D02*
X795175D01*
X786845Y826083D01*
Y828165D01*
X788927Y830248D01*
X793093D01*
X795175Y828165D01*
X398589Y811450D02*
Y798954D01*
X390258D01*
X386093Y811450D02*
Y798954D01*
X379845D01*
X377762Y801037D01*
Y809367D01*
X379845Y811450D01*
X386093D01*
X373597Y798954D02*
X369431D01*
X371514D01*
Y811450D01*
X373597Y809367D01*
X310327Y810774D02*
X318657D01*
Y798278D01*
X310327D01*
X318657Y804526D02*
X314492D01*
X306161Y798278D02*
Y810774D01*
X299913D01*
X297831Y808691D01*
Y804526D01*
X299913Y802443D01*
X306161D01*
X301996D02*
X297831Y798278D01*
X293665D02*
Y810774D01*
X287417D01*
X285335Y808691D01*
Y804526D01*
X287417Y802443D01*
X293665D01*
X289500D02*
X285335Y798278D01*
X274921Y810774D02*
X279087D01*
X281169Y808691D01*
Y800361D01*
X279087Y798278D01*
X274921D01*
X272839Y800361D01*
Y808691D01*
X274921Y810774D01*
X268673Y798278D02*
Y810774D01*
X262425D01*
X260343Y808691D01*
Y804526D01*
X262425Y802443D01*
X268673D01*
X264508D02*
X260343Y798278D01*
X403973Y790114D02*
Y777618D01*
X395643D01*
X391477Y790114D02*
Y777618D01*
X385229D01*
X383147Y779701D01*
Y788031D01*
X385229Y790114D01*
X391477D01*
X370651Y777618D02*
X378981D01*
X370651Y785949D01*
Y788031D01*
X372733Y790114D01*
X376899D01*
X378981Y788031D01*
X318661Y777278D02*
Y789774D01*
X312413D01*
X310331Y787691D01*
Y783526D01*
X312413Y781443D01*
X318661D01*
X314496D02*
X310331Y777278D01*
X306165Y789774D02*
Y779361D01*
X304083Y777278D01*
X299917D01*
X297835Y779361D01*
Y789774D01*
X293669Y777278D02*
Y789774D01*
X285339Y777278D01*
Y789774D01*
X403465Y769540D02*
Y757044D01*
X395135D01*
X390969Y769540D02*
Y757044D01*
X384721D01*
X382639Y759127D01*
Y767457D01*
X384721Y769540D01*
X390969D01*
X378473Y767457D02*
X376391Y769540D01*
X372225D01*
X370143Y767457D01*
Y765375D01*
X372225Y763292D01*
X374308D01*
X372225D01*
X370143Y761209D01*
Y759127D01*
X372225Y757044D01*
X376391D01*
X378473Y759127D01*
D15*
X815000Y605276D02*
X850040D01*
X815000Y235276D02*
X850040D01*
Y605276D01*
X209960D02*
X245000D01*
X209960Y235276D02*
X245000D01*
X209960D02*
Y605276D01*
X705000Y85276D02*
X795000D01*
X705000Y15276D02*
Y85276D01*
Y15276D02*
X795000D01*
Y85276D01*
X545000D02*
X635000D01*
X545000Y15276D02*
Y85276D01*
Y15276D02*
X635000D01*
Y85276D01*
X385000D02*
X475000D01*
X385000Y15276D02*
Y85276D01*
Y15276D02*
X475000D01*
Y85276D01*
X225000D02*
X315000D01*
X225000Y15276D02*
Y85276D01*
Y15276D02*
X315000D01*
Y85276D01*
X309740Y769104D02*
X312279Y771644D01*
X317357D01*
X319896Y769104D01*
Y766565D01*
X317357Y764026D01*
X312279D01*
X309740Y761487D01*
Y758948D01*
X312279Y756408D01*
X317357D01*
X319896Y758948D01*
X294505Y769104D02*
X297044Y771644D01*
X302122D01*
X304661Y769104D01*
Y758948D01*
X302122Y756408D01*
X297044D01*
X294505Y758948D01*
Y764026D01*
X299583D01*
X289426Y771644D02*
X284348D01*
X286887D01*
Y756408D01*
X289426D01*
X284348D01*
X276730D02*
Y771644D01*
X266574Y756408D01*
Y771644D01*
X261495Y756408D02*
Y766565D01*
X256417Y771644D01*
X251339Y766565D01*
Y756408D01*
Y764026D01*
X261495D01*
X246260Y771644D02*
Y756408D01*
X236103D01*
X848830Y639081D02*
Y623846D01*
X838673D01*
X823438Y636542D02*
X825977Y639081D01*
X831056D01*
X833595Y636542D01*
Y626385D01*
X831056Y623846D01*
X825977D01*
X823438Y626385D01*
X818360Y639081D02*
Y623846D01*
X810742D01*
X808203Y626385D01*
Y636542D01*
X810742Y639081D01*
X818360D01*
X803125Y623846D02*
X798046D01*
X800586D01*
Y639081D01*
X803125Y636542D01*
X982407Y372644D02*
Y357408D01*
X974789D01*
X972250Y359948D01*
Y370104D01*
X974789Y372644D01*
X982407D01*
X967172Y357408D02*
X962093D01*
X964632D01*
Y372644D01*
X967172Y370104D01*
D17*
X332750Y795526D02*
Y813526D01*
Y795526D02*
X365750D01*
X332750Y813526D02*
X365750D01*
Y795526D02*
Y813526D01*
X362750Y795526D02*
Y813526D01*
X333000Y774776D02*
Y792776D01*
Y774776D02*
X366000D01*
X333000Y792776D02*
X366000D01*
Y774776D02*
Y792776D01*
X363000Y774776D02*
Y792776D01*
X332750Y754776D02*
Y772776D01*
Y754776D02*
X365750D01*
X332750Y772776D02*
X365750D01*
Y754776D02*
Y772776D01*
X362750Y754776D02*
Y772776D01*
D57*
X748452Y102606D02*
X769915Y124069D01*
X726989D02*
X748452Y102606D01*
X584464Y128958D02*
X605927Y107495D01*
X563001D02*
X584464Y128958D01*
X417254Y137202D02*
X438590Y115866D01*
X417000Y94276D02*
X438590Y115866D01*
X285589Y122018D02*
X302250D01*
Y97026D01*
X285589D01*
X302250Y109522D02*
X293919D01*
X277258Y97026D02*
X264762D01*
X260597Y101191D01*
X264762Y105357D01*
X273093D01*
X277258Y109522D01*
X273093Y113687D01*
X260597D01*
X235605D02*
X248101D01*
X252266Y109522D01*
Y101191D01*
X248101Y97026D01*
X235605D01*
M02*
