M48
;Layer_Color=9474304
;FILE_FORMAT=4:4
METRIC,TZ
;TYPE=PLATED
T01F00S00C0.3000
T02F00S00C0.7000
T03F00S00C0.7112
T04F00S00C1.0000
T05F00S00C1.0200
T06F00S00C1.1000
T07F00S00C3.6000
%
T01
X349000Y45526
X346000Y54776
X357250Y53526
X359750Y124776
X344250Y123026
X288000Y106750
X353000Y271776
X345500Y341526
X320750Y384776
X284188Y387626
X276822Y393722
X258280Y388134
X247450Y393976
X251168Y377466
X252184Y369592
X266000Y361776
X252250Y347776
X162522Y384324
X154140Y393976
X144750Y377276
X162000Y251500
X403750Y272526
X405000Y319776
X403000Y338526
X396964Y347494
X437247Y348177
X461500Y335776
Y315026
X491500Y315036
X493250Y343026
X484250Y348026
X489750Y375026
X471894Y381530
X463258
X456654Y391380
X442500Y384526
X402044Y391182
X418000Y308401
X504250Y296526
X511250Y291526
X511000Y360526
X560229Y381776
X578000Y384776
Y350276
X569938Y315490
X617250Y359276
X634000Y355000
X638000Y385000
X719750Y379776
X728750
X734276Y368576
X731000Y396276
X637502Y156740
X590500Y87526
X554952Y115846
X513804Y137436
X504152Y156486
X478244Y168678
X462250Y102526
X510750Y55276
X514750Y45776
X538000Y54526
X638500Y40276
X684500Y29026
X687250Y53526
X800000Y54276
X838500Y44776
X830000Y14776
X794728Y168678
X797000Y312026
X808952Y368576
X964750Y416526
X922744Y469922
X944000Y533776
X824700Y734590
X785750Y541026
X785500Y521526
X722750Y509026
X694250Y430526
X720000Y403026
X746750Y421526
X778250Y433026
X780338Y445438
X639788Y463572
X640000Y410276
X543750Y437526
X548000Y449026
X554250Y456026
X555000Y490276
X553250Y530776
X506438Y522754
X489250Y524776
X478000Y501250
X465798Y492782
X460000Y498026
X457250Y451526
X466500Y429776
X464250Y415776
X454250Y423526
X449250Y408776
X439250Y400526
X413750Y409026
X413000Y470026
X453606Y542820
X467250Y621776
X483062Y635776
X467250Y657526
X456654Y657374
X445732Y657120
X483062Y689132
X403250Y629026
X580860Y641626
X507328Y493026
X526601Y444627
X530750Y432376
X521170Y430298
X516250Y423276
X511000Y416026
X507000Y407526
X368750Y460026
X359500Y499026
X333250Y508026
X303600Y510200
X292000Y499026
X289500Y552776
X359500Y543776
X366992Y547392
X378500Y553504
X387000
X352500Y532776
Y622276
X342750Y629026
X327500Y635776
X301714Y651786
X354800Y670328
X367500Y658644
X391376Y641626
Y688870
X363500Y700026
X328250Y764026
X329250Y782526
X296250Y749026
X241770Y782850
X222750Y791500
X224500Y766750
X189750Y753250
X192750Y612000
X186000Y596750
X163000Y599250
X150250Y574500
X192000Y572500
X186750Y563500
X202000Y581750
X170400Y542566
X148250Y529250
X176750Y457000
X187000Y465000
X193250Y472000
X201550Y475500
X254000Y427276
X254750Y411276
X253962Y400072
X264122Y434616
X298500Y448526
X301206Y410994
X160490Y408454
X146012Y426996
X266154Y794026
X328250Y804526
T02
X414450Y803076
Y815776
X427150
Y803076
X439850
Y815776
X452550
Y803076
X465250
Y815776
X477950
Y803076
X490650
Y815776
T03
X192250Y307500
X300250Y306750
T04
X237500Y27776
Y72776
X302500
Y27776
X122700Y305700
X97300
Y331100
X122700
Y356500
X97300
Y381900
X122700
X397500Y72776
Y27776
X462500
Y72776
X557500
Y27776
X622500
Y72776
X717500
Y27776
X782500
Y72776
X122700Y407300
X97300
Y432700
X122700
Y458100
X97300
Y483500
X122700
Y508900
X97300
Y534300
X122700
T05
X97500Y124600
Y150000
Y175400
Y200800
Y226200
Y251600
X117000Y628050
Y653450
Y678850
Y704250
X142400
Y678850
Y653450
Y628050
T06
X263300Y233776
X288700
X314100
X339500
X364900
X390300
X415700
X441100
X466500
X491900
X517300
X542700
X568100
X593500
X618900
X644300
X669700
X695100
X720500
X745900
X771300
X796700
Y606776
X771300
X745900
X720500
X695100
X669700
X644300
X618900
X593500
X568100
X542700
X517300
X491900
X466500
X441100
X415700
X390300
X364900
X339500
X314100
X288700
X263300
T07
X60000Y60000
X1000000
Y790000
X60000Y780000
M30
