M48
;Layer_Color=9474304
;FILE_FORMAT=2:5
INCH,LZ
;TYPE=PLATED
T1F00S00C0.01181
T2F00S00C0.01772
T3F00S00C0.01968
T4F00S00C0.03150
T5F00S00C0.04016
T6F00S00C0.04331
T7F00S00C0.04528
T8F00S00C0.04724
T9F00S00C0.05118
T10F00S00C0.05118
T11F00S00C0.14173
;TYPE=NON_PLATED
T12F00S00C0.12992
T13F00S00C0.13386
%
T01
X0168012Y0272638
X0244209Y0252488
X0245079Y0244086
X0113169Y0224378
X0149409Y0318799
T02
X0023524Y007687
X0024213Y0091232
X0028642Y0098819
X0052461Y0089468
X0057087Y0087795
X0079134Y0087598
X0058465Y0113386
X0071358Y0138484
X0064764Y004439
X0279051Y0136236
X012015Y0246374
X0113063Y0250705
X0107945Y0237713
X0096331Y0257791
T03
X0058661Y0104626
X0242913Y0134744
X0316535Y03
X0305331Y0256524
X0253602Y0274398
X0236138Y0270205
X0216154Y0244697
X0187795Y026765
X0185236Y0175689
X017687Y0165453
X0168996Y0185531
X0161417Y0196063
X0200394Y0180709
X0208661Y0170079
X0279051Y0158744
X0153543Y0209449
X0133071Y0214173
Y0190157
X0140917Y0246669
X0125169Y0246878
X0127532Y0276264
X0119882Y0277953
X0140819Y0270587
X0096949Y0302658
T04
X0153543Y0141732
X0161417
X0169291
X0177165
X0185039
X0192913
X0200787
X0208661
Y0236221
X0200787
X0192913
X0185039
X0177165
X0169291
X0161417
X0153543
T05
X0062047Y0014075
X0072047
X0072106Y0026969
X0062106
X0360844Y0010066
X0370844
X0196358Y0261634
Y0271634
X0180685Y0292874
Y0302874
X0170685
Y0292874
X0074902Y0298957
Y0308957
Y0318957
X0170685Y0322874
X0180685
Y0312874
X0170685
T06
X0038307Y0120354
Y0130354
Y0140354
Y0150354
X0048307
Y0140354
Y0130354
Y0120354
Y0160354
Y0170354
Y0180354
Y0190354
Y0200354
Y0210354
X0038307
Y0200354
Y0190354
Y0180354
Y0170354
Y0160354
T07
X0243032Y0141417
Y0151417
X0253031
X0253071Y0141319
X0253031Y0161417
Y0171417
X0243032
Y0161417
Y0181417
X0253031
T08
X0101772Y0038462
Y0097478
T09
X0027264Y0277461
X0138917Y030315
T10
X0251831Y030315
X0266831
X028876
X030376
X0123917
X0108917
X0027264Y0262461
Y0247461
T11
X0023622Y0023622
X0393701
Y0311024
X0023622Y0307087
T12
X020878Y0038462
Y0097478
T13
X020878Y006797
M30
