G04*
G04 #@! TF.GenerationSoftware,Altium Limited,Altium Designer,20.2.4 (192)*
G04*
G04 Layer_Color=255*
%FSLAX44Y44*%
%MOMM*%
G71*
G04*
G04 #@! TF.SameCoordinates,03AB348B-DD29-4870-A44B-8DF697E34D15*
G04*
G04*
G04 #@! TF.FilePolarity,Positive*
G04*
G01*
G75*
%ADD70R,1.7000X1.7000*%
%ADD71C,1.7000*%
%ADD72R,1.7000X1.7000*%
%ADD73C,2.0000*%
%ADD74R,2.0000X2.0000*%
%ADD75R,2.0000X2.0000*%
%ADD76P,2.4042X4X180.0*%
%ADD77C,1.7250*%
%ADD78R,1.7250X1.7250*%
%ADD79P,2.4042X4X90.0*%
%ADD80C,3.0000*%
%ADD81C,6.0000*%
%ADD82C,3.4500*%
%ADD84R,2.8000X5.7000*%
%ADD85R,3.8000X3.5000*%
D70*
X156750Y577700D02*
D03*
X383540Y821690D02*
D03*
X72700Y305700D02*
D03*
X416750Y607550D02*
D03*
D71*
X156750Y552300D02*
D03*
X451500Y548750D02*
D03*
X408940Y821690D02*
D03*
X383540Y796290D02*
D03*
X408940D02*
D03*
X383540Y770890D02*
D03*
X408940D02*
D03*
X383540Y745490D02*
D03*
X408940D02*
D03*
X319600Y318500D02*
D03*
X74250Y82750D02*
D03*
X47300Y305700D02*
D03*
X72700Y331100D02*
D03*
X47300D02*
D03*
X72700Y356500D02*
D03*
X47300D02*
D03*
X72700Y381900D02*
D03*
X47300D02*
D03*
X72700Y407300D02*
D03*
X47300D02*
D03*
X72700Y432700D02*
D03*
X47300D02*
D03*
X72700Y458100D02*
D03*
X47300D02*
D03*
X72700Y483500D02*
D03*
X47300D02*
D03*
X72700Y508900D02*
D03*
X47300D02*
D03*
X72700Y534300D02*
D03*
X47300D02*
D03*
X174750Y39250D02*
D03*
X96700Y778690D02*
D03*
X416750Y632950D02*
D03*
X78740Y760730D02*
D03*
D72*
X426100Y548750D02*
D03*
X345000Y318500D02*
D03*
X149350Y39250D02*
D03*
D73*
X848360Y221900D02*
D03*
Y260000D02*
D03*
X265000Y759460D02*
D03*
X303100D02*
D03*
X75000Y614000D02*
D03*
Y652100D02*
D03*
X633730Y759460D02*
D03*
X740410D02*
D03*
D74*
X848360Y298100D02*
D03*
X75000Y575900D02*
D03*
D75*
X226900Y759460D02*
D03*
X702310D02*
D03*
X595630D02*
D03*
D76*
X92211Y64790D02*
D03*
D77*
X567300Y460800D02*
D03*
Y359200D02*
D03*
X592700Y460800D02*
D03*
X567300Y435400D02*
D03*
Y384600D02*
D03*
Y410000D02*
D03*
X592700Y435400D02*
D03*
Y384600D02*
D03*
Y410000D02*
D03*
D78*
X592800Y358950D02*
D03*
D79*
X60780Y742769D02*
D03*
D80*
X251440Y83190D02*
D03*
Y210190D02*
D03*
D81*
X150000Y150000D02*
D03*
X810000Y690000D02*
D03*
Y150000D02*
D03*
X150000Y690000D02*
D03*
D82*
X337840Y170190D02*
D03*
X637540Y123190D02*
D03*
D84*
X483750Y40750D02*
D03*
D85*
Y265750D02*
D03*
M02*
