G04*
G04 #@! TF.GenerationSoftware,Altium Limited,Altium Designer,20.2.4 (192)*
G04*
G04 Layer_Physical_Order=2*
G04 Layer_Color=16711680*
%FSLAX44Y44*%
%MOMM*%
G71*
G04*
G04 #@! TF.SameCoordinates,03AB348B-DD29-4870-A44B-8DF697E34D15*
G04*
G04*
G04 #@! TF.FilePolarity,Positive*
G04*
G01*
G75*
%ADD10C,0.2000*%
%ADD17C,0.5000*%
%ADD18C,0.2540*%
%ADD67C,1.5000*%
%ADD70R,1.7000X1.7000*%
%ADD71C,1.7000*%
%ADD72R,1.7000X1.7000*%
%ADD73C,2.0000*%
%ADD74R,2.0000X2.0000*%
%ADD75R,2.0000X2.0000*%
%ADD76P,2.4042X4X180.0*%
%ADD77C,1.7250*%
%ADD78R,1.7250X1.7250*%
%ADD79P,2.4042X4X90.0*%
%ADD80C,3.0000*%
%ADD81C,6.0000*%
%ADD82C,3.4500*%
%ADD83C,0.6000*%
%ADD84R,2.8000X5.7000*%
%ADD85R,3.8000X3.5000*%
G36*
X959951Y721444D02*
Y123556D01*
X841444Y5049D01*
X122556D01*
X5049Y122556D01*
Y189088D01*
X7049Y190190D01*
X7480Y190104D01*
Y195500D01*
Y200896D01*
X7049Y200810D01*
X5049Y201912D01*
Y212421D01*
X7049Y213640D01*
X7230Y213604D01*
Y219000D01*
Y224396D01*
X7049Y224360D01*
X5049Y225579D01*
Y259588D01*
X7049Y260690D01*
X7480Y260604D01*
Y266000D01*
Y271396D01*
X7049Y271310D01*
X5049Y272412D01*
Y721444D01*
X123556Y839951D01*
X841444Y839951D01*
X959951Y721444D01*
D02*
G37*
%LPC*%
G36*
X394040Y832190D02*
X373040D01*
Y811584D01*
X330286D01*
X330105Y811855D01*
X328451Y812960D01*
X326500Y813348D01*
X324549Y812960D01*
X322895Y811855D01*
X321790Y810201D01*
X321402Y808250D01*
X321790Y806299D01*
X322895Y804645D01*
X324549Y803540D01*
X326500Y803152D01*
X328451Y803540D01*
X330105Y804645D01*
X330286Y804916D01*
X374403D01*
X375389Y802916D01*
X374368Y801585D01*
X373310Y799031D01*
X372949Y796290D01*
X373310Y793549D01*
X374368Y790995D01*
X375451Y789584D01*
X374464Y787584D01*
X318036D01*
X317855Y787855D01*
X316201Y788960D01*
X314250Y789348D01*
X312299Y788960D01*
X310645Y787855D01*
X309540Y786201D01*
X309152Y784250D01*
X309540Y782299D01*
X310645Y780645D01*
X312299Y779540D01*
X314250Y779152D01*
X316201Y779540D01*
X317855Y780645D01*
X318036Y780916D01*
X375186D01*
X375864Y778916D01*
X375666Y778764D01*
X373897Y776458D01*
X372784Y773772D01*
X372572Y772160D01*
X383540D01*
X394508D01*
X394296Y773772D01*
X393183Y776458D01*
X391414Y778764D01*
X391216Y778916D01*
X391894Y780916D01*
X394199D01*
X399523Y775592D01*
X398710Y773631D01*
X398349Y770890D01*
X398710Y768149D01*
X399768Y765595D01*
X401451Y763401D01*
X403645Y761718D01*
X406199Y760660D01*
X408940Y760299D01*
X411681Y760660D01*
X414235Y761718D01*
X416429Y763401D01*
X418112Y765595D01*
X419170Y768149D01*
X419531Y770890D01*
X419170Y773631D01*
X418112Y776185D01*
X416429Y778379D01*
X414235Y780062D01*
X411681Y781120D01*
X408940Y781481D01*
X406199Y781120D01*
X404238Y780307D01*
X397938Y786608D01*
X396856Y787330D01*
X395580Y787584D01*
X392616D01*
X391629Y789584D01*
X392712Y790995D01*
X393770Y793549D01*
X394131Y796290D01*
X393770Y799031D01*
X392712Y801585D01*
X391691Y802916D01*
X392677Y804916D01*
X395599D01*
X399523Y800992D01*
X398710Y799031D01*
X398349Y796290D01*
X398710Y793549D01*
X399768Y790995D01*
X401451Y788801D01*
X403645Y787118D01*
X406199Y786060D01*
X408940Y785699D01*
X411681Y786060D01*
X414235Y787118D01*
X416429Y788801D01*
X418112Y790995D01*
X419170Y793549D01*
X419531Y796290D01*
X419170Y799031D01*
X418112Y801585D01*
X416429Y803779D01*
X414235Y805462D01*
X411681Y806520D01*
X408940Y806881D01*
X406199Y806520D01*
X404238Y805707D01*
X399338Y810608D01*
X398256Y811330D01*
X396980Y811584D01*
X394040D01*
Y832190D01*
D02*
G37*
G36*
X408940Y832281D02*
X406199Y831920D01*
X403645Y830862D01*
X401451Y829179D01*
X399768Y826985D01*
X398710Y824431D01*
X398349Y821690D01*
X398710Y818949D01*
X399768Y816395D01*
X401451Y814201D01*
X403645Y812518D01*
X406199Y811460D01*
X408940Y811099D01*
X411681Y811460D01*
X414235Y812518D01*
X416429Y814201D01*
X418112Y816395D01*
X419170Y818949D01*
X419531Y821690D01*
X419170Y824431D01*
X418112Y826985D01*
X416429Y829179D01*
X414235Y830862D01*
X411681Y831920D01*
X408940Y832281D01*
D02*
G37*
G36*
X597020Y784646D02*
Y780520D01*
X601146D01*
X600969Y781412D01*
X599744Y783244D01*
X597912Y784469D01*
X597020Y784646D01*
D02*
G37*
G36*
X594480D02*
X593588Y784469D01*
X591756Y783244D01*
X590531Y781412D01*
X590354Y780520D01*
X594480D01*
Y784646D01*
D02*
G37*
G36*
X96700Y789826D02*
X93819Y789446D01*
X91133Y788334D01*
X89843Y787344D01*
X96700Y780487D01*
X103558Y787344D01*
X102268Y788334D01*
X99583Y789446D01*
X96700Y789826D01*
D02*
G37*
G36*
X105354Y785548D02*
X98497Y778690D01*
X105354Y771833D01*
X106344Y773123D01*
X107456Y775808D01*
X107836Y778690D01*
X107456Y781572D01*
X106344Y784258D01*
X105354Y785548D01*
D02*
G37*
G36*
X88047D02*
X87057Y784258D01*
X85945Y781572D01*
X85565Y778690D01*
X85945Y775808D01*
X87057Y773123D01*
X88047Y771833D01*
X94904Y778690D01*
X88047Y785548D01*
D02*
G37*
G36*
X96700Y776895D02*
X89843Y770037D01*
X91133Y769047D01*
X93819Y767935D01*
X96700Y767555D01*
X99583Y767935D01*
X102268Y769047D01*
X103558Y770037D01*
X96700Y776895D01*
D02*
G37*
G36*
X714850Y772000D02*
X703580D01*
Y760730D01*
X714850D01*
Y772000D01*
D02*
G37*
G36*
X701040D02*
X689770D01*
Y760730D01*
X701040D01*
Y772000D01*
D02*
G37*
G36*
X601146Y777980D02*
X590354D01*
X590531Y777088D01*
X591756Y775256D01*
X593588Y774031D01*
X593746Y774000D01*
X593549Y772000D01*
X583090D01*
Y760730D01*
X608170D01*
Y772000D01*
X597951D01*
X597753Y774000D01*
X597912Y774031D01*
X599744Y775256D01*
X600969Y777088D01*
X601146Y777980D01*
D02*
G37*
G36*
X394508Y769620D02*
X384810D01*
Y759922D01*
X386422Y760134D01*
X389108Y761247D01*
X391414Y763016D01*
X393183Y765322D01*
X394296Y768008D01*
X394508Y769620D01*
D02*
G37*
G36*
X382270D02*
X372572D01*
X372784Y768008D01*
X373897Y765322D01*
X375666Y763016D01*
X377972Y761247D01*
X380658Y760134D01*
X382270Y759922D01*
Y769620D01*
D02*
G37*
G36*
X772020Y760896D02*
Y756770D01*
X776146D01*
X775969Y757662D01*
X774744Y759494D01*
X772912Y760719D01*
X772020Y760896D01*
D02*
G37*
G36*
X769480D02*
X768588Y760719D01*
X766756Y759494D01*
X765531Y757662D01*
X765354Y756770D01*
X769480D01*
Y760896D01*
D02*
G37*
G36*
X776146Y754230D02*
X772020D01*
Y750104D01*
X772912Y750281D01*
X774744Y751506D01*
X775969Y753338D01*
X776146Y754230D01*
D02*
G37*
G36*
X769480D02*
X765354D01*
X765531Y753338D01*
X766756Y751506D01*
X768588Y750281D01*
X769480Y750104D01*
Y754230D01*
D02*
G37*
G36*
X238900Y771460D02*
X214900D01*
Y747460D01*
X238900D01*
Y771460D01*
D02*
G37*
G36*
X740410Y771564D02*
X737277Y771151D01*
X734358Y769942D01*
X731852Y768018D01*
X729928Y765512D01*
X728719Y762593D01*
X728306Y759460D01*
X728719Y756327D01*
X729928Y753408D01*
X731852Y750901D01*
X734358Y748978D01*
X737277Y747769D01*
X740410Y747356D01*
X743543Y747769D01*
X746462Y748978D01*
X748969Y750901D01*
X750892Y753408D01*
X752101Y756327D01*
X752514Y759460D01*
X752101Y762593D01*
X750892Y765512D01*
X748969Y768018D01*
X746462Y769942D01*
X743543Y771151D01*
X740410Y771564D01*
D02*
G37*
G36*
X633730D02*
X630597Y771151D01*
X627678Y769942D01*
X625172Y768018D01*
X623248Y765512D01*
X622039Y762593D01*
X621626Y759460D01*
X622039Y756327D01*
X623248Y753408D01*
X625172Y750901D01*
X627678Y748978D01*
X630597Y747769D01*
X633730Y747356D01*
X636863Y747769D01*
X639782Y748978D01*
X642289Y750901D01*
X644212Y753408D01*
X645421Y756327D01*
X645834Y759460D01*
X645421Y762593D01*
X644212Y765512D01*
X642289Y768018D01*
X639782Y769942D01*
X636863Y771151D01*
X633730Y771564D01*
D02*
G37*
G36*
X297180Y783114D02*
X179121D01*
X177845Y782860D01*
X176764Y782138D01*
X158690Y764064D01*
X88724D01*
X87912Y766025D01*
X86229Y768219D01*
X84035Y769902D01*
X81481Y770960D01*
X78740Y771321D01*
X75999Y770960D01*
X73445Y769902D01*
X71251Y768219D01*
X69568Y766025D01*
X68510Y763471D01*
X68149Y760730D01*
X68510Y757989D01*
X69568Y755435D01*
X71251Y753241D01*
X73445Y751558D01*
X75999Y750500D01*
X78740Y750139D01*
X81481Y750500D01*
X84035Y751558D01*
X86229Y753241D01*
X87912Y755435D01*
X88724Y757396D01*
X160071D01*
X161347Y757650D01*
X162429Y758372D01*
X180502Y776446D01*
X295799D01*
X299416Y772829D01*
Y770923D01*
X297048Y769942D01*
X294541Y768018D01*
X292618Y765512D01*
X291409Y762593D01*
X290996Y759460D01*
X291409Y756327D01*
X292618Y753408D01*
X294541Y750901D01*
X297048Y748978D01*
X299967Y747769D01*
X303100Y747356D01*
X306233Y747769D01*
X309152Y748978D01*
X311658Y750901D01*
X313582Y753408D01*
X314791Y756327D01*
X315204Y759460D01*
X314791Y762593D01*
X313582Y765512D01*
X311658Y768018D01*
X309152Y769942D01*
X306233Y771151D01*
X306084Y771171D01*
Y774210D01*
X305830Y775486D01*
X305107Y776568D01*
X299538Y782138D01*
X298456Y782860D01*
X297180Y783114D01*
D02*
G37*
G36*
X265000Y771564D02*
X261867Y771151D01*
X258948Y769942D01*
X256441Y768018D01*
X254518Y765512D01*
X253309Y762593D01*
X252896Y759460D01*
X253309Y756327D01*
X254518Y753408D01*
X256441Y750901D01*
X258948Y748978D01*
X261867Y747769D01*
X265000Y747356D01*
X268133Y747769D01*
X271052Y748978D01*
X273559Y750901D01*
X275482Y753408D01*
X276691Y756327D01*
X277104Y759460D01*
X276691Y762593D01*
X275482Y765512D01*
X273559Y768018D01*
X271052Y769942D01*
X268133Y771151D01*
X265000Y771564D01*
D02*
G37*
G36*
X714850Y758190D02*
X703580D01*
Y746920D01*
X714850D01*
Y758190D01*
D02*
G37*
G36*
X701040D02*
X689770D01*
Y746920D01*
X701040D01*
Y758190D01*
D02*
G37*
G36*
X608170D02*
X596900D01*
Y746920D01*
X608170D01*
Y758190D01*
D02*
G37*
G36*
X594360D02*
X583090D01*
Y746920D01*
X594360D01*
Y758190D01*
D02*
G37*
G36*
X408940Y756081D02*
X406199Y755720D01*
X403645Y754662D01*
X401451Y752979D01*
X399768Y750785D01*
X398710Y748231D01*
X398349Y745490D01*
X398710Y742749D01*
X399768Y740195D01*
X401451Y738001D01*
X403645Y736318D01*
X406199Y735260D01*
X408940Y734899D01*
X411681Y735260D01*
X414235Y736318D01*
X416429Y738001D01*
X418112Y740195D01*
X419170Y742749D01*
X419531Y745490D01*
X419170Y748231D01*
X418112Y750785D01*
X416429Y752979D01*
X414235Y754662D01*
X411681Y755720D01*
X408940Y756081D01*
D02*
G37*
G36*
X383540D02*
X380799Y755720D01*
X378245Y754662D01*
X376051Y752979D01*
X374368Y750785D01*
X373310Y748231D01*
X372949Y745490D01*
X373310Y742749D01*
X374368Y740195D01*
X376051Y738001D01*
X378245Y736318D01*
X380799Y735260D01*
X383540Y734899D01*
X386281Y735260D01*
X388835Y736318D01*
X391029Y738001D01*
X392712Y740195D01*
X393770Y742749D01*
X394131Y745490D01*
X393770Y748231D01*
X392712Y750785D01*
X391029Y752979D01*
X388835Y754662D01*
X386281Y755720D01*
X383540Y756081D01*
D02*
G37*
G36*
X60780Y757619D02*
X45930Y742769D01*
X60780Y727920D01*
X75629Y742769D01*
X60780Y757619D01*
D02*
G37*
G36*
X377190Y716298D02*
X375239Y715910D01*
X373585Y714805D01*
X373404Y714534D01*
X326366D01*
X326185Y714805D01*
X324531Y715910D01*
X322580Y716298D01*
X320629Y715910D01*
X318975Y714805D01*
X317870Y713151D01*
X317482Y711200D01*
X317870Y709249D01*
X318975Y707595D01*
X320629Y706490D01*
X322580Y706102D01*
X324531Y706490D01*
X326185Y707595D01*
X326366Y707866D01*
X373404D01*
X373585Y707595D01*
X375239Y706490D01*
X377190Y706102D01*
X379141Y706490D01*
X380795Y707595D01*
X381900Y709249D01*
X382288Y711200D01*
X381900Y713151D01*
X380795Y714805D01*
X379141Y715910D01*
X377190Y716298D01*
D02*
G37*
G36*
X287020Y699896D02*
Y695770D01*
X291146D01*
X290969Y696662D01*
X289744Y698494D01*
X287912Y699719D01*
X287020Y699896D01*
D02*
G37*
G36*
X284480D02*
X283588Y699719D01*
X281756Y698494D01*
X280531Y696662D01*
X280354Y695770D01*
X284480D01*
Y699896D01*
D02*
G37*
G36*
X291146Y693230D02*
X287020D01*
Y689104D01*
X287912Y689281D01*
X289744Y690506D01*
X290969Y692338D01*
X291146Y693230D01*
D02*
G37*
G36*
X284480D02*
X280354D01*
X280531Y692338D01*
X281756Y690506D01*
X283588Y689281D01*
X284480Y689104D01*
Y693230D01*
D02*
G37*
G36*
X553770Y688994D02*
Y684868D01*
X557896D01*
X557719Y685760D01*
X556494Y687592D01*
X554662Y688817D01*
X553770Y688994D01*
D02*
G37*
G36*
X551230D02*
X550338Y688817D01*
X548506Y687592D01*
X547281Y685760D01*
X547104Y684868D01*
X551230D01*
Y688994D01*
D02*
G37*
G36*
X433270Y685146D02*
Y681020D01*
X437396D01*
X437219Y681912D01*
X435994Y683744D01*
X434162Y684969D01*
X433270Y685146D01*
D02*
G37*
G36*
X430730D02*
X429838Y684969D01*
X428006Y683744D01*
X426781Y681912D01*
X426604Y681020D01*
X430730D01*
Y685146D01*
D02*
G37*
G36*
X557896Y682328D02*
X553770D01*
Y678202D01*
X554662Y678379D01*
X556494Y679604D01*
X557719Y681436D01*
X557896Y682328D01*
D02*
G37*
G36*
X551230D02*
X547104D01*
X547281Y681436D01*
X548506Y679604D01*
X550338Y678379D01*
X551230Y678202D01*
Y682328D01*
D02*
G37*
G36*
X437396Y678480D02*
X433270D01*
Y674354D01*
X434162Y674531D01*
X435994Y675756D01*
X437219Y677588D01*
X437396Y678480D01*
D02*
G37*
G36*
X430730D02*
X426604D01*
X426781Y677588D01*
X428006Y675756D01*
X429838Y674531D01*
X430730Y674354D01*
Y678480D01*
D02*
G37*
G36*
X580020Y675146D02*
Y671020D01*
X584146D01*
X583969Y671912D01*
X582744Y673744D01*
X580912Y674969D01*
X580020Y675146D01*
D02*
G37*
G36*
X577480D02*
X576588Y674969D01*
X574756Y673744D01*
X573531Y671912D01*
X573354Y671020D01*
X577480D01*
Y675146D01*
D02*
G37*
G36*
X584146Y668480D02*
X580020D01*
Y664354D01*
X580912Y664531D01*
X582744Y665756D01*
X583969Y667588D01*
X584146Y668480D01*
D02*
G37*
G36*
X577480D02*
X573354D01*
X573531Y667588D01*
X574756Y665756D01*
X576588Y664531D01*
X577480Y664354D01*
Y668480D01*
D02*
G37*
G36*
X810000Y722099D02*
X804979Y721704D01*
X800081Y720528D01*
X795427Y718600D01*
X791133Y715969D01*
X787303Y712697D01*
X784031Y708867D01*
X781400Y704573D01*
X779472Y699919D01*
X778296Y695021D01*
X777901Y690000D01*
X778296Y684979D01*
X779472Y680081D01*
X781400Y675427D01*
X784031Y671133D01*
X787303Y667303D01*
X791133Y664031D01*
X795427Y661400D01*
X800081Y659472D01*
X804979Y658296D01*
X810000Y657901D01*
X815021Y658296D01*
X819919Y659472D01*
X824573Y661400D01*
X828867Y664031D01*
X832697Y667303D01*
X835969Y671133D01*
X838600Y675427D01*
X840528Y680081D01*
X841704Y684979D01*
X842099Y690000D01*
X841704Y695021D01*
X840528Y699919D01*
X838600Y704573D01*
X835969Y708867D01*
X832697Y712697D01*
X828867Y715969D01*
X824573Y718600D01*
X819919Y720528D01*
X815021Y721704D01*
X810000Y722099D01*
D02*
G37*
G36*
X150000D02*
X144979Y721704D01*
X140081Y720528D01*
X135427Y718600D01*
X131133Y715969D01*
X127303Y712697D01*
X124031Y708867D01*
X121400Y704573D01*
X119472Y699919D01*
X118296Y695021D01*
X117901Y690000D01*
X118296Y684979D01*
X119472Y680081D01*
X121400Y675427D01*
X124031Y671133D01*
X127303Y667303D01*
X131133Y664031D01*
X135427Y661400D01*
X140081Y659472D01*
X144979Y658296D01*
X150000Y657901D01*
X155021Y658296D01*
X159919Y659472D01*
X164573Y661400D01*
X168867Y664031D01*
X172697Y667303D01*
X175969Y671133D01*
X178600Y675427D01*
X180528Y680081D01*
X181704Y684979D01*
X182099Y690000D01*
X181704Y695021D01*
X180528Y699919D01*
X178600Y704573D01*
X175969Y708867D01*
X172697Y712697D01*
X168867Y715969D01*
X164573Y718600D01*
X159919Y720528D01*
X155021Y721704D01*
X150000Y722099D01*
D02*
G37*
G36*
X323740Y687198D02*
X321789Y686810D01*
X320135Y685705D01*
X319030Y684051D01*
X318642Y682100D01*
X319030Y680149D01*
X320135Y678495D01*
X320516Y678241D01*
Y648946D01*
X320245Y648765D01*
X319140Y647111D01*
X318752Y645160D01*
X319140Y643209D01*
X320245Y641555D01*
X321899Y640450D01*
X323850Y640062D01*
X325801Y640450D01*
X327455Y641555D01*
X328560Y643209D01*
X328948Y645160D01*
X328560Y647111D01*
X327455Y648765D01*
X327184Y648946D01*
Y678388D01*
X327345Y678495D01*
X328450Y680149D01*
X328838Y682100D01*
X328450Y684051D01*
X327345Y685705D01*
X325691Y686810D01*
X323740Y687198D01*
D02*
G37*
G36*
X75000Y664203D02*
X71867Y663791D01*
X68948Y662582D01*
X66441Y660658D01*
X64518Y658152D01*
X63309Y655233D01*
X62896Y652100D01*
X63309Y648967D01*
X64518Y646048D01*
X66441Y643541D01*
X68948Y641618D01*
X71867Y640409D01*
X75000Y639996D01*
X78133Y640409D01*
X81052Y641618D01*
X83559Y643541D01*
X85482Y646048D01*
X86691Y648967D01*
X87104Y652100D01*
X86691Y655233D01*
X85482Y658152D01*
X83559Y660658D01*
X81052Y662582D01*
X78133Y663791D01*
X75000Y664203D01*
D02*
G37*
G36*
X264120Y642246D02*
Y638120D01*
X268246D01*
X268069Y639012D01*
X266844Y640844D01*
X265012Y642069D01*
X264120Y642246D01*
D02*
G37*
G36*
X261580D02*
X260688Y642069D01*
X258856Y640844D01*
X257631Y639012D01*
X257454Y638120D01*
X261580D01*
Y642246D01*
D02*
G37*
G36*
X716270Y640146D02*
Y636020D01*
X720396D01*
X720219Y636912D01*
X718994Y638744D01*
X717162Y639968D01*
X716270Y640146D01*
D02*
G37*
G36*
X713730D02*
X712838Y639968D01*
X711006Y638744D01*
X709781Y636912D01*
X709604Y636020D01*
X713730D01*
Y640146D01*
D02*
G37*
G36*
X261580Y635580D02*
X257454D01*
X257549Y635105D01*
X256507Y634091D01*
X255928Y633783D01*
X254932Y634449D01*
X254040Y634626D01*
Y630500D01*
X258166D01*
X258071Y630975D01*
X259113Y631989D01*
X259692Y632297D01*
X260688Y631632D01*
X261580Y631454D01*
Y635580D01*
D02*
G37*
G36*
X268246D02*
X264120D01*
Y631454D01*
X265012Y631632D01*
X266844Y632856D01*
X268069Y634688D01*
X268246Y635580D01*
D02*
G37*
G36*
X251500Y634626D02*
X250608Y634449D01*
X248776Y633224D01*
X247551Y631392D01*
X247374Y630500D01*
X251500D01*
Y634626D01*
D02*
G37*
G36*
X720396Y633480D02*
X716270D01*
Y629354D01*
X717162Y629531D01*
X718994Y630756D01*
X720219Y632588D01*
X720396Y633480D01*
D02*
G37*
G36*
X713730D02*
X709604D01*
X709781Y632588D01*
X711006Y630756D01*
X712838Y629531D01*
X713730Y629354D01*
Y633480D01*
D02*
G37*
G36*
X258166Y627960D02*
X254040D01*
Y623834D01*
X254932Y624011D01*
X256764Y625236D01*
X257989Y627068D01*
X258166Y627960D01*
D02*
G37*
G36*
X251500D02*
X247374D01*
X247551Y627068D01*
X248776Y625236D01*
X250608Y624011D01*
X251500Y623834D01*
Y627960D01*
D02*
G37*
G36*
X416750Y643541D02*
X414009Y643180D01*
X411455Y642122D01*
X409261Y640439D01*
X407578Y638245D01*
X406766Y636284D01*
X337040D01*
X335764Y636030D01*
X334683Y635308D01*
X323739Y624364D01*
X289536D01*
X289355Y624635D01*
X287701Y625740D01*
X285750Y626128D01*
X283799Y625740D01*
X282145Y624635D01*
X281040Y622981D01*
X280652Y621030D01*
X280716Y620711D01*
X252913Y592907D01*
X252190Y591826D01*
X251936Y590550D01*
Y567666D01*
X251665Y567485D01*
X250560Y565831D01*
X250172Y563880D01*
X250560Y561929D01*
X251665Y560275D01*
X253319Y559170D01*
X255270Y558782D01*
X257221Y559170D01*
X258875Y560275D01*
X259980Y561929D01*
X260368Y563880D01*
X259980Y565831D01*
X258875Y567485D01*
X258604Y567666D01*
Y589169D01*
X285431Y615996D01*
X285750Y615932D01*
X287701Y616320D01*
X289355Y617425D01*
X289536Y617696D01*
X319839D01*
X320213Y615696D01*
X319140Y614091D01*
X318752Y612140D01*
X319140Y610189D01*
X320245Y608535D01*
X321899Y607430D01*
X323850Y607042D01*
X325801Y607430D01*
X327455Y608535D01*
X328560Y610189D01*
X328948Y612140D01*
X328560Y614091D01*
X327455Y615745D01*
X327184Y615926D01*
Y618379D01*
X338421Y629616D01*
X406766D01*
X407578Y627655D01*
X409261Y625461D01*
X411455Y623778D01*
X414009Y622720D01*
X416750Y622359D01*
X419491Y622720D01*
X422045Y623778D01*
X424239Y625461D01*
X425922Y627655D01*
X426980Y630209D01*
X427341Y632950D01*
X426980Y635691D01*
X425922Y638245D01*
X424239Y640439D01*
X422045Y642122D01*
X419491Y643180D01*
X416750Y643541D01*
D02*
G37*
G36*
X427250Y618050D02*
X406250D01*
Y610884D01*
X375831D01*
X374284Y612431D01*
X374348Y612750D01*
X373960Y614701D01*
X372855Y616355D01*
X371201Y617460D01*
X369250Y617848D01*
X367299Y617460D01*
X365645Y616355D01*
X364540Y614701D01*
X364152Y612750D01*
X364540Y610799D01*
X365645Y609145D01*
X367299Y608040D01*
X369250Y607652D01*
X369569Y607716D01*
X372093Y605192D01*
X373016Y604576D01*
X373098Y604288D01*
X372173Y602334D01*
X326786D01*
X326605Y602605D01*
X324951Y603710D01*
X323000Y604098D01*
X321049Y603710D01*
X319395Y602605D01*
X318290Y600951D01*
X317902Y599000D01*
X318290Y597049D01*
X319395Y595395D01*
X321049Y594290D01*
X323000Y593902D01*
X324951Y594290D01*
X326605Y595395D01*
X326786Y595666D01*
X371046D01*
X371895Y594395D01*
X373549Y593290D01*
X375500Y592902D01*
X377451Y593290D01*
X379105Y594395D01*
X380210Y596049D01*
X380598Y598000D01*
X380210Y599951D01*
X379105Y601605D01*
X378190Y602216D01*
X378797Y604216D01*
X406250D01*
Y597050D01*
X427250D01*
Y618050D01*
D02*
G37*
G36*
X75000Y626104D02*
X71867Y625691D01*
X68948Y624482D01*
X66441Y622559D01*
X64518Y620052D01*
X63309Y617133D01*
X62896Y614000D01*
X63309Y610867D01*
X64518Y607948D01*
X66441Y605442D01*
X68948Y603518D01*
X71867Y602309D01*
X75000Y601896D01*
X78133Y602309D01*
X81052Y603518D01*
X83559Y605442D01*
X85482Y607948D01*
X86691Y610867D01*
X87104Y614000D01*
X86691Y617133D01*
X85482Y620052D01*
X83559Y622559D01*
X81052Y624482D01*
X78133Y625691D01*
X75000Y626104D01*
D02*
G37*
G36*
X243520Y604896D02*
Y600770D01*
X247646D01*
X247469Y601662D01*
X246244Y603494D01*
X244412Y604719D01*
X243520Y604896D01*
D02*
G37*
G36*
X240980D02*
X240088Y604719D01*
X238256Y603494D01*
X237031Y601662D01*
X236854Y600770D01*
X240980D01*
Y604896D01*
D02*
G37*
G36*
X589250Y641848D02*
X587299Y641460D01*
X585645Y640355D01*
X584540Y638701D01*
X584152Y636750D01*
X584540Y634799D01*
X585416Y633488D01*
Y605565D01*
X585145Y605384D01*
X584040Y603730D01*
X583652Y601779D01*
X584040Y599828D01*
X585145Y598174D01*
X586799Y597069D01*
X588750Y596681D01*
X590701Y597069D01*
X592355Y598174D01*
X593460Y599828D01*
X593848Y601779D01*
X593460Y603730D01*
X592355Y605384D01*
X592084Y605565D01*
Y632630D01*
X592855Y633145D01*
X593960Y634799D01*
X594348Y636750D01*
X593960Y638701D01*
X592855Y640355D01*
X591201Y641460D01*
X589250Y641848D01*
D02*
G37*
G36*
X247646Y598230D02*
X243520D01*
Y594104D01*
X244412Y594281D01*
X246244Y595506D01*
X247469Y597338D01*
X247646Y598230D01*
D02*
G37*
G36*
X240980D02*
X236854D01*
X237031Y597338D01*
X238256Y595506D01*
X240088Y594281D01*
X240980Y594104D01*
Y598230D01*
D02*
G37*
G36*
X87540Y588440D02*
X76270D01*
Y577170D01*
X87540D01*
Y588440D01*
D02*
G37*
G36*
X73730D02*
X62460D01*
Y577170D01*
X73730D01*
Y588440D01*
D02*
G37*
G36*
X629740Y575728D02*
Y571602D01*
X633866D01*
X633689Y572494D01*
X632464Y574326D01*
X630632Y575551D01*
X629740Y575728D01*
D02*
G37*
G36*
X627200D02*
X626308Y575551D01*
X624476Y574326D01*
X623251Y572494D01*
X623074Y571602D01*
X627200D01*
Y575728D01*
D02*
G37*
G36*
X167250Y588200D02*
X146250D01*
Y567200D01*
X167250D01*
Y588200D01*
D02*
G37*
G36*
X633866Y569062D02*
X629740D01*
Y564936D01*
X630632Y565113D01*
X632464Y566338D01*
X633689Y568170D01*
X633866Y569062D01*
D02*
G37*
G36*
X627200D02*
X623074D01*
X623251Y568170D01*
X624476Y566338D01*
X626308Y565113D01*
X627200Y564936D01*
Y569062D01*
D02*
G37*
G36*
X370770Y568896D02*
Y564770D01*
X374896D01*
X374719Y565662D01*
X373494Y567494D01*
X371662Y568718D01*
X370770Y568896D01*
D02*
G37*
G36*
X368230D02*
X367338Y568718D01*
X365506Y567494D01*
X364281Y565662D01*
X364104Y564770D01*
X368230D01*
Y568896D01*
D02*
G37*
G36*
X87540Y574630D02*
X76270D01*
Y563360D01*
X87540D01*
Y574630D01*
D02*
G37*
G36*
X73730D02*
X62460D01*
Y563360D01*
X73730D01*
Y574630D01*
D02*
G37*
G36*
X374896Y562230D02*
X370770D01*
Y558104D01*
X371662Y558281D01*
X373494Y559506D01*
X374719Y561338D01*
X374896Y562230D01*
D02*
G37*
G36*
X368230D02*
X364104D01*
X364281Y561338D01*
X365506Y559506D01*
X367338Y558281D01*
X368230Y558104D01*
Y562230D01*
D02*
G37*
G36*
X436600Y559250D02*
X415600D01*
Y538250D01*
X436600D01*
Y559250D01*
D02*
G37*
G36*
X451500Y559341D02*
X448759Y558980D01*
X446205Y557922D01*
X444011Y556239D01*
X442328Y554045D01*
X441270Y551491D01*
X440909Y548750D01*
X441270Y546009D01*
X442328Y543455D01*
X444011Y541261D01*
X446205Y539578D01*
X448759Y538520D01*
X451500Y538159D01*
X454241Y538520D01*
X456795Y539578D01*
X458989Y541261D01*
X460672Y543455D01*
X461730Y546009D01*
X462091Y548750D01*
X461730Y551491D01*
X460672Y554045D01*
X458989Y556239D01*
X456795Y557922D01*
X454241Y558980D01*
X451500Y559341D01*
D02*
G37*
G36*
X73970Y545268D02*
Y535570D01*
X83668D01*
X83456Y537182D01*
X82343Y539868D01*
X80574Y542174D01*
X78268Y543943D01*
X75582Y545056D01*
X73970Y545268D01*
D02*
G37*
G36*
X71430D02*
X69818Y545056D01*
X67132Y543943D01*
X64826Y542174D01*
X63057Y539868D01*
X61944Y537182D01*
X61732Y535570D01*
X71430D01*
Y545268D01*
D02*
G37*
G36*
X47300Y544891D02*
X44559Y544530D01*
X42005Y543472D01*
X39811Y541789D01*
X38128Y539595D01*
X37070Y537041D01*
X36709Y534300D01*
X37070Y531559D01*
X38128Y529005D01*
X39811Y526811D01*
X42005Y525128D01*
X44559Y524070D01*
X47300Y523709D01*
X50041Y524070D01*
X52595Y525128D01*
X54789Y526811D01*
X56472Y529005D01*
X57530Y531559D01*
X57891Y534300D01*
X57530Y537041D01*
X56472Y539595D01*
X54789Y541789D01*
X52595Y543472D01*
X50041Y544530D01*
X47300Y544891D01*
D02*
G37*
G36*
X71430Y533030D02*
X61732D01*
X61944Y531418D01*
X63057Y528732D01*
X64826Y526426D01*
X67132Y524657D01*
X69818Y523544D01*
X71430Y523332D01*
Y533030D01*
D02*
G37*
G36*
X83668D02*
X73970D01*
Y523332D01*
X75582Y523544D01*
X78268Y524657D01*
X80574Y526426D01*
X82343Y528732D01*
X83456Y531418D01*
X83668Y533030D01*
D02*
G37*
G36*
X72700Y519491D02*
X69959Y519130D01*
X67405Y518072D01*
X65211Y516389D01*
X63528Y514195D01*
X62470Y511641D01*
X62109Y508900D01*
X62470Y506159D01*
X63528Y503605D01*
X65211Y501411D01*
X67405Y499728D01*
X69959Y498670D01*
X72700Y498309D01*
X75441Y498670D01*
X77995Y499728D01*
X80189Y501411D01*
X81872Y503605D01*
X82930Y506159D01*
X83291Y508900D01*
X82930Y511641D01*
X81872Y514195D01*
X80189Y516389D01*
X77995Y518072D01*
X75441Y519130D01*
X72700Y519491D01*
D02*
G37*
G36*
X47300D02*
X44559Y519130D01*
X42005Y518072D01*
X39811Y516389D01*
X38128Y514195D01*
X37070Y511641D01*
X36709Y508900D01*
X37070Y506159D01*
X38128Y503605D01*
X39811Y501411D01*
X42005Y499728D01*
X44559Y498670D01*
X47300Y498309D01*
X50041Y498670D01*
X52595Y499728D01*
X54789Y501411D01*
X56472Y503605D01*
X57530Y506159D01*
X57891Y508900D01*
X57530Y511641D01*
X56472Y514195D01*
X54789Y516389D01*
X52595Y518072D01*
X50041Y519130D01*
X47300Y519491D01*
D02*
G37*
G36*
X156750Y562891D02*
X154009Y562530D01*
X151455Y561472D01*
X149261Y559789D01*
X147578Y557595D01*
X146520Y555041D01*
X146159Y552300D01*
X146520Y549559D01*
X147578Y547005D01*
X149261Y544811D01*
X151455Y543128D01*
X153541Y542264D01*
Y496702D01*
X153395Y496605D01*
X152290Y494951D01*
X151902Y493000D01*
X152290Y491049D01*
X153395Y489395D01*
X155049Y488290D01*
X157000Y487902D01*
X158951Y488290D01*
X160605Y489395D01*
X161710Y491049D01*
X162098Y493000D01*
X161710Y494951D01*
X160605Y496605D01*
X160209Y496869D01*
Y542368D01*
X162045Y543128D01*
X164239Y544811D01*
X165922Y547005D01*
X166980Y549559D01*
X167341Y552300D01*
X166980Y555041D01*
X165922Y557595D01*
X164239Y559789D01*
X162045Y561472D01*
X159491Y562530D01*
X156750Y562891D01*
D02*
G37*
G36*
X842020Y489744D02*
Y485618D01*
X846146D01*
X845969Y486510D01*
X844744Y488342D01*
X842912Y489566D01*
X842020Y489744D01*
D02*
G37*
G36*
X839480D02*
X838588Y489566D01*
X836756Y488342D01*
X835531Y486510D01*
X835354Y485618D01*
X839480D01*
Y489744D01*
D02*
G37*
G36*
X816520Y485396D02*
Y481270D01*
X820646D01*
X820469Y482162D01*
X819244Y483994D01*
X817412Y485219D01*
X816520Y485396D01*
D02*
G37*
G36*
X813980D02*
X813088Y485219D01*
X811256Y483994D01*
X810032Y482162D01*
X809854Y481270D01*
X813980D01*
Y485396D01*
D02*
G37*
G36*
X846146Y483078D02*
X842020D01*
Y478952D01*
X842912Y479129D01*
X844744Y480354D01*
X845969Y482186D01*
X846146Y483078D01*
D02*
G37*
G36*
X839480D02*
X835354D01*
X835531Y482186D01*
X836756Y480354D01*
X838588Y479129D01*
X839480Y478952D01*
Y483078D01*
D02*
G37*
G36*
X645500Y555098D02*
X643549Y554710D01*
X641895Y553605D01*
X640790Y551951D01*
X640402Y550000D01*
X640790Y548049D01*
X641895Y546395D01*
X642316Y546114D01*
Y485053D01*
X641645Y484605D01*
X640540Y482951D01*
X640152Y481000D01*
X640540Y479049D01*
X641645Y477395D01*
X643299Y476290D01*
X645250Y475902D01*
X647201Y476290D01*
X648855Y477395D01*
X649960Y479049D01*
X650348Y481000D01*
X649960Y482951D01*
X648855Y484605D01*
X648434Y484886D01*
Y545947D01*
X649105Y546395D01*
X650210Y548049D01*
X650598Y550000D01*
X650210Y551951D01*
X649105Y553605D01*
X647451Y554710D01*
X645500Y555098D01*
D02*
G37*
G36*
X820646Y478730D02*
X816520D01*
Y474604D01*
X817412Y474781D01*
X819244Y476006D01*
X820469Y477838D01*
X820646Y478730D01*
D02*
G37*
G36*
X813980D02*
X809854D01*
X810032Y477838D01*
X811256Y476006D01*
X813088Y474781D01*
X813980Y474604D01*
Y478730D01*
D02*
G37*
G36*
X72700Y494091D02*
X69959Y493730D01*
X67405Y492672D01*
X65211Y490989D01*
X63528Y488795D01*
X62470Y486241D01*
X62109Y483500D01*
X62470Y480759D01*
X63528Y478205D01*
X65211Y476011D01*
X67405Y474328D01*
X69959Y473270D01*
X72700Y472909D01*
X75441Y473270D01*
X77995Y474328D01*
X80189Y476011D01*
X81872Y478205D01*
X82930Y480759D01*
X83291Y483500D01*
X82930Y486241D01*
X81872Y488795D01*
X80189Y490989D01*
X77995Y492672D01*
X75441Y493730D01*
X72700Y494091D01*
D02*
G37*
G36*
X47300D02*
X44559Y493730D01*
X42005Y492672D01*
X39811Y490989D01*
X38128Y488795D01*
X37070Y486241D01*
X36709Y483500D01*
X37070Y480759D01*
X38128Y478205D01*
X39811Y476011D01*
X42005Y474328D01*
X44559Y473270D01*
X47300Y472909D01*
X50041Y473270D01*
X52595Y474328D01*
X54789Y476011D01*
X56472Y478205D01*
X57530Y480759D01*
X57891Y483500D01*
X57530Y486241D01*
X56472Y488795D01*
X54789Y490989D01*
X52595Y492672D01*
X50041Y493730D01*
X47300Y494091D01*
D02*
G37*
G36*
X130000Y505098D02*
X128049Y504710D01*
X126395Y503605D01*
X125290Y501951D01*
X124902Y500000D01*
X125290Y498049D01*
X126395Y496395D01*
X128049Y495290D01*
X130000Y494902D01*
X131951Y495290D01*
X132577Y495708D01*
X154716Y473569D01*
X154652Y473250D01*
X155040Y471299D01*
X156145Y469645D01*
X157799Y468540D01*
X159750Y468152D01*
X161701Y468540D01*
X163355Y469645D01*
X164460Y471299D01*
X164848Y473250D01*
X164460Y475201D01*
X163355Y476855D01*
X161701Y477960D01*
X159750Y478348D01*
X159431Y478284D01*
X136019Y501696D01*
X134938Y502418D01*
X134315Y502542D01*
X133605Y503605D01*
X131951Y504710D01*
X130000Y505098D01*
D02*
G37*
G36*
X174250Y517348D02*
X172299Y516960D01*
X170645Y515855D01*
X169540Y514201D01*
X169152Y512250D01*
X169540Y510299D01*
X170645Y508645D01*
X170916Y508464D01*
Y471536D01*
X170645Y471355D01*
X169540Y469701D01*
X169152Y467750D01*
X169540Y465799D01*
X170645Y464145D01*
X172299Y463040D01*
X174250Y462652D01*
X176201Y463040D01*
X177855Y464145D01*
X178960Y465799D01*
X179348Y467750D01*
X178960Y469701D01*
X177855Y471355D01*
X177584Y471536D01*
Y508464D01*
X177855Y508645D01*
X178960Y510299D01*
X179348Y512250D01*
X178960Y514201D01*
X177855Y515855D01*
X176201Y516960D01*
X174250Y517348D01*
D02*
G37*
G36*
X592700Y471517D02*
X589926Y471152D01*
X587342Y470081D01*
X585122Y468378D01*
X583419Y466158D01*
X582349Y463574D01*
X581983Y460800D01*
X582349Y458026D01*
X583419Y455442D01*
X585122Y453222D01*
X587342Y451519D01*
X589926Y450448D01*
X592700Y450083D01*
X595474Y450448D01*
X598058Y451519D01*
X600278Y453222D01*
X601981Y455442D01*
X603051Y458026D01*
X603417Y460800D01*
X603051Y463574D01*
X601981Y466158D01*
X600278Y468378D01*
X598058Y470081D01*
X595474Y471152D01*
X592700Y471517D01*
D02*
G37*
G36*
X567300D02*
X564526Y471152D01*
X561942Y470081D01*
X559722Y468378D01*
X558019Y466158D01*
X556949Y463574D01*
X556583Y460800D01*
X556949Y458026D01*
X558019Y455442D01*
X559722Y453222D01*
X561942Y451519D01*
X564526Y450448D01*
X567300Y450083D01*
X570074Y450448D01*
X572658Y451519D01*
X574878Y453222D01*
X576581Y455442D01*
X577651Y458026D01*
X578017Y460800D01*
X577651Y463574D01*
X576581Y466158D01*
X574878Y468378D01*
X572658Y470081D01*
X570074Y471152D01*
X567300Y471517D01*
D02*
G37*
G36*
X72700Y468691D02*
X69959Y468330D01*
X67405Y467272D01*
X65211Y465589D01*
X63528Y463395D01*
X62470Y460841D01*
X62109Y458100D01*
X62470Y455359D01*
X63528Y452805D01*
X65211Y450611D01*
X67405Y448928D01*
X69959Y447870D01*
X72700Y447509D01*
X75441Y447870D01*
X77995Y448928D01*
X80189Y450611D01*
X81872Y452805D01*
X82930Y455359D01*
X83291Y458100D01*
X82930Y460841D01*
X81872Y463395D01*
X80189Y465589D01*
X77995Y467272D01*
X75441Y468330D01*
X72700Y468691D01*
D02*
G37*
G36*
X47300D02*
X44559Y468330D01*
X42005Y467272D01*
X39811Y465589D01*
X38128Y463395D01*
X37070Y460841D01*
X36709Y458100D01*
X37070Y455359D01*
X38128Y452805D01*
X39811Y450611D01*
X42005Y448928D01*
X44559Y447870D01*
X47300Y447509D01*
X50041Y447870D01*
X52595Y448928D01*
X54789Y450611D01*
X56472Y452805D01*
X57530Y455359D01*
X57891Y458100D01*
X57530Y460841D01*
X56472Y463395D01*
X54789Y465589D01*
X52595Y467272D01*
X50041Y468330D01*
X47300Y468691D01*
D02*
G37*
G36*
X851815Y440396D02*
Y436270D01*
X855941D01*
X855764Y437162D01*
X854539Y438994D01*
X852707Y440219D01*
X851815Y440396D01*
D02*
G37*
G36*
X849275D02*
X848383Y440219D01*
X846551Y438994D01*
X845327Y437162D01*
X845149Y436270D01*
X849275D01*
Y440396D01*
D02*
G37*
G36*
X855941Y433730D02*
X851815D01*
Y429604D01*
X852707Y429781D01*
X854539Y431006D01*
X855764Y432838D01*
X855941Y433730D01*
D02*
G37*
G36*
X849275D02*
X845149D01*
X845327Y432838D01*
X846551Y431006D01*
X848383Y429781D01*
X849275Y429604D01*
Y433730D01*
D02*
G37*
G36*
X592700Y446117D02*
X589926Y445751D01*
X587342Y444681D01*
X585122Y442978D01*
X583419Y440758D01*
X582349Y438174D01*
X581983Y435400D01*
X582349Y432626D01*
X583419Y430042D01*
X585122Y427822D01*
X587342Y426119D01*
X589926Y425048D01*
X592700Y424683D01*
X595474Y425048D01*
X598058Y426119D01*
X600278Y427822D01*
X601981Y430042D01*
X603051Y432626D01*
X603417Y435400D01*
X603051Y438174D01*
X601981Y440758D01*
X600278Y442978D01*
X598058Y444681D01*
X595474Y445751D01*
X592700Y446117D01*
D02*
G37*
G36*
X567300D02*
X564526Y445751D01*
X561942Y444681D01*
X559722Y442978D01*
X558019Y440758D01*
X556949Y438174D01*
X556583Y435400D01*
X556949Y432626D01*
X558019Y430042D01*
X559722Y427822D01*
X561942Y426119D01*
X564526Y425048D01*
X567300Y424683D01*
X570074Y425048D01*
X572658Y426119D01*
X574878Y427822D01*
X576581Y430042D01*
X577651Y432626D01*
X578017Y435400D01*
X577651Y438174D01*
X576581Y440758D01*
X574878Y442978D01*
X572658Y444681D01*
X570074Y445751D01*
X567300Y446117D01*
D02*
G37*
G36*
X72700Y443291D02*
X69959Y442930D01*
X67405Y441872D01*
X65211Y440189D01*
X63528Y437995D01*
X62470Y435441D01*
X62109Y432700D01*
X62470Y429959D01*
X63528Y427405D01*
X65211Y425211D01*
X67405Y423528D01*
X69959Y422470D01*
X72700Y422109D01*
X75441Y422470D01*
X77995Y423528D01*
X80189Y425211D01*
X81872Y427405D01*
X82930Y429959D01*
X83291Y432700D01*
X82930Y435441D01*
X81872Y437995D01*
X80189Y440189D01*
X77995Y441872D01*
X75441Y442930D01*
X72700Y443291D01*
D02*
G37*
G36*
X47300D02*
X44559Y442930D01*
X42005Y441872D01*
X39811Y440189D01*
X38128Y437995D01*
X37070Y435441D01*
X36709Y432700D01*
X37070Y429959D01*
X38128Y427405D01*
X39811Y425211D01*
X42005Y423528D01*
X44559Y422470D01*
X47300Y422109D01*
X50041Y422470D01*
X52595Y423528D01*
X54789Y425211D01*
X56472Y427405D01*
X57530Y429959D01*
X57891Y432700D01*
X57530Y435441D01*
X56472Y437995D01*
X54789Y440189D01*
X52595Y441872D01*
X50041Y442930D01*
X47300Y443291D01*
D02*
G37*
G36*
X769020Y411666D02*
Y407540D01*
X773146D01*
X772969Y408432D01*
X771744Y410264D01*
X769912Y411489D01*
X769020Y411666D01*
D02*
G37*
G36*
X766480D02*
X765588Y411489D01*
X763756Y410264D01*
X762531Y408432D01*
X762354Y407540D01*
X766480D01*
Y411666D01*
D02*
G37*
G36*
X773146Y405000D02*
X769020D01*
Y400874D01*
X769912Y401051D01*
X771744Y402276D01*
X772969Y404108D01*
X773146Y405000D01*
D02*
G37*
G36*
X766480D02*
X762354D01*
X762531Y404108D01*
X763756Y402276D01*
X765588Y401051D01*
X766480Y400874D01*
Y405000D01*
D02*
G37*
G36*
X567300Y420717D02*
X564526Y420352D01*
X561942Y419281D01*
X559722Y417578D01*
X558019Y415358D01*
X556949Y412774D01*
X556583Y410000D01*
X556949Y407226D01*
X558019Y404642D01*
X559722Y402422D01*
X561942Y400719D01*
X564526Y399649D01*
X567300Y399283D01*
X570074Y399649D01*
X572658Y400719D01*
X574878Y402422D01*
X576581Y404642D01*
X577651Y407226D01*
X578017Y410000D01*
X577651Y412774D01*
X576581Y415358D01*
X574878Y417578D01*
X572658Y419281D01*
X570074Y420352D01*
X567300Y420717D01*
D02*
G37*
G36*
X592700Y420717D02*
X589926Y420351D01*
X587342Y419281D01*
X585122Y417578D01*
X583419Y415358D01*
X582349Y412774D01*
X581983Y410000D01*
X582349Y407226D01*
X583419Y404642D01*
X585122Y402422D01*
X587342Y400719D01*
X589926Y399649D01*
X592700Y399283D01*
X595474Y399649D01*
X598058Y400719D01*
X600278Y402422D01*
X601981Y404642D01*
X603051Y407226D01*
X603417Y410000D01*
X603051Y412774D01*
X601981Y415358D01*
X600278Y417578D01*
X598058Y419281D01*
X595474Y420351D01*
X592700Y420717D01*
D02*
G37*
G36*
X72700Y417891D02*
X69959Y417530D01*
X67405Y416472D01*
X65211Y414789D01*
X63528Y412595D01*
X62470Y410041D01*
X62109Y407300D01*
X62470Y404559D01*
X63528Y402005D01*
X65211Y399811D01*
X67405Y398128D01*
X69959Y397070D01*
X72700Y396709D01*
X75441Y397070D01*
X77995Y398128D01*
X80189Y399811D01*
X81872Y402005D01*
X82930Y404559D01*
X83291Y407300D01*
X82930Y410041D01*
X81872Y412595D01*
X80189Y414789D01*
X77995Y416472D01*
X75441Y417530D01*
X72700Y417891D01*
D02*
G37*
G36*
X47300D02*
X44559Y417530D01*
X42005Y416472D01*
X39811Y414789D01*
X38128Y412595D01*
X37070Y410041D01*
X36709Y407300D01*
X37070Y404559D01*
X38128Y402005D01*
X39811Y399811D01*
X42005Y398128D01*
X44559Y397070D01*
X47300Y396709D01*
X50041Y397070D01*
X52595Y398128D01*
X54789Y399811D01*
X56472Y402005D01*
X57530Y404559D01*
X57891Y407300D01*
X57530Y410041D01*
X56472Y412595D01*
X54789Y414789D01*
X52595Y416472D01*
X50041Y417530D01*
X47300Y417891D01*
D02*
G37*
G36*
X875030Y401338D02*
X873079Y400950D01*
X871425Y399845D01*
X870320Y398191D01*
X869932Y396240D01*
X870075Y395520D01*
X863379Y388824D01*
X861549Y388460D01*
X859895Y387355D01*
X858790Y385701D01*
X858402Y383750D01*
X858790Y381799D01*
X859895Y380145D01*
X861549Y379040D01*
X863500Y378652D01*
X865451Y379040D01*
X867105Y380145D01*
X868210Y381799D01*
X868598Y383750D01*
X868455Y384470D01*
X875151Y391166D01*
X876981Y391530D01*
X878635Y392635D01*
X879740Y394289D01*
X880128Y396240D01*
X879740Y398191D01*
X878635Y399845D01*
X876981Y400950D01*
X875030Y401338D01*
D02*
G37*
G36*
X592700Y395317D02*
X589926Y394952D01*
X587342Y393881D01*
X585122Y392178D01*
X583419Y389958D01*
X582349Y387374D01*
X581983Y384600D01*
X582349Y381826D01*
X583419Y379242D01*
X585122Y377022D01*
X587342Y375319D01*
X589926Y374249D01*
X592700Y373883D01*
X595474Y374249D01*
X598058Y375319D01*
X600278Y377022D01*
X601981Y379242D01*
X603051Y381826D01*
X603417Y384600D01*
X603051Y387374D01*
X601981Y389958D01*
X600278Y392178D01*
X598058Y393881D01*
X595474Y394952D01*
X592700Y395317D01*
D02*
G37*
G36*
X567300D02*
X564526Y394952D01*
X561942Y393881D01*
X559722Y392178D01*
X558019Y389958D01*
X556949Y387374D01*
X556583Y384600D01*
X556949Y381826D01*
X558019Y379242D01*
X559722Y377022D01*
X561942Y375319D01*
X564526Y374249D01*
X567300Y373883D01*
X570074Y374249D01*
X572658Y375319D01*
X574878Y377022D01*
X576581Y379242D01*
X577651Y381826D01*
X578017Y384600D01*
X577651Y387374D01*
X576581Y389958D01*
X574878Y392178D01*
X572658Y393881D01*
X570074Y394952D01*
X567300Y395317D01*
D02*
G37*
G36*
X72700Y392491D02*
X69959Y392130D01*
X67405Y391072D01*
X65211Y389389D01*
X63528Y387195D01*
X62470Y384641D01*
X62109Y381900D01*
X62470Y379159D01*
X63528Y376605D01*
X65211Y374411D01*
X67405Y372728D01*
X69959Y371670D01*
X72700Y371309D01*
X75441Y371670D01*
X77995Y372728D01*
X80189Y374411D01*
X81872Y376605D01*
X82930Y379159D01*
X83291Y381900D01*
X82930Y384641D01*
X81872Y387195D01*
X80189Y389389D01*
X77995Y391072D01*
X75441Y392130D01*
X72700Y392491D01*
D02*
G37*
G36*
X47300D02*
X44559Y392130D01*
X42005Y391072D01*
X39811Y389389D01*
X38128Y387195D01*
X37070Y384641D01*
X36709Y381900D01*
X37070Y379159D01*
X38128Y376605D01*
X39811Y374411D01*
X42005Y372728D01*
X44559Y371670D01*
X47300Y371309D01*
X50041Y371670D01*
X52595Y372728D01*
X54789Y374411D01*
X56472Y376605D01*
X57530Y379159D01*
X57891Y381900D01*
X57530Y384641D01*
X56472Y387195D01*
X54789Y389389D01*
X52595Y391072D01*
X50041Y392130D01*
X47300Y392491D01*
D02*
G37*
G36*
X568570Y370294D02*
Y360470D01*
X578394D01*
X578178Y362115D01*
X577053Y364831D01*
X575263Y367163D01*
X572931Y368953D01*
X570215Y370078D01*
X568570Y370294D01*
D02*
G37*
G36*
X566030D02*
X564385Y370078D01*
X561669Y368953D01*
X559337Y367163D01*
X557547Y364831D01*
X556422Y362115D01*
X556206Y360470D01*
X566030D01*
Y370294D01*
D02*
G37*
G36*
X170020Y363896D02*
Y359770D01*
X174146D01*
X173969Y360662D01*
X172744Y362494D01*
X170912Y363719D01*
X170020Y363896D01*
D02*
G37*
G36*
X167480D02*
X166588Y363719D01*
X164756Y362494D01*
X163531Y360662D01*
X163354Y359770D01*
X167480D01*
Y363896D01*
D02*
G37*
G36*
X115770Y363646D02*
Y359520D01*
X119896D01*
X119719Y360412D01*
X118494Y362244D01*
X116662Y363469D01*
X115770Y363646D01*
D02*
G37*
G36*
X113230D02*
X112338Y363469D01*
X110506Y362244D01*
X109281Y360412D01*
X109104Y359520D01*
X113230D01*
Y363646D01*
D02*
G37*
G36*
X222770Y358396D02*
Y354270D01*
X226896D01*
X226719Y355162D01*
X225494Y356994D01*
X223662Y358219D01*
X222770Y358396D01*
D02*
G37*
G36*
X220230D02*
X219338Y358219D01*
X217506Y356994D01*
X216281Y355162D01*
X216104Y354270D01*
X220230D01*
Y358396D01*
D02*
G37*
G36*
X174146Y357230D02*
X170020D01*
Y353104D01*
X170912Y353281D01*
X172744Y354506D01*
X173969Y356338D01*
X174146Y357230D01*
D02*
G37*
G36*
X167480D02*
X163354D01*
X163531Y356338D01*
X164756Y354506D01*
X166588Y353281D01*
X167480Y353104D01*
Y357230D01*
D02*
G37*
G36*
X119896Y356980D02*
X115770D01*
Y352854D01*
X116662Y353032D01*
X118494Y354256D01*
X119719Y356088D01*
X119896Y356980D01*
D02*
G37*
G36*
X113230D02*
X109104D01*
X109281Y356088D01*
X110506Y354256D01*
X112338Y353032D01*
X113230Y352854D01*
Y356980D01*
D02*
G37*
G36*
X603425Y369575D02*
X582175D01*
Y348325D01*
X603425D01*
Y369575D01*
D02*
G37*
G36*
X578394Y357930D02*
X568570D01*
Y348106D01*
X570215Y348322D01*
X572931Y349447D01*
X575263Y351237D01*
X577053Y353569D01*
X578178Y356285D01*
X578394Y357930D01*
D02*
G37*
G36*
X566030D02*
X556206D01*
X556422Y356285D01*
X557547Y353569D01*
X559337Y351237D01*
X561669Y349447D01*
X564385Y348322D01*
X566030Y348106D01*
Y357930D01*
D02*
G37*
G36*
X226896Y351730D02*
X222770D01*
Y347604D01*
X223662Y347781D01*
X225494Y349006D01*
X226719Y350838D01*
X226896Y351730D01*
D02*
G37*
G36*
X220230D02*
X216104D01*
X216281Y350838D01*
X217506Y349006D01*
X219338Y347781D01*
X220230Y347604D01*
Y351730D01*
D02*
G37*
G36*
X72700Y367091D02*
X69959Y366730D01*
X67405Y365672D01*
X65211Y363989D01*
X63528Y361795D01*
X62470Y359241D01*
X62109Y356500D01*
X62470Y353759D01*
X63528Y351205D01*
X65211Y349011D01*
X67405Y347328D01*
X69959Y346270D01*
X72700Y345909D01*
X75441Y346270D01*
X77995Y347328D01*
X80189Y349011D01*
X81872Y351205D01*
X82930Y353759D01*
X83291Y356500D01*
X82930Y359241D01*
X81872Y361795D01*
X80189Y363989D01*
X77995Y365672D01*
X75441Y366730D01*
X72700Y367091D01*
D02*
G37*
G36*
X47300D02*
X44559Y366730D01*
X42005Y365672D01*
X39811Y363989D01*
X38128Y361795D01*
X37070Y359241D01*
X36709Y356500D01*
X37070Y353759D01*
X38128Y351205D01*
X39811Y349011D01*
X42005Y347328D01*
X44559Y346270D01*
X47300Y345909D01*
X50041Y346270D01*
X52595Y347328D01*
X54789Y349011D01*
X56472Y351205D01*
X57530Y353759D01*
X57891Y356500D01*
X57530Y359241D01*
X56472Y361795D01*
X54789Y363989D01*
X52595Y365672D01*
X50041Y366730D01*
X47300Y367091D01*
D02*
G37*
G36*
X818270Y340646D02*
Y336520D01*
X822396D01*
X822218Y337412D01*
X820994Y339244D01*
X819162Y340469D01*
X818270Y340646D01*
D02*
G37*
G36*
X815730D02*
X814838Y340469D01*
X813006Y339244D01*
X811781Y337412D01*
X811604Y336520D01*
X815730D01*
Y340646D01*
D02*
G37*
G36*
X161770Y335646D02*
Y331520D01*
X165896D01*
X165719Y332412D01*
X164494Y334244D01*
X162662Y335469D01*
X161770Y335646D01*
D02*
G37*
G36*
X159230D02*
X158338Y335469D01*
X156506Y334244D01*
X155281Y332412D01*
X155104Y331520D01*
X159230D01*
Y335646D01*
D02*
G37*
G36*
X787500Y359348D02*
X785549Y358960D01*
X783895Y357855D01*
X782790Y356201D01*
X782402Y354250D01*
X782790Y352299D01*
X783895Y350645D01*
X784166Y350464D01*
Y335500D01*
X784183Y335413D01*
X783902Y334000D01*
X784290Y332049D01*
X782590Y331125D01*
X781842Y332244D01*
X780010Y333469D01*
X779118Y333646D01*
Y329520D01*
X783244D01*
X783067Y330412D01*
X784767Y331336D01*
X785395Y330395D01*
X787049Y329290D01*
X789000Y328902D01*
X790951Y329290D01*
X792605Y330395D01*
X793710Y332049D01*
X794098Y334000D01*
X793710Y335951D01*
X792605Y337605D01*
X790951Y338710D01*
X790834Y338733D01*
Y350464D01*
X791105Y350645D01*
X792210Y352299D01*
X792598Y354250D01*
X792210Y356201D01*
X791105Y357855D01*
X789451Y358960D01*
X787500Y359348D01*
D02*
G37*
G36*
X551770Y334896D02*
Y330770D01*
X555896D01*
X555718Y331662D01*
X554494Y333494D01*
X552662Y334719D01*
X551770Y334896D01*
D02*
G37*
G36*
X549230D02*
X548338Y334719D01*
X546506Y333494D01*
X545281Y331662D01*
X545104Y330770D01*
X549230D01*
Y334896D01*
D02*
G37*
G36*
X822396Y333980D02*
X818270D01*
Y329854D01*
X819162Y330031D01*
X820994Y331256D01*
X822218Y333088D01*
X822396Y333980D01*
D02*
G37*
G36*
X815730D02*
X811604D01*
X811781Y333088D01*
X813006Y331256D01*
X814838Y330031D01*
X815730Y329854D01*
Y333980D01*
D02*
G37*
G36*
X776578Y333646D02*
X775686Y333469D01*
X773854Y332244D01*
X772629Y330412D01*
X772452Y329520D01*
X776578D01*
Y333646D01*
D02*
G37*
G36*
X72700Y341691D02*
X69959Y341330D01*
X67405Y340272D01*
X65211Y338589D01*
X63528Y336395D01*
X62470Y333841D01*
X62109Y331100D01*
X62470Y328359D01*
X63528Y325805D01*
X65211Y323611D01*
X67405Y321928D01*
X69959Y320870D01*
X72700Y320509D01*
X75441Y320870D01*
X77995Y321928D01*
X80189Y323611D01*
X81717Y325603D01*
X110581D01*
X111049Y325290D01*
X113000Y324902D01*
X114951Y325290D01*
X116605Y326395D01*
X117710Y328049D01*
X118098Y330000D01*
X117710Y331951D01*
X116605Y333605D01*
X114951Y334710D01*
X113000Y335098D01*
X111399Y334780D01*
X82541D01*
X81872Y336395D01*
X80189Y338589D01*
X77995Y340272D01*
X75441Y341330D01*
X72700Y341691D01*
D02*
G37*
G36*
X165896Y328980D02*
X161770D01*
Y324854D01*
X162662Y325032D01*
X164494Y326256D01*
X165719Y328088D01*
X165896Y328980D01*
D02*
G37*
G36*
X159230D02*
X155104D01*
X155281Y328088D01*
X156506Y326256D01*
X158338Y325032D01*
X159230Y324854D01*
Y328980D01*
D02*
G37*
G36*
X555896Y328230D02*
X551770D01*
Y324104D01*
X552662Y324281D01*
X554494Y325506D01*
X555718Y327338D01*
X555896Y328230D01*
D02*
G37*
G36*
X549230D02*
X545104D01*
X545281Y327338D01*
X546506Y325506D01*
X548338Y324281D01*
X549230Y324104D01*
Y328230D01*
D02*
G37*
G36*
X783244Y326980D02*
X779118D01*
Y322854D01*
X780010Y323031D01*
X781842Y324256D01*
X783066Y326088D01*
X783244Y326980D01*
D02*
G37*
G36*
X776578D02*
X772452D01*
X772629Y326088D01*
X773854Y324256D01*
X775686Y323031D01*
X776578Y322854D01*
Y326980D01*
D02*
G37*
G36*
X47300Y341691D02*
X44559Y341330D01*
X42005Y340272D01*
X39811Y338589D01*
X38128Y336395D01*
X37070Y333841D01*
X36709Y331100D01*
X37070Y328359D01*
X38128Y325805D01*
X39811Y323611D01*
X42005Y321928D01*
X44559Y320870D01*
X47300Y320509D01*
X50041Y320870D01*
X52595Y321928D01*
X54789Y323611D01*
X56472Y325805D01*
X57530Y328359D01*
X57891Y331100D01*
X57530Y333841D01*
X56472Y336395D01*
X54789Y338589D01*
X52595Y340272D01*
X50041Y341330D01*
X47300Y341691D01*
D02*
G37*
G36*
X355500Y329000D02*
X334500D01*
Y308000D01*
X355500D01*
Y329000D01*
D02*
G37*
G36*
X319600Y329091D02*
X316859Y328730D01*
X314305Y327672D01*
X312111Y325989D01*
X310428Y323795D01*
X309370Y321241D01*
X309009Y318500D01*
X309370Y315759D01*
X310428Y313205D01*
X312111Y311011D01*
X314305Y309328D01*
X316859Y308270D01*
X319600Y307909D01*
X322341Y308270D01*
X324895Y309328D01*
X327089Y311011D01*
X328772Y313205D01*
X329830Y315759D01*
X330191Y318500D01*
X329830Y321241D01*
X328772Y323795D01*
X327089Y325989D01*
X324895Y327672D01*
X322341Y328730D01*
X319600Y329091D01*
D02*
G37*
G36*
X551396Y311396D02*
Y307270D01*
X555522D01*
X555345Y308162D01*
X554120Y309994D01*
X552287Y311219D01*
X551396Y311396D01*
D02*
G37*
G36*
X548856D02*
X547964Y311219D01*
X546132Y309994D01*
X544907Y308162D01*
X544730Y307270D01*
X548856D01*
Y311396D01*
D02*
G37*
G36*
X257020Y311146D02*
Y307020D01*
X261146D01*
X260969Y307912D01*
X259744Y309744D01*
X257912Y310969D01*
X257020Y311146D01*
D02*
G37*
G36*
X254480D02*
X253588Y310969D01*
X251756Y309744D01*
X250532Y307912D01*
X250354Y307020D01*
X254480D01*
Y311146D01*
D02*
G37*
G36*
X48570Y316668D02*
Y306970D01*
X58268D01*
X58056Y308582D01*
X56943Y311268D01*
X55174Y313574D01*
X52868Y315343D01*
X50182Y316456D01*
X48570Y316668D01*
D02*
G37*
G36*
X46030D02*
X44418Y316456D01*
X41732Y315343D01*
X39426Y313574D01*
X37657Y311268D01*
X36544Y308582D01*
X36332Y306970D01*
X46030D01*
Y316668D01*
D02*
G37*
G36*
X555522Y304730D02*
X551396D01*
Y300604D01*
X552287Y300781D01*
X554120Y302006D01*
X555345Y303838D01*
X555522Y304730D01*
D02*
G37*
G36*
X548856D02*
X544730D01*
X544907Y303838D01*
X546132Y302006D01*
X547964Y300781D01*
X548856Y300604D01*
Y304730D01*
D02*
G37*
G36*
X261146Y304480D02*
X257020D01*
Y300354D01*
X257912Y300532D01*
X259744Y301756D01*
X260969Y303588D01*
X261146Y304480D01*
D02*
G37*
G36*
X254480D02*
X250354D01*
X250532Y303588D01*
X251756Y301756D01*
X253588Y300532D01*
X254480Y300354D01*
Y304480D01*
D02*
G37*
G36*
X849630Y310640D02*
Y299370D01*
X860900D01*
Y310640D01*
X849630D01*
D02*
G37*
G36*
X83200Y316200D02*
X62200D01*
Y295200D01*
X83200D01*
Y316200D01*
D02*
G37*
G36*
X58268Y304430D02*
X48570D01*
Y294732D01*
X50182Y294944D01*
X52868Y296057D01*
X55174Y297826D01*
X56943Y300132D01*
X58056Y302818D01*
X58268Y304430D01*
D02*
G37*
G36*
X46030D02*
X36332D01*
X36544Y302818D01*
X37657Y300132D01*
X39426Y297826D01*
X41732Y296057D01*
X44418Y294944D01*
X46030Y294732D01*
Y304430D01*
D02*
G37*
G36*
X860900Y296830D02*
X849630D01*
Y285560D01*
X860900D01*
Y296830D01*
D02*
G37*
G36*
X163520Y287646D02*
Y283520D01*
X167646D01*
X167469Y284412D01*
X166244Y286244D01*
X164412Y287469D01*
X163520Y287646D01*
D02*
G37*
G36*
X160980D02*
X160088Y287469D01*
X158256Y286244D01*
X157031Y284412D01*
X156854Y283520D01*
X160980D01*
Y287646D01*
D02*
G37*
G36*
X167646Y280980D02*
X163520D01*
Y276854D01*
X164412Y277031D01*
X166244Y278256D01*
X167469Y280088D01*
X167646Y280980D01*
D02*
G37*
G36*
X160980D02*
X156854D01*
X157031Y280088D01*
X158256Y278256D01*
X160088Y277031D01*
X160980Y276854D01*
Y280980D01*
D02*
G37*
G36*
X504750Y285250D02*
X462750D01*
Y270338D01*
X448771D01*
X448410Y270266D01*
X448000Y270348D01*
X446049Y269960D01*
X444395Y268855D01*
X443290Y267201D01*
X442902Y265250D01*
X443290Y263299D01*
X444395Y261645D01*
X446049Y260540D01*
X448000Y260152D01*
X449951Y260540D01*
X450881Y261162D01*
X462750D01*
Y246250D01*
X504750D01*
Y285250D01*
D02*
G37*
G36*
X10020Y271396D02*
Y267270D01*
X14146D01*
X13969Y268162D01*
X12744Y269994D01*
X10912Y271219D01*
X10020Y271396D01*
D02*
G37*
G36*
X14146Y264730D02*
X10020D01*
Y260604D01*
X10912Y260781D01*
X12744Y262006D01*
X13969Y263838D01*
X14146Y264730D01*
D02*
G37*
G36*
X831850Y401338D02*
X829899Y400950D01*
X828245Y399845D01*
X827140Y398191D01*
X826752Y396240D01*
X827140Y394289D01*
X828245Y392635D01*
X828516Y392454D01*
Y276510D01*
X828770Y275234D01*
X829492Y274153D01*
X837795Y265850D01*
X836669Y263133D01*
X836256Y260000D01*
X836669Y256867D01*
X837878Y253948D01*
X839801Y251441D01*
X842308Y249518D01*
X845227Y248309D01*
X848360Y247896D01*
X851493Y248309D01*
X854412Y249518D01*
X856918Y251441D01*
X858842Y253948D01*
X860051Y256867D01*
X860464Y260000D01*
X860051Y263133D01*
X858842Y266052D01*
X856918Y268559D01*
X854412Y270482D01*
X851493Y271691D01*
X848360Y272104D01*
X845227Y271691D01*
X842510Y270565D01*
X835184Y277891D01*
Y283823D01*
X835820Y285560D01*
X837184Y285560D01*
X847090D01*
Y298100D01*
Y310640D01*
X837184D01*
X835820Y310640D01*
X835184Y312377D01*
Y392454D01*
X835455Y392635D01*
X836560Y394289D01*
X836948Y396240D01*
X836560Y398191D01*
X835455Y399845D01*
X833801Y400950D01*
X831850Y401338D01*
D02*
G37*
G36*
X136770Y251896D02*
Y247770D01*
X140896D01*
X140719Y248662D01*
X139494Y250494D01*
X137662Y251719D01*
X136770Y251896D01*
D02*
G37*
G36*
X134230D02*
X133338Y251719D01*
X131506Y250494D01*
X130281Y248662D01*
X130104Y247770D01*
X134230D01*
Y251896D01*
D02*
G37*
G36*
X140896Y245230D02*
X136770D01*
Y241104D01*
X137662Y241281D01*
X139494Y242506D01*
X140719Y244338D01*
X140896Y245230D01*
D02*
G37*
G36*
X134230D02*
X130104D01*
X130281Y244338D01*
X131506Y242506D01*
X133338Y241281D01*
X134230Y241104D01*
Y245230D01*
D02*
G37*
G36*
X9770Y224396D02*
Y220270D01*
X13896D01*
X13719Y221162D01*
X12494Y222994D01*
X10662Y224219D01*
X9770Y224396D01*
D02*
G37*
G36*
X13896Y217730D02*
X9770D01*
Y213604D01*
X10662Y213781D01*
X12494Y215006D01*
X13719Y216838D01*
X13896Y217730D01*
D02*
G37*
G36*
X152270Y215646D02*
Y211520D01*
X156396D01*
X156219Y212412D01*
X154994Y214244D01*
X153162Y215469D01*
X152270Y215646D01*
D02*
G37*
G36*
X149730D02*
X148838Y215469D01*
X147006Y214244D01*
X145781Y212412D01*
X145604Y211520D01*
X149730D01*
Y215646D01*
D02*
G37*
G36*
X177540Y214126D02*
Y210000D01*
X181666D01*
X181489Y210892D01*
X180264Y212724D01*
X178432Y213949D01*
X177540Y214126D01*
D02*
G37*
G36*
X175000D02*
X174108Y213949D01*
X172276Y212724D01*
X171051Y210892D01*
X170874Y210000D01*
X175000D01*
Y214126D01*
D02*
G37*
G36*
X848360Y234004D02*
X845227Y233591D01*
X842308Y232382D01*
X839801Y230459D01*
X837878Y227952D01*
X836669Y225033D01*
X836256Y221900D01*
X836669Y218767D01*
X837878Y215848D01*
X839801Y213342D01*
X842308Y211418D01*
X845227Y210209D01*
X848360Y209796D01*
X851493Y210209D01*
X854412Y211418D01*
X856918Y213342D01*
X858842Y215848D01*
X860051Y218767D01*
X860464Y221900D01*
X860051Y225033D01*
X858842Y227952D01*
X856918Y230459D01*
X854412Y232382D01*
X851493Y233591D01*
X848360Y234004D01*
D02*
G37*
G36*
X156396Y208980D02*
X152270D01*
Y204854D01*
X153162Y205031D01*
X154994Y206256D01*
X156219Y208088D01*
X156396Y208980D01*
D02*
G37*
G36*
X149730D02*
X145604D01*
X145781Y208088D01*
X147006Y206256D01*
X148838Y205031D01*
X149730Y204854D01*
Y208980D01*
D02*
G37*
G36*
X181666Y207460D02*
X177540D01*
Y203334D01*
X178432Y203512D01*
X180264Y204736D01*
X181489Y206568D01*
X181666Y207460D01*
D02*
G37*
G36*
X175000D02*
X170874D01*
X171051Y206568D01*
X172276Y204736D01*
X174108Y203512D01*
X175000Y203334D01*
Y207460D01*
D02*
G37*
G36*
X10020Y200896D02*
Y196770D01*
X14146D01*
X13969Y197662D01*
X12744Y199494D01*
X10912Y200718D01*
X10020Y200896D01*
D02*
G37*
G36*
X251440Y227272D02*
X248107Y226944D01*
X244903Y225972D01*
X241950Y224393D01*
X239361Y222269D01*
X237237Y219680D01*
X235658Y216727D01*
X234686Y213523D01*
X234358Y210190D01*
X234686Y206857D01*
X235658Y203653D01*
X237237Y200700D01*
X239361Y198111D01*
X241950Y195987D01*
X244903Y194408D01*
X248107Y193436D01*
X251440Y193108D01*
X254773Y193436D01*
X257977Y194408D01*
X260930Y195987D01*
X263519Y198111D01*
X265643Y200700D01*
X267222Y203653D01*
X268194Y206857D01*
X268522Y210190D01*
X268194Y213523D01*
X267222Y216727D01*
X265643Y219680D01*
X263519Y222269D01*
X260930Y224393D01*
X257977Y225972D01*
X254773Y226944D01*
X251440Y227272D01*
D02*
G37*
G36*
X14146Y194230D02*
X10020D01*
Y190104D01*
X10912Y190281D01*
X12744Y191506D01*
X13969Y193338D01*
X14146Y194230D01*
D02*
G37*
G36*
X337840Y189533D02*
X334066Y189161D01*
X330438Y188061D01*
X327094Y186273D01*
X324162Y183868D01*
X321757Y180937D01*
X319969Y177592D01*
X318869Y173964D01*
X318497Y170190D01*
X318869Y166416D01*
X319969Y162788D01*
X321757Y159444D01*
X324162Y156512D01*
X327094Y154107D01*
X330438Y152319D01*
X334066Y151219D01*
X337840Y150847D01*
X341614Y151219D01*
X345242Y152319D01*
X348587Y154107D01*
X351518Y156512D01*
X353923Y159444D01*
X355711Y162788D01*
X356811Y166416D01*
X357183Y170190D01*
X356811Y173964D01*
X355711Y177592D01*
X353923Y180937D01*
X351518Y183868D01*
X348587Y186273D01*
X345242Y188061D01*
X341614Y189161D01*
X337840Y189533D01*
D02*
G37*
G36*
X59770Y153896D02*
Y149770D01*
X63896D01*
X63719Y150662D01*
X62494Y152494D01*
X60662Y153719D01*
X59770Y153896D01*
D02*
G37*
G36*
X57230D02*
X56338Y153719D01*
X54506Y152494D01*
X53281Y150662D01*
X53104Y149770D01*
X57230D01*
Y153896D01*
D02*
G37*
G36*
X63896Y147230D02*
X59770D01*
Y143104D01*
X60662Y143281D01*
X62494Y144506D01*
X63719Y146338D01*
X63896Y147230D01*
D02*
G37*
G36*
X57230D02*
X53104D01*
X53281Y146338D01*
X54506Y144506D01*
X56338Y143281D01*
X57230Y143104D01*
Y147230D01*
D02*
G37*
G36*
X810000Y182099D02*
X804979Y181704D01*
X800081Y180528D01*
X795427Y178600D01*
X791133Y175969D01*
X787303Y172697D01*
X784031Y168867D01*
X781400Y164573D01*
X779472Y159919D01*
X778296Y155021D01*
X777901Y150000D01*
X778296Y144979D01*
X779472Y140081D01*
X781400Y135427D01*
X784031Y131133D01*
X787303Y127303D01*
X791133Y124031D01*
X795427Y121400D01*
X800081Y119472D01*
X804979Y118296D01*
X810000Y117901D01*
X815021Y118296D01*
X819919Y119472D01*
X824573Y121400D01*
X828867Y124031D01*
X832697Y127303D01*
X835969Y131133D01*
X838600Y135427D01*
X840528Y140081D01*
X841704Y144979D01*
X842099Y150000D01*
X841704Y155021D01*
X840528Y159919D01*
X838600Y164573D01*
X835969Y168867D01*
X832697Y172697D01*
X828867Y175969D01*
X824573Y178600D01*
X819919Y180528D01*
X815021Y181704D01*
X810000Y182099D01*
D02*
G37*
G36*
X637540Y142533D02*
X633766Y142162D01*
X630138Y141061D01*
X626794Y139273D01*
X623862Y136868D01*
X621457Y133937D01*
X619669Y130592D01*
X618568Y126964D01*
X618197Y123190D01*
X618568Y119416D01*
X619669Y115788D01*
X621457Y112444D01*
X623862Y109512D01*
X626794Y107107D01*
X630138Y105319D01*
X633766Y104219D01*
X637540Y103847D01*
X641314Y104219D01*
X644942Y105319D01*
X648287Y107107D01*
X651218Y109512D01*
X653623Y112444D01*
X655411Y115788D01*
X656512Y119416D01*
X656883Y123190D01*
X656512Y126964D01*
X655411Y130592D01*
X653623Y133937D01*
X651218Y136868D01*
X648287Y139273D01*
X644942Y141061D01*
X641314Y142162D01*
X637540Y142533D01*
D02*
G37*
G36*
X252710Y100690D02*
Y84460D01*
X268940D01*
X268726Y86629D01*
X267723Y89935D01*
X266094Y92982D01*
X263903Y95653D01*
X261232Y97844D01*
X258185Y99473D01*
X254879Y100476D01*
X252710Y100690D01*
D02*
G37*
G36*
X250170D02*
X248002Y100476D01*
X244695Y99473D01*
X241648Y97844D01*
X238977Y95653D01*
X236786Y92982D01*
X235157Y89935D01*
X234154Y86629D01*
X233940Y84460D01*
X250170D01*
Y100690D01*
D02*
G37*
G36*
X74250Y93341D02*
X71509Y92980D01*
X68955Y91922D01*
X66761Y90239D01*
X65078Y88045D01*
X64020Y85491D01*
X63659Y82750D01*
X64020Y80009D01*
X65078Y77455D01*
X66761Y75261D01*
X68955Y73578D01*
X71509Y72520D01*
X74250Y72159D01*
X76991Y72520D01*
X79545Y73578D01*
X81739Y75261D01*
X83422Y77455D01*
X84480Y80009D01*
X84841Y82750D01*
X84480Y85491D01*
X83422Y88045D01*
X81739Y90239D01*
X79545Y91922D01*
X76991Y92980D01*
X74250Y93341D01*
D02*
G37*
G36*
X268940Y81920D02*
X252710D01*
Y65690D01*
X254879Y65904D01*
X258185Y66907D01*
X261232Y68535D01*
X263903Y70727D01*
X266094Y73398D01*
X267723Y76445D01*
X268726Y79752D01*
X268940Y81920D01*
D02*
G37*
G36*
X250170D02*
X233940D01*
X234154Y79752D01*
X235157Y76445D01*
X236786Y73398D01*
X238977Y70727D01*
X241648Y68535D01*
X244695Y66907D01*
X248002Y65904D01*
X250170Y65690D01*
Y81920D01*
D02*
G37*
G36*
X92211Y79639D02*
X77361Y64790D01*
X92211Y49940D01*
X107060Y64790D01*
X92211Y79639D01*
D02*
G37*
G36*
X500290Y71790D02*
X485020D01*
Y42020D01*
X500290D01*
Y71790D01*
D02*
G37*
G36*
X482480D02*
X467210D01*
Y42020D01*
X482480D01*
Y71790D01*
D02*
G37*
G36*
X176020Y50218D02*
Y40520D01*
X185718D01*
X185506Y42132D01*
X184393Y44818D01*
X182624Y47124D01*
X180318Y48893D01*
X177632Y50006D01*
X176020Y50218D01*
D02*
G37*
G36*
X173480D02*
X171868Y50006D01*
X169182Y48893D01*
X166876Y47124D01*
X165107Y44818D01*
X163994Y42132D01*
X163782Y40520D01*
X173480D01*
Y50218D01*
D02*
G37*
G36*
X150000Y182099D02*
X144979Y181704D01*
X140081Y180528D01*
X135427Y178600D01*
X131133Y175969D01*
X127303Y172697D01*
X124031Y168867D01*
X121400Y164573D01*
X119472Y159919D01*
X118296Y155021D01*
X117901Y150000D01*
X118296Y144979D01*
X119472Y140081D01*
X121400Y135427D01*
X124031Y131133D01*
X127303Y127303D01*
X131133Y124031D01*
X135427Y121400D01*
X140081Y119472D01*
X140093Y119469D01*
Y49750D01*
X138850D01*
Y28750D01*
X159850D01*
Y49750D01*
X159257D01*
Y119313D01*
X159919Y119472D01*
X164573Y121400D01*
X168867Y124031D01*
X172697Y127303D01*
X175969Y131133D01*
X178600Y135427D01*
X180528Y140081D01*
X181704Y144979D01*
X182099Y150000D01*
X181704Y155021D01*
X180528Y159919D01*
X178600Y164573D01*
X175969Y168867D01*
X172697Y172697D01*
X168867Y175969D01*
X164573Y178600D01*
X159919Y180528D01*
X155021Y181704D01*
X150000Y182099D01*
D02*
G37*
G36*
X185718Y37980D02*
X176020D01*
Y28282D01*
X177632Y28494D01*
X180318Y29607D01*
X182624Y31376D01*
X184393Y33682D01*
X185506Y36368D01*
X185718Y37980D01*
D02*
G37*
G36*
X173480D02*
X163782D01*
X163994Y36368D01*
X165107Y33682D01*
X166876Y31376D01*
X169182Y29607D01*
X171868Y28494D01*
X173480Y28282D01*
Y37980D01*
D02*
G37*
G36*
X500290Y39480D02*
X485020D01*
Y9710D01*
X500290D01*
Y39480D01*
D02*
G37*
G36*
X482480D02*
X467210D01*
Y9710D01*
X482480D01*
Y39480D01*
D02*
G37*
%LPD*%
D10*
X645375Y549875D02*
X645500Y550000D01*
X645375Y481125D02*
Y549875D01*
X645250Y481000D02*
X645375Y481125D01*
D17*
X448000Y265250D02*
X448271D01*
X448771Y265750D01*
X483750D01*
X73800Y330000D02*
X73991Y330191D01*
X112809D01*
X113000Y330000D01*
X72700Y331100D02*
X73800Y330000D01*
D18*
X156750Y552300D02*
X156875Y552175D01*
Y493125D02*
Y552175D01*
Y493125D02*
X157000Y493000D01*
X831850Y276510D02*
Y396240D01*
Y276510D02*
X848360Y260000D01*
X787500Y335500D02*
X789000Y334000D01*
X787500Y335500D02*
Y354250D01*
X302750Y759460D02*
Y774210D01*
X314250Y784250D02*
X395580D01*
X326500Y808250D02*
X396980D01*
X408940Y796290D01*
X395580Y784250D02*
X408940Y770890D01*
X875030Y395760D02*
Y396240D01*
X863500Y384230D02*
X875030Y395760D01*
X863500Y383750D02*
Y384230D01*
X174250Y467750D02*
Y512250D01*
X130000Y500000D02*
X130662Y499338D01*
X133662D01*
X159750Y473250D01*
X285750Y621030D02*
X323850D01*
X255270Y590550D02*
X285750Y621030D01*
X323850Y619760D02*
X325120Y621030D01*
X323850Y612140D02*
Y619760D01*
Y621030D02*
X325120D01*
X337040Y632950D01*
X255270Y563880D02*
Y590550D01*
X337040Y632950D02*
X416750D01*
X323850Y645160D02*
Y681990D01*
X323740Y682100D02*
X323850Y681990D01*
X323000Y599000D02*
X374500D01*
X375500Y598000D01*
X369250Y612750D02*
X374450Y607550D01*
X416750D01*
X588750Y636250D02*
X589250Y636750D01*
X588750Y601779D02*
Y636250D01*
X322580Y711200D02*
X377190D01*
X78740Y760730D02*
X160071D01*
X179121Y779780D01*
X297180D01*
X302750Y774210D01*
D67*
X149675Y39575D02*
Y149675D01*
D70*
X156750Y577700D02*
D03*
X383540Y821690D02*
D03*
X72700Y305700D02*
D03*
X416750Y607550D02*
D03*
D71*
X156750Y552300D02*
D03*
X451500Y548750D02*
D03*
X408940Y821690D02*
D03*
X383540Y796290D02*
D03*
X408940D02*
D03*
X383540Y770890D02*
D03*
X408940D02*
D03*
X383540Y745490D02*
D03*
X408940D02*
D03*
X319600Y318500D02*
D03*
X74250Y82750D02*
D03*
X47300Y305700D02*
D03*
X72700Y331100D02*
D03*
X47300D02*
D03*
X72700Y356500D02*
D03*
X47300D02*
D03*
X72700Y381900D02*
D03*
X47300D02*
D03*
X72700Y407300D02*
D03*
X47300D02*
D03*
X72700Y432700D02*
D03*
X47300D02*
D03*
X72700Y458100D02*
D03*
X47300D02*
D03*
X72700Y483500D02*
D03*
X47300D02*
D03*
X72700Y508900D02*
D03*
X47300D02*
D03*
X72700Y534300D02*
D03*
X47300D02*
D03*
X174750Y39250D02*
D03*
X96700Y778690D02*
D03*
X416750Y632950D02*
D03*
X78740Y760730D02*
D03*
D72*
X426100Y548750D02*
D03*
X345000Y318500D02*
D03*
X149350Y39250D02*
D03*
D73*
X848360Y221900D02*
D03*
Y260000D02*
D03*
X265000Y759460D02*
D03*
X303100D02*
D03*
X75000Y614000D02*
D03*
Y652100D02*
D03*
X633730Y759460D02*
D03*
X740410D02*
D03*
D74*
X848360Y298100D02*
D03*
X75000Y575900D02*
D03*
D75*
X226900Y759460D02*
D03*
X702310D02*
D03*
X595630D02*
D03*
D76*
X92211Y64790D02*
D03*
D77*
X567300Y460800D02*
D03*
Y359200D02*
D03*
X592700Y460800D02*
D03*
X567300Y435400D02*
D03*
Y384600D02*
D03*
Y410000D02*
D03*
X592700Y435400D02*
D03*
Y384600D02*
D03*
Y410000D02*
D03*
D78*
X592800Y358950D02*
D03*
D79*
X60780Y742769D02*
D03*
D80*
X251440Y83190D02*
D03*
Y210190D02*
D03*
D81*
X150000Y150000D02*
D03*
X810000Y690000D02*
D03*
Y150000D02*
D03*
X150000Y690000D02*
D03*
D82*
X337840Y170190D02*
D03*
X637540Y123190D02*
D03*
D83*
X157000Y493000D02*
D03*
X789000Y334000D02*
D03*
X448000Y265250D02*
D03*
X817000Y335250D02*
D03*
X815250Y480000D02*
D03*
X840750Y484348D02*
D03*
X314250Y784250D02*
D03*
X326500Y808250D02*
D03*
X113000Y330000D02*
D03*
X850545Y435000D02*
D03*
X151000Y210250D02*
D03*
X176270Y208730D02*
D03*
X550500Y329500D02*
D03*
X550126Y306000D02*
D03*
X863500Y383750D02*
D03*
X369500Y563500D02*
D03*
X221500Y353000D02*
D03*
X168750Y358500D02*
D03*
X8750Y266000D02*
D03*
X777848Y328250D02*
D03*
X58500Y148500D02*
D03*
X552500Y683598D02*
D03*
X160500Y330250D02*
D03*
X628470Y570332D02*
D03*
X252770Y629230D02*
D03*
X285750Y694500D02*
D03*
X162250Y282250D02*
D03*
X767750Y406270D02*
D03*
X8500Y219000D02*
D03*
X242250Y599500D02*
D03*
X8750Y195500D02*
D03*
X255750Y305750D02*
D03*
X174250Y512250D02*
D03*
Y467750D02*
D03*
X114500Y358250D02*
D03*
X159750Y473250D02*
D03*
X130000Y500000D02*
D03*
X645250Y481000D02*
D03*
X645500Y550000D02*
D03*
X578750Y669750D02*
D03*
X432000Y679750D02*
D03*
X285750Y621030D02*
D03*
X323850Y612140D02*
D03*
X255270Y563880D02*
D03*
X323850Y645160D02*
D03*
X323740Y682100D02*
D03*
X875030Y396240D02*
D03*
X787500Y354250D02*
D03*
X323000Y599000D02*
D03*
X375500Y598000D02*
D03*
X369250Y612750D02*
D03*
X770750Y755500D02*
D03*
X595750Y779250D02*
D03*
X589250Y636750D02*
D03*
X588750Y601779D02*
D03*
X377190Y711200D02*
D03*
X322580D02*
D03*
X831850Y396240D02*
D03*
X135500Y246500D02*
D03*
X262850Y636850D02*
D03*
X715000Y634750D02*
D03*
D84*
X483750Y40750D02*
D03*
D85*
Y265750D02*
D03*
M02*
