G04*
G04 #@! TF.GenerationSoftware,Altium Limited,Altium Designer,20.2.4 (192)*
G04*
G04 Layer_Color=255*
%FSLAX44Y44*%
%MOMM*%
G71*
G04*
G04 #@! TF.SameCoordinates,03AB348B-DD29-4870-A44B-8DF697E34D15*
G04*
G04*
G04 #@! TF.FilePolarity,Positive*
G04*
G01*
G75*
%ADD19R,1.4000X2.0000*%
%ADD20R,2.6000X1.4000*%
%ADD21C,1.8000*%
%ADD22R,1.3000X1.4500*%
%ADD23R,0.5600X0.9500*%
%ADD24R,1.0000X1.9000*%
%ADD25R,1.4500X1.3000*%
%ADD26R,0.6000X2.2000*%
%ADD27R,0.8000X1.1000*%
%ADD28R,1.3500X1.0000*%
%ADD29R,0.5500X1.5000*%
%ADD30R,1.0000X1.3500*%
%ADD31R,0.9500X0.5600*%
%ADD32R,1.0000X0.8000*%
%ADD33R,2.5000X2.3000*%
%ADD34R,0.8000X1.0000*%
%ADD70R,1.7000X1.7000*%
%ADD71C,1.7000*%
%ADD72R,1.7000X1.7000*%
%ADD73C,2.0000*%
%ADD74R,2.0000X2.0000*%
%ADD75R,2.0000X2.0000*%
%ADD76P,2.4042X4X180.0*%
%ADD77C,1.7250*%
%ADD78R,1.7250X1.7250*%
%ADD79P,2.4042X4X90.0*%
%ADD80C,3.0000*%
%ADD81C,6.0000*%
%ADD82C,3.4500*%
D19*
X279750Y351000D02*
D03*
X299750D02*
D03*
X319750D02*
D03*
X339750D02*
D03*
X359750D02*
D03*
X259750D02*
D03*
X279750Y515000D02*
D03*
X299750D02*
D03*
X319750D02*
D03*
X339750D02*
D03*
X359750D02*
D03*
X259750D02*
D03*
D20*
X198750Y433000D02*
D03*
Y353000D02*
D03*
Y373000D02*
D03*
Y393000D02*
D03*
Y413000D02*
D03*
Y453000D02*
D03*
Y473000D02*
D03*
Y493000D02*
D03*
Y513000D02*
D03*
D21*
X429750Y353000D02*
D03*
X409750D02*
D03*
X429750Y513000D02*
D03*
X409750D02*
D03*
D22*
X832210Y335250D02*
D03*
X850750D02*
D03*
X585540Y306000D02*
D03*
X567000D02*
D03*
X41770Y266000D02*
D03*
X23230D02*
D03*
X585770Y329250D02*
D03*
X221000Y305250D02*
D03*
X103960Y247000D02*
D03*
X42020Y219000D02*
D03*
X23230Y195440D02*
D03*
X122500Y247000D02*
D03*
X355600Y563880D02*
D03*
X147020Y331250D02*
D03*
X23480Y219000D02*
D03*
X567230Y329250D02*
D03*
X239540Y305250D02*
D03*
X337060Y635000D02*
D03*
X355600D02*
D03*
X337060Y563880D02*
D03*
X128480Y331250D02*
D03*
X41770Y195440D02*
D03*
D23*
X746500Y667250D02*
D03*
X756000Y647750D02*
D03*
X737000D02*
D03*
X222910Y583790D02*
D03*
Y630780D02*
D03*
X241910Y583790D02*
D03*
Y630780D02*
D03*
X166726Y767940D02*
D03*
X232410Y564290D02*
D03*
Y611280D02*
D03*
X166980Y795430D02*
D03*
X147980D02*
D03*
X147726Y767940D02*
D03*
X157226Y748440D02*
D03*
X157480Y814930D02*
D03*
D24*
X783830Y793750D02*
D03*
X813830D02*
D03*
D25*
X151250Y222730D02*
D03*
Y241270D02*
D03*
X152250Y358460D02*
D03*
Y377000D02*
D03*
X128500D02*
D03*
Y358460D02*
D03*
X177250Y241270D02*
D03*
Y222730D02*
D03*
X285750Y681480D02*
D03*
X414020Y679830D02*
D03*
X762000Y328420D02*
D03*
X840740Y466850D02*
D03*
X594360Y669670D02*
D03*
X285750Y662940D02*
D03*
X414020Y661290D02*
D03*
X840740Y448310D02*
D03*
X594360Y651130D02*
D03*
X762000Y309880D02*
D03*
D26*
X876300Y418430D02*
D03*
X863600D02*
D03*
X838200D02*
D03*
X825500D02*
D03*
X889000D02*
D03*
X812800D02*
D03*
X850900D02*
D03*
X876300Y366430D02*
D03*
X863600D02*
D03*
X838200D02*
D03*
X825500D02*
D03*
X889000D02*
D03*
X850900D02*
D03*
X812800D02*
D03*
D27*
X695960Y648430D02*
D03*
X714960D02*
D03*
X705460Y669430D02*
D03*
D28*
X736500Y308730D02*
D03*
Y329270D02*
D03*
X65000Y197270D02*
D03*
X339090Y680830D02*
D03*
X645160Y650240D02*
D03*
X389890Y680830D02*
D03*
X815340Y467360D02*
D03*
X257810Y661560D02*
D03*
X308610Y682100D02*
D03*
Y661560D02*
D03*
X339090Y660290D02*
D03*
X364490Y660290D02*
D03*
X389890D02*
D03*
X863600Y446820D02*
D03*
X621030Y650130D02*
D03*
X234950Y661450D02*
D03*
X364490Y680830D02*
D03*
X645160Y670780D02*
D03*
X621030Y670670D02*
D03*
X234950Y681990D02*
D03*
X257810Y682100D02*
D03*
X913000Y403730D02*
D03*
X670560Y670670D02*
D03*
X913130Y363110D02*
D03*
Y383650D02*
D03*
X913000Y424270D02*
D03*
X886460Y446930D02*
D03*
X863600Y467360D02*
D03*
X886460Y467470D02*
D03*
X791210Y467470D02*
D03*
X815340Y446820D02*
D03*
X670560Y650130D02*
D03*
X791210Y446930D02*
D03*
X65000Y176730D02*
D03*
D29*
X273050Y582600D02*
D03*
X285750D02*
D03*
X298450D02*
D03*
X311150D02*
D03*
X273050Y636600D02*
D03*
X285750D02*
D03*
X298450D02*
D03*
X311150D02*
D03*
D30*
X123250Y270500D02*
D03*
X176710Y305250D02*
D03*
X197250D02*
D03*
Y282390D02*
D03*
X102710Y270500D02*
D03*
X628750Y614500D02*
D03*
X176710Y282390D02*
D03*
X768130Y392430D02*
D03*
X628750Y590370D02*
D03*
X336550Y612140D02*
D03*
X357310Y588190D02*
D03*
X285640Y551180D02*
D03*
X357090Y612140D02*
D03*
X336770Y588190D02*
D03*
X853550Y793750D02*
D03*
X833010D02*
D03*
X799270Y221750D02*
D03*
X608210Y614500D02*
D03*
Y590370D02*
D03*
X788670Y392430D02*
D03*
X766860Y367030D02*
D03*
X787400D02*
D03*
X778730Y221750D02*
D03*
X306180Y551180D02*
D03*
D31*
X552860Y649884D02*
D03*
Y668884D02*
D03*
X572360Y659384D02*
D03*
D32*
X550830Y606570D02*
D03*
X575830Y596820D02*
D03*
Y616320D02*
D03*
D33*
X791300Y755650D02*
D03*
X834300D02*
D03*
D34*
X46250Y148500D02*
D03*
X36500Y123500D02*
D03*
X26750Y148500D02*
D03*
D70*
X156750Y577700D02*
D03*
X383540Y821690D02*
D03*
X72700Y305700D02*
D03*
X416750Y607550D02*
D03*
D71*
X156750Y552300D02*
D03*
X451500Y548750D02*
D03*
X408940Y821690D02*
D03*
X383540Y796290D02*
D03*
X408940D02*
D03*
X383540Y770890D02*
D03*
X408940D02*
D03*
X383540Y745490D02*
D03*
X408940D02*
D03*
X319600Y318500D02*
D03*
X74250Y82750D02*
D03*
X47300Y305700D02*
D03*
X72700Y331100D02*
D03*
X47300D02*
D03*
X72700Y356500D02*
D03*
X47300D02*
D03*
X72700Y381900D02*
D03*
X47300D02*
D03*
X72700Y407300D02*
D03*
X47300D02*
D03*
X72700Y432700D02*
D03*
X47300D02*
D03*
X72700Y458100D02*
D03*
X47300D02*
D03*
X72700Y483500D02*
D03*
X47300D02*
D03*
X72700Y508900D02*
D03*
X47300D02*
D03*
X72700Y534300D02*
D03*
X47300D02*
D03*
X174750Y39250D02*
D03*
X96700Y778690D02*
D03*
X416750Y632950D02*
D03*
X78740Y760730D02*
D03*
D72*
X426100Y548750D02*
D03*
X345000Y318500D02*
D03*
X149350Y39250D02*
D03*
D73*
X848360Y221900D02*
D03*
Y260000D02*
D03*
X265000Y759460D02*
D03*
X303100D02*
D03*
X75000Y614000D02*
D03*
Y652100D02*
D03*
X633730Y759460D02*
D03*
X740410D02*
D03*
D74*
X848360Y298100D02*
D03*
X75000Y575900D02*
D03*
D75*
X226900Y759460D02*
D03*
X702310D02*
D03*
X595630D02*
D03*
D76*
X92211Y64790D02*
D03*
D77*
X567300Y460800D02*
D03*
Y359200D02*
D03*
X592700Y460800D02*
D03*
X567300Y435400D02*
D03*
Y384600D02*
D03*
Y410000D02*
D03*
X592700Y435400D02*
D03*
Y384600D02*
D03*
Y410000D02*
D03*
D78*
X592800Y358950D02*
D03*
D79*
X60780Y742769D02*
D03*
D80*
X251440Y83190D02*
D03*
Y210190D02*
D03*
D81*
X150000Y150000D02*
D03*
X810000Y690000D02*
D03*
Y150000D02*
D03*
X150000Y690000D02*
D03*
D82*
X337840Y170190D02*
D03*
X637540Y123190D02*
D03*
M02*
