G04*
G04 #@! TF.GenerationSoftware,Altium Limited,Altium Designer,20.2.4 (192)*
G04*
G04 Layer_Physical_Order=1*
G04 Layer_Color=255*
%FSLAX44Y44*%
%MOMM*%
G71*
G04*
G04 #@! TF.SameCoordinates,03AB348B-DD29-4870-A44B-8DF697E34D15*
G04*
G04*
G04 #@! TF.FilePolarity,Positive*
G04*
G01*
G75*
%ADD10C,0.2000*%
%ADD11C,0.2500*%
%ADD17C,0.5000*%
%ADD18C,0.2540*%
%ADD19R,1.4000X2.0000*%
%ADD20R,2.6000X1.4000*%
%ADD21C,1.8000*%
%ADD22R,1.3000X1.4500*%
%ADD23R,0.5600X0.9500*%
%ADD24R,1.0000X1.9000*%
%ADD25R,1.4500X1.3000*%
%ADD26R,0.6000X2.2000*%
%ADD27R,0.8000X1.1000*%
%ADD28R,1.3500X1.0000*%
%ADD29R,0.5500X1.5000*%
%ADD30R,1.0000X1.3500*%
%ADD31R,0.9500X0.5600*%
%ADD32R,1.0000X0.8000*%
%ADD33R,2.5000X2.3000*%
%ADD34R,0.8000X1.0000*%
%ADD64C,0.3000*%
%ADD65C,1.0000*%
%ADD66C,0.7000*%
%ADD67C,1.5000*%
%ADD68C,0.3500*%
%ADD69C,0.6000*%
%ADD70R,1.7000X1.7000*%
%ADD71C,1.7000*%
%ADD72R,1.7000X1.7000*%
%ADD73C,2.0000*%
%ADD74R,2.0000X2.0000*%
%ADD75R,2.0000X2.0000*%
%ADD76P,2.4042X4X180.0*%
%ADD77C,1.7250*%
%ADD78R,1.7250X1.7250*%
%ADD79P,2.4042X4X90.0*%
%ADD80C,3.0000*%
%ADD81C,6.0000*%
%ADD82C,3.4500*%
%ADD83C,0.6000*%
G36*
X959951Y221842D02*
X860850Y221461D01*
X860464Y221900D01*
X860051Y225033D01*
X858925Y227750D01*
X877357Y246182D01*
X878080Y247264D01*
X878334Y248540D01*
Y334250D01*
X878080Y335526D01*
X877357Y336608D01*
X866934Y347031D01*
Y353430D01*
X868600D01*
Y379430D01*
X868146D01*
X867476Y380700D01*
X868210Y381799D01*
X868598Y383750D01*
X868267Y385416D01*
X868963Y386686D01*
X871002D01*
X876395Y381292D01*
X877282Y380700D01*
X877223Y379856D01*
X877071Y379430D01*
X871300D01*
Y353430D01*
X881300D01*
Y361846D01*
X884000D01*
Y353430D01*
X894000D01*
Y362096D01*
X896439D01*
X897783Y360752D01*
X898864Y360030D01*
X900140Y359776D01*
X900140Y359776D01*
X904380D01*
Y356110D01*
X921880D01*
Y370110D01*
X904380D01*
Y366444D01*
X901521D01*
X900178Y367788D01*
X899096Y368510D01*
X897820Y368764D01*
X894000D01*
Y379046D01*
X894000Y379430D01*
X894903Y380316D01*
X904380D01*
Y376650D01*
X921880D01*
Y390650D01*
X904380D01*
Y386984D01*
X880134D01*
X876817Y390301D01*
X877223Y391692D01*
X878635Y392635D01*
X878816Y392906D01*
X903760D01*
X905036Y393160D01*
X906117Y393882D01*
X908965Y396730D01*
X921750D01*
Y410730D01*
X905084D01*
X904250Y410730D01*
X903814Y411819D01*
Y416181D01*
X904250Y417270D01*
X921750D01*
Y431270D01*
X904250D01*
Y427584D01*
X901964D01*
X900696Y427331D01*
X899621Y426613D01*
X898157Y425149D01*
X897439Y424074D01*
X897186Y422805D01*
Y408123D01*
X896127Y407064D01*
X894000D01*
Y426744D01*
X902593Y435337D01*
X903311Y436412D01*
X903564Y437680D01*
Y466006D01*
X903311Y467274D01*
X902593Y468349D01*
X901129Y469813D01*
X900054Y470531D01*
X898785Y470784D01*
X895210D01*
Y474470D01*
X877710D01*
Y473023D01*
X872350D01*
Y474360D01*
X854850D01*
Y460360D01*
X872350D01*
Y461807D01*
X877710D01*
Y460470D01*
X895210D01*
Y464156D01*
X896936D01*
Y439053D01*
X889314Y431430D01*
X884000D01*
Y409076D01*
X882827Y408590D01*
X881300Y410116D01*
Y431430D01*
X879614D01*
Y437147D01*
X882396Y439930D01*
X895210D01*
Y453930D01*
X877710D01*
Y444616D01*
X874146Y441052D01*
X873066Y440527D01*
X873065Y440527D01*
X873065D01*
X872350Y440744D01*
X872350Y440923D01*
X872350Y440923D01*
X872350Y440924D01*
Y453820D01*
X854850D01*
Y451644D01*
X849990D01*
Y456810D01*
X831490D01*
Y439810D01*
X837406D01*
Y436991D01*
X835843Y435428D01*
X835120Y434346D01*
X834866Y433070D01*
Y431430D01*
X833200D01*
Y405430D01*
X843200D01*
Y431430D01*
X843071D01*
X842545Y432700D01*
X843098Y433252D01*
X843820Y434334D01*
X844074Y435610D01*
Y439810D01*
X846458D01*
X846822Y438901D01*
X846897Y438540D01*
X845835Y436951D01*
X845447Y435000D01*
X845835Y433049D01*
X846352Y432276D01*
X845900Y431430D01*
X845900D01*
Y405430D01*
X855900D01*
Y431430D01*
X855520D01*
X854921Y432550D01*
X855255Y433049D01*
X855643Y435000D01*
X855255Y436951D01*
X854150Y438605D01*
X852496Y439710D01*
X850545Y440098D01*
X849990Y440553D01*
Y444976D01*
X854850D01*
Y439820D01*
X871515Y439820D01*
X871950Y439820D01*
X872429Y439393D01*
X872429D01*
X872429Y439393D01*
Y439393D01*
X872986Y438338D01*
Y431430D01*
X871300D01*
Y405430D01*
X876614D01*
X880637Y401407D01*
X881479Y400844D01*
X881319Y399701D01*
X881268Y399574D01*
X878816D01*
X878635Y399845D01*
X876981Y400950D01*
X875030Y401338D01*
X873079Y400950D01*
X871425Y399845D01*
X870320Y398191D01*
X869932Y396240D01*
X870254Y394624D01*
X869534Y393354D01*
X862145D01*
X861619Y394624D01*
X865957Y398963D01*
X866680Y400044D01*
X866934Y401320D01*
Y405430D01*
X868600D01*
Y431430D01*
X858600D01*
Y405430D01*
X860266D01*
Y402701D01*
X857139Y399574D01*
X835636D01*
X835455Y399845D01*
X833801Y400950D01*
X831850Y401338D01*
X829899Y400950D01*
X828245Y399845D01*
X827140Y398191D01*
X826752Y396240D01*
X827140Y394289D01*
X828245Y392635D01*
X829899Y391530D01*
X831850Y391142D01*
X833801Y391530D01*
X835455Y392635D01*
X835636Y392906D01*
X843355D01*
X843881Y391636D01*
X835843Y383597D01*
X835120Y382516D01*
X834866Y381240D01*
Y379430D01*
X833200D01*
Y353430D01*
X832177Y352834D01*
X831523D01*
X830500Y353430D01*
X830500Y354104D01*
Y379430D01*
X828834D01*
Y381000D01*
X828580Y382276D01*
X827858Y383358D01*
X816428Y394787D01*
X815346Y395510D01*
X814070Y395764D01*
X795670D01*
Y401180D01*
X781670D01*
Y387752D01*
X781661Y387706D01*
X769735Y375780D01*
X759860D01*
Y358280D01*
X773860D01*
Y370475D01*
X779130Y375745D01*
X780400Y375219D01*
Y358280D01*
X782652D01*
X783331Y357010D01*
X782790Y356201D01*
X782402Y354250D01*
X782790Y352299D01*
X783895Y350645D01*
X785549Y349540D01*
X787500Y349152D01*
X789451Y349540D01*
X791105Y350645D01*
X792210Y352299D01*
X792598Y354250D01*
X792210Y356201D01*
X791669Y357010D01*
X792348Y358280D01*
X794400D01*
Y363696D01*
X796179D01*
X797053Y362822D01*
X798134Y362100D01*
X799410Y361846D01*
X807800D01*
X807800Y353430D01*
X806777Y352834D01*
X806500D01*
X805224Y352580D01*
X804143Y351857D01*
X799869Y347584D01*
X737988D01*
X736712Y347330D01*
X735630Y346608D01*
X734143Y345120D01*
X733420Y344038D01*
X733166Y342762D01*
Y336270D01*
X727750D01*
Y322270D01*
X745250D01*
Y336270D01*
X739834D01*
Y340916D01*
X801250D01*
X802526Y341170D01*
X803607Y341893D01*
X807881Y346166D01*
X836712D01*
X837988Y346420D01*
X839070Y347142D01*
X840557Y348630D01*
X841280Y349712D01*
X841534Y350988D01*
Y353430D01*
X843200D01*
Y379430D01*
X842901D01*
X842375Y380700D01*
X848361Y386686D01*
X858037D01*
X858733Y385416D01*
X858402Y383750D01*
X858790Y381799D01*
X859525Y380700D01*
X858854Y379430D01*
X858600D01*
Y353430D01*
X860266D01*
Y346113D01*
X859999Y345511D01*
X859092Y345040D01*
X854469D01*
Y352890D01*
X856440D01*
Y365160D01*
X850900D01*
X845360D01*
Y352890D01*
X847331D01*
Y345040D01*
X841756D01*
X841710Y345040D01*
X840664Y344500D01*
X840440Y344500D01*
X823710D01*
Y338584D01*
X820786D01*
X820605Y338855D01*
X818951Y339960D01*
X817000Y340348D01*
X815049Y339960D01*
X813395Y338855D01*
X812290Y337201D01*
X811902Y335250D01*
X812290Y333299D01*
X813395Y331645D01*
X815049Y330540D01*
X817000Y330152D01*
X818951Y330540D01*
X820605Y331645D01*
X820786Y331916D01*
X823710D01*
Y326000D01*
X840440D01*
X840664Y326000D01*
X841710Y325460D01*
X841756Y325460D01*
X849480D01*
Y335250D01*
X850750D01*
Y336520D01*
X859790D01*
Y343180D01*
X861060Y343566D01*
X861243Y343293D01*
X871666Y332869D01*
Y249921D01*
X854210Y232465D01*
X851493Y233591D01*
X848360Y234004D01*
X845227Y233591D01*
X842308Y232382D01*
X839801Y230459D01*
X837878Y227952D01*
X836752Y225234D01*
X806270D01*
Y226908D01*
X806334Y227230D01*
X806270Y227552D01*
Y230500D01*
X803322D01*
X803000Y230564D01*
X802678Y230500D01*
X792270D01*
Y221197D01*
X786630Y221176D01*
X785730Y222072D01*
Y230500D01*
X782064D01*
Y254849D01*
X791357Y264142D01*
X792080Y265224D01*
X792334Y266500D01*
Y330214D01*
X792605Y330395D01*
X793710Y332049D01*
X794098Y334000D01*
X793710Y335951D01*
X792605Y337605D01*
X790951Y338710D01*
X789000Y339098D01*
X787049Y338710D01*
X785395Y337605D01*
X784290Y335951D01*
X783902Y334000D01*
X784290Y332049D01*
X785395Y330395D01*
X785666Y330214D01*
Y267881D01*
X776373Y258587D01*
X775650Y257506D01*
X775396Y256230D01*
Y230500D01*
X771730D01*
Y221119D01*
X265914Y219174D01*
X265643Y219680D01*
X263519Y222269D01*
X260930Y224393D01*
X257977Y225972D01*
X254773Y226944D01*
X251440Y227272D01*
X248107Y226944D01*
X244903Y225972D01*
X241950Y224393D01*
X239361Y222269D01*
X237237Y219680D01*
X236906Y219062D01*
X187400Y218872D01*
X186500Y219768D01*
Y230960D01*
X186500Y231184D01*
X187040Y232230D01*
X187040Y232276D01*
Y240000D01*
X167460D01*
Y232276D01*
X167460Y232230D01*
X168000Y231184D01*
X168000Y230960D01*
Y218797D01*
X161400Y218772D01*
X160500Y219668D01*
Y230960D01*
X160500Y231184D01*
X161040Y232230D01*
X161040Y232276D01*
Y240000D01*
X141460D01*
Y232276D01*
X141460Y232230D01*
X142000Y231184D01*
X142000Y230960D01*
Y218697D01*
X115689Y218596D01*
X114789Y219492D01*
Y237750D01*
X131000D01*
Y242082D01*
X131082Y242157D01*
X132270Y242645D01*
X133549Y241790D01*
X135500Y241402D01*
X137451Y241790D01*
X139105Y242895D01*
X140210Y244549D01*
X140704Y244460D01*
X141460Y244191D01*
Y242540D01*
X149980D01*
Y250310D01*
X141460D01*
Y248682D01*
X141436Y248672D01*
X140210Y248451D01*
X139105Y250105D01*
X137451Y251210D01*
X135500Y251598D01*
X133549Y251210D01*
X132270Y250355D01*
X131082Y250843D01*
X131000Y250918D01*
Y256250D01*
X114789D01*
Y260367D01*
X115525Y261040D01*
X115803Y261210D01*
X116059Y261210D01*
X121980D01*
Y270500D01*
Y279790D01*
X116059D01*
X115710Y279790D01*
X114789Y280633D01*
Y318250D01*
X123892D01*
Y303770D01*
X124241Y302014D01*
X125236Y300526D01*
X134662Y291099D01*
Y268179D01*
X135011Y266423D01*
X136006Y264935D01*
X138935Y262006D01*
X140423Y261011D01*
X142179Y260662D01*
X445867D01*
X446049Y260540D01*
X448000Y260152D01*
X449951Y260540D01*
X451605Y261645D01*
X452710Y263299D01*
X453098Y265250D01*
X452710Y267201D01*
X451605Y268855D01*
X449951Y269960D01*
X448000Y270348D01*
X446049Y269960D01*
X445867Y269838D01*
X144079D01*
X143838Y270079D01*
Y293000D01*
X143489Y294756D01*
X142494Y296244D01*
X133068Y305671D01*
Y318250D01*
X309042D01*
X309370Y315759D01*
X310428Y313205D01*
X312111Y311011D01*
X314305Y309328D01*
X316859Y308270D01*
X319600Y307909D01*
X322341Y308270D01*
X324895Y309328D01*
X327089Y311011D01*
X328772Y313205D01*
X329830Y315759D01*
X330158Y318250D01*
X334500D01*
Y308000D01*
X355500D01*
Y318250D01*
X470626D01*
X471112Y317077D01*
X450071Y296036D01*
X248040D01*
Y302416D01*
X251964D01*
X252145Y302145D01*
X253799Y301040D01*
X255750Y300652D01*
X257701Y301040D01*
X259355Y302145D01*
X260460Y303799D01*
X260848Y305750D01*
X260460Y307701D01*
X259355Y309355D01*
X257701Y310460D01*
X255750Y310848D01*
X253799Y310460D01*
X252145Y309355D01*
X251964Y309084D01*
X248040D01*
Y314500D01*
X231040D01*
Y296036D01*
X229500D01*
Y314500D01*
X212500D01*
Y308584D01*
X204250D01*
Y314000D01*
X190250D01*
Y296500D01*
X193916D01*
Y291140D01*
X190250D01*
Y273640D01*
X204250D01*
Y291140D01*
X200584D01*
Y296500D01*
X204250D01*
Y301916D01*
X212500D01*
Y296000D01*
X217266D01*
Y294190D01*
X217520Y292914D01*
X218242Y291833D01*
X219730Y290345D01*
X220812Y289622D01*
X222088Y289368D01*
X451452D01*
X452728Y289622D01*
X453810Y290345D01*
X481715Y318250D01*
X527587D01*
Y407794D01*
X555433Y435640D01*
X556631Y435041D01*
X556949Y432626D01*
X558019Y430042D01*
X559722Y427822D01*
X561942Y426119D01*
X564526Y425048D01*
X567300Y424683D01*
X570074Y425048D01*
X572373Y426001D01*
X577537Y420837D01*
X577537Y420837D01*
X578530Y420174D01*
X579700Y419941D01*
X579700Y419941D01*
X586116D01*
X586547Y418671D01*
X585122Y417578D01*
X583419Y415358D01*
X582349Y412774D01*
X581983Y410000D01*
X582349Y407226D01*
X583419Y404642D01*
X585122Y402422D01*
X587342Y400719D01*
X589926Y399649D01*
X592700Y399283D01*
X595474Y399649D01*
X598058Y400719D01*
X600278Y402422D01*
X601981Y404642D01*
X603051Y407226D01*
X603417Y410000D01*
X603051Y412774D01*
X601981Y415358D01*
X600278Y417578D01*
X598853Y418671D01*
X599284Y419941D01*
X796483D01*
X799157Y417267D01*
X800150Y416604D01*
X801320Y416371D01*
X807800D01*
Y405430D01*
X817800D01*
Y431430D01*
X807800D01*
Y422489D01*
X802587D01*
X799913Y425163D01*
X798921Y425826D01*
X797750Y426059D01*
X797750Y426059D01*
X794922D01*
Y439930D01*
X799960D01*
Y453930D01*
X782460D01*
Y439930D01*
X788804D01*
Y426059D01*
X600066D01*
X599635Y427329D01*
X600278Y427822D01*
X601981Y430042D01*
X603051Y432626D01*
X603417Y435400D01*
X603051Y438174D01*
X601981Y440758D01*
X600278Y442978D01*
X598058Y444681D01*
X595474Y445751D01*
X592700Y446117D01*
X589926Y445751D01*
X587902Y444913D01*
X583162Y449652D01*
X582081Y450375D01*
X580805Y450629D01*
X573585D01*
X573154Y451899D01*
X574878Y453222D01*
X576581Y455442D01*
X577651Y458026D01*
X578017Y460800D01*
X577651Y463574D01*
X576699Y465873D01*
X588767Y477941D01*
X641280D01*
X641645Y477395D01*
X643299Y476290D01*
X645250Y475902D01*
X647201Y476290D01*
X648855Y477395D01*
X649960Y479049D01*
X650348Y481000D01*
X649960Y482951D01*
X648855Y484605D01*
X647201Y485710D01*
X645250Y486098D01*
X643299Y485710D01*
X641645Y484605D01*
X641280Y484059D01*
X587500D01*
X586329Y483826D01*
X585337Y483163D01*
X572373Y470199D01*
X570074Y471152D01*
X567300Y471517D01*
X564526Y471152D01*
X561942Y470081D01*
X559722Y468378D01*
X558019Y466158D01*
X556949Y463574D01*
X556583Y460800D01*
X556949Y458026D01*
X558019Y455442D01*
X559722Y453222D01*
X561611Y451772D01*
X561448Y450577D01*
X561371Y450430D01*
X561097Y450375D01*
X560015Y449652D01*
X528760Y418397D01*
X527587Y418883D01*
Y508000D01*
X527587Y527000D01*
X959951D01*
Y221842D01*
D02*
G37*
G36*
X821085Y380700D02*
X820559Y379430D01*
X820500D01*
Y354104D01*
X820500Y353430D01*
X819477Y352834D01*
X818823D01*
X817800Y353430D01*
X817800Y354104D01*
Y379430D01*
X807800D01*
Y368514D01*
X800791D01*
X799918Y369388D01*
X798836Y370110D01*
X797560Y370364D01*
X794400D01*
Y375780D01*
X780961D01*
X780435Y377050D01*
X787065Y383680D01*
X795670D01*
Y389096D01*
X812689D01*
X821085Y380700D01*
D02*
G37*
G36*
X514898Y392492D02*
Y334827D01*
X500362D01*
X498809Y336725D01*
Y379016D01*
X513050Y393257D01*
X514898Y392492D01*
D02*
G37*
G36*
X959951Y721444D02*
Y540327D01*
X514898D01*
Y404535D01*
X493117Y382754D01*
X492394Y381673D01*
X492141Y380397D01*
Y338106D01*
X488862Y334827D01*
X343138D01*
X343084Y334881D01*
Y339000D01*
X348750D01*
Y363000D01*
X330750D01*
Y339000D01*
X336416D01*
Y334827D01*
X322934D01*
Y339000D01*
X328750D01*
Y363000D01*
X310750D01*
Y339000D01*
X316266D01*
Y334827D01*
X162649D01*
X162451Y334960D01*
X160500Y335348D01*
X158549Y334960D01*
X158351Y334827D01*
X155520D01*
Y340500D01*
X138520D01*
Y340500D01*
X136980D01*
Y340500D01*
X119980D01*
Y334827D01*
X114361D01*
X113000Y335098D01*
X111639Y334827D01*
X109972D01*
Y333990D01*
X109395Y333605D01*
X108290Y331951D01*
X107902Y330000D01*
X108290Y328049D01*
X109395Y326395D01*
X109972Y326010D01*
Y279790D01*
X103980D01*
Y270500D01*
Y261210D01*
X109972D01*
Y256790D01*
X105230D01*
Y247000D01*
Y237210D01*
X109972D01*
Y189165D01*
X108536Y187773D01*
X75904Y188799D01*
X74290Y189730D01*
X74290Y190850D01*
Y196000D01*
X65000D01*
X55710D01*
Y191434D01*
X53808Y189493D01*
X50270Y189604D01*
Y204690D01*
X33270D01*
X32299Y206288D01*
Y207492D01*
X32980Y209210D01*
X34299Y209210D01*
X40750D01*
Y219000D01*
Y228790D01*
X34299D01*
X32980Y228790D01*
X32299Y230508D01*
Y232055D01*
X5049D01*
Y260054D01*
X6477Y261062D01*
X7049Y261240D01*
X8750Y260902D01*
X10701Y261290D01*
X12355Y262395D01*
X12720Y262941D01*
X14730D01*
Y256750D01*
X30954D01*
X32730Y256210D01*
X33506Y256210D01*
X40500D01*
Y266000D01*
Y275790D01*
X33506D01*
X32730Y275790D01*
X30954Y275250D01*
X14730D01*
Y269059D01*
X12720D01*
X12355Y269605D01*
X10701Y270710D01*
X8750Y271098D01*
X7049Y270760D01*
X6477Y270938D01*
X5049Y271946D01*
Y721444D01*
X123556Y839951D01*
X841444Y839951D01*
X959951Y721444D01*
D02*
G37*
%LPC*%
G36*
X815250Y485098D02*
X813299Y484710D01*
X811645Y483605D01*
X810540Y481951D01*
X810152Y480000D01*
X810540Y478049D01*
X811645Y476395D01*
X812006Y476154D01*
Y474360D01*
X806590D01*
Y460360D01*
X824090D01*
Y474360D01*
X818674D01*
Y476274D01*
X818855Y476395D01*
X819960Y478049D01*
X820348Y480000D01*
X819960Y481951D01*
X818855Y483605D01*
X817201Y484710D01*
X815250Y485098D01*
D02*
G37*
G36*
X840750Y489446D02*
X838799Y489058D01*
X837145Y487953D01*
X836040Y486299D01*
X835652Y484348D01*
X836040Y482397D01*
X837145Y480743D01*
X837416Y480562D01*
Y475350D01*
X831490D01*
Y458350D01*
X849990D01*
Y475350D01*
X844084D01*
Y480562D01*
X844355Y480743D01*
X845460Y482397D01*
X845848Y484348D01*
X845460Y486299D01*
X844355Y487953D01*
X842701Y489058D01*
X840750Y489446D01*
D02*
G37*
G36*
X592700Y471517D02*
X589926Y471152D01*
X587342Y470081D01*
X585122Y468378D01*
X583419Y466158D01*
X582349Y463574D01*
X581983Y460800D01*
X582349Y458026D01*
X583419Y455442D01*
X585122Y453222D01*
X587342Y451519D01*
X589926Y450448D01*
X592700Y450083D01*
X595474Y450448D01*
X598058Y451519D01*
X600278Y453222D01*
X601981Y455442D01*
X603051Y458026D01*
X603417Y460800D01*
X603051Y463574D01*
X601981Y466158D01*
X600278Y468378D01*
X598058Y470081D01*
X595474Y471152D01*
X592700Y471517D01*
D02*
G37*
G36*
X799960Y474470D02*
X782460D01*
Y460470D01*
X795245D01*
X806590Y449125D01*
Y439820D01*
X813041D01*
X813598Y438987D01*
X820045Y432540D01*
X820500Y431430D01*
X820500D01*
X820500Y431430D01*
Y405430D01*
X830500D01*
Y431430D01*
X828834D01*
Y431800D01*
X828580Y433076D01*
X827858Y434158D01*
X823368Y438647D01*
X823854Y439820D01*
X824090D01*
Y453820D01*
X811325D01*
X799960Y465185D01*
Y474470D01*
D02*
G37*
G36*
X567300Y420717D02*
X564526Y420352D01*
X561942Y419281D01*
X559722Y417578D01*
X558019Y415358D01*
X556949Y412774D01*
X556583Y410000D01*
X556949Y407226D01*
X558019Y404642D01*
X559722Y402422D01*
X561942Y400719D01*
X564526Y399649D01*
X567300Y399283D01*
X570074Y399649D01*
X572658Y400719D01*
X574878Y402422D01*
X576581Y404642D01*
X577651Y407226D01*
X578017Y410000D01*
X577651Y412774D01*
X576581Y415358D01*
X574878Y417578D01*
X572658Y419281D01*
X570074Y420352D01*
X567300Y420717D01*
D02*
G37*
G36*
X767750Y411368D02*
X765799Y410980D01*
X764145Y409875D01*
X763040Y408221D01*
X762652Y406270D01*
X763040Y404319D01*
X764145Y402665D01*
X764416Y402484D01*
Y401180D01*
X761130D01*
Y383680D01*
X775130D01*
Y401180D01*
X771084D01*
Y402484D01*
X771355Y402665D01*
X772460Y404319D01*
X772848Y406270D01*
X772460Y408221D01*
X771355Y409875D01*
X769701Y410980D01*
X767750Y411368D01*
D02*
G37*
G36*
X567300Y395317D02*
X564526Y394952D01*
X561942Y393881D01*
X559722Y392178D01*
X558019Y389958D01*
X556949Y387374D01*
X556583Y384600D01*
X556949Y381826D01*
X558019Y379242D01*
X559722Y377022D01*
X561942Y375319D01*
X564526Y374249D01*
X567300Y373883D01*
X570074Y374249D01*
X572658Y375319D01*
X574878Y377022D01*
X576581Y379242D01*
X577651Y381826D01*
X578017Y384600D01*
X577651Y387374D01*
X576581Y389958D01*
X574878Y392178D01*
X572658Y393881D01*
X570074Y394952D01*
X567300Y395317D01*
D02*
G37*
G36*
X856440Y379970D02*
X852170D01*
Y367700D01*
X856440D01*
Y379970D01*
D02*
G37*
G36*
X849630D02*
X845360D01*
Y367700D01*
X849630D01*
Y379970D01*
D02*
G37*
G36*
X603965Y370115D02*
X594070D01*
Y360220D01*
X603965D01*
Y370115D01*
D02*
G37*
G36*
X591530D02*
X581635D01*
Y360220D01*
X591530D01*
Y370115D01*
D02*
G37*
G36*
X603965Y357680D02*
X594070D01*
Y347785D01*
X603965D01*
Y357680D01*
D02*
G37*
G36*
X591530D02*
X581635D01*
Y347785D01*
X591530D01*
Y357680D01*
D02*
G37*
G36*
X567300Y369917D02*
X564526Y369552D01*
X561942Y368481D01*
X559722Y366778D01*
X558019Y364558D01*
X556949Y361974D01*
X556583Y359200D01*
X556949Y356426D01*
X558019Y353842D01*
X559722Y351622D01*
X560205Y351252D01*
Y338500D01*
X558730D01*
Y336310D01*
X552350D01*
X552327Y336320D01*
X550500Y336560D01*
X548673Y336320D01*
X546970Y335615D01*
X545508Y334492D01*
X544385Y333030D01*
X543680Y331327D01*
X543440Y329500D01*
X543680Y327673D01*
X544385Y325970D01*
X545508Y324508D01*
X545758Y324258D01*
X547220Y323135D01*
X548923Y322430D01*
X550750Y322190D01*
X558730D01*
Y320000D01*
X575460D01*
X575684Y320000D01*
X576730Y319460D01*
X576776Y319460D01*
X584500D01*
Y329250D01*
Y339040D01*
X576776D01*
X576730Y339040D01*
X575684Y338500D01*
X575595D01*
X574325Y338827D01*
Y351198D01*
X574878Y351622D01*
X576581Y353842D01*
X577651Y356426D01*
X578017Y359200D01*
X577651Y361974D01*
X576581Y364558D01*
X574878Y366778D01*
X572658Y368481D01*
X570074Y369552D01*
X567300Y369917D01*
D02*
G37*
G36*
X587040Y339040D02*
Y330520D01*
X594810D01*
Y339040D01*
X587040D01*
D02*
G37*
G36*
X859790Y333980D02*
X852020D01*
Y325460D01*
X859790D01*
Y333980D01*
D02*
G37*
G36*
X771250Y336920D02*
X752750D01*
Y319920D01*
X771250D01*
Y324916D01*
X774062D01*
X774243Y324645D01*
X775897Y323540D01*
X777848Y323152D01*
X779799Y323540D01*
X781453Y324645D01*
X782558Y326299D01*
X782946Y328250D01*
X782558Y330201D01*
X781453Y331855D01*
X779799Y332960D01*
X777848Y333348D01*
X775897Y332960D01*
X774243Y331855D01*
X774062Y331584D01*
X771250D01*
Y336920D01*
D02*
G37*
G36*
X594810Y327980D02*
X587040D01*
Y319460D01*
X594810D01*
Y327980D01*
D02*
G37*
G36*
X586810Y315790D02*
Y307270D01*
X594580D01*
Y315790D01*
X586810D01*
D02*
G37*
G36*
X184250Y314540D02*
X177980D01*
Y306520D01*
X184250D01*
Y314540D01*
D02*
G37*
G36*
X175440D02*
X169170D01*
Y306520D01*
X175440D01*
Y314540D01*
D02*
G37*
G36*
X592700Y395317D02*
X589926Y394952D01*
X587342Y393881D01*
X585122Y392178D01*
X583419Y389958D01*
X582349Y387374D01*
X581983Y384600D01*
X582349Y381826D01*
X583419Y379242D01*
X585122Y377022D01*
X587342Y375319D01*
X589926Y374249D01*
X592700Y373883D01*
X595474Y374249D01*
X598058Y375319D01*
X600278Y377022D01*
X601981Y379242D01*
X602617Y380777D01*
X710066D01*
X712177Y378666D01*
Y309672D01*
X712468Y308208D01*
X713296Y306968D01*
X714468Y305796D01*
X715708Y304968D01*
X717172Y304677D01*
X727750D01*
Y301730D01*
X745250D01*
Y304907D01*
X751250D01*
X751480Y304952D01*
X752750Y303910D01*
Y301380D01*
X771250D01*
Y318380D01*
X752750D01*
Y313703D01*
X752400D01*
X750937Y313412D01*
X749696Y312584D01*
X749666Y312554D01*
X745250D01*
Y315730D01*
X727750D01*
Y312323D01*
X719823D01*
Y380250D01*
X719532Y381713D01*
X718704Y382954D01*
X714354Y387304D01*
X713113Y388132D01*
X711650Y388423D01*
X602617D01*
X601981Y389958D01*
X600278Y392178D01*
X598058Y393881D01*
X595474Y394952D01*
X592700Y395317D01*
D02*
G37*
G36*
X594580Y304730D02*
X586810D01*
Y296210D01*
X594580D01*
Y304730D01*
D02*
G37*
G36*
X576500Y315790D02*
X575454Y315250D01*
X575230Y315250D01*
X558500D01*
Y313060D01*
X550126D01*
X548298Y312820D01*
X546596Y312115D01*
X545134Y310992D01*
X544011Y309530D01*
X543306Y307827D01*
X543065Y306000D01*
X543306Y304173D01*
X544011Y302470D01*
X545134Y301008D01*
X546596Y299886D01*
X548298Y299180D01*
X550126Y298940D01*
X558500D01*
Y296750D01*
X575230D01*
X575454Y296750D01*
X576500Y296210D01*
X576546Y296210D01*
X584270D01*
Y306000D01*
Y315790D01*
X576546D01*
X576500Y315790D01*
D02*
G37*
G36*
X184250Y303980D02*
X177980D01*
Y295960D01*
X184250D01*
Y303980D01*
D02*
G37*
G36*
X175440D02*
X169170D01*
Y295960D01*
X175440D01*
Y303980D01*
D02*
G37*
G36*
X860360Y310100D02*
X836360D01*
Y286100D01*
X860360D01*
Y310100D01*
D02*
G37*
G36*
X183710Y291140D02*
X169710D01*
Y285584D01*
X166036D01*
X165855Y285855D01*
X164201Y286960D01*
X162250Y287348D01*
X160299Y286960D01*
X158645Y285855D01*
X157540Y284201D01*
X157152Y282250D01*
X157540Y280299D01*
X158645Y278645D01*
X160299Y277540D01*
X162250Y277152D01*
X164201Y277540D01*
X165855Y278645D01*
X166036Y278916D01*
X169710D01*
Y273640D01*
X183710D01*
Y291140D01*
D02*
G37*
G36*
X124520Y279790D02*
Y271770D01*
X130790D01*
Y279790D01*
X124520D01*
D02*
G37*
G36*
X130790Y269230D02*
X124520D01*
Y261210D01*
X130790D01*
Y269230D01*
D02*
G37*
G36*
X848360Y272104D02*
X845227Y271691D01*
X842308Y270482D01*
X839801Y268559D01*
X837878Y266052D01*
X836669Y263133D01*
X836256Y260000D01*
X836669Y256867D01*
X837878Y253948D01*
X839801Y251441D01*
X842308Y249518D01*
X845227Y248309D01*
X848360Y247896D01*
X851493Y248309D01*
X854412Y249518D01*
X856918Y251441D01*
X858842Y253948D01*
X860051Y256867D01*
X860464Y260000D01*
X860051Y263133D01*
X858842Y266052D01*
X856918Y268559D01*
X854412Y270482D01*
X851493Y271691D01*
X848360Y272104D01*
D02*
G37*
G36*
X187040Y250310D02*
X178520D01*
Y242540D01*
X187040D01*
Y250310D01*
D02*
G37*
G36*
X175980D02*
X167460D01*
Y242540D01*
X175980D01*
Y250310D01*
D02*
G37*
G36*
X161040D02*
X152520D01*
Y242540D01*
X161040D01*
Y250310D01*
D02*
G37*
G36*
X394580Y832730D02*
X384810D01*
Y822960D01*
X394580D01*
Y832730D01*
D02*
G37*
G36*
X382270D02*
X372500D01*
Y822960D01*
X382270D01*
Y832730D01*
D02*
G37*
G36*
X394580Y820420D02*
X384810D01*
Y810650D01*
X394580D01*
Y820420D01*
D02*
G37*
G36*
X382270D02*
X372500D01*
Y810650D01*
X382270D01*
Y820420D01*
D02*
G37*
G36*
X162280Y821680D02*
X152680D01*
Y808180D01*
X162280D01*
Y821680D01*
D02*
G37*
G36*
X326500Y813348D02*
X324549Y812960D01*
X322895Y811855D01*
X322714Y811584D01*
X179854D01*
X178578Y811330D01*
X177496Y810608D01*
X169069Y802180D01*
X162180D01*
Y788680D01*
X171780D01*
Y795461D01*
X181235Y804916D01*
X322714D01*
X322895Y804645D01*
X324549Y803540D01*
X326500Y803152D01*
X328451Y803540D01*
X330105Y804645D01*
X331210Y806299D01*
X331598Y808250D01*
X331210Y810201D01*
X330105Y811855D01*
X328451Y812960D01*
X326500Y813348D01*
D02*
G37*
G36*
X384810Y807258D02*
Y797560D01*
X394508D01*
X394296Y799172D01*
X393183Y801858D01*
X391414Y804164D01*
X389108Y805933D01*
X386422Y807046D01*
X384810Y807258D01*
D02*
G37*
G36*
X382270D02*
X380658Y807046D01*
X377972Y805933D01*
X375666Y804164D01*
X373897Y801858D01*
X372784Y799172D01*
X372572Y797560D01*
X382270D01*
Y807258D01*
D02*
G37*
G36*
X408940Y806881D02*
X406199Y806520D01*
X403645Y805462D01*
X401451Y803779D01*
X399768Y801585D01*
X398710Y799031D01*
X398349Y796290D01*
X398710Y793549D01*
X399768Y790995D01*
X401451Y788801D01*
X403645Y787118D01*
X406199Y786060D01*
X408940Y785699D01*
X411681Y786060D01*
X414235Y787118D01*
X416429Y788801D01*
X418112Y790995D01*
X419170Y793549D01*
X419531Y796290D01*
X419170Y799031D01*
X418112Y801585D01*
X416429Y803779D01*
X414235Y805462D01*
X411681Y806520D01*
X408940Y806881D01*
D02*
G37*
G36*
X394508Y795020D02*
X384810D01*
Y785322D01*
X386422Y785534D01*
X389108Y786647D01*
X391414Y788416D01*
X393183Y790722D01*
X394296Y793408D01*
X394508Y795020D01*
D02*
G37*
G36*
X382270D02*
X372572D01*
X372784Y793408D01*
X373897Y790722D01*
X375666Y788416D01*
X377972Y786647D01*
X380658Y785534D01*
X382270Y785322D01*
Y795020D01*
D02*
G37*
G36*
X820830Y805250D02*
X806830D01*
Y782250D01*
X820830D01*
Y790416D01*
X826010D01*
Y785000D01*
X840010D01*
Y802500D01*
X826010D01*
Y797084D01*
X820830D01*
Y805250D01*
D02*
G37*
G36*
X790830D02*
X776830D01*
Y797084D01*
X760500D01*
X759224Y796830D01*
X758142Y796107D01*
X738053Y776018D01*
X737330Y774936D01*
X737076Y773660D01*
Y771068D01*
X734358Y769942D01*
X731852Y768018D01*
X729928Y765512D01*
X728719Y762593D01*
X728306Y759460D01*
X728719Y756327D01*
X729928Y753408D01*
X731852Y750901D01*
X734358Y748978D01*
X737277Y747769D01*
X740410Y747356D01*
X743543Y747769D01*
X746462Y748978D01*
X748969Y750901D01*
X750892Y753408D01*
X752101Y756327D01*
X752514Y759460D01*
X752101Y762593D01*
X750892Y765512D01*
X748969Y768018D01*
X746462Y769942D01*
X744696Y770673D01*
X744380Y772915D01*
X761881Y790416D01*
X776830D01*
Y782250D01*
X790830D01*
Y805250D01*
D02*
G37*
G36*
X314250Y789348D02*
X312299Y788960D01*
X310645Y787855D01*
X310464Y787584D01*
X251690D01*
X250414Y787330D01*
X249333Y786608D01*
X234185Y771460D01*
X214900D01*
Y747460D01*
X238900D01*
Y766745D01*
X253071Y780916D01*
X310464D01*
X310645Y780645D01*
X312299Y779540D01*
X314250Y779152D01*
X316201Y779540D01*
X317855Y780645D01*
X318960Y782299D01*
X319348Y784250D01*
X318960Y786201D01*
X317855Y787855D01*
X316201Y788960D01*
X314250Y789348D01*
D02*
G37*
G36*
X96700Y789281D02*
X93960Y788920D01*
X91405Y787862D01*
X89212Y786179D01*
X87529Y783986D01*
X86471Y781432D01*
X86110Y778690D01*
X86471Y775949D01*
X87529Y773395D01*
X89212Y771202D01*
X91405Y769519D01*
X93960Y768461D01*
X96700Y768100D01*
X99442Y768461D01*
X101996Y769519D01*
X104189Y771202D01*
X105872Y773395D01*
X106930Y775949D01*
X107291Y778690D01*
X106930Y781432D01*
X105872Y783986D01*
X104189Y786179D01*
X101996Y787862D01*
X99442Y788920D01*
X96700Y789281D01*
D02*
G37*
G36*
X152780Y802180D02*
X143180D01*
Y788680D01*
X144875D01*
Y774690D01*
X142926D01*
Y761190D01*
X152526D01*
Y774690D01*
X151543D01*
Y788680D01*
X152780D01*
Y802180D01*
D02*
G37*
G36*
X383540Y781481D02*
X380799Y781120D01*
X378245Y780062D01*
X376051Y778379D01*
X374368Y776185D01*
X373310Y773631D01*
X372949Y770890D01*
X373310Y768149D01*
X374368Y765595D01*
X376051Y763401D01*
X378245Y761718D01*
X380799Y760660D01*
X383540Y760299D01*
X386281Y760660D01*
X388835Y761718D01*
X391029Y763401D01*
X392712Y765595D01*
X393770Y768149D01*
X394131Y770890D01*
X393770Y773631D01*
X392712Y776185D01*
X391029Y778379D01*
X388835Y780062D01*
X386281Y781120D01*
X383540Y781481D01*
D02*
G37*
G36*
X805800Y769150D02*
X776800D01*
Y758984D01*
X774436D01*
X774355Y759105D01*
X772701Y760210D01*
X770750Y760598D01*
X768799Y760210D01*
X767145Y759105D01*
X766040Y757451D01*
X765652Y755500D01*
X766040Y753549D01*
X767145Y751895D01*
X768799Y750790D01*
X770750Y750402D01*
X772701Y750790D01*
X774355Y751895D01*
X774636Y752316D01*
X776800D01*
Y742150D01*
X805800D01*
Y769150D01*
D02*
G37*
G36*
X78740Y771321D02*
X75999Y770960D01*
X73445Y769902D01*
X71251Y768219D01*
X69568Y766025D01*
X68510Y763471D01*
X68149Y760730D01*
X68510Y757989D01*
X69568Y755435D01*
X71251Y753241D01*
X73445Y751558D01*
X75999Y750500D01*
X78740Y750139D01*
X81481Y750500D01*
X84035Y751558D01*
X86229Y753241D01*
X87912Y755435D01*
X88970Y757989D01*
X89331Y760730D01*
X88970Y763471D01*
X87912Y766025D01*
X86229Y768219D01*
X84035Y769902D01*
X81481Y770960D01*
X78740Y771321D01*
D02*
G37*
G36*
X714310Y771460D02*
X690310D01*
Y747460D01*
X714310D01*
Y771460D01*
D02*
G37*
G36*
X595750Y784348D02*
X593799Y783960D01*
X592145Y782855D01*
X591040Y781201D01*
X590652Y779250D01*
X591040Y777299D01*
X592145Y775645D01*
X592296Y775545D01*
Y771460D01*
X583630D01*
Y747460D01*
X607630D01*
Y771460D01*
X598964D01*
Y775384D01*
X599355Y775645D01*
X600460Y777299D01*
X600848Y779250D01*
X600460Y781201D01*
X599355Y782855D01*
X597701Y783960D01*
X595750Y784348D01*
D02*
G37*
G36*
X303100Y771564D02*
X299967Y771151D01*
X297048Y769942D01*
X294541Y768018D01*
X292618Y765512D01*
X291409Y762593D01*
X290996Y759460D01*
X291409Y756327D01*
X292618Y753408D01*
X294541Y750901D01*
X297048Y748978D01*
X299967Y747769D01*
X303100Y747356D01*
X306233Y747769D01*
X309152Y748978D01*
X311658Y750901D01*
X313582Y753408D01*
X314791Y756327D01*
X315204Y759460D01*
X314791Y762593D01*
X313582Y765512D01*
X311658Y768018D01*
X309152Y769942D01*
X306233Y771151D01*
X303100Y771564D01*
D02*
G37*
G36*
X171526Y774690D02*
X161926D01*
Y761190D01*
X171526D01*
Y765016D01*
X185309D01*
X202406Y747919D01*
Y655320D01*
X202660Y654044D01*
X203382Y652962D01*
X206952Y649392D01*
X208034Y648670D01*
X209310Y648416D01*
X256322D01*
X257598Y648670D01*
X258680Y649392D01*
X260168Y650880D01*
X260890Y651962D01*
X261144Y653238D01*
Y654560D01*
X266560D01*
Y658226D01*
X276500D01*
Y654440D01*
X282416D01*
Y646100D01*
X281000D01*
Y627100D01*
X282416D01*
Y624816D01*
X282145Y624635D01*
X281040Y622981D01*
X280652Y621030D01*
X281040Y619079D01*
X282145Y617425D01*
X283799Y616320D01*
X284382Y616204D01*
X284186Y614204D01*
X237210D01*
Y618030D01*
X227610D01*
Y604530D01*
X237210D01*
Y607536D01*
X292100D01*
X293376Y607790D01*
X294457Y608512D01*
X300807Y614862D01*
X301530Y615944D01*
X301784Y617220D01*
Y627100D01*
X303200D01*
Y641135D01*
X304552Y642487D01*
X306400Y641722D01*
Y627100D01*
X315900D01*
Y646100D01*
X310778D01*
X310013Y647948D01*
X310968Y648903D01*
X311690Y649984D01*
X311944Y651260D01*
Y654560D01*
X317360D01*
Y658226D01*
X322579D01*
X322873Y657933D01*
X323954Y657210D01*
X325230Y656956D01*
X330340D01*
Y653290D01*
X347840D01*
Y656956D01*
X355740D01*
Y653290D01*
X373240D01*
Y656956D01*
X381140D01*
Y653290D01*
X398640D01*
Y656956D01*
X399940D01*
X401216Y657210D01*
X402298Y657933D01*
X402321Y657956D01*
X404770D01*
Y652790D01*
X423270D01*
Y669330D01*
X423270Y669790D01*
Y671330D01*
X423270Y671790D01*
Y676496D01*
X428161D01*
X428395Y676145D01*
X430049Y675040D01*
X432000Y674652D01*
X433951Y675040D01*
X435605Y676145D01*
X436710Y677799D01*
X437098Y679750D01*
X436710Y681701D01*
X435605Y683355D01*
X433951Y684460D01*
X432000Y684848D01*
X430049Y684460D01*
X428395Y683355D01*
X428268Y683164D01*
X423270D01*
Y688330D01*
X404770D01*
Y685928D01*
X398640D01*
Y687830D01*
X381140D01*
Y673830D01*
X398640D01*
Y675732D01*
X404770D01*
Y671790D01*
X404770Y671330D01*
Y669790D01*
X404770Y669330D01*
Y664624D01*
X400940D01*
X400640Y664564D01*
X398640Y665908D01*
Y667290D01*
X381140D01*
Y663624D01*
X373240D01*
Y667290D01*
X355740D01*
Y663624D01*
X347840D01*
Y667290D01*
X330340D01*
Y663624D01*
X326611D01*
X326317Y663917D01*
X325236Y664640D01*
X323960Y664894D01*
X317360D01*
Y668560D01*
X299860D01*
Y654560D01*
X305080D01*
X305195Y652560D01*
X298735Y646100D01*
X293700D01*
Y627100D01*
X295116D01*
Y618601D01*
X290719Y614204D01*
X287314D01*
X287118Y616204D01*
X287701Y616320D01*
X289355Y617425D01*
X290460Y619079D01*
X290848Y621030D01*
X290460Y622981D01*
X289355Y624635D01*
X289084Y624816D01*
Y627100D01*
X290500D01*
Y646100D01*
X289084D01*
Y654440D01*
X295000D01*
Y670980D01*
X295000Y671440D01*
Y672980D01*
X295000Y673440D01*
Y689980D01*
X291149D01*
X290080Y691980D01*
X290460Y692549D01*
X290848Y694500D01*
X290460Y696451D01*
X289355Y698105D01*
X287701Y699210D01*
X285750Y699598D01*
X283799Y699210D01*
X282145Y698105D01*
X281040Y696451D01*
X280652Y694500D01*
X281040Y692549D01*
X281420Y691980D01*
X280351Y689980D01*
X276500Y689980D01*
X275114Y691406D01*
Y710406D01*
X303419D01*
X304982Y708842D01*
X306064Y708120D01*
X307340Y707866D01*
X318794D01*
X318975Y707595D01*
X320629Y706490D01*
X322580Y706102D01*
X324531Y706490D01*
X326185Y707595D01*
X327290Y709249D01*
X327678Y711200D01*
X327290Y713151D01*
X326185Y714805D01*
X324531Y715910D01*
X322580Y716298D01*
X320629Y715910D01*
X318975Y714805D01*
X318794Y714534D01*
X308721D01*
X307157Y716097D01*
X306076Y716820D01*
X304800Y717074D01*
X273268D01*
X271992Y716820D01*
X270910Y716097D01*
X269422Y714610D01*
X268700Y713528D01*
X268446Y712252D01*
Y689375D01*
X266560Y689100D01*
Y689100D01*
X261144D01*
Y745889D01*
X262889Y747634D01*
X265000Y747356D01*
X268133Y747769D01*
X271052Y748978D01*
X273559Y750901D01*
X275482Y753408D01*
X276691Y756327D01*
X277104Y759460D01*
X276691Y762593D01*
X275482Y765512D01*
X273559Y768018D01*
X271052Y769942D01*
X268133Y771151D01*
X265000Y771564D01*
X261867Y771151D01*
X258948Y769942D01*
X256441Y768018D01*
X254518Y765512D01*
X253309Y762593D01*
X252896Y759460D01*
X253309Y756327D01*
X254518Y753408D01*
X256441Y750901D01*
X256459Y750634D01*
X255452Y749628D01*
X254730Y748546D01*
X254476Y747270D01*
Y689100D01*
X249060D01*
Y685434D01*
X243700D01*
Y688990D01*
X226200D01*
Y674990D01*
X242079D01*
X242696Y674990D01*
X243525Y672990D01*
X238985Y668450D01*
X226200D01*
Y655084D01*
X210691D01*
X209074Y656701D01*
Y749300D01*
X208820Y750576D01*
X208097Y751657D01*
X189048Y770707D01*
X187966Y771430D01*
X186690Y771684D01*
X171526D01*
Y774690D01*
D02*
G37*
G36*
X60780Y758382D02*
X53871Y751474D01*
X60780Y744566D01*
X67688Y751474D01*
X60780Y758382D01*
D02*
G37*
G36*
X162026Y755190D02*
X152426D01*
Y741690D01*
X162026D01*
Y755190D01*
D02*
G37*
G36*
X52075Y749678D02*
X45167Y742769D01*
X52075Y735861D01*
X58983Y742769D01*
X52075Y749678D01*
D02*
G37*
G36*
X69484D02*
X62575Y742769D01*
X69484Y735861D01*
X76392Y742769D01*
X69484Y749678D01*
D02*
G37*
G36*
X408940Y781481D02*
X406199Y781120D01*
X403645Y780062D01*
X401451Y778379D01*
X399768Y776185D01*
X398710Y773631D01*
X398349Y770890D01*
X398710Y768149D01*
X399768Y765595D01*
X401451Y763401D01*
X403645Y761718D01*
X405606Y760906D01*
Y755474D01*
X403645Y754662D01*
X401451Y752979D01*
X399768Y750785D01*
X398710Y748231D01*
X398349Y745490D01*
X398710Y742749D01*
X399768Y740195D01*
X401451Y738001D01*
X403645Y736318D01*
X406199Y735260D01*
X408940Y734899D01*
X411681Y735260D01*
X414235Y736318D01*
X416429Y738001D01*
X418112Y740195D01*
X419170Y742749D01*
X419531Y745490D01*
X419170Y748231D01*
X418112Y750785D01*
X416429Y752979D01*
X414235Y754662D01*
X412274Y755474D01*
Y760906D01*
X414235Y761718D01*
X416429Y763401D01*
X418112Y765595D01*
X419170Y768149D01*
X419531Y770890D01*
X419170Y773631D01*
X418112Y776185D01*
X416429Y778379D01*
X414235Y780062D01*
X411681Y781120D01*
X408940Y781481D01*
D02*
G37*
G36*
X383540Y756081D02*
X380799Y755720D01*
X378245Y754662D01*
X376051Y752979D01*
X374368Y750785D01*
X373310Y748231D01*
X372949Y745490D01*
X373310Y742749D01*
X374123Y740788D01*
X362132Y728798D01*
X361410Y727716D01*
X361156Y726440D01*
Y687830D01*
X355740D01*
Y673830D01*
X373240D01*
Y687830D01*
X367824D01*
Y725059D01*
X378838Y736073D01*
X380799Y735260D01*
X383540Y734899D01*
X386281Y735260D01*
X388835Y736318D01*
X391029Y738001D01*
X392712Y740195D01*
X393770Y742749D01*
X394131Y745490D01*
X393770Y748231D01*
X392712Y750785D01*
X391029Y752979D01*
X388835Y754662D01*
X386281Y755720D01*
X383540Y756081D01*
D02*
G37*
G36*
X60780Y740973D02*
X53871Y734065D01*
X60780Y727157D01*
X67688Y734065D01*
X60780Y740973D01*
D02*
G37*
G36*
X408940Y832281D02*
X406199Y831920D01*
X403645Y830862D01*
X401451Y829179D01*
X399768Y826985D01*
X398710Y824431D01*
X398349Y821690D01*
X398710Y818949D01*
X399768Y816395D01*
X401451Y814201D01*
X403645Y812518D01*
X406199Y811460D01*
X408940Y811099D01*
X411681Y811460D01*
X413642Y812273D01*
X423386Y802529D01*
Y714534D01*
X380976D01*
X380795Y714805D01*
X379141Y715910D01*
X377190Y716298D01*
X375239Y715910D01*
X373585Y714805D01*
X372480Y713151D01*
X372092Y711200D01*
X372480Y709249D01*
X373585Y707595D01*
X375239Y706490D01*
X377190Y706102D01*
X379141Y706490D01*
X380795Y707595D01*
X380976Y707866D01*
X425232D01*
X426508Y708120D01*
X427590Y708842D01*
X429077Y710330D01*
X429800Y711412D01*
X430054Y712688D01*
Y803910D01*
X429800Y805186D01*
X429077Y806268D01*
X418357Y816988D01*
X419170Y818949D01*
X419531Y821690D01*
X419170Y824431D01*
X418112Y826985D01*
X416429Y829179D01*
X414235Y830862D01*
X411681Y831920D01*
X408940Y832281D01*
D02*
G37*
G36*
X348380Y688370D02*
X340360D01*
Y682100D01*
X348380D01*
Y688370D01*
D02*
G37*
G36*
Y679560D02*
X340360D01*
Y673290D01*
X348380D01*
Y679560D01*
D02*
G37*
G36*
X317360Y689100D02*
X299860D01*
Y675100D01*
X317360D01*
Y678766D01*
X319954D01*
X320135Y678495D01*
X321789Y677390D01*
X323740Y677002D01*
X325691Y677390D01*
X327345Y678495D01*
X327800Y679176D01*
X329800Y678570D01*
Y673290D01*
X337820D01*
Y680830D01*
Y688370D01*
X329800D01*
Y685630D01*
X327800Y685023D01*
X327345Y685705D01*
X325691Y686810D01*
X323740Y687198D01*
X321789Y686810D01*
X320135Y685705D01*
X319954Y685434D01*
X317360D01*
Y689100D01*
D02*
G37*
G36*
X603610Y678170D02*
X585110D01*
Y673004D01*
X582589D01*
X582355Y673355D01*
X580701Y674460D01*
X578750Y674848D01*
X576799Y674460D01*
X575145Y673355D01*
X574040Y671701D01*
X573652Y669750D01*
X574040Y667799D01*
X575119Y666184D01*
X575074Y665935D01*
X574480Y664184D01*
X565610D01*
Y654584D01*
X569436D01*
Y651728D01*
X569690Y650452D01*
X570412Y649370D01*
X571900Y647883D01*
X572982Y647160D01*
X574258Y646906D01*
X585110D01*
Y642630D01*
X585450D01*
X586057Y640630D01*
X585645Y640355D01*
X584540Y638701D01*
X584152Y636750D01*
X584540Y634799D01*
X585369Y633559D01*
X584874Y632092D01*
X584483Y631559D01*
X472250D01*
X472250Y631559D01*
X471079Y631326D01*
X470087Y630663D01*
X393663Y554239D01*
X365938D01*
X364100Y554630D01*
X364100Y556239D01*
Y558982D01*
X365164Y559523D01*
X366100Y559758D01*
X367549Y558790D01*
X369500Y558402D01*
X371451Y558790D01*
X373105Y559895D01*
X374210Y561549D01*
X374598Y563500D01*
X374210Y565451D01*
X373105Y567105D01*
X371451Y568210D01*
X369500Y568598D01*
X367549Y568210D01*
X366100Y567242D01*
X365164Y567477D01*
X364100Y568018D01*
Y573130D01*
X347560D01*
X347100Y573130D01*
X345560D01*
X345100Y573130D01*
X328560D01*
Y567214D01*
X314051D01*
X310013Y571252D01*
X310778Y573100D01*
X315900D01*
Y592100D01*
X306400D01*
Y577478D01*
X304552Y576713D01*
X303200Y578065D01*
Y592100D01*
X293700D01*
Y573100D01*
X298735D01*
X309905Y561930D01*
X309443Y560327D01*
X309154Y559930D01*
X299180D01*
Y542430D01*
X302477D01*
X302854Y540430D01*
X300023Y537599D01*
X179750D01*
X179750Y537599D01*
X178580Y537366D01*
X177587Y536703D01*
X133963Y493079D01*
X132667D01*
X131005Y493895D01*
X130888Y495079D01*
X131034Y495108D01*
X131951Y495290D01*
X133605Y496395D01*
X134710Y498049D01*
X135098Y500000D01*
X134710Y501951D01*
X133605Y503605D01*
X131951Y504710D01*
X130000Y505098D01*
X128049Y504710D01*
X126395Y503605D01*
X126214Y503334D01*
X95417D01*
X94141Y503080D01*
X93060Y502357D01*
X90436Y499734D01*
X82031D01*
X81117Y501734D01*
X82343Y503332D01*
X83456Y506018D01*
X83668Y507630D01*
X72700D01*
X61732D01*
X61944Y506018D01*
X63057Y503332D01*
X64283Y501734D01*
X63369Y499734D01*
X60200D01*
X58924Y499480D01*
X57842Y498758D01*
X52002Y492917D01*
X50041Y493730D01*
X47300Y494091D01*
X44559Y493730D01*
X42005Y492672D01*
X39811Y490989D01*
X38128Y488795D01*
X37070Y486241D01*
X36709Y483500D01*
X37070Y480759D01*
X38128Y478205D01*
X39811Y476011D01*
X42005Y474328D01*
X44559Y473270D01*
X47300Y472909D01*
X50041Y473270D01*
X52595Y474328D01*
X54789Y476011D01*
X56472Y478205D01*
X57530Y480759D01*
X57891Y483500D01*
X57530Y486241D01*
X56717Y488202D01*
X61581Y493066D01*
X64633D01*
X65312Y491066D01*
X65211Y490989D01*
X63528Y488795D01*
X62470Y486241D01*
X62109Y483500D01*
X62470Y480759D01*
X63528Y478205D01*
X64404Y477064D01*
X63417Y475064D01*
X60930D01*
X59654Y474810D01*
X58573Y474087D01*
X52002Y467517D01*
X50041Y468330D01*
X47300Y468691D01*
X44559Y468330D01*
X42005Y467272D01*
X39811Y465589D01*
X38128Y463395D01*
X37070Y460841D01*
X36709Y458100D01*
X37070Y455359D01*
X38128Y452805D01*
X39811Y450611D01*
X42005Y448928D01*
X44559Y447870D01*
X47300Y447509D01*
X50041Y447870D01*
X52595Y448928D01*
X54789Y450611D01*
X56472Y452805D01*
X57530Y455359D01*
X57891Y458100D01*
X57530Y460841D01*
X56717Y462802D01*
X62311Y468396D01*
X65585D01*
X66263Y466396D01*
X65211Y465589D01*
X63528Y463395D01*
X62470Y460841D01*
X62109Y458100D01*
X62470Y455359D01*
X63528Y452805D01*
X64964Y450934D01*
X64421Y448934D01*
X60200D01*
X58924Y448680D01*
X57842Y447957D01*
X52002Y442117D01*
X50041Y442930D01*
X47300Y443291D01*
X44559Y442930D01*
X42005Y441872D01*
X39811Y440189D01*
X38128Y437995D01*
X37070Y435441D01*
X36709Y432700D01*
X37070Y429959D01*
X38128Y427405D01*
X39811Y425211D01*
X42005Y423528D01*
X44559Y422470D01*
X47300Y422109D01*
X50041Y422470D01*
X52595Y423528D01*
X54789Y425211D01*
X56472Y427405D01*
X57530Y429959D01*
X57891Y432700D01*
X57530Y435441D01*
X56717Y437402D01*
X61581Y442266D01*
X64633D01*
X65312Y440266D01*
X65211Y440189D01*
X63528Y437995D01*
X62470Y435441D01*
X62109Y432700D01*
X62470Y429959D01*
X63528Y427405D01*
X65211Y425211D01*
X67405Y423528D01*
X69959Y422470D01*
X72700Y422109D01*
X75441Y422470D01*
X77995Y423528D01*
X80189Y425211D01*
X81872Y427405D01*
X82930Y429959D01*
X83291Y432700D01*
X82930Y435441D01*
X81872Y437995D01*
X80189Y440189D01*
X80088Y440266D01*
X80767Y442266D01*
X152100D01*
X153376Y442520D01*
X154458Y443242D01*
X173931Y462716D01*
X174250Y462652D01*
X176201Y463040D01*
X177855Y464145D01*
X178960Y465799D01*
X179348Y467750D01*
X179315Y467916D01*
X180956Y469916D01*
X183750D01*
Y464000D01*
X213750D01*
Y482000D01*
X183750D01*
Y476584D01*
X178895D01*
X178123Y477100D01*
X176847Y477354D01*
X162608D01*
X161701Y477960D01*
X159750Y478348D01*
X157799Y477960D01*
X156145Y476855D01*
X155040Y475201D01*
X154652Y473250D01*
X155040Y471299D01*
X156145Y469645D01*
X157799Y468540D01*
X159750Y468152D01*
X161701Y468540D01*
X163355Y469645D01*
X164050Y470686D01*
X167976D01*
X169338Y468686D01*
X169152Y467750D01*
X169216Y467431D01*
X150719Y448934D01*
X80979D01*
X80436Y450934D01*
X81872Y452805D01*
X82930Y455359D01*
X83291Y458100D01*
X82930Y460841D01*
X81872Y463395D01*
X80189Y465589D01*
X79137Y466396D01*
X79816Y468396D01*
X135730D01*
X137006Y468650D01*
X138088Y469372D01*
X156681Y487966D01*
X157000Y487902D01*
X158951Y488290D01*
X160605Y489395D01*
X160786Y489666D01*
X183750D01*
Y484000D01*
X213750D01*
Y502000D01*
X183750D01*
Y496334D01*
X160786D01*
X160605Y496605D01*
X158951Y497710D01*
X157000Y498098D01*
X155049Y497710D01*
X153395Y496605D01*
X152290Y494951D01*
X151902Y493000D01*
X151966Y492681D01*
X134349Y475064D01*
X81983D01*
X80997Y477064D01*
X81872Y478205D01*
X82930Y480759D01*
X83025Y481481D01*
X110040D01*
X110040Y481481D01*
X111210Y481714D01*
X112203Y482377D01*
X116787Y486961D01*
X135230D01*
X135230Y486961D01*
X136401Y487194D01*
X137393Y487857D01*
X181017Y531481D01*
X301290D01*
X301290Y531481D01*
X302460Y531714D01*
X303453Y532377D01*
X308343Y537267D01*
X308343Y537267D01*
X309006Y538260D01*
X309239Y539430D01*
X309239Y539430D01*
Y542430D01*
X313180D01*
Y548121D01*
X394930D01*
X394930Y548121D01*
X396101Y548354D01*
X397093Y549017D01*
X473517Y625441D01*
X664500D01*
X664500Y625441D01*
X665670Y625674D01*
X666663Y626337D01*
X672723Y632397D01*
X672723Y632397D01*
X673386Y633390D01*
X673619Y634560D01*
Y643130D01*
X679310D01*
Y657130D01*
X661810D01*
Y643130D01*
X667501D01*
Y635827D01*
X663233Y631559D01*
X594017D01*
X593626Y632092D01*
X593131Y633559D01*
X593960Y634799D01*
X594348Y636750D01*
X594284Y637069D01*
X596717Y639502D01*
X597440Y640584D01*
X597694Y641860D01*
Y642630D01*
X603610D01*
Y647796D01*
X606059D01*
X606082Y647773D01*
X607164Y647050D01*
X608440Y646796D01*
X612280D01*
Y643130D01*
X629780D01*
Y657130D01*
X612280D01*
Y653464D01*
X609821D01*
X609798Y653487D01*
X608716Y654210D01*
X607440Y654464D01*
X603610D01*
Y659170D01*
X603610Y659630D01*
Y661170D01*
X603610Y661630D01*
Y678170D01*
D02*
G37*
G36*
X633730Y771564D02*
X630597Y771151D01*
X627678Y769942D01*
X625172Y768018D01*
X623248Y765512D01*
X622039Y762593D01*
X621626Y759460D01*
X622039Y756327D01*
X623248Y753408D01*
X625172Y750901D01*
X627678Y748978D01*
X630396Y747852D01*
Y740410D01*
X630650Y739134D01*
X631372Y738053D01*
X641826Y727599D01*
Y677780D01*
X636410D01*
Y672844D01*
X629780D01*
Y677670D01*
X612280D01*
Y663670D01*
X629780D01*
Y666176D01*
X636410D01*
Y663780D01*
X653910D01*
Y677780D01*
X648494D01*
Y728980D01*
X648240Y730256D01*
X647517Y731338D01*
X637064Y741791D01*
Y747852D01*
X639782Y748978D01*
X642289Y750901D01*
X644212Y753408D01*
X645421Y756327D01*
X645834Y759460D01*
X645421Y762593D01*
X644212Y765512D01*
X642289Y768018D01*
X639782Y769942D01*
X636863Y771151D01*
X633730Y771564D01*
D02*
G37*
G36*
X552500Y688696D02*
X550549Y688308D01*
X548895Y687203D01*
X547790Y685549D01*
X547402Y683598D01*
X547790Y681647D01*
X548895Y679993D01*
X549166Y679812D01*
Y673684D01*
X546110D01*
Y664084D01*
X559610D01*
Y673684D01*
X555834D01*
Y679812D01*
X556105Y679993D01*
X557210Y681647D01*
X557598Y683598D01*
X557210Y685549D01*
X556105Y687203D01*
X554451Y688308D01*
X552500Y688696D01*
D02*
G37*
G36*
X810000Y722099D02*
X804979Y721704D01*
X800081Y720528D01*
X795427Y718600D01*
X791133Y715969D01*
X787303Y712697D01*
X784031Y708867D01*
X781400Y704573D01*
X779472Y699919D01*
X778296Y695021D01*
X777901Y690000D01*
X778296Y684979D01*
X779472Y680081D01*
X781400Y675427D01*
X784031Y671133D01*
X787303Y667303D01*
X791133Y664031D01*
X795427Y661400D01*
X800081Y659472D01*
X804979Y658296D01*
X810000Y657901D01*
X815021Y658296D01*
X819919Y659472D01*
X824573Y661400D01*
X828867Y664031D01*
X832697Y667303D01*
X835969Y671133D01*
X838600Y675427D01*
X840528Y680081D01*
X841704Y684979D01*
X842099Y690000D01*
X841704Y695021D01*
X840528Y699919D01*
X838600Y704573D01*
X835969Y708867D01*
X832697Y712697D01*
X828867Y715969D01*
X824573Y718600D01*
X819919Y720528D01*
X815021Y721704D01*
X810000Y722099D01*
D02*
G37*
G36*
X150000D02*
X144979Y721704D01*
X140081Y720528D01*
X135427Y718600D01*
X131133Y715969D01*
X127303Y712697D01*
X124031Y708867D01*
X121400Y704573D01*
X119472Y699919D01*
X118296Y695021D01*
X117901Y690000D01*
X118296Y684979D01*
X119472Y680081D01*
X121400Y675427D01*
X124031Y671133D01*
X127303Y667303D01*
X131133Y664031D01*
X135427Y661400D01*
X140081Y659472D01*
X144979Y658296D01*
X150000Y657901D01*
X155021Y658296D01*
X159919Y659472D01*
X164573Y661400D01*
X168867Y664031D01*
X172697Y667303D01*
X175969Y671133D01*
X178600Y675427D01*
X180528Y680081D01*
X181704Y684979D01*
X182099Y690000D01*
X181704Y695021D01*
X180528Y699919D01*
X178600Y704573D01*
X175969Y708867D01*
X172697Y712697D01*
X168867Y715969D01*
X164573Y718600D01*
X159919Y720528D01*
X155021Y721704D01*
X150000Y722099D01*
D02*
G37*
G36*
X654450Y657780D02*
X646430D01*
Y651510D01*
X654450D01*
Y657780D01*
D02*
G37*
G36*
X643890D02*
X635870D01*
Y651510D01*
X643890D01*
Y657780D01*
D02*
G37*
G36*
X560150Y655224D02*
X554130D01*
Y651154D01*
X560150D01*
Y655224D01*
D02*
G37*
G36*
X551590D02*
X545570D01*
Y651154D01*
X551590D01*
Y655224D01*
D02*
G37*
G36*
X560150Y648614D02*
X554130D01*
Y644544D01*
X560150D01*
Y648614D01*
D02*
G37*
G36*
X551590D02*
X545570D01*
Y644544D01*
X551590D01*
Y648614D01*
D02*
G37*
G36*
X654450Y648970D02*
X646430D01*
Y642700D01*
X654450D01*
Y648970D01*
D02*
G37*
G36*
X643890D02*
X635870D01*
Y642700D01*
X643890D01*
Y648970D01*
D02*
G37*
G36*
X860550Y802500D02*
X846550D01*
Y785000D01*
X848962D01*
Y771083D01*
X848800Y769150D01*
X819800D01*
Y742150D01*
X829712D01*
Y737588D01*
X762500D01*
X760744Y737239D01*
X759256Y736244D01*
X752756Y729744D01*
X751761Y728256D01*
X751412Y726500D01*
Y675954D01*
X751300Y674000D01*
X749412Y674000D01*
X741700D01*
Y660500D01*
X751300Y660500D01*
X751412Y658546D01*
Y654500D01*
X751200D01*
Y641000D01*
X760800D01*
Y654500D01*
X760588D01*
Y724600D01*
X764400Y728412D01*
X831750D01*
X833506Y728761D01*
X834994Y729756D01*
X837544Y732306D01*
X838539Y733794D01*
X838888Y735550D01*
Y742150D01*
X848800D01*
Y751062D01*
X851150D01*
X852906Y751411D01*
X854394Y752406D01*
X856794Y754806D01*
X857789Y756294D01*
X858138Y758050D01*
Y785000D01*
X860550D01*
Y802500D01*
D02*
G37*
G36*
X711460Y676930D02*
X699460D01*
Y661930D01*
X711460D01*
Y666096D01*
X715889D01*
X732200Y649785D01*
Y641000D01*
X741800D01*
Y654500D01*
X736915D01*
X719628Y671787D01*
X718546Y672510D01*
X717270Y672764D01*
X711460D01*
Y676930D01*
D02*
G37*
G36*
X679310Y677670D02*
X661810D01*
Y663670D01*
X679310D01*
Y664426D01*
X681310Y665255D01*
X689031Y657533D01*
X689960Y655930D01*
X689960D01*
X689960Y655930D01*
Y640930D01*
X701960D01*
Y655930D01*
X699173D01*
X699040Y656596D01*
X698317Y657678D01*
X684238Y671758D01*
X683156Y672480D01*
X681880Y672734D01*
X679310D01*
Y677670D01*
D02*
G37*
G36*
X277800Y646100D02*
X268300D01*
Y641288D01*
X267083Y640739D01*
X266300Y640558D01*
X264801Y641560D01*
X262850Y641948D01*
X260899Y641560D01*
X259245Y640455D01*
X258140Y638801D01*
X257752Y636850D01*
X258140Y634899D01*
X259245Y633245D01*
X260899Y632140D01*
X262850Y631752D01*
X264801Y632140D01*
X266300Y633142D01*
X267083Y632961D01*
X268300Y632412D01*
Y627100D01*
X277800D01*
Y646100D01*
D02*
G37*
G36*
X75000Y664203D02*
X71867Y663791D01*
X68948Y662582D01*
X66441Y660658D01*
X64518Y658152D01*
X63392Y655434D01*
X49850D01*
X48574Y655180D01*
X47492Y654457D01*
X14892Y621857D01*
X14170Y620776D01*
X13916Y619500D01*
Y369000D01*
X14170Y367724D01*
X14892Y366642D01*
X27392Y354142D01*
X28474Y353420D01*
X29750Y353166D01*
X37316D01*
X38128Y351205D01*
X39811Y349011D01*
X42005Y347328D01*
X44559Y346270D01*
X47300Y345909D01*
X50041Y346270D01*
X52595Y347328D01*
X54789Y349011D01*
X56472Y351205D01*
X57530Y353759D01*
X57891Y356500D01*
X57530Y359241D01*
X56472Y361795D01*
X54789Y363989D01*
X52595Y365672D01*
X50041Y366730D01*
X47300Y367091D01*
X44559Y366730D01*
X42005Y365672D01*
X39811Y363989D01*
X38128Y361795D01*
X37316Y359834D01*
X31131D01*
X20584Y370381D01*
Y618119D01*
X51231Y648766D01*
X63392D01*
X64518Y646048D01*
X66441Y643541D01*
X68948Y641618D01*
X71867Y640409D01*
X75000Y639996D01*
X78133Y640409D01*
X81052Y641618D01*
X83559Y643541D01*
X85482Y646048D01*
X86691Y648967D01*
X87104Y652100D01*
X86691Y655233D01*
X85482Y658152D01*
X83559Y660658D01*
X81052Y662582D01*
X78133Y663791D01*
X75000Y664203D01*
D02*
G37*
G36*
X228250Y638070D02*
X224180D01*
Y632050D01*
X228250D01*
Y638070D01*
D02*
G37*
G36*
X221640D02*
X217570D01*
Y632050D01*
X221640D01*
Y638070D01*
D02*
G37*
G36*
X720960Y655930D02*
X708960D01*
Y640930D01*
X711626D01*
Y638509D01*
X711395Y638355D01*
X710290Y636701D01*
X709902Y634750D01*
X710290Y632799D01*
X711395Y631145D01*
X713049Y630040D01*
X715000Y629652D01*
X716951Y630040D01*
X718605Y631145D01*
X719710Y632799D01*
X720098Y634750D01*
X719710Y636701D01*
X718605Y638355D01*
X718294Y638562D01*
Y640930D01*
X720960D01*
Y655930D01*
D02*
G37*
G36*
X246710Y637530D02*
X237110D01*
Y624030D01*
X246710D01*
Y625700D01*
X248710Y626306D01*
X249165Y625625D01*
X250819Y624520D01*
X252770Y624132D01*
X254721Y624520D01*
X256375Y625625D01*
X257480Y627279D01*
X257868Y629230D01*
X257480Y631181D01*
X256375Y632835D01*
X254721Y633940D01*
X252770Y634328D01*
X250989Y633974D01*
X250284Y634114D01*
X246710D01*
Y637530D01*
D02*
G37*
G36*
X228250Y629510D02*
X224180D01*
Y623490D01*
X228250D01*
Y629510D01*
D02*
G37*
G36*
X221640D02*
X217570D01*
Y623490D01*
X221640D01*
Y629510D01*
D02*
G37*
G36*
X416750Y643541D02*
X414009Y643180D01*
X411455Y642122D01*
X409261Y640439D01*
X407578Y638245D01*
X406520Y635691D01*
X406159Y632950D01*
X406520Y630209D01*
X407578Y627655D01*
X409261Y625461D01*
X411455Y623778D01*
X414009Y622720D01*
X416750Y622359D01*
X419491Y622720D01*
X422045Y623778D01*
X424239Y625461D01*
X425922Y627655D01*
X426980Y630209D01*
X427341Y632950D01*
X426980Y635691D01*
X425922Y638245D01*
X424239Y640439D01*
X422045Y642122D01*
X419491Y643180D01*
X416750Y643541D01*
D02*
G37*
G36*
X615210Y623250D02*
X601210D01*
Y617834D01*
X596631D01*
X596037Y618428D01*
X594956Y619150D01*
X593680Y619404D01*
X582830D01*
Y622320D01*
X568830D01*
Y610320D01*
X582830D01*
Y612736D01*
X592299D01*
X592892Y612142D01*
X593974Y611420D01*
X595250Y611166D01*
X601210D01*
Y605750D01*
X604876D01*
Y599120D01*
X601210D01*
Y581620D01*
X615210D01*
Y599120D01*
X611544D01*
Y605750D01*
X615210D01*
Y623250D01*
D02*
G37*
G36*
X323850Y650258D02*
X321899Y649870D01*
X320245Y648765D01*
X319140Y647111D01*
X318752Y645160D01*
X319140Y643209D01*
X320245Y641555D01*
X321899Y640450D01*
X323850Y640062D01*
X325801Y640450D01*
X326869Y641164D01*
X326931D01*
X328560Y639535D01*
Y625750D01*
X333726D01*
Y620890D01*
X329550D01*
Y615474D01*
X327636D01*
X327455Y615745D01*
X325801Y616850D01*
X323850Y617238D01*
X321899Y616850D01*
X320245Y615745D01*
X319140Y614091D01*
X318752Y612140D01*
X319140Y610189D01*
X320245Y608535D01*
X321899Y607430D01*
X323850Y607042D01*
X325801Y607430D01*
X327455Y608535D01*
X327636Y608806D01*
X329550D01*
Y603390D01*
X340797D01*
X341625Y601390D01*
X337175Y596940D01*
X329770D01*
Y579440D01*
X343770D01*
Y594105D01*
X352991Y603326D01*
X353360D01*
X353682Y603390D01*
X364090D01*
Y607962D01*
X364541Y608305D01*
X366090Y608848D01*
X367299Y608040D01*
X369250Y607652D01*
X370186Y607838D01*
X372186Y606476D01*
Y601799D01*
X371895Y601605D01*
X371714Y601334D01*
X366240D01*
X364964Y601080D01*
X363882Y600358D01*
X360465Y596940D01*
X350310D01*
Y579440D01*
X364310D01*
Y591355D01*
X367621Y594666D01*
X371714D01*
X371895Y594395D01*
X373549Y593290D01*
X375500Y592902D01*
X377451Y593290D01*
X379105Y594395D01*
X380210Y596049D01*
X380598Y598000D01*
X380210Y599951D01*
X379105Y601605D01*
X378854Y601772D01*
Y625390D01*
X378600Y626666D01*
X377878Y627747D01*
X368268Y637357D01*
X367186Y638080D01*
X365910Y638334D01*
X364100D01*
Y644250D01*
X347560D01*
X347100Y644250D01*
X345560D01*
X345100Y644250D01*
X333275D01*
X330670Y646855D01*
X329588Y647578D01*
X328312Y647832D01*
X328078D01*
X327455Y648765D01*
X325801Y649870D01*
X323850Y650258D01*
D02*
G37*
G36*
X558370Y613110D02*
X552100D01*
Y607840D01*
X558370D01*
Y613110D01*
D02*
G37*
G36*
X549560D02*
X543290D01*
Y607840D01*
X549560D01*
Y613110D01*
D02*
G37*
G36*
X75000Y626104D02*
X71867Y625691D01*
X68948Y624482D01*
X66441Y622559D01*
X64518Y620052D01*
X63496Y617584D01*
X53500D01*
X52224Y617330D01*
X51142Y616608D01*
X39142Y604608D01*
X39142Y604608D01*
X26393Y591857D01*
X25670Y590776D01*
X25416Y589500D01*
Y383388D01*
X25670Y382112D01*
X26393Y381030D01*
X27880Y379543D01*
X28962Y378820D01*
X30238Y378566D01*
X37316D01*
X38128Y376605D01*
X39811Y374411D01*
X42005Y372728D01*
X44559Y371670D01*
X47300Y371309D01*
X50041Y371670D01*
X52595Y372728D01*
X54789Y374411D01*
X56472Y376605D01*
X57530Y379159D01*
X57891Y381900D01*
X57530Y384641D01*
X56472Y387195D01*
X54789Y389389D01*
X52595Y391072D01*
X50041Y392130D01*
X47300Y392491D01*
X44559Y392130D01*
X42005Y391072D01*
X39811Y389389D01*
X38128Y387195D01*
X37316Y385234D01*
X32084D01*
Y588119D01*
X43857Y599893D01*
X43858Y599893D01*
X54881Y610916D01*
X63302D01*
X63309Y610867D01*
X64518Y607948D01*
X66441Y605442D01*
X68948Y603518D01*
X71867Y602309D01*
X75000Y601896D01*
X78133Y602309D01*
X81052Y603518D01*
X83559Y605442D01*
X85482Y607948D01*
X86691Y610867D01*
X87104Y614000D01*
X86691Y617133D01*
X85482Y620052D01*
X83559Y622559D01*
X81052Y624482D01*
X78133Y625691D01*
X75000Y626104D01*
D02*
G37*
G36*
X558370Y605300D02*
X552100D01*
Y600030D01*
X558370D01*
Y605300D01*
D02*
G37*
G36*
X549560D02*
X543290D01*
Y600030D01*
X549560D01*
Y605300D01*
D02*
G37*
G36*
X427250Y618050D02*
X406250D01*
Y597050D01*
X427250D01*
Y618050D01*
D02*
G37*
G36*
X323000Y604098D02*
X321049Y603710D01*
X319395Y602605D01*
X319371Y602569D01*
X291786D01*
X290420Y602297D01*
X289263Y601523D01*
X283227Y595487D01*
X282453Y594329D01*
X282181Y592964D01*
Y592100D01*
X281000D01*
Y573100D01*
X282181D01*
Y559930D01*
X278640D01*
Y542430D01*
X292640D01*
Y559930D01*
X289319D01*
Y573100D01*
X290500D01*
Y592100D01*
X290500Y592100D01*
X290500D01*
X291492Y593659D01*
X293264Y595431D01*
X319371D01*
X319395Y595395D01*
X321049Y594290D01*
X323000Y593902D01*
X324951Y594290D01*
X326605Y595395D01*
X327710Y597049D01*
X328098Y599000D01*
X327710Y600951D01*
X326605Y602605D01*
X324951Y603710D01*
X323000Y604098D01*
D02*
G37*
G36*
X588750Y606877D02*
X586799Y606489D01*
X585145Y605384D01*
X584295Y604111D01*
X582830Y602820D01*
X581975Y602820D01*
X568830D01*
Y590820D01*
X582830D01*
Y593736D01*
X587262D01*
X588538Y593990D01*
X589620Y594712D01*
X591107Y596200D01*
X591830Y597282D01*
X591954Y597907D01*
X592355Y598174D01*
X593460Y599828D01*
X593848Y601779D01*
X593460Y603730D01*
X592355Y605384D01*
X590701Y606489D01*
X588750Y606877D01*
D02*
G37*
G36*
X228250Y591080D02*
X224180D01*
Y585060D01*
X228250D01*
Y591080D01*
D02*
G37*
G36*
X221640D02*
X217570D01*
Y585060D01*
X221640D01*
Y591080D01*
D02*
G37*
G36*
X167790Y588740D02*
X158020D01*
Y578970D01*
X167790D01*
Y588740D01*
D02*
G37*
G36*
X155480D02*
X145710D01*
Y578970D01*
X155480D01*
Y588740D01*
D02*
G37*
G36*
X242250Y604598D02*
X240299Y604210D01*
X238645Y603105D01*
X237540Y601451D01*
X237152Y599500D01*
X237540Y597549D01*
X238645Y595895D01*
X238916Y595714D01*
Y590540D01*
X237110D01*
Y577040D01*
X246710D01*
Y590540D01*
X245584D01*
Y595714D01*
X245855Y595895D01*
X246960Y597549D01*
X247348Y599500D01*
X246960Y601451D01*
X245855Y603105D01*
X244201Y604210D01*
X242250Y604598D01*
D02*
G37*
G36*
X228250Y582520D02*
X224180D01*
Y576500D01*
X228250D01*
Y582520D01*
D02*
G37*
G36*
X221640D02*
X217570D01*
Y576500D01*
X221640D01*
Y582520D01*
D02*
G37*
G36*
X277800Y592100D02*
X268300D01*
Y573100D01*
X277800D01*
Y592100D01*
D02*
G37*
G36*
X167790Y576430D02*
X158020D01*
Y566660D01*
X167790D01*
Y576430D01*
D02*
G37*
G36*
X155480D02*
X145710D01*
Y566660D01*
X155480D01*
Y576430D01*
D02*
G37*
G36*
X635750Y599120D02*
X621750D01*
Y581620D01*
X625136D01*
Y574118D01*
X624865Y573937D01*
X623760Y572283D01*
X623372Y570332D01*
X623760Y568381D01*
X624865Y566727D01*
X626519Y565622D01*
X628470Y565234D01*
X630421Y565622D01*
X632075Y566727D01*
X633180Y568381D01*
X633568Y570332D01*
X633180Y572283D01*
X632075Y573937D01*
X631804Y574118D01*
Y581620D01*
X635750D01*
Y599120D01*
D02*
G37*
G36*
X87000Y587900D02*
X63000D01*
Y563900D01*
X87000D01*
Y587900D01*
D02*
G37*
G36*
X237210Y571040D02*
X227610D01*
Y557540D01*
X237210D01*
Y560546D01*
X251484D01*
X251665Y560275D01*
X253319Y559170D01*
X255270Y558782D01*
X257221Y559170D01*
X258875Y560275D01*
X259980Y561929D01*
X260368Y563880D01*
X259980Y565831D01*
X258875Y567485D01*
X257221Y568590D01*
X255270Y568978D01*
X253319Y568590D01*
X251665Y567485D01*
X251484Y567214D01*
X237210D01*
Y571040D01*
D02*
G37*
G36*
X452770Y559718D02*
Y550020D01*
X462468D01*
X462256Y551632D01*
X461143Y554318D01*
X459374Y556624D01*
X457068Y558393D01*
X454382Y559506D01*
X452770Y559718D01*
D02*
G37*
G36*
X450230D02*
X448618Y559506D01*
X445932Y558393D01*
X443626Y556624D01*
X441857Y554318D01*
X440744Y551632D01*
X440532Y550020D01*
X450230D01*
Y559718D01*
D02*
G37*
G36*
X635750Y623250D02*
X621750D01*
Y605750D01*
X635750D01*
Y611441D01*
X638233D01*
X642441Y607233D01*
Y553970D01*
X641895Y553605D01*
X640790Y551951D01*
X640402Y550000D01*
X640790Y548049D01*
X641895Y546395D01*
X643549Y545290D01*
X645500Y544902D01*
X647451Y545290D01*
X649105Y546395D01*
X650210Y548049D01*
X650598Y550000D01*
X650210Y551951D01*
X649105Y553605D01*
X648559Y553970D01*
Y608500D01*
X648559Y608500D01*
X648326Y609670D01*
X647663Y610663D01*
X647663Y610663D01*
X641663Y616663D01*
X640670Y617326D01*
X639500Y617559D01*
X639500Y617559D01*
X635750D01*
Y623250D01*
D02*
G37*
G36*
X156750Y562891D02*
X154009Y562530D01*
X151455Y561472D01*
X149261Y559789D01*
X147578Y557595D01*
X146520Y555041D01*
X146159Y552300D01*
X146520Y549559D01*
X147578Y547005D01*
X149261Y544811D01*
X151455Y543128D01*
X154009Y542070D01*
X156750Y541709D01*
X159491Y542070D01*
X162045Y543128D01*
X164239Y544811D01*
X165922Y547005D01*
X166980Y549559D01*
X167341Y552300D01*
X166980Y555041D01*
X165922Y557595D01*
X164239Y559789D01*
X162045Y561472D01*
X159491Y562530D01*
X156750Y562891D01*
D02*
G37*
G36*
X436600Y559250D02*
X415600D01*
Y552084D01*
X408000D01*
X406724Y551830D01*
X405642Y551107D01*
X373119Y518584D01*
X368750D01*
Y527000D01*
X350750D01*
Y503000D01*
X368750D01*
Y511916D01*
X374500D01*
X375776Y512170D01*
X376857Y512892D01*
X409381Y545416D01*
X415600D01*
Y538250D01*
X436600D01*
Y559250D01*
D02*
G37*
G36*
X462468Y547480D02*
X452770D01*
Y537782D01*
X454382Y537994D01*
X457068Y539107D01*
X459374Y540876D01*
X461143Y543182D01*
X462256Y545868D01*
X462468Y547480D01*
D02*
G37*
G36*
X450230D02*
X440532D01*
X440744Y545868D01*
X441857Y543182D01*
X443626Y540876D01*
X445932Y539107D01*
X448618Y537994D01*
X450230Y537782D01*
Y547480D01*
D02*
G37*
G36*
X72700Y544891D02*
X69959Y544530D01*
X67405Y543472D01*
X65211Y541789D01*
X63528Y539595D01*
X62470Y537041D01*
X62109Y534300D01*
X62470Y531559D01*
X63528Y529005D01*
X65211Y526811D01*
X67405Y525128D01*
X69959Y524070D01*
X72700Y523709D01*
X75441Y524070D01*
X77995Y525128D01*
X80189Y526811D01*
X81872Y529005D01*
X82930Y531559D01*
X83291Y534300D01*
X82930Y537041D01*
X81872Y539595D01*
X80189Y541789D01*
X77995Y543472D01*
X75441Y544530D01*
X72700Y544891D01*
D02*
G37*
G36*
X47300D02*
X44559Y544530D01*
X42005Y543472D01*
X39811Y541789D01*
X38128Y539595D01*
X37070Y537041D01*
X36709Y534300D01*
X37070Y531559D01*
X38128Y529005D01*
X39811Y526811D01*
X42005Y525128D01*
X44559Y524070D01*
X47300Y523709D01*
X50041Y524070D01*
X52595Y525128D01*
X54789Y526811D01*
X56472Y529005D01*
X57530Y531559D01*
X57891Y534300D01*
X57530Y537041D01*
X56472Y539595D01*
X54789Y541789D01*
X52595Y543472D01*
X50041Y544530D01*
X47300Y544891D01*
D02*
G37*
G36*
X429750Y524095D02*
X426878Y523717D01*
X424202Y522608D01*
X421905Y520845D01*
X420979Y519639D01*
X418521Y519639D01*
X417595Y520845D01*
X415298Y522608D01*
X412622Y523717D01*
X409750Y524095D01*
X406878Y523717D01*
X404202Y522608D01*
X401905Y520845D01*
X400141Y518548D01*
X399033Y515872D01*
X398655Y513000D01*
X399033Y510128D01*
X400141Y507453D01*
X401905Y505155D01*
X404202Y503391D01*
X406878Y502283D01*
X409750Y501905D01*
X412622Y502283D01*
X415298Y503391D01*
X417595Y505155D01*
X418521Y506361D01*
X420979Y506361D01*
X421905Y505155D01*
X424202Y503391D01*
X426878Y502283D01*
X429750Y501905D01*
X432622Y502283D01*
X435298Y503391D01*
X437595Y505155D01*
X439358Y507453D01*
X440467Y510128D01*
X440845Y513000D01*
X440467Y515872D01*
X439358Y518547D01*
X437595Y520845D01*
X435298Y522608D01*
X432622Y523717D01*
X429750Y524095D01*
D02*
G37*
G36*
X213750Y522000D02*
X183750D01*
Y515584D01*
X178036D01*
X177855Y515855D01*
X176201Y516960D01*
X174250Y517348D01*
X172299Y516960D01*
X170645Y515855D01*
X169540Y514201D01*
X169152Y512250D01*
X169540Y510299D01*
X170645Y508645D01*
X172299Y507540D01*
X174250Y507152D01*
X176201Y507540D01*
X177855Y508645D01*
X178036Y508916D01*
X183750D01*
Y504000D01*
X213750D01*
Y522000D01*
D02*
G37*
G36*
X73970Y519868D02*
Y510170D01*
X83668D01*
X83456Y511782D01*
X82343Y514468D01*
X80574Y516774D01*
X78268Y518543D01*
X75582Y519656D01*
X73970Y519868D01*
D02*
G37*
G36*
X71430D02*
X69818Y519656D01*
X67132Y518543D01*
X64826Y516774D01*
X63057Y514468D01*
X61944Y511782D01*
X61732Y510170D01*
X71430D01*
Y519868D01*
D02*
G37*
G36*
X348750Y527000D02*
X330750D01*
Y503000D01*
X348750D01*
Y527000D01*
D02*
G37*
G36*
X328750D02*
X310750D01*
Y503000D01*
X328750D01*
Y527000D01*
D02*
G37*
G36*
X308750D02*
X290750D01*
Y503000D01*
X308750D01*
Y527000D01*
D02*
G37*
G36*
X288750D02*
X270750D01*
Y503000D01*
X288750D01*
Y527000D01*
D02*
G37*
G36*
X268750D02*
X250750D01*
Y503000D01*
X268750D01*
Y527000D01*
D02*
G37*
G36*
X47300Y519491D02*
X44559Y519130D01*
X42005Y518072D01*
X39811Y516389D01*
X38128Y514195D01*
X37070Y511641D01*
X36709Y508900D01*
X37070Y506159D01*
X38128Y503605D01*
X39811Y501411D01*
X42005Y499728D01*
X44559Y498670D01*
X47300Y498309D01*
X50041Y498670D01*
X52595Y499728D01*
X54789Y501411D01*
X56472Y503605D01*
X57530Y506159D01*
X57891Y508900D01*
X57530Y511641D01*
X56472Y514195D01*
X54789Y516389D01*
X52595Y518072D01*
X50041Y519130D01*
X47300Y519491D01*
D02*
G37*
G36*
X213750Y462000D02*
X183750D01*
Y444000D01*
X213750D01*
Y462000D01*
D02*
G37*
G36*
Y442000D02*
X183750D01*
Y424000D01*
X213750D01*
Y442000D01*
D02*
G37*
G36*
Y422000D02*
X183750D01*
Y404000D01*
X213750D01*
Y422000D01*
D02*
G37*
G36*
X72700Y417891D02*
X69959Y417530D01*
X67405Y416472D01*
X65211Y414789D01*
X63528Y412595D01*
X62470Y410041D01*
X62109Y407300D01*
X62470Y404559D01*
X63528Y402005D01*
X65211Y399811D01*
X67405Y398128D01*
X69959Y397070D01*
X72700Y396709D01*
X75441Y397070D01*
X77995Y398128D01*
X80189Y399811D01*
X81872Y402005D01*
X82930Y404559D01*
X83291Y407300D01*
X82930Y410041D01*
X81872Y412595D01*
X80189Y414789D01*
X77995Y416472D01*
X75441Y417530D01*
X72700Y417891D01*
D02*
G37*
G36*
X47300D02*
X44559Y417530D01*
X42005Y416472D01*
X39811Y414789D01*
X38128Y412595D01*
X37070Y410041D01*
X36709Y407300D01*
X37070Y404559D01*
X38128Y402005D01*
X39811Y399811D01*
X42005Y398128D01*
X44559Y397070D01*
X47300Y396709D01*
X50041Y397070D01*
X52595Y398128D01*
X54789Y399811D01*
X56472Y402005D01*
X57530Y404559D01*
X57891Y407300D01*
X57530Y410041D01*
X56472Y412595D01*
X54789Y414789D01*
X52595Y416472D01*
X50041Y417530D01*
X47300Y417891D01*
D02*
G37*
G36*
X150980Y386040D02*
X142460D01*
Y378270D01*
X150980D01*
Y386040D01*
D02*
G37*
G36*
X138290D02*
X129770D01*
Y378270D01*
X138290D01*
Y386040D01*
D02*
G37*
G36*
X127230D02*
X118710D01*
Y378270D01*
X127230D01*
Y386040D01*
D02*
G37*
G36*
X213750Y402000D02*
X183750D01*
X183750Y384316D01*
X183210Y382540D01*
X183210Y382224D01*
Y377588D01*
X176901D01*
X174244Y380244D01*
X172756Y381239D01*
X171000Y381588D01*
X162040D01*
Y386040D01*
X153520D01*
Y377000D01*
X152250D01*
Y375730D01*
X142460D01*
Y368736D01*
X142460Y367960D01*
X143000Y366184D01*
Y349960D01*
X161500D01*
Y355126D01*
X164991D01*
X165145Y354895D01*
X166799Y353790D01*
X168750Y353402D01*
X170701Y353790D01*
X172355Y354895D01*
X173460Y356549D01*
X173848Y358500D01*
X173460Y360451D01*
X172355Y362105D01*
X170701Y363210D01*
X168750Y363598D01*
X166799Y363210D01*
X165145Y362105D01*
X164938Y361794D01*
X161500D01*
Y366184D01*
X162040Y367960D01*
X162040Y368736D01*
Y372412D01*
X169100D01*
X171756Y369756D01*
X173244Y368761D01*
X175000Y368412D01*
X183210D01*
Y363776D01*
X183210Y363460D01*
X183750Y361684D01*
X183750Y361460D01*
Y344000D01*
X213750D01*
Y349666D01*
X217714D01*
X217895Y349395D01*
X219549Y348290D01*
X221500Y347902D01*
X223451Y348290D01*
X225105Y349395D01*
X226210Y351049D01*
X226598Y353000D01*
X226210Y354951D01*
X225105Y356605D01*
X223451Y357710D01*
X221500Y358098D01*
X219549Y357710D01*
X217895Y356605D01*
X217714Y356334D01*
X213750D01*
X213750Y361684D01*
X214290Y363460D01*
X214290Y363776D01*
Y371730D01*
X198750D01*
Y374270D01*
X214290D01*
Y382224D01*
X214290Y382540D01*
X213750Y384316D01*
X213750Y384540D01*
Y402000D01*
D02*
G37*
G36*
X72700Y392491D02*
X69959Y392130D01*
X67405Y391072D01*
X65211Y389389D01*
X63528Y387195D01*
X62470Y384641D01*
X62109Y381900D01*
X62470Y379159D01*
X63528Y376605D01*
X65211Y374411D01*
X67405Y372728D01*
X69959Y371670D01*
X72700Y371309D01*
X75441Y371670D01*
X77995Y372728D01*
X80189Y374411D01*
X81872Y376605D01*
X82930Y379159D01*
X83291Y381900D01*
X82930Y384641D01*
X81872Y387195D01*
X80189Y389389D01*
X77995Y391072D01*
X75441Y392130D01*
X72700Y392491D01*
D02*
G37*
G36*
X138290Y375730D02*
X118710D01*
Y368736D01*
X118710Y367960D01*
X119250Y366184D01*
Y363467D01*
X117250Y362426D01*
X116451Y362960D01*
X114500Y363348D01*
X112549Y362960D01*
X110895Y361855D01*
X109790Y360201D01*
X109402Y358250D01*
X109790Y356299D01*
X110895Y354645D01*
X112549Y353540D01*
X114500Y353152D01*
X116451Y353540D01*
X117250Y354074D01*
X119250Y353033D01*
Y349960D01*
X137750D01*
Y366184D01*
X138290Y367960D01*
X138290Y368736D01*
Y375730D01*
D02*
G37*
G36*
X429750Y364095D02*
X426878Y363717D01*
X424202Y362608D01*
X421905Y360845D01*
X420979Y359639D01*
X418521Y359639D01*
X417595Y360845D01*
X415298Y362608D01*
X412622Y363717D01*
X409750Y364095D01*
X406878Y363717D01*
X404202Y362608D01*
X401905Y360845D01*
X400141Y358548D01*
X399033Y355872D01*
X398655Y353000D01*
X399033Y350128D01*
X400141Y347453D01*
X401905Y345155D01*
X404202Y343391D01*
X406878Y342283D01*
X409750Y341905D01*
X412622Y342283D01*
X415298Y343391D01*
X417595Y345155D01*
X418521Y346361D01*
X420979Y346361D01*
X421905Y345155D01*
X424202Y343391D01*
X426878Y342283D01*
X429750Y341905D01*
X432622Y342283D01*
X435298Y343391D01*
X437595Y345155D01*
X439358Y347453D01*
X440467Y350128D01*
X440845Y353000D01*
X440467Y355872D01*
X439358Y358547D01*
X437595Y360845D01*
X435298Y362608D01*
X432622Y363717D01*
X429750Y364095D01*
D02*
G37*
G36*
X72700Y367091D02*
X69959Y366730D01*
X67405Y365672D01*
X65211Y363989D01*
X63528Y361795D01*
X62470Y359241D01*
X62109Y356500D01*
X62470Y353759D01*
X63528Y351205D01*
X65211Y349011D01*
X67405Y347328D01*
X69959Y346270D01*
X72700Y345909D01*
X75441Y346270D01*
X77995Y347328D01*
X80189Y349011D01*
X81872Y351205D01*
X82930Y353759D01*
X83291Y356500D01*
X82930Y359241D01*
X81872Y361795D01*
X80189Y363989D01*
X77995Y365672D01*
X75441Y366730D01*
X72700Y367091D01*
D02*
G37*
G36*
X368750Y363000D02*
X350750D01*
Y339000D01*
X368750D01*
Y363000D01*
D02*
G37*
G36*
X308750D02*
X290750D01*
Y339000D01*
X308750D01*
Y363000D01*
D02*
G37*
G36*
X288750D02*
X270750D01*
Y339000D01*
X288750D01*
Y363000D01*
D02*
G37*
G36*
X268750D02*
X250750D01*
Y339000D01*
X268750D01*
Y363000D01*
D02*
G37*
G36*
X72700Y341691D02*
X69959Y341330D01*
X67405Y340272D01*
X65211Y338589D01*
X63528Y336395D01*
X62470Y333841D01*
X62109Y331100D01*
X62470Y328359D01*
X63528Y325805D01*
X65211Y323611D01*
X67405Y321928D01*
X69959Y320870D01*
X72700Y320509D01*
X75441Y320870D01*
X77995Y321928D01*
X80189Y323611D01*
X81872Y325805D01*
X82930Y328359D01*
X83291Y331100D01*
X82930Y333841D01*
X81872Y336395D01*
X80189Y338589D01*
X77995Y340272D01*
X75441Y341330D01*
X72700Y341691D01*
D02*
G37*
G36*
X47300D02*
X44559Y341330D01*
X42005Y340272D01*
X39811Y338589D01*
X38128Y336395D01*
X37070Y333841D01*
X36709Y331100D01*
X37070Y328359D01*
X38128Y325805D01*
X39811Y323611D01*
X42005Y321928D01*
X44559Y320870D01*
X47300Y320509D01*
X50041Y320870D01*
X52595Y321928D01*
X54789Y323611D01*
X56472Y325805D01*
X57530Y328359D01*
X57891Y331100D01*
X57530Y333841D01*
X56472Y336395D01*
X54789Y338589D01*
X52595Y340272D01*
X50041Y341330D01*
X47300Y341691D01*
D02*
G37*
G36*
X83740Y316740D02*
X73970D01*
Y306970D01*
X83740D01*
Y316740D01*
D02*
G37*
G36*
X71430D02*
X61660D01*
Y306970D01*
X71430D01*
Y316740D01*
D02*
G37*
G36*
X47300Y316291D02*
X44559Y315930D01*
X42005Y314872D01*
X39811Y313189D01*
X38128Y310995D01*
X37070Y308441D01*
X36709Y305700D01*
X37070Y302959D01*
X38128Y300405D01*
X39811Y298211D01*
X42005Y296528D01*
X44559Y295470D01*
X47300Y295109D01*
X50041Y295470D01*
X52595Y296528D01*
X54789Y298211D01*
X56472Y300405D01*
X57530Y302959D01*
X57891Y305700D01*
X57530Y308441D01*
X56472Y310995D01*
X54789Y313189D01*
X52595Y314872D01*
X50041Y315930D01*
X47300Y316291D01*
D02*
G37*
G36*
X83740Y304430D02*
X73970D01*
Y294660D01*
X83740D01*
Y304430D01*
D02*
G37*
G36*
X71430D02*
X61660D01*
Y294660D01*
X71430D01*
Y304430D01*
D02*
G37*
G36*
X101440Y279790D02*
X95170D01*
Y271770D01*
X101440D01*
Y279790D01*
D02*
G37*
G36*
X43040Y275790D02*
Y267270D01*
X50810D01*
Y275790D01*
X43040D01*
D02*
G37*
G36*
X101440Y269230D02*
X95170D01*
Y261210D01*
X101440D01*
Y269230D01*
D02*
G37*
G36*
X50810Y264730D02*
X43040D01*
Y256210D01*
X50810D01*
Y264730D01*
D02*
G37*
G36*
X102690Y256790D02*
X94920D01*
Y248270D01*
X102690D01*
Y256790D01*
D02*
G37*
G36*
Y245730D02*
X94920D01*
Y237210D01*
X102690D01*
Y245730D01*
D02*
G37*
G36*
X43290Y228790D02*
Y220270D01*
X51060D01*
Y228790D01*
X43290D01*
D02*
G37*
G36*
X51060Y217730D02*
X43290D01*
Y209210D01*
X51060D01*
Y217730D01*
D02*
G37*
G36*
X74290Y204810D02*
X66270D01*
Y198540D01*
X74290D01*
Y204810D01*
D02*
G37*
G36*
X63730D02*
X55710D01*
Y198540D01*
X63730D01*
Y204810D01*
D02*
G37*
%LPD*%
G36*
X126395Y496395D02*
X128049Y495290D01*
X128966Y495108D01*
X129112Y495079D01*
X128995Y493895D01*
X127333Y493079D01*
X115520D01*
X114349Y492846D01*
X113357Y492183D01*
X113357Y492183D01*
X108773Y487599D01*
X82367D01*
X81872Y488795D01*
X80189Y490989D01*
X80088Y491066D01*
X80767Y493066D01*
X91817D01*
X93093Y493320D01*
X94175Y494043D01*
X96798Y496666D01*
X126214D01*
X126395Y496395D01*
D02*
G37*
G36*
X372186Y624009D02*
Y619024D01*
X370186Y617662D01*
X369250Y617848D01*
X367299Y617460D01*
X366090Y616652D01*
X364541Y617195D01*
X364090Y617538D01*
Y620890D01*
X350090D01*
Y609577D01*
X349253Y609018D01*
X345550Y605315D01*
X343550Y606143D01*
Y620890D01*
X340394D01*
Y625750D01*
X345100D01*
X345560Y625750D01*
X347100D01*
X347560Y625750D01*
X364100D01*
Y629267D01*
X366100Y630095D01*
X372186Y624009D01*
D02*
G37*
D10*
X306180Y551180D02*
X394930D01*
X472250Y628500D01*
X664500D01*
X135230Y490020D02*
X179750Y534540D01*
X301290D01*
X356780Y563500D02*
X369500D01*
X356000Y564280D02*
X356780Y563500D01*
X355600Y563880D02*
X356000Y564280D01*
X664500Y628500D02*
X670560Y634560D01*
Y650130D01*
X8750Y266000D02*
X23230D01*
X306180Y539430D02*
Y551180D01*
X301290Y534540D02*
X306180Y539430D01*
X115520Y490020D02*
X135230D01*
X114500Y358250D02*
X114710Y358460D01*
X128500D01*
X110040Y484540D02*
X115520Y490020D01*
X72700Y483500D02*
X73740Y484540D01*
X110040D01*
X567300Y460800D02*
X587500Y481000D01*
X645250D01*
X644750Y550750D02*
X645500Y551500D01*
X628750Y614500D02*
X639500D01*
X645500Y608500D01*
Y551500D02*
Y608500D01*
X644750Y550750D02*
X645500Y550000D01*
X797750Y423000D02*
X801320Y419430D01*
X812800D01*
X791863Y423000D02*
X797750D01*
X579700D02*
X791863D01*
X791210Y446930D02*
X791863Y446277D01*
Y423000D02*
Y446277D01*
X567300Y435400D02*
X579700Y423000D01*
D11*
X898785Y467470D02*
X900250Y466006D01*
Y437680D02*
Y466006D01*
X886460Y467470D02*
X898785D01*
X26750Y162730D02*
X27000Y162980D01*
X900500Y422805D02*
X901964Y424270D01*
X900500Y406750D02*
Y422805D01*
X901964Y424270D02*
X913000D01*
X897500Y403750D02*
X900500Y406750D01*
X882980Y403750D02*
X897500D01*
X876300Y410430D02*
Y418430D01*
Y410430D02*
X882980Y403750D01*
X889000Y418430D02*
Y426430D01*
X900250Y437680D01*
X876300Y438520D02*
X884710Y446930D01*
X876300Y418430D02*
Y438520D01*
X884710Y446930D02*
X886460D01*
D17*
X128480Y303770D02*
Y331250D01*
Y303770D02*
X139250Y293000D01*
Y268179D02*
Y293000D01*
Y268179D02*
X142179Y265250D01*
X448000D01*
X175000Y373000D02*
X198750D01*
X171000Y377000D02*
X175000Y373000D01*
X152250Y377000D02*
X171000D01*
X756000Y647750D02*
Y726500D01*
X831750Y733000D02*
X834300Y735550D01*
X756000Y726500D02*
X762500Y733000D01*
X831750D01*
X834300Y735550D02*
Y755650D01*
X127230Y330000D02*
X128480Y331250D01*
X113000Y330000D02*
X127230D01*
X46250Y148500D02*
X58500D01*
X853550Y758050D02*
Y793750D01*
X851150Y755650D02*
X853550Y758050D01*
X834300Y755650D02*
X851150D01*
D18*
X344250Y319250D02*
X345000Y318500D01*
X344250Y319250D02*
Y329000D01*
X339750Y333500D02*
X344250Y329000D01*
X339750Y333500D02*
Y351000D01*
X319600Y350850D02*
X319750Y351000D01*
X319600Y318500D02*
Y350850D01*
X360000Y515250D02*
X374500D01*
X408000Y548750D02*
X426100D01*
X374500Y515250D02*
X408000Y548750D01*
X359750Y515000D02*
X360000Y515250D01*
X863600Y418430D02*
Y419680D01*
Y401320D02*
Y418430D01*
Y345650D02*
Y366430D01*
Y345650D02*
X875000Y334250D01*
Y248540D02*
Y334250D01*
X848360Y221900D02*
X875000Y248540D01*
X799920Y221900D02*
X848360D01*
X799270Y221750D02*
X799520Y221500D01*
X799520D01*
X799920Y221900D01*
X778730Y221750D02*
Y256230D01*
X789000Y266500D02*
Y334000D01*
X778730Y256230D02*
X789000Y266500D01*
X850750Y335250D02*
X850900Y335400D01*
X817000Y335250D02*
X832210D01*
X801250Y344250D02*
X806500Y349500D01*
X737988Y344250D02*
X801250D01*
X806500Y349500D02*
X836712D01*
X838200Y350988D01*
Y366430D01*
X736500Y329270D02*
Y342762D01*
X737988Y344250D01*
X838200Y366430D02*
Y381240D01*
X736500Y329270D02*
X736500Y329270D01*
X799270Y223500D02*
X803000Y227230D01*
X799270Y221750D02*
Y223500D01*
X863550Y366480D02*
X863600Y366430D01*
X815250Y480000D02*
X815340Y479910D01*
Y467360D02*
Y479910D01*
X840750Y466860D02*
Y484348D01*
X705460Y669430D02*
X717270D01*
X737000Y649700D01*
Y647750D02*
Y649700D01*
X226900Y759460D02*
X251690Y784250D01*
X314250D01*
X179854Y808250D02*
X326500D01*
X166624Y795020D02*
X179854Y808250D01*
X257810Y682100D02*
Y747270D01*
X270000Y759460D01*
X364490Y726440D02*
X383540Y745490D01*
X364490Y680830D02*
Y726440D01*
X850545Y420035D02*
Y434455D01*
Y420035D02*
X850900Y419680D01*
X151000Y210250D02*
Y222480D01*
X151250Y222730D01*
X176270Y208730D02*
Y219440D01*
X175000Y220710D02*
X176270Y219440D01*
X175000Y220710D02*
X177250Y222960D01*
X69750Y614250D02*
X70000Y614000D01*
X53500Y614250D02*
X69750D01*
X28750Y589500D02*
X41500Y602250D01*
X28750Y383388D02*
Y589500D01*
X41500Y602250D02*
X53500Y614250D01*
X41500Y602250D02*
Y602250D01*
X49850Y652100D02*
X70000D01*
X17250Y369000D02*
Y619500D01*
X49850Y652100D01*
X878753Y383650D02*
X913130D01*
X872383Y390020D02*
X878753Y383650D01*
X846980Y390020D02*
X872383D01*
X147000Y331230D02*
X147020Y331250D01*
X147000Y330250D02*
Y331230D01*
Y330250D02*
X160500D01*
X863500Y383750D02*
X863550Y383700D01*
Y366480D02*
Y383700D01*
X838200Y381240D02*
X846980Y390020D01*
X241910Y630780D02*
X250284D01*
X251834Y629230D01*
X252770D01*
X221500Y353000D02*
X221500Y353000D01*
X198750Y353000D02*
X221500D01*
X168710Y358460D02*
X168750Y358500D01*
X152250Y358460D02*
X168710D01*
X762330Y328250D02*
X777848D01*
X762080Y328500D02*
X762330Y328250D01*
X552500Y668578D02*
Y683598D01*
X552450Y668528D02*
X552500Y668578D01*
X840740Y466850D02*
X840750Y466860D01*
X628470Y570332D02*
Y590090D01*
X285750Y681480D02*
Y694500D01*
X162250Y282250D02*
X176570D01*
X176710Y282390D01*
X767750Y392810D02*
Y406270D01*
X8500Y219000D02*
X23260D01*
X23370Y218890D01*
X241500Y584254D02*
X242250Y585004D01*
Y599500D01*
X8750Y195500D02*
X22790D01*
X244040Y305750D02*
X255750D01*
X243790Y305500D02*
X244040Y305750D01*
X495475Y336725D02*
Y380397D01*
X222088Y292702D02*
X451452D01*
X495475Y336725D01*
X22790Y195500D02*
X23040Y195250D01*
X198000Y512250D02*
X198750Y513000D01*
X174250Y512250D02*
X198000D01*
X60930Y471730D02*
X135730D01*
X157000Y493000D02*
X198750D01*
X135730Y471730D02*
X157000Y493000D01*
X241790Y307500D02*
X243790Y305500D01*
X239540Y305250D02*
X241790Y307500D01*
X220600Y304850D02*
X221000Y305250D01*
X220600Y294190D02*
Y304850D01*
Y294190D02*
X222088Y292702D01*
X495475Y380397D02*
X562373Y447295D01*
X580805D01*
X592700Y435400D01*
X875030Y396240D02*
X903760D01*
X911250Y403730D02*
X913000D01*
X903760Y396240D02*
X911250Y403730D01*
X262850Y636850D02*
X273050D01*
X47300Y458100D02*
X60930Y471730D01*
X161456Y474020D02*
X176847D01*
X177617Y473250D01*
X198500D01*
X159750D02*
X160686D01*
X161456Y474020D01*
X198500Y473250D02*
X198750Y473000D01*
X60200Y445600D02*
X152100D01*
X174250Y467750D01*
X47300Y432700D02*
X60200Y445600D01*
X95417Y500000D02*
X130000D01*
X91817Y496400D02*
X95417Y500000D01*
X60200Y496400D02*
X91817D01*
X197250Y305250D02*
X221000D01*
X197250Y282390D02*
Y305250D01*
X122500Y247000D02*
X123000Y246500D01*
X29750Y356500D02*
X47300D01*
X17250Y369000D02*
X29750Y356500D01*
X30238Y381900D02*
X47300D01*
X28750Y383388D02*
X30238Y381900D01*
X47300Y483500D02*
X60200Y496400D01*
X740250Y759620D02*
X740410Y759780D01*
X760500Y793750D02*
X783830D01*
X740410Y773660D02*
X760500Y793750D01*
X740410Y759780D02*
Y773660D01*
X740250Y759620D02*
X740410Y759460D01*
X813830Y793750D02*
X833010D01*
X762000Y328420D02*
X762080Y328500D01*
X578830Y669670D02*
X594360D01*
X578750Y669750D02*
X578830Y669670D01*
X413020Y680830D02*
X414020Y679830D01*
X431920D01*
X432000Y679750D01*
X285750Y636850D02*
Y662940D01*
X284370Y661560D02*
X285750Y662940D01*
X262890Y661560D02*
X284370D01*
X285750Y621030D02*
Y636850D01*
X257810Y653238D02*
Y661560D01*
X256322Y651750D02*
X257810Y653238D01*
X209310Y651750D02*
X256322D01*
X205740Y655320D02*
X209310Y651750D01*
X205740Y655320D02*
Y749300D01*
X323850Y612140D02*
X336550D01*
X232410Y563880D02*
X255270D01*
X186690Y768350D02*
X205740Y749300D01*
X336550Y612140D02*
X337060Y612650D01*
Y635000D01*
X166370Y768350D02*
X186690D01*
X328312Y644498D02*
X337060Y635750D01*
Y635000D02*
Y635750D01*
X324512Y644498D02*
X328312D01*
X323850Y645160D02*
X324512Y644498D01*
X308610Y682100D02*
X323740D01*
X312670Y563880D02*
X337060D01*
X298450Y578100D02*
X312670Y563880D01*
X298450Y578100D02*
Y582350D01*
Y636850D02*
Y641100D01*
Y617220D02*
Y636850D01*
Y641100D02*
X308610Y651260D01*
X292100Y610870D02*
X298450Y617220D01*
X308610Y651260D02*
Y661560D01*
X232410Y610870D02*
X292100D01*
X308610Y661560D02*
X323960D01*
X325230Y660290D01*
X339090D01*
X364490D01*
X364490Y660290D01*
X389890D01*
X399940D01*
X400940Y661290D01*
X414020D01*
X408940Y745490D02*
Y770890D01*
X148082Y768350D02*
X148209Y768477D01*
Y794893D01*
X148336Y795020D01*
X574830Y616070D02*
X593680D01*
X595250Y614500D01*
X608210D01*
Y590370D02*
Y614500D01*
X799410Y365180D02*
X812800D01*
X797560Y367030D02*
X799410Y365180D01*
X787400Y367030D02*
X797560D01*
X787500Y354250D02*
Y366930D01*
X787400Y367030D02*
X787500Y366930D01*
X787500Y354250D02*
X787500Y354250D01*
X792960Y467470D02*
X809860Y450570D01*
Y450550D02*
Y450570D01*
Y450550D02*
X814206Y446204D01*
X815956D01*
Y441344D02*
Y446204D01*
Y441344D02*
X825500Y431800D01*
Y419680D02*
Y431800D01*
X375500Y598000D02*
X375520Y598020D01*
Y625390D01*
X366240Y598000D02*
X375500D01*
X365910Y635000D02*
X375520Y625390D01*
X356870Y588630D02*
X366240Y598000D01*
X355600Y635000D02*
X365910D01*
X356870Y588630D02*
X357310Y588190D01*
X383540Y745490D02*
X383540D01*
X351610Y606660D02*
X353360D01*
X357090Y612140D02*
X357700Y612750D01*
X353360Y606660D02*
X357090Y610390D01*
Y612140D01*
X339210Y594260D02*
X351610Y606660D01*
X357700Y612750D02*
X369250D01*
X339210Y588480D02*
Y594260D01*
X337210Y587750D02*
X337845Y587115D01*
X337845D01*
X339210Y588480D01*
X336770Y588190D02*
X337210Y587750D01*
X645160Y669510D02*
Y670780D01*
Y728980D01*
X621140Y669510D02*
X645160D01*
X633730Y740410D02*
X645160Y728980D01*
X621030Y669400D02*
X621140Y669510D01*
X633730Y740410D02*
Y759460D01*
X235060Y682100D02*
X257810D01*
X234950Y681990D02*
X235060Y682100D01*
X23040Y195250D02*
X23230Y195440D01*
X241500Y584254D02*
X241554Y584200D01*
X770900Y755650D02*
X791300D01*
X770750Y755500D02*
X770900Y755650D01*
X595630Y759460D02*
Y779130D01*
X595750Y779250D01*
X594360Y651130D02*
X607440D01*
X593280Y650050D02*
X594360Y651130D01*
Y641860D02*
Y650240D01*
X574258D02*
X593090D01*
X607440Y651130D02*
X608440Y650130D01*
X621030D01*
X589250Y636750D02*
X594360Y641860D01*
X572770Y651728D02*
Y659384D01*
Y651728D02*
X574258Y650240D01*
X587262Y597070D02*
X588750Y598558D01*
Y601779D01*
X574830Y597070D02*
X587262D01*
X408940Y821690D02*
X426720Y803910D01*
Y712688D02*
Y803910D01*
X425232Y711200D02*
X426720Y712688D01*
X377190Y711200D02*
X425232D01*
X307340D02*
X322580D01*
X304800Y713740D02*
X307340Y711200D01*
X273268Y713740D02*
X304800D01*
X271780Y712252D02*
X273268Y713740D01*
X271780Y673318D02*
Y712252D01*
X270292Y671830D02*
X271780Y673318D01*
X247080Y671830D02*
X270292D01*
X236700Y661450D02*
X247080Y671830D01*
X234950Y661450D02*
X236700D01*
X831850Y396240D02*
X858520D01*
X863600Y401320D01*
X695960Y646430D02*
Y655320D01*
X681880Y669400D02*
X695960Y655320D01*
X670560Y669400D02*
X681880D01*
X766860Y368780D02*
X770590Y372510D01*
X766860Y367030D02*
Y368780D01*
X770590Y372510D02*
X771180D01*
X784940Y386270D01*
Y387430D02*
X787400Y389890D01*
X784940Y386270D02*
Y387430D01*
X788670Y392430D02*
X814070D01*
X825500Y381000D01*
Y365180D02*
Y381000D01*
X876300Y365180D02*
X889000D01*
Y365430D02*
Y365430D01*
X897820D01*
X900140Y363110D01*
Y363110D02*
X913130D01*
X123000Y246500D02*
X135500D01*
X137436D02*
X137500Y246436D01*
X135500Y246500D02*
X137436D01*
X262750Y636750D02*
X262850Y636850D01*
X862110Y448310D02*
X863600Y446820D01*
X840740Y448310D02*
X862110D01*
X840740Y435610D02*
Y448310D01*
X838200Y433070D02*
X840740Y435610D01*
X838200Y419680D02*
Y433070D01*
X767750Y392810D02*
X768130Y392430D01*
X714960Y634790D02*
Y646430D01*
Y634790D02*
X715000Y634750D01*
X628470Y590090D02*
X628750Y590370D01*
X551830Y606570D02*
X551970Y606710D01*
X551250Y607430D02*
X551970Y606710D01*
X23370Y218890D02*
X23480Y219000D01*
D19*
X279750Y351000D02*
D03*
X299750D02*
D03*
X319750D02*
D03*
X339750D02*
D03*
X359750D02*
D03*
X259750D02*
D03*
X279750Y515000D02*
D03*
X299750D02*
D03*
X319750D02*
D03*
X339750D02*
D03*
X359750D02*
D03*
X259750D02*
D03*
D20*
X198750Y433000D02*
D03*
Y353000D02*
D03*
Y373000D02*
D03*
Y393000D02*
D03*
Y413000D02*
D03*
Y453000D02*
D03*
Y473000D02*
D03*
Y493000D02*
D03*
Y513000D02*
D03*
D21*
X429750Y353000D02*
D03*
X409750D02*
D03*
X429750Y513000D02*
D03*
X409750D02*
D03*
D22*
X832210Y335250D02*
D03*
X850750D02*
D03*
X585540Y306000D02*
D03*
X567000D02*
D03*
X41770Y266000D02*
D03*
X23230D02*
D03*
X585770Y329250D02*
D03*
X221000Y305250D02*
D03*
X103960Y247000D02*
D03*
X42020Y219000D02*
D03*
X23230Y195440D02*
D03*
X122500Y247000D02*
D03*
X355600Y563880D02*
D03*
X147020Y331250D02*
D03*
X23480Y219000D02*
D03*
X567230Y329250D02*
D03*
X239540Y305250D02*
D03*
X337060Y635000D02*
D03*
X355600D02*
D03*
X337060Y563880D02*
D03*
X128480Y331250D02*
D03*
X41770Y195440D02*
D03*
D23*
X746500Y667250D02*
D03*
X756000Y647750D02*
D03*
X737000D02*
D03*
X222910Y583790D02*
D03*
Y630780D02*
D03*
X241910Y583790D02*
D03*
Y630780D02*
D03*
X166726Y767940D02*
D03*
X232410Y564290D02*
D03*
Y611280D02*
D03*
X166980Y795430D02*
D03*
X147980D02*
D03*
X147726Y767940D02*
D03*
X157226Y748440D02*
D03*
X157480Y814930D02*
D03*
D24*
X783830Y793750D02*
D03*
X813830D02*
D03*
D25*
X151250Y222730D02*
D03*
Y241270D02*
D03*
X152250Y358460D02*
D03*
Y377000D02*
D03*
X128500D02*
D03*
Y358460D02*
D03*
X177250Y241270D02*
D03*
Y222730D02*
D03*
X285750Y681480D02*
D03*
X414020Y679830D02*
D03*
X762000Y328420D02*
D03*
X840740Y466850D02*
D03*
X594360Y669670D02*
D03*
X285750Y662940D02*
D03*
X414020Y661290D02*
D03*
X840740Y448310D02*
D03*
X594360Y651130D02*
D03*
X762000Y309880D02*
D03*
D26*
X876300Y418430D02*
D03*
X863600D02*
D03*
X838200D02*
D03*
X825500D02*
D03*
X889000D02*
D03*
X812800D02*
D03*
X850900D02*
D03*
X876300Y366430D02*
D03*
X863600D02*
D03*
X838200D02*
D03*
X825500D02*
D03*
X889000D02*
D03*
X850900D02*
D03*
X812800D02*
D03*
D27*
X695960Y648430D02*
D03*
X714960D02*
D03*
X705460Y669430D02*
D03*
D28*
X736500Y308730D02*
D03*
Y329270D02*
D03*
X65000Y197270D02*
D03*
X339090Y680830D02*
D03*
X645160Y650240D02*
D03*
X389890Y680830D02*
D03*
X815340Y467360D02*
D03*
X257810Y661560D02*
D03*
X308610Y682100D02*
D03*
Y661560D02*
D03*
X339090Y660290D02*
D03*
X364490Y660290D02*
D03*
X389890D02*
D03*
X863600Y446820D02*
D03*
X621030Y650130D02*
D03*
X234950Y661450D02*
D03*
X364490Y680830D02*
D03*
X645160Y670780D02*
D03*
X621030Y670670D02*
D03*
X234950Y681990D02*
D03*
X257810Y682100D02*
D03*
X913000Y403730D02*
D03*
X670560Y670670D02*
D03*
X913130Y363110D02*
D03*
Y383650D02*
D03*
X913000Y424270D02*
D03*
X886460Y446930D02*
D03*
X863600Y467360D02*
D03*
X886460Y467470D02*
D03*
X791210Y467470D02*
D03*
X815340Y446820D02*
D03*
X670560Y650130D02*
D03*
X791210Y446930D02*
D03*
X65000Y176730D02*
D03*
D29*
X273050Y582600D02*
D03*
X285750D02*
D03*
X298450D02*
D03*
X311150D02*
D03*
X273050Y636600D02*
D03*
X285750D02*
D03*
X298450D02*
D03*
X311150D02*
D03*
D30*
X123250Y270500D02*
D03*
X176710Y305250D02*
D03*
X197250D02*
D03*
Y282390D02*
D03*
X102710Y270500D02*
D03*
X628750Y614500D02*
D03*
X176710Y282390D02*
D03*
X768130Y392430D02*
D03*
X628750Y590370D02*
D03*
X336550Y612140D02*
D03*
X357310Y588190D02*
D03*
X285640Y551180D02*
D03*
X357090Y612140D02*
D03*
X336770Y588190D02*
D03*
X853550Y793750D02*
D03*
X833010D02*
D03*
X799270Y221750D02*
D03*
X608210Y614500D02*
D03*
Y590370D02*
D03*
X788670Y392430D02*
D03*
X766860Y367030D02*
D03*
X787400D02*
D03*
X778730Y221750D02*
D03*
X306180Y551180D02*
D03*
D31*
X552860Y649884D02*
D03*
Y668884D02*
D03*
X572360Y659384D02*
D03*
D32*
X550830Y606570D02*
D03*
X575830Y596820D02*
D03*
Y616320D02*
D03*
D33*
X791300Y755650D02*
D03*
X834300D02*
D03*
D34*
X46250Y148500D02*
D03*
X36500Y123500D02*
D03*
X26750Y148500D02*
D03*
D64*
X850900Y335400D02*
Y366430D01*
X285640Y551180D02*
X285750Y551290D01*
Y592964D01*
X291786Y599000D01*
X323000D01*
D65*
X550750Y329250D02*
X567230D01*
X550500Y329500D02*
X550750Y329250D01*
X550126Y306000D02*
X567000D01*
X26750Y148500D02*
Y162730D01*
X27000Y162980D02*
X40750Y176730D01*
X65000D01*
X41770Y177750D02*
Y195440D01*
X40750Y176730D02*
X41770Y177750D01*
X567230Y329250D02*
X567265Y329285D01*
Y359165D01*
X567300Y359200D01*
D66*
X863600Y467360D02*
X863655Y467415D01*
X886405D01*
D67*
X251440Y158190D02*
Y210190D01*
X158040Y64790D02*
X251440Y158190D01*
X92211Y64790D02*
X158040D01*
X36500Y123500D02*
X70149D01*
X74250Y82750D02*
Y119399D01*
X70149Y123500D02*
X74250Y119399D01*
X149675Y149675D02*
X150000Y150000D01*
X149350Y39250D02*
X149675Y39575D01*
D68*
X736270Y308500D02*
X736500Y308730D01*
X752400Y309880D02*
X762000D01*
X751250Y308730D02*
X752400Y309880D01*
X736500Y308730D02*
X751250D01*
X711650Y384600D02*
X716000Y380250D01*
X594900Y384600D02*
X711650D01*
X592700D02*
X593800Y383500D01*
X717172Y308500D02*
X736270D01*
X593800Y383500D02*
X594900Y384600D01*
X716000Y309672D02*
Y380250D01*
Y309672D02*
X717172Y308500D01*
D69*
X389890Y680830D02*
X413020D01*
D70*
X156750Y577700D02*
D03*
X383540Y821690D02*
D03*
X72700Y305700D02*
D03*
X416750Y607550D02*
D03*
D71*
X156750Y552300D02*
D03*
X451500Y548750D02*
D03*
X408940Y821690D02*
D03*
X383540Y796290D02*
D03*
X408940D02*
D03*
X383540Y770890D02*
D03*
X408940D02*
D03*
X383540Y745490D02*
D03*
X408940D02*
D03*
X319600Y318500D02*
D03*
X74250Y82750D02*
D03*
X47300Y305700D02*
D03*
X72700Y331100D02*
D03*
X47300D02*
D03*
X72700Y356500D02*
D03*
X47300D02*
D03*
X72700Y381900D02*
D03*
X47300D02*
D03*
X72700Y407300D02*
D03*
X47300D02*
D03*
X72700Y432700D02*
D03*
X47300D02*
D03*
X72700Y458100D02*
D03*
X47300D02*
D03*
X72700Y483500D02*
D03*
X47300D02*
D03*
X72700Y508900D02*
D03*
X47300D02*
D03*
X72700Y534300D02*
D03*
X47300D02*
D03*
X174750Y39250D02*
D03*
X96700Y778690D02*
D03*
X416750Y632950D02*
D03*
X78740Y760730D02*
D03*
D72*
X426100Y548750D02*
D03*
X345000Y318500D02*
D03*
X149350Y39250D02*
D03*
D73*
X848360Y221900D02*
D03*
Y260000D02*
D03*
X265000Y759460D02*
D03*
X303100D02*
D03*
X75000Y614000D02*
D03*
Y652100D02*
D03*
X633730Y759460D02*
D03*
X740410D02*
D03*
D74*
X848360Y298100D02*
D03*
X75000Y575900D02*
D03*
D75*
X226900Y759460D02*
D03*
X702310D02*
D03*
X595630D02*
D03*
D76*
X92211Y64790D02*
D03*
D77*
X567300Y460800D02*
D03*
Y359200D02*
D03*
X592700Y460800D02*
D03*
X567300Y435400D02*
D03*
Y384600D02*
D03*
Y410000D02*
D03*
X592700Y435400D02*
D03*
Y384600D02*
D03*
Y410000D02*
D03*
D78*
X592800Y358950D02*
D03*
D79*
X60780Y742769D02*
D03*
D80*
X251440Y83190D02*
D03*
Y210190D02*
D03*
D81*
X150000Y150000D02*
D03*
X810000Y690000D02*
D03*
Y150000D02*
D03*
X150000Y690000D02*
D03*
D82*
X337840Y170190D02*
D03*
X637540Y123190D02*
D03*
D83*
X157000Y493000D02*
D03*
X789000Y334000D02*
D03*
X448000Y265250D02*
D03*
X817000Y335250D02*
D03*
X815250Y480000D02*
D03*
X840750Y484348D02*
D03*
X314250Y784250D02*
D03*
X326500Y808250D02*
D03*
X113000Y330000D02*
D03*
X850545Y435000D02*
D03*
X151000Y210250D02*
D03*
X176270Y208730D02*
D03*
X550500Y329500D02*
D03*
X550126Y306000D02*
D03*
X863500Y383750D02*
D03*
X369500Y563500D02*
D03*
X221500Y353000D02*
D03*
X168750Y358500D02*
D03*
X8750Y266000D02*
D03*
X777848Y328250D02*
D03*
X58500Y148500D02*
D03*
X552500Y683598D02*
D03*
X160500Y330250D02*
D03*
X628470Y570332D02*
D03*
X252770Y629230D02*
D03*
X285750Y694500D02*
D03*
X162250Y282250D02*
D03*
X767750Y406270D02*
D03*
X8500Y219000D02*
D03*
X242250Y599500D02*
D03*
X8750Y195500D02*
D03*
X255750Y305750D02*
D03*
X174250Y512250D02*
D03*
Y467750D02*
D03*
X114500Y358250D02*
D03*
X159750Y473250D02*
D03*
X130000Y500000D02*
D03*
X645250Y481000D02*
D03*
X645500Y550000D02*
D03*
X578750Y669750D02*
D03*
X432000Y679750D02*
D03*
X285750Y621030D02*
D03*
X323850Y612140D02*
D03*
X255270Y563880D02*
D03*
X323850Y645160D02*
D03*
X323740Y682100D02*
D03*
X875030Y396240D02*
D03*
X787500Y354250D02*
D03*
X323000Y599000D02*
D03*
X375500Y598000D02*
D03*
X369250Y612750D02*
D03*
X770750Y755500D02*
D03*
X595750Y779250D02*
D03*
X589250Y636750D02*
D03*
X588750Y601779D02*
D03*
X377190Y711200D02*
D03*
X322580D02*
D03*
X831850Y396240D02*
D03*
X135500Y246500D02*
D03*
X262850Y636850D02*
D03*
X715000Y634750D02*
D03*
M02*
