M48
;Layer_Color=9474304
;FILE_FORMAT=4:4
METRIC,TZ
;TYPE=PLATED
T1F00S00C0.3000
T2F00S00C1.0200
T3F00S00C1.1000
T4F00S00C1.1500
T5F00S00C1.2000
T6F00S00C1.3000
T7F00S00C1.3000
T8F00S00C3.6000
;TYPE=NON_PLATED
T9F00S00C3.4500
%
T01
X8750Y195500
X8500Y219000
X8750Y266000
X135500Y246500
X151000Y210250
X176270Y208730
X162250Y282250
X160500Y330250
X168750Y358500
X114500Y358250
X113000Y330000
X221500Y353000
X255750Y305750
X58500Y148500
X448000Y265250
X550126Y306000
X550500Y329500
X777848Y328250
X789000Y334000
X787500Y354250
X817000Y335250
X831850Y396240
X875030
X863500Y383750
X850545Y435000
X840750Y484348
X815250Y480000
X767750Y406270
X645250Y481000
X645500Y550000
X628470Y570332
X588750Y601779
X589250Y636750
X578750Y669750
X552500Y683598
X432000Y679750
X595750Y779250
X770750Y755500
X715000Y634750
X369250Y612750
X375500Y598000
X369500Y563500
X323000Y599000
X323850Y612140
Y645160
X323740Y682100
X322580Y711200
X285750Y694500
Y621030
X262850Y636850
X252770Y629230
X242250Y599500
X255270Y563880
X174250Y512250
X157000Y493000
X159750Y473250
X174250Y467750
X130000Y500000
X377190Y711200
X314250Y784250
X326500Y808250
T02
X74250Y82750
X92211Y64790
X149350Y39250
X174750
X251440Y83190
X319600Y318500
X345000
X426100Y548750
X451500
X416750Y607550
Y632950
X408940Y745490
Y770890
X383540
Y745490
X96700Y778690
X78740Y760730
X60780Y742769
X156750Y577700
Y552300
X383540Y796290
Y821690
X408940
Y796290
T03
X47300Y305700
X72700
Y331100
X47300
Y356500
X72700
Y381900
X47300
Y407300
X72700
Y432700
X47300
Y458100
X72700
Y483500
X47300
Y508900
X72700
Y534300
X47300
T04
X567300Y359200
Y384600
X592700
X592800Y358950
X592700Y410000
Y435400
Y460800
X567300
Y435400
Y410000
T05
X251440Y210190
T06
X848360Y221900
X303100Y759460
X75000Y652100
T07
X848360Y260000
Y298100
X740410Y759460
X702310
X633730
X595630
X265000
X226900
X75000Y614000
Y575900
T08
X150000Y150000
X810000
Y690000
X150000
T09
X337840Y170190
X637540Y123190
M30
