M48
;Layer_Color=9474304
;FILE_FORMAT=2:5
INCH,LZ
;TYPE=PLATED
T1F00S00C0.01600
T2F00S00C0.15000
;TYPE=NON_PLATED
T3F00S00C0.09843
%
T01
X-0047Y-01325
X-00095Y-0142
X-00055Y-01395
X-00015Y-0142
X00025Y-01425
X0004Y-0115995
X0001Y-0103
X-00769Y-00808
X00225Y-01125
X00192Y-01313
X0053Y-01391
X00745Y-01412
X00855Y-01235
X0079945Y-0115047
X00845Y-01025
X0102Y-01205
X00725Y-00755
X-00315Y01385
X-00473Y01259
X00246Y01348
X00472Y01241
T02
X-01142Y-00984
X01142
Y00984
X-01142
T03
X-001378Y-0110236
X001378
Y0110236
X-001378
M30
