G04*
G04 #@! TF.GenerationSoftware,Altium Limited,Altium Designer,21.4.1 (30)*
G04*
G04 Layer_Color=255*
%FSLAX44Y44*%
%MOMM*%
G71*
G04*
G04 #@! TF.SameCoordinates,1B399950-D3B7-4EFA-8D0F-ABCAEF693611*
G04*
G04*
G04 #@! TF.FilePolarity,Positive*
G04*
G01*
G75*
%ADD15C,1.8000*%
%ADD16R,1.4000X2.0000*%
%ADD17R,2.6000X1.4000*%
%ADD18R,1.2500X0.6000*%
%ADD29C,1.7000*%
%ADD30R,1.7000X1.7000*%
%ADD31C,1.5000*%
%ADD32R,1.5000X1.5000*%
D15*
X245270Y225020D02*
D03*
X265270D02*
D03*
X245270Y65020D02*
D03*
X265270D02*
D03*
D16*
X95270Y227020D02*
D03*
X195270D02*
D03*
X175270D02*
D03*
X155270D02*
D03*
X135270D02*
D03*
X115270D02*
D03*
X95270Y63020D02*
D03*
X195270D02*
D03*
X175270D02*
D03*
X155270D02*
D03*
X135270D02*
D03*
X115270D02*
D03*
D17*
X34270Y225020D02*
D03*
Y205020D02*
D03*
Y185020D02*
D03*
Y165020D02*
D03*
Y125020D02*
D03*
Y105020D02*
D03*
Y85020D02*
D03*
Y65020D02*
D03*
Y145020D02*
D03*
D18*
X379000Y232750D02*
D03*
Y214750D02*
D03*
X380250Y75750D02*
D03*
Y57750D02*
D03*
D29*
X333750Y29500D02*
D03*
X75270Y260020D02*
D03*
X49870D02*
D03*
X82600Y28000D02*
D03*
X307500Y261500D02*
D03*
D30*
X308350Y29500D02*
D03*
X100670Y260020D02*
D03*
X108000Y28000D02*
D03*
X332900Y261500D02*
D03*
D31*
X137250Y24750D02*
D03*
X157250D02*
D03*
X177250D02*
D03*
X257250D02*
D03*
X237250D02*
D03*
X217250D02*
D03*
X197250D02*
D03*
X137250Y264750D02*
D03*
X157250D02*
D03*
X177250D02*
D03*
X257250D02*
D03*
X237250D02*
D03*
X217250D02*
D03*
X197250D02*
D03*
D32*
X277250Y24750D02*
D03*
Y264750D02*
D03*
M02*
