G04*
G04 #@! TF.GenerationSoftware,Altium Limited,Altium Designer,21.4.1 (30)*
G04*
G04 Layer_Physical_Order=2*
G04 Layer_Color=16711680*
%FSLAX44Y44*%
%MOMM*%
G71*
G04*
G04 #@! TF.SameCoordinates,1B399950-D3B7-4EFA-8D0F-ABCAEF693611*
G04*
G04*
G04 #@! TF.FilePolarity,Positive*
G04*
G01*
G75*
%ADD27C,0.5000*%
%ADD28C,0.3000*%
%ADD29C,1.7000*%
%ADD30R,1.7000X1.7000*%
%ADD31C,1.5000*%
%ADD32R,1.5000X1.5000*%
%ADD33C,1.2700*%
%ADD34R,1.0000X1.3500*%
%ADD35R,1.4500X1.3000*%
%ADD36R,0.8000X1.0000*%
G36*
X386173Y277165D02*
X387529Y276603D01*
X388750Y275788D01*
X389788Y274750D01*
X390603Y273529D01*
X391165Y272173D01*
X391451Y270734D01*
Y270000D01*
Y20000D01*
Y19266D01*
X391165Y17827D01*
X390603Y16471D01*
X389788Y15250D01*
X388750Y14212D01*
X387529Y13397D01*
X386173Y12835D01*
X384734Y12549D01*
X384000Y12549D01*
X15266D01*
X13827Y12835D01*
X12471Y13397D01*
X11250Y14212D01*
X10212Y15250D01*
X9397Y16471D01*
X8835Y17827D01*
X8549Y19266D01*
X8549Y20000D01*
Y270000D01*
Y270734D01*
X8835Y272173D01*
X9397Y273529D01*
X10212Y274750D01*
X11250Y275788D01*
X12471Y276603D01*
X13827Y277165D01*
X15266Y277451D01*
X384734D01*
X386173Y277165D01*
D02*
G37*
%LPC*%
G36*
X287290Y274790D02*
X267210D01*
Y270119D01*
X265940Y269778D01*
X265284Y270915D01*
X263415Y272784D01*
X261125Y274106D01*
X258572Y274790D01*
X255928D01*
X253375Y274106D01*
X251085Y272784D01*
X249216Y270915D01*
X247912Y268657D01*
X247636Y268591D01*
X246864D01*
X246588Y268657D01*
X245284Y270915D01*
X243415Y272784D01*
X241125Y274106D01*
X238572Y274790D01*
X235928D01*
X233375Y274106D01*
X231085Y272784D01*
X229216Y270915D01*
X227912Y268657D01*
X227637Y268591D01*
X226864D01*
X226588Y268657D01*
X225284Y270915D01*
X223415Y272784D01*
X221125Y274106D01*
X218572Y274790D01*
X215928D01*
X213375Y274106D01*
X211085Y272784D01*
X209216Y270915D01*
X207912Y268657D01*
X207636Y268591D01*
X206864D01*
X206588Y268657D01*
X205284Y270915D01*
X203415Y272784D01*
X201125Y274106D01*
X198572Y274790D01*
X195928D01*
X193375Y274106D01*
X191085Y272784D01*
X189216Y270915D01*
X187912Y268657D01*
X187637Y268591D01*
X186864D01*
X186588Y268657D01*
X185284Y270915D01*
X183415Y272784D01*
X181125Y274106D01*
X178572Y274790D01*
X175928D01*
X173375Y274106D01*
X171085Y272784D01*
X169216Y270915D01*
X167912Y268657D01*
X167636Y268591D01*
X166864D01*
X166588Y268657D01*
X165284Y270915D01*
X163415Y272784D01*
X161125Y274106D01*
X158572Y274790D01*
X155928D01*
X153375Y274106D01*
X151085Y272784D01*
X149216Y270915D01*
X147912Y268657D01*
X147636Y268591D01*
X146864D01*
X146588Y268657D01*
X145284Y270915D01*
X143415Y272784D01*
X141125Y274106D01*
X138572Y274790D01*
X135928D01*
X133375Y274106D01*
X131085Y272784D01*
X129216Y270915D01*
X127894Y268625D01*
X127210Y266072D01*
Y263428D01*
X127894Y260875D01*
X129216Y258585D01*
X131085Y256716D01*
X132111Y256124D01*
Y195750D01*
X132502Y193783D01*
X133616Y192116D01*
X150210Y175523D01*
Y165960D01*
X152611D01*
Y160290D01*
X150170D01*
Y141710D01*
X165250D01*
Y160290D01*
X162889D01*
Y165960D01*
X165290D01*
Y184540D01*
X155727D01*
X151981Y188287D01*
X152467Y189460D01*
X165250D01*
Y208040D01*
X162849D01*
Y256389D01*
X163415Y256716D01*
X165284Y258585D01*
X166588Y260844D01*
X166864Y260909D01*
X167636D01*
X167912Y260844D01*
X169216Y258585D01*
X171085Y256716D01*
X173375Y255394D01*
X175928Y254710D01*
X178572D01*
X181125Y255394D01*
X183415Y256716D01*
X185284Y258585D01*
X186588Y260844D01*
X186864Y260909D01*
X187637D01*
X187912Y260844D01*
X189216Y258585D01*
X191085Y256716D01*
X193375Y255394D01*
X195928Y254710D01*
X198572D01*
X201125Y255394D01*
X203415Y256716D01*
X205284Y258585D01*
X206588Y260844D01*
X206864Y260909D01*
X207636D01*
X207912Y260844D01*
X209216Y258585D01*
X211085Y256716D01*
X213375Y255394D01*
X215928Y254710D01*
X218572D01*
X221125Y255394D01*
X223415Y256716D01*
X225284Y258585D01*
X226588Y260844D01*
X226864Y260909D01*
X227637D01*
X227912Y260844D01*
X229216Y258585D01*
X231085Y256716D01*
X233375Y255394D01*
X235928Y254710D01*
X238572D01*
X241125Y255394D01*
X243415Y256716D01*
X245284Y258585D01*
X246588Y260844D01*
X246864Y260909D01*
X247636D01*
X247912Y260844D01*
X249216Y258585D01*
X251085Y256716D01*
X253375Y255394D01*
X255928Y254710D01*
X258572D01*
X261125Y255394D01*
X263415Y256716D01*
X265284Y258585D01*
X265940Y259722D01*
X267210Y259381D01*
Y254710D01*
X287290D01*
Y274790D01*
D02*
G37*
G36*
X343940Y272540D02*
X321860D01*
Y250460D01*
X343940D01*
Y272540D01*
D02*
G37*
G36*
X308953D02*
X306047D01*
X303239Y271788D01*
X300721Y270334D01*
X298666Y268279D01*
X297212Y265761D01*
X296460Y262953D01*
Y260047D01*
X297212Y257239D01*
X298666Y254721D01*
X300721Y252666D01*
X303239Y251212D01*
X306047Y250460D01*
X308953D01*
X311761Y251212D01*
X314279Y252666D01*
X316334Y254721D01*
X317788Y257239D01*
X318540Y260047D01*
Y262953D01*
X317788Y265761D01*
X316334Y268279D01*
X314279Y270334D01*
X311761Y271788D01*
X308953Y272540D01*
D02*
G37*
G36*
X111710Y271060D02*
X89630D01*
Y248980D01*
X111710D01*
Y271060D01*
D02*
G37*
G36*
X76723D02*
X73817D01*
X71009Y270308D01*
X68491Y268854D01*
X66436Y266799D01*
X64982Y264281D01*
X64230Y261474D01*
Y258567D01*
X64982Y255759D01*
X66436Y253241D01*
X68491Y251186D01*
X71009Y249732D01*
X73817Y248980D01*
X76723D01*
X79531Y249732D01*
X82049Y251186D01*
X84104Y253241D01*
X85558Y255759D01*
X86310Y258567D01*
Y261474D01*
X85558Y264281D01*
X84104Y266799D01*
X82049Y268854D01*
X79531Y270308D01*
X76723Y271060D01*
D02*
G37*
G36*
X51323D02*
X48417D01*
X45609Y270308D01*
X43091Y268854D01*
X41036Y266799D01*
X39582Y264281D01*
X38830Y261474D01*
Y258567D01*
X39582Y255759D01*
X41036Y253241D01*
X43091Y251186D01*
X45609Y249732D01*
X48417Y248980D01*
X51323D01*
X54131Y249732D01*
X56649Y251186D01*
X58704Y253241D01*
X60158Y255759D01*
X60910Y258567D01*
Y261474D01*
X60158Y264281D01*
X58704Y266799D01*
X56649Y268854D01*
X54131Y270308D01*
X51323Y271060D01*
D02*
G37*
G36*
X348770Y209863D02*
Y202270D01*
X356363D01*
X355784Y204431D01*
X354614Y206459D01*
X352959Y208114D01*
X350931Y209284D01*
X348770Y209863D01*
D02*
G37*
G36*
X346230D02*
X344069Y209284D01*
X342041Y208114D01*
X340386Y206459D01*
X339216Y204431D01*
X338637Y202270D01*
X346230D01*
Y209863D01*
D02*
G37*
G36*
X356363Y199730D02*
X348770D01*
Y192137D01*
X350931Y192716D01*
X352959Y193886D01*
X354614Y195541D01*
X355784Y197569D01*
X356363Y199730D01*
D02*
G37*
G36*
X346230D02*
X338637D01*
X339216Y197569D01*
X340386Y195541D01*
X342041Y193886D01*
X344069Y192716D01*
X346230Y192137D01*
Y199730D01*
D02*
G37*
G36*
X185790Y208040D02*
X170710D01*
Y189460D01*
X185790D01*
Y193111D01*
X188913D01*
X189386Y192291D01*
X191041Y190636D01*
X193069Y189466D01*
X195330Y188860D01*
X197670D01*
X199931Y189466D01*
X201959Y190636D01*
X203614Y192291D01*
X204784Y194319D01*
X205390Y196580D01*
Y198920D01*
X204784Y201181D01*
X203614Y203209D01*
X201959Y204864D01*
X199931Y206034D01*
X197670Y206640D01*
X195330D01*
X193069Y206034D01*
X191041Y204864D01*
X189566Y203389D01*
X185790D01*
Y208040D01*
D02*
G37*
G36*
X206270Y184540D02*
X191190D01*
Y180389D01*
X185830D01*
Y184540D01*
X170750D01*
Y165960D01*
X185830D01*
Y170111D01*
X191190D01*
Y165960D01*
X193591D01*
Y163406D01*
X193361Y162250D01*
Y159250D01*
X193752Y157283D01*
X194737Y155810D01*
X194372Y154540D01*
X193210D01*
Y139460D01*
X206290D01*
Y154540D01*
X205139D01*
Y157750D01*
X204748Y159717D01*
X203647Y161364D01*
X203869Y162480D01*
Y165960D01*
X206270D01*
Y184540D01*
D02*
G37*
G36*
X185790Y160290D02*
X170710D01*
Y141710D01*
X172986D01*
Y140371D01*
X172541Y140114D01*
X170886Y138459D01*
X169716Y136431D01*
X169110Y134170D01*
Y131830D01*
X169716Y129569D01*
X170886Y127541D01*
X172541Y125886D01*
X174569Y124716D01*
X176830Y124110D01*
X179170D01*
X181431Y124716D01*
X183459Y125886D01*
X185114Y127541D01*
X186284Y129569D01*
X186890Y131830D01*
Y134170D01*
X186284Y136431D01*
X185114Y138459D01*
X183459Y140114D01*
X183264Y140226D01*
Y141710D01*
X185790D01*
Y160290D01*
D02*
G37*
G36*
X122540Y122810D02*
X102960D01*
Y118909D01*
X92540D01*
Y122810D01*
X72960D01*
Y118399D01*
X70174D01*
X68709Y119864D01*
X66681Y121034D01*
X64420Y121640D01*
X62080D01*
X59819Y121034D01*
X57791Y119864D01*
X56136Y118209D01*
X54966Y116181D01*
X54360Y113920D01*
Y111580D01*
X54966Y109319D01*
X56136Y107291D01*
X57791Y105636D01*
X59819Y104466D01*
X62080Y103860D01*
X64420D01*
X66681Y104466D01*
X68709Y105636D01*
X70364Y107291D01*
X70843Y108121D01*
X72062D01*
X72960Y107223D01*
X72960Y104730D01*
X72960Y103460D01*
Y96500D01*
X82750D01*
X92540D01*
Y103460D01*
X92540Y104270D01*
X92540Y105540D01*
Y108631D01*
X102062D01*
X102960Y107733D01*
X102960Y104730D01*
X102960Y103460D01*
Y96500D01*
X112750D01*
X122540D01*
Y103460D01*
X122540Y104270D01*
X122540Y105540D01*
Y122810D01*
D02*
G37*
G36*
X226810Y184540D02*
X211730D01*
Y165960D01*
X214131D01*
Y154540D01*
X212710D01*
Y139460D01*
X214111D01*
Y134000D01*
X214502Y132034D01*
X215320Y130810D01*
X214777Y129619D01*
X214689Y129540D01*
X202960D01*
Y114460D01*
X202960D01*
X203305Y113627D01*
X202886Y113209D01*
X201716Y111181D01*
X201110Y108920D01*
Y106580D01*
X201716Y104319D01*
X202886Y102291D01*
X204541Y100636D01*
X206569Y99466D01*
X208830Y98860D01*
X211170D01*
X213431Y99466D01*
X215459Y100636D01*
X217114Y102291D01*
X218284Y104319D01*
X218890Y106580D01*
Y108920D01*
X218770Y109367D01*
X219954Y109858D01*
X220136Y109541D01*
X221791Y107886D01*
X223819Y106716D01*
X226080Y106110D01*
X228420D01*
X230681Y106716D01*
X232709Y107886D01*
X234364Y109541D01*
X235534Y111569D01*
X236140Y113830D01*
Y116170D01*
X235534Y118431D01*
X234364Y120459D01*
X232709Y122114D01*
X232539Y122212D01*
Y125850D01*
X232148Y127817D01*
X231034Y129484D01*
X224389Y136129D01*
Y139460D01*
X225790D01*
Y154540D01*
X224409D01*
Y165960D01*
X226810D01*
Y184540D01*
D02*
G37*
G36*
X122540Y93960D02*
X114020D01*
Y86190D01*
X122540D01*
Y93960D01*
D02*
G37*
G36*
X111480D02*
X102960D01*
Y86190D01*
X111480D01*
Y93960D01*
D02*
G37*
G36*
X92540D02*
X84020D01*
Y86190D01*
X92540D01*
Y93960D01*
D02*
G37*
G36*
X81480D02*
X72960D01*
Y86190D01*
X81480D01*
Y93960D01*
D02*
G37*
G36*
X64520Y73613D02*
Y66020D01*
X72113D01*
X71534Y68181D01*
X70364Y70209D01*
X68709Y71864D01*
X66681Y73034D01*
X64520Y73613D01*
D02*
G37*
G36*
X61980D02*
X59819Y73034D01*
X57791Y71864D01*
X56136Y70209D01*
X54966Y68181D01*
X54387Y66020D01*
X61980D01*
Y73613D01*
D02*
G37*
G36*
X72113Y63480D02*
X64520D01*
Y55887D01*
X66681Y56466D01*
X68709Y57636D01*
X70364Y59291D01*
X71534Y61319D01*
X72113Y63480D01*
D02*
G37*
G36*
X61980D02*
X54387D01*
X54966Y61319D01*
X56136Y59291D01*
X57791Y57636D01*
X59819Y56466D01*
X61980Y55887D01*
Y63480D01*
D02*
G37*
G36*
X381520Y52113D02*
Y44520D01*
X389113D01*
X388534Y46681D01*
X387364Y48709D01*
X385709Y50364D01*
X383681Y51534D01*
X381520Y52113D01*
D02*
G37*
G36*
X378980D02*
X376819Y51534D01*
X374791Y50364D01*
X373136Y48709D01*
X371966Y46681D01*
X371387Y44520D01*
X378980D01*
Y52113D01*
D02*
G37*
G36*
X153920Y106140D02*
X151580D01*
X149319Y105534D01*
X147291Y104364D01*
X145636Y102709D01*
X144466Y100681D01*
X143860Y98420D01*
Y96080D01*
X144466Y93819D01*
X145636Y91791D01*
X147291Y90136D01*
X148631Y89363D01*
Y49250D01*
X148944Y47674D01*
X149837Y46337D01*
X160618Y35556D01*
X159961Y34418D01*
X158572Y34790D01*
X155928D01*
X153375Y34106D01*
X151085Y32784D01*
X149216Y30915D01*
X147912Y28656D01*
X147636Y28591D01*
X146864D01*
X146588Y28656D01*
X145284Y30915D01*
X143415Y32784D01*
X141125Y34106D01*
X138572Y34790D01*
X138520D01*
Y24750D01*
Y14710D01*
X138572D01*
X141125Y15394D01*
X143415Y16716D01*
X145284Y18585D01*
X146588Y20844D01*
X146864Y20909D01*
X147636D01*
X147912Y20844D01*
X149216Y18585D01*
X151085Y16716D01*
X153375Y15394D01*
X155928Y14710D01*
X158572D01*
X161125Y15394D01*
X163415Y16716D01*
X165284Y18585D01*
X166588Y20844D01*
X166864Y20909D01*
X167636D01*
X167912Y20844D01*
X169216Y18585D01*
X171085Y16716D01*
X173375Y15394D01*
X175928Y14710D01*
X178572D01*
X181125Y15394D01*
X183415Y16716D01*
X185284Y18585D01*
X186588Y20844D01*
X186864Y20909D01*
X187637D01*
X187912Y20844D01*
X189216Y18585D01*
X191085Y16716D01*
X193375Y15394D01*
X195928Y14710D01*
X198572D01*
X201125Y15394D01*
X203415Y16716D01*
X205284Y18585D01*
X206588Y20844D01*
X206864Y20909D01*
X207636D01*
X207912Y20844D01*
X209216Y18585D01*
X211085Y16716D01*
X213375Y15394D01*
X215928Y14710D01*
X218572D01*
X221125Y15394D01*
X223415Y16716D01*
X225284Y18585D01*
X226588Y20844D01*
X226864Y20909D01*
X227637D01*
X227912Y20844D01*
X229216Y18585D01*
X231085Y16716D01*
X233375Y15394D01*
X235928Y14710D01*
X238572D01*
X241125Y15394D01*
X243415Y16716D01*
X245284Y18585D01*
X246588Y20844D01*
X246864Y20909D01*
X247636D01*
X247912Y20844D01*
X249216Y18585D01*
X251085Y16716D01*
X253375Y15394D01*
X255928Y14710D01*
X258572D01*
X261125Y15394D01*
X263415Y16716D01*
X265284Y18585D01*
X265940Y19722D01*
X267210Y19381D01*
Y14710D01*
X287290D01*
Y34790D01*
X267210D01*
Y30119D01*
X265940Y29778D01*
X265284Y30915D01*
X263415Y32784D01*
X261125Y34106D01*
X258572Y34790D01*
X255928D01*
X253375Y34106D01*
X251085Y32784D01*
X249216Y30915D01*
X247912Y28656D01*
X247636Y28591D01*
X246864D01*
X246588Y28656D01*
X245284Y30915D01*
X243415Y32784D01*
X241125Y34106D01*
X238572Y34790D01*
X235928D01*
X233375Y34106D01*
X231085Y32784D01*
X229216Y30915D01*
X227912Y28656D01*
X227637Y28591D01*
X226864D01*
X226588Y28656D01*
X225284Y30915D01*
X223415Y32784D01*
X221369Y33965D01*
Y73750D01*
X221056Y75326D01*
X220163Y76663D01*
X202740Y94086D01*
X203140Y95580D01*
Y97920D01*
X202534Y100181D01*
X201364Y102209D01*
X199709Y103864D01*
X197681Y105034D01*
X195420Y105640D01*
X193080D01*
X190819Y105034D01*
X188791Y103864D01*
X187136Y102209D01*
X185966Y100181D01*
X185360Y97920D01*
Y95580D01*
X185966Y93319D01*
X187136Y91291D01*
X188791Y89636D01*
X190819Y88466D01*
X193080Y87860D01*
X195420D01*
X196914Y88260D01*
X213131Y72044D01*
Y33965D01*
X211085Y32784D01*
X209216Y30915D01*
X207912Y28656D01*
X207636Y28591D01*
X206864D01*
X206588Y28656D01*
X205284Y30915D01*
X203415Y32784D01*
X201125Y34106D01*
X198572Y34790D01*
X195928D01*
X193647Y34179D01*
X176619Y51206D01*
Y89113D01*
X177959Y89886D01*
X179614Y91541D01*
X180784Y93569D01*
X181390Y95830D01*
Y98170D01*
X180784Y100431D01*
X179614Y102459D01*
X177959Y104114D01*
X175931Y105284D01*
X173670Y105890D01*
X171330D01*
X169069Y105284D01*
X167041Y104114D01*
X165386Y102459D01*
X164216Y100431D01*
X163610Y98170D01*
Y95830D01*
X164216Y93569D01*
X165386Y91541D01*
X167041Y89886D01*
X168381Y89113D01*
Y49500D01*
X168694Y47924D01*
X169587Y46587D01*
X180618Y35556D01*
X179961Y34418D01*
X178572Y34790D01*
X175928D01*
X173647Y34179D01*
X156869Y50956D01*
Y89363D01*
X158209Y90136D01*
X159864Y91791D01*
X161034Y93819D01*
X161640Y96080D01*
Y98420D01*
X161034Y100681D01*
X159864Y102709D01*
X158209Y104364D01*
X156181Y105534D01*
X153920Y106140D01*
D02*
G37*
G36*
X389113Y41980D02*
X381520D01*
Y34387D01*
X383681Y34966D01*
X385709Y36136D01*
X387364Y37791D01*
X388534Y39819D01*
X389113Y41980D01*
D02*
G37*
G36*
X378980D02*
X371387D01*
X371966Y39819D01*
X373136Y37791D01*
X374791Y36136D01*
X376819Y34966D01*
X378980Y34387D01*
Y41980D01*
D02*
G37*
G36*
X335204Y40540D02*
X335020D01*
Y30770D01*
X344790D01*
Y30954D01*
X344038Y33761D01*
X342584Y36279D01*
X340529Y38334D01*
X338011Y39788D01*
X335204Y40540D01*
D02*
G37*
G36*
X332480D02*
X332297D01*
X329489Y39788D01*
X326971Y38334D01*
X324916Y36279D01*
X323462Y33761D01*
X322710Y30954D01*
Y30770D01*
X332480D01*
Y40540D01*
D02*
G37*
G36*
X135980Y34790D02*
X135928D01*
X133375Y34106D01*
X131085Y32784D01*
X129216Y30915D01*
X127894Y28625D01*
X127210Y26072D01*
Y26020D01*
X135980D01*
Y34790D01*
D02*
G37*
G36*
X344790Y28230D02*
X335020D01*
Y18460D01*
X335204D01*
X338011Y19212D01*
X340529Y20666D01*
X342584Y22721D01*
X344038Y25239D01*
X344790Y28047D01*
Y28230D01*
D02*
G37*
G36*
X332480D02*
X322710D01*
Y28047D01*
X323462Y25239D01*
X324916Y22721D01*
X326971Y20666D01*
X329489Y19212D01*
X332297Y18460D01*
X332480D01*
Y28230D01*
D02*
G37*
G36*
X319390Y40540D02*
X297310D01*
Y18460D01*
X319390D01*
Y40540D01*
D02*
G37*
G36*
X119040Y39040D02*
X96960D01*
Y16960D01*
X119040D01*
Y39040D01*
D02*
G37*
G36*
X84053D02*
X81147D01*
X78339Y38288D01*
X75821Y36834D01*
X73766Y34779D01*
X72312Y32261D01*
X71560Y29453D01*
Y26547D01*
X72312Y23739D01*
X73766Y21221D01*
X75821Y19166D01*
X78339Y17712D01*
X81147Y16960D01*
X84053D01*
X86861Y17712D01*
X89379Y19166D01*
X91434Y21221D01*
X92888Y23739D01*
X93640Y26547D01*
Y29453D01*
X92888Y32261D01*
X91434Y34779D01*
X89379Y36834D01*
X86861Y38288D01*
X84053Y39040D01*
D02*
G37*
G36*
X135980Y23480D02*
X127210D01*
Y23428D01*
X127894Y20875D01*
X129216Y18585D01*
X131085Y16716D01*
X133375Y15394D01*
X135928Y14710D01*
X135980D01*
Y23480D01*
D02*
G37*
%LPD*%
G36*
X147912Y260844D02*
X149216Y258585D01*
X151085Y256716D01*
X152571Y255858D01*
Y208040D01*
X150170D01*
Y191757D01*
X148997Y191271D01*
X142389Y197878D01*
Y256124D01*
X143415Y256716D01*
X145284Y258585D01*
X146588Y260844D01*
X146864Y260909D01*
X147636D01*
X147912Y260844D01*
D02*
G37*
D27*
X63760Y113260D02*
X82240D01*
X82750Y113770D01*
X63250Y112750D02*
X63760Y113260D01*
X82750Y113770D02*
X112750D01*
X209750Y108000D02*
Y121750D01*
X209500Y122000D02*
X209750Y121750D01*
Y108000D02*
X210000Y107750D01*
X178000Y133000D02*
X178125Y133125D01*
Y150875D02*
X178250Y151000D01*
X178125Y133125D02*
Y150875D01*
X178750Y198250D02*
X196000D01*
X178250Y198750D02*
X178750Y198250D01*
X196000D02*
X196500Y197750D01*
X219250Y134000D02*
Y147000D01*
Y134000D02*
X227400Y125850D01*
Y115150D02*
Y125850D01*
X227250Y115000D02*
X227400Y115150D01*
X219250Y147000D02*
X219270Y147020D01*
Y175250D01*
X178290D02*
X198730D01*
X199750Y147000D02*
X200000Y147250D01*
Y157750D01*
X198500Y159250D02*
X200000Y157750D01*
X198500Y159250D02*
Y162250D01*
X198730Y162480D01*
Y175250D01*
X157710Y151000D02*
X157750Y151040D01*
Y175250D01*
X137250Y195750D02*
Y264750D01*
Y195750D02*
X157750Y175250D01*
X157710Y198750D02*
Y264290D01*
D28*
X217250Y24750D02*
Y73750D01*
X194250Y96750D02*
X217250Y73750D01*
X172500Y49500D02*
Y97000D01*
Y49500D02*
X197250Y24750D01*
X152750Y49250D02*
Y97250D01*
Y49250D02*
X177250Y24750D01*
X157250Y264750D02*
X157710Y264290D01*
D29*
X333750Y29500D02*
D03*
X75270Y260020D02*
D03*
X49870D02*
D03*
X82600Y28000D02*
D03*
X307500Y261500D02*
D03*
D30*
X308350Y29500D02*
D03*
X100670Y260020D02*
D03*
X108000Y28000D02*
D03*
X332900Y261500D02*
D03*
D31*
X137250Y24750D02*
D03*
X157250D02*
D03*
X177250D02*
D03*
X257250D02*
D03*
X237250D02*
D03*
X217250D02*
D03*
X197250D02*
D03*
X137250Y264750D02*
D03*
X157250D02*
D03*
X177250D02*
D03*
X257250D02*
D03*
X237250D02*
D03*
X217250D02*
D03*
X197250D02*
D03*
D32*
X277250Y24750D02*
D03*
Y264750D02*
D03*
D33*
X347500Y201000D02*
D03*
X380250Y43250D02*
D03*
X63250Y112750D02*
D03*
Y64750D02*
D03*
X210000Y107750D02*
D03*
X178000Y133000D02*
D03*
X196500Y197750D02*
D03*
X227250Y115000D02*
D03*
X194250Y96750D02*
D03*
X172500Y97000D02*
D03*
X152750Y97250D02*
D03*
D34*
X178250Y151000D02*
D03*
X157710D02*
D03*
X157750Y175250D02*
D03*
X178290D02*
D03*
X219270D02*
D03*
X198730D02*
D03*
X178250Y198750D02*
D03*
X157710D02*
D03*
D35*
X82750Y113770D02*
D03*
Y95230D02*
D03*
X112750Y113770D02*
D03*
Y95230D02*
D03*
D36*
X209500Y122000D02*
D03*
X199750Y147000D02*
D03*
X219250D02*
D03*
M02*
