G04*
G04 #@! TF.GenerationSoftware,Altium Limited,Altium Designer,21.4.1 (30)*
G04*
G04 Layer_Color=255*
%FSLAX25Y25*%
%MOIN*%
G70*
G04*
G04 #@! TF.SameCoordinates,7338878B-8FB9-4C21-9998-F4A3E03E6E83*
G04*
G04*
G04 #@! TF.FilePolarity,Positive*
G04*
G01*
G75*
%ADD12R,0.05906X0.02992*%
%ADD31C,0.17717*%
%ADD32C,0.12992*%
%ADD33C,0.11811*%
%ADD34C,0.06693*%
%ADD35R,0.06693X0.06693*%
%ADD36R,0.05512X0.05512*%
%ADD37C,0.06496*%
%ADD38P,0.09465X4X390.0*%
%ADD39R,0.06693X0.06693*%
D12*
X8706Y-137100D02*
D03*
Y-142100D02*
D03*
Y-147100D02*
D03*
Y-152100D02*
D03*
X-19443D02*
D03*
Y-147100D02*
D03*
Y-142100D02*
D03*
Y-137100D02*
D03*
D31*
X-153543Y0D02*
D03*
X153543D02*
D03*
D32*
X-25548Y118D02*
D03*
X-84564D02*
D03*
D33*
X-25548Y-106890D02*
D03*
X-84564D02*
D03*
D34*
X-139900Y28200D02*
D03*
X-43359Y-153812D02*
D03*
X-33700Y-156400D02*
D03*
X54500Y-78900D02*
D03*
X-136100Y-60500D02*
D03*
D35*
X-149900Y28200D02*
D03*
X44500Y-78900D02*
D03*
D36*
X46000Y-50000D02*
D03*
D37*
Y-36220D02*
D03*
Y-22441D02*
D03*
Y-8661D02*
D03*
Y5118D02*
D03*
Y18898D02*
D03*
Y32677D02*
D03*
Y46457D02*
D03*
Y60236D02*
D03*
Y74016D02*
D03*
D38*
X-53018Y-151224D02*
D03*
D39*
X-136100Y-70500D02*
D03*
M02*
