G04*
G04 #@! TF.GenerationSoftware,Altium Limited,Altium Designer,21.4.1 (30)*
G04*
G04 Layer_Color=8388736*
%FSLAX25Y25*%
%MOIN*%
G70*
G04*
G04 #@! TF.SameCoordinates,38BCD2B2-9596-478E-9E65-4FDEB67B726C*
G04*
G04*
G04 #@! TF.FilePolarity,Positive*
G04*
G01*
G75*
%ADD10C,0.00394*%
%ADD13C,0.00787*%
%ADD15C,0.00197*%
%ADD90C,0.00158*%
G36*
X102199Y128040D02*
X101897Y127516D01*
X102845Y126969D01*
X102703Y126723D01*
X100889Y125888D01*
X100671Y126013D01*
X101487Y127425D01*
X101190Y127596D01*
X101332Y127842D01*
X101628Y127671D01*
X101931Y128194D01*
X102199Y128040D01*
D02*
G37*
G36*
X105914Y125798D02*
X105958Y125794D01*
X106010Y125789D01*
X106063Y125779D01*
X106120Y125768D01*
X106179Y125754D01*
X106240Y125736D01*
X106300Y125709D01*
X106364Y125681D01*
X106429Y125648D01*
X106464Y125628D01*
X106487Y125610D01*
X106515Y125594D01*
X106548Y125571D01*
X106582Y125542D01*
X106623Y125511D01*
X106705Y125442D01*
X106785Y125362D01*
X106860Y125273D01*
X106891Y125225D01*
X106921Y125175D01*
X106922Y125170D01*
X106926Y125163D01*
X106934Y125146D01*
X106939Y125127D01*
X106951Y125103D01*
X106962Y125071D01*
X106974Y125035D01*
X106985Y124995D01*
X106994Y124952D01*
X107006Y124907D01*
X107021Y124802D01*
X107025Y124686D01*
X107018Y124564D01*
X107016Y124561D01*
X107017Y124548D01*
X107011Y124530D01*
X107009Y124506D01*
X107001Y124477D01*
X106992Y124440D01*
X106985Y124398D01*
X106973Y124355D01*
X106958Y124308D01*
X106944Y124254D01*
X106903Y124147D01*
X106852Y124029D01*
X106793Y123912D01*
X106791Y123909D01*
X106784Y123896D01*
X106773Y123878D01*
X106757Y123857D01*
X106739Y123826D01*
X106717Y123796D01*
X106690Y123757D01*
X106660Y123720D01*
X106592Y123637D01*
X106512Y123549D01*
X106422Y123466D01*
X106321Y123394D01*
X106316Y123393D01*
X106308Y123385D01*
X106294Y123376D01*
X106272Y123368D01*
X106247Y123353D01*
X106217Y123337D01*
X106143Y123304D01*
X106053Y123272D01*
X105954Y123245D01*
X105845Y123224D01*
X105729Y123219D01*
X105724Y123218D01*
X105712Y123220D01*
X105696Y123221D01*
X105675Y123221D01*
X105644Y123226D01*
X105614Y123231D01*
X105575Y123237D01*
X105533Y123244D01*
X105488Y123253D01*
X105439Y123264D01*
X105340Y123296D01*
X105230Y123339D01*
X105122Y123393D01*
X105091Y123411D01*
X105071Y123427D01*
X105044Y123446D01*
X105011Y123469D01*
X104979Y123493D01*
X104943Y123526D01*
X104869Y123594D01*
X104791Y123677D01*
X104754Y123723D01*
X104723Y123771D01*
X104695Y123824D01*
X104667Y123878D01*
X104666Y123883D01*
X104662Y123890D01*
X104654Y123907D01*
X104648Y123932D01*
X104641Y123957D01*
X104632Y123991D01*
X104624Y124029D01*
X104614Y124069D01*
X104606Y124115D01*
X104603Y124168D01*
X104597Y124222D01*
X104595Y124277D01*
X104600Y124337D01*
X104602Y124399D01*
X104613Y124460D01*
X104626Y124528D01*
X104948Y124431D01*
X104947Y124427D01*
X104946Y124419D01*
X104945Y124403D01*
X104942Y124384D01*
X104938Y124361D01*
X104933Y124330D01*
X104929Y124265D01*
X104927Y124190D01*
X104932Y124112D01*
X104949Y124031D01*
X104972Y123955D01*
X104975Y123945D01*
X104986Y123921D01*
X105009Y123887D01*
X105037Y123841D01*
X105080Y123792D01*
X105129Y123738D01*
X105194Y123684D01*
X105271Y123635D01*
X105296Y123620D01*
X105314Y123614D01*
X105336Y123602D01*
X105363Y123590D01*
X105428Y123565D01*
X105501Y123540D01*
X105584Y123522D01*
X105674Y123511D01*
X105764Y123514D01*
X105767Y123512D01*
X105774Y123517D01*
X105805Y123520D01*
X105848Y123529D01*
X105905Y123546D01*
X105973Y123570D01*
X106042Y123602D01*
X106115Y123648D01*
X106188Y123702D01*
X106190Y123705D01*
X106197Y123710D01*
X106205Y123717D01*
X106218Y123731D01*
X106235Y123747D01*
X106254Y123765D01*
X106294Y123813D01*
X106343Y123869D01*
X106396Y123931D01*
X106446Y124003D01*
X106496Y124083D01*
X106498Y124086D01*
X106504Y124096D01*
X106513Y124112D01*
X106524Y124130D01*
X106533Y124154D01*
X106550Y124183D01*
X106565Y124216D01*
X106581Y124253D01*
X106616Y124334D01*
X106647Y124425D01*
X106676Y124518D01*
X106698Y124614D01*
X106700Y124617D01*
X106700Y124626D01*
X106699Y124639D01*
X106702Y124658D01*
X106705Y124707D01*
X106702Y124767D01*
X106697Y124838D01*
X106683Y124917D01*
X106660Y124993D01*
X106626Y125072D01*
X106623Y125074D01*
X106618Y125081D01*
X106612Y125092D01*
X106603Y125106D01*
X106591Y125121D01*
X106578Y125142D01*
X106545Y125186D01*
X106499Y125238D01*
X106445Y125290D01*
X106383Y125343D01*
X106312Y125388D01*
X106290Y125400D01*
X106269Y125408D01*
X106247Y125421D01*
X106223Y125430D01*
X106159Y125451D01*
X106084Y125473D01*
X106003Y125486D01*
X105914Y125491D01*
X105868Y125492D01*
X105822Y125485D01*
X105817Y125484D01*
X105812Y125483D01*
X105797Y125479D01*
X105779Y125477D01*
X105757Y125468D01*
X105731Y125458D01*
X105701Y125450D01*
X105671Y125434D01*
X105635Y125417D01*
X105595Y125398D01*
X105558Y125377D01*
X105517Y125350D01*
X105478Y125319D01*
X105437Y125284D01*
X105394Y125245D01*
X105352Y125202D01*
X105104Y125442D01*
X105105Y125445D01*
X105116Y125456D01*
X105133Y125471D01*
X105157Y125491D01*
X105183Y125514D01*
X105216Y125541D01*
X105253Y125570D01*
X105296Y125600D01*
X105391Y125663D01*
X105499Y125718D01*
X105559Y125743D01*
X105619Y125767D01*
X105679Y125783D01*
X105745Y125795D01*
X105749Y125796D01*
X105760Y125799D01*
X105779Y125796D01*
X105802Y125800D01*
X105836Y125801D01*
X105871Y125802D01*
X105914Y125798D01*
D02*
G37*
G36*
X103731Y127155D02*
X103884Y124785D01*
X104872Y126497D01*
X105149Y126336D01*
X103890Y124155D01*
X103593Y124326D01*
X103439Y126701D01*
X102449Y124987D01*
X102172Y125147D01*
X103431Y127328D01*
X103731Y127155D01*
D02*
G37*
%LPC*%
G36*
X101754Y127271D02*
X101190Y126293D01*
X102442Y126874D01*
X101754Y127271D01*
D02*
G37*
%LPD*%
D10*
X103032Y0D02*
X106969D01*
X105000Y-1969D02*
Y1969D01*
X38106Y141500D02*
X41650D01*
X39878Y139728D02*
Y143272D01*
X38016Y147300D02*
X41559D01*
X39787Y145528D02*
Y149072D01*
X38016Y153200D02*
X41559D01*
X39787Y151428D02*
Y154972D01*
X9600Y-43256D02*
Y-39319D01*
X7631Y-41287D02*
X11569D01*
X16000Y-43256D02*
Y-39319D01*
X14031Y-41287D02*
X17969D01*
X3000Y-43256D02*
Y-39319D01*
X1031Y-41287D02*
X4969D01*
X-23500Y-52756D02*
Y-48819D01*
X-25468Y-50787D02*
X-21531D01*
X-11000Y-52656D02*
Y-48719D01*
X-12969Y-50687D02*
X-9031D01*
X-38169Y-41287D02*
X-34231D01*
X-36200Y-43256D02*
Y-39319D01*
X-31769Y-41287D02*
X-27831D01*
X-29800Y-43256D02*
Y-39319D01*
X-18500Y-41300D02*
X-17000D01*
X-15500D01*
X-17000Y-42800D02*
Y-41300D01*
Y-39800D01*
X-25599Y-46000D02*
X-8300D01*
X-25599D02*
Y-36600D01*
X-8300D01*
Y-46000D02*
Y-36600D01*
X-5969Y-41287D02*
X-2031D01*
X-4000Y-43256D02*
Y-39319D01*
X-52400Y-22739D02*
Y-18802D01*
X-54369Y-20771D02*
X-50431D01*
X-35659Y-25259D02*
X19459D01*
Y29859D01*
X-35659D02*
X19459D01*
X-35659Y-25259D02*
Y29859D01*
X43000Y-129019D02*
X46937D01*
X44969Y-130988D02*
Y-127051D01*
X43591Y-115000D02*
X47134D01*
X45362Y-116772D02*
Y-113228D01*
X43591Y-121406D02*
X47134D01*
X45362Y-123177D02*
Y-119634D01*
X-59772Y-148571D02*
X-56228D01*
X-58000Y-150343D02*
Y-146799D01*
X-59772Y-141571D02*
X-56228D01*
X-58000Y-143343D02*
Y-139799D01*
X-59968Y-134000D02*
X-56031D01*
X-58000Y-135969D02*
Y-132031D01*
X-31472Y-93900D02*
X-27928D01*
X-29700Y-95672D02*
Y-92128D01*
X-19228Y-93900D02*
X-15684D01*
X-17456Y-95672D02*
Y-92128D01*
X-19531Y-87200D02*
X-15594D01*
X-17562Y-89168D02*
Y-85231D01*
X41868Y-141000D02*
X45411D01*
X43639Y-142772D02*
Y-139228D01*
X41868Y-148000D02*
X45411D01*
X43639Y-149772D02*
Y-146228D01*
X54614Y-141000D02*
X58551D01*
X56582Y-142969D02*
Y-139032D01*
X-104069Y-37700D02*
X-100132D01*
X-102100Y-39669D02*
Y-35732D01*
X32672Y-9600D02*
X36216D01*
X34444Y-11372D02*
Y-7828D01*
X32672Y-3600D02*
X36216D01*
X34444Y-5372D02*
Y-1828D01*
X-82769Y-38500D02*
X-78832D01*
X-80800Y-40468D02*
Y-36531D01*
X-79572Y-15300D02*
X-76028D01*
X-77800Y-17072D02*
Y-13528D01*
X-54372Y-7900D02*
X-50828D01*
X-52600Y-9672D02*
Y-6128D01*
X-77656Y-10872D02*
Y-7328D01*
X-79428Y-9100D02*
X-75884D01*
X-69663Y-109732D02*
Y-106189D01*
X-71435Y-107961D02*
X-67892D01*
X-69656Y-101300D02*
Y-97757D01*
X-71428Y-99528D02*
X-67884D01*
X-69656Y-92772D02*
Y-89228D01*
X-71428Y-91000D02*
X-67884D01*
X34476Y-19300D02*
X38413D01*
X36444Y-21269D02*
Y-17331D01*
X35713Y39700D02*
X39650D01*
X37681Y37731D02*
Y41669D01*
X43102Y14357D02*
Y21443D01*
X30898D02*
X43102D01*
X30898Y14357D02*
Y21443D01*
Y14357D02*
X43102D01*
X33063Y15439D02*
X40937D01*
X33063Y20361D02*
X40937D01*
X33063Y15439D02*
Y20361D01*
X40937Y15439D02*
Y20361D01*
X37000Y17900D02*
Y19475D01*
Y16325D02*
Y17900D01*
X35425D02*
X37000D01*
X38575D01*
X35525Y26514D02*
X39462D01*
X37493Y24545D02*
Y28482D01*
X-53069Y38800D02*
X-49131D01*
X-51100Y36832D02*
Y40769D01*
X-52969Y32200D02*
X-49031D01*
X-51000Y30232D02*
Y34169D01*
X-54369Y-28000D02*
X-50431D01*
X-52400Y-29969D02*
Y-26032D01*
X35713Y32900D02*
X39650D01*
X37681Y30931D02*
Y34869D01*
X82000Y531D02*
Y4469D01*
X80031Y2500D02*
X83969D01*
X77385Y132819D02*
X80795Y130851D01*
X78106Y130130D02*
X80074Y133540D01*
X-103657Y51874D02*
X-100113D01*
X-101885Y50102D02*
Y53645D01*
X-103657Y44864D02*
X-100113D01*
X-101885Y43092D02*
Y46635D01*
Y36598D02*
Y40141D01*
X-103657Y38370D02*
X-100113D01*
X-103657Y31953D02*
X-100113D01*
X-101885Y30181D02*
Y33724D01*
X-102064Y-33012D02*
Y-29075D01*
X-104032Y-31043D02*
X-100095D01*
X147917Y17841D02*
X151461D01*
X149689Y16070D02*
Y19613D01*
X147721Y30085D02*
X151658D01*
X149689Y28117D02*
Y32054D01*
X53260Y123098D02*
Y126642D01*
X51488Y124870D02*
X55032D01*
X53360Y117098D02*
Y120642D01*
X51588Y118870D02*
X55131D01*
X35116Y121600D02*
X37084D01*
X36100Y120616D02*
Y122584D01*
X71608Y112248D02*
Y115791D01*
X69837Y114020D02*
X73380D01*
X71608Y99248D02*
Y102791D01*
X69837Y101020D02*
X73380D01*
X71608Y105810D02*
Y109353D01*
X69837Y107582D02*
X73380D01*
X52276Y107779D02*
X54244D01*
X53260Y106795D02*
Y108763D01*
X158228Y30841D02*
X161772D01*
X160000Y29070D02*
Y32613D01*
D13*
X-11250Y2300D02*
X-4950D01*
X-8100Y-850D02*
Y5450D01*
X99966Y108190D02*
X109985Y125544D01*
X48089Y138141D02*
X58109Y155495D01*
X109985Y125544D01*
X48089Y138141D02*
X99966Y108190D01*
X-27390Y-21716D02*
X-24110D01*
X-23454Y-21060D01*
Y-19748D01*
X-24110Y-19092D01*
X-27390D01*
X-23454Y-15156D02*
Y-17780D01*
X-26078Y-15156D01*
X-26734D01*
X-27390Y-15812D01*
Y-17124D01*
X-26734Y-17780D01*
D15*
X86299Y-28740D02*
Y31000D01*
X123701Y-28740D02*
Y31000D01*
X86299Y-28740D02*
X123701D01*
X86299Y31000D02*
X123701D01*
X34366Y138744D02*
X45390D01*
X34366D02*
Y144256D01*
X45390D01*
Y138744D02*
Y144256D01*
X34276Y144544D02*
X45299D01*
X34276D02*
Y150056D01*
X45299D01*
Y144544D02*
Y150056D01*
X34276Y155956D02*
X45299D01*
Y150444D02*
Y155956D01*
X34276Y150444D02*
X45299D01*
X34276D02*
Y155956D01*
X12651Y-47094D02*
Y-35579D01*
X6647Y-47094D02*
X12651D01*
X6647D02*
Y-35579D01*
X12651D01*
X19051Y-47094D02*
Y-35579D01*
X13047Y-47094D02*
X19051D01*
X13047D02*
Y-35579D01*
X19051D01*
X6051Y-47094D02*
Y-35579D01*
X47Y-47094D02*
X6051D01*
X47D02*
Y-35579D01*
X6051D01*
X-29209Y-53740D02*
Y-47736D01*
Y-53740D02*
X-17693D01*
Y-47736D01*
X-29209D02*
X-17693D01*
X-5291Y-53739D02*
Y-47735D01*
X-16807D02*
X-5291D01*
X-16807Y-53739D02*
Y-47735D01*
Y-53739D02*
X-5291D01*
X-39153Y-35579D02*
X-33149D01*
X-39153Y-47094D02*
Y-35579D01*
Y-47094D02*
X-33149D01*
Y-35579D01*
X-32753D02*
X-26749D01*
X-32753Y-47094D02*
Y-35579D01*
Y-47094D02*
X-26749D01*
Y-35579D01*
X-6953D02*
X-949D01*
X-6953Y-47094D02*
Y-35579D01*
Y-47094D02*
X-949D01*
Y-35579D01*
X-46691Y-23822D02*
Y-17818D01*
X-58207D02*
X-46691D01*
X-58207Y-23822D02*
Y-17818D01*
Y-23822D02*
X-46691D01*
X-43533Y-33133D02*
X27333D01*
X-43533Y37733D02*
X27333D01*
X-43533Y-33133D02*
Y37733D01*
X27333Y-33133D02*
Y37733D01*
X39161Y-132071D02*
X50677D01*
X39161D02*
Y-126067D01*
X50677D01*
Y-132071D02*
Y-126067D01*
X39850Y-112244D02*
X50874D01*
Y-117756D02*
Y-112244D01*
X39850Y-117756D02*
X50874D01*
X39850D02*
Y-112244D01*
Y-124161D02*
X50874D01*
X39850D02*
Y-118650D01*
X50874D01*
Y-124161D02*
Y-118650D01*
X-63512Y-145815D02*
X-52488D01*
Y-151327D02*
Y-145815D01*
X-63512Y-151327D02*
X-52488D01*
X-63512D02*
Y-145815D01*
Y-144327D02*
X-52488D01*
X-63512D02*
Y-138815D01*
X-52488D01*
Y-144327D02*
Y-138815D01*
X-63709Y-130949D02*
X-52193D01*
Y-136953D02*
Y-130949D01*
X-63709Y-136953D02*
X-52193D01*
X-63709D02*
Y-130949D01*
X-35212Y-91144D02*
X-24188D01*
Y-96656D02*
Y-91144D01*
X-35212Y-96656D02*
X-24188D01*
X-35212D02*
Y-91144D01*
X-22968Y-91144D02*
X-11944D01*
Y-96656D02*
Y-91144D01*
X-22968Y-96656D02*
X-11944D01*
X-22968D02*
Y-91144D01*
X-23369Y-90251D02*
X-11854D01*
X-23369D02*
Y-84247D01*
X-11854D01*
Y-90251D02*
Y-84247D01*
X38128Y-143756D02*
X49151D01*
X38128D02*
Y-138244D01*
X49151D01*
Y-143756D02*
Y-138244D01*
X38128Y-145244D02*
X49151D01*
Y-150756D02*
Y-145244D01*
X38128Y-150756D02*
X49151D01*
X38128D02*
Y-145244D01*
X50874Y-137949D02*
X62390D01*
Y-143953D02*
Y-137949D01*
X50874Y-143953D02*
X62390D01*
X50874D02*
Y-137949D01*
X-107809Y-34649D02*
X-96293D01*
Y-40653D02*
Y-34649D01*
X-107809Y-40653D02*
X-96293D01*
X-107809D02*
Y-34649D01*
X28932Y-12356D02*
X39956D01*
X28932D02*
Y-6844D01*
X39956D01*
Y-12356D02*
Y-6844D01*
X28932Y-6356D02*
X39956D01*
X28932D02*
Y-844D01*
X39956D01*
Y-6356D02*
Y-844D01*
X-86607Y-41551D02*
X-75091D01*
X-86607D02*
Y-35547D01*
X-75091D01*
Y-41551D02*
Y-35547D01*
X-83312Y-18056D02*
X-72288D01*
X-83312D02*
Y-12544D01*
X-72288D01*
Y-18056D02*
Y-12544D01*
X-58112Y-5144D02*
X-47088D01*
Y-10656D02*
Y-5144D01*
X-58112Y-10656D02*
X-47088D01*
X-58112D02*
Y-5144D01*
X-72144Y-11856D02*
Y-6344D01*
X-83168D02*
X-72144D01*
X-83168Y-11856D02*
Y-6344D01*
Y-11856D02*
X-72144D01*
X-75175Y-110717D02*
Y-105205D01*
Y-110717D02*
X-64151D01*
Y-105205D01*
X-75175D02*
X-64151D01*
X-75168Y-102284D02*
Y-96772D01*
Y-102284D02*
X-64144D01*
Y-96772D01*
X-75168D02*
X-64144D01*
X-75168Y-93756D02*
Y-88244D01*
Y-93756D02*
X-64144D01*
Y-88244D01*
X-75168D02*
X-64144D01*
X30735Y-16249D02*
X42251D01*
Y-22253D02*
Y-16249D01*
X30735Y-22253D02*
X42251D01*
X30735D02*
Y-16249D01*
X31973Y42751D02*
X43488D01*
Y36747D02*
Y42751D01*
X31973Y36747D02*
X43488D01*
X31973D02*
Y42751D01*
X31784Y29565D02*
X43300D01*
Y23561D02*
Y29565D01*
X31784Y23561D02*
X43300D01*
X31784D02*
Y29565D01*
X-56907Y35749D02*
X-45391D01*
X-56907D02*
Y41753D01*
X-45391D01*
Y35749D02*
Y41753D01*
X-56807Y29149D02*
X-45291D01*
X-56807D02*
Y35153D01*
X-45291D01*
Y29149D02*
Y35153D01*
X-58207Y-31051D02*
X-46691D01*
X-58207D02*
Y-25047D01*
X-46691D01*
Y-31051D02*
Y-25047D01*
X31973Y35951D02*
X43488D01*
Y29947D02*
Y35951D01*
X31973Y29947D02*
X43488D01*
X31973D02*
Y35951D01*
X85051Y-3307D02*
Y8209D01*
X79047Y-3307D02*
X85051D01*
X79047D02*
Y8209D01*
X85051D01*
X-107397Y54630D02*
X-96373D01*
Y49118D02*
Y54630D01*
X-107397Y49118D02*
X-96373D01*
X-107397D02*
Y54630D01*
X-107397Y47620D02*
X-96373D01*
Y42108D02*
Y47620D01*
X-107397Y42108D02*
X-96373D01*
X-107397D02*
Y47620D01*
Y35614D02*
Y41126D01*
Y35614D02*
X-96373D01*
Y41126D01*
X-107397D02*
X-96373D01*
X-107397Y34708D02*
X-96373D01*
Y29197D02*
Y34708D01*
X-107397Y29197D02*
X-96373D01*
X-107397D02*
Y34708D01*
X-107773Y-33996D02*
Y-27992D01*
Y-33996D02*
X-96257D01*
Y-27992D01*
X-107773D02*
X-96257D01*
X144177Y20597D02*
X155201D01*
Y15085D02*
Y20597D01*
X144177Y15085D02*
X155201D01*
X144177D02*
Y20597D01*
X156382Y22085D02*
Y36975D01*
X142996Y22085D02*
X156382D01*
X142996D02*
Y36975D01*
X156382D01*
X58772Y122114D02*
Y127626D01*
X47748D02*
X58772D01*
X47748Y122114D02*
Y127626D01*
Y122114D02*
X58772D01*
X58872Y116114D02*
Y121626D01*
X47848D02*
X58872D01*
X47848Y116114D02*
Y121626D01*
Y116114D02*
X58872D01*
X28620Y116876D02*
X43580D01*
Y126324D01*
X28620Y116876D02*
Y126324D01*
X43580D01*
X77120Y111264D02*
Y116776D01*
X66096D02*
X77120D01*
X66096Y111264D02*
Y116776D01*
Y111264D02*
X77120D01*
Y98264D02*
Y103776D01*
X66096D02*
X77120D01*
X66096Y98264D02*
Y103776D01*
Y98264D02*
X77120D01*
X77120Y104826D02*
Y110338D01*
X66096D02*
X77120D01*
X66096Y104826D02*
Y110338D01*
Y104826D02*
X77120D01*
X45779Y103054D02*
X60740D01*
Y112503D01*
X45779Y103054D02*
Y112503D01*
X60740D01*
X157244Y25329D02*
X162756D01*
Y36353D01*
X157244D02*
X162756D01*
X157244Y25329D02*
Y36353D01*
X154197Y-803D02*
Y181D01*
X154689D01*
X154853Y17D01*
Y-311D01*
X154689Y-475D01*
X154197D01*
X155181Y181D02*
X155837D01*
X155509D01*
Y-803D01*
X156165Y181D02*
Y-803D01*
Y-311D01*
X156821D01*
Y181D01*
Y-803D01*
X157149D02*
X157477D01*
X157313D01*
Y181D01*
X157149Y17D01*
X-155803Y197D02*
Y1181D01*
X-155311D01*
X-155147Y1017D01*
Y689D01*
X-155311Y525D01*
X-155803D01*
X-154819Y1181D02*
X-154163D01*
X-154491D01*
Y197D01*
X-153835Y1181D02*
Y197D01*
Y689D01*
X-153179D01*
Y1181D01*
Y197D01*
X-152195D02*
X-152851D01*
X-152195Y853D01*
Y1017D01*
X-152359Y1181D01*
X-152687D01*
X-152851Y1017D01*
X-119546Y91503D02*
Y90519D01*
Y91011D01*
X-118890D01*
Y91503D01*
Y90519D01*
X-118070D02*
Y91503D01*
X-118562Y91011D01*
X-117906D01*
X108854Y-105297D02*
Y-106281D01*
Y-105789D01*
X109510D01*
Y-105297D01*
Y-106281D01*
X109838Y-105461D02*
X110002Y-105297D01*
X110330D01*
X110494Y-105461D01*
Y-105625D01*
X110330Y-105789D01*
X110166D01*
X110330D01*
X110494Y-105953D01*
Y-106117D01*
X110330Y-106281D01*
X110002D01*
X109838Y-106117D01*
X-119546Y-105297D02*
Y-106281D01*
Y-105789D01*
X-118890D01*
Y-105297D01*
Y-106281D01*
X-117906D02*
X-118562D01*
X-117906Y-105625D01*
Y-105461D01*
X-118070Y-105297D01*
X-118398D01*
X-118562Y-105461D01*
X108854Y91503D02*
Y90519D01*
Y91011D01*
X109510D01*
Y91503D01*
Y90519D01*
X109838D02*
X110166D01*
X110002D01*
Y91503D01*
X109838Y91339D01*
D90*
X44740Y143508D02*
Y142720D01*
X44347D01*
X44215Y142852D01*
Y143114D01*
X44347Y143245D01*
X44740D01*
X44478D02*
X44215Y143508D01*
X43953D02*
X43691D01*
X43822D01*
Y142720D01*
X43953Y142852D01*
X43297D02*
X43166Y142720D01*
X42904D01*
X42772Y142852D01*
Y142983D01*
X42904Y143114D01*
X43035D01*
X42904D01*
X42772Y143245D01*
Y143377D01*
X42904Y143508D01*
X43166D01*
X43297Y143377D01*
X44649Y149308D02*
Y148521D01*
X44256D01*
X44125Y148652D01*
Y148914D01*
X44256Y149046D01*
X44649D01*
X44387D02*
X44125Y149308D01*
X43862D02*
X43600D01*
X43731D01*
Y148521D01*
X43862Y148652D01*
X43207Y149177D02*
X43075Y149308D01*
X42813D01*
X42682Y149177D01*
Y148652D01*
X42813Y148521D01*
X43075D01*
X43207Y148652D01*
Y148783D01*
X43075Y148914D01*
X42682D01*
X34925Y151192D02*
Y151979D01*
X35319D01*
X35450Y151848D01*
Y151586D01*
X35319Y151455D01*
X34925D01*
X35188D02*
X35450Y151192D01*
X35712D02*
X35975D01*
X35844D01*
Y151979D01*
X35712Y151848D01*
X36368Y151192D02*
X36631D01*
X36500D01*
Y151979D01*
X36368Y151848D01*
X8051Y-36753D02*
X8183Y-36622D01*
Y-36360D01*
X8051Y-36228D01*
X7527D01*
X7395Y-36360D01*
Y-36622D01*
X7527Y-36753D01*
X7395Y-37016D02*
Y-37278D01*
Y-37147D01*
X8183D01*
X8051Y-37016D01*
Y-37672D02*
X8183Y-37803D01*
Y-38065D01*
X8051Y-38196D01*
X7920D01*
X7789Y-38065D01*
Y-37934D01*
Y-38065D01*
X7658Y-38196D01*
X7527D01*
X7395Y-38065D01*
Y-37803D01*
X7527Y-37672D01*
X14451Y-36753D02*
X14583Y-36622D01*
Y-36360D01*
X14451Y-36228D01*
X13927D01*
X13795Y-36360D01*
Y-36622D01*
X13927Y-36753D01*
X13795Y-37016D02*
Y-37278D01*
Y-37147D01*
X14583D01*
X14451Y-37016D01*
X13795Y-38065D02*
X14583D01*
X14189Y-37672D01*
Y-38196D01*
X1451Y-36753D02*
X1583Y-36622D01*
Y-36360D01*
X1451Y-36228D01*
X927D01*
X795Y-36360D01*
Y-36622D01*
X927Y-36753D01*
X795Y-37540D02*
Y-37016D01*
X1320Y-37540D01*
X1451D01*
X1583Y-37409D01*
Y-37147D01*
X1451Y-37016D01*
X795Y-38327D02*
Y-37803D01*
X1320Y-38327D01*
X1451D01*
X1583Y-38196D01*
Y-37934D01*
X1451Y-37803D01*
X-28034Y-52336D02*
X-28166Y-52205D01*
X-28428D01*
X-28559Y-52336D01*
Y-52861D01*
X-28428Y-52992D01*
X-28166D01*
X-28034Y-52861D01*
X-27247Y-52992D02*
X-27772D01*
X-27247Y-52467D01*
Y-52336D01*
X-27378Y-52205D01*
X-27641D01*
X-27772Y-52336D01*
X-26985Y-52992D02*
X-26722D01*
X-26854D01*
Y-52205D01*
X-26985Y-52336D01*
X-6466Y-49139D02*
X-6335Y-49270D01*
X-6072D01*
X-5941Y-49139D01*
Y-48614D01*
X-6072Y-48483D01*
X-6335D01*
X-6466Y-48614D01*
X-7253Y-48483D02*
X-6728D01*
X-7253Y-49008D01*
Y-49139D01*
X-7122Y-49270D01*
X-6859D01*
X-6728Y-49139D01*
X-7515D02*
X-7646Y-49270D01*
X-7909D01*
X-8040Y-49139D01*
Y-48614D01*
X-7909Y-48483D01*
X-7646D01*
X-7515Y-48614D01*
Y-49139D01*
X-37749Y-36753D02*
X-37618Y-36622D01*
Y-36360D01*
X-37749Y-36228D01*
X-38274D01*
X-38405Y-36360D01*
Y-36622D01*
X-38274Y-36753D01*
X-38405Y-37016D02*
Y-37278D01*
Y-37147D01*
X-37618D01*
X-37749Y-37016D01*
X-37618Y-38196D02*
X-37749Y-37934D01*
X-38011Y-37672D01*
X-38274D01*
X-38405Y-37803D01*
Y-38065D01*
X-38274Y-38196D01*
X-38142D01*
X-38011Y-38065D01*
Y-37672D01*
X-31349Y-36753D02*
X-31217Y-36622D01*
Y-36360D01*
X-31349Y-36228D01*
X-31873D01*
X-32005Y-36360D01*
Y-36622D01*
X-31873Y-36753D01*
X-32005Y-37016D02*
Y-37278D01*
Y-37147D01*
X-31217D01*
X-31349Y-37016D01*
X-31217Y-38196D02*
Y-37672D01*
X-31611D01*
X-31480Y-37934D01*
Y-38065D01*
X-31611Y-38196D01*
X-31873D01*
X-32005Y-38065D01*
Y-37803D01*
X-31873Y-37672D01*
X-10558Y-44645D02*
Y-43857D01*
X-11082D01*
X-11869Y-44513D02*
X-11738Y-44645D01*
X-11476D01*
X-11345Y-44513D01*
Y-44382D01*
X-11476Y-44251D01*
X-11738D01*
X-11869Y-44120D01*
Y-43989D01*
X-11738Y-43857D01*
X-11476D01*
X-11345Y-43989D01*
X-12656Y-44645D02*
X-12132D01*
Y-43857D01*
X-12656D01*
X-12132Y-44251D02*
X-12394D01*
X-5549Y-36753D02*
X-5418Y-36622D01*
Y-36360D01*
X-5549Y-36228D01*
X-6073D01*
X-6205Y-36360D01*
Y-36622D01*
X-6073Y-36753D01*
X-6205Y-37540D02*
Y-37016D01*
X-5680Y-37540D01*
X-5549D01*
X-5418Y-37409D01*
Y-37147D01*
X-5549Y-37016D01*
X-6205Y-38196D02*
X-5418D01*
X-5811Y-37803D01*
Y-38327D01*
X-47866Y-19222D02*
X-47734Y-19353D01*
X-47472D01*
X-47341Y-19222D01*
Y-18697D01*
X-47472Y-18566D01*
X-47734D01*
X-47866Y-18697D01*
X-48128Y-18566D02*
X-48390D01*
X-48259D01*
Y-19353D01*
X-48128Y-19222D01*
X-48784Y-19353D02*
X-49309D01*
Y-19222D01*
X-48784Y-18697D01*
Y-18566D01*
X49503Y-127471D02*
X49634Y-127602D01*
X49896D01*
X50028Y-127471D01*
Y-126946D01*
X49896Y-126815D01*
X49634D01*
X49503Y-126946D01*
X49240Y-127471D02*
X49109Y-127602D01*
X48847D01*
X48716Y-127471D01*
Y-127339D01*
X48847Y-127208D01*
X48978D01*
X48847D01*
X48716Y-127077D01*
Y-126946D01*
X48847Y-126815D01*
X49109D01*
X49240Y-126946D01*
X40500Y-117008D02*
Y-116221D01*
X40894D01*
X41025Y-116352D01*
Y-116614D01*
X40894Y-116745D01*
X40500D01*
X40762D02*
X41025Y-117008D01*
X41812D02*
X41287D01*
X41812Y-116483D01*
Y-116352D01*
X41681Y-116221D01*
X41418D01*
X41287Y-116352D01*
X42074D02*
X42206Y-116221D01*
X42468D01*
X42599Y-116352D01*
Y-116483D01*
X42468Y-116614D01*
X42599Y-116745D01*
Y-116877D01*
X42468Y-117008D01*
X42206D01*
X42074Y-116877D01*
Y-116745D01*
X42206Y-116614D01*
X42074Y-116483D01*
Y-116352D01*
X42206Y-116614D02*
X42468D01*
X50224Y-119398D02*
Y-120185D01*
X49831D01*
X49700Y-120054D01*
Y-119791D01*
X49831Y-119660D01*
X50224D01*
X49962D02*
X49700Y-119398D01*
X48913D02*
X49437D01*
X48913Y-119922D01*
Y-120054D01*
X49044Y-120185D01*
X49306D01*
X49437Y-120054D01*
X48125Y-119398D02*
X48650D01*
X48125Y-119922D01*
Y-120054D01*
X48256Y-120185D01*
X48519D01*
X48650Y-120054D01*
X-62862Y-150579D02*
Y-149792D01*
X-62469D01*
X-62337Y-149923D01*
Y-150185D01*
X-62469Y-150317D01*
X-62862D01*
X-62600D02*
X-62337Y-150579D01*
X-61550D02*
X-62075D01*
X-61550Y-150054D01*
Y-149923D01*
X-61681Y-149792D01*
X-61944D01*
X-62075Y-149923D01*
X-61288Y-150448D02*
X-61157Y-150579D01*
X-60894D01*
X-60763Y-150448D01*
Y-149923D01*
X-60894Y-149792D01*
X-61157D01*
X-61288Y-149923D01*
Y-150054D01*
X-61157Y-150185D01*
X-60763D01*
X-53138Y-139563D02*
Y-140350D01*
X-53531D01*
X-53663Y-140219D01*
Y-139957D01*
X-53531Y-139826D01*
X-53138D01*
X-53400D02*
X-53663Y-139563D01*
X-54450D02*
X-53925D01*
X-54450Y-140088D01*
Y-140219D01*
X-54318Y-140350D01*
X-54056D01*
X-53925Y-140219D01*
X-54712D02*
X-54843Y-140350D01*
X-55106D01*
X-55237Y-140219D01*
Y-140088D01*
X-55106Y-139957D01*
X-54975D01*
X-55106D01*
X-55237Y-139826D01*
Y-139694D01*
X-55106Y-139563D01*
X-54843D01*
X-54712Y-139694D01*
X-62534Y-135549D02*
X-62665Y-135418D01*
X-62928D01*
X-63059Y-135549D01*
Y-136074D01*
X-62928Y-136205D01*
X-62665D01*
X-62534Y-136074D01*
X-62272Y-135418D02*
X-61747D01*
Y-135549D01*
X-62272Y-136074D01*
Y-136205D01*
X-34562Y-95908D02*
Y-95121D01*
X-34169D01*
X-34038Y-95252D01*
Y-95514D01*
X-34169Y-95645D01*
X-34562D01*
X-34300D02*
X-34038Y-95908D01*
X-33775Y-95252D02*
X-33644Y-95121D01*
X-33382D01*
X-33250Y-95252D01*
Y-95383D01*
X-33382Y-95514D01*
X-33513D01*
X-33382D01*
X-33250Y-95645D01*
Y-95777D01*
X-33382Y-95908D01*
X-33644D01*
X-33775Y-95777D01*
X-32988Y-95252D02*
X-32857Y-95121D01*
X-32594D01*
X-32463Y-95252D01*
Y-95777D01*
X-32594Y-95908D01*
X-32857D01*
X-32988Y-95777D01*
Y-95252D01*
X-22318Y-95908D02*
Y-95121D01*
X-21925D01*
X-21793Y-95252D01*
Y-95514D01*
X-21925Y-95645D01*
X-22318D01*
X-22056D02*
X-21793Y-95908D01*
X-21006D02*
X-21531D01*
X-21006Y-95383D01*
Y-95252D01*
X-21137Y-95121D01*
X-21400D01*
X-21531Y-95252D01*
X-20350Y-95908D02*
Y-95121D01*
X-20744Y-95514D01*
X-20219D01*
X-13028Y-85651D02*
X-12897Y-85782D01*
X-12634D01*
X-12503Y-85651D01*
Y-85126D01*
X-12634Y-84995D01*
X-12897D01*
X-13028Y-85126D01*
X-13684Y-84995D02*
Y-85782D01*
X-13290Y-85389D01*
X-13815D01*
X48502Y-138992D02*
Y-139779D01*
X48108D01*
X47977Y-139648D01*
Y-139386D01*
X48108Y-139254D01*
X48502D01*
X48239D02*
X47977Y-138992D01*
X47190D02*
X47714D01*
X47190Y-139517D01*
Y-139648D01*
X47321Y-139779D01*
X47583D01*
X47714Y-139648D01*
X46927Y-139779D02*
X46403D01*
Y-139648D01*
X46927Y-139123D01*
Y-138992D01*
X38777Y-150008D02*
Y-149221D01*
X39171D01*
X39302Y-149352D01*
Y-149614D01*
X39171Y-149746D01*
X38777D01*
X39040D02*
X39302Y-150008D01*
X39564Y-149352D02*
X39696Y-149221D01*
X39958D01*
X40089Y-149352D01*
Y-149483D01*
X39958Y-149614D01*
X40089Y-149746D01*
Y-149877D01*
X39958Y-150008D01*
X39696D01*
X39564Y-149877D01*
Y-149746D01*
X39696Y-149614D01*
X39564Y-149483D01*
Y-149352D01*
X39696Y-149614D02*
X39958D01*
X52048Y-142549D02*
X51917Y-142418D01*
X51655D01*
X51524Y-142549D01*
Y-143073D01*
X51655Y-143205D01*
X51917D01*
X52048Y-143073D01*
X52835Y-143205D02*
X52311D01*
X52835Y-142680D01*
Y-142549D01*
X52704Y-142418D01*
X52442D01*
X52311Y-142549D01*
X-106634Y-39249D02*
X-106765Y-39117D01*
X-107028D01*
X-107159Y-39249D01*
Y-39773D01*
X-107028Y-39905D01*
X-106765D01*
X-106634Y-39773D01*
X-105847Y-39905D02*
X-106372D01*
X-105847Y-39380D01*
Y-39249D01*
X-105978Y-39117D01*
X-106241D01*
X-106372Y-39249D01*
X-105585D02*
X-105454Y-39117D01*
X-105191D01*
X-105060Y-39249D01*
Y-39380D01*
X-105191Y-39511D01*
X-105322D01*
X-105191D01*
X-105060Y-39642D01*
Y-39773D01*
X-105191Y-39905D01*
X-105454D01*
X-105585Y-39773D01*
X39306Y-7592D02*
Y-8379D01*
X38913D01*
X38781Y-8248D01*
Y-7986D01*
X38913Y-7854D01*
X39306D01*
X39044D02*
X38781Y-7592D01*
X38519Y-8379D02*
X37994D01*
Y-8248D01*
X38519Y-7723D01*
Y-7592D01*
X39306Y-1592D02*
Y-2379D01*
X38913D01*
X38781Y-2248D01*
Y-1986D01*
X38913Y-1855D01*
X39306D01*
X39044D02*
X38781Y-1592D01*
X37994Y-2379D02*
X38257Y-2248D01*
X38519Y-1986D01*
Y-1723D01*
X38388Y-1592D01*
X38126D01*
X37994Y-1723D01*
Y-1855D01*
X38126Y-1986D01*
X38519D01*
X-76266Y-36951D02*
X-76135Y-37082D01*
X-75872D01*
X-75741Y-36951D01*
Y-36426D01*
X-75872Y-36295D01*
X-76135D01*
X-76266Y-36426D01*
X-76528Y-36295D02*
X-76790D01*
X-76659D01*
Y-37082D01*
X-76528Y-36951D01*
X-72938Y-13292D02*
Y-14079D01*
X-73331D01*
X-73462Y-13948D01*
Y-13686D01*
X-73331Y-13555D01*
X-72938D01*
X-73200D02*
X-73462Y-13292D01*
X-74119D02*
Y-14079D01*
X-73725Y-13686D01*
X-74250D01*
X-57462Y-9908D02*
Y-9121D01*
X-57069D01*
X-56937Y-9252D01*
Y-9514D01*
X-57069Y-9645D01*
X-57462D01*
X-57200D02*
X-56937Y-9908D01*
X-56675D02*
X-56413D01*
X-56544D01*
Y-9121D01*
X-56675Y-9252D01*
X-55494Y-9908D02*
X-56019D01*
X-55494Y-9383D01*
Y-9252D01*
X-55625Y-9121D01*
X-55888D01*
X-56019Y-9252D01*
X-72794Y-7092D02*
Y-7879D01*
X-73187D01*
X-73318Y-7748D01*
Y-7486D01*
X-73187Y-7355D01*
X-72794D01*
X-73056D02*
X-73318Y-7092D01*
X-74106Y-7879D02*
X-73581D01*
Y-7486D01*
X-73843Y-7617D01*
X-73974D01*
X-74106Y-7486D01*
Y-7223D01*
X-73974Y-7092D01*
X-73712D01*
X-73581Y-7223D01*
X-74525Y-109968D02*
Y-109181D01*
X-74132D01*
X-74001Y-109312D01*
Y-109575D01*
X-74132Y-109706D01*
X-74525D01*
X-74263D02*
X-74001Y-109968D01*
X-73738D02*
X-73476D01*
X-73607D01*
Y-109181D01*
X-73738Y-109312D01*
X-74518Y-101536D02*
Y-100749D01*
X-74125D01*
X-73993Y-100880D01*
Y-101143D01*
X-74125Y-101274D01*
X-74518D01*
X-74256D02*
X-73993Y-101536D01*
X-73206D02*
X-73731D01*
X-73206Y-101012D01*
Y-100880D01*
X-73338Y-100749D01*
X-73600D01*
X-73731Y-100880D01*
X-74518Y-93008D02*
Y-92221D01*
X-74125D01*
X-73994Y-92352D01*
Y-92614D01*
X-74125Y-92746D01*
X-74518D01*
X-74256D02*
X-73994Y-93008D01*
X-73731Y-92352D02*
X-73600Y-92221D01*
X-73338D01*
X-73206Y-92352D01*
Y-92483D01*
X-73338Y-92614D01*
X-73469D01*
X-73338D01*
X-73206Y-92746D01*
Y-92877D01*
X-73338Y-93008D01*
X-73600D01*
X-73731Y-92877D01*
X31910Y-20849D02*
X31779Y-20718D01*
X31516D01*
X31385Y-20849D01*
Y-21373D01*
X31516Y-21505D01*
X31779D01*
X31910Y-21373D01*
X32172D02*
X32303Y-21505D01*
X32566D01*
X32697Y-21373D01*
Y-20849D01*
X32566Y-20718D01*
X32303D01*
X32172Y-20849D01*
Y-20980D01*
X32303Y-21111D01*
X32697D01*
X33147Y38151D02*
X33016Y38282D01*
X32753D01*
X32622Y38151D01*
Y37626D01*
X32753Y37495D01*
X33016D01*
X33147Y37626D01*
X33409Y37495D02*
X33672D01*
X33540D01*
Y38282D01*
X33409Y38151D01*
X34065D02*
X34196Y38282D01*
X34459D01*
X34590Y38151D01*
Y38020D01*
X34459Y37889D01*
X34590Y37758D01*
Y37626D01*
X34459Y37495D01*
X34196D01*
X34065Y37626D01*
Y37758D01*
X34196Y37889D01*
X34065Y38020D01*
Y38151D01*
X34196Y37889D02*
X34459D01*
X42137Y20322D02*
Y21109D01*
X41612D01*
X41350D02*
X41088D01*
X41219D01*
Y20322D01*
X41350Y20453D01*
X32959Y24965D02*
X32827Y25096D01*
X32565D01*
X32434Y24965D01*
Y24440D01*
X32565Y24309D01*
X32827D01*
X32959Y24440D01*
X33221Y24309D02*
X33483D01*
X33352D01*
Y25096D01*
X33221Y24965D01*
X33877Y24440D02*
X34008Y24309D01*
X34271D01*
X34402Y24440D01*
Y24965D01*
X34271Y25096D01*
X34008D01*
X33877Y24965D01*
Y24834D01*
X34008Y24703D01*
X34402D01*
X-46566Y40349D02*
X-46435Y40218D01*
X-46172D01*
X-46041Y40349D01*
Y40874D01*
X-46172Y41005D01*
X-46435D01*
X-46566Y40874D01*
X-47353Y40218D02*
X-47091Y40349D01*
X-46828Y40611D01*
Y40874D01*
X-46959Y41005D01*
X-47222D01*
X-47353Y40874D01*
Y40742D01*
X-47222Y40611D01*
X-46828D01*
X-46466Y33749D02*
X-46335Y33618D01*
X-46072D01*
X-45941Y33749D01*
Y34274D01*
X-46072Y34405D01*
X-46335D01*
X-46466Y34274D01*
X-46728Y34405D02*
X-46990D01*
X-46859D01*
Y33618D01*
X-46728Y33749D01*
X-47384Y34405D02*
X-47646D01*
X-47515D01*
Y33618D01*
X-47384Y33749D01*
X-47866Y-26451D02*
X-47735Y-26583D01*
X-47472D01*
X-47341Y-26451D01*
Y-25927D01*
X-47472Y-25795D01*
X-47735D01*
X-47866Y-25927D01*
X-48128Y-25795D02*
X-48390D01*
X-48259D01*
Y-26583D01*
X-48128Y-26451D01*
X-49309Y-25795D02*
X-48784D01*
X-49309Y-26320D01*
Y-26451D01*
X-49178Y-26583D01*
X-48915D01*
X-48784Y-26451D01*
X33147Y31351D02*
X33016Y31482D01*
X32753D01*
X32622Y31351D01*
Y30827D01*
X32753Y30695D01*
X33016D01*
X33147Y30827D01*
X33409Y30695D02*
X33672D01*
X33540D01*
Y31482D01*
X33409Y31351D01*
X34065D02*
X34196Y31482D01*
X34459D01*
X34590Y31351D01*
Y30827D01*
X34459Y30695D01*
X34196D01*
X34065Y30827D01*
Y31351D01*
X80451Y7034D02*
X80583Y7165D01*
Y7428D01*
X80451Y7559D01*
X79927D01*
X79795Y7428D01*
Y7165D01*
X79927Y7034D01*
X80583Y6247D02*
Y6772D01*
X80189D01*
X80320Y6509D01*
Y6378D01*
X80189Y6247D01*
X79927D01*
X79795Y6378D01*
Y6641D01*
X79927Y6772D01*
X-106747Y49866D02*
Y50653D01*
X-106354D01*
X-106222Y50522D01*
Y50260D01*
X-106354Y50128D01*
X-106747D01*
X-106485D02*
X-106222Y49866D01*
X-105435D02*
X-105960D01*
X-105435Y50391D01*
Y50522D01*
X-105567Y50653D01*
X-105829D01*
X-105960Y50522D01*
X-104648Y50653D02*
X-104911Y50522D01*
X-105173Y50260D01*
Y49997D01*
X-105042Y49866D01*
X-104779D01*
X-104648Y49997D01*
Y50128D01*
X-104779Y50260D01*
X-105173D01*
X-106747Y42856D02*
Y43643D01*
X-106354D01*
X-106222Y43512D01*
Y43250D01*
X-106354Y43119D01*
X-106747D01*
X-106485D02*
X-106222Y42856D01*
X-105435D02*
X-105960D01*
X-105435Y43381D01*
Y43512D01*
X-105567Y43643D01*
X-105829D01*
X-105960Y43512D01*
X-104648Y43643D02*
X-105173D01*
Y43250D01*
X-104911Y43381D01*
X-104779D01*
X-104648Y43250D01*
Y42987D01*
X-104779Y42856D01*
X-105042D01*
X-105173Y42987D01*
X-106747Y36362D02*
Y37149D01*
X-106354D01*
X-106222Y37018D01*
Y36756D01*
X-106354Y36625D01*
X-106747D01*
X-106485D02*
X-106222Y36362D01*
X-105435D02*
X-105960D01*
X-105435Y36887D01*
Y37018D01*
X-105567Y37149D01*
X-105829D01*
X-105960Y37018D01*
X-105173Y36362D02*
X-104911D01*
X-105042D01*
Y37149D01*
X-105173Y37018D01*
X-106747Y29945D02*
Y30732D01*
X-106354D01*
X-106222Y30601D01*
Y30338D01*
X-106354Y30207D01*
X-106747D01*
X-106485D02*
X-106222Y29945D01*
X-105435D02*
X-105960D01*
X-105435Y30470D01*
Y30601D01*
X-105567Y30732D01*
X-105829D01*
X-105960Y30601D01*
X-105173D02*
X-105042Y30732D01*
X-104779D01*
X-104648Y30601D01*
Y30076D01*
X-104779Y29945D01*
X-105042D01*
X-105173Y30076D01*
Y30601D01*
X-106598Y-32592D02*
X-106729Y-32461D01*
X-106992D01*
X-107123Y-32592D01*
Y-33117D01*
X-106992Y-33248D01*
X-106729D01*
X-106598Y-33117D01*
X-106336Y-32592D02*
X-106204Y-32461D01*
X-105942D01*
X-105811Y-32592D01*
Y-32723D01*
X-105942Y-32854D01*
X-105811Y-32985D01*
Y-33117D01*
X-105942Y-33248D01*
X-106204D01*
X-106336Y-33117D01*
Y-32985D01*
X-106204Y-32854D01*
X-106336Y-32723D01*
Y-32592D01*
X-106204Y-32854D02*
X-105942D01*
X144827Y15834D02*
Y16621D01*
X145220D01*
X145352Y16489D01*
Y16227D01*
X145220Y16096D01*
X144827D01*
X145089D02*
X145352Y15834D01*
X145614Y15965D02*
X145745Y15834D01*
X146008D01*
X146139Y15965D01*
Y16489D01*
X146008Y16621D01*
X145745D01*
X145614Y16489D01*
Y16358D01*
X145745Y16227D01*
X146139D01*
X146152Y28996D02*
X145627D01*
X145496Y28865D01*
Y28602D01*
X145627Y28471D01*
X146152D01*
X146283Y28602D01*
Y28865D01*
X146021Y28733D02*
X146283Y28996D01*
Y28865D02*
X146152Y28996D01*
X146283Y29258D02*
Y29521D01*
Y29389D01*
X145496D01*
X145627Y29258D01*
X58122Y126878D02*
Y126091D01*
X57728D01*
X57597Y126222D01*
Y126484D01*
X57728Y126615D01*
X58122D01*
X57860D02*
X57597Y126878D01*
X57335D02*
X57072D01*
X57204D01*
Y126091D01*
X57335Y126222D01*
X56679D02*
X56548Y126091D01*
X56285D01*
X56154Y126222D01*
Y126353D01*
X56285Y126484D01*
X56154Y126615D01*
Y126747D01*
X56285Y126878D01*
X56548D01*
X56679Y126747D01*
Y126615D01*
X56548Y126484D01*
X56679Y126353D01*
Y126222D01*
X56548Y126484D02*
X56285D01*
X58222Y120878D02*
Y120091D01*
X57828D01*
X57697Y120222D01*
Y120484D01*
X57828Y120615D01*
X58222D01*
X57960D02*
X57697Y120878D01*
X57435D02*
X57172D01*
X57304D01*
Y120091D01*
X57435Y120222D01*
X56254Y120091D02*
X56779D01*
Y120484D01*
X56516Y120353D01*
X56385D01*
X56254Y120484D01*
Y120747D01*
X56385Y120878D01*
X56648D01*
X56779Y120747D01*
X42111Y118687D02*
X42635D01*
Y119474D01*
X42111D01*
X42635Y119080D02*
X42373D01*
X41324Y118818D02*
X41455Y118687D01*
X41717D01*
X41848Y118818D01*
Y118949D01*
X41717Y119080D01*
X41455D01*
X41324Y119212D01*
Y119343D01*
X41455Y119474D01*
X41717D01*
X41848Y119343D01*
X41061Y118687D02*
Y119474D01*
X40668D01*
X40536Y119343D01*
Y118818D01*
X40668Y118687D01*
X41061D01*
X39749Y119474D02*
X40274D01*
X39749Y118949D01*
Y118818D01*
X39880Y118687D01*
X40143D01*
X40274Y118818D01*
X76470Y116027D02*
Y115240D01*
X76077D01*
X75946Y115371D01*
Y115634D01*
X76077Y115765D01*
X76470D01*
X76208D02*
X75946Y116027D01*
X75683D02*
X75421D01*
X75552D01*
Y115240D01*
X75683Y115371D01*
X75027Y115240D02*
X74502D01*
Y115371D01*
X75027Y115896D01*
Y116027D01*
X76470Y103027D02*
Y102240D01*
X76077D01*
X75946Y102371D01*
Y102634D01*
X76077Y102765D01*
X76470D01*
X76208D02*
X75946Y103027D01*
X75683D02*
X75421D01*
X75552D01*
Y102240D01*
X75683Y102371D01*
X74502Y102240D02*
X74765Y102371D01*
X75027Y102634D01*
Y102896D01*
X74896Y103027D01*
X74634D01*
X74502Y102896D01*
Y102765D01*
X74634Y102634D01*
X75027D01*
X76470Y109590D02*
Y108802D01*
X76077D01*
X75946Y108933D01*
Y109196D01*
X76077Y109327D01*
X76470D01*
X76208D02*
X75946Y109590D01*
X75683D02*
X75421D01*
X75552D01*
Y108802D01*
X75683Y108933D01*
X74634Y109590D02*
Y108802D01*
X75027Y109196D01*
X74502D01*
X59270Y104866D02*
X59795D01*
Y105653D01*
X59270D01*
X59795Y105259D02*
X59533D01*
X58483Y104997D02*
X58614Y104866D01*
X58877D01*
X59008Y104997D01*
Y105128D01*
X58877Y105259D01*
X58614D01*
X58483Y105391D01*
Y105522D01*
X58614Y105653D01*
X58877D01*
X59008Y105522D01*
X58221Y104866D02*
Y105653D01*
X57827D01*
X57696Y105522D01*
Y104997D01*
X57827Y104866D01*
X58221D01*
X57434Y104997D02*
X57302Y104866D01*
X57040D01*
X56909Y104997D01*
Y105128D01*
X57040Y105259D01*
X57171D01*
X57040D01*
X56909Y105391D01*
Y105522D01*
X57040Y105653D01*
X57302D01*
X57434Y105522D01*
X162008Y25979D02*
X161221D01*
Y26373D01*
X161352Y26504D01*
X161614D01*
X161746Y26373D01*
Y25979D01*
Y26241D02*
X162008Y26504D01*
Y26766D02*
Y27029D01*
Y26897D01*
X161221D01*
X161352Y26766D01*
Y27422D02*
X161221Y27553D01*
Y27816D01*
X161352Y27947D01*
X161877D01*
X162008Y27816D01*
Y27553D01*
X161877Y27422D01*
X161352D01*
M02*
