G04*
G04 #@! TF.GenerationSoftware,Altium Limited,Altium Designer,21.4.1 (30)*
G04*
G04 Layer_Color=16711935*
%FSLAX25Y25*%
%MOIN*%
G70*
G04*
G04 #@! TF.SameCoordinates,38BCD2B2-9596-478E-9E65-4FDEB67B726C*
G04*
G04*
G04 #@! TF.FilePolarity,Negative*
G04*
G01*
G75*
%ADD53C,0.04337*%
%ADD54C,0.03550*%
%ADD55C,0.07093*%
%ADD56R,0.07093X0.07093*%
%ADD57C,0.12211*%
%ADD58P,0.06134X4X195.0*%
%ADD59C,0.17132*%
%ADD60C,0.02800*%
%ADD61C,0.05400*%
G04:AMPARAMS|DCode=84|XSize=43.37mil|YSize=33.53mil|CornerRadius=0mil|HoleSize=0mil|Usage=FLASHONLY|Rotation=60.000|XOffset=0mil|YOffset=0mil|HoleType=Round|Shape=Rectangle|*
%AMROTATEDRECTD84*
4,1,4,0.00368,-0.02716,-0.02536,-0.01040,-0.00368,0.02716,0.02536,0.01040,0.00368,-0.02716,0.0*
%
%ADD84ROTATEDRECTD84*%

%ADD85R,0.03353X0.04337*%
%ADD86R,0.14573X0.10636*%
%ADD87R,0.12211X0.20085*%
G04:AMPARAMS|DCode=88|XSize=43.37mil|YSize=33.53mil|CornerRadius=0mil|HoleSize=0mil|Usage=FLASHONLY|Rotation=120.000|XOffset=0mil|YOffset=0mil|HoleType=Round|Shape=Rectangle|*
%AMROTATEDRECTD88*
4,1,4,0.02536,-0.01040,-0.00368,-0.02716,-0.02536,0.01040,0.00368,0.02716,0.02536,-0.01040,0.0*
%
%ADD88ROTATEDRECTD88*%

%ADD89R,0.02762X0.05321*%
D53*
X-9900Y120300D02*
D03*
X90830Y122170D02*
D03*
X89000Y129000D02*
D03*
X86500Y124670D02*
D03*
X84670Y131500D02*
D03*
X82170Y127170D02*
D03*
X80340Y134000D02*
D03*
X77840Y129670D02*
D03*
X76010Y136500D02*
D03*
X73510Y132170D02*
D03*
X71680Y139000D02*
D03*
X69180Y134670D02*
D03*
X67349Y141500D02*
D03*
X64849Y137170D02*
D03*
D54*
X-40609Y120300D02*
D03*
D55*
X-95000Y73425D02*
D03*
X-25000D02*
D03*
X65000D02*
D03*
X35000D02*
D03*
X5000D02*
D03*
X-105000D02*
D03*
X-75000D02*
D03*
X-85000D02*
D03*
X-65000D02*
D03*
X-35000D02*
D03*
X-45000D02*
D03*
X-55000D02*
D03*
X-5000D02*
D03*
X-15000D02*
D03*
X25000D02*
D03*
X15000D02*
D03*
X45000D02*
D03*
X55000D02*
D03*
X85000D02*
D03*
X75000D02*
D03*
X95000D02*
D03*
X105000D02*
D03*
X85000Y-73425D02*
D03*
X75000D02*
D03*
X95000D02*
D03*
X45000D02*
D03*
X55000D02*
D03*
X25000D02*
D03*
X15000D02*
D03*
X-5000D02*
D03*
X-15000D02*
D03*
X-35000D02*
D03*
X-45000D02*
D03*
X-55000D02*
D03*
X-75000D02*
D03*
X-85000D02*
D03*
X-65000D02*
D03*
X-105000D02*
D03*
X65000D02*
D03*
X35000D02*
D03*
X5000D02*
D03*
X-95000D02*
D03*
X-25000D02*
D03*
D56*
X105000D02*
D03*
D57*
X156000Y0D02*
D03*
X-156000D02*
D03*
D58*
X93330Y126500D02*
D03*
D59*
X-114200Y98400D02*
D03*
X114200Y-98400D02*
D03*
X-114200D02*
D03*
X114200Y98400D02*
D03*
D60*
X-146400Y60100D02*
D03*
X-70600Y-147400D02*
D03*
X78500Y-4100D02*
D03*
X-153900Y60200D02*
D03*
X-27500Y17000D02*
D03*
X13700Y-3300D02*
D03*
X36400Y-15000D02*
D03*
X-28300Y-2000D02*
D03*
X-45700Y5400D02*
D03*
X-32000Y10800D02*
D03*
X-61153Y7754D02*
D03*
X-64300Y10256D02*
D03*
X-43700Y-23700D02*
D03*
X-16100Y-20800D02*
D03*
X43200Y-1600D02*
D03*
X60400Y-11000D02*
D03*
X53000Y107600D02*
D03*
X45000Y121400D02*
D03*
X32200Y153200D02*
D03*
X42106Y-110300D02*
D03*
X52012Y-125312D02*
D03*
X15800Y-100200D02*
D03*
X-37218Y-93900D02*
D03*
X-8347Y-92128D02*
D03*
X-3906Y-87000D02*
D03*
X50028Y-136189D02*
D03*
X-75091Y-26800D02*
D03*
X45600Y39700D02*
D03*
X45705Y26514D02*
D03*
Y32900D02*
D03*
X-73900Y38800D02*
D03*
X156000Y-12544D02*
D03*
X9617Y-15597D02*
D03*
X59500Y-135000D02*
D03*
X-76651Y44864D02*
D03*
X15500Y20100D02*
D03*
Y26900D02*
D03*
X101047Y-16600D02*
D03*
X110700Y-52200D02*
D03*
X105000Y-52700D02*
D03*
X110800Y-30000D02*
D03*
X105100D02*
D03*
X-50200Y-82100D02*
D03*
X-70400Y-82300D02*
D03*
X28932Y-16834D02*
D03*
X81800Y-5501D02*
D03*
X44100Y-13448D02*
D03*
X44393Y-19300D02*
D03*
X-25000Y-160008D02*
D03*
X74Y-85232D02*
D03*
X5742Y-87000D02*
D03*
X6150Y-54434D02*
D03*
X13189Y-136335D02*
D03*
Y-159811D02*
D03*
X-15594Y-99328D02*
D03*
X-32382Y-140800D02*
D03*
X-80600Y-121019D02*
D03*
X-113996Y-52310D02*
D03*
X71400Y-144100D02*
D03*
Y-123400D02*
D03*
X101223Y9083D02*
D03*
X42000Y-6500D02*
D03*
X10168Y-21873D02*
D03*
X20500Y-36225D02*
D03*
X20296Y-42181D02*
D03*
X55100Y-39400D02*
D03*
X55000Y-23400D02*
D03*
X19500Y-29100D02*
D03*
X-25900Y-87200D02*
D03*
X-13982Y-54906D02*
D03*
X13800Y-53400D02*
D03*
X-142900Y-26300D02*
D03*
X32200Y112200D02*
D03*
Y147300D02*
D03*
X-8500Y112100D02*
D03*
X-38640Y109600D02*
D03*
X-37700Y105600D02*
D03*
X24866Y141500D02*
D03*
X-104800Y-26000D02*
D03*
X84161Y142484D02*
D03*
X-39200Y-27600D02*
D03*
X-12079Y-21064D02*
D03*
X-18500Y-9900D02*
D03*
X-24121Y-17385D02*
D03*
X-80129Y22067D02*
D03*
X-86200Y24200D02*
D03*
X-5800Y-7500D02*
D03*
X-1900Y27300D02*
D03*
X-4244Y-18546D02*
D03*
X-7549Y-17385D02*
D03*
X-23297Y23954D02*
D03*
X13880Y1226D02*
D03*
X16350Y-48587D02*
D03*
X2850Y-48737D02*
D03*
X-3950Y-48887D02*
D03*
X30518Y-36800D02*
D03*
X-20800Y-55087D02*
D03*
X-36200Y-48887D02*
D03*
X-57299Y20017D02*
D03*
X-67986Y12224D02*
D03*
X46200Y3900D02*
D03*
X-20804Y88600D02*
D03*
X-25600Y39700D02*
D03*
X64700Y114000D02*
D03*
X62000Y105220D02*
D03*
X-42100Y29100D02*
D03*
X-71825Y42200D02*
D03*
X-68600Y38785D02*
D03*
X-68200Y42400D02*
D03*
X-21500Y40650D02*
D03*
X-17900Y39900D02*
D03*
X-71800Y19900D02*
D03*
X-69100Y17200D02*
D03*
X-58297Y32149D02*
D03*
X-38565Y29812D02*
D03*
X-52900Y16500D02*
D03*
X-61300Y22300D02*
D03*
X-76651Y19348D02*
D03*
X-106800Y7500D02*
D03*
X11650Y3547D02*
D03*
X-62221Y-108000D02*
D03*
X11650Y8100D02*
D03*
X73600Y-116300D02*
D03*
X-46700Y-16300D02*
D03*
X-60100Y-21071D02*
D03*
X-60200Y-28000D02*
D03*
X21100Y124300D02*
D03*
X24900Y119100D02*
D03*
X-62221Y-99528D02*
D03*
X-62408Y-90904D02*
D03*
X-30600Y96600D02*
D03*
X145055Y37200D02*
D03*
X-65406Y-7900D02*
D03*
X-73300Y-38500D02*
D03*
X-78200Y-94700D02*
D03*
X-59900Y-7900D02*
D03*
X-69700Y-2800D02*
D03*
X-80200Y-103500D02*
D03*
X-66800Y-4400D02*
D03*
X-58432Y38785D02*
D03*
D61*
X-75700Y-126700D02*
D03*
X-44100Y-134000D02*
D03*
X22416Y30931D02*
D03*
X-83728Y-136362D02*
D03*
X32382Y-142772D02*
D03*
X-148700Y-53700D02*
D03*
X-126000Y-44264D02*
D03*
X97000Y-1100D02*
D03*
X-142000Y28000D02*
D03*
X-91700Y-37600D02*
D03*
X-93001Y-31269D02*
D03*
D84*
X-78513Y-143920D02*
D03*
X-91298Y-136538D02*
D03*
X-66702Y-123462D02*
D03*
X-79487Y-116080D02*
D03*
D85*
X32382Y-159811D02*
D03*
X17618D02*
D03*
X32382Y-136189D02*
D03*
X17618D02*
D03*
X-32382D02*
D03*
X-17618D02*
D03*
X-32382Y-159811D02*
D03*
X-17618D02*
D03*
D86*
X5848Y120300D02*
D03*
X-56357D02*
D03*
D87*
X145669Y-51181D02*
D03*
Y51181D02*
D03*
D88*
X66702Y-123462D02*
D03*
X79487Y-116080D02*
D03*
X78513Y-143920D02*
D03*
X91298Y-136538D02*
D03*
D89*
X-51094Y-99500D02*
D03*
X-58181D02*
D03*
X-51138Y-108000D02*
D03*
X-58224D02*
D03*
X-51094Y-91000D02*
D03*
X-58181D02*
D03*
M02*
