G04*
G04 #@! TF.GenerationSoftware,Altium Limited,Altium Designer,21.4.1 (30)*
G04*
G04 Layer_Color=32896*
%FSLAX25Y25*%
%MOIN*%
G70*
G04*
G04 #@! TF.SameCoordinates,38BCD2B2-9596-478E-9E65-4FDEB67B726C*
G04*
G04*
G04 #@! TF.FilePolarity,Positive*
G04*
G01*
G75*
%ADD10C,0.00394*%
%ADD13C,0.00787*%
%ADD18C,0.01000*%
G36*
X-39701Y-111961D02*
X-40673D01*
Y-109424D01*
X-41868Y-108272D01*
X-44468Y-111961D01*
X-45747D01*
X-42544Y-107616D01*
X-45609Y-104646D01*
X-44288D01*
X-40673Y-108282D01*
Y-104646D01*
X-39701D01*
Y-111961D01*
D02*
G37*
G36*
Y-103461D02*
X-40673D01*
Y-100924D01*
X-41868Y-99772D01*
X-44468Y-103461D01*
X-45747D01*
X-42544Y-99116D01*
X-45609Y-96146D01*
X-44288D01*
X-40673Y-99782D01*
Y-96146D01*
X-39701D01*
Y-103461D01*
D02*
G37*
G36*
X-39201Y-94461D02*
X-40173D01*
Y-91924D01*
X-41368Y-90772D01*
X-43968Y-94461D01*
X-45247D01*
X-42044Y-90116D01*
X-45109Y-87146D01*
X-43788D01*
X-40173Y-90782D01*
Y-87146D01*
X-39201D01*
Y-94461D01*
D02*
G37*
G36*
X-83060Y119718D02*
X-82966Y119713D01*
X-82877Y119696D01*
X-82794Y119679D01*
X-82716Y119657D01*
X-82644Y119635D01*
X-82578Y119607D01*
X-82516Y119580D01*
X-82461Y119552D01*
X-82416Y119524D01*
X-82378Y119502D01*
X-82344Y119480D01*
X-82317Y119463D01*
X-82300Y119446D01*
X-82289Y119441D01*
X-82283Y119435D01*
X-82228Y119380D01*
X-82178Y119319D01*
X-82128Y119252D01*
X-82089Y119185D01*
X-82023Y119052D01*
X-81978Y118919D01*
X-81962Y118858D01*
X-81945Y118797D01*
X-81934Y118747D01*
X-81923Y118703D01*
X-81917Y118664D01*
Y118636D01*
X-81911Y118619D01*
Y118614D01*
X-82394Y118564D01*
X-82405Y118692D01*
X-82428Y118802D01*
X-82461Y118902D01*
X-82500Y118980D01*
X-82533Y119047D01*
X-82566Y119091D01*
X-82589Y119119D01*
X-82600Y119130D01*
X-82683Y119197D01*
X-82772Y119247D01*
X-82866Y119285D01*
X-82949Y119308D01*
X-83027Y119324D01*
X-83094Y119330D01*
X-83116Y119335D01*
X-83149D01*
X-83266Y119330D01*
X-83371Y119308D01*
X-83460Y119274D01*
X-83538Y119241D01*
X-83599Y119202D01*
X-83637Y119174D01*
X-83665Y119152D01*
X-83676Y119141D01*
X-83743Y119063D01*
X-83793Y118986D01*
X-83832Y118908D01*
X-83854Y118830D01*
X-83871Y118769D01*
X-83876Y118714D01*
X-83882Y118680D01*
Y118675D01*
Y118669D01*
X-83871Y118570D01*
X-83849Y118464D01*
X-83810Y118370D01*
X-83771Y118281D01*
X-83726Y118209D01*
X-83688Y118148D01*
X-83676Y118125D01*
X-83665Y118109D01*
X-83654Y118103D01*
Y118098D01*
X-83610Y118037D01*
X-83554Y117976D01*
X-83493Y117909D01*
X-83427Y117842D01*
X-83288Y117709D01*
X-83149Y117576D01*
X-83077Y117515D01*
X-83016Y117459D01*
X-82955Y117410D01*
X-82905Y117365D01*
X-82866Y117332D01*
X-82833Y117304D01*
X-82811Y117287D01*
X-82805Y117282D01*
X-82666Y117165D01*
X-82539Y117054D01*
X-82433Y116954D01*
X-82350Y116871D01*
X-82278Y116799D01*
X-82228Y116749D01*
X-82200Y116716D01*
X-82189Y116710D01*
Y116705D01*
X-82111Y116610D01*
X-82050Y116522D01*
X-81995Y116433D01*
X-81950Y116355D01*
X-81917Y116288D01*
X-81895Y116238D01*
X-81884Y116205D01*
X-81878Y116200D01*
Y116194D01*
X-81856Y116133D01*
X-81845Y116077D01*
X-81834Y116022D01*
X-81828Y115972D01*
X-81823Y115928D01*
Y115894D01*
Y115872D01*
Y115867D01*
X-84370D01*
Y116322D01*
X-82478D01*
X-82544Y116416D01*
X-82578Y116455D01*
X-82605Y116494D01*
X-82633Y116527D01*
X-82655Y116549D01*
X-82672Y116566D01*
X-82677Y116571D01*
X-82705Y116599D01*
X-82739Y116627D01*
X-82816Y116699D01*
X-82905Y116782D01*
X-82999Y116866D01*
X-83088Y116938D01*
X-83127Y116971D01*
X-83160Y117004D01*
X-83188Y117026D01*
X-83210Y117043D01*
X-83221Y117054D01*
X-83227Y117060D01*
X-83316Y117138D01*
X-83404Y117210D01*
X-83482Y117282D01*
X-83554Y117343D01*
X-83621Y117404D01*
X-83676Y117459D01*
X-83732Y117509D01*
X-83776Y117554D01*
X-83821Y117598D01*
X-83854Y117631D01*
X-83882Y117659D01*
X-83909Y117687D01*
X-83937Y117720D01*
X-83948Y117731D01*
X-84026Y117826D01*
X-84093Y117909D01*
X-84148Y117992D01*
X-84193Y118059D01*
X-84226Y118120D01*
X-84248Y118164D01*
X-84259Y118192D01*
X-84265Y118203D01*
X-84298Y118286D01*
X-84320Y118370D01*
X-84342Y118447D01*
X-84354Y118514D01*
X-84359Y118575D01*
X-84365Y118619D01*
Y118647D01*
Y118658D01*
X-84359Y118742D01*
X-84348Y118819D01*
X-84337Y118897D01*
X-84315Y118964D01*
X-84259Y119097D01*
X-84204Y119202D01*
X-84170Y119252D01*
X-84143Y119291D01*
X-84115Y119330D01*
X-84087Y119358D01*
X-84065Y119380D01*
X-84054Y119402D01*
X-84043Y119407D01*
X-84037Y119413D01*
X-83976Y119469D01*
X-83909Y119518D01*
X-83837Y119557D01*
X-83765Y119591D01*
X-83621Y119646D01*
X-83477Y119685D01*
X-83416Y119696D01*
X-83355Y119707D01*
X-83299Y119713D01*
X-83255Y119718D01*
X-83216Y119724D01*
X-83160D01*
X-83060Y119718D01*
D02*
G37*
G36*
X-86046D02*
X-85952Y119713D01*
X-85863Y119696D01*
X-85780Y119679D01*
X-85702Y119657D01*
X-85630Y119635D01*
X-85563Y119607D01*
X-85502Y119580D01*
X-85447Y119552D01*
X-85402Y119524D01*
X-85364Y119502D01*
X-85330Y119480D01*
X-85303Y119463D01*
X-85286Y119446D01*
X-85275Y119441D01*
X-85269Y119435D01*
X-85214Y119380D01*
X-85164Y119319D01*
X-85114Y119252D01*
X-85075Y119185D01*
X-85008Y119052D01*
X-84964Y118919D01*
X-84947Y118858D01*
X-84931Y118797D01*
X-84920Y118747D01*
X-84908Y118703D01*
X-84903Y118664D01*
Y118636D01*
X-84897Y118619D01*
Y118614D01*
X-85380Y118564D01*
X-85391Y118692D01*
X-85413Y118802D01*
X-85447Y118902D01*
X-85486Y118980D01*
X-85519Y119047D01*
X-85552Y119091D01*
X-85575Y119119D01*
X-85586Y119130D01*
X-85669Y119197D01*
X-85758Y119247D01*
X-85852Y119285D01*
X-85935Y119308D01*
X-86013Y119324D01*
X-86080Y119330D01*
X-86102Y119335D01*
X-86135D01*
X-86252Y119330D01*
X-86357Y119308D01*
X-86446Y119274D01*
X-86524Y119241D01*
X-86585Y119202D01*
X-86624Y119174D01*
X-86651Y119152D01*
X-86662Y119141D01*
X-86729Y119063D01*
X-86779Y118986D01*
X-86818Y118908D01*
X-86840Y118830D01*
X-86857Y118769D01*
X-86862Y118714D01*
X-86868Y118680D01*
Y118675D01*
Y118669D01*
X-86857Y118570D01*
X-86834Y118464D01*
X-86796Y118370D01*
X-86757Y118281D01*
X-86712Y118209D01*
X-86673Y118148D01*
X-86662Y118125D01*
X-86651Y118109D01*
X-86640Y118103D01*
Y118098D01*
X-86596Y118037D01*
X-86540Y117976D01*
X-86479Y117909D01*
X-86413Y117842D01*
X-86274Y117709D01*
X-86135Y117576D01*
X-86063Y117515D01*
X-86002Y117459D01*
X-85941Y117410D01*
X-85891Y117365D01*
X-85852Y117332D01*
X-85819Y117304D01*
X-85796Y117287D01*
X-85791Y117282D01*
X-85652Y117165D01*
X-85524Y117054D01*
X-85419Y116954D01*
X-85336Y116871D01*
X-85264Y116799D01*
X-85214Y116749D01*
X-85186Y116716D01*
X-85175Y116710D01*
Y116705D01*
X-85097Y116610D01*
X-85036Y116522D01*
X-84981Y116433D01*
X-84936Y116355D01*
X-84903Y116288D01*
X-84881Y116238D01*
X-84870Y116205D01*
X-84864Y116200D01*
Y116194D01*
X-84842Y116133D01*
X-84831Y116077D01*
X-84820Y116022D01*
X-84814Y115972D01*
X-84809Y115928D01*
Y115894D01*
Y115872D01*
Y115867D01*
X-87356D01*
Y116322D01*
X-85464D01*
X-85530Y116416D01*
X-85563Y116455D01*
X-85591Y116494D01*
X-85619Y116527D01*
X-85641Y116549D01*
X-85658Y116566D01*
X-85663Y116571D01*
X-85691Y116599D01*
X-85724Y116627D01*
X-85802Y116699D01*
X-85891Y116782D01*
X-85985Y116866D01*
X-86074Y116938D01*
X-86113Y116971D01*
X-86146Y117004D01*
X-86174Y117026D01*
X-86196Y117043D01*
X-86207Y117054D01*
X-86213Y117060D01*
X-86301Y117138D01*
X-86390Y117210D01*
X-86468Y117282D01*
X-86540Y117343D01*
X-86607Y117404D01*
X-86662Y117459D01*
X-86718Y117509D01*
X-86762Y117554D01*
X-86807Y117598D01*
X-86840Y117631D01*
X-86868Y117659D01*
X-86895Y117687D01*
X-86923Y117720D01*
X-86934Y117731D01*
X-87012Y117826D01*
X-87078Y117909D01*
X-87134Y117992D01*
X-87178Y118059D01*
X-87212Y118120D01*
X-87234Y118164D01*
X-87245Y118192D01*
X-87251Y118203D01*
X-87284Y118286D01*
X-87306Y118370D01*
X-87328Y118447D01*
X-87339Y118514D01*
X-87345Y118575D01*
X-87350Y118619D01*
Y118647D01*
Y118658D01*
X-87345Y118742D01*
X-87334Y118819D01*
X-87323Y118897D01*
X-87300Y118964D01*
X-87245Y119097D01*
X-87190Y119202D01*
X-87156Y119252D01*
X-87129Y119291D01*
X-87101Y119330D01*
X-87073Y119358D01*
X-87051Y119380D01*
X-87040Y119402D01*
X-87029Y119407D01*
X-87023Y119413D01*
X-86962Y119469D01*
X-86895Y119518D01*
X-86823Y119557D01*
X-86751Y119591D01*
X-86607Y119646D01*
X-86462Y119685D01*
X-86401Y119696D01*
X-86340Y119707D01*
X-86285Y119713D01*
X-86241Y119718D01*
X-86202Y119724D01*
X-86146D01*
X-86046Y119718D01*
D02*
G37*
G36*
X-80319Y119630D02*
X-80258Y119541D01*
X-80186Y119452D01*
X-80119Y119374D01*
X-80052Y119308D01*
X-80002Y119252D01*
X-79980Y119235D01*
X-79963Y119219D01*
X-79958Y119213D01*
X-79952Y119208D01*
X-79836Y119113D01*
X-79719Y119025D01*
X-79608Y118947D01*
X-79497Y118886D01*
X-79403Y118830D01*
X-79364Y118808D01*
X-79331Y118791D01*
X-79303Y118775D01*
X-79281Y118769D01*
X-79270Y118758D01*
X-79264D01*
Y118303D01*
X-79347Y118336D01*
X-79431Y118375D01*
X-79514Y118414D01*
X-79592Y118453D01*
X-79658Y118486D01*
X-79714Y118514D01*
X-79747Y118536D01*
X-79752Y118542D01*
X-79758D01*
X-79858Y118603D01*
X-79947Y118664D01*
X-80024Y118719D01*
X-80086Y118769D01*
X-80141Y118808D01*
X-80174Y118841D01*
X-80202Y118864D01*
X-80208Y118869D01*
Y115867D01*
X-80679D01*
Y119724D01*
X-80374D01*
X-80319Y119630D01*
D02*
G37*
G36*
X-72826Y119763D02*
X-72649Y119735D01*
X-72493Y119702D01*
X-72421Y119679D01*
X-72354Y119657D01*
X-72293Y119635D01*
X-72238Y119613D01*
X-72193Y119596D01*
X-72149Y119580D01*
X-72121Y119563D01*
X-72099Y119552D01*
X-72082Y119546D01*
X-72077Y119541D01*
X-71927Y119446D01*
X-71799Y119335D01*
X-71688Y119224D01*
X-71594Y119113D01*
X-71522Y119013D01*
X-71494Y118969D01*
X-71472Y118930D01*
X-71450Y118902D01*
X-71439Y118880D01*
X-71433Y118864D01*
X-71428Y118858D01*
X-71350Y118686D01*
X-71294Y118508D01*
X-71255Y118331D01*
X-71228Y118170D01*
X-71217Y118098D01*
X-71211Y118026D01*
X-71206Y117970D01*
Y117915D01*
X-71200Y117876D01*
Y117842D01*
Y117820D01*
Y117815D01*
X-71211Y117615D01*
X-71233Y117421D01*
X-71261Y117249D01*
X-71283Y117165D01*
X-71300Y117093D01*
X-71316Y117026D01*
X-71339Y116965D01*
X-71355Y116910D01*
X-71367Y116866D01*
X-71383Y116832D01*
X-71389Y116805D01*
X-71400Y116788D01*
Y116782D01*
X-71483Y116616D01*
X-71577Y116466D01*
X-71677Y116338D01*
X-71727Y116288D01*
X-71772Y116238D01*
X-71816Y116194D01*
X-71860Y116155D01*
X-71899Y116122D01*
X-71933Y116100D01*
X-71955Y116077D01*
X-71977Y116061D01*
X-71988Y116055D01*
X-71994Y116050D01*
X-72071Y116005D01*
X-72149Y115966D01*
X-72316Y115905D01*
X-72482Y115861D01*
X-72643Y115833D01*
X-72721Y115822D01*
X-72787Y115811D01*
X-72848Y115805D01*
X-72898D01*
X-72943Y115800D01*
X-73004D01*
X-73115Y115805D01*
X-73220Y115817D01*
X-73320Y115828D01*
X-73414Y115850D01*
X-73503Y115878D01*
X-73586Y115905D01*
X-73664Y115933D01*
X-73736Y115966D01*
X-73797Y115994D01*
X-73858Y116022D01*
X-73903Y116050D01*
X-73947Y116077D01*
X-73975Y116100D01*
X-74003Y116111D01*
X-74014Y116122D01*
X-74019Y116127D01*
X-74097Y116194D01*
X-74164Y116261D01*
X-74225Y116338D01*
X-74286Y116416D01*
X-74386Y116571D01*
X-74463Y116727D01*
X-74497Y116799D01*
X-74524Y116866D01*
X-74547Y116927D01*
X-74563Y116977D01*
X-74580Y117021D01*
X-74591Y117054D01*
X-74597Y117077D01*
Y117082D01*
X-74086Y117210D01*
X-74064Y117121D01*
X-74036Y117038D01*
X-74008Y116960D01*
X-73981Y116888D01*
X-73947Y116821D01*
X-73914Y116766D01*
X-73875Y116710D01*
X-73842Y116660D01*
X-73814Y116616D01*
X-73781Y116583D01*
X-73753Y116549D01*
X-73731Y116522D01*
X-73709Y116505D01*
X-73692Y116488D01*
X-73686Y116483D01*
X-73681Y116477D01*
X-73625Y116433D01*
X-73564Y116399D01*
X-73442Y116338D01*
X-73326Y116294D01*
X-73209Y116266D01*
X-73109Y116244D01*
X-73070Y116238D01*
X-73032D01*
X-72998Y116233D01*
X-72959D01*
X-72832Y116238D01*
X-72710Y116261D01*
X-72599Y116288D01*
X-72499Y116322D01*
X-72421Y116355D01*
X-72388Y116372D01*
X-72360Y116383D01*
X-72338Y116394D01*
X-72321Y116405D01*
X-72310Y116411D01*
X-72304D01*
X-72199Y116488D01*
X-72110Y116571D01*
X-72032Y116666D01*
X-71971Y116755D01*
X-71921Y116832D01*
X-71888Y116899D01*
X-71877Y116927D01*
X-71866Y116943D01*
X-71860Y116954D01*
Y116960D01*
X-71816Y117104D01*
X-71783Y117249D01*
X-71755Y117393D01*
X-71738Y117526D01*
X-71733Y117587D01*
X-71727Y117643D01*
Y117693D01*
X-71722Y117731D01*
Y117765D01*
Y117792D01*
Y117809D01*
Y117815D01*
X-71727Y117959D01*
X-71738Y118092D01*
X-71761Y118214D01*
X-71783Y118325D01*
X-71799Y118420D01*
X-71811Y118458D01*
X-71822Y118492D01*
X-71827Y118519D01*
X-71833Y118536D01*
X-71838Y118547D01*
Y118553D01*
X-71894Y118680D01*
X-71955Y118797D01*
X-72021Y118891D01*
X-72094Y118975D01*
X-72155Y119041D01*
X-72205Y119086D01*
X-72243Y119113D01*
X-72249Y119124D01*
X-72255D01*
X-72371Y119197D01*
X-72499Y119252D01*
X-72621Y119291D01*
X-72737Y119313D01*
X-72843Y119330D01*
X-72887Y119335D01*
X-72926D01*
X-72954Y119341D01*
X-72998D01*
X-73137Y119335D01*
X-73265Y119313D01*
X-73370Y119280D01*
X-73464Y119247D01*
X-73536Y119208D01*
X-73592Y119180D01*
X-73625Y119158D01*
X-73637Y119147D01*
X-73725Y119063D01*
X-73808Y118969D01*
X-73875Y118869D01*
X-73931Y118769D01*
X-73975Y118680D01*
X-73992Y118636D01*
X-74003Y118603D01*
X-74014Y118575D01*
X-74025Y118553D01*
X-74031Y118542D01*
Y118536D01*
X-74530Y118653D01*
X-74497Y118753D01*
X-74463Y118841D01*
X-74419Y118925D01*
X-74380Y119008D01*
X-74336Y119080D01*
X-74286Y119147D01*
X-74241Y119213D01*
X-74197Y119269D01*
X-74153Y119313D01*
X-74114Y119358D01*
X-74075Y119396D01*
X-74047Y119424D01*
X-74019Y119452D01*
X-73997Y119469D01*
X-73986Y119474D01*
X-73981Y119480D01*
X-73903Y119530D01*
X-73825Y119580D01*
X-73747Y119618D01*
X-73664Y119652D01*
X-73498Y119702D01*
X-73348Y119735D01*
X-73276Y119752D01*
X-73215Y119757D01*
X-73154Y119763D01*
X-73104Y119768D01*
X-73065Y119774D01*
X-73009D01*
X-72826Y119763D01*
D02*
G37*
G36*
X-75229Y115867D02*
X-75740D01*
Y117570D01*
X-76395D01*
X-76456Y117565D01*
X-76500D01*
X-76539Y117559D01*
X-76567Y117554D01*
X-76589D01*
X-76600Y117548D01*
X-76606D01*
X-76695Y117520D01*
X-76733Y117504D01*
X-76767Y117487D01*
X-76800Y117471D01*
X-76822Y117459D01*
X-76833Y117454D01*
X-76839Y117448D01*
X-76883Y117415D01*
X-76928Y117376D01*
X-77011Y117293D01*
X-77050Y117254D01*
X-77077Y117221D01*
X-77094Y117199D01*
X-77100Y117193D01*
X-77155Y117115D01*
X-77216Y117032D01*
X-77277Y116943D01*
X-77338Y116860D01*
X-77388Y116782D01*
X-77427Y116721D01*
X-77444Y116699D01*
X-77455Y116682D01*
X-77466Y116671D01*
Y116666D01*
X-77971Y115867D01*
X-78604D01*
X-77943Y116910D01*
X-77865Y117021D01*
X-77793Y117121D01*
X-77721Y117204D01*
X-77660Y117282D01*
X-77605Y117337D01*
X-77560Y117382D01*
X-77533Y117410D01*
X-77522Y117421D01*
X-77477Y117454D01*
X-77427Y117493D01*
X-77327Y117554D01*
X-77283Y117576D01*
X-77249Y117598D01*
X-77227Y117609D01*
X-77216Y117615D01*
X-77316Y117631D01*
X-77411Y117648D01*
X-77494Y117676D01*
X-77577Y117698D01*
X-77649Y117726D01*
X-77716Y117759D01*
X-77777Y117787D01*
X-77832Y117815D01*
X-77877Y117848D01*
X-77921Y117876D01*
X-77954Y117898D01*
X-77982Y117920D01*
X-78004Y117937D01*
X-78021Y117953D01*
X-78026Y117959D01*
X-78032Y117964D01*
X-78076Y118020D01*
X-78121Y118076D01*
X-78188Y118192D01*
X-78232Y118309D01*
X-78265Y118420D01*
X-78287Y118514D01*
X-78293Y118553D01*
Y118592D01*
X-78298Y118619D01*
Y118642D01*
Y118653D01*
Y118658D01*
X-78293Y118775D01*
X-78276Y118880D01*
X-78249Y118980D01*
X-78221Y119063D01*
X-78188Y119135D01*
X-78165Y119191D01*
X-78143Y119224D01*
X-78137Y119230D01*
Y119235D01*
X-78071Y119324D01*
X-78004Y119402D01*
X-77932Y119469D01*
X-77865Y119518D01*
X-77804Y119557D01*
X-77754Y119580D01*
X-77721Y119596D01*
X-77716Y119602D01*
X-77710D01*
X-77660Y119618D01*
X-77599Y119635D01*
X-77477Y119663D01*
X-77344Y119679D01*
X-77222Y119696D01*
X-77105Y119702D01*
X-77055D01*
X-77011Y119707D01*
X-75229D01*
Y115867D01*
D02*
G37*
G36*
X-88965Y119713D02*
X-88827Y119691D01*
X-88710Y119652D01*
X-88610Y119613D01*
X-88527Y119569D01*
X-88494Y119552D01*
X-88466Y119530D01*
X-88444Y119518D01*
X-88427Y119507D01*
X-88422Y119496D01*
X-88416D01*
X-88316Y119407D01*
X-88233Y119302D01*
X-88161Y119197D01*
X-88105Y119097D01*
X-88061Y119002D01*
X-88039Y118964D01*
X-88028Y118925D01*
X-88016Y118897D01*
X-88005Y118875D01*
X-88000Y118864D01*
Y118858D01*
X-87978Y118775D01*
X-87955Y118692D01*
X-87922Y118508D01*
X-87894Y118325D01*
X-87878Y118153D01*
X-87872Y118070D01*
X-87867Y117998D01*
Y117931D01*
X-87861Y117870D01*
Y117826D01*
Y117787D01*
Y117765D01*
Y117759D01*
X-87867Y117565D01*
X-87878Y117382D01*
X-87894Y117215D01*
X-87922Y117060D01*
X-87950Y116916D01*
X-87983Y116788D01*
X-88016Y116671D01*
X-88050Y116571D01*
X-88083Y116483D01*
X-88122Y116405D01*
X-88150Y116338D01*
X-88177Y116288D01*
X-88205Y116244D01*
X-88222Y116216D01*
X-88233Y116200D01*
X-88239Y116194D01*
X-88300Y116127D01*
X-88366Y116066D01*
X-88438Y116011D01*
X-88511Y115966D01*
X-88583Y115928D01*
X-88655Y115894D01*
X-88727Y115872D01*
X-88793Y115850D01*
X-88860Y115833D01*
X-88921Y115822D01*
X-88977Y115811D01*
X-89021Y115805D01*
X-89060Y115800D01*
X-89115D01*
X-89265Y115811D01*
X-89404Y115833D01*
X-89521Y115872D01*
X-89621Y115911D01*
X-89704Y115950D01*
X-89731Y115972D01*
X-89759Y115989D01*
X-89781Y116000D01*
X-89798Y116011D01*
X-89804Y116022D01*
X-89809D01*
X-89909Y116116D01*
X-89992Y116216D01*
X-90064Y116327D01*
X-90120Y116427D01*
X-90164Y116522D01*
X-90187Y116560D01*
X-90198Y116599D01*
X-90209Y116627D01*
X-90220Y116649D01*
X-90225Y116660D01*
Y116666D01*
X-90253Y116749D01*
X-90275Y116832D01*
X-90309Y117010D01*
X-90336Y117193D01*
X-90353Y117371D01*
X-90359Y117448D01*
X-90364Y117520D01*
Y117587D01*
X-90370Y117648D01*
Y117693D01*
Y117731D01*
Y117754D01*
Y117759D01*
Y117865D01*
X-90364Y117964D01*
Y118053D01*
X-90359Y118142D01*
X-90347Y118220D01*
X-90342Y118298D01*
X-90336Y118364D01*
X-90325Y118425D01*
X-90320Y118481D01*
X-90309Y118531D01*
X-90303Y118570D01*
X-90298Y118603D01*
X-90292Y118631D01*
X-90286Y118647D01*
X-90281Y118658D01*
Y118664D01*
X-90248Y118786D01*
X-90209Y118897D01*
X-90164Y118991D01*
X-90131Y119074D01*
X-90092Y119147D01*
X-90070Y119197D01*
X-90048Y119224D01*
X-90042Y119235D01*
X-89981Y119319D01*
X-89920Y119391D01*
X-89854Y119452D01*
X-89793Y119507D01*
X-89737Y119546D01*
X-89693Y119574D01*
X-89665Y119591D01*
X-89659Y119596D01*
X-89654D01*
X-89565Y119641D01*
X-89471Y119668D01*
X-89382Y119691D01*
X-89299Y119707D01*
X-89226Y119718D01*
X-89165Y119724D01*
X-89115D01*
X-88965Y119713D01*
D02*
G37*
G36*
X-105872Y-121029D02*
X-105650Y-121056D01*
X-105428Y-121098D01*
X-105220Y-121140D01*
X-105040Y-121209D01*
X-104859Y-121279D01*
X-104707Y-121362D01*
X-104554Y-121431D01*
X-104429Y-121515D01*
X-104304Y-121598D01*
X-104207Y-121667D01*
X-104137Y-121723D01*
X-104068Y-121778D01*
X-104026Y-121820D01*
X-103999Y-121848D01*
X-103985Y-121862D01*
X-103846Y-122028D01*
X-103721Y-122195D01*
X-103624Y-122375D01*
X-103527Y-122569D01*
X-103457Y-122750D01*
X-103388Y-122944D01*
X-103291Y-123291D01*
X-103263Y-123458D01*
X-103235Y-123610D01*
X-103221Y-123749D01*
X-103208Y-123860D01*
X-103194Y-123957D01*
Y-124041D01*
Y-124082D01*
Y-124096D01*
X-103208Y-124318D01*
X-103221Y-124540D01*
X-103305Y-124943D01*
X-103430Y-125290D01*
X-103499Y-125443D01*
X-103568Y-125581D01*
X-103624Y-125706D01*
X-103693Y-125817D01*
X-103763Y-125901D01*
X-103818Y-125984D01*
X-103860Y-126039D01*
X-103902Y-126081D01*
X-103915Y-126109D01*
X-103929Y-126123D01*
X-104068Y-126261D01*
X-104221Y-126373D01*
X-104387Y-126484D01*
X-104540Y-126567D01*
X-104873Y-126706D01*
X-105178Y-126803D01*
X-105456Y-126858D01*
X-105567Y-126872D01*
X-105678Y-126886D01*
X-105761Y-126900D01*
X-105872D01*
X-106192Y-126886D01*
X-106483Y-126845D01*
X-106747Y-126775D01*
X-106983Y-126706D01*
X-107163Y-126650D01*
X-107302Y-126581D01*
X-107344Y-126553D01*
X-107385Y-126539D01*
X-107399Y-126525D01*
X-107413D01*
Y-125665D01*
X-107163Y-125831D01*
X-106927Y-125942D01*
X-106691Y-126026D01*
X-106469Y-126095D01*
X-106289Y-126123D01*
X-106150Y-126137D01*
X-106095Y-126151D01*
X-106025D01*
X-105720Y-126123D01*
X-105442Y-126067D01*
X-105192Y-125970D01*
X-104998Y-125859D01*
X-104831Y-125762D01*
X-104720Y-125665D01*
X-104651Y-125609D01*
X-104623Y-125581D01*
X-104457Y-125345D01*
X-104332Y-125096D01*
X-104235Y-124832D01*
X-104179Y-124582D01*
X-104137Y-124360D01*
X-104124Y-124263D01*
Y-124179D01*
X-104110Y-124110D01*
Y-124055D01*
Y-124027D01*
Y-124013D01*
X-104137Y-123652D01*
X-104193Y-123333D01*
X-104290Y-123069D01*
X-104387Y-122833D01*
X-104484Y-122653D01*
X-104582Y-122514D01*
X-104637Y-122431D01*
X-104665Y-122403D01*
X-104776Y-122292D01*
X-104887Y-122195D01*
X-105123Y-122042D01*
X-105359Y-121931D01*
X-105581Y-121862D01*
X-105775Y-121806D01*
X-105942Y-121792D01*
X-105997Y-121778D01*
X-106081D01*
X-106344Y-121792D01*
X-106594Y-121848D01*
X-106830Y-121917D01*
X-107025Y-121986D01*
X-107191Y-122070D01*
X-107316Y-122139D01*
X-107399Y-122195D01*
X-107427Y-122209D01*
Y-121292D01*
X-107205Y-121195D01*
X-106983Y-121126D01*
X-106761Y-121084D01*
X-106566Y-121043D01*
X-106386Y-121029D01*
X-106247Y-121015D01*
X-106122D01*
X-105872Y-121029D01*
D02*
G37*
G36*
X-93200Y-126775D02*
X-97378D01*
Y-125942D01*
X-94130D01*
Y-123180D01*
X-96975D01*
Y-122347D01*
X-94130D01*
Y-119724D01*
X-97211D01*
Y-118891D01*
X-93200D01*
Y-126775D01*
D02*
G37*
G36*
X-100307Y-121029D02*
X-100168Y-121043D01*
X-100057Y-121070D01*
X-99946Y-121084D01*
X-99876Y-121112D01*
X-99821Y-121126D01*
X-99807D01*
X-99529Y-121209D01*
X-99418Y-121265D01*
X-99321Y-121320D01*
X-99224Y-121362D01*
X-99168Y-121404D01*
X-99127Y-121417D01*
X-99113Y-121431D01*
X-98919Y-121598D01*
X-98766Y-121764D01*
X-98710Y-121834D01*
X-98669Y-121889D01*
X-98655Y-121931D01*
X-98641Y-121945D01*
X-98585Y-122056D01*
X-98544Y-122181D01*
X-98502Y-122292D01*
X-98488Y-122403D01*
X-98474Y-122500D01*
X-98461Y-122569D01*
Y-122625D01*
Y-122639D01*
X-98474Y-122875D01*
X-98488Y-122972D01*
X-98502Y-123055D01*
X-98516Y-123125D01*
X-98530Y-123180D01*
X-98544Y-123208D01*
Y-123222D01*
X-98627Y-123388D01*
X-98724Y-123527D01*
X-98766Y-123583D01*
X-98808Y-123624D01*
X-98821Y-123638D01*
X-98835Y-123652D01*
X-98988Y-123777D01*
X-99141Y-123888D01*
X-99210Y-123930D01*
X-99266Y-123957D01*
X-99293Y-123971D01*
X-99307Y-123985D01*
X-99529Y-124096D01*
X-99751Y-124193D01*
X-99835Y-124221D01*
X-99904Y-124249D01*
X-99960Y-124277D01*
X-99973D01*
X-100168Y-124360D01*
X-100320Y-124416D01*
X-100390Y-124443D01*
X-100432Y-124471D01*
X-100459Y-124485D01*
X-100473D01*
X-100640Y-124554D01*
X-100765Y-124638D01*
X-100848Y-124679D01*
X-100862Y-124707D01*
X-100876D01*
X-101001Y-124790D01*
X-101084Y-124887D01*
X-101139Y-124957D01*
X-101153Y-124971D01*
Y-124985D01*
X-101209Y-125110D01*
X-101236Y-125234D01*
X-101250Y-125276D01*
Y-125318D01*
Y-125345D01*
Y-125359D01*
X-101236Y-125498D01*
X-101195Y-125623D01*
X-101139Y-125720D01*
X-101070Y-125817D01*
X-100973Y-125887D01*
X-100876Y-125956D01*
X-100667Y-126053D01*
X-100445Y-126109D01*
X-100251Y-126137D01*
X-100182Y-126151D01*
X-100071D01*
X-99751Y-126123D01*
X-99446Y-126067D01*
X-99168Y-125984D01*
X-98932Y-125873D01*
X-98724Y-125776D01*
X-98572Y-125692D01*
X-98516Y-125665D01*
X-98474Y-125637D01*
X-98461Y-125609D01*
X-98447D01*
Y-126581D01*
X-98697Y-126692D01*
X-98946Y-126761D01*
X-99196Y-126817D01*
X-99432Y-126858D01*
X-99640Y-126886D01*
X-99807Y-126900D01*
X-99946D01*
X-100265Y-126886D01*
X-100404Y-126872D01*
X-100542Y-126845D01*
X-100640Y-126831D01*
X-100723Y-126817D01*
X-100778Y-126803D01*
X-100792D01*
X-100945Y-126761D01*
X-101070Y-126720D01*
X-101195Y-126678D01*
X-101292Y-126622D01*
X-101389Y-126581D01*
X-101445Y-126539D01*
X-101486Y-126525D01*
X-101500Y-126511D01*
X-101708Y-126345D01*
X-101792Y-126261D01*
X-101861Y-126178D01*
X-101917Y-126109D01*
X-101958Y-126053D01*
X-101972Y-126012D01*
X-101986Y-125998D01*
X-102055Y-125873D01*
X-102097Y-125762D01*
X-102139Y-125637D01*
X-102153Y-125526D01*
X-102166Y-125429D01*
X-102180Y-125345D01*
Y-125290D01*
Y-125276D01*
X-102166Y-125040D01*
X-102153Y-124943D01*
X-102125Y-124860D01*
X-102111Y-124790D01*
X-102083Y-124735D01*
X-102069Y-124707D01*
Y-124693D01*
X-101972Y-124513D01*
X-101875Y-124374D01*
X-101820Y-124318D01*
X-101792Y-124277D01*
X-101764Y-124263D01*
X-101750Y-124249D01*
X-101584Y-124110D01*
X-101417Y-123999D01*
X-101348Y-123957D01*
X-101292Y-123930D01*
X-101250Y-123902D01*
X-101236D01*
X-101014Y-123791D01*
X-100792Y-123694D01*
X-100709Y-123666D01*
X-100640Y-123638D01*
X-100584Y-123610D01*
X-100570D01*
X-100376Y-123527D01*
X-100223Y-123472D01*
X-100154Y-123444D01*
X-100112Y-123430D01*
X-100084Y-123416D01*
X-100071D01*
X-99918Y-123347D01*
X-99807Y-123277D01*
X-99724Y-123222D01*
X-99710Y-123208D01*
X-99696D01*
X-99599Y-123111D01*
X-99515Y-123028D01*
X-99474Y-122972D01*
X-99460Y-122944D01*
X-99418Y-122819D01*
X-99391Y-122694D01*
X-99377Y-122653D01*
Y-122611D01*
Y-122583D01*
Y-122569D01*
X-99391Y-122444D01*
X-99418Y-122347D01*
X-99446Y-122278D01*
X-99460Y-122250D01*
X-99529Y-122153D01*
X-99599Y-122070D01*
X-99654Y-122014D01*
X-99682Y-122000D01*
X-99807Y-121931D01*
X-99918Y-121875D01*
X-100001Y-121848D01*
X-100015Y-121834D01*
X-100029D01*
X-100196Y-121806D01*
X-100334Y-121778D01*
X-100487D01*
X-100778Y-121792D01*
X-101056Y-121834D01*
X-101306Y-121903D01*
X-101514Y-121973D01*
X-101681Y-122056D01*
X-101806Y-122111D01*
X-101889Y-122167D01*
X-101917Y-122181D01*
Y-121265D01*
X-101695Y-121181D01*
X-101472Y-121126D01*
X-101250Y-121070D01*
X-101056Y-121043D01*
X-100876Y-121029D01*
X-100737Y-121015D01*
X-100612D01*
X-100307Y-121029D01*
D02*
G37*
G36*
X28973Y-123246D02*
X29000Y-123274D01*
X29056Y-123329D01*
X29139Y-123427D01*
X29236Y-123538D01*
X29333Y-123690D01*
X29417Y-123843D01*
X29472Y-124010D01*
X29500Y-124176D01*
Y-124232D01*
X29486Y-124301D01*
X29472Y-124384D01*
X29431Y-124481D01*
X29389Y-124592D01*
X29320Y-124717D01*
X29236Y-124828D01*
X29222Y-124842D01*
X29195Y-124884D01*
X29139Y-124940D01*
X29070Y-124995D01*
X28973Y-125064D01*
X28861Y-125120D01*
X28723Y-125162D01*
X28570Y-125175D01*
X28556D01*
X28501D01*
X28417Y-125162D01*
X28320Y-125148D01*
X28195Y-125106D01*
X28084Y-125064D01*
X27973Y-124995D01*
X27862Y-124912D01*
X26807Y-123996D01*
Y-129339D01*
X26793Y-129409D01*
X26779Y-129506D01*
X26738Y-129603D01*
X26696Y-129714D01*
X26627Y-129825D01*
X26544Y-129936D01*
X26530Y-129950D01*
X26488Y-129978D01*
X26419Y-130033D01*
X26335Y-130089D01*
X26224Y-130131D01*
X26099Y-130172D01*
X25947Y-130200D01*
X25794D01*
X25780D01*
X25738Y-130186D01*
X25669Y-130172D01*
X25586Y-130145D01*
X25405Y-130075D01*
X25308Y-130006D01*
X25225Y-129936D01*
X25211Y-129922D01*
X25183Y-129895D01*
X25142Y-129825D01*
X25086Y-129756D01*
X25031Y-129659D01*
X24989Y-129548D01*
X24947Y-129409D01*
X24920Y-129270D01*
Y-123996D01*
X23948Y-124870D01*
X23934Y-124884D01*
X23879Y-124912D01*
X23809Y-124967D01*
X23712Y-125023D01*
X23587Y-125078D01*
X23462Y-125134D01*
X23337Y-125162D01*
X23199Y-125175D01*
X23185D01*
X23143Y-125162D01*
X23074Y-125148D01*
X22990Y-125120D01*
X22893Y-125078D01*
X22782Y-125009D01*
X22657Y-124926D01*
X22546Y-124828D01*
X22532Y-124815D01*
X22518Y-124787D01*
X22491Y-124731D01*
X22449Y-124662D01*
X22407Y-124579D01*
X22352Y-124481D01*
X22282Y-124259D01*
Y-124176D01*
X22296Y-124065D01*
X22310Y-123940D01*
X22366Y-123787D01*
X22435Y-123621D01*
X22560Y-123454D01*
X22713Y-123288D01*
X25891Y-120470D01*
X28973Y-123246D01*
D02*
G37*
G36*
X-28626Y-124452D02*
Y-124757D01*
X-28598Y-125035D01*
X-28542Y-125285D01*
X-28514Y-125507D01*
X-28459Y-125674D01*
X-28403Y-125813D01*
X-28376Y-125896D01*
Y-125924D01*
X-28181Y-126340D01*
X-28070Y-126507D01*
X-27987Y-126646D01*
X-27876Y-126757D01*
X-27820Y-126840D01*
X-27765Y-126896D01*
X-27737Y-126923D01*
X-27404Y-127146D01*
X-27043Y-127312D01*
X-26904Y-127368D01*
X-26793Y-127423D01*
X-26709Y-127451D01*
X-26682D01*
X-26182Y-127534D01*
X-25960Y-127590D01*
X-25710D01*
X-25515Y-127618D01*
X-22572D01*
X-23544Y-126896D01*
Y-125452D01*
X-20600Y-128256D01*
Y-128423D01*
X-23544Y-131200D01*
Y-129784D01*
X-22544Y-129034D01*
X-25238D01*
X-25932Y-129006D01*
X-26237Y-128978D01*
X-26487Y-128923D01*
X-26709Y-128895D01*
X-26904Y-128867D01*
X-27015Y-128840D01*
X-27043D01*
X-27348Y-128756D01*
X-27654Y-128617D01*
X-27904Y-128506D01*
X-28126Y-128367D01*
X-28320Y-128256D01*
X-28459Y-128173D01*
X-28542Y-128118D01*
X-28570Y-128090D01*
X-28820Y-127868D01*
X-29014Y-127645D01*
X-29209Y-127395D01*
X-29348Y-127173D01*
X-29459Y-126979D01*
X-29542Y-126812D01*
X-29597Y-126701D01*
X-29625Y-126673D01*
X-29764Y-126312D01*
X-29875Y-125952D01*
X-29931Y-125591D01*
X-29986Y-125229D01*
X-30014Y-124952D01*
X-30042Y-124702D01*
Y-124535D01*
Y-124507D01*
Y-124480D01*
Y-121786D01*
X-28626D01*
Y-124452D01*
D02*
G37*
G36*
X96262Y-114114D02*
X96331Y-114128D01*
X96414Y-114155D01*
X96595Y-114225D01*
X96692Y-114294D01*
X96775Y-114364D01*
X96789Y-114378D01*
X96817Y-114405D01*
X96858Y-114475D01*
X96914Y-114544D01*
X96969Y-114641D01*
X97011Y-114752D01*
X97053Y-114891D01*
X97080Y-115030D01*
Y-120304D01*
X98052Y-119430D01*
X98066Y-119416D01*
X98121Y-119388D01*
X98191Y-119333D01*
X98288Y-119277D01*
X98413Y-119222D01*
X98538Y-119166D01*
X98663Y-119138D01*
X98801Y-119125D01*
X98815D01*
X98857Y-119138D01*
X98926Y-119152D01*
X99010Y-119180D01*
X99107Y-119222D01*
X99218Y-119291D01*
X99343Y-119374D01*
X99454Y-119472D01*
X99468Y-119485D01*
X99482Y-119513D01*
X99509Y-119569D01*
X99551Y-119638D01*
X99593Y-119721D01*
X99648Y-119819D01*
X99718Y-120041D01*
Y-120124D01*
X99704Y-120235D01*
X99690Y-120360D01*
X99634Y-120513D01*
X99565Y-120679D01*
X99440Y-120846D01*
X99287Y-121012D01*
X96109Y-123830D01*
X93027Y-121054D01*
X93000Y-121026D01*
X92944Y-120971D01*
X92861Y-120873D01*
X92764Y-120762D01*
X92667Y-120610D01*
X92583Y-120457D01*
X92528Y-120291D01*
X92500Y-120124D01*
Y-120068D01*
X92514Y-119999D01*
X92528Y-119916D01*
X92569Y-119819D01*
X92611Y-119708D01*
X92680Y-119583D01*
X92764Y-119472D01*
X92778Y-119458D01*
X92805Y-119416D01*
X92861Y-119360D01*
X92930Y-119305D01*
X93027Y-119236D01*
X93138Y-119180D01*
X93277Y-119138D01*
X93430Y-119125D01*
X93444D01*
X93499D01*
X93583Y-119138D01*
X93680Y-119152D01*
X93805Y-119194D01*
X93916Y-119236D01*
X94027Y-119305D01*
X94138Y-119388D01*
X95193Y-120304D01*
Y-114961D01*
X95207Y-114891D01*
X95221Y-114794D01*
X95262Y-114697D01*
X95304Y-114586D01*
X95373Y-114475D01*
X95456Y-114364D01*
X95470Y-114350D01*
X95512Y-114322D01*
X95581Y-114267D01*
X95665Y-114211D01*
X95776Y-114169D01*
X95901Y-114128D01*
X96053Y-114100D01*
X96206D01*
X96220D01*
X96262Y-114114D01*
D02*
G37*
G36*
X-69021Y-88795D02*
X-69650D01*
Y-88077D01*
X-69021D01*
Y-88795D01*
D02*
G37*
G36*
X-71796Y-89409D02*
X-71633Y-89439D01*
X-71485Y-89483D01*
X-71359Y-89527D01*
X-71256Y-89572D01*
X-71182Y-89616D01*
X-71152Y-89631D01*
X-71130Y-89646D01*
X-71123Y-89653D01*
X-71115D01*
X-70989Y-89749D01*
X-70878Y-89868D01*
X-70782Y-89979D01*
X-70701Y-90090D01*
X-70642Y-90193D01*
X-70597Y-90275D01*
X-70582Y-90304D01*
X-70568Y-90327D01*
X-70560Y-90341D01*
Y-90349D01*
X-70494Y-90519D01*
X-70449Y-90689D01*
X-70412Y-90852D01*
X-70390Y-91000D01*
X-70375Y-91133D01*
Y-91185D01*
X-70368Y-91237D01*
Y-91274D01*
Y-91303D01*
Y-91318D01*
Y-91326D01*
X-70375Y-91466D01*
X-70383Y-91607D01*
X-70434Y-91858D01*
X-70464Y-91977D01*
X-70501Y-92080D01*
X-70538Y-92184D01*
X-70575Y-92273D01*
X-70612Y-92362D01*
X-70649Y-92436D01*
X-70686Y-92495D01*
X-70716Y-92554D01*
X-70745Y-92591D01*
X-70767Y-92628D01*
X-70775Y-92643D01*
X-70782Y-92650D01*
X-70864Y-92746D01*
X-70952Y-92828D01*
X-71049Y-92902D01*
X-71145Y-92968D01*
X-71248Y-93020D01*
X-71345Y-93065D01*
X-71441Y-93102D01*
X-71537Y-93131D01*
X-71626Y-93153D01*
X-71707Y-93168D01*
X-71781Y-93183D01*
X-71848Y-93190D01*
X-71900D01*
X-71937Y-93198D01*
X-71974D01*
X-72085Y-93190D01*
X-72196Y-93176D01*
X-72299Y-93153D01*
X-72395Y-93124D01*
X-72566Y-93042D01*
X-72721Y-92954D01*
X-72780Y-92909D01*
X-72839Y-92865D01*
X-72891Y-92820D01*
X-72928Y-92783D01*
X-72958Y-92754D01*
X-72980Y-92732D01*
X-72995Y-92717D01*
X-73002Y-92709D01*
Y-92820D01*
Y-92917D01*
X-72995Y-93013D01*
Y-93094D01*
Y-93168D01*
X-72987Y-93235D01*
Y-93294D01*
X-72980Y-93346D01*
X-72973Y-93420D01*
X-72965Y-93479D01*
X-72958Y-93509D01*
Y-93516D01*
X-72921Y-93627D01*
X-72869Y-93723D01*
X-72817Y-93805D01*
X-72765Y-93879D01*
X-72714Y-93930D01*
X-72669Y-93975D01*
X-72640Y-93997D01*
X-72632Y-94004D01*
X-72536Y-94064D01*
X-72425Y-94108D01*
X-72314Y-94138D01*
X-72210Y-94160D01*
X-72107Y-94175D01*
X-72033Y-94182D01*
X-71959D01*
X-71818Y-94175D01*
X-71685Y-94152D01*
X-71574Y-94123D01*
X-71485Y-94086D01*
X-71411Y-94056D01*
X-71359Y-94027D01*
X-71330Y-94004D01*
X-71315Y-93997D01*
X-71256Y-93945D01*
X-71211Y-93879D01*
X-71174Y-93812D01*
X-71145Y-93745D01*
X-71130Y-93679D01*
X-71115Y-93627D01*
X-71108Y-93597D01*
Y-93583D01*
X-70494Y-93501D01*
Y-93612D01*
X-70508Y-93708D01*
X-70523Y-93805D01*
X-70545Y-93893D01*
X-70612Y-94049D01*
X-70686Y-94175D01*
X-70760Y-94271D01*
X-70819Y-94337D01*
X-70871Y-94382D01*
X-70878Y-94389D01*
X-70886Y-94397D01*
X-71049Y-94500D01*
X-71226Y-94574D01*
X-71404Y-94626D01*
X-71574Y-94663D01*
X-71655Y-94678D01*
X-71729Y-94685D01*
X-71789Y-94693D01*
X-71848D01*
X-71892Y-94700D01*
X-71959D01*
X-72159Y-94693D01*
X-72344Y-94663D01*
X-72506Y-94633D01*
X-72640Y-94589D01*
X-72751Y-94552D01*
X-72795Y-94537D01*
X-72832Y-94515D01*
X-72862Y-94508D01*
X-72884Y-94493D01*
X-72891Y-94485D01*
X-72899D01*
X-73032Y-94404D01*
X-73150Y-94308D01*
X-73246Y-94212D01*
X-73328Y-94123D01*
X-73387Y-94041D01*
X-73424Y-93975D01*
X-73454Y-93930D01*
X-73461Y-93923D01*
Y-93916D01*
X-73491Y-93842D01*
X-73520Y-93760D01*
X-73542Y-93671D01*
X-73565Y-93575D01*
X-73594Y-93368D01*
X-73616Y-93168D01*
X-73624Y-93072D01*
X-73631Y-92983D01*
Y-92902D01*
X-73639Y-92835D01*
Y-92776D01*
Y-92732D01*
Y-92702D01*
Y-92695D01*
Y-89483D01*
X-73061D01*
Y-89942D01*
X-72980Y-89846D01*
X-72891Y-89764D01*
X-72802Y-89690D01*
X-72714Y-89631D01*
X-72617Y-89579D01*
X-72529Y-89535D01*
X-72440Y-89498D01*
X-72358Y-89468D01*
X-72277Y-89446D01*
X-72203Y-89431D01*
X-72136Y-89416D01*
X-72085Y-89409D01*
X-72040Y-89402D01*
X-71974D01*
X-71796Y-89409D01*
D02*
G37*
G36*
X-79966D02*
X-79810Y-89424D01*
X-79662Y-89446D01*
X-79544Y-89468D01*
X-79440Y-89490D01*
X-79366Y-89513D01*
X-79337Y-89520D01*
X-79314Y-89527D01*
X-79307Y-89535D01*
X-79300D01*
X-79174Y-89587D01*
X-79063Y-89653D01*
X-78967Y-89712D01*
X-78885Y-89772D01*
X-78826Y-89831D01*
X-78782Y-89875D01*
X-78752Y-89905D01*
X-78745Y-89912D01*
X-78678Y-90008D01*
X-78619Y-90112D01*
X-78574Y-90216D01*
X-78537Y-90312D01*
X-78508Y-90408D01*
X-78486Y-90475D01*
X-78478Y-90504D01*
Y-90526D01*
X-78471Y-90534D01*
Y-90541D01*
X-79085Y-90623D01*
X-79129Y-90489D01*
X-79174Y-90371D01*
X-79226Y-90275D01*
X-79270Y-90201D01*
X-79314Y-90142D01*
X-79351Y-90105D01*
X-79381Y-90082D01*
X-79388Y-90075D01*
X-79477Y-90023D01*
X-79581Y-89986D01*
X-79692Y-89957D01*
X-79795Y-89942D01*
X-79899Y-89927D01*
X-79973Y-89920D01*
X-80047D01*
X-80217Y-89927D01*
X-80365Y-89949D01*
X-80484Y-89986D01*
X-80587Y-90023D01*
X-80661Y-90068D01*
X-80720Y-90097D01*
X-80757Y-90127D01*
X-80765Y-90134D01*
X-80824Y-90201D01*
X-80868Y-90282D01*
X-80905Y-90371D01*
X-80928Y-90460D01*
X-80942Y-90541D01*
X-80950Y-90615D01*
Y-90660D01*
Y-90667D01*
Y-90674D01*
Y-90689D01*
Y-90719D01*
Y-90771D01*
X-80942Y-90815D01*
Y-90830D01*
Y-90837D01*
X-80868Y-90859D01*
X-80787Y-90882D01*
X-80617Y-90926D01*
X-80424Y-90963D01*
X-80247Y-91000D01*
X-80158Y-91015D01*
X-80077Y-91022D01*
X-80003Y-91037D01*
X-79943Y-91044D01*
X-79892Y-91052D01*
X-79855D01*
X-79825Y-91059D01*
X-79818D01*
X-79684Y-91074D01*
X-79573Y-91096D01*
X-79477Y-91111D01*
X-79403Y-91126D01*
X-79344Y-91133D01*
X-79300Y-91148D01*
X-79270Y-91155D01*
X-79263D01*
X-79166Y-91185D01*
X-79085Y-91215D01*
X-79004Y-91252D01*
X-78937Y-91281D01*
X-78878Y-91311D01*
X-78841Y-91340D01*
X-78811Y-91355D01*
X-78804Y-91363D01*
X-78730Y-91414D01*
X-78671Y-91474D01*
X-78611Y-91533D01*
X-78567Y-91592D01*
X-78530Y-91644D01*
X-78500Y-91688D01*
X-78486Y-91718D01*
X-78478Y-91725D01*
X-78441Y-91807D01*
X-78412Y-91895D01*
X-78389Y-91977D01*
X-78375Y-92058D01*
X-78367Y-92125D01*
X-78360Y-92177D01*
Y-92206D01*
Y-92221D01*
X-78367Y-92310D01*
X-78375Y-92384D01*
X-78412Y-92539D01*
X-78463Y-92665D01*
X-78523Y-92776D01*
X-78582Y-92865D01*
X-78634Y-92931D01*
X-78671Y-92968D01*
X-78685Y-92983D01*
X-78819Y-93079D01*
X-78967Y-93153D01*
X-79129Y-93205D01*
X-79277Y-93242D01*
X-79411Y-93264D01*
X-79470Y-93272D01*
X-79522D01*
X-79566Y-93279D01*
X-79625D01*
X-79758Y-93272D01*
X-79892Y-93257D01*
X-80010Y-93242D01*
X-80114Y-93220D01*
X-80195Y-93198D01*
X-80262Y-93176D01*
X-80306Y-93168D01*
X-80321Y-93161D01*
X-80447Y-93109D01*
X-80565Y-93042D01*
X-80676Y-92968D01*
X-80787Y-92902D01*
X-80876Y-92835D01*
X-80942Y-92783D01*
X-80987Y-92746D01*
X-80994Y-92732D01*
X-81002D01*
X-81016Y-92828D01*
X-81031Y-92917D01*
X-81046Y-92998D01*
X-81068Y-93065D01*
X-81090Y-93124D01*
X-81105Y-93161D01*
X-81113Y-93190D01*
X-81120Y-93198D01*
X-81779D01*
X-81742Y-93116D01*
X-81705Y-93035D01*
X-81675Y-92961D01*
X-81660Y-92894D01*
X-81638Y-92835D01*
X-81631Y-92791D01*
X-81623Y-92761D01*
Y-92754D01*
X-81616Y-92702D01*
X-81608Y-92635D01*
Y-92561D01*
X-81601Y-92480D01*
X-81594Y-92295D01*
Y-92110D01*
X-81586Y-91932D01*
Y-91851D01*
Y-91784D01*
Y-91725D01*
Y-91681D01*
Y-91651D01*
Y-91644D01*
Y-90800D01*
Y-90660D01*
X-81579Y-90534D01*
X-81571Y-90438D01*
Y-90356D01*
X-81564Y-90297D01*
X-81557Y-90253D01*
X-81549Y-90230D01*
Y-90223D01*
X-81527Y-90127D01*
X-81497Y-90045D01*
X-81468Y-89979D01*
X-81431Y-89912D01*
X-81401Y-89868D01*
X-81379Y-89831D01*
X-81364Y-89809D01*
X-81357Y-89801D01*
X-81298Y-89742D01*
X-81231Y-89683D01*
X-81157Y-89638D01*
X-81083Y-89594D01*
X-81016Y-89564D01*
X-80965Y-89542D01*
X-80928Y-89527D01*
X-80913Y-89520D01*
X-80794Y-89483D01*
X-80669Y-89453D01*
X-80543Y-89431D01*
X-80417Y-89416D01*
X-80306Y-89409D01*
X-80225Y-89402D01*
X-80143D01*
X-79966Y-89409D01*
D02*
G37*
G36*
X-69021Y-93198D02*
X-69650D01*
Y-89483D01*
X-69021D01*
Y-93198D01*
D02*
G37*
G36*
X-76192Y-89409D02*
X-76058Y-89431D01*
X-75940Y-89461D01*
X-75822Y-89498D01*
X-75718Y-89542D01*
X-75622Y-89594D01*
X-75533Y-89653D01*
X-75459Y-89705D01*
X-75385Y-89764D01*
X-75326Y-89823D01*
X-75274Y-89875D01*
X-75230Y-89920D01*
X-75200Y-89957D01*
X-75178Y-89986D01*
X-75163Y-90008D01*
X-75156Y-90016D01*
Y-89483D01*
X-74593D01*
Y-93198D01*
X-75222D01*
Y-91178D01*
Y-91052D01*
X-75237Y-90926D01*
X-75252Y-90822D01*
X-75267Y-90726D01*
X-75289Y-90637D01*
X-75311Y-90556D01*
X-75341Y-90482D01*
X-75370Y-90423D01*
X-75392Y-90371D01*
X-75422Y-90327D01*
X-75444Y-90290D01*
X-75466Y-90260D01*
X-75496Y-90223D01*
X-75511Y-90208D01*
X-75622Y-90119D01*
X-75740Y-90060D01*
X-75859Y-90016D01*
X-75962Y-89979D01*
X-76058Y-89964D01*
X-76132Y-89957D01*
X-76162Y-89949D01*
X-76199D01*
X-76288Y-89957D01*
X-76377Y-89964D01*
X-76451Y-89986D01*
X-76510Y-90008D01*
X-76562Y-90031D01*
X-76606Y-90045D01*
X-76628Y-90060D01*
X-76636Y-90068D01*
X-76702Y-90112D01*
X-76761Y-90164D01*
X-76806Y-90216D01*
X-76843Y-90260D01*
X-76865Y-90304D01*
X-76887Y-90341D01*
X-76902Y-90364D01*
Y-90371D01*
X-76924Y-90452D01*
X-76946Y-90541D01*
X-76961Y-90637D01*
X-76969Y-90734D01*
X-76976Y-90815D01*
Y-90882D01*
Y-90933D01*
Y-90941D01*
Y-90948D01*
Y-93198D01*
X-77605D01*
Y-90919D01*
Y-90763D01*
X-77598Y-90637D01*
X-77590Y-90534D01*
Y-90445D01*
X-77583Y-90386D01*
X-77575Y-90341D01*
X-77568Y-90312D01*
Y-90304D01*
X-77546Y-90208D01*
X-77509Y-90119D01*
X-77479Y-90045D01*
X-77450Y-89971D01*
X-77413Y-89920D01*
X-77390Y-89883D01*
X-77376Y-89853D01*
X-77368Y-89846D01*
X-77309Y-89772D01*
X-77242Y-89712D01*
X-77176Y-89653D01*
X-77102Y-89609D01*
X-77043Y-89572D01*
X-76991Y-89550D01*
X-76961Y-89535D01*
X-76946Y-89527D01*
X-76843Y-89483D01*
X-76732Y-89453D01*
X-76628Y-89431D01*
X-76532Y-89416D01*
X-76451Y-89409D01*
X-76391Y-89402D01*
X-76332D01*
X-76192Y-89409D01*
D02*
G37*
G36*
X-82541Y-93198D02*
X-83170D01*
Y-88077D01*
X-82541D01*
Y-93198D01*
D02*
G37*
G36*
X-65898Y-87996D02*
X-65728Y-88018D01*
X-65565Y-88047D01*
X-65425Y-88077D01*
X-65314Y-88107D01*
X-65262Y-88121D01*
X-65225Y-88136D01*
X-65195Y-88151D01*
X-65173Y-88158D01*
X-65158Y-88166D01*
X-65151D01*
X-65003Y-88240D01*
X-64870Y-88321D01*
X-64759Y-88410D01*
X-64670Y-88491D01*
X-64603Y-88565D01*
X-64551Y-88625D01*
X-64514Y-88669D01*
X-64507Y-88676D01*
Y-88684D01*
X-64433Y-88810D01*
X-64381Y-88935D01*
X-64344Y-89061D01*
X-64322Y-89172D01*
X-64307Y-89268D01*
X-64292Y-89342D01*
Y-89372D01*
Y-89394D01*
Y-89402D01*
Y-89409D01*
X-64300Y-89535D01*
X-64322Y-89653D01*
X-64352Y-89764D01*
X-64381Y-89860D01*
X-64411Y-89934D01*
X-64440Y-89994D01*
X-64463Y-90031D01*
X-64470Y-90045D01*
X-64544Y-90149D01*
X-64633Y-90245D01*
X-64722Y-90327D01*
X-64810Y-90393D01*
X-64884Y-90452D01*
X-64951Y-90489D01*
X-64995Y-90519D01*
X-65003Y-90526D01*
X-65010D01*
X-65069Y-90556D01*
X-65136Y-90586D01*
X-65284Y-90637D01*
X-65454Y-90689D01*
X-65617Y-90741D01*
X-65765Y-90785D01*
X-65832Y-90800D01*
X-65891Y-90815D01*
X-65935Y-90830D01*
X-65972Y-90837D01*
X-65994Y-90845D01*
X-66002D01*
X-66128Y-90874D01*
X-66246Y-90904D01*
X-66350Y-90933D01*
X-66438Y-90956D01*
X-66527Y-90978D01*
X-66601Y-91000D01*
X-66668Y-91015D01*
X-66720Y-91037D01*
X-66771Y-91052D01*
X-66808Y-91059D01*
X-66868Y-91081D01*
X-66905Y-91089D01*
X-66912Y-91096D01*
X-67023Y-91141D01*
X-67119Y-91192D01*
X-67201Y-91244D01*
X-67260Y-91289D01*
X-67312Y-91333D01*
X-67341Y-91363D01*
X-67363Y-91385D01*
X-67371Y-91392D01*
X-67423Y-91459D01*
X-67460Y-91533D01*
X-67482Y-91607D01*
X-67504Y-91666D01*
X-67511Y-91725D01*
X-67519Y-91770D01*
Y-91807D01*
Y-91814D01*
X-67511Y-91903D01*
X-67497Y-91984D01*
X-67474Y-92058D01*
X-67445Y-92117D01*
X-67415Y-92177D01*
X-67393Y-92214D01*
X-67378Y-92243D01*
X-67371Y-92251D01*
X-67312Y-92325D01*
X-67238Y-92384D01*
X-67164Y-92436D01*
X-67097Y-92487D01*
X-67030Y-92517D01*
X-66979Y-92547D01*
X-66942Y-92561D01*
X-66927Y-92569D01*
X-66816Y-92606D01*
X-66697Y-92635D01*
X-66579Y-92650D01*
X-66475Y-92665D01*
X-66387Y-92672D01*
X-66313Y-92680D01*
X-66246D01*
X-66083Y-92672D01*
X-65935Y-92658D01*
X-65802Y-92635D01*
X-65684Y-92606D01*
X-65587Y-92576D01*
X-65513Y-92554D01*
X-65491Y-92547D01*
X-65469Y-92539D01*
X-65462Y-92532D01*
X-65454D01*
X-65336Y-92473D01*
X-65225Y-92406D01*
X-65143Y-92339D01*
X-65069Y-92273D01*
X-65010Y-92221D01*
X-64973Y-92169D01*
X-64951Y-92140D01*
X-64944Y-92132D01*
X-64892Y-92036D01*
X-64840Y-91932D01*
X-64810Y-91821D01*
X-64781Y-91725D01*
X-64759Y-91629D01*
X-64744Y-91562D01*
Y-91533D01*
X-64736Y-91511D01*
Y-91503D01*
Y-91496D01*
X-64100Y-91555D01*
X-64115Y-91740D01*
X-64144Y-91918D01*
X-64189Y-92073D01*
X-64241Y-92214D01*
X-64292Y-92325D01*
X-64315Y-92369D01*
X-64329Y-92406D01*
X-64352Y-92436D01*
X-64359Y-92458D01*
X-64374Y-92473D01*
Y-92480D01*
X-64485Y-92621D01*
X-64603Y-92746D01*
X-64729Y-92850D01*
X-64847Y-92939D01*
X-64951Y-93005D01*
X-65040Y-93050D01*
X-65069Y-93065D01*
X-65092Y-93079D01*
X-65106Y-93087D01*
X-65114D01*
X-65299Y-93153D01*
X-65491Y-93205D01*
X-65684Y-93235D01*
X-65869Y-93264D01*
X-65957Y-93272D01*
X-66031Y-93279D01*
X-66098D01*
X-66157Y-93287D01*
X-66276D01*
X-66475Y-93279D01*
X-66660Y-93257D01*
X-66831Y-93220D01*
X-66971Y-93183D01*
X-67090Y-93153D01*
X-67141Y-93131D01*
X-67186Y-93116D01*
X-67215Y-93102D01*
X-67238Y-93094D01*
X-67252Y-93087D01*
X-67260D01*
X-67415Y-93005D01*
X-67548Y-92917D01*
X-67667Y-92820D01*
X-67763Y-92732D01*
X-67837Y-92658D01*
X-67889Y-92591D01*
X-67926Y-92547D01*
X-67933Y-92539D01*
Y-92532D01*
X-68015Y-92391D01*
X-68074Y-92258D01*
X-68111Y-92132D01*
X-68140Y-92014D01*
X-68155Y-91910D01*
X-68170Y-91829D01*
Y-91799D01*
Y-91777D01*
Y-91770D01*
Y-91762D01*
X-68163Y-91614D01*
X-68140Y-91474D01*
X-68103Y-91348D01*
X-68066Y-91244D01*
X-68022Y-91155D01*
X-67992Y-91089D01*
X-67963Y-91052D01*
X-67955Y-91037D01*
X-67867Y-90926D01*
X-67763Y-90822D01*
X-67652Y-90734D01*
X-67541Y-90652D01*
X-67445Y-90593D01*
X-67363Y-90549D01*
X-67334Y-90534D01*
X-67312Y-90519D01*
X-67297Y-90512D01*
X-67289D01*
X-67230Y-90482D01*
X-67156Y-90460D01*
X-67075Y-90430D01*
X-66986Y-90401D01*
X-66801Y-90349D01*
X-66609Y-90297D01*
X-66520Y-90275D01*
X-66438Y-90253D01*
X-66357Y-90230D01*
X-66290Y-90216D01*
X-66239Y-90201D01*
X-66194Y-90193D01*
X-66165Y-90186D01*
X-66157D01*
X-66009Y-90149D01*
X-65876Y-90119D01*
X-65758Y-90082D01*
X-65654Y-90053D01*
X-65558Y-90016D01*
X-65476Y-89986D01*
X-65402Y-89957D01*
X-65336Y-89934D01*
X-65284Y-89905D01*
X-65240Y-89883D01*
X-65210Y-89868D01*
X-65180Y-89846D01*
X-65143Y-89823D01*
X-65136Y-89816D01*
X-65069Y-89742D01*
X-65025Y-89668D01*
X-64988Y-89594D01*
X-64966Y-89520D01*
X-64951Y-89461D01*
X-64944Y-89409D01*
Y-89379D01*
Y-89365D01*
X-64958Y-89246D01*
X-64988Y-89143D01*
X-65032Y-89054D01*
X-65084Y-88972D01*
X-65129Y-88913D01*
X-65173Y-88861D01*
X-65203Y-88832D01*
X-65217Y-88824D01*
X-65277Y-88787D01*
X-65336Y-88750D01*
X-65476Y-88691D01*
X-65624Y-88654D01*
X-65772Y-88625D01*
X-65906Y-88610D01*
X-65965Y-88602D01*
X-66009Y-88595D01*
X-66113D01*
X-66320Y-88602D01*
X-66505Y-88632D01*
X-66653Y-88676D01*
X-66779Y-88721D01*
X-66875Y-88765D01*
X-66949Y-88810D01*
X-66986Y-88839D01*
X-67001Y-88847D01*
X-67104Y-88950D01*
X-67186Y-89061D01*
X-67252Y-89180D01*
X-67297Y-89298D01*
X-67326Y-89409D01*
X-67349Y-89490D01*
X-67356Y-89527D01*
X-67363Y-89550D01*
Y-89564D01*
Y-89572D01*
X-68015Y-89520D01*
X-68000Y-89357D01*
X-67963Y-89209D01*
X-67926Y-89069D01*
X-67874Y-88950D01*
X-67830Y-88854D01*
X-67793Y-88780D01*
X-67778Y-88758D01*
X-67763Y-88736D01*
X-67756Y-88728D01*
Y-88721D01*
X-67659Y-88595D01*
X-67556Y-88484D01*
X-67445Y-88388D01*
X-67334Y-88314D01*
X-67238Y-88247D01*
X-67164Y-88210D01*
X-67134Y-88195D01*
X-67112Y-88181D01*
X-67097Y-88173D01*
X-67090D01*
X-66927Y-88114D01*
X-66749Y-88070D01*
X-66586Y-88033D01*
X-66431Y-88010D01*
X-66290Y-87996D01*
X-66239D01*
X-66187Y-87988D01*
X-66091D01*
X-65898Y-87996D01*
D02*
G37*
G36*
X-64600Y-110019D02*
X-68426D01*
Y-109412D01*
X-65281D01*
Y-107673D01*
X-68115D01*
Y-107066D01*
X-65281D01*
Y-105505D01*
X-68307D01*
Y-104898D01*
X-64600D01*
Y-110019D01*
D02*
G37*
G36*
X-70564Y-106230D02*
X-70490Y-106245D01*
X-70416Y-106267D01*
X-70357Y-106289D01*
X-70313Y-106311D01*
X-70268Y-106333D01*
X-70246Y-106348D01*
X-70239Y-106356D01*
X-70172Y-106415D01*
X-70106Y-106489D01*
X-70039Y-106578D01*
X-69980Y-106659D01*
X-69921Y-106740D01*
X-69884Y-106807D01*
X-69854Y-106859D01*
X-69847Y-106866D01*
Y-106304D01*
X-69277D01*
Y-110019D01*
X-69906D01*
Y-108080D01*
X-69913Y-107932D01*
X-69921Y-107799D01*
X-69935Y-107673D01*
X-69958Y-107562D01*
X-69980Y-107473D01*
X-69995Y-107406D01*
X-70002Y-107362D01*
X-70009Y-107347D01*
X-70039Y-107266D01*
X-70076Y-107199D01*
X-70113Y-107140D01*
X-70150Y-107088D01*
X-70187Y-107051D01*
X-70209Y-107022D01*
X-70231Y-107007D01*
X-70239Y-106999D01*
X-70298Y-106955D01*
X-70365Y-106925D01*
X-70431Y-106903D01*
X-70483Y-106888D01*
X-70535Y-106881D01*
X-70572Y-106874D01*
X-70609D01*
X-70690Y-106881D01*
X-70772Y-106896D01*
X-70853Y-106918D01*
X-70920Y-106940D01*
X-70979Y-106962D01*
X-71023Y-106985D01*
X-71053Y-106999D01*
X-71060Y-107007D01*
X-71290Y-106430D01*
X-71164Y-106363D01*
X-71045Y-106311D01*
X-70942Y-106274D01*
X-70846Y-106245D01*
X-70764Y-106230D01*
X-70698Y-106222D01*
X-70646D01*
X-70564Y-106230D01*
D02*
G37*
G36*
X-72947D02*
X-72873Y-106245D01*
X-72799Y-106267D01*
X-72740Y-106289D01*
X-72696Y-106311D01*
X-72651Y-106333D01*
X-72629Y-106348D01*
X-72622Y-106356D01*
X-72555Y-106415D01*
X-72488Y-106489D01*
X-72422Y-106578D01*
X-72363Y-106659D01*
X-72303Y-106740D01*
X-72266Y-106807D01*
X-72237Y-106859D01*
X-72229Y-106866D01*
Y-106304D01*
X-71660D01*
Y-110019D01*
X-72289D01*
Y-108080D01*
X-72296Y-107932D01*
X-72303Y-107799D01*
X-72318Y-107673D01*
X-72340Y-107562D01*
X-72363Y-107473D01*
X-72377Y-107406D01*
X-72385Y-107362D01*
X-72392Y-107347D01*
X-72422Y-107266D01*
X-72459Y-107199D01*
X-72496Y-107140D01*
X-72533Y-107088D01*
X-72570Y-107051D01*
X-72592Y-107022D01*
X-72614Y-107007D01*
X-72622Y-106999D01*
X-72681Y-106955D01*
X-72747Y-106925D01*
X-72814Y-106903D01*
X-72866Y-106888D01*
X-72918Y-106881D01*
X-72955Y-106874D01*
X-72992D01*
X-73073Y-106881D01*
X-73154Y-106896D01*
X-73236Y-106918D01*
X-73302Y-106940D01*
X-73362Y-106962D01*
X-73406Y-106985D01*
X-73436Y-106999D01*
X-73443Y-107007D01*
X-73672Y-106430D01*
X-73547Y-106363D01*
X-73428Y-106311D01*
X-73325Y-106274D01*
X-73228Y-106245D01*
X-73147Y-106230D01*
X-73080Y-106222D01*
X-73029D01*
X-72947Y-106230D01*
D02*
G37*
G36*
X-79311D02*
X-79237Y-106245D01*
X-79163Y-106267D01*
X-79104Y-106289D01*
X-79060Y-106311D01*
X-79015Y-106333D01*
X-78993Y-106348D01*
X-78986Y-106356D01*
X-78919Y-106415D01*
X-78852Y-106489D01*
X-78786Y-106578D01*
X-78727Y-106659D01*
X-78667Y-106740D01*
X-78630Y-106807D01*
X-78601Y-106859D01*
X-78593Y-106866D01*
Y-106304D01*
X-78024D01*
Y-110019D01*
X-78653D01*
Y-108080D01*
X-78660Y-107932D01*
X-78667Y-107799D01*
X-78682Y-107673D01*
X-78704Y-107562D01*
X-78727Y-107473D01*
X-78741Y-107406D01*
X-78749Y-107362D01*
X-78756Y-107347D01*
X-78786Y-107266D01*
X-78823Y-107199D01*
X-78860Y-107140D01*
X-78897Y-107088D01*
X-78934Y-107051D01*
X-78956Y-107022D01*
X-78978Y-107007D01*
X-78986Y-106999D01*
X-79045Y-106955D01*
X-79111Y-106925D01*
X-79178Y-106903D01*
X-79230Y-106888D01*
X-79282Y-106881D01*
X-79319Y-106874D01*
X-79356D01*
X-79437Y-106881D01*
X-79518Y-106896D01*
X-79600Y-106918D01*
X-79666Y-106940D01*
X-79726Y-106962D01*
X-79770Y-106985D01*
X-79800Y-106999D01*
X-79807Y-107007D01*
X-80036Y-106430D01*
X-79911Y-106363D01*
X-79792Y-106311D01*
X-79689Y-106274D01*
X-79592Y-106245D01*
X-79511Y-106230D01*
X-79444Y-106222D01*
X-79393D01*
X-79311Y-106230D01*
D02*
G37*
G36*
X-75426D02*
X-75308Y-106237D01*
X-75078Y-106289D01*
X-74879Y-106356D01*
X-74790Y-106393D01*
X-74708Y-106430D01*
X-74634Y-106467D01*
X-74575Y-106504D01*
X-74516Y-106541D01*
X-74472Y-106570D01*
X-74435Y-106600D01*
X-74405Y-106622D01*
X-74390Y-106629D01*
X-74383Y-106637D01*
X-74279Y-106733D01*
X-74198Y-106844D01*
X-74116Y-106962D01*
X-74057Y-107081D01*
X-73998Y-107207D01*
X-73954Y-107340D01*
X-73917Y-107466D01*
X-73887Y-107584D01*
X-73857Y-107702D01*
X-73843Y-107806D01*
X-73828Y-107910D01*
X-73820Y-107991D01*
Y-108065D01*
X-73813Y-108117D01*
Y-108146D01*
Y-108161D01*
X-73820Y-108331D01*
X-73835Y-108494D01*
X-73857Y-108642D01*
X-73887Y-108783D01*
X-73924Y-108909D01*
X-73961Y-109027D01*
X-74005Y-109138D01*
X-74050Y-109234D01*
X-74094Y-109323D01*
X-74139Y-109397D01*
X-74176Y-109456D01*
X-74213Y-109508D01*
X-74242Y-109552D01*
X-74264Y-109582D01*
X-74279Y-109597D01*
X-74287Y-109604D01*
X-74383Y-109693D01*
X-74479Y-109767D01*
X-74583Y-109834D01*
X-74686Y-109893D01*
X-74790Y-109937D01*
X-74901Y-109982D01*
X-75101Y-110041D01*
X-75189Y-110056D01*
X-75278Y-110070D01*
X-75352Y-110085D01*
X-75419Y-110093D01*
X-75478Y-110100D01*
X-75552D01*
X-75730Y-110093D01*
X-75892Y-110063D01*
X-76048Y-110026D01*
X-76174Y-109989D01*
X-76285Y-109945D01*
X-76329Y-109930D01*
X-76366Y-109915D01*
X-76403Y-109900D01*
X-76425Y-109885D01*
X-76433Y-109878D01*
X-76440D01*
X-76588Y-109782D01*
X-76714Y-109678D01*
X-76825Y-109575D01*
X-76914Y-109471D01*
X-76980Y-109382D01*
X-77032Y-109308D01*
X-77047Y-109279D01*
X-77062Y-109256D01*
X-77069Y-109249D01*
Y-109242D01*
X-77143Y-109071D01*
X-77195Y-108886D01*
X-77239Y-108701D01*
X-77261Y-108516D01*
X-77276Y-108435D01*
Y-108361D01*
X-77284Y-108287D01*
X-77291Y-108228D01*
Y-108176D01*
Y-108139D01*
Y-108117D01*
Y-108109D01*
X-77284Y-107947D01*
X-77269Y-107799D01*
X-77247Y-107658D01*
X-77217Y-107525D01*
X-77180Y-107399D01*
X-77136Y-107288D01*
X-77091Y-107177D01*
X-77047Y-107088D01*
X-77002Y-107007D01*
X-76958Y-106933D01*
X-76914Y-106866D01*
X-76877Y-106814D01*
X-76847Y-106777D01*
X-76825Y-106748D01*
X-76810Y-106733D01*
X-76803Y-106726D01*
X-76706Y-106637D01*
X-76610Y-106563D01*
X-76507Y-106489D01*
X-76403Y-106437D01*
X-76299Y-106385D01*
X-76196Y-106348D01*
X-75996Y-106282D01*
X-75900Y-106267D01*
X-75818Y-106252D01*
X-75744Y-106237D01*
X-75678Y-106230D01*
X-75626Y-106222D01*
X-75552D01*
X-75426Y-106230D01*
D02*
G37*
G36*
X-69662Y-100305D02*
Y-100446D01*
X-69669Y-100572D01*
X-69676Y-100668D01*
X-69684Y-100757D01*
Y-100816D01*
X-69691Y-100860D01*
X-69699Y-100890D01*
Y-100897D01*
X-69721Y-100993D01*
X-69750Y-101082D01*
X-69780Y-101164D01*
X-69817Y-101230D01*
X-69847Y-101289D01*
X-69869Y-101326D01*
X-69884Y-101356D01*
X-69891Y-101363D01*
X-69950Y-101430D01*
X-70017Y-101489D01*
X-70083Y-101541D01*
X-70157Y-101585D01*
X-70217Y-101622D01*
X-70268Y-101652D01*
X-70298Y-101667D01*
X-70313Y-101674D01*
X-70424Y-101719D01*
X-70527Y-101748D01*
X-70631Y-101770D01*
X-70727Y-101785D01*
X-70809Y-101793D01*
X-70875Y-101800D01*
X-70927D01*
X-71060Y-101793D01*
X-71193Y-101770D01*
X-71312Y-101741D01*
X-71430Y-101704D01*
X-71534Y-101652D01*
X-71630Y-101600D01*
X-71719Y-101548D01*
X-71800Y-101489D01*
X-71874Y-101430D01*
X-71933Y-101378D01*
X-71985Y-101319D01*
X-72030Y-101275D01*
X-72067Y-101238D01*
X-72089Y-101208D01*
X-72104Y-101186D01*
X-72111Y-101178D01*
Y-101719D01*
X-72673D01*
Y-98004D01*
X-72044D01*
Y-99994D01*
X-72037Y-100165D01*
X-72030Y-100313D01*
X-72015Y-100438D01*
X-71993Y-100542D01*
X-71970Y-100623D01*
X-71956Y-100683D01*
X-71948Y-100712D01*
X-71941Y-100727D01*
X-71896Y-100816D01*
X-71845Y-100890D01*
X-71785Y-100956D01*
X-71726Y-101016D01*
X-71674Y-101060D01*
X-71630Y-101090D01*
X-71600Y-101112D01*
X-71586Y-101119D01*
X-71489Y-101164D01*
X-71393Y-101201D01*
X-71304Y-101223D01*
X-71223Y-101245D01*
X-71156Y-101252D01*
X-71105Y-101260D01*
X-71053D01*
X-70949Y-101252D01*
X-70860Y-101238D01*
X-70779Y-101215D01*
X-70712Y-101186D01*
X-70653Y-101164D01*
X-70616Y-101141D01*
X-70587Y-101127D01*
X-70579Y-101119D01*
X-70513Y-101060D01*
X-70461Y-101001D01*
X-70416Y-100934D01*
X-70379Y-100875D01*
X-70357Y-100816D01*
X-70342Y-100771D01*
X-70328Y-100742D01*
Y-100734D01*
X-70313Y-100653D01*
X-70305Y-100557D01*
X-70298Y-100446D01*
Y-100335D01*
X-70291Y-100231D01*
Y-100150D01*
Y-100113D01*
Y-100091D01*
Y-100076D01*
Y-100068D01*
Y-98004D01*
X-69662D01*
Y-100305D01*
D02*
G37*
G36*
X-64600Y-101719D02*
X-65281D01*
Y-99447D01*
X-66154D01*
X-66235Y-99454D01*
X-66295D01*
X-66346Y-99462D01*
X-66383Y-99469D01*
X-66413D01*
X-66428Y-99476D01*
X-66435D01*
X-66554Y-99513D01*
X-66605Y-99536D01*
X-66650Y-99558D01*
X-66694Y-99580D01*
X-66724Y-99595D01*
X-66739Y-99602D01*
X-66746Y-99610D01*
X-66805Y-99654D01*
X-66864Y-99706D01*
X-66975Y-99817D01*
X-67027Y-99869D01*
X-67064Y-99913D01*
X-67086Y-99943D01*
X-67094Y-99950D01*
X-67168Y-100054D01*
X-67249Y-100165D01*
X-67331Y-100283D01*
X-67412Y-100394D01*
X-67479Y-100498D01*
X-67530Y-100579D01*
X-67553Y-100609D01*
X-67567Y-100631D01*
X-67582Y-100646D01*
Y-100653D01*
X-68256Y-101719D01*
X-69099D01*
X-68219Y-100327D01*
X-68115Y-100179D01*
X-68019Y-100046D01*
X-67923Y-99935D01*
X-67841Y-99832D01*
X-67767Y-99758D01*
X-67708Y-99698D01*
X-67671Y-99661D01*
X-67656Y-99647D01*
X-67597Y-99602D01*
X-67530Y-99550D01*
X-67397Y-99469D01*
X-67338Y-99439D01*
X-67294Y-99410D01*
X-67264Y-99395D01*
X-67249Y-99388D01*
X-67382Y-99365D01*
X-67508Y-99343D01*
X-67619Y-99306D01*
X-67730Y-99277D01*
X-67826Y-99240D01*
X-67915Y-99195D01*
X-67997Y-99158D01*
X-68071Y-99121D01*
X-68130Y-99077D01*
X-68189Y-99040D01*
X-68233Y-99010D01*
X-68270Y-98981D01*
X-68300Y-98958D01*
X-68322Y-98936D01*
X-68330Y-98929D01*
X-68337Y-98921D01*
X-68396Y-98847D01*
X-68455Y-98773D01*
X-68544Y-98618D01*
X-68603Y-98463D01*
X-68648Y-98315D01*
X-68677Y-98189D01*
X-68685Y-98137D01*
Y-98085D01*
X-68692Y-98048D01*
Y-98019D01*
Y-98004D01*
Y-97996D01*
X-68685Y-97841D01*
X-68663Y-97700D01*
X-68626Y-97567D01*
X-68589Y-97456D01*
X-68544Y-97360D01*
X-68515Y-97286D01*
X-68485Y-97242D01*
X-68478Y-97234D01*
Y-97227D01*
X-68389Y-97108D01*
X-68300Y-97005D01*
X-68204Y-96916D01*
X-68115Y-96849D01*
X-68034Y-96798D01*
X-67967Y-96768D01*
X-67923Y-96746D01*
X-67915Y-96738D01*
X-67908D01*
X-67841Y-96716D01*
X-67760Y-96694D01*
X-67597Y-96657D01*
X-67419Y-96635D01*
X-67257Y-96613D01*
X-67101Y-96605D01*
X-67035D01*
X-66975Y-96598D01*
X-64600D01*
Y-101719D01*
D02*
G37*
G36*
X-75256Y-97930D02*
X-75123Y-97952D01*
X-75004Y-97982D01*
X-74886Y-98019D01*
X-74782Y-98063D01*
X-74686Y-98115D01*
X-74597Y-98174D01*
X-74523Y-98226D01*
X-74449Y-98285D01*
X-74390Y-98344D01*
X-74338Y-98396D01*
X-74294Y-98440D01*
X-74264Y-98477D01*
X-74242Y-98507D01*
X-74227Y-98529D01*
X-74220Y-98537D01*
Y-98004D01*
X-73658D01*
Y-101719D01*
X-74287D01*
Y-99698D01*
Y-99573D01*
X-74301Y-99447D01*
X-74316Y-99343D01*
X-74331Y-99247D01*
X-74353Y-99158D01*
X-74375Y-99077D01*
X-74405Y-99003D01*
X-74435Y-98944D01*
X-74457Y-98892D01*
X-74486Y-98847D01*
X-74509Y-98810D01*
X-74531Y-98781D01*
X-74560Y-98744D01*
X-74575Y-98729D01*
X-74686Y-98640D01*
X-74805Y-98581D01*
X-74923Y-98537D01*
X-75027Y-98500D01*
X-75123Y-98485D01*
X-75197Y-98477D01*
X-75226Y-98470D01*
X-75263D01*
X-75352Y-98477D01*
X-75441Y-98485D01*
X-75515Y-98507D01*
X-75574Y-98529D01*
X-75626Y-98551D01*
X-75670Y-98566D01*
X-75693Y-98581D01*
X-75700Y-98588D01*
X-75767Y-98633D01*
X-75826Y-98685D01*
X-75870Y-98736D01*
X-75907Y-98781D01*
X-75929Y-98825D01*
X-75952Y-98862D01*
X-75966Y-98884D01*
Y-98892D01*
X-75989Y-98973D01*
X-76011Y-99062D01*
X-76026Y-99158D01*
X-76033Y-99254D01*
X-76040Y-99336D01*
Y-99402D01*
Y-99454D01*
Y-99462D01*
Y-99469D01*
Y-101719D01*
X-76669D01*
Y-99439D01*
Y-99284D01*
X-76662Y-99158D01*
X-76655Y-99055D01*
Y-98966D01*
X-76647Y-98907D01*
X-76640Y-98862D01*
X-76632Y-98833D01*
Y-98825D01*
X-76610Y-98729D01*
X-76573Y-98640D01*
X-76544Y-98566D01*
X-76514Y-98492D01*
X-76477Y-98440D01*
X-76455Y-98403D01*
X-76440Y-98374D01*
X-76433Y-98366D01*
X-76373Y-98292D01*
X-76307Y-98233D01*
X-76240Y-98174D01*
X-76166Y-98130D01*
X-76107Y-98093D01*
X-76055Y-98070D01*
X-76026Y-98056D01*
X-76011Y-98048D01*
X-75907Y-98004D01*
X-75796Y-97974D01*
X-75693Y-97952D01*
X-75596Y-97937D01*
X-75515Y-97930D01*
X-75456Y-97922D01*
X-75397D01*
X-75256Y-97930D01*
D02*
G37*
G36*
X20161Y-146158D02*
X20222Y-146246D01*
X20294Y-146335D01*
X20360Y-146413D01*
X20427Y-146479D01*
X20477Y-146535D01*
X20499Y-146552D01*
X20516Y-146568D01*
X20521Y-146574D01*
X20527Y-146579D01*
X20643Y-146674D01*
X20760Y-146763D01*
X20871Y-146840D01*
X20982Y-146901D01*
X21076Y-146957D01*
X21115Y-146979D01*
X21148Y-146996D01*
X21176Y-147012D01*
X21198Y-147018D01*
X21209Y-147029D01*
X21215D01*
Y-147484D01*
X21132Y-147451D01*
X21048Y-147412D01*
X20965Y-147373D01*
X20888Y-147334D01*
X20821Y-147301D01*
X20765Y-147273D01*
X20732Y-147251D01*
X20727Y-147245D01*
X20721D01*
X20621Y-147184D01*
X20532Y-147123D01*
X20455Y-147068D01*
X20394Y-147018D01*
X20338Y-146979D01*
X20305Y-146946D01*
X20277Y-146923D01*
X20271Y-146918D01*
Y-149920D01*
X19800D01*
Y-146063D01*
X20105D01*
X20161Y-146158D01*
D02*
G37*
G36*
X25799Y-149920D02*
X25267D01*
X24456Y-146996D01*
X24434Y-146923D01*
X24417Y-146846D01*
X24395Y-146768D01*
X24378Y-146701D01*
X24362Y-146640D01*
X24351Y-146590D01*
X24345Y-146557D01*
X24340Y-146552D01*
Y-146546D01*
X24334Y-146563D01*
X24329Y-146590D01*
X24312Y-146651D01*
X24290Y-146724D01*
X24268Y-146801D01*
X24251Y-146873D01*
X24234Y-146934D01*
X24229Y-146962D01*
X24223Y-146979D01*
X24217Y-146990D01*
Y-146996D01*
X23413Y-149920D01*
X22913D01*
X21859Y-146080D01*
X22375D01*
X22974Y-148550D01*
X23019Y-148722D01*
X23052Y-148877D01*
X23085Y-149021D01*
X23113Y-149143D01*
X23130Y-149199D01*
X23135Y-149249D01*
X23146Y-149288D01*
X23152Y-149321D01*
X23163Y-149349D01*
Y-149371D01*
X23169Y-149382D01*
Y-149388D01*
X23207Y-149143D01*
X23257Y-148905D01*
X23307Y-148677D01*
X23329Y-148572D01*
X23357Y-148466D01*
X23380Y-148372D01*
X23402Y-148289D01*
X23424Y-148217D01*
X23440Y-148150D01*
X23452Y-148100D01*
X23463Y-148061D01*
X23474Y-148033D01*
Y-148028D01*
X24018Y-146080D01*
X24634D01*
X25361Y-148677D01*
X25366Y-148699D01*
X25378Y-148733D01*
X25389Y-148777D01*
X25400Y-148827D01*
X25416Y-148883D01*
X25427Y-148944D01*
X25461Y-149066D01*
X25488Y-149188D01*
X25505Y-149243D01*
X25516Y-149288D01*
X25522Y-149332D01*
X25533Y-149360D01*
X25538Y-149382D01*
Y-149388D01*
X25566Y-149243D01*
X25594Y-149099D01*
X25622Y-148966D01*
X25649Y-148849D01*
X25660Y-148794D01*
X25672Y-148744D01*
X25683Y-148705D01*
X25688Y-148666D01*
X25694Y-148638D01*
X25699Y-148616D01*
X25705Y-148605D01*
Y-148600D01*
X26277Y-146080D01*
X26804D01*
X25799Y-149920D01*
D02*
G37*
G36*
X28852Y-146019D02*
X28979Y-146035D01*
X29101Y-146058D01*
X29207Y-146080D01*
X29290Y-146102D01*
X29329Y-146113D01*
X29357Y-146124D01*
X29379Y-146135D01*
X29396Y-146141D01*
X29407Y-146146D01*
X29412D01*
X29523Y-146202D01*
X29623Y-146263D01*
X29706Y-146330D01*
X29773Y-146391D01*
X29823Y-146446D01*
X29862Y-146491D01*
X29890Y-146524D01*
X29895Y-146529D01*
Y-146535D01*
X29951Y-146629D01*
X29989Y-146724D01*
X30017Y-146818D01*
X30034Y-146901D01*
X30045Y-146973D01*
X30056Y-147029D01*
Y-147051D01*
Y-147068D01*
Y-147073D01*
Y-147079D01*
X30051Y-147173D01*
X30034Y-147262D01*
X30012Y-147345D01*
X29989Y-147417D01*
X29967Y-147473D01*
X29945Y-147517D01*
X29928Y-147545D01*
X29923Y-147556D01*
X29867Y-147634D01*
X29801Y-147706D01*
X29734Y-147767D01*
X29668Y-147817D01*
X29612Y-147861D01*
X29562Y-147889D01*
X29529Y-147911D01*
X29523Y-147917D01*
X29518D01*
X29473Y-147939D01*
X29423Y-147961D01*
X29312Y-148000D01*
X29185Y-148039D01*
X29063Y-148078D01*
X28952Y-148111D01*
X28902Y-148122D01*
X28857Y-148133D01*
X28824Y-148144D01*
X28796Y-148150D01*
X28780Y-148155D01*
X28774D01*
X28680Y-148178D01*
X28591Y-148200D01*
X28513Y-148222D01*
X28447Y-148239D01*
X28380Y-148255D01*
X28324Y-148272D01*
X28275Y-148283D01*
X28236Y-148300D01*
X28197Y-148311D01*
X28169Y-148317D01*
X28125Y-148333D01*
X28097Y-148339D01*
X28091Y-148344D01*
X28008Y-148378D01*
X27936Y-148416D01*
X27875Y-148455D01*
X27831Y-148488D01*
X27792Y-148522D01*
X27770Y-148544D01*
X27753Y-148561D01*
X27747Y-148566D01*
X27709Y-148616D01*
X27681Y-148672D01*
X27664Y-148727D01*
X27647Y-148772D01*
X27642Y-148816D01*
X27636Y-148849D01*
Y-148877D01*
Y-148883D01*
X27642Y-148949D01*
X27653Y-149010D01*
X27670Y-149066D01*
X27692Y-149110D01*
X27714Y-149154D01*
X27731Y-149182D01*
X27742Y-149205D01*
X27747Y-149210D01*
X27792Y-149266D01*
X27847Y-149310D01*
X27903Y-149349D01*
X27953Y-149388D01*
X28003Y-149410D01*
X28041Y-149432D01*
X28069Y-149443D01*
X28080Y-149449D01*
X28164Y-149476D01*
X28252Y-149499D01*
X28341Y-149510D01*
X28419Y-149521D01*
X28486Y-149526D01*
X28541Y-149532D01*
X28591D01*
X28713Y-149526D01*
X28824Y-149515D01*
X28924Y-149499D01*
X29013Y-149476D01*
X29085Y-149454D01*
X29140Y-149438D01*
X29157Y-149432D01*
X29174Y-149426D01*
X29179Y-149421D01*
X29185D01*
X29274Y-149376D01*
X29357Y-149327D01*
X29418Y-149277D01*
X29473Y-149227D01*
X29518Y-149188D01*
X29546Y-149149D01*
X29562Y-149127D01*
X29568Y-149121D01*
X29607Y-149049D01*
X29645Y-148971D01*
X29668Y-148888D01*
X29690Y-148816D01*
X29706Y-148744D01*
X29718Y-148694D01*
Y-148672D01*
X29723Y-148655D01*
Y-148650D01*
Y-148644D01*
X30200Y-148688D01*
X30189Y-148827D01*
X30167Y-148960D01*
X30134Y-149077D01*
X30095Y-149182D01*
X30056Y-149266D01*
X30040Y-149299D01*
X30028Y-149327D01*
X30012Y-149349D01*
X30006Y-149365D01*
X29995Y-149376D01*
Y-149382D01*
X29912Y-149487D01*
X29823Y-149582D01*
X29729Y-149660D01*
X29640Y-149726D01*
X29562Y-149776D01*
X29496Y-149809D01*
X29473Y-149820D01*
X29457Y-149832D01*
X29446Y-149837D01*
X29440D01*
X29301Y-149887D01*
X29157Y-149926D01*
X29013Y-149948D01*
X28874Y-149970D01*
X28807Y-149976D01*
X28752Y-149981D01*
X28702D01*
X28657Y-149987D01*
X28569D01*
X28419Y-149981D01*
X28280Y-149965D01*
X28152Y-149937D01*
X28047Y-149909D01*
X27958Y-149887D01*
X27919Y-149871D01*
X27886Y-149859D01*
X27864Y-149848D01*
X27847Y-149843D01*
X27836Y-149837D01*
X27831D01*
X27714Y-149776D01*
X27614Y-149709D01*
X27525Y-149637D01*
X27453Y-149571D01*
X27398Y-149515D01*
X27359Y-149465D01*
X27331Y-149432D01*
X27325Y-149426D01*
Y-149421D01*
X27264Y-149316D01*
X27220Y-149216D01*
X27192Y-149121D01*
X27170Y-149032D01*
X27159Y-148955D01*
X27148Y-148894D01*
Y-148872D01*
Y-148855D01*
Y-148849D01*
Y-148844D01*
X27154Y-148733D01*
X27170Y-148627D01*
X27198Y-148533D01*
X27226Y-148455D01*
X27259Y-148389D01*
X27281Y-148339D01*
X27303Y-148311D01*
X27309Y-148300D01*
X27376Y-148217D01*
X27453Y-148139D01*
X27536Y-148072D01*
X27620Y-148011D01*
X27692Y-147967D01*
X27753Y-147933D01*
X27775Y-147922D01*
X27792Y-147911D01*
X27803Y-147906D01*
X27808D01*
X27853Y-147884D01*
X27908Y-147867D01*
X27969Y-147845D01*
X28036Y-147822D01*
X28175Y-147784D01*
X28319Y-147745D01*
X28386Y-147728D01*
X28447Y-147712D01*
X28508Y-147695D01*
X28558Y-147684D01*
X28596Y-147673D01*
X28630Y-147667D01*
X28652Y-147662D01*
X28657D01*
X28769Y-147634D01*
X28868Y-147612D01*
X28957Y-147584D01*
X29035Y-147562D01*
X29107Y-147534D01*
X29168Y-147512D01*
X29224Y-147490D01*
X29274Y-147473D01*
X29312Y-147451D01*
X29346Y-147434D01*
X29368Y-147423D01*
X29390Y-147406D01*
X29418Y-147390D01*
X29423Y-147384D01*
X29473Y-147329D01*
X29507Y-147273D01*
X29534Y-147218D01*
X29551Y-147162D01*
X29562Y-147118D01*
X29568Y-147079D01*
Y-147057D01*
Y-147046D01*
X29557Y-146957D01*
X29534Y-146879D01*
X29501Y-146812D01*
X29462Y-146751D01*
X29429Y-146707D01*
X29396Y-146668D01*
X29373Y-146646D01*
X29362Y-146640D01*
X29318Y-146613D01*
X29274Y-146585D01*
X29168Y-146540D01*
X29057Y-146513D01*
X28946Y-146491D01*
X28846Y-146479D01*
X28802Y-146474D01*
X28769Y-146468D01*
X28691D01*
X28535Y-146474D01*
X28397Y-146496D01*
X28286Y-146529D01*
X28191Y-146563D01*
X28119Y-146596D01*
X28064Y-146629D01*
X28036Y-146651D01*
X28025Y-146657D01*
X27947Y-146735D01*
X27886Y-146818D01*
X27836Y-146907D01*
X27803Y-146996D01*
X27781Y-147079D01*
X27764Y-147140D01*
X27758Y-147168D01*
X27753Y-147184D01*
Y-147195D01*
Y-147201D01*
X27264Y-147162D01*
X27276Y-147040D01*
X27303Y-146929D01*
X27331Y-146824D01*
X27370Y-146735D01*
X27403Y-146663D01*
X27431Y-146607D01*
X27442Y-146590D01*
X27453Y-146574D01*
X27459Y-146568D01*
Y-146563D01*
X27531Y-146468D01*
X27609Y-146385D01*
X27692Y-146313D01*
X27775Y-146257D01*
X27847Y-146207D01*
X27903Y-146180D01*
X27925Y-146169D01*
X27942Y-146158D01*
X27953Y-146152D01*
X27958D01*
X28080Y-146108D01*
X28214Y-146074D01*
X28336Y-146046D01*
X28452Y-146030D01*
X28558Y-146019D01*
X28596D01*
X28635Y-146013D01*
X28708D01*
X28852Y-146019D01*
D02*
G37*
G36*
X-23837Y-149920D02*
X-24370D01*
X-25180Y-146995D01*
X-25203Y-146923D01*
X-25219Y-146846D01*
X-25241Y-146768D01*
X-25258Y-146701D01*
X-25275Y-146640D01*
X-25286Y-146590D01*
X-25291Y-146557D01*
X-25297Y-146551D01*
Y-146546D01*
X-25302Y-146563D01*
X-25308Y-146590D01*
X-25325Y-146651D01*
X-25347Y-146723D01*
X-25369Y-146801D01*
X-25386Y-146873D01*
X-25402Y-146934D01*
X-25408Y-146962D01*
X-25414Y-146979D01*
X-25419Y-146990D01*
Y-146995D01*
X-26224Y-149920D01*
X-26723D01*
X-27778Y-146080D01*
X-27262D01*
X-26662Y-148549D01*
X-26618Y-148722D01*
X-26585Y-148877D01*
X-26551Y-149021D01*
X-26524Y-149143D01*
X-26507Y-149199D01*
X-26501Y-149249D01*
X-26490Y-149288D01*
X-26485Y-149321D01*
X-26474Y-149349D01*
Y-149371D01*
X-26468Y-149382D01*
Y-149388D01*
X-26429Y-149143D01*
X-26379Y-148905D01*
X-26329Y-148677D01*
X-26307Y-148572D01*
X-26279Y-148466D01*
X-26257Y-148372D01*
X-26235Y-148289D01*
X-26213Y-148216D01*
X-26196Y-148150D01*
X-26185Y-148100D01*
X-26174Y-148061D01*
X-26163Y-148033D01*
Y-148028D01*
X-25619Y-146080D01*
X-25003D01*
X-24276Y-148677D01*
X-24270Y-148699D01*
X-24259Y-148733D01*
X-24248Y-148777D01*
X-24237Y-148827D01*
X-24220Y-148882D01*
X-24209Y-148943D01*
X-24176Y-149066D01*
X-24148Y-149188D01*
X-24131Y-149243D01*
X-24120Y-149288D01*
X-24115Y-149332D01*
X-24104Y-149360D01*
X-24098Y-149382D01*
Y-149388D01*
X-24070Y-149243D01*
X-24043Y-149099D01*
X-24015Y-148966D01*
X-23987Y-148849D01*
X-23976Y-148794D01*
X-23965Y-148744D01*
X-23954Y-148705D01*
X-23948Y-148666D01*
X-23943Y-148638D01*
X-23937Y-148616D01*
X-23932Y-148605D01*
Y-148599D01*
X-23360Y-146080D01*
X-22833D01*
X-23837Y-149920D01*
D02*
G37*
G36*
X-27900Y-148566D02*
Y-148999D01*
X-29570D01*
Y-149920D01*
X-30042D01*
Y-148999D01*
X-30564D01*
Y-148566D01*
X-30042D01*
Y-146080D01*
X-29659D01*
X-27900Y-148566D01*
D02*
G37*
G36*
X-20785Y-146019D02*
X-20657Y-146035D01*
X-20535Y-146057D01*
X-20430Y-146080D01*
X-20346Y-146102D01*
X-20308Y-146113D01*
X-20280Y-146124D01*
X-20257Y-146135D01*
X-20241Y-146141D01*
X-20230Y-146146D01*
X-20224D01*
X-20113Y-146202D01*
X-20013Y-146263D01*
X-19930Y-146329D01*
X-19863Y-146390D01*
X-19814Y-146446D01*
X-19775Y-146490D01*
X-19747Y-146524D01*
X-19741Y-146529D01*
Y-146535D01*
X-19686Y-146629D01*
X-19647Y-146723D01*
X-19619Y-146818D01*
X-19603Y-146901D01*
X-19591Y-146973D01*
X-19580Y-147029D01*
Y-147051D01*
Y-147068D01*
Y-147073D01*
Y-147079D01*
X-19586Y-147173D01*
X-19603Y-147262D01*
X-19625Y-147345D01*
X-19647Y-147417D01*
X-19669Y-147473D01*
X-19691Y-147517D01*
X-19708Y-147545D01*
X-19714Y-147556D01*
X-19769Y-147634D01*
X-19836Y-147706D01*
X-19902Y-147767D01*
X-19969Y-147817D01*
X-20024Y-147861D01*
X-20074Y-147889D01*
X-20108Y-147911D01*
X-20113Y-147917D01*
X-20119D01*
X-20163Y-147939D01*
X-20213Y-147961D01*
X-20324Y-148000D01*
X-20452Y-148039D01*
X-20574Y-148078D01*
X-20685Y-148111D01*
X-20735Y-148122D01*
X-20779Y-148133D01*
X-20812Y-148144D01*
X-20840Y-148150D01*
X-20857Y-148155D01*
X-20863D01*
X-20957Y-148178D01*
X-21046Y-148200D01*
X-21123Y-148222D01*
X-21190Y-148239D01*
X-21257Y-148255D01*
X-21312Y-148272D01*
X-21362Y-148283D01*
X-21401Y-148300D01*
X-21440Y-148311D01*
X-21467Y-148316D01*
X-21512Y-148333D01*
X-21540Y-148339D01*
X-21545Y-148344D01*
X-21628Y-148377D01*
X-21700Y-148416D01*
X-21762Y-148455D01*
X-21806Y-148488D01*
X-21845Y-148522D01*
X-21867Y-148544D01*
X-21884Y-148561D01*
X-21889Y-148566D01*
X-21928Y-148616D01*
X-21956Y-148672D01*
X-21972Y-148727D01*
X-21989Y-148772D01*
X-21995Y-148816D01*
X-22000Y-148849D01*
Y-148877D01*
Y-148882D01*
X-21995Y-148949D01*
X-21984Y-149010D01*
X-21967Y-149066D01*
X-21945Y-149110D01*
X-21923Y-149154D01*
X-21906Y-149182D01*
X-21895Y-149204D01*
X-21889Y-149210D01*
X-21845Y-149265D01*
X-21789Y-149310D01*
X-21734Y-149349D01*
X-21684Y-149388D01*
X-21634Y-149410D01*
X-21595Y-149432D01*
X-21567Y-149443D01*
X-21556Y-149449D01*
X-21473Y-149476D01*
X-21384Y-149498D01*
X-21295Y-149510D01*
X-21218Y-149521D01*
X-21151Y-149526D01*
X-21096Y-149532D01*
X-21046D01*
X-20923Y-149526D01*
X-20812Y-149515D01*
X-20713Y-149498D01*
X-20624Y-149476D01*
X-20552Y-149454D01*
X-20496Y-149437D01*
X-20480Y-149432D01*
X-20463Y-149426D01*
X-20457Y-149421D01*
X-20452D01*
X-20363Y-149376D01*
X-20280Y-149326D01*
X-20219Y-149276D01*
X-20163Y-149226D01*
X-20119Y-149188D01*
X-20091Y-149149D01*
X-20074Y-149127D01*
X-20069Y-149121D01*
X-20030Y-149049D01*
X-19991Y-148971D01*
X-19969Y-148888D01*
X-19947Y-148816D01*
X-19930Y-148744D01*
X-19919Y-148694D01*
Y-148672D01*
X-19913Y-148655D01*
Y-148649D01*
Y-148644D01*
X-19436Y-148688D01*
X-19447Y-148827D01*
X-19469Y-148960D01*
X-19503Y-149077D01*
X-19542Y-149182D01*
X-19580Y-149265D01*
X-19597Y-149299D01*
X-19608Y-149326D01*
X-19625Y-149349D01*
X-19630Y-149365D01*
X-19642Y-149376D01*
Y-149382D01*
X-19725Y-149487D01*
X-19814Y-149582D01*
X-19908Y-149659D01*
X-19997Y-149726D01*
X-20074Y-149776D01*
X-20141Y-149809D01*
X-20163Y-149820D01*
X-20180Y-149831D01*
X-20191Y-149837D01*
X-20197D01*
X-20335Y-149887D01*
X-20480Y-149926D01*
X-20624Y-149948D01*
X-20763Y-149970D01*
X-20829Y-149976D01*
X-20885Y-149981D01*
X-20935D01*
X-20979Y-149987D01*
X-21068D01*
X-21218Y-149981D01*
X-21356Y-149965D01*
X-21484Y-149937D01*
X-21589Y-149909D01*
X-21678Y-149887D01*
X-21717Y-149870D01*
X-21750Y-149859D01*
X-21773Y-149848D01*
X-21789Y-149843D01*
X-21800Y-149837D01*
X-21806D01*
X-21923Y-149776D01*
X-22022Y-149709D01*
X-22111Y-149637D01*
X-22183Y-149571D01*
X-22239Y-149515D01*
X-22278Y-149465D01*
X-22306Y-149432D01*
X-22311Y-149426D01*
Y-149421D01*
X-22372Y-149315D01*
X-22416Y-149215D01*
X-22444Y-149121D01*
X-22466Y-149032D01*
X-22478Y-148955D01*
X-22489Y-148894D01*
Y-148871D01*
Y-148855D01*
Y-148849D01*
Y-148844D01*
X-22483Y-148733D01*
X-22466Y-148627D01*
X-22439Y-148533D01*
X-22411Y-148455D01*
X-22378Y-148389D01*
X-22355Y-148339D01*
X-22333Y-148311D01*
X-22328Y-148300D01*
X-22261Y-148216D01*
X-22183Y-148139D01*
X-22100Y-148072D01*
X-22017Y-148011D01*
X-21945Y-147967D01*
X-21884Y-147933D01*
X-21861Y-147922D01*
X-21845Y-147911D01*
X-21834Y-147906D01*
X-21828D01*
X-21784Y-147883D01*
X-21728Y-147867D01*
X-21667Y-147845D01*
X-21601Y-147822D01*
X-21462Y-147784D01*
X-21318Y-147745D01*
X-21251Y-147728D01*
X-21190Y-147711D01*
X-21129Y-147695D01*
X-21079Y-147684D01*
X-21040Y-147673D01*
X-21007Y-147667D01*
X-20985Y-147661D01*
X-20979D01*
X-20868Y-147634D01*
X-20768Y-147611D01*
X-20679Y-147584D01*
X-20602Y-147562D01*
X-20529Y-147534D01*
X-20468Y-147512D01*
X-20413Y-147489D01*
X-20363Y-147473D01*
X-20324Y-147450D01*
X-20291Y-147434D01*
X-20269Y-147423D01*
X-20246Y-147406D01*
X-20219Y-147389D01*
X-20213Y-147384D01*
X-20163Y-147328D01*
X-20130Y-147273D01*
X-20102Y-147218D01*
X-20086Y-147162D01*
X-20074Y-147118D01*
X-20069Y-147079D01*
Y-147056D01*
Y-147045D01*
X-20080Y-146957D01*
X-20102Y-146879D01*
X-20135Y-146812D01*
X-20174Y-146751D01*
X-20208Y-146707D01*
X-20241Y-146668D01*
X-20263Y-146646D01*
X-20274Y-146640D01*
X-20319Y-146613D01*
X-20363Y-146585D01*
X-20468Y-146540D01*
X-20579Y-146513D01*
X-20690Y-146490D01*
X-20790Y-146479D01*
X-20835Y-146474D01*
X-20868Y-146468D01*
X-20946D01*
X-21101Y-146474D01*
X-21240Y-146496D01*
X-21351Y-146529D01*
X-21445Y-146563D01*
X-21517Y-146596D01*
X-21573Y-146629D01*
X-21601Y-146651D01*
X-21612Y-146657D01*
X-21689Y-146735D01*
X-21750Y-146818D01*
X-21800Y-146907D01*
X-21834Y-146995D01*
X-21856Y-147079D01*
X-21873Y-147140D01*
X-21878Y-147168D01*
X-21884Y-147184D01*
Y-147195D01*
Y-147201D01*
X-22372Y-147162D01*
X-22361Y-147040D01*
X-22333Y-146929D01*
X-22306Y-146823D01*
X-22267Y-146735D01*
X-22233Y-146662D01*
X-22206Y-146607D01*
X-22195Y-146590D01*
X-22183Y-146574D01*
X-22178Y-146568D01*
Y-146563D01*
X-22106Y-146468D01*
X-22028Y-146385D01*
X-21945Y-146313D01*
X-21861Y-146257D01*
X-21789Y-146207D01*
X-21734Y-146180D01*
X-21712Y-146168D01*
X-21695Y-146157D01*
X-21684Y-146152D01*
X-21678D01*
X-21556Y-146107D01*
X-21423Y-146074D01*
X-21301Y-146046D01*
X-21184Y-146030D01*
X-21079Y-146019D01*
X-21040D01*
X-21001Y-146013D01*
X-20929D01*
X-20785Y-146019D01*
D02*
G37*
G36*
X-81508Y-126938D02*
X-81501Y-126936D01*
X-81496Y-126939D01*
X-81387Y-126951D01*
X-81284Y-126972D01*
X-81184Y-126998D01*
X-81099Y-127028D01*
X-81031Y-127054D01*
X-80975Y-127080D01*
X-80855Y-127149D01*
X-80793Y-127198D01*
X-80677Y-127297D01*
X-80589Y-127399D01*
X-80515Y-127493D01*
X-80485Y-127542D01*
X-80463Y-127581D01*
X-80440Y-127619D01*
X-80427Y-127652D01*
X-80417Y-127678D01*
X-80408Y-127696D01*
X-80401Y-127706D01*
X-80399Y-127714D01*
X-80360Y-127858D01*
X-80346Y-128000D01*
X-80350Y-128139D01*
X-80363Y-128273D01*
X-80387Y-128381D01*
X-80394Y-128428D01*
X-80404Y-128467D01*
X-80416Y-128498D01*
X-80422Y-128521D01*
X-80426Y-128538D01*
X-80429Y-128542D01*
X-80879Y-128379D01*
X-80837Y-128262D01*
X-80813Y-128154D01*
X-80802Y-128058D01*
X-80800Y-127976D01*
X-80806Y-127908D01*
X-80815Y-127858D01*
X-80821Y-127823D01*
X-80823Y-127815D01*
X-80857Y-127731D01*
X-80902Y-127654D01*
X-80951Y-127594D01*
X-81002Y-127538D01*
X-81055Y-127495D01*
X-81092Y-127461D01*
X-81131Y-127439D01*
X-81220Y-127393D01*
X-81308Y-127368D01*
X-81389Y-127354D01*
X-81461Y-127344D01*
X-81521Y-127348D01*
X-81568Y-127353D01*
X-81603Y-127358D01*
X-81611Y-127360D01*
X-81697Y-127387D01*
X-81772Y-127427D01*
X-81832Y-127476D01*
X-81884Y-127523D01*
X-81924Y-127570D01*
X-81956Y-127603D01*
X-81973Y-127632D01*
X-81976Y-127637D01*
X-81978Y-127641D01*
X-82009Y-127694D01*
X-82027Y-127748D01*
X-82050Y-127843D01*
X-82058Y-127935D01*
X-82056Y-128020D01*
X-82042Y-128085D01*
X-82028Y-128138D01*
X-82015Y-128171D01*
X-82013Y-128179D01*
X-82008Y-128182D01*
X-81952Y-128272D01*
X-81894Y-128350D01*
X-81826Y-128421D01*
X-81762Y-128477D01*
X-81706Y-128523D01*
X-81658Y-128563D01*
X-81596Y-128599D01*
X-81574Y-128605D01*
X-81550Y-128619D01*
X-81710Y-129008D01*
X-81764Y-128957D01*
X-81816Y-128914D01*
X-81859Y-128877D01*
X-81899Y-128847D01*
X-81930Y-128823D01*
X-81973Y-128798D01*
X-82080Y-128749D01*
X-82182Y-128716D01*
X-82280Y-128697D01*
X-82367Y-128692D01*
X-82440Y-128695D01*
X-82495Y-128702D01*
X-82530Y-128707D01*
X-82545Y-128711D01*
X-82649Y-128747D01*
X-82741Y-128797D01*
X-82819Y-128854D01*
X-82883Y-128920D01*
X-82934Y-128974D01*
X-82969Y-129024D01*
X-82985Y-129041D01*
X-82993Y-129055D01*
X-82999Y-129065D01*
X-83002Y-129069D01*
X-83053Y-129181D01*
X-83084Y-129291D01*
X-83103Y-129389D01*
X-83106Y-129483D01*
X-83101Y-129563D01*
X-83097Y-129623D01*
X-83090Y-129666D01*
X-83086Y-129681D01*
X-83047Y-129793D01*
X-82993Y-129888D01*
X-82931Y-129969D01*
X-82868Y-130037D01*
X-82809Y-130090D01*
X-82759Y-130126D01*
X-82743Y-130142D01*
X-82714Y-130158D01*
X-82625Y-130203D01*
X-82532Y-130231D01*
X-82446Y-130249D01*
X-82371Y-130254D01*
X-82309Y-130257D01*
X-82257Y-130255D01*
X-82227Y-130247D01*
X-82214Y-130248D01*
X-82118Y-130214D01*
X-82025Y-130165D01*
X-81935Y-130108D01*
X-81851Y-130041D01*
X-81786Y-129983D01*
X-81757Y-129955D01*
X-81735Y-129929D01*
X-81717Y-129907D01*
X-81701Y-129891D01*
X-81690Y-129884D01*
X-81687Y-129879D01*
X-81309Y-130168D01*
X-81363Y-130239D01*
X-81419Y-130303D01*
X-81541Y-130413D01*
X-81660Y-130498D01*
X-81717Y-130529D01*
X-81773Y-130560D01*
X-81827Y-130587D01*
X-81875Y-130604D01*
X-81919Y-130624D01*
X-81957Y-130634D01*
X-81982Y-130645D01*
X-82005Y-130651D01*
X-82020Y-130655D01*
X-82028Y-130657D01*
X-82110Y-130667D01*
X-82193Y-130677D01*
X-82270Y-130677D01*
X-82349Y-130670D01*
X-82497Y-130649D01*
X-82629Y-130611D01*
X-82687Y-130590D01*
X-82741Y-130572D01*
X-82787Y-130552D01*
X-82828Y-130534D01*
X-82860Y-130523D01*
X-82903Y-130498D01*
X-82992Y-130440D01*
X-83068Y-130383D01*
X-83141Y-130322D01*
X-83207Y-130258D01*
X-83265Y-130192D01*
X-83314Y-130132D01*
X-83360Y-130067D01*
X-83396Y-130008D01*
X-83435Y-129953D01*
X-83462Y-129900D01*
X-83486Y-129853D01*
X-83501Y-129813D01*
X-83514Y-129780D01*
X-83525Y-129754D01*
X-83529Y-129739D01*
X-83531Y-129731D01*
X-83555Y-129640D01*
X-83567Y-129550D01*
X-83575Y-129463D01*
X-83577Y-129378D01*
X-83573Y-129304D01*
X-83565Y-129225D01*
X-83537Y-129087D01*
X-83516Y-129028D01*
X-83498Y-128975D01*
X-83483Y-128926D01*
X-83465Y-128885D01*
X-83454Y-128853D01*
X-83440Y-128829D01*
X-83431Y-128815D01*
X-83429Y-128810D01*
X-83357Y-128697D01*
X-83277Y-128603D01*
X-83195Y-128528D01*
X-83122Y-128468D01*
X-83057Y-128422D01*
X-83000Y-128391D01*
X-82965Y-128373D01*
X-82954Y-128366D01*
X-82845Y-128333D01*
X-82737Y-128312D01*
X-82633Y-128308D01*
X-82534Y-128314D01*
X-82450Y-128324D01*
X-82386Y-128335D01*
X-82363Y-128342D01*
X-82346Y-128345D01*
X-82334Y-128346D01*
X-82329Y-128349D01*
X-82386Y-128258D01*
X-82428Y-128176D01*
X-82458Y-128095D01*
X-82481Y-128024D01*
X-82498Y-127963D01*
X-82507Y-127913D01*
X-82510Y-127885D01*
X-82509Y-127873D01*
X-82509Y-127784D01*
X-82499Y-127700D01*
X-82484Y-127619D01*
X-82463Y-127548D01*
X-82442Y-127489D01*
X-82424Y-127448D01*
X-82408Y-127419D01*
X-82402Y-127410D01*
X-82350Y-127331D01*
X-82288Y-127257D01*
X-82228Y-127196D01*
X-82168Y-127148D01*
X-82113Y-127109D01*
X-82069Y-127076D01*
X-82041Y-127061D01*
X-82030Y-127054D01*
X-81940Y-127010D01*
X-81847Y-126980D01*
X-81758Y-126961D01*
X-81673Y-126946D01*
X-81606Y-126940D01*
X-81546Y-126936D01*
X-81508Y-126938D01*
D02*
G37*
G36*
X-74463Y-130974D02*
X-74438Y-130976D01*
X-74418Y-130974D01*
X-74406Y-130975D01*
X-74401Y-130978D01*
X-74273Y-131001D01*
X-74141Y-131038D01*
X-74021Y-131075D01*
X-73912Y-131119D01*
X-73815Y-131162D01*
X-73782Y-131182D01*
X-73745Y-131196D01*
X-73683Y-131233D01*
X-73560Y-131309D01*
X-73458Y-131388D01*
X-73364Y-131468D01*
X-73283Y-131540D01*
X-73222Y-131601D01*
X-73194Y-131630D01*
X-73176Y-131653D01*
X-73162Y-131674D01*
X-73150Y-131687D01*
X-73144Y-131697D01*
X-73139Y-131700D01*
X-73070Y-131804D01*
X-73014Y-131907D01*
X-72976Y-132006D01*
X-72948Y-132092D01*
X-72933Y-132165D01*
X-72922Y-132223D01*
X-72914Y-132266D01*
X-72912Y-132273D01*
X-72915Y-132278D01*
X-72914Y-132388D01*
X-72927Y-132489D01*
X-72951Y-132584D01*
X-72978Y-132665D01*
X-73004Y-132733D01*
X-73023Y-132786D01*
X-73034Y-132806D01*
X-73042Y-132820D01*
X-73045Y-132825D01*
X-73048Y-132830D01*
X-73099Y-132909D01*
X-73158Y-132977D01*
X-73219Y-133038D01*
X-73274Y-133090D01*
X-73321Y-133126D01*
X-73363Y-133154D01*
X-73391Y-133170D01*
X-73401Y-133176D01*
X-73488Y-133216D01*
X-73582Y-133245D01*
X-73670Y-133265D01*
X-73753Y-133275D01*
X-73823Y-133285D01*
X-73880Y-133284D01*
X-73920Y-133287D01*
X-73928Y-133289D01*
X-73933Y-133286D01*
X-73982Y-133283D01*
X-74037Y-133277D01*
X-74152Y-133256D01*
X-74282Y-133226D01*
X-74407Y-133198D01*
X-74520Y-133171D01*
X-74569Y-133156D01*
X-74613Y-133143D01*
X-74647Y-133136D01*
X-74674Y-133127D01*
X-74691Y-133124D01*
X-74696Y-133121D01*
X-74789Y-133093D01*
X-74877Y-133068D01*
X-74955Y-133048D01*
X-75021Y-133029D01*
X-75087Y-133011D01*
X-75144Y-132997D01*
X-75192Y-132982D01*
X-75235Y-132977D01*
X-75274Y-132967D01*
X-75301Y-132958D01*
X-75347Y-132950D01*
X-75374Y-132941D01*
X-75382Y-132943D01*
X-75470Y-132930D01*
X-75552Y-132928D01*
X-75625Y-132931D01*
X-75680Y-132938D01*
X-75730Y-132947D01*
X-75760Y-132955D01*
X-75783Y-132961D01*
X-75791Y-132963D01*
X-75849Y-132987D01*
X-75901Y-133021D01*
X-75943Y-133061D01*
X-75980Y-133091D01*
X-76007Y-133127D01*
X-76028Y-133153D01*
X-76042Y-133177D01*
X-76045Y-133182D01*
X-76073Y-133242D01*
X-76094Y-133301D01*
X-76108Y-133357D01*
X-76111Y-133407D01*
X-76114Y-133456D01*
X-76113Y-133489D01*
X-76115Y-133513D01*
X-76113Y-133521D01*
X-76102Y-133591D01*
X-76076Y-133657D01*
X-76047Y-133719D01*
X-76024Y-133777D01*
X-75991Y-133822D01*
X-75969Y-133860D01*
X-75950Y-133884D01*
X-75943Y-133894D01*
X-75885Y-133960D01*
X-75819Y-134023D01*
X-75748Y-134077D01*
X-75686Y-134126D01*
X-75631Y-134164D01*
X-75586Y-134196D01*
X-75543Y-134221D01*
X-75434Y-134278D01*
X-75333Y-134324D01*
X-75238Y-134359D01*
X-75150Y-134384D01*
X-75076Y-134401D01*
X-75020Y-134415D01*
X-75003Y-134418D01*
X-74985Y-134422D01*
X-74978Y-134420D01*
X-74973Y-134422D01*
X-74874Y-134428D01*
X-74777Y-134427D01*
X-74699Y-134414D01*
X-74626Y-134398D01*
X-74568Y-134387D01*
X-74525Y-134367D01*
X-74499Y-134356D01*
X-74492Y-134354D01*
X-74422Y-134311D01*
X-74349Y-134263D01*
X-74289Y-134202D01*
X-74233Y-134151D01*
X-74183Y-134097D01*
X-74148Y-134059D01*
X-74137Y-134040D01*
X-74124Y-134028D01*
X-74121Y-134023D01*
X-74118Y-134019D01*
X-73727Y-134296D01*
X-73806Y-134410D01*
X-73892Y-134515D01*
X-73979Y-134599D01*
X-74066Y-134671D01*
X-74141Y-134723D01*
X-74172Y-134744D01*
X-74195Y-134762D01*
X-74221Y-134773D01*
X-74234Y-134785D01*
X-74249Y-134789D01*
X-74252Y-134794D01*
X-74377Y-134844D01*
X-74501Y-134881D01*
X-74621Y-134901D01*
X-74732Y-134914D01*
X-74824Y-134919D01*
X-74898Y-134914D01*
X-74923Y-134913D01*
X-74943Y-134914D01*
X-74955Y-134913D01*
X-74960Y-134910D01*
X-75105Y-134884D01*
X-75250Y-134846D01*
X-75386Y-134793D01*
X-75517Y-134743D01*
X-75577Y-134714D01*
X-75628Y-134691D01*
X-75672Y-134666D01*
X-75713Y-134649D01*
X-75790Y-134605D01*
X-75917Y-134525D01*
X-76029Y-134441D01*
X-76125Y-134353D01*
X-76203Y-134276D01*
X-76268Y-134213D01*
X-76294Y-134179D01*
X-76317Y-134153D01*
X-76331Y-134132D01*
X-76342Y-134119D01*
X-76349Y-134108D01*
X-76354Y-134106D01*
X-76424Y-133995D01*
X-76478Y-133887D01*
X-76518Y-133780D01*
X-76548Y-133686D01*
X-76568Y-133610D01*
X-76577Y-133548D01*
X-76584Y-133505D01*
X-76586Y-133498D01*
X-76583Y-133493D01*
X-76583Y-133371D01*
X-76572Y-133262D01*
X-76549Y-133167D01*
X-76524Y-133079D01*
X-76494Y-133006D01*
X-76473Y-132947D01*
X-76462Y-132928D01*
X-76454Y-132914D01*
X-76451Y-132909D01*
X-76449Y-132904D01*
X-76388Y-132811D01*
X-76321Y-132728D01*
X-76250Y-132660D01*
X-76187Y-132606D01*
X-76125Y-132565D01*
X-76081Y-132533D01*
X-76047Y-132520D01*
X-76037Y-132513D01*
X-75938Y-132475D01*
X-75832Y-132446D01*
X-75726Y-132430D01*
X-75624Y-132419D01*
X-75539Y-132417D01*
X-75469Y-132418D01*
X-75445Y-132420D01*
X-75425Y-132418D01*
X-75412Y-132419D01*
X-75407Y-132422D01*
X-75358Y-132425D01*
X-75302Y-132438D01*
X-75238Y-132450D01*
X-75169Y-132464D01*
X-75029Y-132499D01*
X-74885Y-132538D01*
X-74819Y-132557D01*
X-74758Y-132573D01*
X-74696Y-132589D01*
X-74648Y-132604D01*
X-74608Y-132614D01*
X-74577Y-132626D01*
X-74555Y-132632D01*
X-74550Y-132635D01*
X-74440Y-132667D01*
X-74342Y-132697D01*
X-74252Y-132718D01*
X-74173Y-132737D01*
X-74097Y-132749D01*
X-74033Y-132761D01*
X-73974Y-132769D01*
X-73922Y-132780D01*
X-73877Y-132780D01*
X-73840Y-132782D01*
X-73816Y-132784D01*
X-73788Y-132780D01*
X-73756Y-132780D01*
X-73748Y-132778D01*
X-73677Y-132755D01*
X-73620Y-132723D01*
X-73569Y-132689D01*
X-73527Y-132649D01*
X-73495Y-132616D01*
X-73470Y-132586D01*
X-73459Y-132566D01*
X-73454Y-132557D01*
X-73419Y-132474D01*
X-73399Y-132396D01*
X-73395Y-132322D01*
X-73398Y-132249D01*
X-73405Y-132194D01*
X-73414Y-132144D01*
X-73422Y-132113D01*
X-73429Y-132103D01*
X-73454Y-132057D01*
X-73478Y-132011D01*
X-73547Y-131920D01*
X-73630Y-131840D01*
X-73715Y-131765D01*
X-73796Y-131706D01*
X-73831Y-131679D01*
X-73857Y-131657D01*
X-73925Y-131618D01*
X-74062Y-131545D01*
X-74193Y-131495D01*
X-74306Y-131469D01*
X-74404Y-131450D01*
X-74484Y-131443D01*
X-74548Y-131444D01*
X-74583Y-131449D01*
X-74596Y-131449D01*
X-74702Y-131477D01*
X-74796Y-131519D01*
X-74884Y-131571D01*
X-74957Y-131631D01*
X-75018Y-131692D01*
X-75063Y-131737D01*
X-75082Y-131758D01*
X-75095Y-131769D01*
X-75100Y-131779D01*
X-75103Y-131784D01*
X-75507Y-131506D01*
X-75436Y-131406D01*
X-75357Y-131324D01*
X-75280Y-131246D01*
X-75202Y-131189D01*
X-75137Y-131143D01*
X-75085Y-131108D01*
X-75067Y-131100D01*
X-75049Y-131091D01*
X-75042Y-131089D01*
X-75039Y-131084D01*
X-74929Y-131038D01*
X-74820Y-131005D01*
X-74712Y-130984D01*
X-74612Y-130978D01*
X-74525Y-130971D01*
X-74463Y-130974D01*
D02*
G37*
G36*
X-79200Y-128124D02*
X-79916Y-130562D01*
X-79963Y-130734D01*
X-80012Y-130885D01*
X-80056Y-131026D01*
X-80093Y-131146D01*
X-80106Y-131202D01*
X-80126Y-131249D01*
X-80136Y-131288D01*
X-80148Y-131319D01*
X-80152Y-131349D01*
X-80163Y-131368D01*
X-80164Y-131381D01*
X-80167Y-131385D01*
X-80011Y-131193D01*
X-79848Y-131012D01*
X-79691Y-130840D01*
X-79619Y-130759D01*
X-79543Y-130682D01*
X-79476Y-130611D01*
X-79415Y-130550D01*
X-79360Y-130499D01*
X-79312Y-130449D01*
X-79278Y-130412D01*
X-79249Y-130384D01*
X-79225Y-130365D01*
X-79222Y-130360D01*
X-77777Y-128945D01*
X-77244Y-129253D01*
X-77913Y-131866D01*
X-77919Y-131888D01*
X-77926Y-131923D01*
X-77939Y-131967D01*
X-77954Y-132016D01*
X-77968Y-132072D01*
X-77988Y-132130D01*
X-78021Y-132253D01*
X-78058Y-132372D01*
X-78071Y-132429D01*
X-78084Y-132473D01*
X-78101Y-132514D01*
X-78105Y-132544D01*
X-78111Y-132565D01*
X-78114Y-132570D01*
X-78018Y-132459D01*
X-77922Y-132348D01*
X-77831Y-132247D01*
X-77749Y-132160D01*
X-77712Y-132117D01*
X-77677Y-132079D01*
X-77648Y-132051D01*
X-77624Y-132020D01*
X-77605Y-131999D01*
X-77589Y-131983D01*
X-77579Y-131976D01*
X-77576Y-131971D01*
X-75821Y-130075D01*
X-75365Y-130338D01*
X-78155Y-133162D01*
X-78616Y-132896D01*
X-77855Y-129958D01*
X-77839Y-129884D01*
X-77814Y-129808D01*
X-77795Y-129730D01*
X-77776Y-129664D01*
X-77760Y-129603D01*
X-77744Y-129554D01*
X-77732Y-129522D01*
X-77735Y-129515D01*
X-77732Y-129510D01*
X-77745Y-129522D01*
X-77763Y-129543D01*
X-77808Y-129587D01*
X-77864Y-129639D01*
X-77922Y-129695D01*
X-77972Y-129749D01*
X-78017Y-129794D01*
X-78036Y-129815D01*
X-78049Y-129827D01*
X-78059Y-129833D01*
X-78062Y-129838D01*
X-80222Y-131969D01*
X-80654Y-131719D01*
X-79647Y-127866D01*
X-79200Y-128124D01*
D02*
G37*
G36*
X82928Y-125094D02*
X83033Y-125110D01*
X83121Y-125130D01*
X83192Y-125153D01*
X83248Y-125172D01*
X83289Y-125187D01*
X83297Y-125189D01*
X83299Y-125194D01*
X83394Y-125248D01*
X83475Y-125310D01*
X83547Y-125378D01*
X83603Y-125442D01*
X83648Y-125498D01*
X83686Y-125541D01*
X83697Y-125560D01*
X83705Y-125575D01*
X83708Y-125580D01*
X83711Y-125584D01*
X83753Y-125669D01*
X83783Y-125754D01*
X83805Y-125837D01*
X83822Y-125911D01*
X83831Y-125970D01*
X83834Y-126020D01*
X83833Y-126052D01*
X83834Y-126064D01*
X83825Y-126159D01*
X83803Y-126255D01*
X83776Y-126341D01*
X83743Y-126418D01*
X83717Y-126484D01*
X83688Y-126533D01*
X83670Y-126569D01*
X83668Y-126576D01*
X83663Y-126579D01*
X83636Y-126621D01*
X83604Y-126665D01*
X83527Y-126754D01*
X83436Y-126851D01*
X83350Y-126946D01*
X83270Y-127031D01*
X83233Y-127065D01*
X83200Y-127097D01*
X83176Y-127123D01*
X83155Y-127142D01*
X83144Y-127155D01*
X83139Y-127158D01*
X83068Y-127224D01*
X83002Y-127288D01*
X82946Y-127346D01*
X82897Y-127394D01*
X82847Y-127441D01*
X82808Y-127483D01*
X82770Y-127518D01*
X82745Y-127552D01*
X82717Y-127581D01*
X82695Y-127600D01*
X82665Y-127636D01*
X82644Y-127655D01*
X82642Y-127663D01*
X82586Y-127733D01*
X82543Y-127803D01*
X82510Y-127867D01*
X82488Y-127918D01*
X82471Y-127966D01*
X82463Y-127997D01*
X82457Y-128019D01*
X82455Y-128027D01*
X82446Y-128089D01*
X82450Y-128151D01*
X82463Y-128208D01*
X82471Y-128255D01*
X82488Y-128296D01*
X82500Y-128328D01*
X82514Y-128351D01*
X82517Y-128356D01*
X82555Y-128411D01*
X82595Y-128458D01*
X82637Y-128498D01*
X82679Y-128526D01*
X82720Y-128553D01*
X82748Y-128569D01*
X82769Y-128582D01*
X82777Y-128584D01*
X82843Y-128610D01*
X82913Y-128621D01*
X82981Y-128627D01*
X83043Y-128636D01*
X83098Y-128630D01*
X83143Y-128630D01*
X83172Y-128625D01*
X83184Y-128624D01*
X83270Y-128607D01*
X83358Y-128582D01*
X83441Y-128547D01*
X83514Y-128518D01*
X83574Y-128489D01*
X83625Y-128466D01*
X83668Y-128441D01*
X83771Y-128375D01*
X83862Y-128310D01*
X83940Y-128246D01*
X84006Y-128182D01*
X84057Y-128127D01*
X84097Y-128085D01*
X84109Y-128072D01*
X84120Y-128059D01*
X84122Y-128051D01*
X84127Y-128048D01*
X84182Y-127965D01*
X84229Y-127881D01*
X84257Y-127807D01*
X84280Y-127736D01*
X84299Y-127680D01*
X84303Y-127632D01*
X84307Y-127605D01*
X84309Y-127597D01*
X84306Y-127515D01*
X84301Y-127429D01*
X84279Y-127346D01*
X84262Y-127272D01*
X84240Y-127201D01*
X84225Y-127152D01*
X84214Y-127133D01*
X84210Y-127116D01*
X84207Y-127111D01*
X84205Y-127106D01*
X84640Y-126906D01*
X84700Y-127032D01*
X84747Y-127158D01*
X84777Y-127276D01*
X84796Y-127386D01*
X84804Y-127478D01*
X84806Y-127515D01*
X84811Y-127545D01*
X84807Y-127572D01*
X84811Y-127589D01*
X84807Y-127605D01*
X84809Y-127610D01*
X84790Y-127743D01*
X84760Y-127869D01*
X84717Y-127983D01*
X84674Y-128085D01*
X84632Y-128167D01*
X84590Y-128229D01*
X84577Y-128250D01*
X84568Y-128268D01*
X84561Y-128278D01*
X84556Y-128281D01*
X84461Y-128394D01*
X84355Y-128500D01*
X84242Y-128591D01*
X84133Y-128680D01*
X84078Y-128718D01*
X84032Y-128750D01*
X83989Y-128775D01*
X83953Y-128802D01*
X83877Y-128847D01*
X83744Y-128917D01*
X83615Y-128972D01*
X83491Y-129011D01*
X83386Y-129040D01*
X83298Y-129065D01*
X83256Y-129070D01*
X83222Y-129077D01*
X83197Y-129079D01*
X83180Y-129082D01*
X83167Y-129083D01*
X83162Y-129086D01*
X83031Y-129091D01*
X82911Y-129084D01*
X82798Y-129066D01*
X82702Y-129044D01*
X82626Y-129024D01*
X82568Y-129000D01*
X82527Y-128985D01*
X82520Y-128983D01*
X82517Y-128978D01*
X82411Y-128917D01*
X82323Y-128853D01*
X82252Y-128785D01*
X82188Y-128719D01*
X82140Y-128657D01*
X82099Y-128610D01*
X82088Y-128591D01*
X82080Y-128577D01*
X82077Y-128572D01*
X82074Y-128567D01*
X82024Y-128468D01*
X81985Y-128368D01*
X81962Y-128273D01*
X81947Y-128192D01*
X81943Y-128117D01*
X81937Y-128063D01*
X81943Y-128028D01*
X81942Y-128015D01*
X81958Y-127910D01*
X81986Y-127804D01*
X82025Y-127705D01*
X82067Y-127610D01*
X82107Y-127535D01*
X82143Y-127476D01*
X82157Y-127455D01*
X82166Y-127437D01*
X82173Y-127427D01*
X82178Y-127424D01*
X82205Y-127383D01*
X82245Y-127341D01*
X82286Y-127291D01*
X82333Y-127239D01*
X82434Y-127135D01*
X82539Y-127030D01*
X82588Y-126982D01*
X82633Y-126937D01*
X82678Y-126892D01*
X82715Y-126857D01*
X82743Y-126828D01*
X82770Y-126807D01*
X82786Y-126791D01*
X82791Y-126788D01*
X82873Y-126709D01*
X82948Y-126640D01*
X83012Y-126571D01*
X83068Y-126513D01*
X83116Y-126453D01*
X83158Y-126403D01*
X83195Y-126356D01*
X83230Y-126317D01*
X83253Y-126278D01*
X83273Y-126247D01*
X83287Y-126226D01*
X83298Y-126201D01*
X83313Y-126173D01*
X83315Y-126165D01*
X83331Y-126092D01*
X83332Y-126027D01*
X83328Y-125965D01*
X83315Y-125909D01*
X83302Y-125865D01*
X83288Y-125829D01*
X83276Y-125809D01*
X83271Y-125800D01*
X83217Y-125728D01*
X83159Y-125672D01*
X83097Y-125631D01*
X83033Y-125598D01*
X82982Y-125576D01*
X82933Y-125559D01*
X82903Y-125551D01*
X82891Y-125551D01*
X82838Y-125550D01*
X82786Y-125548D01*
X82672Y-125562D01*
X82562Y-125594D01*
X82455Y-125630D01*
X82363Y-125670D01*
X82322Y-125688D01*
X82290Y-125699D01*
X82223Y-125738D01*
X82091Y-125821D01*
X81982Y-125909D01*
X81903Y-125994D01*
X81838Y-126070D01*
X81792Y-126135D01*
X81760Y-126191D01*
X81747Y-126224D01*
X81740Y-126235D01*
X81712Y-126341D01*
X81701Y-126443D01*
X81702Y-126545D01*
X81718Y-126639D01*
X81740Y-126722D01*
X81756Y-126783D01*
X81765Y-126810D01*
X81769Y-126827D01*
X81774Y-126837D01*
X81777Y-126842D01*
X81335Y-127052D01*
X81283Y-126941D01*
X81252Y-126831D01*
X81223Y-126726D01*
X81212Y-126629D01*
X81205Y-126550D01*
X81201Y-126488D01*
X81203Y-126468D01*
X81204Y-126448D01*
X81206Y-126441D01*
X81203Y-126436D01*
X81218Y-126318D01*
X81244Y-126207D01*
X81280Y-126103D01*
X81324Y-126014D01*
X81362Y-125934D01*
X81396Y-125882D01*
X81410Y-125862D01*
X81419Y-125844D01*
X81425Y-125833D01*
X81430Y-125831D01*
X81514Y-125731D01*
X81613Y-125636D01*
X81704Y-125550D01*
X81797Y-125478D01*
X81883Y-125416D01*
X81916Y-125396D01*
X81947Y-125372D01*
X82010Y-125336D01*
X82138Y-125268D01*
X82256Y-125219D01*
X82373Y-125177D01*
X82476Y-125144D01*
X82559Y-125121D01*
X82598Y-125111D01*
X82628Y-125107D01*
X82652Y-125106D01*
X82670Y-125102D01*
X82682Y-125101D01*
X82687Y-125099D01*
X82811Y-125091D01*
X82928Y-125094D01*
D02*
G37*
G36*
X81445Y-130174D02*
X80983Y-130440D01*
X78819Y-128312D01*
X78764Y-128261D01*
X78711Y-128202D01*
X78653Y-128146D01*
X78605Y-128096D01*
X78560Y-128052D01*
X78525Y-128014D01*
X78504Y-127988D01*
X78496Y-127986D01*
X78494Y-127981D01*
X78497Y-127998D01*
X78506Y-128025D01*
X78522Y-128086D01*
X78539Y-128160D01*
X78559Y-128238D01*
X78580Y-128309D01*
X78597Y-128370D01*
X78606Y-128397D01*
X78609Y-128414D01*
X78610Y-128427D01*
X78613Y-128431D01*
X79378Y-131367D01*
X78945Y-131617D01*
X76112Y-128818D01*
X76559Y-128560D01*
X78313Y-130399D01*
X78437Y-130526D01*
X78544Y-130644D01*
X78645Y-130752D01*
X78730Y-130844D01*
X78772Y-130884D01*
X78802Y-130924D01*
X78831Y-130952D01*
X78852Y-130978D01*
X78876Y-130997D01*
X78887Y-131016D01*
X78897Y-131023D01*
X78900Y-131028D01*
X78812Y-130797D01*
X78736Y-130565D01*
X78665Y-130343D01*
X78632Y-130240D01*
X78603Y-130135D01*
X78575Y-130043D01*
X78553Y-129959D01*
X78536Y-129886D01*
X78517Y-129820D01*
X78501Y-129771D01*
X78492Y-129732D01*
X78487Y-129702D01*
X78485Y-129697D01*
X77982Y-127738D01*
X78515Y-127430D01*
X80444Y-129316D01*
X80459Y-129333D01*
X80486Y-129356D01*
X80518Y-129389D01*
X80552Y-129427D01*
X80594Y-129466D01*
X80634Y-129514D01*
X80724Y-129603D01*
X80809Y-129695D01*
X80852Y-129734D01*
X80883Y-129767D01*
X80910Y-129803D01*
X80934Y-129821D01*
X80950Y-129838D01*
X80953Y-129843D01*
X80904Y-129704D01*
X80856Y-129565D01*
X80814Y-129436D01*
X80779Y-129321D01*
X80761Y-129267D01*
X80746Y-129218D01*
X80736Y-129179D01*
X80722Y-129143D01*
X80712Y-129116D01*
X80706Y-129094D01*
X80705Y-129082D01*
X80703Y-129077D01*
X79938Y-126609D01*
X80395Y-126345D01*
X81445Y-130174D01*
D02*
G37*
G36*
X75502Y-129382D02*
X75547Y-129381D01*
X75586Y-129384D01*
X75619Y-129385D01*
X75642Y-129391D01*
X75654Y-129390D01*
X75662Y-129392D01*
X75737Y-129412D01*
X75811Y-129440D01*
X75888Y-129473D01*
X75955Y-129511D01*
X76079Y-129593D01*
X76184Y-129686D01*
X76229Y-129731D01*
X76274Y-129775D01*
X76309Y-129813D01*
X76340Y-129846D01*
X76364Y-129877D01*
X76378Y-129901D01*
X76392Y-129912D01*
X76394Y-129917D01*
X76001Y-130202D01*
X75928Y-130097D01*
X75853Y-130012D01*
X75774Y-129942D01*
X75702Y-129894D01*
X75639Y-129853D01*
X75589Y-129831D01*
X75555Y-129818D01*
X75540Y-129814D01*
X75435Y-129798D01*
X75333Y-129799D01*
X75232Y-129813D01*
X75149Y-129835D01*
X75073Y-129860D01*
X75013Y-129888D01*
X74991Y-129895D01*
X74962Y-129911D01*
X74864Y-129974D01*
X74783Y-130046D01*
X74723Y-130120D01*
X74673Y-130187D01*
X74639Y-130251D01*
X74619Y-130295D01*
X74606Y-130328D01*
X74602Y-130343D01*
X74583Y-130444D01*
X74579Y-130536D01*
X74584Y-130623D01*
X74604Y-130701D01*
X74620Y-130762D01*
X74643Y-130813D01*
X74655Y-130845D01*
X74657Y-130850D01*
X74660Y-130854D01*
X74720Y-130935D01*
X74792Y-131016D01*
X74873Y-131078D01*
X74951Y-131135D01*
X75025Y-131176D01*
X75089Y-131209D01*
X75110Y-131223D01*
X75128Y-131232D01*
X75140Y-131231D01*
X75143Y-131236D01*
X75212Y-131266D01*
X75291Y-131291D01*
X75377Y-131319D01*
X75468Y-131343D01*
X75655Y-131389D01*
X75841Y-131435D01*
X75934Y-131452D01*
X76015Y-131469D01*
X76093Y-131482D01*
X76158Y-131495D01*
X76209Y-131505D01*
X76251Y-131512D01*
X76279Y-131516D01*
X76287Y-131518D01*
X76465Y-131549D01*
X76631Y-131581D01*
X76772Y-131615D01*
X76886Y-131646D01*
X76985Y-131672D01*
X77053Y-131691D01*
X77093Y-131705D01*
X77106Y-131705D01*
X77109Y-131710D01*
X77223Y-131752D01*
X77320Y-131799D01*
X77413Y-131848D01*
X77490Y-131893D01*
X77552Y-131934D01*
X77596Y-131966D01*
X77623Y-131989D01*
X77630Y-131992D01*
X77633Y-131996D01*
X77683Y-132038D01*
X77720Y-132081D01*
X77758Y-132123D01*
X77787Y-132164D01*
X77814Y-132199D01*
X77831Y-132228D01*
X77842Y-132247D01*
X77845Y-132252D01*
X75639Y-133526D01*
X75411Y-133132D01*
X77050Y-132185D01*
X76945Y-132137D01*
X76897Y-132120D01*
X76854Y-132100D01*
X76813Y-132085D01*
X76783Y-132077D01*
X76760Y-132071D01*
X76752Y-132069D01*
X76714Y-132059D01*
X76672Y-132052D01*
X76568Y-132028D01*
X76450Y-132000D01*
X76326Y-131975D01*
X76213Y-131957D01*
X76163Y-131948D01*
X76118Y-131936D01*
X76082Y-131930D01*
X76055Y-131927D01*
X76040Y-131923D01*
X76032Y-131921D01*
X75916Y-131898D01*
X75803Y-131880D01*
X75700Y-131856D01*
X75607Y-131839D01*
X75519Y-131820D01*
X75443Y-131799D01*
X75370Y-131784D01*
X75309Y-131768D01*
X75249Y-131752D01*
X75203Y-131739D01*
X75165Y-131729D01*
X75127Y-131719D01*
X75087Y-131704D01*
X75072Y-131700D01*
X74957Y-131657D01*
X74858Y-131618D01*
X74768Y-131574D01*
X74696Y-131538D01*
X74637Y-131502D01*
X74596Y-131475D01*
X74572Y-131456D01*
X74562Y-131450D01*
X74491Y-131394D01*
X74430Y-131333D01*
X74372Y-131277D01*
X74329Y-131225D01*
X74294Y-131175D01*
X74267Y-131139D01*
X74253Y-131115D01*
X74248Y-131105D01*
X74211Y-131030D01*
X74182Y-130958D01*
X74152Y-130885D01*
X74138Y-130816D01*
X74120Y-130673D01*
X74115Y-130554D01*
X74119Y-130494D01*
X74124Y-130447D01*
X74128Y-130399D01*
X74138Y-130361D01*
X74146Y-130331D01*
X74145Y-130306D01*
X74152Y-130296D01*
X74154Y-130288D01*
X74179Y-130209D01*
X74212Y-130133D01*
X74255Y-130063D01*
X74301Y-129998D01*
X74398Y-129878D01*
X74503Y-129772D01*
X74551Y-129732D01*
X74598Y-129692D01*
X74643Y-129659D01*
X74679Y-129632D01*
X74710Y-129608D01*
X74758Y-129580D01*
X74847Y-129535D01*
X74932Y-129493D01*
X75017Y-129463D01*
X75097Y-129436D01*
X75176Y-129416D01*
X75249Y-129399D01*
X75321Y-129390D01*
X75388Y-129384D01*
X75450Y-129380D01*
X75502Y-129382D01*
D02*
G37*
G36*
X-79968Y125734D02*
X-79907Y125645D01*
X-79835Y125557D01*
X-79768Y125479D01*
X-79702Y125412D01*
X-79652Y125357D01*
X-79629Y125340D01*
X-79613Y125324D01*
X-79607Y125318D01*
X-79602Y125312D01*
X-79485Y125218D01*
X-79369Y125129D01*
X-79258Y125052D01*
X-79147Y124991D01*
X-79052Y124935D01*
X-79014Y124913D01*
X-78980Y124896D01*
X-78952Y124880D01*
X-78930Y124874D01*
X-78919Y124863D01*
X-78913D01*
Y124408D01*
X-78997Y124441D01*
X-79080Y124480D01*
X-79163Y124519D01*
X-79241Y124558D01*
X-79308Y124591D01*
X-79363Y124619D01*
X-79396Y124641D01*
X-79402Y124646D01*
X-79408D01*
X-79507Y124707D01*
X-79596Y124769D01*
X-79674Y124824D01*
X-79735Y124874D01*
X-79790Y124913D01*
X-79824Y124946D01*
X-79852Y124968D01*
X-79857Y124974D01*
Y121971D01*
X-80329D01*
Y125829D01*
X-80024D01*
X-79968Y125734D01*
D02*
G37*
G36*
X-74890Y121971D02*
X-75400D01*
Y123781D01*
X-77387D01*
Y121971D01*
X-77898D01*
Y125812D01*
X-77387D01*
Y124236D01*
X-75400D01*
Y125812D01*
X-74890D01*
Y121971D01*
D02*
G37*
G36*
X-71271D02*
X-72736D01*
X-72870Y121977D01*
X-72986Y121983D01*
X-73092Y121994D01*
X-73180Y122005D01*
X-73252Y122016D01*
X-73308Y122021D01*
X-73341Y122032D01*
X-73352D01*
X-73447Y122060D01*
X-73524Y122088D01*
X-73597Y122121D01*
X-73658Y122154D01*
X-73708Y122177D01*
X-73747Y122199D01*
X-73769Y122216D01*
X-73774Y122221D01*
X-73835Y122271D01*
X-73891Y122332D01*
X-73935Y122393D01*
X-73980Y122449D01*
X-74013Y122504D01*
X-74035Y122543D01*
X-74052Y122571D01*
X-74057Y122582D01*
X-74096Y122671D01*
X-74124Y122759D01*
X-74146Y122843D01*
X-74157Y122920D01*
X-74168Y122987D01*
X-74174Y123043D01*
Y123076D01*
Y123081D01*
Y123087D01*
X-74168Y123209D01*
X-74146Y123320D01*
X-74113Y123414D01*
X-74080Y123503D01*
X-74046Y123570D01*
X-74013Y123620D01*
X-73991Y123653D01*
X-73985Y123664D01*
X-73907Y123753D01*
X-73824Y123825D01*
X-73730Y123886D01*
X-73647Y123936D01*
X-73569Y123975D01*
X-73502Y123997D01*
X-73480Y124008D01*
X-73463Y124014D01*
X-73452Y124019D01*
X-73447D01*
X-73541Y124075D01*
X-73624Y124130D01*
X-73691Y124191D01*
X-73747Y124247D01*
X-73791Y124291D01*
X-73824Y124336D01*
X-73841Y124358D01*
X-73846Y124369D01*
X-73891Y124452D01*
X-73924Y124530D01*
X-73952Y124608D01*
X-73968Y124680D01*
X-73980Y124741D01*
X-73985Y124791D01*
Y124819D01*
Y124830D01*
X-73980Y124924D01*
X-73963Y125018D01*
X-73935Y125102D01*
X-73907Y125179D01*
X-73880Y125246D01*
X-73852Y125290D01*
X-73835Y125324D01*
X-73830Y125335D01*
X-73769Y125418D01*
X-73702Y125496D01*
X-73630Y125557D01*
X-73563Y125607D01*
X-73508Y125645D01*
X-73458Y125673D01*
X-73425Y125690D01*
X-73419Y125695D01*
X-73413D01*
X-73308Y125734D01*
X-73191Y125762D01*
X-73075Y125784D01*
X-72964Y125795D01*
X-72864Y125806D01*
X-72820D01*
X-72781Y125812D01*
X-71271D01*
Y121971D01*
D02*
G37*
%LPC*%
G36*
X-75740Y119280D02*
X-76950D01*
X-77100Y119274D01*
X-77227Y119252D01*
X-77338Y119224D01*
X-77422Y119191D01*
X-77494Y119158D01*
X-77538Y119130D01*
X-77566Y119108D01*
X-77577Y119102D01*
X-77644Y119030D01*
X-77693Y118958D01*
X-77727Y118880D01*
X-77754Y118814D01*
X-77766Y118747D01*
X-77771Y118697D01*
X-77777Y118664D01*
Y118658D01*
Y118653D01*
X-77771Y118586D01*
X-77760Y118519D01*
X-77743Y118464D01*
X-77727Y118414D01*
X-77705Y118370D01*
X-77688Y118336D01*
X-77677Y118314D01*
X-77671Y118309D01*
X-77632Y118253D01*
X-77583Y118203D01*
X-77533Y118164D01*
X-77483Y118131D01*
X-77438Y118109D01*
X-77405Y118092D01*
X-77383Y118081D01*
X-77372Y118076D01*
X-77294Y118053D01*
X-77205Y118037D01*
X-77116Y118026D01*
X-77027Y118020D01*
X-76950Y118015D01*
X-76883Y118009D01*
X-75740D01*
Y119280D01*
D02*
G37*
G36*
X-89077Y119335D02*
X-89110D01*
X-89171Y119330D01*
X-89232Y119324D01*
X-89288Y119308D01*
X-89337Y119285D01*
X-89432Y119235D01*
X-89515Y119180D01*
X-89576Y119119D01*
X-89626Y119069D01*
X-89643Y119047D01*
X-89654Y119030D01*
X-89665Y119025D01*
Y119019D01*
X-89704Y118952D01*
X-89737Y118875D01*
X-89770Y118786D01*
X-89793Y118692D01*
X-89815Y118592D01*
X-89831Y118486D01*
X-89859Y118275D01*
X-89870Y118170D01*
X-89876Y118076D01*
X-89881Y117987D01*
Y117915D01*
X-89887Y117848D01*
Y117798D01*
Y117770D01*
Y117765D01*
Y117759D01*
Y117587D01*
X-89876Y117432D01*
X-89865Y117293D01*
X-89854Y117160D01*
X-89837Y117049D01*
X-89815Y116943D01*
X-89793Y116855D01*
X-89776Y116771D01*
X-89754Y116705D01*
X-89731Y116649D01*
X-89715Y116599D01*
X-89693Y116560D01*
X-89682Y116533D01*
X-89670Y116516D01*
X-89659Y116505D01*
Y116499D01*
X-89615Y116444D01*
X-89570Y116399D01*
X-89526Y116355D01*
X-89482Y116322D01*
X-89387Y116266D01*
X-89304Y116227D01*
X-89226Y116205D01*
X-89171Y116194D01*
X-89149Y116189D01*
X-89115D01*
X-89054Y116194D01*
X-88999Y116200D01*
X-88893Y116238D01*
X-88799Y116288D01*
X-88716Y116344D01*
X-88655Y116399D01*
X-88605Y116449D01*
X-88577Y116488D01*
X-88566Y116494D01*
Y116499D01*
X-88527Y116566D01*
X-88494Y116644D01*
X-88460Y116732D01*
X-88438Y116827D01*
X-88416Y116927D01*
X-88399Y117032D01*
X-88372Y117249D01*
X-88361Y117349D01*
X-88355Y117443D01*
X-88349Y117532D01*
Y117604D01*
X-88344Y117670D01*
Y117720D01*
Y117748D01*
Y117759D01*
X-88349Y117931D01*
X-88355Y118087D01*
X-88366Y118231D01*
X-88383Y118364D01*
X-88399Y118481D01*
X-88422Y118586D01*
X-88444Y118680D01*
X-88466Y118764D01*
X-88488Y118836D01*
X-88505Y118897D01*
X-88527Y118947D01*
X-88544Y118991D01*
X-88560Y119019D01*
X-88572Y119041D01*
X-88583Y119052D01*
Y119058D01*
X-88621Y119108D01*
X-88660Y119152D01*
X-88705Y119185D01*
X-88749Y119219D01*
X-88838Y119269D01*
X-88921Y119302D01*
X-88993Y119319D01*
X-89054Y119330D01*
X-89077Y119335D01*
D02*
G37*
G36*
X-71981Y-89920D02*
X-72099D01*
X-72173Y-89934D01*
X-72314Y-89971D01*
X-72440Y-90031D01*
X-72543Y-90090D01*
X-72632Y-90156D01*
X-72699Y-90216D01*
X-72736Y-90253D01*
X-72751Y-90260D01*
Y-90267D01*
X-72802Y-90334D01*
X-72854Y-90408D01*
X-72928Y-90578D01*
X-72980Y-90748D01*
X-73017Y-90919D01*
X-73039Y-91067D01*
X-73047Y-91133D01*
Y-91192D01*
X-73054Y-91237D01*
Y-91274D01*
Y-91296D01*
Y-91303D01*
Y-91429D01*
X-73039Y-91555D01*
X-73024Y-91666D01*
X-73010Y-91762D01*
X-72987Y-91858D01*
X-72958Y-91947D01*
X-72936Y-92021D01*
X-72906Y-92088D01*
X-72876Y-92154D01*
X-72854Y-92206D01*
X-72825Y-92251D01*
X-72802Y-92280D01*
X-72788Y-92310D01*
X-72773Y-92332D01*
X-72758Y-92339D01*
Y-92347D01*
X-72699Y-92406D01*
X-72640Y-92458D01*
X-72521Y-92539D01*
X-72395Y-92598D01*
X-72284Y-92635D01*
X-72181Y-92665D01*
X-72099Y-92672D01*
X-72070Y-92680D01*
X-72025D01*
X-71944Y-92672D01*
X-71870Y-92665D01*
X-71729Y-92628D01*
X-71604Y-92576D01*
X-71500Y-92510D01*
X-71411Y-92450D01*
X-71352Y-92399D01*
X-71315Y-92362D01*
X-71300Y-92347D01*
X-71248Y-92280D01*
X-71204Y-92206D01*
X-71130Y-92036D01*
X-71086Y-91866D01*
X-71049Y-91688D01*
X-71026Y-91533D01*
X-71019Y-91459D01*
Y-91400D01*
X-71012Y-91348D01*
Y-91311D01*
Y-91289D01*
Y-91281D01*
Y-91155D01*
X-71026Y-91044D01*
X-71041Y-90941D01*
X-71056Y-90837D01*
X-71078Y-90748D01*
X-71100Y-90667D01*
X-71130Y-90586D01*
X-71160Y-90519D01*
X-71182Y-90460D01*
X-71211Y-90408D01*
X-71234Y-90364D01*
X-71256Y-90334D01*
X-71271Y-90304D01*
X-71285Y-90282D01*
X-71300Y-90275D01*
Y-90267D01*
X-71359Y-90208D01*
X-71419Y-90149D01*
X-71537Y-90068D01*
X-71655Y-90001D01*
X-71774Y-89964D01*
X-71870Y-89934D01*
X-71951Y-89927D01*
X-71981Y-89920D01*
D02*
G37*
G36*
X-80942Y-91333D02*
X-80950D01*
X-80942Y-91570D01*
X-80935Y-91718D01*
X-80928Y-91844D01*
X-80913Y-91947D01*
X-80891Y-92036D01*
X-80868Y-92103D01*
X-80854Y-92154D01*
X-80846Y-92184D01*
X-80839Y-92191D01*
X-80780Y-92288D01*
X-80720Y-92376D01*
X-80646Y-92450D01*
X-80580Y-92510D01*
X-80521Y-92561D01*
X-80469Y-92598D01*
X-80439Y-92621D01*
X-80424Y-92628D01*
X-80313Y-92680D01*
X-80202Y-92717D01*
X-80099Y-92746D01*
X-79995Y-92761D01*
X-79914Y-92776D01*
X-79840Y-92783D01*
X-79781D01*
X-79647Y-92776D01*
X-79536Y-92761D01*
X-79440Y-92732D01*
X-79359Y-92702D01*
X-79300Y-92672D01*
X-79255Y-92643D01*
X-79226Y-92628D01*
X-79218Y-92621D01*
X-79159Y-92554D01*
X-79115Y-92480D01*
X-79078Y-92413D01*
X-79055Y-92347D01*
X-79041Y-92288D01*
X-79033Y-92243D01*
Y-92206D01*
Y-92199D01*
X-79041Y-92140D01*
X-79048Y-92080D01*
X-79063Y-92036D01*
X-79078Y-91992D01*
X-79092Y-91955D01*
X-79100Y-91925D01*
X-79115Y-91910D01*
Y-91903D01*
X-79189Y-91814D01*
X-79277Y-91755D01*
X-79307Y-91733D01*
X-79337Y-91718D01*
X-79359Y-91703D01*
X-79366D01*
X-79440Y-91673D01*
X-79522Y-91651D01*
X-79610Y-91629D01*
X-79699Y-91614D01*
X-79781Y-91599D01*
X-79855Y-91585D01*
X-79899Y-91577D01*
X-79914D01*
X-80040Y-91555D01*
X-80158Y-91540D01*
X-80262Y-91518D01*
X-80365Y-91496D01*
X-80461Y-91474D01*
X-80543Y-91451D01*
X-80624Y-91437D01*
X-80691Y-91414D01*
X-80750Y-91400D01*
X-80802Y-91385D01*
X-80846Y-91370D01*
X-80883Y-91355D01*
X-80913Y-91348D01*
X-80935Y-91340D01*
X-80942Y-91333D01*
D02*
G37*
G36*
X-75508Y-106740D02*
X-75552D01*
X-75641Y-106748D01*
X-75722Y-106755D01*
X-75870Y-106792D01*
X-76003Y-106851D01*
X-76114Y-106918D01*
X-76203Y-106985D01*
X-76270Y-107036D01*
X-76314Y-107081D01*
X-76329Y-107088D01*
Y-107096D01*
X-76388Y-107162D01*
X-76433Y-107244D01*
X-76514Y-107406D01*
X-76573Y-107584D01*
X-76610Y-107747D01*
X-76632Y-107902D01*
X-76640Y-107969D01*
Y-108028D01*
X-76647Y-108072D01*
Y-108109D01*
Y-108132D01*
Y-108139D01*
Y-108272D01*
X-76632Y-108398D01*
X-76618Y-108509D01*
X-76595Y-108620D01*
X-76573Y-108716D01*
X-76544Y-108805D01*
X-76521Y-108886D01*
X-76492Y-108960D01*
X-76462Y-109020D01*
X-76433Y-109079D01*
X-76403Y-109123D01*
X-76381Y-109160D01*
X-76359Y-109190D01*
X-76344Y-109212D01*
X-76336Y-109219D01*
X-76329Y-109227D01*
X-76270Y-109286D01*
X-76203Y-109345D01*
X-76077Y-109434D01*
X-75944Y-109493D01*
X-75826Y-109538D01*
X-75715Y-109560D01*
X-75633Y-109575D01*
X-75596Y-109582D01*
X-75552D01*
X-75463Y-109575D01*
X-75382Y-109567D01*
X-75226Y-109530D01*
X-75093Y-109471D01*
X-74982Y-109404D01*
X-74893Y-109345D01*
X-74827Y-109286D01*
X-74782Y-109249D01*
X-74775Y-109234D01*
X-74768D01*
X-74716Y-109160D01*
X-74664Y-109086D01*
X-74590Y-108916D01*
X-74531Y-108738D01*
X-74494Y-108561D01*
X-74472Y-108405D01*
X-74464Y-108339D01*
Y-108280D01*
X-74457Y-108228D01*
Y-108191D01*
Y-108169D01*
Y-108161D01*
X-74464Y-108035D01*
X-74472Y-107910D01*
X-74486Y-107799D01*
X-74509Y-107695D01*
X-74531Y-107599D01*
X-74553Y-107510D01*
X-74583Y-107436D01*
X-74612Y-107362D01*
X-74642Y-107303D01*
X-74671Y-107244D01*
X-74694Y-107199D01*
X-74716Y-107162D01*
X-74738Y-107133D01*
X-74753Y-107110D01*
X-74768Y-107103D01*
Y-107096D01*
X-74827Y-107036D01*
X-74893Y-106977D01*
X-75019Y-106888D01*
X-75152Y-106829D01*
X-75278Y-106785D01*
X-75389Y-106755D01*
X-75471Y-106748D01*
X-75508Y-106740D01*
D02*
G37*
G36*
X-65281Y-97168D02*
X-66894D01*
X-67094Y-97175D01*
X-67264Y-97205D01*
X-67412Y-97242D01*
X-67523Y-97286D01*
X-67619Y-97330D01*
X-67678Y-97367D01*
X-67715Y-97397D01*
X-67730Y-97404D01*
X-67819Y-97501D01*
X-67886Y-97597D01*
X-67930Y-97700D01*
X-67967Y-97789D01*
X-67982Y-97878D01*
X-67989Y-97945D01*
X-67997Y-97989D01*
Y-97996D01*
Y-98004D01*
X-67989Y-98093D01*
X-67974Y-98181D01*
X-67952Y-98255D01*
X-67930Y-98322D01*
X-67900Y-98381D01*
X-67878Y-98426D01*
X-67863Y-98455D01*
X-67856Y-98463D01*
X-67804Y-98537D01*
X-67738Y-98603D01*
X-67671Y-98655D01*
X-67604Y-98699D01*
X-67545Y-98729D01*
X-67501Y-98751D01*
X-67471Y-98766D01*
X-67456Y-98773D01*
X-67353Y-98803D01*
X-67234Y-98825D01*
X-67116Y-98840D01*
X-66998Y-98847D01*
X-66894Y-98855D01*
X-66805Y-98862D01*
X-65281D01*
Y-97168D01*
D02*
G37*
G36*
X-29570Y-146846D02*
Y-148566D01*
X-28361D01*
X-29570Y-146846D01*
D02*
G37*
G36*
X-71782Y125357D02*
X-72692D01*
X-72814Y125346D01*
X-72909Y125340D01*
X-72992Y125329D01*
X-73053Y125318D01*
X-73092Y125312D01*
X-73119Y125301D01*
X-73125D01*
X-73186Y125279D01*
X-73241Y125246D01*
X-73286Y125213D01*
X-73325Y125179D01*
X-73352Y125152D01*
X-73375Y125124D01*
X-73386Y125107D01*
X-73391Y125102D01*
X-73425Y125046D01*
X-73447Y124991D01*
X-73463Y124935D01*
X-73475Y124880D01*
X-73480Y124835D01*
X-73486Y124802D01*
Y124780D01*
Y124769D01*
X-73480Y124696D01*
X-73469Y124630D01*
X-73452Y124574D01*
X-73436Y124530D01*
X-73419Y124491D01*
X-73402Y124458D01*
X-73391Y124441D01*
X-73386Y124436D01*
X-73347Y124391D01*
X-73297Y124347D01*
X-73247Y124313D01*
X-73203Y124291D01*
X-73158Y124269D01*
X-73125Y124252D01*
X-73103Y124247D01*
X-73092Y124241D01*
X-73031Y124230D01*
X-72953Y124219D01*
X-72875Y124214D01*
X-72798Y124208D01*
X-72725Y124203D01*
X-71782D01*
Y125357D01*
D02*
G37*
G36*
Y123747D02*
X-72792D01*
X-72909Y123736D01*
X-73003Y123725D01*
X-73080Y123714D01*
X-73141Y123703D01*
X-73191Y123692D01*
X-73214Y123686D01*
X-73225Y123681D01*
X-73297Y123653D01*
X-73358Y123620D01*
X-73413Y123581D01*
X-73458Y123542D01*
X-73491Y123509D01*
X-73513Y123481D01*
X-73530Y123459D01*
X-73536Y123453D01*
X-73575Y123392D01*
X-73602Y123331D01*
X-73624Y123270D01*
X-73636Y123215D01*
X-73647Y123165D01*
X-73652Y123120D01*
Y123098D01*
Y123087D01*
X-73647Y123020D01*
X-73641Y122954D01*
X-73630Y122898D01*
X-73613Y122854D01*
X-73597Y122815D01*
X-73586Y122782D01*
X-73580Y122765D01*
X-73575Y122759D01*
X-73541Y122710D01*
X-73513Y122665D01*
X-73475Y122632D01*
X-73447Y122599D01*
X-73419Y122576D01*
X-73397Y122560D01*
X-73380Y122549D01*
X-73375Y122543D01*
X-73280Y122499D01*
X-73186Y122465D01*
X-73147Y122454D01*
X-73114Y122449D01*
X-73092Y122443D01*
X-73086D01*
X-73042Y122438D01*
X-72992Y122432D01*
X-72875Y122426D01*
X-71782D01*
Y123747D01*
D02*
G37*
%LPD*%
D10*
X-75529Y-145642D02*
G03*
X-75726Y-145983I-98J-170D01*
G01*
D02*
G03*
X-75529Y-145642I98J170D01*
G01*
X35827Y-159811D02*
G03*
X35827Y-160205I0J-197D01*
G01*
D02*
G03*
X35827Y-159811I0J197D01*
G01*
X-65412Y120300D02*
G03*
X-65806Y120300I-197J0D01*
G01*
D02*
G03*
X-65412Y120300I197J0D01*
G01*
X94479Y-135156D02*
G03*
X94282Y-134815I-98J170D01*
G01*
D02*
G03*
X94479Y-135156I98J-170D01*
G01*
X-14173Y-160205D02*
G03*
X-14173Y-159811I0J197D01*
G01*
D02*
G03*
X-14173Y-160205I0J-197D01*
G01*
X-48732Y-103043D02*
Y-95957D01*
X-47551Y-103043D02*
Y-95957D01*
X-60543D02*
X-47551D01*
X-60543Y-103043D02*
X-47551D01*
X-60543D02*
Y-95957D01*
X-48775Y-111543D02*
Y-104457D01*
X-47594Y-111543D02*
Y-104457D01*
X-60586D02*
X-47594D01*
X-60586Y-111543D02*
X-47594D01*
X-60586D02*
Y-104457D01*
X-48732Y-94543D02*
Y-87457D01*
X-47551Y-94543D02*
Y-87457D01*
X-60543D02*
X-47551D01*
X-60543Y-94543D02*
X-47551D01*
X-60543D02*
Y-87457D01*
D13*
X-85292Y-117275D02*
X-64834Y-129086D01*
X-93166Y-130914D02*
X-85292Y-117275D01*
X-72708Y-142725D02*
X-64834Y-129086D01*
X-93166Y-130914D02*
X-72708Y-142725D01*
X13189Y-140126D02*
X36811D01*
X13189Y-155874D02*
Y-140126D01*
X36811Y-155874D02*
Y-140126D01*
X13189Y-155874D02*
X36811D01*
X-7538Y143922D02*
X-3601Y148646D01*
X4273D01*
Y134080D02*
Y148646D01*
Y134080D02*
X5238Y132111D01*
Y128174D02*
Y132111D01*
Y108489D02*
Y112426D01*
X4273Y106520D02*
X5238Y108489D01*
X4273Y91954D02*
Y106520D01*
X-3601Y91954D02*
X4273D01*
X-7538Y96678D02*
X-3601Y91954D01*
X72708Y-142725D02*
X93166Y-130914D01*
X85292Y-117275D02*
X93166Y-130914D01*
X64834Y-129086D02*
X72708Y-142725D01*
X64834Y-129086D02*
X85292Y-117275D01*
X-36811Y-155874D02*
X-13189D01*
Y-140126D01*
X-36811Y-155874D02*
Y-140126D01*
X-13189D01*
D18*
X-126000Y-72835D02*
Y72835D01*
Y-72835D02*
X-112205D01*
X-126000Y72835D02*
X-112205D01*
X126000Y-72835D02*
Y72835D01*
X112205Y-72835D02*
X126000D01*
X112205Y72835D02*
X126000D01*
M02*
