G04*
G04 #@! TF.GenerationSoftware,Altium Limited,Altium Designer,21.4.1 (30)*
G04*
G04 Layer_Physical_Order=1*
G04 Layer_Color=255*
%FSLAX25Y25*%
%MOIN*%
G70*
G04*
G04 #@! TF.SameCoordinates,38BCD2B2-9596-478E-9E65-4FDEB67B726C*
G04*
G04*
G04 #@! TF.FilePolarity,Positive*
G04*
G01*
G75*
%ADD18C,0.01000*%
%ADD19R,0.05906X0.02992*%
%ADD20R,0.02402X0.07874*%
%ADD21R,0.10551X0.14173*%
%ADD22R,0.08071X0.02992*%
%ADD23R,0.05510X0.01160*%
%ADD24R,0.02756X0.03543*%
%ADD25R,0.03937X0.03937*%
%ADD26R,0.03937X0.03937*%
%ADD27R,0.03937X0.07087*%
%ADD28R,0.06299X0.02913*%
%ADD29R,0.01102X0.05906*%
%ADD30R,0.05906X0.01102*%
%ADD31R,0.01181X0.01968*%
%ADD32R,0.03937X0.05906*%
%ADD33R,0.03150X0.03937*%
%ADD34R,0.03937X0.01378*%
%ADD35R,0.03543X0.02756*%
%ADD62C,0.01200*%
%ADD63C,0.02000*%
%ADD64C,0.01600*%
%ADD65C,0.00700*%
%ADD66C,0.00800*%
%ADD67C,0.00500*%
%ADD68C,0.01400*%
%ADD69C,0.03937*%
%ADD70C,0.03150*%
%ADD71C,0.06693*%
%ADD72R,0.06693X0.06693*%
%ADD73C,0.11811*%
%ADD74P,0.05568X4X195.0*%
%ADD75C,0.16732*%
%ADD76C,0.02400*%
%ADD77C,0.05000*%
G36*
X-160431Y46328D02*
X-161343Y42987D01*
X-163151Y35297D01*
X-164592Y27529D01*
X-165662Y19702D01*
X-166360Y11833D01*
X-166683Y3940D01*
X-166631Y-3960D01*
X-166205Y-11848D01*
X-165404Y-19707D01*
X-164231Y-27520D01*
X-162688Y-35268D01*
X-160780Y-42934D01*
X-158509Y-50500D01*
X-155882Y-57951D01*
X-152904Y-65268D01*
X-149582Y-72435D01*
X-145923Y-79437D01*
X-141937Y-86257D01*
X-137631Y-92880D01*
X-133015Y-99292D01*
X-128100Y-105477D01*
X-122897Y-111421D01*
X-117418Y-117112D01*
X-111675Y-122537D01*
X-105680Y-127682D01*
X-99449Y-132537D01*
X-92993Y-137091D01*
X-86329Y-141333D01*
X-79471Y-145254D01*
X-72434Y-148845D01*
X-65235Y-152098D01*
X-57889Y-155006D01*
X-50414Y-157561D01*
X-42826Y-159759D01*
X-35142Y-161594D01*
X-27380Y-163062D01*
X-19557Y-164160D01*
X-11690Y-164885D01*
X-3798Y-165236D01*
X4102Y-165212D01*
X11992Y-164813D01*
X19854Y-164039D01*
X27670Y-162894D01*
X35423Y-161378D01*
X43096Y-159496D01*
X50670Y-157252D01*
X58130Y-154651D01*
X65457Y-151699D01*
X72636Y-148402D01*
X79651Y-144768D01*
X86485Y-140805D01*
X93123Y-136522D01*
X99551Y-131929D01*
X105753Y-127036D01*
X111716Y-121854D01*
X117426Y-116395D01*
X122870Y-110670D01*
X128037Y-104694D01*
X132913Y-98479D01*
X137490Y-92040D01*
X141755Y-85391D01*
X145701Y-78546D01*
X149316Y-71522D01*
X152594Y-64334D01*
X155527Y-56999D01*
X158109Y-49533D01*
X160333Y-41953D01*
X162195Y-34275D01*
X163690Y-26518D01*
X164815Y-18699D01*
X165568Y-10835D01*
X165947Y-2944D01*
X165995Y1006D01*
X165995Y1006D01*
X165995Y1006D01*
X165971Y3043D01*
X165846Y7116D01*
X165621Y11184D01*
X165297Y15246D01*
X165097Y17273D01*
Y17273D01*
X165156Y17739D01*
X165190Y17853D01*
X165441Y18162D01*
X165791Y18352D01*
X166187Y18394D01*
X166569Y18281D01*
X166879Y18030D01*
X167069Y17680D01*
X167089Y17481D01*
X167086Y17479D01*
X167315Y15302D01*
X167657Y10937D01*
X167886Y6565D01*
X168001Y2189D01*
X168001Y-0D01*
X168001Y-0D01*
X168001Y-3985D01*
X167623Y-11946D01*
X166868Y-19879D01*
X165738Y-27768D01*
X164235Y-35594D01*
X162363Y-43341D01*
X160126Y-50990D01*
X157528Y-58524D01*
X154577Y-65926D01*
X151277Y-73181D01*
X147638Y-80271D01*
X143666Y-87180D01*
X139371Y-93893D01*
X134763Y-100395D01*
X129852Y-106671D01*
X124648Y-112708D01*
X119165Y-118491D01*
X113413Y-124007D01*
X107407Y-129244D01*
X101158Y-134191D01*
X94683Y-138836D01*
X87994Y-143169D01*
X81107Y-147180D01*
X74038Y-150860D01*
X66803Y-154200D01*
X59417Y-157194D01*
X51898Y-159834D01*
X44262Y-162115D01*
X36526Y-164031D01*
X28708Y-165578D01*
X20826Y-166753D01*
X12897Y-167553D01*
X4939Y-167976D01*
X-3031Y-168022D01*
X-10993Y-167689D01*
X-18931Y-166979D01*
X-26826Y-165894D01*
X-34661Y-164436D01*
X-42418Y-162607D01*
X-50079Y-160414D01*
X-57628Y-157859D01*
X-65047Y-154949D01*
X-72320Y-151691D01*
X-79431Y-148092D01*
X-86362Y-144160D01*
X-93100Y-139903D01*
X-99628Y-135332D01*
X-105932Y-130456D01*
X-111998Y-125288D01*
X-117812Y-119837D01*
X-123361Y-114117D01*
X-128632Y-108140D01*
X-133614Y-101920D01*
X-138296Y-95471D01*
X-142667Y-88807D01*
X-146717Y-81943D01*
X-150437Y-74895D01*
X-153818Y-67679D01*
X-156854Y-60310D01*
X-159537Y-52806D01*
X-161861Y-45183D01*
X-163821Y-37458D01*
X-165413Y-29649D01*
X-166632Y-21774D01*
X-167477Y-13849D01*
X-167945Y-5894D01*
X-168036Y2075D01*
X-167749Y10039D01*
X-167084Y17981D01*
X-166044Y25882D01*
X-164630Y33725D01*
X-162846Y41492D01*
X-161771Y45329D01*
X-161773Y45622D01*
X-161552Y46165D01*
X-161137Y46579D01*
X-160848Y46697D01*
X-160431Y46328D01*
D02*
G37*
D18*
X68500Y147300D02*
X71680Y144120D01*
X42084Y153200D02*
X49300D01*
X18654Y-19354D02*
X22365D01*
X12197Y-12897D02*
X18654Y-19354D01*
X-68921Y-148700D02*
X-61385D01*
X-70600Y-147400D02*
X-70221D01*
X-68921Y-148700D01*
X-61385D02*
X-61256Y-148571D01*
X-12480Y-106300D02*
X-11780Y-107001D01*
Y-107202D02*
Y-107001D01*
X-34914Y-23500D02*
X-22465D01*
X-21880Y-22914D01*
Y-13280D01*
X-35500Y-24086D02*
X-34914Y-23500D01*
X-35500Y-33386D02*
Y-24086D01*
X-36200Y-34086D02*
X-35500Y-33386D01*
X-36200Y-38425D02*
Y-34086D01*
X-75700Y-134914D02*
X-65514Y-145100D01*
X-75700Y-134914D02*
Y-126700D01*
X78500Y-3862D02*
X81962Y-400D01*
X81962D01*
X78500Y-4100D02*
Y-3862D01*
X81962Y-400D02*
X83347Y984D01*
X16350Y-47300D02*
Y-44150D01*
X39306Y-22214D02*
Y-19300D01*
X28922Y-21322D02*
X30400Y-22800D01*
X38721D02*
X39306Y-22214D01*
X30400Y-22800D02*
X38721D01*
X22365Y-21322D02*
X28922D01*
X54012Y-11000D02*
X60400D01*
X44900Y121500D02*
X45000Y121400D01*
X39840Y121600D02*
X39940Y121500D01*
X44900D01*
X32200Y153200D02*
X36531D01*
X73332Y-116032D02*
X73600Y-116300D01*
X48618Y-121406D02*
Y-115000D01*
X42106D02*
Y-110300D01*
X70300Y-115000D02*
X71332Y-116032D01*
X48618Y-115000D02*
X70300D01*
X71332Y-116032D02*
X73332D01*
X47831Y-129019D02*
X51538Y-125312D01*
X52012D01*
X15800Y-100800D02*
Y-100200D01*
X15780Y-107202D02*
Y-100820D01*
X15800Y-100800D01*
X-37218Y-93900D02*
X-32956D01*
X-8095Y-106950D02*
X-7843Y-107202D01*
X-8095Y-106950D02*
Y-92380D01*
X-8347Y-92128D02*
X-8095Y-92380D01*
X-7843Y-123843D02*
Y-107202D01*
X131968Y-81832D02*
X146433Y-67367D01*
X-9409Y-82100D02*
X-9141Y-81832D01*
X-50200Y-82100D02*
X-9409D01*
X-9141Y-81832D02*
X131968D01*
X50028Y-136189D02*
X50185Y-136346D01*
Y-137317D02*
Y-136346D01*
X46895Y-140606D02*
X50185Y-137317D01*
X46895Y-141000D02*
Y-140606D01*
X-78725Y-29162D02*
X-76363Y-26800D01*
X-78725Y-29556D02*
Y-29162D01*
X-76363Y-26800D02*
X-75091D01*
X-77938Y-38500D02*
X-73300D01*
X40367Y26502D02*
X40378Y26514D01*
X45705D01*
X34631Y32712D02*
X34819Y32900D01*
X34631Y26514D02*
Y32712D01*
X22365Y20017D02*
X28134D01*
X34631Y26514D01*
X-86021Y-15550D02*
X-80912D01*
X22416Y25973D02*
Y30931D01*
X22365Y25922D02*
X22416Y25973D01*
X15583Y20017D02*
X22365D01*
X146433Y-67367D02*
Y17841D01*
X-6172Y-12897D02*
X12197D01*
X-10136Y-19120D02*
Y-16860D01*
X-6172Y-12897D01*
X-12079Y-21064D02*
X-10136Y-19120D01*
X-81056Y-15300D02*
Y-9244D01*
X-80912Y-9100D01*
X-86607Y-27595D02*
Y-16135D01*
X-86021Y-15550D01*
X-84825Y-29377D02*
X-81965D01*
X-86607Y-27595D02*
X-84825Y-29377D01*
X-81875Y-29556D02*
Y-29468D01*
X-81965Y-29377D02*
X-81875Y-29468D01*
X-27785Y21985D02*
Y32765D01*
X-25817Y20017D02*
X15417D01*
X-27785Y21985D02*
X-25817Y20017D01*
X15417D02*
X15500Y20100D01*
X53135Y-148000D02*
X53720Y-147414D01*
X46895Y-148000D02*
X53135D01*
X53720Y-147414D02*
Y-141000D01*
X15500Y20100D02*
X15583Y20017D01*
X15500Y26900D02*
X15522Y26922D01*
Y32765D01*
X-48138Y32200D02*
X-47573Y32765D01*
X-48238Y32300D02*
Y38800D01*
X101047Y-16600D02*
Y-12795D01*
X90039D02*
X101047D01*
Y6304D01*
X105000Y-73425D02*
Y-52700D01*
X90080Y12754D02*
X104514D01*
X105100Y-30000D02*
Y12169D01*
X104514Y12754D02*
X105100Y12169D01*
X83347Y984D02*
X90039D01*
X39306Y-19300D02*
X44393D01*
X-54744Y-145100D02*
Y-141571D01*
X-65514Y-145100D02*
X-54744D01*
Y-148571D02*
Y-145100D01*
X32382Y-142772D02*
X35670D01*
X37297Y-144399D02*
X40384D01*
X35670Y-142772D02*
X37297Y-144399D01*
X40384Y-147828D02*
Y-144399D01*
Y-141000D01*
X-26444Y-93900D02*
X-21912D01*
X-20712D01*
Y-95100D02*
Y-94778D01*
X-21912Y-93900D02*
X-21590D01*
X-20712Y-94778D01*
Y-95100D02*
Y-93900D01*
X-19884Y-99328D02*
X-15594D01*
X-20712Y-98500D02*
X-19884Y-99328D01*
X-20712Y-98500D02*
Y-95100D01*
X-13900Y-129900D02*
X-7843Y-123843D01*
X-60862Y-130900D02*
X-59862Y-129900D01*
X-60862Y-137662D02*
Y-134000D01*
X-59862Y-129900D02*
X-13900D01*
X-60862Y-134000D02*
Y-130900D01*
X-126299Y-37500D02*
X-126000Y-37799D01*
X90039Y6890D02*
X100461D01*
X101047Y6304D01*
X90039Y2953D02*
X101047D01*
X67988Y-16012D02*
Y-11000D01*
X60600Y-23400D02*
X67988Y-16012D01*
X55000Y-23400D02*
X60600D01*
X37700Y-9600D02*
Y-9206D01*
X40138Y-6768D02*
X41732D01*
X42000Y-6500D01*
X37700Y-9206D02*
X40138Y-6768D01*
X9600Y-38425D02*
X22365D01*
X23339Y-39400D01*
X55100D01*
X90039Y4921D02*
Y6890D01*
X-25900Y-87200D02*
X-20424D01*
X90039Y12795D02*
X90080Y12754D01*
X24866Y141500D02*
X36622D01*
X49300Y153200D02*
X55200Y147300D01*
X50765D02*
X56565Y141500D01*
X43331Y147300D02*
X50765D01*
X51892Y141500D02*
X56222Y137170D01*
X43887Y141500D02*
X51892D01*
X55200Y147300D02*
X68500D01*
X71680Y139000D02*
Y144120D01*
X-97845Y-37600D02*
X-91700D01*
X-99201Y-38956D02*
X-97845Y-37600D01*
X-39200Y-27600D02*
Y-24910D01*
X-38565Y-24275D01*
X-12079Y-21064D02*
X-12037Y-21105D01*
Y-28165D02*
Y-21105D01*
X-21880Y-13280D02*
X-18500Y-9900D01*
X-38565Y-24275D02*
Y-21322D01*
X-99202Y-31043D02*
X-98976Y-31269D01*
X-93001D01*
X-81875Y-24044D02*
Y-22175D01*
X-78725Y-24044D02*
Y-23650D01*
X-74544Y-19469D02*
X-74544D01*
X-78725Y-23650D02*
X-74544Y-19469D01*
X-4163Y32765D02*
X-2194D01*
X-13862Y-49400D02*
X-13800Y-49462D01*
X-20800Y-53800D02*
Y-49662D01*
X-20638Y-49500D01*
X-13800Y-53800D02*
Y-49462D01*
X-4000Y-47550D02*
X-3950Y-47600D01*
X-4000Y-47550D02*
Y-42862D01*
X-11000Y-33900D02*
X-7238D01*
X-4000Y-37138D01*
X-12037Y-32863D02*
X-11000Y-33900D01*
X-12037Y-32863D02*
Y-28165D01*
X-47573Y32765D02*
X-31722D01*
X-48238Y32300D02*
X-48138Y32200D01*
X-48238Y38800D02*
X-28371D01*
X40384Y-148000D02*
Y-147828D01*
X-61256Y-138056D02*
X-60862Y-137662D01*
X-61256Y-141571D02*
Y-138056D01*
X7648Y-35186D02*
X9600Y-37138D01*
X7648Y-35186D02*
Y-28165D01*
X-58297Y32149D02*
X-53914D01*
X-53862Y32200D01*
X-108400Y-31112D02*
X-104994D01*
X-109788Y-32500D02*
X-108400Y-31112D01*
X-113701Y-32500D02*
X-109788D01*
X-113701Y7500D02*
X-106800D01*
X79342Y8858D02*
X90039D01*
X77640Y10560D02*
Y46893D01*
Y10560D02*
X79342Y8858D01*
X45744Y51079D02*
X54047D01*
X6532Y57079D02*
X7732Y55879D01*
X-31480Y61879D02*
X-30280Y60679D01*
X-68414Y65004D02*
X-59514D01*
X-82021Y67600D02*
X-81100Y66679D01*
X44544Y52279D02*
X45744Y51079D01*
X-11274Y58279D02*
X-2971D01*
X77054Y47479D02*
X77640Y46893D01*
X27938Y52279D02*
X44544D01*
X16035Y55879D02*
X17235Y54679D01*
X-21977Y60679D02*
X-20777Y59479D01*
X-100154Y72432D02*
X-95322Y67600D01*
X-12474Y59479D02*
X-11274Y58279D01*
X-30280Y60679D02*
X-21977D01*
X-39783Y61879D02*
X-31480D01*
X-105000Y73425D02*
X-104007Y72432D01*
X56447Y48679D02*
X73053D01*
X25538Y54679D02*
X27938Y52279D01*
X-1771Y57079D02*
X6532D01*
X-57589Y63079D02*
X-40983D01*
X-81100Y66679D02*
X-70088D01*
X74253Y47479D02*
X77054D01*
X17235Y54679D02*
X25538D01*
X7732Y55879D02*
X16035D01*
X-40983Y63079D02*
X-39783Y61879D01*
X-95322Y67600D02*
X-82021D01*
X-104007Y72432D02*
X-100154D01*
X73053Y48679D02*
X74253Y47479D01*
X54047Y51079D02*
X56447Y48679D01*
X-2971Y58279D02*
X-1771Y57079D01*
X-20777Y59479D02*
X-12474D01*
X-59514Y65004D02*
X-57589Y63079D01*
X-70088Y66679D02*
X-68414Y65004D01*
X145850Y18424D02*
X146433Y17841D01*
X-45438Y-15417D02*
X-38565D01*
X-46700Y-16300D02*
X-46321D01*
X-45438Y-15417D01*
X-55562Y-21071D02*
X-55262Y-20771D01*
X24930Y119070D02*
X32330D01*
X24900Y119100D02*
X24930Y119070D01*
X32330D02*
X32360Y119041D01*
X-36200Y-47600D02*
Y-42862D01*
X-27785Y32765D02*
Y38214D01*
X-28371Y38800D02*
X-27785Y38214D01*
X56565Y141500D02*
X67349D01*
X56222Y137170D02*
X64849D01*
X60210Y118870D02*
X73510Y132170D01*
X56616Y118870D02*
X60210D01*
X59380Y124870D02*
X69180Y134670D01*
X56516Y124870D02*
X59380D01*
X145850Y18424D02*
Y24573D01*
X154323Y34097D02*
X160000D01*
X154004Y34416D02*
X154323Y34097D01*
X149689Y34416D02*
X154004D01*
X145055Y32271D02*
Y37200D01*
Y32271D02*
X149741Y27585D01*
X160000D01*
X-59900Y-7900D02*
X-55856D01*
X-65720Y-11480D02*
X-38565D01*
X-68100Y-9100D02*
X-65720Y-11480D01*
X-74400Y-9100D02*
X-68100D01*
X-74544Y-15300D02*
X-67500D01*
X-65648Y-13448D02*
X-38565D01*
X-67500Y-15300D02*
X-65648Y-13448D01*
X-77800Y-18100D02*
Y-12500D01*
X-81875Y-22175D02*
X-77800Y-18100D01*
Y-12500D02*
X-75672Y-10372D01*
X-74400Y-9494D02*
Y-9100D01*
X-75278Y-10372D02*
X-74400Y-9494D01*
X-75672Y-10372D02*
X-75278D01*
X44900Y73500D02*
X45300Y73100D01*
X45500D01*
X44900Y73500D02*
X44925D01*
X45000Y73425D01*
X31188Y-3600D02*
X31300D01*
X22370D02*
X31188D01*
X22365Y-3606D02*
X22370Y-3600D01*
X22365Y18048D02*
X33309D01*
X33457Y17900D01*
X82000Y5300D02*
X82379Y4921D01*
X90039D01*
X-53977Y38785D02*
X-53962Y38800D01*
X-58432Y38785D02*
X-53977D01*
X-100638Y-31269D02*
X-100481Y-31112D01*
X-77938Y-38500D02*
X-77800Y-38362D01*
X-74544Y-19469D02*
Y-15300D01*
X-46600Y-7900D02*
X-44989Y-9511D01*
X-38565D01*
X-49344Y-7900D02*
X-46600D01*
X-36200Y-42862D02*
X-29800D01*
D19*
X-113878Y36874D02*
D03*
Y41874D02*
D03*
Y46874D02*
D03*
Y51874D02*
D03*
X-142027D02*
D03*
Y46874D02*
D03*
Y41874D02*
D03*
Y36874D02*
D03*
D20*
X-11780Y-107202D02*
D03*
X-7843D02*
D03*
X-3906D02*
D03*
X32D02*
D03*
X3969D02*
D03*
X7906D02*
D03*
X11843D02*
D03*
X15780D02*
D03*
D21*
X-23551Y-118225D02*
D03*
X27551D02*
D03*
D22*
X54012Y4000D02*
D03*
Y-11000D02*
D03*
X67988D02*
D03*
X54012Y-6000D02*
D03*
X67988D02*
D03*
X54012Y-1000D02*
D03*
X67988D02*
D03*
Y4000D02*
D03*
X54012Y9000D02*
D03*
X67988D02*
D03*
D23*
X90039Y26575D02*
D03*
Y24606D02*
D03*
Y22638D02*
D03*
Y20669D02*
D03*
Y18701D02*
D03*
Y16732D02*
D03*
Y14764D02*
D03*
Y12795D02*
D03*
Y10827D02*
D03*
Y8858D02*
D03*
Y6890D02*
D03*
Y4921D02*
D03*
Y2953D02*
D03*
Y984D02*
D03*
Y-984D02*
D03*
Y-2953D02*
D03*
Y-4921D02*
D03*
Y-6890D02*
D03*
Y-8858D02*
D03*
Y-10827D02*
D03*
Y-12795D02*
D03*
Y-14764D02*
D03*
Y-16732D02*
D03*
Y-18701D02*
D03*
Y-20669D02*
D03*
Y-22638D02*
D03*
Y-24606D02*
D03*
Y-26575D02*
D03*
X119961Y26575D02*
D03*
Y24606D02*
D03*
Y22638D02*
D03*
Y20669D02*
D03*
Y18701D02*
D03*
Y16732D02*
D03*
Y14764D02*
D03*
Y12795D02*
D03*
Y10827D02*
D03*
Y8858D02*
D03*
Y6890D02*
D03*
Y4921D02*
D03*
Y2953D02*
D03*
Y984D02*
D03*
Y-984D02*
D03*
Y-2953D02*
D03*
Y-4921D02*
D03*
Y-6890D02*
D03*
Y-8858D02*
D03*
Y-10827D02*
D03*
Y-12795D02*
D03*
Y-14764D02*
D03*
Y-16732D02*
D03*
Y-18701D02*
D03*
Y-20669D02*
D03*
Y-22638D02*
D03*
Y-24606D02*
D03*
Y-26575D02*
D03*
D24*
X43134Y141500D02*
D03*
X36622D02*
D03*
X43043Y147300D02*
D03*
X36532D02*
D03*
X36531Y153200D02*
D03*
X43043D02*
D03*
X42106Y-115000D02*
D03*
X48618D02*
D03*
Y-121406D02*
D03*
X42106D02*
D03*
X-61256Y-148571D02*
D03*
X-54744D02*
D03*
Y-141571D02*
D03*
X-61256D02*
D03*
X-32956Y-93900D02*
D03*
X-26444D02*
D03*
X-20712D02*
D03*
X-14200D02*
D03*
X46895Y-141000D02*
D03*
X40384D02*
D03*
Y-148000D02*
D03*
X46895D02*
D03*
X37700Y-9600D02*
D03*
X31188D02*
D03*
X37700Y-3600D02*
D03*
X31188D02*
D03*
X-74544Y-15300D02*
D03*
X-81056D02*
D03*
X-55856Y-7900D02*
D03*
X-49344D02*
D03*
X-80912Y-9100D02*
D03*
X-74400D02*
D03*
X-66407Y-107961D02*
D03*
X-72919D02*
D03*
X-66400Y-99528D02*
D03*
X-72912D02*
D03*
X-66400Y-91000D02*
D03*
X-72912D02*
D03*
X-105141Y51874D02*
D03*
X-98629D02*
D03*
X-105141Y44864D02*
D03*
X-98629D02*
D03*
Y38370D02*
D03*
X-105141D02*
D03*
Y31953D02*
D03*
X-98629D02*
D03*
X146433Y17841D02*
D03*
X152945D02*
D03*
X50004Y124870D02*
D03*
X56516D02*
D03*
X50104Y118870D02*
D03*
X56616D02*
D03*
X68352Y114020D02*
D03*
X74864D02*
D03*
X68352Y101020D02*
D03*
X74864D02*
D03*
X68352Y107582D02*
D03*
X74864D02*
D03*
D25*
X9600Y-38425D02*
D03*
Y-44150D02*
D03*
X16000Y-38425D02*
D03*
Y-44150D02*
D03*
X3000Y-38425D02*
D03*
Y-44150D02*
D03*
X-36200D02*
D03*
Y-38425D02*
D03*
X-29800Y-44150D02*
D03*
Y-38425D02*
D03*
X-4000Y-44150D02*
D03*
Y-38425D02*
D03*
X82000Y5362D02*
D03*
Y-362D02*
D03*
D26*
X-20638Y-50787D02*
D03*
X-26362D02*
D03*
X-13862Y-50687D02*
D03*
X-8138D02*
D03*
X-55262Y-20771D02*
D03*
X-49538D02*
D03*
X47831Y-129019D02*
D03*
X42106D02*
D03*
X-60862Y-134000D02*
D03*
X-55138D02*
D03*
X-14700Y-87200D02*
D03*
X-20424D02*
D03*
X53720Y-141000D02*
D03*
X59445D02*
D03*
X-104962Y-37700D02*
D03*
X-99238D02*
D03*
X-77938Y-38500D02*
D03*
X-83662D02*
D03*
X-55262Y-28000D02*
D03*
X33582Y-19300D02*
D03*
X39306D02*
D03*
X34819Y39700D02*
D03*
X40543D02*
D03*
X34631Y26514D02*
D03*
X40355D02*
D03*
X-48238Y38800D02*
D03*
X-53962D02*
D03*
X-48138Y32200D02*
D03*
X-53862D02*
D03*
X-49538Y-28000D02*
D03*
X34819Y32900D02*
D03*
X40543D02*
D03*
X-99202Y-31043D02*
D03*
X-104926D02*
D03*
D27*
X-12079Y-41300D02*
D03*
X-21921D02*
D03*
D28*
X-126299Y-37500D02*
D03*
X-113701D02*
D03*
X-126299Y-32500D02*
D03*
X-113701D02*
D03*
X-126299Y-27500D02*
D03*
X-113701D02*
D03*
X-126299Y-22500D02*
D03*
X-113701D02*
D03*
X-126299Y-17500D02*
D03*
X-113701D02*
D03*
X-126299Y-12500D02*
D03*
X-113701D02*
D03*
X-126299Y-7500D02*
D03*
X-113701D02*
D03*
X-126299Y-2500D02*
D03*
X-113701D02*
D03*
X-126299Y2500D02*
D03*
X-113701D02*
D03*
X-126299Y7500D02*
D03*
X-113701D02*
D03*
D29*
X-31722Y-28165D02*
D03*
X-29754D02*
D03*
X-27785D02*
D03*
X-25817D02*
D03*
X-23848D02*
D03*
X-21880D02*
D03*
X-19911D02*
D03*
X-17943D02*
D03*
X-15974D02*
D03*
X-14006D02*
D03*
X-12037D02*
D03*
X-10068D02*
D03*
X-8100D02*
D03*
X-6131D02*
D03*
X-4163D02*
D03*
X-2194D02*
D03*
X-226D02*
D03*
X1743D02*
D03*
X3711D02*
D03*
X5680D02*
D03*
X7648D02*
D03*
X9617D02*
D03*
X11585D02*
D03*
X13554D02*
D03*
X15522Y32765D02*
D03*
X13554D02*
D03*
X11585D02*
D03*
X9617D02*
D03*
X7648D02*
D03*
X5680D02*
D03*
X3711D02*
D03*
X1743D02*
D03*
X-226D02*
D03*
X-2194D02*
D03*
X-4163D02*
D03*
X-6131D02*
D03*
X-8100D02*
D03*
X-10068D02*
D03*
X-12037D02*
D03*
X-14006D02*
D03*
X-15974D02*
D03*
X-17943D02*
D03*
X-19911D02*
D03*
X-21880D02*
D03*
X-23848D02*
D03*
X-25817D02*
D03*
X-27785D02*
D03*
X-29754D02*
D03*
X-31722D02*
D03*
X15522Y-28165D02*
D03*
D30*
X22365Y-21322D02*
D03*
Y-19354D02*
D03*
Y-17385D02*
D03*
Y-15417D02*
D03*
Y-13448D02*
D03*
Y-11480D02*
D03*
Y-9511D02*
D03*
Y-7543D02*
D03*
Y-5574D02*
D03*
Y-3606D02*
D03*
Y-1637D02*
D03*
Y332D02*
D03*
Y2300D02*
D03*
Y4269D02*
D03*
Y6237D02*
D03*
Y8206D02*
D03*
Y10174D02*
D03*
Y12143D02*
D03*
Y14111D02*
D03*
Y16080D02*
D03*
Y18048D02*
D03*
Y20017D02*
D03*
Y21985D02*
D03*
Y23954D02*
D03*
Y25922D02*
D03*
X-38565D02*
D03*
Y23954D02*
D03*
Y21985D02*
D03*
Y20017D02*
D03*
Y18048D02*
D03*
Y16080D02*
D03*
Y14111D02*
D03*
Y12143D02*
D03*
Y10174D02*
D03*
Y8206D02*
D03*
Y6237D02*
D03*
Y4269D02*
D03*
Y2300D02*
D03*
Y332D02*
D03*
Y-1637D02*
D03*
Y-3606D02*
D03*
Y-5574D02*
D03*
Y-7543D02*
D03*
Y-9511D02*
D03*
Y-11480D02*
D03*
Y-13448D02*
D03*
Y-15417D02*
D03*
Y-17385D02*
D03*
Y-19354D02*
D03*
Y-21322D02*
D03*
D31*
X-78725Y-29556D02*
D03*
X-81875D02*
D03*
Y-24044D02*
D03*
X-78725D02*
D03*
D32*
X40543Y17900D02*
D03*
X33457D02*
D03*
D33*
X149689Y34416D02*
D03*
X145850Y24573D02*
D03*
X153528D02*
D03*
D34*
X39840Y119041D02*
D03*
Y121600D02*
D03*
Y124159D02*
D03*
X32360D02*
D03*
Y119041D02*
D03*
X57000Y105220D02*
D03*
Y107779D02*
D03*
Y110338D02*
D03*
X49520D02*
D03*
Y105220D02*
D03*
D35*
X160000Y34097D02*
D03*
Y27585D02*
D03*
D62*
X-146400Y60100D02*
X-143600Y62900D01*
X-102700D01*
X-66273Y26473D01*
X-49865D01*
X-48138Y28200D02*
Y32200D01*
X-49865Y26473D02*
X-48138Y28200D01*
D63*
X-150500Y23152D02*
Y64500D01*
X-134900Y80100D02*
X-103600D01*
X-150500Y64500D02*
X-134900Y80100D01*
X-55138Y-134000D02*
X-44100D01*
X-153900Y52558D02*
Y60200D01*
X-160408Y46051D02*
X-153900Y52558D01*
X-150500Y23152D02*
X-142900Y15552D01*
X165397Y-12544D02*
X165995Y-11946D01*
X156000Y-12544D02*
X165397D01*
X59445Y-141000D02*
X59472Y-140972D01*
Y-135028D02*
X59500Y-135000D01*
X59472Y-140972D02*
Y-135028D01*
X-126000Y-44264D02*
Y-37799D01*
X-89200Y94500D02*
Y113500D01*
X-60000Y142700D02*
X-18900D01*
X-89200Y113500D02*
X-60000Y142700D01*
X-103600Y80100D02*
X-89200Y94500D01*
X48800Y157500D02*
X53100Y153200D01*
X-4100Y157500D02*
X48800D01*
X-18900Y142700D02*
X-4100Y157500D01*
X-142900Y-26300D02*
Y15552D01*
X65600Y153200D02*
X74680Y144120D01*
X82524D02*
X84161Y142484D01*
X74680Y144120D02*
X82524D01*
X-104863Y-30980D02*
Y-26063D01*
X53100Y153200D02*
X65600D01*
X-60200Y-28000D02*
X-55600D01*
X-55462Y-28138D01*
X-60100Y-21071D02*
X-55562D01*
D64*
X-44038Y-121019D02*
X-29319Y-106300D01*
X-23400D01*
X-12480D01*
X-83728Y-124148D02*
X-80600Y-121019D01*
X-44038D01*
X-83662Y-38500D02*
Y-34287D01*
Y-42663D02*
Y-38500D01*
Y-34287D02*
X-81875Y-32500D01*
X-50475D01*
X-49538Y-31563D02*
Y-28000D01*
X-50475Y-32500D02*
X-49538Y-31563D01*
X33548Y-19334D02*
X33582Y-19300D01*
X-25000Y-160008D02*
Y-154600D01*
X-32382Y-147218D02*
Y-140800D01*
Y-147218D02*
X-25000Y-154600D01*
Y-160131D02*
Y-160008D01*
Y-160131D02*
X-23785Y-161345D01*
Y-165218D02*
Y-161345D01*
X-83728Y-136362D02*
Y-124148D01*
X-84103Y-136737D02*
X-83728Y-136362D01*
X-84103Y-139717D02*
Y-136737D01*
X-86700Y-142314D02*
X-84103Y-139717D01*
X153339Y18235D02*
X153523Y18419D01*
X166187Y15085D02*
Y17818D01*
X165771Y18235D02*
X166187Y17818D01*
X153339Y18235D02*
X165771D01*
X153523Y19746D02*
X153528Y19750D01*
X153523Y18419D02*
Y19746D01*
X153528Y19750D02*
Y24573D01*
X152945Y17841D02*
X153339Y18235D01*
X13189Y-159811D02*
Y-136335D01*
Y-165866D02*
Y-159811D01*
X-158108Y-53700D02*
X-148700D01*
X-113996Y-52094D02*
X-113701Y-51798D01*
X-113996Y-52310D02*
Y-52094D01*
X-113701Y-51798D02*
Y-37500D01*
X71400Y-144100D02*
X74400Y-147100D01*
Y-149700D02*
Y-147100D01*
X71400Y-144100D02*
Y-123400D01*
X-113501Y-37700D02*
X-104962D01*
Y-43600D02*
X-84600D01*
X-104962D02*
Y-37700D01*
X-84600Y-43600D02*
X-83662Y-42663D01*
X-142014Y36860D02*
X-142000Y36874D01*
X-142014Y28014D02*
X-142000Y28000D01*
X-142014Y28014D02*
Y36860D01*
X-142027Y36901D02*
X-142000Y36874D01*
X-142091Y41937D02*
X-142027Y41874D01*
Y36874D02*
Y41874D01*
X-113701Y-37500D02*
X-113501Y-37700D01*
X-118543Y-37500D02*
X-113701D01*
X-49538Y-28000D02*
X-39502D01*
X-120000Y-36043D02*
X-118543Y-37500D01*
X-120000Y-2106D02*
X-115394Y2500D01*
X-120000Y-36043D02*
Y-2106D01*
X-115394Y2500D02*
X-113701D01*
X-142091Y41937D02*
X-142027Y42000D01*
Y46874D02*
Y51874D01*
Y42000D02*
Y46874D01*
D65*
X-34268Y332D02*
X-32000Y2600D01*
X-38565Y332D02*
X-34268D01*
X-32000Y2600D02*
Y10800D01*
X-46571Y-20771D02*
X-43207Y-17407D01*
X-49071Y-20771D02*
X-46571D01*
X-43207Y-17407D02*
X-38587D01*
X-49400Y-21100D02*
X-49071Y-20771D01*
X-11700Y-41300D02*
Y-40104D01*
X-8100Y-50900D02*
Y-46854D01*
X-12079Y-42875D02*
Y-41300D01*
Y-42875D02*
X-8100Y-46854D01*
X-15974Y-35830D02*
Y-28165D01*
Y-35830D02*
X-11700Y-40104D01*
X-17943Y-31890D02*
Y-28165D01*
X-19953Y-33900D02*
X-17943Y-31890D01*
X-80200Y-103500D02*
X-75739Y-107961D01*
X-75639D02*
X-72919D01*
X-75700Y-107900D02*
X-75639Y-107961D01*
X-78200Y-97700D02*
Y-94700D01*
X-76372Y-99528D02*
X-72912D01*
X-78200Y-97700D02*
X-76372Y-99528D01*
X16113Y-887D02*
Y213D01*
X18200Y2300D01*
X13700Y-3300D02*
X16113Y-887D01*
X32701Y-15000D02*
X36400D01*
X32012Y-14311D02*
X32701Y-15000D01*
X-5300Y-7543D02*
X22365D01*
X-12588D02*
X-5800D01*
X-6355Y-6945D02*
X-5345D01*
X-55800Y5300D02*
X-45800D01*
X-5345Y-6945D02*
X-5300Y-6900D01*
X-28300Y-2000D02*
X-11300D01*
X-6355Y-6945D01*
X-45800Y5300D02*
X-45700Y5400D01*
X-56105Y8206D02*
X-38565D01*
X-79458Y31559D02*
X-56105Y8206D01*
X-84000Y2300D02*
X-38565D01*
X-108800Y-22500D02*
X-84000Y2300D01*
X-80546Y7754D02*
X-61153D01*
X-105800Y-17500D02*
X-80546Y7754D01*
X-64774Y14274D02*
X-55800Y5300D01*
X-79423Y14274D02*
X-64774D01*
X-64382Y10174D02*
X-64300Y10256D01*
X-80129Y10174D02*
X-64382D01*
X-96197Y-2500D02*
X-79423Y14274D01*
X-113701Y-2500D02*
X-96197D01*
X-98629Y44864D02*
X-88460D01*
X-98629Y38370D02*
X-83663D01*
X-98629Y51874D02*
X-93773D01*
X-55467Y10174D02*
X-38674D01*
X-88460Y44864D02*
X-55739Y12143D01*
X-56010Y14111D02*
X-37351D01*
X-98235Y31559D02*
X-79458D01*
X-93773Y51874D02*
X-56010Y14111D01*
X-55739Y12143D02*
X-38565D01*
X-37351Y14111D02*
X-37240Y14000D01*
X-83663Y38370D02*
X-55467Y10174D01*
X-102803Y-12500D02*
X-80129Y10174D01*
X-79776Y12224D02*
X-67986D01*
X-99500Y-7500D02*
X-79776Y12224D01*
X-113701Y-12500D02*
X-102803D01*
X-113701Y-7500D02*
X-99500D01*
X-113701Y-17500D02*
X-105800D01*
X-113701Y-22500D02*
X-108800D01*
X-72912Y-84812D02*
X-70400Y-82300D01*
X-72912Y-91000D02*
Y-84812D01*
X12846Y-19647D02*
X19350Y-26150D01*
X65963D01*
X76600Y-15513D01*
X37700Y-3994D02*
Y-3600D01*
X37900Y-3700D02*
X41100D01*
X43200Y-1600D01*
X34377Y-7317D02*
X37700Y-3994D01*
X33078Y-7317D02*
X34377D01*
X53089Y107689D02*
X56911D01*
X53000Y107600D02*
X53089Y107689D01*
X56911D02*
X57000Y107779D01*
X45841Y124159D02*
X47929Y122071D01*
X50104Y118870D02*
Y121661D01*
X47929Y122071D02*
X49694D01*
X50104Y115891D02*
Y118870D01*
X39840Y124159D02*
X45841D01*
X47234Y124870D02*
X50004D01*
X45462Y126642D02*
X47234Y124870D01*
X49694Y122071D02*
X50104Y121661D01*
X36122Y126642D02*
X45462D01*
X-14700Y-90051D02*
X-14200Y-90551D01*
X-14700Y-90051D02*
Y-87200D01*
X-14200Y-93900D02*
Y-90551D01*
X-14500Y-87000D02*
X-3906D01*
X-14700Y-87200D02*
X-14500Y-87000D01*
X-3906Y-107202D02*
Y-87000D01*
X34819Y44000D02*
X47590D01*
X32461D02*
X34819D01*
Y39700D02*
Y44000D01*
X37731Y35712D02*
Y35951D01*
Y35712D02*
X40543Y32900D01*
X47590Y44000D02*
X48000Y43590D01*
Y18310D02*
Y43590D01*
X47590Y17900D02*
X48000Y18310D01*
X40543Y17900D02*
X47590D01*
X27307Y24835D02*
Y38846D01*
X32461Y44000D01*
X40543Y39700D02*
X45600D01*
X40543Y32900D02*
X45705D01*
X29291Y23860D02*
Y35541D01*
X27416Y21985D02*
X29291Y23860D01*
Y35541D02*
X29702Y35951D01*
X22365Y21985D02*
X27416D01*
X-23297Y23954D02*
X22365D01*
X26477Y24005D02*
X27307Y24835D01*
X22365Y23954D02*
X22416Y24005D01*
X26477D01*
X29702Y35951D02*
X37731D01*
X-73875Y38825D02*
Y43128D01*
X-73900Y38800D02*
X-73875Y38825D01*
X120379Y-41500D02*
X132750Y-29129D01*
X122865Y-47500D02*
X138750Y-31615D01*
X128461Y-14764D02*
X131550Y-17853D01*
X119882Y-40300D02*
X131550Y-28632D01*
X137550Y-31118D02*
Y-12544D01*
X136350Y-30620D02*
Y-13041D01*
X133950Y-29626D02*
Y-14035D01*
X131550Y-28632D02*
Y-17853D01*
X132750Y-29129D02*
Y-14532D01*
X130212Y-8600D02*
X135150Y-13538D01*
X138750Y-31615D02*
Y-12047D01*
X139950Y-32112D02*
Y-11550D01*
X135150Y-30123D02*
Y-13538D01*
X131013Y-12795D02*
X132750Y-14532D01*
X130742Y-10827D02*
X133950Y-14035D01*
X129384Y-984D02*
X139950Y-11550D01*
X129656Y-2953D02*
X138750Y-12047D01*
X121871Y-45100D02*
X136350Y-30620D01*
X129927Y-4921D02*
X137550Y-12544D01*
X122368Y-46300D02*
X137550Y-31118D01*
X130209Y-6900D02*
X136350Y-13041D01*
X120876Y-42700D02*
X133950Y-29626D01*
X121373Y-43900D02*
X135150Y-30123D01*
X123072Y-48990D02*
X139950Y-32112D01*
X-2194Y-21064D02*
X3273Y-15597D01*
X9617D01*
X-76651Y44864D02*
Y48049D01*
X110700Y-78590D02*
Y-52200D01*
X110090Y-79200D02*
X110700Y-78590D01*
X110900Y-29900D02*
Y13506D01*
X110800Y-30000D02*
X110900Y-29900D01*
X109642Y14764D02*
X110900Y13506D01*
X-99225Y-79200D02*
X110090D01*
X-105000Y-73425D02*
X-99225Y-79200D01*
X95000Y-72500D02*
Y-52700D01*
X22365Y-17385D02*
X26325D01*
X26876Y-16834D02*
X28932D01*
X26325Y-17385D02*
X26876Y-16834D01*
X22384Y-19334D02*
X33548D01*
X26367Y-13448D02*
X27230Y-14311D01*
X32012D01*
X26457Y-11480D02*
X27826Y-12849D01*
X43041D01*
X43640Y-13448D02*
X44100D01*
X22365D02*
X26367D01*
X43041Y-12849D02*
X43640Y-13448D01*
X82055Y-5246D02*
X84050D01*
X86343Y-2953D01*
X81800Y-5501D02*
X82055Y-5246D01*
X86343Y-2953D02*
X90039D01*
X22365Y-11480D02*
X26457D01*
X74Y-107160D02*
Y-85232D01*
X32Y-107202D02*
X74Y-107160D01*
X32Y-112158D02*
Y-107202D01*
X4100Y-107070D02*
Y-88641D01*
X5742Y-87000D01*
X3969Y-107202D02*
X4100Y-107070D01*
X3969Y-112189D02*
Y-107202D01*
X-1709Y-57229D02*
X6254D01*
X7483Y-56000D01*
X7980Y-57200D02*
X16623D01*
X-1212Y-58429D02*
X6752D01*
X7483Y-56000D02*
X16126D01*
X6752Y-58429D02*
X7980Y-57200D01*
X5702Y-54434D02*
X6150D01*
X26654Y-151500D02*
X46895D01*
X25000Y-149846D02*
X26654Y-151500D01*
X46895D02*
Y-150756D01*
X25000Y-149846D02*
Y-137127D01*
X46895Y-150756D02*
Y-148000D01*
X32Y-112158D02*
X25000Y-137127D01*
X20799Y-129019D02*
X42106D01*
X3969Y-112189D02*
X20799Y-129019D01*
X-135800Y-52900D02*
Y-20000D01*
X-134090Y-52807D02*
Y-23700D01*
Y-52807D02*
X-120197Y-66700D01*
X-132890Y-52310D02*
X-120100Y-65100D01*
X-135800Y-52900D02*
X-127400Y-61300D01*
X-120100Y-65100D02*
X-81198D01*
X-120197Y-66700D02*
X-81101D01*
X-132890Y-52310D02*
Y-27910D01*
X-120800Y-67900D02*
X-80604D01*
X-127400Y-61300D02*
X-120800Y-67900D01*
X-127400Y-61300D02*
Y-61300D01*
X-132480Y-27500D02*
X-126299D01*
X-132890Y-27910D02*
X-132480Y-27500D01*
X90097Y-1042D02*
X96942D01*
X97000Y-1100D01*
X90039Y-984D02*
X90097Y-1042D01*
X99173Y10827D02*
X100917Y9083D01*
X101223D01*
X10168Y-21873D02*
X10251Y-21957D01*
X11866D01*
X13059Y-23149D02*
X13059D01*
X11866Y-21957D02*
X13059Y-23149D01*
X13059D02*
X13554Y-23644D01*
X5680Y-20057D02*
X6090Y-19647D01*
X12846D01*
X5680Y-28165D02*
Y-20057D01*
X18100Y-33900D02*
X20425Y-36225D01*
X20500D01*
X10027Y-33900D02*
X18100D01*
X9617Y-33490D02*
X10027Y-33900D01*
X9617Y-33490D02*
Y-28165D01*
X11636Y-31397D02*
Y-28216D01*
X11585Y-28165D02*
X11636Y-28216D01*
Y-31397D02*
X12722Y-32483D01*
X61327D01*
X20296Y-42181D02*
X20300Y-42185D01*
Y-51826D02*
Y-42185D01*
X16126Y-56000D02*
X20300Y-51826D01*
X15723Y-29100D02*
X19500D01*
X15522Y-28899D02*
X15723Y-29100D01*
X15522Y-28899D02*
Y-28165D01*
X90039Y14764D02*
X109642D01*
X95000Y-52700D02*
X98710Y-48990D01*
X94300Y-73200D02*
X95000Y-72500D01*
X3562Y-54829D02*
X3972Y-54419D01*
X5173Y-52384D02*
X7116D01*
X-2703Y-54829D02*
X3562D01*
X3972Y-53585D02*
X5173Y-52384D01*
X4107Y-56029D02*
X5702Y-54434D01*
X7121Y-52379D02*
X12540D01*
X7116Y-52384D02*
X7121Y-52379D01*
X3972Y-54419D02*
Y-53585D01*
X12540Y-52379D02*
X13561Y-53400D01*
X13800D01*
X90039Y10827D02*
X99173D01*
X-8500Y112100D02*
X42458D01*
X32200Y147300D02*
X36532D01*
X44158Y113800D02*
Y119041D01*
X42458Y112100D02*
X44158Y113800D01*
X-36200Y107100D02*
X45002D01*
X-37700Y105600D02*
X-36200Y107100D01*
X45002D02*
X48240Y110338D01*
X-38640Y109600D02*
X43813D01*
X50104Y115891D01*
X48240Y110338D02*
X49520D01*
X-19860Y-14814D02*
X-12588Y-7543D01*
X-19860Y-28113D02*
Y-14814D01*
X-19911Y-28165D02*
X-19860Y-28113D01*
X-38565Y-17385D02*
X-24121D01*
X-38587Y-17407D02*
X-38565Y-17385D01*
X-124606Y2500D02*
X-122300Y4807D01*
X-124606Y-2500D02*
X-121100Y1007D01*
X-122300Y4807D02*
Y9395D01*
X-121100Y1007D02*
Y9892D01*
X-133033Y22067D02*
X-80129D01*
X-135700Y-7090D02*
Y19400D01*
X-132597Y24200D02*
X-86200D01*
X-136900Y19897D02*
X-132597Y24200D01*
X-135700Y19400D02*
X-133033Y22067D01*
X-136900Y-8720D02*
Y19897D01*
Y-8720D02*
X-133120Y-12500D01*
X-126299D01*
X-135290Y-7500D02*
X-126299D01*
X-135700Y-7090D02*
X-135290Y-7500D01*
X-76651Y48049D02*
X-76000Y48700D01*
X-1106D01*
X-122300Y9395D02*
X-122300Y9395D01*
X-121100Y9892D02*
Y14590D01*
Y9892D02*
X-121100Y9892D01*
X-122300Y9395D02*
Y15087D01*
X-2194Y27594D02*
Y32765D01*
Y27594D02*
X-1900Y27300D01*
X-2194Y-28165D02*
Y-21064D01*
X-4204Y-28124D02*
Y-18587D01*
Y-28124D02*
X-4163Y-28165D01*
X-6131D02*
Y-22412D01*
X-7549Y-20995D02*
X-6131Y-22412D01*
X-4244Y-18546D02*
X-4204Y-18587D01*
X-7549Y-20995D02*
Y-17385D01*
X14026Y1226D02*
X17069Y4269D01*
X13880Y1226D02*
X14026D01*
X-6131Y-28165D02*
X-6080Y-28216D01*
X31188Y-9600D02*
Y-9206D01*
X33078Y-7317D01*
X-2206Y-56029D02*
X4107D01*
X13554Y-28165D02*
Y-23644D01*
X-29926Y-65629D02*
X-28726Y-64429D01*
X-29223Y-63229D02*
X-20921D01*
X-40715Y-59629D02*
X-32412D01*
X-29721Y-62029D02*
X-21418D01*
X-23262Y-69229D02*
X-23262Y-69229D01*
X-29429Y-66829D02*
X-28229Y-65629D01*
X-31915Y-60829D02*
X-30715Y-59629D01*
X-30218Y-60829D02*
X-21915D01*
X-30921Y-63229D02*
X-29721Y-62029D01*
X-28932Y-68029D02*
X-27732Y-66829D01*
X-27235Y-68029D02*
X-18932D01*
X-23615Y-58429D02*
X-22415Y-57229D01*
X-30715Y-59629D02*
X-23118D01*
X-31418Y-62029D02*
X-30218Y-60829D01*
X-27732Y-66829D02*
X-19429D01*
X-39720Y-62029D02*
X-31418D01*
X-26738Y-69229D02*
X-23262D01*
X-27938Y-70429D02*
X-26738Y-69229D01*
X-28726Y-64429D02*
X-20423D01*
X-30424Y-64429D02*
X-29223Y-63229D01*
X-28435Y-69229D02*
X-27235Y-68029D01*
X-32412Y-59629D02*
X-31212Y-58429D01*
X-23615D01*
X-28229Y-65629D02*
X-19926D01*
X-40218Y-60829D02*
X-31915D01*
X-17148Y-69639D02*
X-16738Y-69229D01*
X-17938Y-70429D02*
X-17148Y-69639D01*
X-21779Y-70429D02*
X-17938D01*
X-21915Y-60829D02*
X-20715Y-59629D01*
X-25000Y-73425D02*
X-24775D01*
X-21779Y-70429D01*
X-38229Y-65629D02*
X-29926D01*
X-37235Y-68029D02*
X-28932D01*
X-19429Y-66829D02*
X-18229Y-65629D01*
X-20921Y-63229D02*
X-19721Y-62029D01*
X-23118Y-59629D02*
X-21918Y-58429D01*
X-23262Y-69229D02*
X-18435D01*
X-20423Y-64429D02*
X-19223Y-63229D01*
X-17148Y-69639D02*
Y-69639D01*
X-18932Y-68029D02*
X-17732Y-66829D01*
X-36738Y-69229D02*
X-28435D01*
X-38726Y-64429D02*
X-30424D01*
X-31779Y-70429D02*
X-27938D01*
X-21418Y-62029D02*
X-20218Y-60829D01*
X-37732Y-66829D02*
X-29429D01*
X-39223Y-63229D02*
X-30921D01*
X-19926Y-65629D02*
X-18726Y-64429D01*
X-41418Y-62029D02*
X-40218Y-60829D01*
X-40920Y-63229D02*
X-39720Y-62029D01*
X-40423Y-64429D02*
X-39223Y-63229D01*
X-41915Y-60829D02*
X-40715Y-59629D01*
X-3903Y-56029D02*
X-2703Y-54829D01*
X-13406Y-57229D02*
X-12206Y-56029D01*
X-3903D01*
X-22415Y-57229D02*
X-13406D01*
X-52256Y-60829D02*
X-41915D01*
X-53456Y-62029D02*
X-52256Y-60829D01*
X-59920Y-62029D02*
X-53456D01*
X-61120Y-63229D02*
X-59920Y-62029D01*
X-69224Y-63229D02*
X-61120D01*
X-80398Y-64300D02*
X-70295D01*
X-69224Y-63229D01*
X-81198Y-65100D02*
X-80398Y-64300D01*
X-81101Y-66700D02*
X-79901Y-65500D01*
X-69798D01*
X-79404Y-66700D02*
X-69301D01*
X-80604Y-67900D02*
X-79404Y-66700D01*
X-35000Y-73425D02*
X-34775D01*
X-31779Y-70429D01*
X-134090Y-23700D02*
X-132890Y-22500D01*
X29925Y-36207D02*
X30518Y-36800D01*
X58707D02*
X84680Y-10827D01*
X30518Y-36800D02*
X58707D01*
X-3406Y-57229D02*
X-2206Y-56029D01*
X-11709Y-57229D02*
X-3406D01*
X-12909Y-58429D02*
X-11709Y-57229D01*
X-21918Y-58429D02*
X-12909D01*
X-49720Y-62029D02*
X-41418D01*
X-50920Y-63229D02*
X-49720Y-62029D01*
X-60623Y-64429D02*
X-59423Y-63229D01*
X-50920D01*
X-69798Y-65500D02*
X-68726Y-64429D01*
X-60623D01*
X-132890Y-22500D02*
X-126299D01*
X-133300Y-17500D02*
X-126299D01*
X-135800Y-20000D02*
X-133300Y-17500D01*
X61327Y-32483D02*
X84952Y-8858D01*
X-2909Y-58429D02*
X-1709Y-57229D01*
X-11212Y-58429D02*
X-2909D01*
X-12412Y-59629D02*
X-11212Y-58429D01*
X-20715Y-59629D02*
X-12412D01*
X-50424Y-64429D02*
X-49224Y-63229D01*
X-40920D01*
X-60126Y-65629D02*
X-58926Y-64429D01*
X-50424D01*
X-69301Y-66700D02*
X-68229Y-65629D01*
X-60126D01*
X-78435Y-69229D02*
X-77107Y-67900D01*
X-86738Y-69229D02*
X-78435D01*
X-77107Y-67900D02*
X-68804D01*
X-67732Y-66829D01*
X-90604Y-73094D02*
X-86738Y-69229D01*
X-80604Y-73094D02*
X-76738Y-69229D01*
X-70604Y-73094D02*
X-66738Y-69229D01*
X-85000Y-73425D02*
X-84669Y-73094D01*
X-67235Y-68029D02*
X-58932D01*
X-66738Y-69229D02*
X-58435D01*
X-76738D02*
X-68435D01*
X-67235Y-68029D01*
X-58435Y-69229D02*
X-57235Y-68029D01*
X-58932D02*
X-57732Y-66829D01*
X-75000Y-73425D02*
X-74669Y-73094D01*
X-84669D02*
X-80604D01*
X-74669D02*
X-70604D01*
X68487Y-5501D02*
X76190D01*
X76600Y-5911D01*
Y-15513D02*
Y-5911D01*
X84952Y-8858D02*
X90039D01*
X84680Y-10827D02*
X90039D01*
X-6080Y-31166D02*
X-4383Y-32863D01*
X-6080Y-31166D02*
Y-28216D01*
X-4383Y-32863D02*
X-1275D01*
X3000Y-37138D01*
X-19953Y-36457D02*
Y-33900D01*
X-21921Y-38425D02*
X-19953Y-36457D01*
X-57299Y20017D02*
X-38565D01*
X46200Y3900D02*
X53912D01*
X54012Y4000D01*
X68400Y90600D02*
Y100972D01*
X68352Y101020D02*
X68400Y100972D01*
X66400Y88600D02*
X68400Y90600D01*
X-20804Y88600D02*
X66400D01*
X-25817Y39483D02*
X-25600Y39700D01*
X-25817Y32765D02*
Y39483D01*
X64700Y114000D02*
X68333D01*
X68352Y114020D01*
X57000Y105220D02*
X62000D01*
X64800Y101707D02*
X65487Y101020D01*
X61062Y110338D02*
X64800Y106600D01*
Y101707D02*
Y106600D01*
X65487Y101020D02*
X68352D01*
X61136Y112754D02*
X66308Y107582D01*
X51936Y112754D02*
X61136D01*
X50849Y111667D02*
X51936Y112754D01*
X57000Y110338D02*
X61062D01*
X50510D02*
X50849Y110677D01*
Y111667D01*
X-42400Y29100D02*
X-42100D01*
X-43300Y28200D02*
X-42400Y29100D01*
X-43300Y24700D02*
Y28200D01*
Y24700D02*
X-42554Y23954D01*
X-51266Y18048D02*
X-38565D01*
X-52814Y16500D02*
X-51266Y18048D01*
X-52900Y16500D02*
X-52814D01*
X-68600Y38785D02*
X-64685Y42700D01*
X-17251D01*
X-70503Y46500D02*
X-603D01*
X-68200Y42400D02*
X-66700Y43900D01*
X-16754D02*
X-14006Y41152D01*
X-69000Y45300D02*
X-16457D01*
X-71825Y42475D02*
X-69000Y45300D01*
X-17251Y42700D02*
X-15850Y41299D01*
X-66700Y43900D02*
X-16754D01*
X-16457Y45300D02*
X-12037Y40880D01*
X-603Y46500D02*
X5680Y40217D01*
X-73875Y43128D02*
X-70503Y46500D01*
X-1106Y48700D02*
X7648Y39946D01*
X-42554Y23954D02*
X-38565D01*
X42106Y-129019D02*
Y-121406D01*
X67988Y-6000D02*
X68487Y-5501D01*
X28045Y14111D02*
X30013Y12143D01*
X58657D01*
X59800Y11000D01*
Y938D02*
Y11000D01*
Y938D02*
X61538Y-800D01*
X68088D01*
X64494Y10146D02*
X65440Y9200D01*
X61961Y13656D02*
X64494Y11122D01*
X30918Y13656D02*
X61961D01*
X65440Y9200D02*
X68088D01*
X64494Y10146D02*
Y11122D01*
X28494Y16080D02*
X30918Y13656D01*
X22365Y16080D02*
X28494D01*
X22365Y14111D02*
X28045D01*
X27290Y12143D02*
X30233Y9200D01*
X54112D01*
X22365Y12143D02*
X27290D01*
X-71825Y42200D02*
Y42475D01*
X7648Y32765D02*
Y39946D01*
X5680Y32765D02*
Y40217D01*
X-19911Y32765D02*
Y39057D01*
X-21500Y40646D02*
Y40650D01*
Y40646D02*
X-19911Y39057D01*
X-12037Y32765D02*
Y40880D01*
X-17943Y32765D02*
Y39857D01*
X-14006Y32765D02*
Y41152D01*
X-15850Y32889D02*
Y41299D01*
X-17943Y39857D02*
X-17900Y39900D01*
X-74615Y17085D02*
X-71800Y19900D01*
X-120302Y17085D02*
X-74615D01*
X-70750Y15550D02*
X-69100Y17200D01*
X-120140Y15550D02*
X-70750D01*
X-15974Y32765D02*
X-15850Y32889D01*
X-38565Y25922D02*
Y29812D01*
X-126299Y15401D02*
X-122352Y19348D01*
X-122300Y15087D02*
X-120302Y17085D01*
X-121100Y14590D02*
X-120140Y15550D01*
X-122352Y19348D02*
X-76651D01*
X-126299Y7500D02*
Y15401D01*
X-61067Y22067D02*
X-38646D01*
X-61300Y22300D02*
X-61067Y22067D01*
X-38646D02*
X-38565Y21985D01*
X-126299Y-2500D02*
X-124606D01*
X-126299Y2500D02*
X-124606D01*
X11650Y3547D02*
X14340Y6237D01*
X22365D01*
X-65567Y-107928D02*
X-65495Y-108000D01*
X-62221D01*
X11703Y8153D02*
X22312D01*
X22365Y8206D01*
X11650Y8100D02*
X11703Y8153D01*
X17069Y4269D02*
X22365D01*
X18200Y2300D02*
X22365D01*
X1771Y-65629D02*
X10028D01*
X-9721Y-62029D02*
X-1418D01*
X-8229Y-65629D02*
X74D01*
X8537Y-62029D02*
X9766Y-60800D01*
X-10715Y-59629D02*
X-2412D01*
X10028Y-65629D02*
X11257Y-64400D01*
X-8726Y-64429D02*
X-423D01*
X279Y-62029D02*
X8537D01*
X-2412Y-59629D02*
X-1212Y-58429D01*
X-715Y-59629D02*
X7543D01*
X2268Y-66829D02*
X10525D01*
X-5000Y-73425D02*
X-4669Y-73094D01*
X1068Y-68029D02*
X2268Y-66829D01*
X2765Y-68029D02*
X11022D01*
X-6738Y-69229D02*
X1565D01*
X2765Y-68029D01*
X-9223Y-63229D02*
X-921D01*
X8040Y-60829D02*
X9269Y-59600D01*
X74Y-65629D02*
X1274Y-64429D01*
X-921Y-63229D02*
X279Y-62029D01*
X-604Y-73094D02*
X3262Y-69229D01*
X571Y-66829D02*
X1771Y-65629D01*
X-4669Y-73094D02*
X-604D01*
X-1915Y-60829D02*
X-715Y-59629D01*
X-218Y-60829D02*
X8040D01*
X-423Y-64429D02*
X777Y-63229D01*
X-11915Y-60829D02*
X-10715Y-59629D01*
X-10218Y-60829D02*
X-1915D01*
X1274Y-64429D02*
X9531D01*
X777Y-63229D02*
X9034D01*
X10525Y-66829D02*
X11754Y-65600D01*
X11022Y-68029D02*
X12251Y-66800D01*
X-7235Y-68029D02*
X1068D01*
X-1418Y-62029D02*
X-218Y-60829D01*
X3262Y-69229D02*
X11519D01*
X-7732Y-66829D02*
X571D01*
X9034Y-63229D02*
X10263Y-62000D01*
X9531Y-64429D02*
X10760Y-63200D01*
X7543Y-59629D02*
X8772Y-58400D01*
X120272Y-10827D02*
X130742D01*
X54606Y52429D02*
X57006Y50029D01*
X79079Y63229D02*
X80279Y62029D01*
X78582D02*
X79782Y60829D01*
X62971Y64429D02*
X79577D01*
X58000Y52429D02*
X74606D01*
X76594Y57229D02*
X77794Y56029D01*
X82510D01*
X69196Y69229D02*
X81565D01*
X59396Y73094D02*
X64462Y68029D01*
X55600Y54829D02*
X58000Y52429D01*
X61565Y69229D02*
X63965Y66829D01*
X59988Y57229D02*
X76594D01*
X60571Y66829D02*
X62971Y64429D01*
X74606Y52429D02*
X75806Y51229D01*
X49782Y60829D02*
X58085D01*
X55122Y73478D02*
X55506Y73094D01*
X64462Y68029D02*
X81068D01*
X75103Y53629D02*
X76303Y52429D01*
X58085Y60829D02*
X60485Y58429D01*
X58994Y54829D02*
X75600D01*
X63965Y66829D02*
X80571D01*
X55506Y73094D02*
X59396D01*
X57006Y50029D02*
X73612D01*
X60074Y65629D02*
X62474Y63229D01*
X73612Y50029D02*
X74812Y48829D01*
X48788Y58429D02*
X57091D01*
X65400Y73025D02*
Y73700D01*
X57588Y59629D02*
X59988Y57229D01*
X74812Y48829D02*
X79390D01*
X57503Y51229D02*
X74109D01*
X56097Y56029D02*
X58497Y53629D01*
X77297Y54829D02*
X82013D01*
X60485Y58429D02*
X77091D01*
X75806Y51229D02*
X80521D01*
X55103Y53629D02*
X57503Y51229D01*
X47794Y56029D02*
X56097D01*
X77091Y58429D02*
X78291Y57229D01*
X58497Y53629D02*
X75103D01*
X63468Y65629D02*
X80074D01*
X62474Y63229D02*
X79079D01*
X48291Y57229D02*
X56594D01*
X50777Y63229D02*
X59079D01*
X74109Y51229D02*
X75309Y50029D01*
X56594Y57229D02*
X58994Y54829D01*
X78085Y60829D02*
X79285Y59629D01*
X61479Y60829D02*
X78085D01*
X75309Y50029D02*
X79971D01*
X59577Y64429D02*
X61977Y62029D01*
X75600Y54829D02*
X76800Y53629D01*
X77588Y59629D02*
X78788Y58429D01*
X79285Y59629D02*
X84001D01*
X76800Y53629D02*
X81516D01*
X50279Y62029D02*
X58582D01*
X46800Y53629D02*
X55103D01*
X57091Y58429D02*
X59491Y56029D01*
X79782Y60829D02*
X84498D01*
X60982Y59629D02*
X77588D01*
X61977Y62029D02*
X78582D01*
X61068Y68029D02*
X63468Y65629D01*
X78788Y58429D02*
X83504D01*
X65400Y73025D02*
X69196Y69229D01*
X59491Y56029D02*
X76097D01*
X58582Y62029D02*
X60982Y59629D01*
X76097Y56029D02*
X77297Y54829D01*
X46303Y52429D02*
X54606D01*
X59079Y63229D02*
X61479Y60829D01*
X79800Y23100D02*
X86168Y16732D01*
X81000Y23597D02*
X85896Y18701D01*
X90039D01*
X86168Y16732D02*
X90039D01*
X-81612Y69100D02*
X-80541Y68029D01*
X-69529D01*
X-90675Y69100D02*
X-81612D01*
X-95000Y73425D02*
X-90675Y69100D01*
X-21921Y-40000D02*
Y-38425D01*
X-26362Y-49500D02*
X-25826Y-48964D01*
Y-46892D02*
X-23118Y-44183D01*
Y-41197D02*
X-21921Y-40000D01*
X-23118Y-44183D02*
Y-41197D01*
X-25826Y-48964D02*
Y-46892D01*
X66308Y107582D02*
X68352D01*
X32289Y124230D02*
X32360Y124159D01*
X21170Y124230D02*
X32289D01*
X21100Y124300D02*
X21170Y124230D01*
X-65478Y-99528D02*
X-62221D01*
X-62465Y-90961D02*
X-62408Y-90904D01*
X-65478Y-90961D02*
X-62465D01*
X-15000Y-73425D02*
X-14669Y-73094D01*
X-10604D01*
X-6738Y-69229D01*
X-30600Y96600D02*
X52541D01*
X57000Y101059D01*
X39840Y119041D02*
X44158D01*
X33639Y124159D02*
X36122Y126642D01*
X32360Y124159D02*
X33639D01*
X-65406Y-7900D02*
Y-6128D01*
X-64300Y-5023D01*
X-46057D01*
X-43537Y-7543D01*
X-69700Y-2800D02*
X-67986Y-1086D01*
X-46600D01*
X-65200Y-2800D02*
X-46583D01*
X-66800Y-4400D02*
X-65200Y-2800D01*
X-46583D02*
X-43809Y-5574D01*
X-43537Y-7543D02*
X-38565D01*
X-43809Y-5574D02*
X-38565D01*
X-46600Y-1086D02*
X-44080Y-3606D01*
X-38565D01*
X57000Y101059D02*
Y105220D01*
X-98629Y31953D02*
X-98235Y31559D01*
X-105000Y32000D02*
Y32205D01*
X-113878Y36874D02*
X-109669D01*
X-105000Y32205D01*
X-105500Y38500D02*
Y39123D01*
X-113878Y41874D02*
X-108251D01*
X-105500Y39123D01*
X-106757Y46874D02*
X-105500Y45616D01*
X-113878Y46874D02*
X-106757D01*
X-105500Y45000D02*
Y45616D01*
X-113878Y51874D02*
X-105626D01*
X-105500Y52000D01*
X82200Y115311D02*
Y127200D01*
X-84600Y72800D02*
X-84207Y73193D01*
X-54400Y72825D02*
Y73600D01*
X-14600Y72500D02*
X-14006Y73094D01*
X-5200Y73600D02*
X-4694Y73094D01*
X34906D02*
X35331D01*
X84900Y73300D02*
X85603D01*
X119700Y-8600D02*
X130212D01*
X119700Y-22600D02*
X125590D01*
X120100Y-29900D02*
Y-26500D01*
X87442Y-16640D02*
X90560D01*
X112927Y32400D02*
X124091D01*
X138500Y13700D02*
Y33265D01*
X125300Y23835D02*
Y27797D01*
X113424Y33600D02*
X124588D01*
X136100Y15543D02*
Y32271D01*
X128900Y21071D02*
Y29288D01*
X126500Y22913D02*
Y28294D01*
X133700Y17385D02*
Y31276D01*
X116406Y40800D02*
X127571D01*
X127700Y21992D02*
Y28791D01*
X128565Y43200D02*
X138500Y33265D01*
X128068Y42000D02*
X137300Y32768D01*
X131300Y19228D02*
Y30282D01*
X114418Y36000D02*
X125582D01*
X130100Y20149D02*
Y29785D01*
X132500Y18307D02*
Y30779D01*
X122600Y28800D02*
X123916Y27484D01*
X127073Y39600D02*
X134900Y31773D01*
Y16464D02*
Y31773D01*
X112430Y31200D02*
X123594D01*
X126576Y38400D02*
X133700Y31276D01*
X125582Y36000D02*
X131300Y30282D01*
X111932Y30000D02*
X123097D01*
X124588Y33600D02*
X128900Y29288D01*
X123916Y25016D02*
Y27484D01*
X113921Y34800D02*
X125085D01*
X123097Y30000D02*
X125300Y27797D01*
X117400Y43200D02*
X128565D01*
X116903Y42000D02*
X128068D01*
X137300Y15046D02*
Y32768D01*
X114915Y37200D02*
X126079D01*
X111435Y28800D02*
X122600D01*
X127571Y40800D02*
X136100Y32271D01*
X115909Y39600D02*
X127073D01*
X124091Y32400D02*
X127700Y28791D01*
X115412Y38400D02*
X126576D01*
X126079Y37200D02*
X132500Y30779D01*
X123594Y31200D02*
X126500Y28294D01*
X125085Y34800D02*
X130100Y29785D01*
X119961Y-984D02*
X129384D01*
X98710Y-48990D02*
X123072D01*
X126024Y-27370D02*
Y-23034D01*
X95512Y-42700D02*
X120876D01*
X118888Y-37900D02*
X128700Y-28088D01*
X93524Y-37900D02*
X118888D01*
X97500Y-47500D02*
X122865D01*
X117894Y-35500D02*
X126024Y-27370D01*
X94021Y-39100D02*
X119385D01*
X96506Y-45100D02*
X121871D01*
X128700Y-28088D02*
Y-19311D01*
X97003Y-46300D02*
X122368D01*
X127224Y-27867D02*
Y-21134D01*
X92032Y-34300D02*
X117397D01*
X95015Y-41500D02*
X120379D01*
X118391Y-36700D02*
X127224Y-27867D01*
X119385Y-39100D02*
X129900Y-28585D01*
X116900Y-33100D02*
X120100Y-29900D01*
X96009Y-43900D02*
X121373D01*
X91535Y-33100D02*
X116900D01*
X124177Y-27520D02*
Y-25016D01*
X117397Y-34300D02*
X124177Y-27520D01*
X92530Y-35500D02*
X117894D01*
X94518Y-40300D02*
X119882D01*
X129900Y-28585D02*
Y-17900D01*
X93027Y-36700D02*
X118391D01*
X74864Y101020D02*
Y101413D01*
X86600Y113149D01*
Y124600D01*
X74864Y107975D02*
X82200Y115311D01*
X74864Y107582D02*
Y107975D01*
Y114020D02*
Y126694D01*
X77100Y128930D01*
Y129500D01*
X123506Y24606D02*
X123916Y25016D01*
X119961Y24606D02*
X123506D01*
X83007Y57229D02*
X111435Y28800D01*
X83400Y25003D02*
Y50047D01*
X85823Y27000D02*
Y51018D01*
X81018Y52429D02*
X83400Y50047D01*
X111964Y26575D02*
X119961D01*
X86983Y66829D02*
X115412Y38400D01*
X81516Y53629D02*
X84600Y50544D01*
X83504Y58429D02*
X111932Y30000D01*
X84995Y62029D02*
X113424Y33600D01*
X84600Y25500D02*
Y50544D01*
X86486Y65629D02*
X114915Y37200D01*
X80279Y62029D02*
X84995D01*
X87977Y69229D02*
X116406Y40800D01*
X84001Y59629D02*
X112430Y31200D01*
X80521Y51229D02*
X82200Y49550D01*
Y24500D02*
Y49550D01*
X85492Y63229D02*
X113921Y34800D01*
X82510Y56029D02*
X111964Y26575D01*
X84498Y60829D02*
X112927Y32400D01*
X83262Y69229D02*
X87977D01*
X82765Y68029D02*
X87480D01*
X76303Y52429D02*
X81018D01*
X87480Y68029D02*
X115909Y39600D01*
X78291Y57229D02*
X83007D01*
X80777Y63229D02*
X85492D01*
X85989Y64429D02*
X114418Y36000D01*
X82013Y54829D02*
X85823Y51018D01*
X81274Y64429D02*
X85989D01*
X95000Y65600D02*
Y73425D01*
X82268Y66829D02*
X86983D01*
X85603Y73300D02*
X116903Y42000D01*
X81771Y65629D02*
X86486D01*
X95000Y65600D02*
X117400Y43200D01*
X79390Y48829D02*
X79800Y48419D01*
X81000Y23597D02*
Y49000D01*
X79971Y50029D02*
X81000Y49000D01*
X79800Y23100D02*
Y48419D01*
X85823Y27000D02*
X86233Y26590D01*
X119961Y2953D02*
X125207D01*
X137300Y15046D01*
X121106Y-24606D02*
X123767D01*
X124177Y-25016D01*
X126759Y-20669D02*
X127224Y-21134D01*
X125590Y-22600D02*
X126024Y-23034D01*
X75000Y-73425D02*
Y-68303D01*
X97003Y-46300D01*
X85600Y-59400D02*
X97500Y-47500D01*
X85000Y-73425D02*
X85600Y-72825D01*
Y-59400D01*
X66704Y-59629D02*
X71800Y-54532D01*
X59285Y-59629D02*
X66704D01*
X67698Y-62029D02*
X74200Y-55527D01*
X77800Y-57018D02*
Y-57018D01*
X68692Y-64429D02*
X76600Y-56521D01*
X61771Y-65629D02*
X69189D01*
X61274Y-64429D02*
X68692D01*
X73000Y-55030D02*
Y-55029D01*
X60279Y-62029D02*
X67698D01*
X67201Y-60829D02*
X73000Y-55030D01*
X59782Y-60829D02*
X67201D01*
X70680Y-69229D02*
X81400Y-58509D01*
X66207Y-58429D02*
X70600Y-54035D01*
X58788Y-58429D02*
X66207D01*
X68986Y-72620D02*
X82600Y-59006D01*
X65000Y-73425D02*
X65806Y-72620D01*
X69686Y-66829D02*
X79000Y-57515D01*
X82600Y-59006D02*
Y-59006D01*
X70183Y-68029D02*
X80200Y-58012D01*
X68195Y-63229D02*
X75400Y-56024D01*
X63262Y-69229D02*
X70680D01*
X65806Y-72620D02*
X68986D01*
X62765Y-68029D02*
X70183D01*
X62268Y-66829D02*
X69686D01*
X60777Y-63229D02*
X68195D01*
X69189Y-65629D02*
X77800Y-57018D01*
X74200Y-55527D02*
X93027Y-36700D01*
X76600Y-56521D02*
X94021Y-39100D01*
X79000Y-57515D02*
X95015Y-41500D01*
X81400Y-58509D02*
X96009Y-43900D01*
X82600Y-59006D02*
X96506Y-45100D01*
X70600Y-54035D02*
X91535Y-33100D01*
X77800Y-57018D02*
X94518Y-40300D01*
X80200Y-58012D02*
X95512Y-42700D01*
X71800Y-54532D02*
X92032Y-34300D01*
X73000Y-55029D02*
X92530Y-35500D01*
X75400Y-56024D02*
X93524Y-37900D01*
X64716Y-54829D02*
X84200Y-35344D01*
X56303Y-52429D02*
X63721D01*
X65710Y-57229D02*
X90039Y-32899D01*
X80600Y-33853D02*
Y-22100D01*
X84200Y-35344D02*
Y-24671D01*
X63224Y-51229D02*
X80600Y-33853D01*
X64218Y-53629D02*
X83000Y-34847D01*
X55806Y-51229D02*
X63224D01*
X57297Y-54829D02*
X64716D01*
X83000Y-34847D02*
Y-23903D01*
X81800Y-34350D02*
Y-23134D01*
X90039Y-32899D02*
Y-26575D01*
X65213Y-56029D02*
X85400Y-35841D01*
X57794Y-56029D02*
X65213D01*
X56800Y-53629D02*
X64218D01*
X58291Y-57229D02*
X65710D01*
X63721Y-52429D02*
X81800Y-34350D01*
X85400Y-35841D02*
Y-25440D01*
X86233Y-18701D02*
X89899D01*
X86233Y-22638D02*
X90039D01*
X84200Y-24671D02*
X86233Y-22638D01*
Y-20669D02*
X89231D01*
X83000Y-23903D02*
X86233Y-20669D01*
X81800Y-23134D02*
X86233Y-18701D01*
X80600Y-22100D02*
X86100Y-16600D01*
X86233Y-24606D02*
X90039D01*
X85400Y-25440D02*
X86233Y-24606D01*
X86100Y-16600D02*
X87402D01*
X119969Y-20669D02*
X126759D01*
X119961Y-18701D02*
X128090D01*
X119961Y-16732D02*
X128732D01*
X128090Y-18701D02*
X128700Y-19311D01*
X128732Y-16732D02*
X129900Y-17900D01*
X119961Y-14764D02*
X128461D01*
X120695Y-12795D02*
X131013D01*
X120521Y-4921D02*
X129927D01*
X120453Y-2953D02*
X129656D01*
X120200Y-6900D02*
X130209D01*
X87402Y-16600D02*
X87442Y-16640D01*
X61565Y-69229D02*
X62765Y-68029D01*
X55600Y-54829D02*
X56800Y-53629D01*
X57091Y-58429D02*
X58291Y-57229D01*
X60571Y-66829D02*
X61771Y-65629D01*
X58582Y-62029D02*
X59782Y-60829D01*
X59577Y-64429D02*
X60777Y-63229D01*
X61068Y-68029D02*
X62268Y-66829D01*
X54606Y-52429D02*
X55806Y-51229D01*
X58085Y-60829D02*
X59285Y-59629D01*
X60074Y-65629D02*
X61274Y-64429D01*
X59396Y-73094D02*
X63262Y-69229D01*
X56594Y-57229D02*
X57794Y-56029D01*
X46303Y-52429D02*
X54606D01*
X59079Y-63229D02*
X60279Y-62029D01*
X55103Y-53629D02*
X56303Y-52429D01*
X57588Y-59629D02*
X58788Y-58429D01*
X56097Y-56029D02*
X57297Y-54829D01*
X52268Y-66829D02*
X60571D01*
X49577Y-64429D02*
X50777Y-63229D01*
X51068Y-68029D02*
X52268Y-66829D01*
X49079Y-63229D02*
X50279Y-62029D01*
X58582D01*
X50777Y-63229D02*
X59079D01*
X49782Y-60829D02*
X58085D01*
X51565Y-69229D02*
X52765Y-68029D01*
X53262Y-69229D02*
X61565D01*
X48788Y-58429D02*
X57091D01*
X49396Y-73094D02*
X53262Y-69229D01*
X47297Y-54829D02*
X55600D01*
X51771Y-65629D02*
X60074D01*
X48291Y-57229D02*
X56594D01*
X48582Y-62029D02*
X49782Y-60829D01*
X50571Y-66829D02*
X51771Y-65629D01*
X28497Y-53629D02*
X45103D01*
X46800D02*
X55103D01*
X48085Y-60829D02*
X49285Y-59629D01*
X45103Y-53629D02*
X46303Y-52429D01*
X46097Y-56029D02*
X47297Y-54829D01*
X46594Y-57229D02*
X47794Y-56029D01*
X49285Y-59629D02*
X57588D01*
X47794Y-56029D02*
X56097D01*
X52765Y-68029D02*
X61068D01*
X51274Y-64429D02*
X59577D01*
X50074Y-65629D02*
X51274Y-64429D01*
X47588Y-59629D02*
X48788Y-58429D01*
X45600Y-54829D02*
X46800Y-53629D01*
X47091Y-58429D02*
X48291Y-57229D01*
X32971Y-64429D02*
X49577D01*
X30571Y-66829D02*
X32971Y-64429D01*
X28582Y-62029D02*
X30982Y-59629D01*
X31479Y-60829D02*
X48085D01*
X39196Y-69229D02*
X51565D01*
X29988Y-57229D02*
X46594D01*
X26097Y-56029D02*
X28497Y-53629D01*
X26594Y-57229D02*
X28994Y-54829D01*
X34462Y-68029D02*
X51068D01*
X29396Y-73094D02*
X34462Y-68029D01*
X27588Y-59629D02*
X29988Y-57229D01*
X28085Y-60829D02*
X30485Y-58429D01*
X30982Y-59629D02*
X47588D01*
X33468Y-65629D02*
X50074D01*
X29577Y-64429D02*
X31977Y-62029D01*
X27091Y-58429D02*
X29491Y-56029D01*
X29079Y-63229D02*
X31479Y-60829D01*
X30485Y-58429D02*
X47091D01*
X32474Y-63229D02*
X49079D01*
X29491Y-56029D02*
X46097D01*
X17794D02*
X26097D01*
X30074Y-65629D02*
X32474Y-63229D01*
X35000Y-73425D02*
X39196Y-69229D01*
X28994Y-54829D02*
X45600D01*
X31977Y-62029D02*
X48582D01*
X31565Y-69229D02*
X33965Y-66829D01*
X31068Y-68029D02*
X33468Y-65629D01*
X33965Y-66829D02*
X50571D01*
X12748Y-68000D02*
X21096D01*
X10760Y-63200D02*
X19108D01*
X13291Y-69200D02*
X21593D01*
X12251Y-66800D02*
X20599D01*
X22765Y-68029D02*
X31068D01*
X23262Y-69229D02*
X31565D01*
X20102Y-65600D02*
X21274Y-64429D01*
X11257Y-64400D02*
X19605D01*
X18788Y-58429D02*
X27091D01*
X19108Y-63200D02*
X20279Y-62029D01*
X11754Y-65600D02*
X20102D01*
X18611Y-62000D02*
X19782Y-60829D01*
X19396Y-73094D02*
X23262Y-69229D01*
X9269Y-59600D02*
X17617D01*
X17120Y-58400D02*
X18291Y-57229D01*
X26594D01*
X22268Y-66829D02*
X30571D01*
X21771Y-65629D02*
X30074D01*
X19285Y-59629D02*
X27588D01*
X20599Y-66800D02*
X21771Y-65629D01*
X9766Y-60800D02*
X18114D01*
X10263Y-62000D02*
X18611D01*
X20279Y-62029D02*
X28582D01*
X20777Y-63229D02*
X29079D01*
X8772Y-58400D02*
X17120D01*
X18114Y-60800D02*
X19285Y-59629D01*
X19782Y-60829D02*
X28085D01*
X16623Y-57200D02*
X17794Y-56029D01*
X19605Y-64400D02*
X20777Y-63229D01*
X21096Y-68000D02*
X22268Y-66829D01*
X15331Y-73094D02*
X19396D01*
X17617Y-59600D02*
X18788Y-58429D01*
X21274Y-64429D02*
X29577D01*
X15000Y-73425D02*
X15331Y-73094D01*
X21593Y-69200D02*
X22765Y-68029D01*
X11519Y-69229D02*
X12748Y-68000D01*
X10804Y-71687D02*
X13291Y-69200D01*
X-9926Y-65629D02*
X-8726Y-64429D01*
X-8932Y-68029D02*
X-7732Y-66829D01*
X-10921Y-63229D02*
X-9721Y-62029D01*
X-8435Y-69229D02*
X-7235Y-68029D01*
X-20218Y-60829D02*
X-11915D01*
X-11418Y-62029D02*
X-10218Y-60829D01*
X-10423Y-64429D02*
X-9223Y-63229D01*
X-9429Y-66829D02*
X-8229Y-65629D01*
X-17732Y-66829D02*
X-9429D01*
X-16738Y-69229D02*
X-8435D01*
X-17235Y-68029D02*
X-8932D01*
X-18726Y-64429D02*
X-10423D01*
X-18435Y-69229D02*
X-17235Y-68029D01*
X-18229Y-65629D02*
X-9926D01*
X-19721Y-62029D02*
X-11418D01*
X-19223Y-63229D02*
X-10921D01*
X-47235Y-68029D02*
X-38932D01*
X-46738Y-69229D02*
X-38435D01*
X-39926Y-65629D02*
X-38726Y-64429D01*
X-39429Y-66829D02*
X-38229Y-65629D01*
X-44669Y-73094D02*
X-40604D01*
X-45000Y-73425D02*
X-44669Y-73094D01*
X-38435Y-69229D02*
X-37235Y-68029D01*
X-47732Y-66829D02*
X-39429D01*
X-48229Y-65629D02*
X-39926D01*
X-48726Y-64429D02*
X-40423D01*
X-40604Y-73094D02*
X-36738Y-69229D01*
X-38932Y-68029D02*
X-37732Y-66829D01*
X-49926Y-65629D02*
X-48726Y-64429D01*
X-55000Y-73425D02*
X-54669Y-73094D01*
X-48435Y-69229D02*
X-47235Y-68029D01*
X-54669Y-73094D02*
X-50604D01*
X-46738Y-69229D01*
X-58229Y-65629D02*
X-49926D01*
X-49429Y-66829D02*
X-48229Y-65629D01*
X-48932Y-68029D02*
X-47732Y-66829D01*
X-58900Y-66100D02*
X-58701D01*
X-57732Y-66829D02*
X-49429D01*
X-57235Y-68029D02*
X-48932D01*
X-56738Y-69229D02*
X-48435D01*
X-58701Y-66100D02*
X-58229Y-65629D01*
X-59629Y-66829D02*
X-58900Y-66100D01*
X-59196Y-71687D02*
X-56738Y-69229D01*
X-67732Y-66829D02*
X-59629D01*
X-60840Y-73460D02*
X-59196Y-71817D01*
X-60875Y-73425D02*
X-60840Y-73460D01*
X-65000Y-73425D02*
X-60875D01*
X-59196Y-71817D02*
Y-71687D01*
X-94669Y-73094D02*
X-90604D01*
X-95000Y-73425D02*
X-94669Y-73094D01*
X55331D02*
X59396D01*
X55000Y-73425D02*
X55331Y-73094D01*
X45000Y-73425D02*
X45331Y-73094D01*
X49396D01*
X10804Y-71847D02*
Y-71687D01*
X9225Y-73425D02*
X10804Y-71847D01*
X5000Y-73425D02*
X9225D01*
X25331Y-73094D02*
X29396D01*
X25000Y-73425D02*
X25331Y-73094D01*
X86233Y26590D02*
X90024D01*
X84600Y25500D02*
X85494Y24606D01*
X90039D01*
X85765Y22638D02*
X90039D01*
X83400Y25003D02*
X85765Y22638D01*
X86031Y20669D02*
X90039D01*
X82200Y24500D02*
X86031Y20669D01*
X90024Y26590D02*
X90039Y26575D01*
X80571Y66829D02*
X81771Y65629D01*
X81565Y69229D02*
X82765Y68029D01*
X79577Y64429D02*
X80777Y63229D01*
X80074Y65629D02*
X81274Y64429D01*
X79396Y73094D02*
X83262Y69229D01*
X81068Y68029D02*
X82268Y66829D01*
X52062Y70429D02*
X53262Y69229D01*
X52765Y68029D02*
X61068D01*
X49079Y63229D02*
X50279Y62029D01*
X52268Y66829D02*
X60571D01*
X46594Y57229D02*
X47794Y56029D01*
X49285Y59629D02*
X57588D01*
X49577Y64429D02*
X50777Y63229D01*
X51274Y64429D02*
X59577D01*
X48085Y60829D02*
X49285Y59629D01*
X47297Y54829D02*
X55600D01*
X50571Y66829D02*
X51771Y65629D01*
X47091Y58429D02*
X48291Y57229D01*
X47588Y59629D02*
X48788Y58429D01*
X51565Y69229D02*
X52765Y68029D01*
X48582Y62029D02*
X49782Y60829D01*
X53262Y69229D02*
X61565D01*
X28497Y53629D02*
X45103D01*
X51771Y65629D02*
X60074D01*
X45103Y53629D02*
X46303Y52429D01*
X50991Y71500D02*
X52062Y70429D01*
X45600Y54829D02*
X46800Y53629D01*
X46097Y56029D02*
X47297Y54829D01*
X50074Y65629D02*
X51274Y64429D01*
X51068Y68029D02*
X52268Y66829D01*
X28085Y60829D02*
X30485Y58429D01*
X28582Y62029D02*
X30982Y59629D01*
X30571Y66829D02*
X32971Y64429D01*
X35331Y73094D02*
X39196Y69229D01*
X31565D02*
X33965Y66829D01*
X29577Y64429D02*
X31977Y62029D01*
X31068Y68029D02*
X33468Y65629D01*
X29079Y63229D02*
X31479Y60829D01*
X28994Y54829D02*
X45600D01*
X27091Y58429D02*
X29491Y56029D01*
X29396Y73094D02*
X34462Y68029D01*
X51068D01*
X27588Y59629D02*
X29988Y57229D01*
X32474Y63229D02*
X49079D01*
X31479Y60829D02*
X48085D01*
X29988Y57229D02*
X46594D01*
X39196Y69229D02*
X51565D01*
X26097Y56029D02*
X28497Y53629D01*
X30982Y59629D02*
X47588D01*
X29491Y56029D02*
X46097D01*
X32971Y64429D02*
X49577D01*
X33965Y66829D02*
X50571D01*
X33468Y65629D02*
X50074D01*
X26594Y57229D02*
X28994Y54829D01*
X30485Y58429D02*
X47091D01*
X31977Y62029D02*
X48582D01*
X30074Y65629D02*
X32474Y63229D01*
X17794Y56029D02*
X26097D01*
X19079Y63229D02*
X20279Y62029D01*
X19577Y64429D02*
X20777Y63229D01*
X21274Y64429D02*
X29577D01*
X20777Y63229D02*
X29079D01*
X20279Y62029D02*
X28582D01*
X8291Y57229D02*
X16594D01*
X8788Y58429D02*
X17091D01*
X18582Y62029D02*
X19782Y60829D01*
X20571Y66829D02*
X21771Y65629D01*
X22268Y66829D02*
X30571D01*
X9782Y60829D02*
X18085D01*
X23262Y69229D02*
X31565D01*
X22765Y68029D02*
X31068D01*
X19285Y59629D02*
X27588D01*
X17588D02*
X18788Y58429D01*
X27091D01*
X21068Y68029D02*
X22268Y66829D01*
X20074Y65629D02*
X21274Y64429D01*
X21771Y65629D02*
X30074D01*
X18085Y60829D02*
X19285Y59629D01*
X9285D02*
X17588D01*
X19396Y73094D02*
X23262Y69229D01*
X21565D02*
X22765Y68029D01*
X10279Y62029D02*
X18582D01*
X18291Y57229D02*
X26594D01*
X17091Y58429D02*
X18291Y57229D01*
X16594D02*
X17794Y56029D01*
X19782Y60829D02*
X28085D01*
X1565Y69229D02*
X2765Y68029D01*
X-604Y73094D02*
X3262Y69229D01*
X1771Y65629D02*
X10074D01*
X1068Y68029D02*
X2268Y66829D01*
X1274Y64429D02*
X9577D01*
X74Y65629D02*
X1274Y64429D01*
X571Y66829D02*
X1771Y65629D01*
X2765Y68029D02*
X11068D01*
X-423Y64429D02*
X777Y63229D01*
X-921D02*
X279Y62029D01*
X2268Y66829D02*
X10571D01*
X-1915Y60829D02*
X-715Y59629D01*
X-218Y60829D02*
X8085D01*
X-715Y59629D02*
X7588D01*
X7091Y58429D02*
X8291Y57229D01*
X-1418Y62029D02*
X-218Y60829D01*
X3262Y69229D02*
X11565D01*
X279Y62029D02*
X8582D01*
X-2412Y59629D02*
X-1212Y58429D01*
X7091D01*
X777Y63229D02*
X9079D01*
X-7732Y66829D02*
X571D01*
X-9926Y65629D02*
X-8726Y64429D01*
X-10423D02*
X-9223Y63229D01*
X-11418Y62029D02*
X-10218Y60829D01*
X-9223Y63229D02*
X-921D01*
X-8932Y68029D02*
X-7732Y66829D01*
X-8726Y64429D02*
X-423D01*
X-10218Y60829D02*
X-1915D01*
X-7235Y68029D02*
X1068D01*
X-9721Y62029D02*
X-1418D01*
X-9429Y66829D02*
X-8229Y65629D01*
X-10921Y63229D02*
X-9721Y62029D01*
X-11915Y60829D02*
X-10715Y59629D01*
X-2412D01*
X-6738Y69229D02*
X1565D01*
X-8435D02*
X-7235Y68029D01*
X-8229Y65629D02*
X74D01*
X-10604Y73094D02*
X-6738Y69229D01*
X13262D02*
X21565D01*
X11565D02*
X12765Y68029D01*
X10777Y63229D02*
X19079D01*
X12765Y68029D02*
X21068D01*
X8085Y60829D02*
X9285Y59629D01*
X10571Y66829D02*
X11771Y65629D01*
X11068Y68029D02*
X12268Y66829D01*
X11771Y65629D02*
X20074D01*
X8582Y62029D02*
X9782Y60829D01*
X9079Y63229D02*
X10279Y62029D01*
X10074Y65629D02*
X11274Y64429D01*
X9577D02*
X10777Y63229D01*
X12268Y66829D02*
X20571D01*
X11274Y64429D02*
X19577D01*
X7588Y59629D02*
X8788Y58429D01*
X9396Y73094D02*
X13262Y69229D01*
X-20218Y60829D02*
X-11915D01*
X-18229Y65629D02*
X-9926D01*
X-18726Y64429D02*
X-10423D01*
X-19721Y62029D02*
X-11418D01*
X-19223Y63229D02*
X-10921D01*
X-29223D02*
X-20921D01*
X-28726Y64429D02*
X-20423D01*
X-27732Y66829D02*
X-19429D01*
X-25000Y73425D02*
X-24669Y73094D01*
X-27235Y68029D02*
X-18932D01*
X-17235D02*
X-8932D01*
X-28229Y65629D02*
X-19926D01*
X-20921Y63229D02*
X-19721Y62029D01*
X-24669Y73094D02*
X-20604D01*
X-18932Y68029D02*
X-17732Y66829D01*
X-19429D02*
X-18229Y65629D01*
X-20423Y64429D02*
X-19223Y63229D01*
X-19926Y65629D02*
X-18726Y64429D01*
X-29721Y62029D02*
X-21418D01*
X-20218Y60829D01*
X-16738Y69229D02*
X-8435D01*
X-26738D02*
X-18435D01*
X-17732Y66829D02*
X-9429D01*
X-20604Y73094D02*
X-16738Y69229D01*
X-18435D02*
X-17235Y68029D01*
X-38435Y69229D02*
X-37235Y68029D01*
X-36738Y69229D02*
X-28435D01*
X-37235Y68029D02*
X-28932D01*
X-39926Y65629D02*
X-38726Y64429D01*
X-30423D01*
X-39223Y63229D02*
X-30921D01*
X-38229Y65629D02*
X-29926D01*
X-38932Y68029D02*
X-37732Y66829D01*
X-40423Y64429D02*
X-39223Y63229D01*
X-39429Y66829D02*
X-38229Y65629D01*
X-57029Y64429D02*
X-40423D01*
X-40604Y73094D02*
X-36738Y69229D01*
X-37732Y66829D02*
X-29429D01*
X-30921Y63229D02*
X-29721Y62029D01*
X-28435Y69229D02*
X-27235Y68029D01*
X-28932D02*
X-27732Y66829D01*
X-30604Y73094D02*
X-26738Y69229D01*
X-30423Y64429D02*
X-29223Y63229D01*
X-29926Y65629D02*
X-28726Y64429D01*
X-29429Y66829D02*
X-28229Y65629D01*
X-56532D02*
X-39926D01*
X-50804Y69229D02*
X-38435D01*
X-56035Y66829D02*
X-39429D01*
X-55538Y68029D02*
X-38932D01*
X-67854Y66354D02*
X-58955D01*
X-58504Y67600D02*
X-56532Y65629D01*
X-58007Y68800D02*
X-56035Y66829D01*
X-54400Y72825D02*
X-50804Y69229D01*
X-58955Y66354D02*
X-57029Y64429D01*
X-60604Y73094D02*
X-55538Y68029D01*
X-69529D02*
X-67854Y66354D01*
X-79500Y71991D02*
X-76738Y69229D01*
X-68526D01*
X-66897Y67600D01*
X-84207Y73193D02*
X-80604D01*
X-79500Y72090D01*
Y71991D02*
Y72090D01*
X-66897Y67600D02*
X-58504D01*
X-70604Y73004D02*
X-66400Y68800D01*
X-74004Y73004D02*
X-70604D01*
X-74700Y73700D02*
X-74004Y73004D01*
X-66400Y68800D02*
X-58007D01*
X-34506Y73094D02*
X-30604D01*
X-64894D02*
X-60604D01*
X-65000Y73200D02*
X-64894Y73094D01*
X-45000Y73300D02*
X-44794Y73094D01*
X-40604D01*
X-14006D02*
X-10604D01*
X75400Y73400D02*
X75706Y73094D01*
X79396D01*
X25000Y73425D02*
X25331Y73094D01*
X29396D01*
X47100Y71500D02*
X50991D01*
X-4694Y73094D02*
X-604D01*
X5331D02*
X9396D01*
X5100Y73325D02*
X5331Y73094D01*
X15894D02*
X19396D01*
X15700Y72900D02*
X15894Y73094D01*
X124867Y12795D02*
X131300Y19228D01*
X124256Y20669D02*
X126500Y22913D01*
X125326Y6890D02*
X134900Y16464D01*
X124409Y18701D02*
X127700Y21992D01*
X125173Y8858D02*
X133700Y17385D01*
X124138Y22672D02*
X125300Y23835D01*
X124562Y16732D02*
X128900Y21071D01*
X125479Y4921D02*
X136100Y15543D01*
X125784Y984D02*
X138500Y13700D01*
X125020Y10827D02*
X132500Y18307D01*
X124715Y14764D02*
X130100Y20149D01*
X119961Y22638D02*
X119995Y22672D01*
X124138D01*
X119961Y14764D02*
X124715D01*
X119961Y20669D02*
X124256D01*
X119961Y16732D02*
X124562D01*
X119961Y18701D02*
X124409D01*
X119961Y6890D02*
X125326D01*
X119961Y4921D02*
X125479D01*
X119961Y12795D02*
X124867D01*
X119961Y8858D02*
X125173D01*
X119961Y984D02*
X125784D01*
X119961Y10827D02*
X125020D01*
D66*
X-29754Y19254D02*
X-27500Y17000D01*
X-29754Y19254D02*
Y32765D01*
X-43700Y-23700D02*
Y-20200D01*
X-42854Y-19354D02*
X-38565D01*
X-43700Y-20200D02*
X-42854Y-19354D01*
X-16100Y-20800D02*
X-14006Y-22894D01*
Y-28165D02*
Y-22894D01*
X3400Y-44300D02*
X10000D01*
X16350Y-44150D02*
X16550D01*
X16000D02*
X16350D01*
X9600D02*
X16000D01*
X16550D02*
X16600Y-44200D01*
X3150Y-44300D02*
X3400D01*
X3100Y-44600D02*
X3400Y-44300D01*
X2850Y-47450D02*
Y-43012D01*
X3000Y-44150D02*
X3150Y-44300D01*
X6200Y-44014D02*
Y-36274D01*
X3711Y-33785D02*
Y-28165D01*
Y-33785D02*
X6200Y-36274D01*
X-81875Y-32500D02*
Y-29556D01*
D67*
X14025Y-17547D02*
X20528Y-24050D01*
X20114Y-25050D02*
X44868D01*
X13610Y-18546D02*
X20114Y-25050D01*
X44868D02*
X47343Y-22576D01*
X20528Y-24050D02*
X43868D01*
X46343Y-21576D01*
X46636Y-800D02*
X53812D01*
X47343Y-6293D02*
X47636Y-6000D01*
X46343Y-21576D02*
Y-1093D01*
X47343Y-22576D02*
Y-6293D01*
X46343Y-1093D02*
X46636Y-800D01*
X47636Y-6000D02*
X54012D01*
X1743Y-20097D02*
X3293Y-18546D01*
X1743Y-28165D02*
Y-20097D01*
X-226Y-28165D02*
Y-20651D01*
X2878Y-17547D01*
X14025D01*
X3293Y-18546D02*
X13610D01*
X53812Y-800D02*
X54012Y-1000D01*
D68*
X-104926Y-31043D02*
X-104863Y-30980D01*
X-104994Y-31112D02*
X-104926Y-31043D01*
X-104863Y-26063D02*
X-104800Y-26000D01*
D69*
X-9900Y120300D02*
D03*
X90830Y122170D02*
D03*
X89000Y129000D02*
D03*
X86500Y124670D02*
D03*
X84670Y131500D02*
D03*
X82170Y127170D02*
D03*
X80340Y134000D02*
D03*
X77840Y129670D02*
D03*
X76010Y136500D02*
D03*
X73510Y132170D02*
D03*
X71680Y139000D02*
D03*
X69180Y134670D02*
D03*
X67349Y141500D02*
D03*
X64849Y137170D02*
D03*
D70*
X-40609Y120300D02*
D03*
D71*
X-95000Y73425D02*
D03*
X-25000D02*
D03*
X65000D02*
D03*
X35000D02*
D03*
X5000D02*
D03*
X-105000D02*
D03*
X-75000D02*
D03*
X-85000D02*
D03*
X-65000D02*
D03*
X-35000D02*
D03*
X-45000D02*
D03*
X-55000D02*
D03*
X-5000D02*
D03*
X-15000D02*
D03*
X25000D02*
D03*
X15000D02*
D03*
X45000D02*
D03*
X55000D02*
D03*
X85000D02*
D03*
X75000D02*
D03*
X95000D02*
D03*
X105000D02*
D03*
X85000Y-73425D02*
D03*
X75000D02*
D03*
X95000D02*
D03*
X45000D02*
D03*
X55000D02*
D03*
X25000D02*
D03*
X15000D02*
D03*
X-5000D02*
D03*
X-15000D02*
D03*
X-35000D02*
D03*
X-45000D02*
D03*
X-55000D02*
D03*
X-75000D02*
D03*
X-85000D02*
D03*
X-65000D02*
D03*
X-105000D02*
D03*
X65000D02*
D03*
X35000D02*
D03*
X5000D02*
D03*
X-95000D02*
D03*
X-25000D02*
D03*
D72*
X105000D02*
D03*
D73*
X156000Y0D02*
D03*
X-156000D02*
D03*
D74*
X93330Y126500D02*
D03*
D75*
X-114200Y98400D02*
D03*
X114200Y-98400D02*
D03*
X-114200D02*
D03*
X114200Y98400D02*
D03*
D76*
X-146400Y60100D02*
D03*
X-70600Y-147400D02*
D03*
X78500Y-4100D02*
D03*
X-153900Y60200D02*
D03*
X-27500Y17000D02*
D03*
X13700Y-3300D02*
D03*
X36400Y-15000D02*
D03*
X-28300Y-2000D02*
D03*
X-45700Y5400D02*
D03*
X-32000Y10800D02*
D03*
X-61153Y7754D02*
D03*
X-64300Y10256D02*
D03*
X-43700Y-23700D02*
D03*
X-16100Y-20800D02*
D03*
X43200Y-1600D02*
D03*
X60400Y-11000D02*
D03*
X53000Y107600D02*
D03*
X45000Y121400D02*
D03*
X32200Y153200D02*
D03*
X42106Y-110300D02*
D03*
X52012Y-125312D02*
D03*
X15800Y-100200D02*
D03*
X-37218Y-93900D02*
D03*
X-8347Y-92128D02*
D03*
X-3906Y-87000D02*
D03*
X50028Y-136189D02*
D03*
X-75091Y-26800D02*
D03*
X45600Y39700D02*
D03*
X45705Y26514D02*
D03*
Y32900D02*
D03*
X-73900Y38800D02*
D03*
X156000Y-12544D02*
D03*
X9617Y-15597D02*
D03*
X59500Y-135000D02*
D03*
X-76651Y44864D02*
D03*
X15500Y20100D02*
D03*
Y26900D02*
D03*
X101047Y-16600D02*
D03*
X110700Y-52200D02*
D03*
X105000Y-52700D02*
D03*
X110800Y-30000D02*
D03*
X105100D02*
D03*
X-50200Y-82100D02*
D03*
X-70400Y-82300D02*
D03*
X28932Y-16834D02*
D03*
X81800Y-5501D02*
D03*
X44100Y-13448D02*
D03*
X44393Y-19300D02*
D03*
X-25000Y-160008D02*
D03*
X74Y-85232D02*
D03*
X5742Y-87000D02*
D03*
X6150Y-54434D02*
D03*
X13189Y-136335D02*
D03*
Y-159811D02*
D03*
X-15594Y-99328D02*
D03*
X-32382Y-140800D02*
D03*
X-80600Y-121019D02*
D03*
X-113996Y-52310D02*
D03*
X71400Y-144100D02*
D03*
Y-123400D02*
D03*
X101223Y9083D02*
D03*
X42000Y-6500D02*
D03*
X10168Y-21873D02*
D03*
X20500Y-36225D02*
D03*
X20296Y-42181D02*
D03*
X55100Y-39400D02*
D03*
X55000Y-23400D02*
D03*
X19500Y-29100D02*
D03*
X-25900Y-87200D02*
D03*
X-13982Y-54906D02*
D03*
X13800Y-53400D02*
D03*
X-142900Y-26300D02*
D03*
X32200Y112200D02*
D03*
Y147300D02*
D03*
X-8500Y112100D02*
D03*
X-38640Y109600D02*
D03*
X-37700Y105600D02*
D03*
X24866Y141500D02*
D03*
X-104800Y-26000D02*
D03*
X84161Y142484D02*
D03*
X-39200Y-27600D02*
D03*
X-12079Y-21064D02*
D03*
X-18500Y-9900D02*
D03*
X-24121Y-17385D02*
D03*
X-80129Y22067D02*
D03*
X-86200Y24200D02*
D03*
X-5800Y-7500D02*
D03*
X-1900Y27300D02*
D03*
X-4244Y-18546D02*
D03*
X-7549Y-17385D02*
D03*
X-23297Y23954D02*
D03*
X13880Y1226D02*
D03*
X16350Y-48587D02*
D03*
X2850Y-48737D02*
D03*
X-3950Y-48887D02*
D03*
X30518Y-36800D02*
D03*
X-20800Y-55087D02*
D03*
X-36200Y-48887D02*
D03*
X-57299Y20017D02*
D03*
X-67986Y12224D02*
D03*
X46200Y3900D02*
D03*
X-20804Y88600D02*
D03*
X-25600Y39700D02*
D03*
X64700Y114000D02*
D03*
X62000Y105220D02*
D03*
X-42100Y29100D02*
D03*
X-71825Y42200D02*
D03*
X-68600Y38785D02*
D03*
X-68200Y42400D02*
D03*
X-21500Y40650D02*
D03*
X-17900Y39900D02*
D03*
X-71800Y19900D02*
D03*
X-69100Y17200D02*
D03*
X-58297Y32149D02*
D03*
X-38565Y29812D02*
D03*
X-52900Y16500D02*
D03*
X-61300Y22300D02*
D03*
X-76651Y19348D02*
D03*
X-106800Y7500D02*
D03*
X11650Y3547D02*
D03*
X-62221Y-108000D02*
D03*
X11650Y8100D02*
D03*
X73600Y-116300D02*
D03*
X-46700Y-16300D02*
D03*
X-60100Y-21071D02*
D03*
X-60200Y-28000D02*
D03*
X21100Y124300D02*
D03*
X24900Y119100D02*
D03*
X-62221Y-99528D02*
D03*
X-62408Y-90904D02*
D03*
X-30600Y96600D02*
D03*
X145055Y37200D02*
D03*
X-65406Y-7900D02*
D03*
X-73300Y-38500D02*
D03*
X-78200Y-94700D02*
D03*
X-59900Y-7900D02*
D03*
X-69700Y-2800D02*
D03*
X-80200Y-103500D02*
D03*
X-66800Y-4400D02*
D03*
X-58432Y38785D02*
D03*
D77*
X-75700Y-126700D02*
D03*
X-44100Y-134000D02*
D03*
X22416Y30931D02*
D03*
X-83728Y-136362D02*
D03*
X32382Y-142772D02*
D03*
X-148700Y-53700D02*
D03*
X-126000Y-44264D02*
D03*
X97000Y-1100D02*
D03*
X-142000Y28000D02*
D03*
X-91700Y-37600D02*
D03*
X-93001Y-31269D02*
D03*
M02*
